<?xml version="1.0" encoding="UTF-8" standalone="no"?>
<svg
   height="150"
   width="200"
   version="1.1"
   id="svg1"
   sodipodi:docname="filesystem.svg"
   inkscape:version="1.3.2 (091e20ef0f, 2023-11-25, custom)"
   xmlns:inkscape="http://www.inkscape.org/namespaces/inkscape"
   xmlns:sodipodi="http://sodipodi.sourceforge.net/DTD/sodipodi-0.dtd"
   xmlns="http://www.w3.org/2000/svg"
   xmlns:svg="http://www.w3.org/2000/svg">
  <defs
     id="defs1">
    <inkscape:path-effect
       effect="sketch"
       id="path-effect21"
       is_visible="true"
       lpeversion="1"
       nbiter_approxstrokes="3"
       parallel_offset="1;192937983"
       strokelength="70"
       strokelength_rdm="0.5;903206615"
       strokeoverlap="0.5"
       strokeoverlap_rdm="0.5;1105235548"
       ends_tolerance="0.1;836224758"
       tremble_size="0.8;1"
       tremble_frequency="3"
       nbtangents="2"
       tgt_places_rdmness="0.5;1"
       tgtlength="5"
       tgtlength_rdm="0.3;1"
       tgtscale="10" />
    <inkscape:path-effect
       effect="sketch"
       id="path-effect15"
       is_visible="true"
       lpeversion="1"
       nbiter_approxstrokes="3"
       parallel_offset="1;192937983"
       strokelength="70"
       strokelength_rdm="0.5;903206615"
       strokeoverlap="0.5"
       strokeoverlap_rdm="0.5;1105235548"
       ends_tolerance="0.1;836224758"
       tremble_size="0.8;1"
       tremble_frequency="3"
       nbtangents="2"
       tgt_places_rdmness="0.5;1"
       tgtlength="5"
       tgtlength_rdm="0.3;1"
       tgtscale="10" />
    <inkscape:path-effect
       effect="sketch"
       id="path-effect13"
       is_visible="true"
       lpeversion="1"
       nbiter_approxstrokes="3"
       parallel_offset="1;720719709"
       strokelength="70"
       strokelength_rdm="0.5;2076376036"
       strokeoverlap="0.5"
       strokeoverlap_rdm="0.5;1105235548"
       ends_tolerance="0.1;836224758"
       tremble_size="0.8;1"
       tremble_frequency="3"
       nbtangents="2"
       tgt_places_rdmness="0.5;1"
       tgtlength="5"
       tgtlength_rdm="0.3;1"
       tgtscale="10" />
    <inkscape:path-effect
       effect="sketch"
       id="path-effect10"
       is_visible="true"
       lpeversion="1"
       nbiter_approxstrokes="3"
       parallel_offset="0.2;1"
       strokelength="70"
       strokelength_rdm="0.3;1"
       strokeoverlap="0.5"
       strokeoverlap_rdm="0.5;1"
       ends_tolerance="0.1;1"
       tremble_size="0.8;1"
       tremble_frequency="3"
       nbtangents="2"
       tgt_places_rdmness="0.5;1"
       tgtlength="5"
       tgtlength_rdm="0.3;1"
       tgtscale="10" />
    <inkscape:path-effect
       effect="sketch"
       id="path-effect9"
       is_visible="true"
       lpeversion="1"
       nbiter_approxstrokes="3"
       parallel_offset="0.2;1"
       strokelength="70"
       strokelength_rdm="0.3;1"
       strokeoverlap="0.5"
       strokeoverlap_rdm="0.5;1"
       ends_tolerance="0.1;1"
       tremble_size="0.8;1"
       tremble_frequency="3"
       nbtangents="2"
       tgt_places_rdmness="0.5;1"
       tgtlength="5"
       tgtlength_rdm="0.3;1"
       tgtscale="10" />
    <inkscape:path-effect
       effect="sketch"
       id="path-effect8"
       is_visible="true"
       lpeversion="1"
       nbiter_approxstrokes="3"
       parallel_offset="0.2;1"
       strokelength="70"
       strokelength_rdm="0.3;1"
       strokeoverlap="0.5"
       strokeoverlap_rdm="0.5;1"
       ends_tolerance="0.1;1"
       tremble_size="0.8;1"
       tremble_frequency="3"
       nbtangents="2"
       tgt_places_rdmness="0.5;1"
       tgtlength="5"
       tgtlength_rdm="0.3;1"
       tgtscale="10" />
    <inkscape:path-effect
       effect="sketch"
       id="path-effect4"
       is_visible="true"
       lpeversion="1"
       nbiter_approxstrokes="3"
       parallel_offset="0.2;1"
       strokelength="70"
       strokelength_rdm="0.3;1"
       strokeoverlap="0.5"
       strokeoverlap_rdm="0.5;1"
       ends_tolerance="0.1;1"
       tremble_size="0.8;1"
       tremble_frequency="3"
       nbtangents="2"
       tgt_places_rdmness="0.5;1"
       tgtlength="5"
       tgtlength_rdm="0.3;1"
       tgtscale="10" />
    <inkscape:path-effect
       effect="sketch"
       id="path-effect3"
       is_visible="true"
       lpeversion="1"
       nbiter_approxstrokes="3"
       parallel_offset="2;1"
       strokelength="70"
       strokelength_rdm="0.3;1"
       strokeoverlap="0.5"
       strokeoverlap_rdm="0.5;1"
       ends_tolerance="0.1;1"
       tremble_size="0.8;1"
       tremble_frequency="3"
       nbtangents="2"
       tgt_places_rdmness="0.5;1"
       tgtlength="5"
       tgtlength_rdm="0.3;1"
       tgtscale="10" />
    <inkscape:path-effect
       effect="sketch"
       id="path-effect2"
       is_visible="true"
       lpeversion="1"
       nbiter_approxstrokes="3"
       parallel_offset="2;1"
       strokelength="70"
       strokelength_rdm="0.3;1"
       strokeoverlap="0.5"
       strokeoverlap_rdm="0.5;1"
       ends_tolerance="0.1;1"
       tremble_size="0.8;1"
       tremble_frequency="3"
       nbtangents="2"
       tgt_places_rdmness="0.5;1"
       tgtlength="5"
       tgtlength_rdm="0.3;1"
       tgtscale="10" />
    <inkscape:path-effect
       effect="sketch"
       id="path-effect6"
       is_visible="true"
       lpeversion="1"
       nbiter_approxstrokes="3"
       parallel_offset="0.2;1"
       strokelength="70"
       strokelength_rdm="0.3;1"
       strokeoverlap="0.5"
       strokeoverlap_rdm="0.5;1"
       ends_tolerance="0.1;1"
       tremble_size="0.8;1"
       tremble_frequency="3"
       nbtangents="2"
       tgt_places_rdmness="0.5;1"
       tgtlength="5"
       tgtlength_rdm="0.3;1"
       tgtscale="10" />
    <inkscape:path-effect
       effect="sketch"
       id="path-effect5"
       is_visible="true"
       lpeversion="1"
       nbiter_approxstrokes="3"
       parallel_offset="0.2;1"
       strokelength="70"
       strokelength_rdm="0.3;1"
       strokeoverlap="0.5"
       strokeoverlap_rdm="0.5;1"
       ends_tolerance="0.1;1"
       tremble_size="0.8;1"
       tremble_frequency="3"
       nbtangents="2"
       tgt_places_rdmness="0.5;1"
       tgtlength="5"
       tgtlength_rdm="0.3;1"
       tgtscale="10" />
    <inkscape:path-effect
       effect="sketch"
       id="path-effect1"
       is_visible="true"
       lpeversion="1"
       nbiter_approxstrokes="3"
       parallel_offset="0.2;1"
       strokelength="70"
       strokelength_rdm="0.3;1"
       strokeoverlap="0.5"
       strokeoverlap_rdm="0.5;1"
       ends_tolerance="0.1;1"
       tremble_size="0.8;1"
       tremble_frequency="3"
       nbtangents="2"
       tgt_places_rdmness="0.5;1"
       tgtlength="5"
       tgtlength_rdm="0.3;1"
       tgtscale="10" />
    <inkscape:path-effect
       effect="sketch"
       id="path-effect7"
       is_visible="true"
       lpeversion="1"
       nbiter_approxstrokes="3"
       parallel_offset="0.2;1"
       strokelength="70"
       strokelength_rdm="0.3;1"
       strokeoverlap="0.5"
       strokeoverlap_rdm="0.5;1"
       ends_tolerance="0.1;1"
       tremble_size="0.8;1"
       tremble_frequency="3"
       nbtangents="2"
       tgt_places_rdmness="0.5;1"
       tgtlength="5"
       tgtlength_rdm="0.3;1"
       tgtscale="10" />
  </defs>
  <sodipodi:namedview
     id="namedview1"
     pagecolor="#ffffff"
     bordercolor="#000000"
     borderopacity="0.25"
     inkscape:showpageshadow="2"
     inkscape:pageopacity="0.0"
     inkscape:pagecheckerboard="0"
     inkscape:deskcolor="#d1d1d1"
     inkscape:zoom="1.4142136"
     inkscape:cx="140.71425"
     inkscape:cy="89.095452"
     inkscape:window-width="1440"
     inkscape:window-height="831"
     inkscape:window-x="0"
     inkscape:window-y="0"
     inkscape:window-maximized="1"
     inkscape:current-layer="svg1"
     showgrid="true">
    <inkscape:grid
       id="grid1"
       units="px"
       originx="0"
       originy="0"
       spacingx="1"
       spacingy="1"
       empcolor="#0099e5"
       empopacity="0.30196078"
       color="#0099e5"
       opacity="0.14901961"
       empspacing="5"
       dotted="false"
       gridanglex="30"
       gridanglez="30"
       visible="true" />
  </sodipodi:namedview>
  <g
     id="g2">
    <g
       id="g1"
       transform="matrix(0.6838952,0,0,0.6838952,4.2412163,12.629301)"
       style="stroke-width:1.46221234;stroke-dasharray:none">
      <path
         id="path13"
         style="fill:#ff8080;stroke-width:1.46221234;stroke-dasharray:none"
         d="m 10.098909,30.00195 0.0039,0.15039 c 0.0095,-0.05014 0.01922,-0.100266 0.0293,-0.15039 z m 0.0039,0.15039 0.796875,60 c 5e-6,14.23697 24.625122,27.39129 64.599609,34.50977 39.974487,7.11849 89.226677,7.11848 129.201177,0 39.9745,-7.11848 64.59962,-20.2728 64.59961,-34.50977 L 270.095,30.16992 C 270.06173,52.169995 211.87174,69.999354 140.10087,70 68.30608,70.000016 32.110226,30.15234 10.102815,30.15234 Z M 270.06961,30.00195 c 0.009,0.04557 0.0185,0.09114 0.0273,0.13672 l 0.002,-0.13672 z"
         sodipodi:nodetypes="ccccccsscccsccccc" />
      <path
         id="path19"
         style="fill:#ff5555;stroke-width:1.46221234;stroke-dasharray:none"
         d="m 10.099609,30.00195 0.0039,0.15039 c 0.0095,-0.05014 0.01922,-0.100266 0.0293,-0.15039 z m 0.0039,0.15039 0.796875,60 c 5e-6,14.23696 24.625162,27.3913 64.599609,34.50977 39.974447,7.11848 89.226707,7.11847 129.201167,0 33.6619,-5.99436 56.37022,-16.27432 62.72461,-27.87109 -10.99738,7.37457 -29.16485,13.67567 -52.72461,17.87109 -39.97446,7.11847 -89.22672,7.11848 -129.201167,0 C 45.525553,107.54364 20.900396,94.3893 20.900391,80.15234 L 20.611328,45.6875 C 13.747101,40.777359 15.445914,30.15234 10.103516,30.15234 Z M 270.0703,50.00195 c 0.009,0.04557 0.0185,0.09114 0.0274,0.13672 l 0.002,-0.13672 z m 0.0254,0.16797 c -0.0772,2.186855 -0.74152,4.368051 -1.98632,6.52149 0.65212,-0.423658 1.27982,-0.850808 1.88281,-1.28125 z"
         sodipodi:nodetypes="ccccccsscssccsccccccccc" />
      <ellipse
         style="fill:#ffaaaa;stroke:none;stroke-width:1.46221234;stroke-dasharray:none"
         id="ellipse22"
         cx="140.00075"
         cy="30.150146"
         rx="129.99796"
         ry="39.848553" />
      <path
         id="ellipse19"
         style="fill:#ff8080;stroke:none;stroke-width:1.46221234;stroke-dasharray:none"
         d="M 21.992188,13.60742 A 129.99796,39.848553 0 0 0 10.001953,30.15039 129.99796,39.848553 0 0 0 140,69.99805 129.99796,39.848553 0 0 0 268.01172,36.68945 129.99796,39.848553 0 0 1 150,59.99805 129.99796,39.848553 0 0 1 20.001953,20.15039 129.99796,39.848553 0 0 1 21.992188,13.60742 Z" />
      <g
         id="g13"
         style="stroke-width:1.46221234;stroke-dasharray:none"
         inkscape:path-effect="#path-effect13">
        <path
           style="fill:none;stroke:#000000;stroke-width:1.46221234;stroke-dasharray:none"
           id="path1"
           sodipodi:type="arc"
           sodipodi:ry="39.848553"
           sodipodi:rx="129.99796"
           sodipodi:cy="30.150143"
           sodipodi:cx="140.00075"
           d="m 270.63813,30.73749 c 0.0197,2.459349 -0.79413,4.951902 -2.41731,7.421445 -1.68289,2.560394 -4.23706,5.096755 -7.59805,7.534612 -1.24455,0.902717 -2.59731,1.789881 -4.04775,2.652729 -5.69303,3.386696 -12.95296,6.500252 -21.71111,8.963249 0,0 0,10e-7 0,10e-7 -0.99525,0.279887 -1.98625,0.561601 -2.99309,0.849545 -3.72328,1.064814 -8.25093,2.389894 -12.21585,3.456913 m 16.35641,-5.595763 c -1.85389,0.602483 -3.7506,1.186949 -5.677,1.742347 -5.1903,1.496405 -10.75149,2.828452 -16.64592,3.775826 -7.09807,1.140828 -14.82972,3.013079 -22.72971,4.36245 0,10e-7 0,10e-7 0,10e-7 -0.74824,0.127805 -1.50169,0.249313 -2.26033,0.365271 -5.5733,0.851877 -11.22133,1.376164 -17.05809,1.92243 m 31.42506,-2.427453 c -4.23644,0.628705 -8.49949,1.240332 -12.62033,1.734961 -3.15383,0.378558 -6.29779,0.697934 -9.42962,0.917183 -7.00629,0.490486 -15.53295,1.604356 -24.20179,2.661832 -5.82759,0.710884 -10.92874,0.42057 -15.94116,-0.14683 -1.37788,-0.155974 -2.74697,-0.332595 -4.11925,-0.514259 m 19.32098,-0.530501 c -5.56297,0.214528 -10.87206,0.28313 -16.06309,0.205752 -2.16669,-0.0323 -4.31091,-0.08999 -6.44309,-0.172937 0,0 0,0 0,0 -7.30466,-0.284162 -15.60847,-0.324601 -23.1573,-0.595899 -6.40801,-0.230298 -13.554462,-0.861019 -20.060082,-1.309558 -1.003965,-0.06922 -2.004218,-0.135226 -3.003217,-0.196791 m 27.807809,2.149915 C 107.37799,69.590571 99.337304,68.5609 91.698636,67.223316 91.164578,67.129799 90.632682,67.038512 90.103232,66.949079 82.256028,65.623556 75.765424,64.799789 68.57842,63.084616 m 16.330057,3.500593 C 77.035942,65.110379 69.04059,64.094565 61.778615,62.698472 57.418944,61.860339 53.289556,60.70394 49.495273,59.463646 48.722316,59.210978 47.958863,58.953344 47.206524,58.692585 m 14.647721,3.151271 C 56.748417,60.75053 51.65686,59.316218 46.957777,57.737735 44.31342,56.849461 41.775746,55.909869 39.386791,54.942987 34.151005,52.823906 29.762822,50.980554 25.646011,48.839528 M 38.5814,56.693851 C 30.443623,53.493283 24.154156,49.782182 19.416759,45.453779 c -0.367948,-0.336182 -0.72529,-0.675132 -1.071996,-1.016681 -2.677322,-2.637499 -4.70244,-4.661664 -6.293872,-6.842946 -0.806596,-1.105554 -1.443939,-2.181245 -1.911931,-3.25741 m 7.514058,10.029341 c -1.846661,-1.714724 -3.352528,-3.425764 -4.506297,-5.159787 -1.710168,-2.570246 -2.618266,-5.151469 -2.711484,-7.7527 -0.09279,-2.589214 0.623549,-5.164161 2.114113,-7.719262 0,0 0,-1e-6 0,-1e-6 0.0056,-0.0095 0.01114,-0.01907 0.01673,-0.02861 1.507024,-2.571114 3.935666,-5.081973 7.282643,-7.56791 2.265044,-1.682341 4.902608,-3.319081 7.899154,-4.954451 m -13.545979,9.532716 c 1.552974,-1.982873 3.650794,-3.936899 6.278137,-5.8285 C 23.94189,12.395158 28.350636,9.9949379 33.54086,7.8632434 37.796901,6.1152305 43.803505,3.6766088 49.028191,1.6716222 50.340146,1.1681561 51.690061,0.65794968 53.063922,0.1500719 m -12.588008,3.366335 c 2.221602,-0.7576325 4.561313,-1.487411 6.995672,-2.1669936 4.81483,-1.34412147 10.111404,-2.5233352 15.722055,-3.3236541 5.489532,-0.783042 10.467724,-2.0530196 15.811843,-3.4114968 m -15.130177,2.506531 c 7.004893,-1.6964422 14.503052,-2.9270865 22.044121,-3.8909403 -0.859442,0.1098487 5.20442,-0.6623734 4.344978,-0.5525247 4.399522,-0.5550317 9.407687,-1.1693317 14.442504,-1.7133253 m -16.645216,3.4417245 c 0.476746,-0.065836 0.953961,-0.1310297 1.431743,-0.1956372 7.16497,-0.9688744 14.208403,-1.7738602 21.644273,-2.64455 5.11925,-0.5994289 10.28199,-0.8721442 15.53408,-1.1577949 m -9.43061,-0.1979136 c 7.35697,-0.2108029 15.09239,-0.3456619 22.35755,0.2172105 0.0912,0.00706 0.18228,0.014237 0.27331,0.021522 0,0 0,0 0,-1e-7 7.3413,0.5874682 15.66615,-0.2665764 23.33964,-0.781079 4.67645,-0.313553 9.38038,0.332408 14.02848,1.2818521 m -26.10064,-0.00192 c 8.01265,0.22046 15.72713,0.2013789 23.5329,-0.029543 5.06749,-0.1499143 9.95328,0.6998509 14.63378,1.7959409 2.79425,0.6543626 5.64729,1.4305682 8.35183,2.1374598 3.13621,0.819721 6.31291,1.3917377 9.39784,1.8822383 m -18.71474,-2.2259904 c 0.0145,0.0021 0.77382,0.1118474 0.78834,0.1139519 7.84927,1.1317312 15.10935,2.113408 22.43542,3.5285456 6.42528,1.24113854 12.45508,2.72005031 17.99476,4.2924195 m -18.98253,-4.2407643 c 7.60633,1.6578588 14.41746,3.1812286 20.83413,5.0858328 0.47632,0.1413811 0.94749,0.2840425 1.41358,0.4281148 0,0 0,6e-7 0,6e-7 8.24228,2.5477989 15.40332,5.8723508 20.60926,9.2922659 1.79375,1.178356 3.45512,2.276695 5.06205,3.418376 1.23584,0.878034 2.38304,1.742417 3.44232,2.616348 M 239.96962,3.741631 c 7.71009,2.7778759 14.49384,6.535252 19.36731,10.29668 0.49877,0.384961 0.9803,0.771811 1.44417,1.160121 2.66451,2.23044 4.6936,4.417778 6.13101,6.646501 1.08288,1.679019 1.82069,3.369538 2.217,5.075389 m -4.95549,-8.422278 c 1.88837,1.720334 3.39978,3.420449 4.53824,5.129533 1.6778,2.518765 2.52821,5.035521 2.54847,7.545748 0.0201,2.489113 -0.77768,4.945192 -2.36584,7.331214 0,0 0,0 0,0 -0.0126,0.01887 -0.0252,0.03774 -0.0378,0.05662 -1.6121,2.40274 -4.08362,4.872365 -7.36221,7.346563 -1.47344,1.111938 -3.11767,2.229131 -4.90556,3.321317 m 13.53207,-18.438959 c -0.17433,2.233002 -0.9992,4.47793 -2.47135,6.71345 -1.7217,2.614455 -4.3184,5.203433 -7.79449,7.785736 -1.50579,1.118608 -3.17081,2.231828 -4.99415,3.343621 -5.38811,3.285433 -11.08643,5.528842 -18.01325,7.234264 m 11.48076,-4.135291 c -4.50948,1.950477 -9.95647,4.093302 -15.43578,5.959522 -1.80603,0.61512 -3.65491,1.213598 -5.51268,1.774075 -6.71733,2.026579 -14.23591,3.699617 -22.89676,5.846661 0,0 0,10e-7 0,10e-7 -2.80426,0.695182 -5.67641,1.209057 -8.66854,1.629374 m 25.54455,-3.95134 c -6.89974,1.638322 -14.88597,2.738934 -23.22706,2.871832 -2.69165,0.04289 -5.35025,0.296867 -8.04298,0.653561 -4.95118,0.655862 -9.93141,1.664288 -15.08455,2.142689 -3.08674,0.286563 -6.1447,0.54958 -9.18366,0.803887 m 26.34038,-3.054988 c -0.86569,0.101153 -1.73771,0.207842 -2.61582,0.319571 -6.57046,0.836019 -13.08946,1.900606 -19.6649,2.970822 -6.99924,1.139194 -14.96054,0.91706 -22.57471,1.076601 m 15.70922,-2.490544 c -7.63299,0.475278 -15.06683,0.910772 -22.33307,1.488983 2.2e-4,-1.8e-5 -0.2289,0.01827 -0.22868,0.01825 0,0 0,0 0,0 -7.2677,0.581628 -15.88287,-0.108276 -23.88346,-0.316361 -0.70362,-0.0183 -1.39815,-0.04293 -2.08423,-0.07342 m 13.29195,-0.179882 c -7.89894,-0.415489 -15.51155,-0.394484 -22.49794,-0.561411 -4.47503,-0.106923 -9.272994,-0.69291 -13.881806,-1.395544 m 16.536596,1.978647 c -6.03396,-0.285008 -12.053648,-1.116774 -17.901901,-2.132539 -1.879383,-0.326424 -3.753991,-0.674266 -5.60929,-1.031247 0,0 -2e-6,-10e-7 -2e-6,-10e-7 -8.322556,-1.601356 -15.885414,-2.605716 -23.189206,-4.277057 -4.9635,-1.135808 -9.501015,-2.391496 -13.700549,-3.761892 -5e-6,-10e-7 -0.07336,-0.02396 -0.07336,-0.02396 m 21.547945,4.602086 c -7.043192,-1.183315 -15.6716,-3.013442 -21.920277,-4.291759 0.026,0.0053 -1.279573,-0.261211 -1.253571,-0.255892 0,0 -1e-6,0 -1e-6,0 -8.440195,-1.718797 -15.852901,-6.189839 -20.833135,-9.50666 -1.915756,-1.275887 -3.677432,-2.481492 -5.34243,-3.733692 -3.300016,-2.481856 -5.874889,-4.900584 -7.679517,-7.499563 -0.06513,-0.0938 -0.129155,-0.187703 -0.192061,-0.281703 M 25.080567,49.150302 C 22.983617,47.876864 21.082731,46.628162 19.35703,45.355148 16.024423,42.896753 13.455533,40.423931 11.661077,37.832416 10.393766,36.002191 9.5352758,34.142104 9.087475,32.250616 8.9044672,31.4776 8.8034984,30.70629 8.7826871,29.938388 c -0.07162,-2.642657 0.804112,-5.260826 2.6013749,-7.803073 1.811544,-2.562448 4.51696,-4.998455 8.111246,-7.404769 0.630245,-0.421938 1.284943,-0.841173 1.964285,-1.259138 4.107335,-2.52704 8.996794,-5.1618678 14.273175,-7.5638948 M 15.02812,17.497601 c 1.242421,-1.234017 2.711603,-2.443727 4.40817,-3.61129 4.145095,-2.85262 9.751248,-5.5198608 16.760053,-7.5771311 4.320367,-1.2681422 8.037098,-2.7134503 12.23684,-4.4247108 M 38.046381,5.4990377 c 3.168221,-1.3399281 6.555784,-2.5233335 10.207587,-3.6165142 3.784724,-1.13297085 7.683293,-2.11981224 11.837824,-3.102892 6.819553,-1.6136996 14.634041,-2.8357439 22.866342,-3.3864494 m -21.179243,2.3367204 c 7.500014,-1.8917203 14.431306,-3.0593409 22.030288,-4.2206587 1.766711,-0.2699984 3.628888,-0.5053341 5.562564,-0.7034498 5.585447,-0.5722596 11.759157,-0.8320731 17.762487,-0.7135338 3.0068,0.059371 5.97275,-0.098933 8.93861,-0.3525633 m -25.255016,1.3267408 c 0,0 3.71e-4,-3.79e-5 3.71e-4,-3.79e-5 7.409882,-0.7555327 15.310625,-1.7776549 23.322055,-2.4760129 7.79032,-0.6790839 15.2956,-0.8547809 22.89062,-1.0890959 0,0 0,0 0,0 1.03287,-0.03186 2.07522,-0.05135 3.12475,-0.05981 2.64276,-0.0213 5.32939,0.02731 8.02131,0.123798 m -27.36368,2.2989293 c 6.11364,-0.1241352 12.30297,-0.5225156 18.54791,-0.9125339 1.56254,-0.097586 3.12223,-0.1941864 4.67565,-0.2849905 0,0 1e-5,10e-8 1e-5,10e-8 7.74133,-0.4525141 15.99492,0.5608873 24.21873,1.4037644 3.59116,0.3680652 6.96263,0.6243097 10.21188,0.8482671 m -28.67967,-2.2136027 c 7.86815,0.1055216 15.74352,0.6309464 23.41024,1.2557892 5.25444,0.4282407 10.56697,0.9034538 15.84518,1.4074371 2.63812,0.2518977 5.2907,0.5131973 7.93849,0.7813738 m -21.15405,-3.1819161 c 4.67174,0.345087 9.35456,1.0100511 13.85232,1.8902689 2.96143,0.5795545 5.84619,1.2530556 8.60728,1.9930459 0,0 1e-5,3e-7 1e-5,3e-7 7.62608,2.043838 16.06893,2.699794 23.59372,4.31364921 1.61014,0.34532752 3.1564,0.70651057 4.64364,1.0777953 M 212.93346,-2.2954494 c 6.66277,1.2078721 13.41474,3.03918538 19.39535,4.8885633 1.23606,0.3822231 2.45458,0.7701123 3.64717,1.1591742 0,0 1e-5,5e-7 1e-5,5e-7 8.82462,2.8788817 15.24944,5.8203995 20.15791,8.9785464 1.08833,0.700245 2.15007,1.437833 3.16452,2.203376 0.85325,0.643899 1.67036,1.305522 2.44292,1.981289 M 247.22693,7.9215868 c 5.1699,2.4466022 9.64635,4.9051212 13.38591,7.6331612 2.5005,1.824139 4.57328,3.70096 6.19989,5.641871 0.58105,0.693324 1.09502,1.380283 1.54423,2.062849 1.7035,2.58844 2.48341,5.124225 2.38896,7.618145 -0.0945,2.495625 -1.07044,4.935703 -2.91609,7.269149 -0.81002,1.024106 -1.78384,2.023496 -2.92041,3.000973 -1.43928,1.237815 -3.09464,2.566638 -4.86556,3.919791 -3.02252,2.309499 -7.19714,5.315963 -11.25999,7.74664 M 270.0177,35.450498 c -0.42436,1.315071 -1.07574,2.635613 -1.95346,3.955604 -1.68042,2.527167 -4.20594,5.071098 -7.53555,7.527618 -2.07913,1.533941 -4.49527,3.049695 -7.211,4.480769 -3.73981,1.970717 -7.85913,3.809892 -12.31047,5.466669 m 10.77066,-6.546275 c -5.73368,2.863712 -12.73671,5.790279 -20.32677,8.090674 -0.33869,0.102648 -0.6796,0.204389 -1.02275,0.305155 -6.37638,1.872471 -13.72797,3.609908 -21.11575,4.819771 m 16.35652,-4.319473 c -6.94358,1.988496 -14.53667,3.603268 -22.79094,5.071196 -4.67283,0.831007 -9.32998,1.57106 -13.97375,2.248233 -0.45659,0.06658 -0.91277,0.132516 -1.36855,0.197832 M 201.0226,65.36299 c -3.96035,0.795184 -8.06942,1.391418 -12.31417,1.895253 -3.46945,0.411809 -6.92116,0.749747 -10.41495,1.091099 -7.32387,0.715562 -15.10952,1.181344 -22.4534,1.319292 -2.3961,0.04501 -4.93222,0.147074 -7.55361,0.290463 m 19.33047,0.212037 c -7.6755,0.570295 -15.5193,0.769676 -23.49909,0.80948 -1.14144,0.0057 -2.28388,0.0071 -3.42811,0.0041 -5.99623,-0.01588 -12.02974,-0.154358 -18.22179,-0.443858 m 17.03012,-2.101421 c -7.61195,-0.242678 -16.09433,-0.01173 -24.55997,0.01148 -6.46576,0.01773 -11.96899,-0.569084 -17.270485,-1.130241 m 10.944645,1.079548 C 101.88881,67.89203 95.589906,67.316627 89.38658,66.619776 88.045668,66.469144 86.710494,66.312974 85.378447,66.150813 77.709705,65.217236 70.106909,63.754317 63.167579,62.242492 m 12.437159,2.15903 C 67.553416,63.129994 60.170829,61.358526 53.937066,59.516501 52.086073,58.969548 50.194723,58.407703 48.24722,57.811271 42.108164,55.931156 36.248352,53.958191 31.074866,51.72502 29.416004,51.00896 27.896809,50.281588 26.49929,49.544795 m 19.533292,7.412254 C 37.494605,54.221076 29.940752,50.819501 23.844867,47.123266 22.104304,46.067877 20.553936,45.044617 19.162265,44.028765 15.809978,41.581759 13.362841,39.16106 11.695234,36.667062 10.207851,34.442599 9.354827,32.175409 9.1067515,29.864642 c -0.029851,-0.278054 -0.048826,-0.555969 -0.056988,-0.83362 -0.075813,-2.578844 0.7804048,-5.150419 2.5543647,-7.616639 1.049979,-1.459718 2.422175,-2.883647 4.114333,-4.252001 m -2.830412,20.468659 c -0.02597,-0.03885 -0.05175,-0.07769 -0.07732,-0.11652 -1.708195,-2.593687 -2.540016,-5.171708 -2.51219,-7.717299 0.02782,-2.544983 0.916763,-5.05017 2.653068,-7.452838 1.144978,-1.584399 2.652278,-3.116088 4.513386,-4.586281 0.959803,-0.758202 2.00564,-1.540022 3.124656,-2.337958 C 24.665408,12.513848 30.928206,8.5400316 37.385439,5.4640918 40.765264,3.854093 44.356242,2.6197338 48.244357,1.593485 48.779829,1.45215 49.318794,1.3152915 49.861721,1.1822199 M 29.109592,10.294177 C 34.192341,7.8029301 40.816619,4.9542737 47.894991,2.1713264 48.799411,1.8157427 49.715087,1.459818 50.637814,1.105432 c 7.056253,-2.7100513 14.232153,-3.571767 22.718921,-4.7429666 0,0 2e-6,-3e-7 2e-6,-3e-7 5.149646,-0.7106667 10.440164,-1.6214186 15.806497,-2.4089258 m -26.124082,3.2990246 c 7.37519,-1.6941852 15.077728,-3.0362689 23.88408,-4.414696 1.096756,-0.1716713 2.1719,-0.3319516 3.229999,-0.4825767 5.884035,-0.8376185 11.035789,-1.3496312 16.484389,-1.8918394 m -14.126482,2.4313111 c 7.599172,-0.9935571 15.025522,-1.6251403 22.537022,-2.1776176 3.80454,-0.2798272 7.96375,-0.4522825 12.29654,-0.5545102 m -11.96473,0.3632698 c 7.41272,-0.41415 15.63798,-0.7177449 23.75898,-0.7680729 0.563,-0.0035 1.12326,-0.0062 1.68104,-0.0081 7.4687,-0.02525 14.5227,0.09133 21.73642,0.2951683 4.94353,0.1396923 9.68476,0.5432192 14.21067,1.063134 m -21.2506,0.9335352 c 7.6066,0.1883855 16.06891,0.5589483 23.62912,0.8264726 4.09842,0.1450263 7.97387,0.5882414 11.65103,1.1358325 3.64673,0.5430575 7.30826,1.2234303 10.69168,1.8235977 0.004,7.571e-4 0.34073,0.060408 0.345,0.061165 m -21.29754,-4.8665982 c 2.65069,0.3664482 5.29855,0.7377342 7.9739,1.1534834 5.22502,0.8119691 10.31526,1.7580822 15.24971,3.0491107 5.54862,1.4517187 10.73494,2.4300757 15.61129,3.6364282 m -16.25949,-2.8820093 c 7.70967,1.4696361 16.30718,2.6447111 23.16779,3.70348067 1.89763,0.29285288 3.71473,0.71731232 5.44617,1.22164261 5.90454,1.71986442 11.66683,4.67010822 16.00679,6.95152462 3.69406,1.9418831 6.96196,3.7375422 9.95883,5.7206352 M 241.59547,5.1127542 c 7.54205,2.6641432 14.00474,6.2525518 18.45246,9.6867768 0.54914,0.424006 1.07315,0.849458 1.57153,1.275688 2.34878,2.008726 4.27691,4.147026 5.69407,6.371635 0.82315,1.292137 1.46948,2.606108 1.93133,3.937881 m -9.26711,-11.97631 c -3e-5,-2.6e-5 0.0806,0.06342 0.0806,0.06339 3.18059,2.50713 5.64645,4.959293 7.348,7.508387 1.69077,2.532936 2.56963,5.086353 2.60557,7.660943 0.0196,1.407771 -0.21334,2.816284 -0.701,4.219861 -0.4022,1.157607 -0.97991,2.310661 -1.7319,3.453619 -1.66324,2.528014 -4.18188,5.009279 -7.5224,7.363747 -2.2204,1.564981 -4.80685,3.075259 -7.72564,4.487627 -4.42488,2.141145 -9.77968,4.444686 -15.38578,6.356439 M 31.158653,52.047326 24.044792,48.294683 m 166.966288,-54.8167686 7.10476,1.0070818" />
        <path
           id="ellipse1"
           style="fill:none;stroke:#000000;stroke-width:1.46221234;stroke-dasharray:none"
           d="m 268.84379,32.89313 c 0.0733,8.000137 -0.1508,15.293503 -0.12926,22.558478 0.0215,7.26809 -0.15774,15.589571 -0.17291,23.450016 l 0,3e-6 c -0.004,2.198766 -0.008,4.400016 -0.007,6.608914 m 0.85024,-20.999666 c 0.15647,7.886046 -0.1676,15.583241 -0.17936,23.439875 -0.001,0.859911 -0.007,1.719881 -0.0153,2.580244 0.0107,3.599737 -1.57579,7.133936 -4.6233,10.582416 -1.87983,2.12716 -4.30296,4.21113 -7.2592,6.29829 -1.8488,1.3053 -3.86941,2.50369 -6.07678,3.59093 -1.56774,0.7722 -3.22462,1.48598 -4.98639,2.1472 m 15.39838,-9.47551 c -2.64704,2.36544 -5.95364,4.46548 -9.93615,6.23757 -3.19801,1.42301 -6.78207,2.61473 -10.83878,3.61335 -6.75148,1.66198 -13.99892,4.93728 -22.55985,7.2698 0,0 -1e-5,0 -1e-5,0 -4.73881,1.29115 -9.49037,2.28929 -14.70966,3.2811 -1.32945,0.25263 -2.66561,0.50057 -4.02372,0.75113 m 27.0789,-4.48509 c -6.11151,1.41936 -13.80451,3.29856 -20.77354,4.51458 -0.60542,0.10564 -1.21367,0.20802 -1.8247,0.30665 -7.27928,1.17496 -15.44215,2.28208 -23.80971,3.01427 -1.56645,0.13707 -3.10312,0.26765 -4.61444,0.39033 m 12.35766,-1.65674 c -7.38675,1.06995 -14.90356,1.63758 -22.05447,2.11402 -6.92516,0.46139 -15.70768,0.45655 -23.96836,-0.0377 0,0 0,0 0,0 -0.55775,-0.0334 -1.11224,-0.0624 -1.66387,-0.0877 -2.57783,-0.11793 -5.09194,-0.1524 -7.58255,-0.15389 m 17.1651,1.25472 c -3.49322,0.11194 -6.9686,0.15499 -10.47705,0.14479 -4.51153,-0.0131 -9.07829,-0.11433 -13.79283,-0.27004 -8.4897,-0.28038 -15.23983,-0.86449 -22.09995,-1.83301 -3.3878,-0.4783 -7.237864,-0.8803 -11.148331,-1.29598 m 20.035191,2.10436 c -7.91593,-0.60747 -15.879341,-1.23654 -23.965075,-2.14352 -5.123649,-0.57472 -9.744471,-1.45875 -14.169952,-2.56375 -2.923197,-0.72989 -5.759697,-1.55628 -8.540866,-2.43949 -2.246745,-0.7135 -4.475458,-1.30169 -6.606483,-1.82088 m 25.531169,5.05876 c -2.718946,-0.44435 -5.431594,-0.87191 -8.063743,-1.28856 -5.289647,-0.83731 -10.068204,-1.60281 -14.807704,-2.48352 0,0 -3e-6,0 -3e-6,0 -8.051946,-1.49623 -16.586986,-4.69297 -23.370626,-7.47132 -2.020221,-0.82741 -3.837085,-1.61396 -5.507989,-2.3897 m 22.772463,8.47347 c -9.017203,-2.63441 -15.396346,-4.38334 -21.911386,-6.91552 -1.794899,-0.69761 -3.487945,-1.50381 -5.057397,-2.37056 -5.39428,-2.97907 -9.568424,-6.78192 -12.128218,-10.37183 -0.30729,-0.43095 -0.594549,-0.8627 -0.861466,-1.294618 -0.04233,-0.0685 -0.08432,-0.136887 -0.125958,-0.205183 m 8.945924,11.413231 c -4.440146,-2.45776 -7.877916,-5.35294 -10.261983,-8.31812 -2.494226,-3.10219 -3.923482,-6.377221 -4.215075,-9.69134 -0.04265,-0.484704 -0.060597,-0.965753 -0.05345,-1.443512 0.01824,-7.728727 0.08317,-14.288891 0.480421,-21.153906 0.276159,-4.772371 -0.0314,-10.070767 -0.478026,-15.481581 m 0.576857,23.870464 C 10.529777,70.196027 10.368621,62.470979 10.235472,55.110973 10.120017,48.728999 9.9000907,41.523041 9.5269518,34.298027 M 269.03455,30.348367 c -0.0474,7.64934 -0.29435,15.916376 -0.5666,24.41518 -0.27237,8.502447 0.16596,15.075494 0.81458,21.906266 l 0,3e-6 c 0.3722,3.919691 0.24346,8.493561 0.0392,13.183831 -0.0702,2.272811 -0.72537,4.543593 -1.89043,6.752341 m 1.00013,-19.991143 c -0.20667,4.644604 -0.11888,9.329558 0.11022,14.059576 0.18583,3.022566 -0.6424,6.016113 -2.38307,8.95716 -0.34942,0.590379 -0.74983,1.171539 -1.20114,1.742759 -2.74813,3.4783 -7.21049,6.40789 -13.36524,9.06646 -1.56919,0.67782 -3.21277,1.32408 -4.9355,1.95749 -2.51058,0.92309 -4.96721,1.90242 -7.63919,3.01074 m 23.83729,-14.30798 c -2.96872,2.94307 -6.74782,5.62613 -11.32015,8.13809 -2.47387,1.3591 -5.14632,2.65181 -8.09272,3.95314 -3.84769,1.69941 -8.0564,3.30267 -12.8106,5.04077 m 13.77207,-4.3822 c -6.23533,2.64492 -13.58811,4.99468 -21.53781,6.70299 -3.26227,0.70103 -7.92879,1.73888 -11.9439,2.56644 m 12.44958,-3.23448 c -5.73039,1.45378 -12.11667,2.91838 -18.87786,4.28243 -1.38982,0.28039 -2.79397,0.55622 -4.21021,0.82655 -4.50467,0.85985 -8.86507,1.4219 -13.21832,1.82705 m 13.87861,-2.1239 c -7.50067,1.15955 -15.29392,2.23237 -23.24668,2.8699 -7.70262,0.61747 -15.20426,1.43508 -22.63266,2.07251 -4.32366,0.37101 -8.87412,0.27755 -13.3897,-0.0788 m 26.0107,-1.23577 c -7.63238,0.49918 -15.26336,1.1648 -22.7948,1.9158 -1.64824,0.16436 -3.32885,0.24155 -5.03084,0.25247 -5.98098,0.0384 -12.24315,-0.7436 -18.21538,-1.42808 -5.53646,-0.63454 -11.00682,-0.61672 -16.23532,-0.56179 m 18.26247,1.25396 c -7.83062,-0.31545 -15.4571,-0.69818 -22.69846,-1.20459 -7.495815,-0.52421 -16.2398,-2.00394 -24.533471,-3.60826 -0.89492,-0.17311 -1.765831,-0.3393 -2.614842,-0.49974 -5.454567,-1.0308 -9.961289,-1.82327 -14.301509,-2.69734 m 18.635744,4.53081 c -1.069968,-0.15762 -2.14419,-0.32881 -3.219912,-0.51176 -6.894977,-1.17268 -13.918044,-2.84206 -20.1201,-4.50843 -8.681162,-2.33247 -15.178279,-5.19934 -20.670878,-8.62121 m 15.695347,7.26562 c -8.016159,-2.32713 -15.387191,-5.5463 -21.069479,-8.79288 -0.183059,-0.10459 -0.364688,-0.20938 -0.544868,-0.31435 -5.373594,-3.13056 -9.581858,-6.13308 -12.669326,-9.46609 -2.067872,-2.232328 -3.549208,-4.534649 -4.408335,-6.920447 -0.448261,-1.24482 -0.694249,-2.489367 -0.742149,-3.730755 -0.04246,-0.821682 -0.07742,-1.639355 -0.10679,-2.453897 m 11.395569,17.975869 c -2.475343,-1.7401 -4.544803,-3.58954 -6.184666,-5.4995 -2.975991,-3.466155 -4.559281,-7.140138 -4.637143,-10.931072 -0.04207,-1.273722 -0.08809,-2.55439 -0.139081,-3.841916 -0.167891,-4.23923 -0.181201,-8.179393 -0.12912,-12.051588 m 1.174662,15.077828 C 11.545608,81.168372 11.132377,73.640211 10.141102,66.333148 9.1857797,59.291097 10.199872,51.36036 10.795812,43.790022 M 10.44663,61.646196 c 0.03169,-7.830037 -0.220352,-15.722732 -0.322956,-23.839947 -0.0084,-0.665289 -0.0188,-1.326957 -0.03118,-1.985567 M 269.8205,35.235114 c -0.26955,7.9919 0.0169,15.386245 0.37118,22.833488 0.27703,5.823846 -0.13055,12.091224 -0.56294,18.325611 m 0.21795,-17.217242 c 0.0131,7.740446 -0.12718,15.49166 -0.0729,23.146312 0.0195,2.751557 -0.0279,5.539359 -0.12013,8.346717 -0.0701,3.575786 -1.74753,7.116552 -4.89885,10.5192 -0.76228,0.82308 -1.61066,1.6378 -2.54235,2.44175 -2.90833,2.50959 -6.4955,4.88398 -10.70916,6.99936 -0.97592,0.48994 -1.99014,0.96843 -3.04432,1.43439 m 17.63757,-14.220815 c -0.61641,0.983666 -1.35074,1.960712 -2.1966,2.928555 -2.8328,3.24129 -7.01261,6.46943 -12.05194,9.26619 -0.9075,0.50365 -1.84556,0.99442 -2.80906,1.46737 -5.35685,2.62946 -13.64463,5.71703 -22.97304,8.44613 0,0 0,0 0,0 -1.73244,0.50684 -3.43025,0.9546 -5.10905,1.34712 m 22.66721,-7.45951 c -6.44847,2.80958 -13.08857,5.15346 -20.83647,8.00211 -4.81094,1.76883 -10.66179,2.67865 -17.22311,3.43076 -2.00707,0.23007 -3.9611,0.43352 -5.95419,0.65105 -2.71913,0.29676 -5.87591,0.66878 -8.59504,0.96554 m 18.91627,-3.66893 c -1.95057,0.39373 -3.97843,0.79545 -6.07436,1.20468 -5.47603,1.0692 -11.41574,2.18928 -17.36283,3.29367 -7.93263,1.47312 -15.18466,1.5026 -23.02912,1.73783 -0.25636,0.008 -0.5133,0.0159 -0.77081,0.0245 m 15.6047,-1.12565 c -7.47025,0.70892 -15.13932,1.12562 -22.45224,1.19427 -4.62585,0.0434 -9.63518,0.22536 -14.68826,0.38968 -1.21263,0.0394 -2.42486,0.0777 -3.63024,0.11264 m 11.39027,0.36286 c -3.1782,0.0146 -6.36075,0.056 -9.53457,0.0915 -4.37188,0.049 -8.67809,0.0861 -12.78579,0.0237 -7.0922,-0.10783 -15.81174,-0.55798 -23.46725,-0.90652 -3.562941,-0.16222 -7.125947,-0.504 -10.673767,-0.92172 m 21.885187,0.12903 c -7.99258,-0.63227 -15.71631,-0.93833 -23.049398,-1.34988 -5.252569,-0.29478 -10.651029,-1.33578 -15.867749,-2.53963 -2.541543,-0.5865 -5.120732,-1.23152 -7.551372,-1.84045 -1.578655,-0.39549 -3.123745,-0.76546 -4.619667,-1.11625 m 22.188221,5.33478 c -3.241115,-0.37109 -6.600093,-0.85716 -9.952855,-1.38936 -4.569524,-0.72535 -9.534675,-1.6045 -13.836327,-2.35812 -5.905666,-1.03462 -10.819689,-2.78977 -15.071584,-4.68856 m 14.487985,2.7643 c -8.171851,-1.76831 -15.646783,-4.21247 -21.390979,-6.43447 -3.479163,-1.34583 -6.933667,-2.87885 -10.054307,-4.47221 -4.081508,-2.08397 -7.557579,-4.24946 -10.226591,-6.43763 -1.071561,-0.87851 -2.037249,-1.80209 -2.889055,-2.75331 -2.973711,-3.320764 -4.577142,-6.976429 -4.67261,-10.693935 -0.02667,-0.694862 -0.05451,-1.391205 -0.08359,-2.088464 m 17.389635,22.178839 c -0.35207,-0.18809 -0.698894,-0.37564 -1.040592,-0.56281 -5.570486,-3.05127 -9.699313,-5.97023 -12.470831,-9.1032 -1.357962,-1.535054 -2.365289,-3.098958 -3.007334,-4.69093 -0.657496,-1.630282 -1.008643,-3.370715 -1.007658,-5.191215 -0.07583,-6.009794 -0.615456,-12.66379 -1.015234,-19.270113 -0.176955,-2.924166 -0.271533,-5.64547 -0.332881,-8.264107 m 1.557808,25.242233 C 11.69298,81.230887 11.697682,73.827786 11.7527,66.578889 l -1e-6,-3e-6 C 11.80774,59.326884 11.110604,50.821017 10.148535,42.641374 l 0,-3e-6 C 9.6739143,38.606082 9.6959346,34.795411 9.9058977,31.063196 m 114.0625523,98.646244 -7.44857,-0.35518 m 45.61649,0.0849 -9.49949,0.39755"
           sodipodi:nodetypes="ccsscc"
           inkscape:original-d="m 270,30 -0.80028,60.150146 c 10e-6,14.236984 -24.62532,27.392504 -64.59986,34.510994 -39.97454,7.11849 -89.2252,7.11849 -129.199725,-1e-5 -39.974527,-7.11849 -64.599852,-20.274 -64.599857,-34.510984 L 10,30" />
      </g>
    </g>
    <text
       xml:space="preserve"
       style="font-size:26.6667px;font-family:Quicksand;-inkscape-font-specification:'Quicksand, Normal';text-align:center;text-anchor:middle;fill:#000000;stroke:none"
       x="99.786674"
       y="140"
       id="text22"><tspan
         sodipodi:role="line"
         id="tspan22"
         x="99.786674"
         y="140">Dateisystem</tspan></text>
  </g>
</svg>
