<?xml version="1.0" encoding="UTF-8" standalone="no"?>
<svg
   height="80"
   width="80"
   version="1.1"
   id="svg4"
   sodipodi:docname="resource-research.svg"
   inkscape:version="1.3.2 (091e20ef0f, 2023-11-25, custom)"
   xmlns:inkscape="http://www.inkscape.org/namespaces/inkscape"
   xmlns:sodipodi="http://sodipodi.sourceforge.net/DTD/sodipodi-0.dtd"
   xmlns="http://www.w3.org/2000/svg"
   xmlns:svg="http://www.w3.org/2000/svg">
  <defs
     id="defs4">
    <inkscape:path-effect
       effect="sketch"
       id="path-effect6"
       is_visible="true"
       lpeversion="1"
       nbiter_approxstrokes="3"
       parallel_offset="2;196549320"
       strokelength="70"
       strokelength_rdm="0.5;2139095038"
       strokeoverlap="0.5"
       strokeoverlap_rdm="0.5;1"
       ends_tolerance="0.1;1"
       tremble_size="0.8;1"
       tremble_frequency="3"
       nbtangents="2"
       tgt_places_rdmness="0.5;1"
       tgtlength="5"
       tgtlength_rdm="0.3;1"
       tgtscale="10" />
  </defs>
  <sodipodi:namedview
     id="namedview4"
     pagecolor="#ffffff"
     bordercolor="#000000"
     borderopacity="0.25"
     inkscape:showpageshadow="2"
     inkscape:pageopacity="0.0"
     inkscape:pagecheckerboard="0"
     inkscape:deskcolor="#d1d1d1"
     inkscape:zoom="2.8284273"
     inkscape:cx="47.022598"
     inkscape:cy="58.689859"
     inkscape:window-width="1440"
     inkscape:window-height="831"
     inkscape:window-x="0"
     inkscape:window-y="0"
     inkscape:window-maximized="1"
     inkscape:current-layer="svg4"
     showgrid="false" />
  <g
     id="g1"
     transform="matrix(0.84422383,0,0,0.84422383,1.80679,2.4058594)"
     style="stroke-width:1.03763;stroke-dasharray:none">
    <path
       d="M 26.650499,51.24792 11.826023,80.857991 c -1.543526,3.062904 0.700166,6.67183 4.129936,6.647924 h 58.519604 c 3.42991,0.02374 5.67348,-3.58502 4.129999,-6.647924 L 63.781176,51.24792 Z"
       fill="#ccaaee"
       id="path6"
       style="stroke:none;stroke-width:1.03763;stroke-dasharray:none" />
    <g
       id="g6"
       inkscape:path-effect="#path-effect6"
       style="stroke-width:2.31648;stroke-dasharray:none"
       transform="matrix(0.44793377,0,0,0.44793377,0.422427,-0.30451293)">
      <path
         d="M 79.671683,7.6762761 C 79.906532,15.271939 79.596474,23.227234 79.440131,30.99359 l 0,3e-6 c -0.15641,7.769683 -0.132839,15.420878 -0.39375,22.933327 l 0,3e-6 c -0.146943,4.230959 -0.07917,8.647512 0.06188,13.10842 0.07837,2.408191 -0.232404,4.804332 -0.928979,7.066109 M 77.739834,54.929185 c -0.153,5.094848 -0.08341,10.169521 0.01163,15.14936 0.05099,2.542045 -0.399454,5.031694 -1.342785,7.31543 -0.198058,0.479483 -0.417591,0.956456 -0.658194,1.429193 -2.350828,4.611521 -4.749082,9.664328 -7.095132,14.714754 M 75.764287,83.239505 C 72.032769,90.228988 68.66845,97.026649 64.925038,103.7522 l -10e-7,0 c -3.745016,6.72843 -6.610928,13.78297 -9.375297,20.47168 -0.805659,1.94939 -1.759573,3.97506 -2.808264,6.05703 m 4.823118,-13.03182 c -3.544725,6.84207 -7.453306,13.99835 -11.908239,21.13788 -3.666618,5.87618 -5.827596,11.44756 -8.117038,17.0245 m 9.394607,-20.61974 c -3.371956,6.90044 -7.193981,14.19152 -11.152211,21.72531 -3.35062,6.37731 -5.728702,11.94101 -8.010047,17.74434 m 7.98255,-14.75885 c -3.589691,6.94402 -6.842866,13.33854 -10.363218,19.74649 -0.112264,0.203 -0.216503,0.40733 -0.312903,0.61269 -1.446917,3.0825 -0.969731,6.55257 0.77258,9.33112 1.860229,2.9666 5.159772,5.14883 9.16729,5.344 1.079863,0.0598 2.1612,0.11986 3.242804,0.17791 3.763519,0.20198 7.350461,0.25158 10.871305,0.27737 m -18.354116,-0.93497 c 1.133915,0.42677 2.353102,0.65951 3.628766,0.65442 6.586814,0.0195 12.733524,-0.34874 18.862484,-0.73432 7.264267,-0.45701 15.538878,-0.15638 23.270831,-0.475 l 2e-6,0 c 0.803692,-0.0331 1.606865,-0.0599 2.409351,-0.0815 m -14.637469,4.60005 c 7.710087,-0.1584 15.651768,-0.4722 23.648416,-1.4373 4.425346,-0.53409 8.645596,-0.34374 12.775031,0.0792 m -6.27436,0.68627 c 7.80545,-0.14553 15.33778,-0.01 22.70454,-0.0186 l 1e-5,0 c 7.36991,-0.009 15.63295,-0.14287 23.57082,-0.43749 l 1e-5,-10e-6 c 1.38322,-0.0513 2.76319,-0.0797 4.14245,-0.0899 m -24.25014,-1.46311 c 7.87839,0.10989 15.55476,-0.34418 23.3482,-1.04389 6.78009,-0.60873 13.42615,-0.11887 19.97497,0.0832 0.91582,0.0348 1.79057,-0.0611 2.61319,-0.27165 m -18.70592,1.84775 c 5.50483,-0.047 10.99669,-0.15945 16.24217,-0.413 2.11539,-0.0865 3.97419,-0.90419 5.40604,-2.21347 0.9739,-0.89053 1.83139,-1.96818 2.51165,-3.17129 1.68493,-2.97996 2.25658,-6.68163 0.86282,-10.11265 -0.45652,-1.13287 -0.90174,-2.26776 -1.34666,-3.41123 m 0.43872,16.11925 c 0.0757,-0.1099 0.14944,-0.22111 0.22107,-0.33357 1.85817,-2.91752 2.31205,-6.66042 0.71573,-10.12067 -1.71995,-3.75502 -3.37936,-7.5212 -4.89476,-11.35301 l 0,0 c -2.83816,-7.17651 -7.10723,-13.48643 -10.88153,-19.59044 l 0,0 c -1.34326,-2.1724 -2.61783,-4.58358 -3.86334,-7.11877 m 13.12314,19.16801 c -3.63357,-7.21399 -6.81966,-13.77932 -10.0081,-20.49366 l 0,0 c -3.18982,-6.71721 -7.18952,-13.62236 -11.12528,-19.99669 l -1e-5,0 c -1.72358,-2.7915 -3.2711,-5.89839 -4.75779,-9.17392 m 8.2321,15.11571 c -3.57744,-7.00831 -6.82436,-13.92094 -10.03943,-20.90643 -3.21645,-6.98848 -6.87679,-14.354452 -10.19403,-22.209188 l 0,-3e-6 c -1.69331,-4.009498 -3.48692,-7.447978 -5.31682,-10.672976 -0.37084,-0.654423 -0.69932,-1.318961 -0.98406,-1.992714 m 7.05155,16.180273 c -2.24544,-4.36343 -4.46423,-8.669428 -6.72963,-12.926011 -1.35356,-2.54654 -2.14924,-5.320763 -2.35998,-8.133602 -0.0195,-0.260341 -0.033,-0.521778 -0.0405,-0.784125 -0.21561,-7.300268 0.10021,-15.07484 0.23156,-22.636514 0.0405,-2.328814 0.0632,-4.651773 0.0793,-6.972857 m -0.19205,18.926842 c -0.1976,-7.67263 -0.11806,-15.607569 -0.356,-23.510965 -0.2287,-7.596499 -0.27952,-14.877697 -0.78566,-22.192992 M 81.549455,10.372033 c -0.0397,7.94067 -0.231842,15.451095 -0.687449,23.041869 -0.444425,7.404467 0.07688,15.328002 0.290472,23.261503 m -0.74056,-22.462552 c -0.06845,8.011491 0.1745,15.612107 0.518838,23.504279 0.162922,3.734146 0.185989,7.371091 0.178142,10.947898 -0.0038,3.096485 -0.773387,6.106726 -2.17985,8.801344 -0.36534,0.698837 -0.727503,1.396252 -1.085255,2.092664 m 1.327323,-23.28759 c -0.09197,3.472682 -0.13665,6.921271 -0.189654,10.346346 -0.04561,3.14107 -0.84047,6.222001 -2.368797,8.988035 -0.544271,0.98359 -1.094831,1.964734 -1.653613,2.943452 -3.837748,6.721899 -7.216594,14.125765 -11.194048,21.502929 l 0,0 c -0.157074,0.29134 -0.312506,0.58072 -0.466387,0.86822 M 73.639608,85.846501 c -3.36106,6.729737 -6.607533,13.919981 -9.395975,20.900529 -2.789636,6.98354 -6.992204,14.21085 -10.544047,21.77793 l -10e-7,0 c -1.51383,3.22517 -3.074899,6.24496 -4.699339,9.20113 m 8.38746,-18.62928 c -3.286622,6.87063 -7.077301,13.37589 -10.777321,19.28784 l -10e-7,0 c -3.701605,5.91449 -6.953206,13.93524 -10.400297,20.95293 -0.176525,0.35938 -0.352281,0.71896 -0.527257,1.07877 M 46.545476,141.0153 c -3.230127,6.78196 -6.649105,14.2153 -9.521144,21.78171 -2.464835,6.49363 -5.751839,12.11273 -8.707369,18.01121 m 5.437886,-19.83689 c -3.479641,7.00646 -6.706839,14.19314 -9.689572,21.73142 -0.03254,0.0822 -0.06521,0.16433 -0.09803,0.24631 -1.493509,3.70311 -1.162305,7.41909 0.508383,10.29814 1.662108,2.86427 4.609363,4.7977 8.237307,4.82758 0.671819,0.0105 1.345134,0.0254 2.021087,0.0462 4.805664,0.14767 10.06791,0.031 15.484178,-0.16539 m -26.927278,-5.75122 c 0.0691,0.12322 0.141064,0.24515 0.215819,0.36569 1.728212,2.78665 4.932128,4.81506 8.894281,4.91895 4.283308,0.14115 8.665058,0.38553 13.082538,0.63822 l 2e-6,0 c 8.305512,0.47509 15.706422,-0.0564 23.789581,-0.16875 2.829413,-0.0393 5.584436,-0.0506 8.304431,-0.0488 m -26.600326,-2.74158 c 7.554015,0.19539 15.468575,-0.0197 23.073617,-0.044 l 3e-6,-1e-5 c 7.608302,-0.0243 15.647079,-0.0824 23.620831,-0.24375 2.557506,-0.0517 5.079206,-0.0666 7.584286,-0.061 m -20.877332,1.03 c 7.753843,0.1724 15.768172,-0.1675 23.973362,-0.51273 l 0,0 c 8.20871,-0.34537 15.43919,-0.0875 22.98333,-0.26249 l 0,-1e-5 c 0.34213,-0.008 0.68536,-0.015 1.02963,-0.0213 M 117.7712,194.6896 c 7.92854,-0.1081 15.84844,-0.001 24.21689,0.006 8.37203,0.008 15.55761,-0.1694 23.33958,-0.50625 l 0,0 c 0.0779,-0.003 0.15581,-0.007 0.23365,-0.01 3.82576,-0.13327 6.88563,-2.14427 8.4755,-5.00036 1.52542,-2.74033 1.70095,-6.26898 -0.18771,-9.58666 m -12.88985,18.2874 c 2.1122,-0.0362 4.17469,-0.0737 6.20084,-0.12009 3.78625,-0.0602 6.80489,-2.16584 8.40537,-5.19288 1.04839,-1.98285 1.48621,-4.36144 1.11974,-6.82308 -0.19302,-1.29659 -0.58651,-2.57819 -1.21265,-3.8011 -3.07598,-6.04639 -5.6378,-11.45928 -8.49529,-17.28344 -0.63389,-1.29201 -1.27549,-2.58353 -1.92347,-3.87443 m 6.4958,14.18076 c -3.40702,-6.82974 -6.87937,-14.17439 -10.2084,-21.65666 l 0,0 c -3.33045,-7.48547 -7.26378,-13.90124 -11.33778,-20.82794 -4.07399,-6.92669 -6.91976,-13.52639 -10.30653,-19.71544 l 0,0 c -0.001,-0.003 -0.003,-0.005 -0.004,-0.008 m 11.79827,22.96824 c -3.56505,-6.7506 -6.92386,-13.99922 -10.3332,-21.13801 l 0,0 c -3.4108,-7.14185 -7.1033,-14.00065 -10.86902,-21.127938 l -1e-5,-3e-6 c -1.75944,-3.330051 -3.41238,-6.564515 -5.04467,-9.756653 m 10.10161,25.347834 c -3.58383,-6.76323 -6.99278,-14.179159 -10.53317,-21.669244 -1.53395,-3.245244 -2.98915,-6.258298 -4.37953,-9.169585 -1.31248,-2.752037 -1.88609,-5.711104 -1.66855,-8.727844 0.0835,-1.174043 0.17397,-2.350925 0.27075,-3.537138 0.60418,-7.405224 0.085,-15.629644 0.23498,-23.688828 m 1.6338,23.993918 c 0.0271,-7.874234 0.0457,-15.553762 0.12497,-23.341954 0.0731,-7.186158 0.31679,-14.480176 0.93062,-21.914097 m -3.49341,16.827912 c -0.22888,-7.89471 -0.22823,-15.187545 -0.69346,-22.216928 -0.17246,-2.60579 -0.18395,-5.426264 -0.10612,-8.3476675 M 78.418291,7.7522981 c 0.02707,7.7826639 0.05454,15.4363819 0.168715,22.9983229 0.114223,7.565183 0.161811,15.595052 0.5,23.445833 0.0946,2.196063 0.107374,4.367301 0.06071,6.518536 m 1.12369,-23.434702 c 0.01669,7.706105 0.07204,15.855792 0.231229,24.235922 0.05628,2.962675 0.0888,5.788461 0.119323,8.55798 0.03836,3.20901 -0.669346,6.29939 -2.029421,9.146131 -0.731483,1.528583 -1.454025,3.071388 -2.162383,4.647846 m 0.819287,-21.812886 c -0.0093,1.350984 -0.0035,2.707518 0.01658,4.069998 0.05053,3.223038 -0.563369,6.429961 -1.791378,9.38775 -1.257352,3.0232 -2.442129,6.086618 -3.565674,9.195854 -2.682826,7.424305 -6.994628,13.979962 -10.537797,21.084177 l -10e-7,1e-5 c -2.672736,5.35896 -5.346491,10.56087 -8.102998,15.796 M 67.385844,98.089656 c -3.303409,6.727714 -7.259635,13.990244 -11.321049,21.119284 -3.58081,6.28542 -6.174028,12.26088 -8.982133,18.27987 m 4.691289,-12.26663 c -3.546772,6.85433 -7.415631,13.75769 -11.814487,20.41286 -2.950039,4.46322 -5.077529,9.1984 -7.213329,13.94029 m 12.954644,-16.10441 c -3.650552,7.00613 -7.22423,13.80838 -11.245603,20.55642 -3.042163,5.10489 -5.392491,10.43604 -7.747455,15.73154 -0.816214,1.82187 -1.050707,3.72439 -0.824118,5.52788 0.182691,1.45408 0.670033,2.84958 1.412419,4.09659 m 3.418067,-20.10596 c -2.046702,4.0009 -4.058702,8.05277 -6.034895,12.06044 -1.518542,3.05811 -1.263884,6.35609 0.216715,8.97031 0.140696,0.24842 0.291626,0.49204 0.452361,0.73004 1.853387,2.74435 5.006775,4.73582 8.783185,4.74382 3.744502,0.0344 7.447042,0.10834 11.181286,0.10564 m -11.187396,-0.74379 c 0.420308,0.0532 0.853546,0.0791 1.29855,0.0757 7.189462,-0.003 15.077091,-0.2014 23.047154,-0.52673 l 3e-6,1e-5 c 8.457523,-0.34522 15.136939,0.23621 22.083331,0.71249 0.111514,0.008 0.223489,0.0151 0.335913,0.0223 m -17.995225,1.27142 c 7.564469,-0.027 15.538084,0.0693 23.279854,0.20004 7.745089,0.13083 15.472145,-0.006 23.095835,-0.0125 l 0,-1e-5 c 0.79244,-7.1e-4 1.58704,-8.2e-4 2.38329,-3.7e-4 m -24.310806,0.62238 c 7.709751,0.10184 15.257766,-0.0289 22.460916,-0.0939 l 0,0 c 7.20625,-0.065 15.82423,-0.0299 24.14583,-0.1 l 0,0 c 7.78882,-0.0656 14.62244,0.0793 21.84011,0.26202 m -21.03701,-3.04026 c 8.01339,-0.0914 15.4029,0.0253 22.88553,0.0876 1.83396,0.0153 3.72338,0.0412 5.65525,0.0803 3.88828,0.1053 7.24129,-1.78125 9.26406,-4.47543 1.40984,-1.8778 2.17129,-4.14439 2.02983,-6.3962 -0.0615,-0.97875 -0.32128,-1.98632 -0.79746,-2.98821 -1.53113,-3.2451 -3.32524,-6.75459 -5.1548,-10.32834 m 7.61454,16.83526 c 0.64183,-2.30493 0.47598,-4.86668 -0.73778,-7.30242 -2.40367,-4.85579 -4.90013,-9.79357 -7.378,-14.8759 l 0,0 c -3.63117,-7.44787 -7.20307,-13.66462 -11.17528,-20.13419 l 0,0 c -3.32222,-5.41093 -5.7706,-11.51378 -8.20081,-17.46127 m 7.72004,15.6735 c -3.44659,-6.72543 -6.96219,-13.73677 -10.44585,-20.35054 -2.54048,-4.82315 -5.16498,-10.00631 -7.87174,-15.15072 m 7.16254,13.85753 c -3.36942,-7.05206 -6.65836,-14.03254 -9.52095,-21.23762 -2.86382,-7.208167 -7.28818,-13.986516 -11.41278,-21.102936 l 0,-3e-6 c -0.7628,-1.316096 -1.47395,-2.614097 -2.14567,-3.897029 -0.004,-0.0072 -0.008,-0.0144 -0.0113,-0.0216 m 12.14755,25.770389 c -3.5087,-7.112246 -6.658,-13.908838 -9.52702,-20.862546 -0.19102,-0.462986 -0.38812,-0.926084 -0.59075,-1.389295 -1.24641,-2.853537 -2.01413,-5.994869 -2.12322,-9.193701 -0.14384,-4.104171 -0.42439,-8.216271 -0.57277,-12.337387 -0.0211,-0.585015 -0.0382,-1.169432 -0.0517,-1.753323 m 2.51656,17.048181 c -0.69285,-2.052271 -1.07361,-4.229792 -1.12086,-6.438262 -0.12329,-5.51683 -0.42621,-11.090149 -0.86592,-16.545413 -0.46639,-5.786159 -0.17427,-11.566096 0.0725,-17.145369 m -0.77551,22.299849 c 0.12659,-7.527054 -0.2671,-15.544063 -0.80016,-23.304902 -0.49429,-7.196399 0.17426,-14.487259 0.7429,-21.8464811 M 69.014611,196.03974 h 8.042968 M 129.31678,90.839486 126.10489,84.422664"
         fill="#ffffff"
         id="path1"
         style="fill:none;stroke:#000000;stroke-width:2.31648;stroke-dasharray:none"
         inkscape:original-d="m 79.521381,3.96 v 64.36434 c 0.003,3.18457 -0.736928,6.326105 -2.16041,9.174403 L 25.457653,181.19275 c -3.445881,6.83786 1.558458,14.90036 9.215537,14.84699 h 130.65377 c 7.65684,0.053 12.66121,-8.00913 9.21543,-14.84699 L 122.63918,77.498743 c -1.42382,-2.848298 -2.16342,-5.989833 -2.16041,-9.174403 V 3.96" />
      <path
         d="M 75.769947,1.4665526 C 83.317829,1.7017483 91.359439,1.7970605 99.218572,2.4725 106.98247,3.1397542 114.49571,2.6580728 122.01538,2.9666074 M 72.405288,4.1601577 C 80.096692,4.2824396 88.087228,3.7260218 96.122479,2.8725 l 10e-7,0 c 8.03869,-0.8538875 15.38039,0.1291552 22.82083,0.3812499 l 0,1e-7 c 2.74917,0.093146 5.60865,0.1292375 8.52707,0.1459786 M 75.141956,2.4784342 C 82.793625,2.2331143 90.548551,2.4634831 98.034197,2.435 l 3e-6,2e-7 c 7.48885,-0.028495 15.7244,0.4692728 23.85208,1.3999995 l 0,3e-7 c 2.1173,0.242459 4.16255,0.3433903 6.1545,0.3519945 M 99.162787,3.96 h 7.457033 m -13.918248,0 h 9.507808"
         id="path2"
         style="stroke:#000000;stroke-width:2.31648;stroke-dasharray:none"
         inkscape:original-d="M 70.392014,3.96 H 129.6078" />
      <path
         d="m 55.427385,117.8187 c -3.281013,6.85197 -7.074166,13.79204 -10.772971,20.52442 -3.700392,6.73527 -6.912706,13.80466 -10.28969,20.55199 l -2e-6,0 c -2.705673,5.40602 -5.514987,11.39496 -8.270114,17.64129 m 9.403005,-16.49872 c -3.702885,6.98722 -6.911353,13.93896 -10.303678,20.97425 -0.342585,0.71048 -0.685161,1.42128 -1.027462,2.13265 -1.678303,3.46467 -1.242826,7.23895 0.608548,10.18393 1.854376,2.94976 5.110517,5.04936 9.108042,5.21062 0.01077,5.1e-4 0.02154,0.001 0.03231,0.002 1.749192,0.0824 3.46581,0.11529 5.160112,0.11013 M 24.086219,180.89916 c -1.264082,3.01584 -0.821668,6.2907 0.739337,8.9197 1.743345,2.93609 4.881404,5.06537 8.624685,5.20927 1.154086,0.0526 2.301751,0.1065 3.440386,0.15939 7.490721,0.34796 15.271367,-0.37441 22.483331,-1.13124 l 2e-6,-10e-6 c 4.426054,-0.46447 9.419331,-0.16923 14.5879,0.35853 m -20.681322,2.6133 c 7.894942,-0.0414 15.459325,0.15459 23.060678,0.4563 l 3e-6,0 c 7.604611,0.30184 15.423864,0.1649 22.94583,0.5 5.453711,0.24296 11.363281,0.20483 17.439381,0.27346 m -20.101717,-0.82661 c 7.938477,-0.0229 15.320977,-0.0303 22.635627,-0.0812 4.8626,-0.0339 10.19271,-0.0463 15.58062,-0.0828 m -13.80809,-2.01703 c 8.00344,0.12889 15.93315,-0.001 24.49178,-0.006 7.06393,-0.004 12.91271,-0.17891 18.86728,-0.53222 0.81482,-0.0423 1.59953,-0.19257 2.34648,-0.43708 m -18.48523,2.50705 c 5.22273,0.13313 10.8026,0.15546 16.56174,0.25519 2.81985,0.067 5.34647,-0.80219 7.34587,-2.21784 0.92302,-0.65353 1.69487,-1.44234 2.29875,-2.32569 1.90797,-2.79101 2.15538,-6.55248 0.13373,-10.0192 -1.69638,-2.92563 -3.47918,-5.86677 -5.18247,-8.75959 -3.97128,-6.74469 -6.39818,-13.56355 -8.97915,-20.53633 m 13.22859,22.89192 c -3.44294,-6.74813 -6.83331,-13.90934 -10.06021,-20.86833 l 0,-1e-5 c -3.22828,-6.96197 -7.21582,-13.87184 -11.20214,-20.7395 l 0,0 c -3.05374,-5.261 -5.4603,-10.83958 -7.89755,-16.61796 m 12.13347,27.93857 c -3.39321,-6.77112 -7.02188,-14.04725 -10.62278,-21.2808 -1.71958,-3.45433 -3.38271,-6.73151 -5.0282,-9.92461 -4.047,0.13874 -8.07284,0.37828 -12.12847,0.59644 l 0,0 c -7.75957,0.41742 -15.91916,-0.2036 -24.42084,-0.61249 l 0,0 c -0.004,-1.8e-4 -0.007,-3.6e-4 -0.0109,-5.3e-4 m 21.87015,-0.60918 c -8.01972,-0.25341 -15.51518,0.24093 -23.22302,0.71908 -7.711143,0.47835 -15.256184,-0.26521 -22.42708,-0.8 l -3e-6,0 c -4.5269,-0.33761 -9.547237,-0.17732 -14.600277,0.0799 m 14.822751,1.85462 c -7.967731,0.13279 -15.491836,-0.30056 -23.148084,-0.88767 -0.262963,-0.0202 -0.525886,-0.0387 -0.788757,-0.0556 -3.245665,6.24087 -6.449521,13.74757 -9.305877,20.93498 -0.09948,0.25032 -0.200497,0.49925 -0.302994,0.74685 m 7.314413,-15.55016 c -3.430602,7.10169 -6.968657,14.10206 -10.479028,21.46785 -2.827468,5.93285 -5.744975,11.15453 -8.791585,16.31038 m 7.111552,-13.14017 c -3.424434,6.82743 -7.049167,14.27392 -10.697786,21.94945 -2.156671,4.53695 -4.065989,8.40085 -5.830274,12.04279 -1.343519,2.75245 -0.899058,5.69563 0.777038,8.05819 0.168816,0.23796 0.347379,0.47271 0.535331,0.70321 0.30467,0.37366 0.633896,0.73601 0.986061,1.08261 M 25.873,176.62909 c -0.49905,0.93316 -0.983231,1.86835 -1.454283,2.80562 -1.736699,3.43326 -1.203417,7.212 0.777196,10.1326 1.855541,2.73618 4.98114,4.73413 8.779888,5.07121 0.268661,0.0238 0.53901,0.0385 0.81081,0.0436 8.096619,0.20522 14.73182,-0.27857 21.778329,-0.73524 6.942283,-0.44991 14.779336,0.31414 22.223491,1.06003 m -16.253865,1.59341 c 7.560445,0.24534 15.694045,0.0401 23.767359,0.11843 l 3e-6,1e-5 c 8.076774,0.0784 15.718212,0.39004 23.820832,1.16874 5.96965,0.57372 11.56116,0.23955 17.16312,-0.0676 m -21.23743,-1.11365 c 8.03829,0.0166 15.34579,-0.003 22.73549,-0.0125 4.9125,-0.006 10.16406,0.0982 15.41573,0.30637 m -14.48999,1.3902 c 7.72688,-0.23711 15.83347,-0.14749 24.1859,-0.44344 3.9318,-0.13932 7.51622,-0.12668 10.93464,-0.0541 3.57294,0.10233 6.36943,-1.77593 7.7872,-4.54507 0.26318,-0.51404 0.47868,-1.05863 0.6426,-1.62669 0.71974,-2.49419 0.61984,-5.45808 -0.77613,-8.26947 -0.60616,-1.22878 -1.19118,-2.46491 -1.76817,-3.70531 m -10.43057,15.82861 c 1.13438,-0.0171 2.27533,-0.0391 3.42255,-0.0669 3.85724,-0.0672 7.10832,-2.20967 9.01553,-5.29045 1.73607,-2.80435 2.35295,-6.36182 1.34748,-9.90127 -0.10201,-0.35908 -0.22384,-0.71366 -0.3661,-1.06276 -2.98132,-7.36764 -7.20294,-13.2234 -11.39882,-19.94683 -2.51521,-4.03034 -4.37867,-7.9005 -6.10231,-11.65714 m 13.44328,19.54457 c -3.33266,-6.7561 -6.71995,-13.50485 -9.7291,-19.66207 l 0,0 c -3.01045,-6.15985 -7.15928,-14.18708 -11.03339,-21.69575 l 0,-1e-5 c -0.78859,-1.52842 -1.53679,-3.006 -2.25453,-4.44673 m 6.07307,12.07527 c -3.22819,-6.92897 -6.81267,-13.54479 -10.15989,-20.08577 -0.10903,0.004 -0.21802,0.009 -0.32695,0.0135 -4.11628,0.17089 -8.23934,0.22165 -12.32876,0.29714 m 11.86677,2.59662 c -7.79071,0.002 -15.12853,-0.39021 -22.07956,-1.16251 -6.37297,-0.70806 -14.10225,0.28176 -21.293672,1.17747 m 16.689372,-2.29936 c -7.66659,-0.0167 -15.831739,-0.12931 -24.173475,-0.39373 l -2e-6,0 c -8.34531,-0.26454 -15.726015,-0.0342 -23.852078,-0.0937 l -3e-6,0 c -3.545888,-0.026 -6.879261,0.007 -10.086605,0.0836 -1.669219,3.89686 -3.140767,7.86261 -4.584531,11.86804 m 5.020182,-7.11861 c -3.370183,6.96014 -6.814666,13.87945 -10.004107,20.78678 -3.190808,6.9103 -6.968021,14.08239 -10.452191,21.38324 -3.097776,6.49119 -6.542486,12.61965 -10.339785,19.11528 m 6.731441,-14.08021 c -2.779023,5.74682 -5.635145,11.41886 -8.416397,17.10367 -0.644999,1.30958 -0.974981,2.66524 -1.02983,4.0011 -0.08788,2.14022 0.496713,4.21364 1.596407,5.95098 1.78354,2.81772 4.929537,4.75622 8.730673,4.60925 2.176355,-0.0689 4.354401,-0.15154 6.543726,-0.24873 l 10e-7,0 c 7.772746,-0.34502 15.256654,-0.14648 22.427081,-0.43749 l 2e-6,-1e-5 c 0.0031,-1.2e-4 0.0061,-2.4e-4 0.0092,-3.7e-4 m -18.661527,0.77859 c 7.620432,0.0687 15.34391,0.0733 22.717282,0.19991 4.339756,0.0745 9.026861,0.15913 13.814278,0.33172 m -6.730355,-2.03152 c 7.81169,0.15595 15.346122,0.0422 22.717035,0.1248 l 2e-6,0 c 7.374067,0.0826 15.437057,-0.17198 22.970827,-0.525 l 0,0 c 6.78657,-0.318 13.98635,0.11203 21.06344,0.52243 m -22.83862,1.97443 c 7.80532,-0.0103 15.189,0.15272 22.24205,0.45626 4.44063,0.19112 9.5414,-0.0492 14.767,-0.49491 m -17.85055,-0.15817 c 8.00142,0.0293 15.99409,0.27291 24.65429,0.81871 1.83139,0.11542 3.57913,0.17407 5.26819,0.19146 3.91296,0.0667 6.91985,-2.10291 8.50582,-5.1355 1.22696,-2.34609 1.61221,-5.21717 0.92711,-8.03943 -0.20398,-0.84028 -0.51063,-1.67428 -0.92978,-2.48844 -1.88397,-3.6821 -3.77288,-7.26686 -5.75318,-10.8964 m 5.4867,13.41726 c 0.28937,-1.92275 0.006,-3.94185 -0.97837,-5.83449 -2.60882,-5.04706 -5.41447,-9.92174 -8.19311,-14.6704 l 0,-1e-5 c -3.75418,-6.41586 -6.89593,-14.03165 -10.23964,-21.22075 l 0,-1e-5 c -3.1884,-6.85519 -6.75586,-13.10547 -10.35155,-19.36798 m 7.13517,14.88425 c -3.32432,-6.97066 -6.68445,-14.01136 -9.62287,-21.17429 -0.64383,-1.56946 -1.33611,-3.11185 -2.05987,-4.6337 -5.93583,0.005 -12.27189,0.27083 -18.23842,0.50156 -6.25534,0.2419 -12.88905,0.007 -19.67932,-0.21582 m 17.57836,1.95346 c -7.98654,0.10617 -15.61103,0.17349 -23.504311,0.52487 l -3e-6,0 c -7.896659,0.35152 -15.873589,0.0697 -24.283327,0.21249 l -3e-6,10e-6 c -5.971806,0.10137 -11.182801,-0.15661 -16.308576,-0.6183 -0.642986,1.38709 -1.277791,2.75462 -1.924509,4.10723 m 33.483784,76.00918 h 8.476562 m 51.515323,-67.12607 -3.42756,-6.84617"
         fill="#ccaaee"
         id="path4"
         style="fill:none;stroke:#000000;stroke-width:2.31648;stroke-dasharray:none"
         inkscape:original-d="m 58.55346,115.08941 -33.09524,66.10368 c -3.44588,6.83785 1.563095,14.89468 9.219974,14.84131 H 165.32162 c 7.65718,0.053 12.66589,-8.00346 9.22011,-14.84131 l -33.09504,-66.10368 z" />
    </g>
    <path
       id="path3"
       style="fill:#000000;fill-opacity:0.188235;stroke:none;stroke-width:1.03763;stroke-dasharray:none"
       d="M 26.650174,51.248113 11.826365,80.858112 c -1.543524,3.062899 0.699619,6.67205 4.12939,6.648143 h 58.520099 c 2.636256,0.01823 4.563003,-2.110829 4.616693,-4.487212 -0.04642,8.96e-4 -0.09049,0.0082 -0.137355,0.0079 L 21.520807,82.555808 c -3.429771,0.02392 -5.310717,-2.339863 -3.767193,-5.402762 L 28.887218,51.248122 Z"
       sodipodi:nodetypes="cccccccccc" />
  </g>
</svg>
