<?xml version="1.0" encoding="UTF-8" standalone="no"?>
<svg
   height="80"
   width="80"
   version="1.1"
   id="svg2"
   sodipodi:docname="resource-weaponry.svg"
   inkscape:version="1.3.2 (091e20ef0f, 2023-11-25, custom)"
   xmlns:inkscape="http://www.inkscape.org/namespaces/inkscape"
   xmlns:sodipodi="http://sodipodi.sourceforge.net/DTD/sodipodi-0.dtd"
   xmlns="http://www.w3.org/2000/svg"
   xmlns:svg="http://www.w3.org/2000/svg">
  <defs
     id="defs2">
    <inkscape:path-effect
       effect="sketch"
       id="path-effect8"
       is_visible="true"
       lpeversion="1"
       nbiter_approxstrokes="3"
       parallel_offset="2;1"
       strokelength="70"
       strokelength_rdm="0.3;1"
       strokeoverlap="0.5"
       strokeoverlap_rdm="0.5;1"
       ends_tolerance="0.1;1"
       tremble_size="0.8;1"
       tremble_frequency="3"
       nbtangents="2"
       tgt_places_rdmness="0.5;1"
       tgtlength="5"
       tgtlength_rdm="0.3;1"
       tgtscale="10" />
    <inkscape:path-effect
       effect="sketch"
       id="path-effect7"
       is_visible="true"
       lpeversion="1"
       nbiter_approxstrokes="3"
       parallel_offset="2;1"
       strokelength="70"
       strokelength_rdm="0.3;1"
       strokeoverlap="0.5"
       strokeoverlap_rdm="0.5;1"
       ends_tolerance="0.1;1"
       tremble_size="1;1"
       tremble_frequency="2"
       nbtangents="2"
       tgt_places_rdmness="0.5;1"
       tgtlength="5"
       tgtlength_rdm="0.3;1"
       tgtscale="10" />
  </defs>
  <sodipodi:namedview
     id="namedview2"
     pagecolor="#ffffff"
     bordercolor="#000000"
     borderopacity="0.25"
     inkscape:showpageshadow="2"
     inkscape:pageopacity="0.0"
     inkscape:pagecheckerboard="0"
     inkscape:deskcolor="#d1d1d1"
     inkscape:zoom="3.2"
     inkscape:cx="26.25"
     inkscape:cy="85.625"
     inkscape:window-width="1440"
     inkscape:window-height="831"
     inkscape:window-x="0"
     inkscape:window-y="0"
     inkscape:window-maximized="1"
     inkscape:current-layer="svg2" />
  <g
     id="g1"
     transform="matrix(0.38717036,0,0,0.38717036,1.3139555,1.3135736)"
     style="stroke-width:2.58284234;stroke-dasharray:none">
    <path
       d="M 128.58618,109.14325 72.345584,52.902325 109.83932,15.408461 l 56.2406,56.240731 h 28.12062 c -4.08841,34.402588 -31.21177,61.525938 -65.61436,65.614358 z"
       fill="#ffffff"
       id="path4"
       style="stroke:none;stroke-width:2.58284234;stroke-dasharray:none" />
    <path
       d="M 119.21275,99.769492 39.538241,179.444 c -5.023279,5.02361 -12.344726,6.98547 -19.20665,5.1468 C 13.469633,182.75212 8.1098568,177.39228 6.2712444,170.53032 4.4326451,163.66836 6.3945309,156.34698 11.417908,151.3237 L 91.092451,71.649192"
       fill="#aaaa99"
       id="path3"
       style="stroke:none;stroke-width:2.58284234;stroke-dasharray:none" />
    <g
       id="g7"
       style="stroke-width:2.58284234;stroke-dasharray:none"
       inkscape:path-effect="#path-effect8">
      <path
         d="m 116.83717,105.32014 c -5.26251,5.31859 -11.06951,10.99753 -16.72364,16.48607 l 0,0 c -5.65655,5.49089 -11.132575,10.86452 -16.892906,16.09916 l -2e-6,0 c -2.380856,2.16358 -4.64607,4.42697 -6.851613,6.73448 m 13.95092,-16.43733 c -5.728079,5.4057 -10.948985,10.76664 -16.341791,15.82346 l -10e-7,0 c -5.395117,5.05898 -10.909171,11.13217 -16.242907,16.88666 -0.816931,0.88137 -1.639421,1.75306 -2.465627,2.61779 m 7.878851,-7.07827 c -5.657135,5.36629 -10.64255,10.86756 -15.423132,16.09851 -2.155796,2.35889 -4.666284,4.90032 -7.333564,7.55027 -3.33482,3.31337 -7.764413,5.61221 -12.296356,6.60174 -1.960594,0.42809 -3.881444,0.50376 -5.728804,0.23805 m 15.22673,-3.82991 c -4.898635,3.40429 -10.802865,4.51537 -16.237693,2.87545 -1.789123,-0.53985 -3.450749,-1.35548 -4.947555,-2.40342 -3.899475,-2.73006 -7.1360168,-6.81209 -8.54135,-11.61643 -0.7755817,-2.65145 -0.9424737,-5.35662 -0.478036,-7.96333 0.699441,-3.92569 2.5439804,-7.70269 5.410017,-10.59843 1.656188,-1.67338 3.284407,-3.32909 4.893871,-4.9389 M 6.7035131,172.63973 c -0.2693721,-0.70365 -0.5025844,-1.43193 -0.6966694,-2.18209 -1.7733921,-6.85437 -2.836e-4,-14.4395 4.8864623,-19.85824 0.04159,-0.0461 0.08319,-0.0923 0.124794,-0.13839 l 2e-6,0 c 5.349308,-5.93243 10.912233,-11.16405 16.242909,-17.00541 l 1e-6,0 c 2.896676,-3.17418 5.950856,-6.08389 9.07941,-8.89152 m -14.08722,16.82789 c 5.759309,-5.42047 11.003027,-11.03264 16.504254,-16.61718 5.503584,-5.58694 10.750014,-11.22392 15.73666,-17.1804 l 1e-6,-1e-5 c 1.482548,-1.77088 3.054292,-3.47486 4.674483,-5.14807 M 47.171793,115.8014 c 5.699187,-5.44702 11.19549,-10.47861 17.098081,-14.93589 l 2e-6,-1e-5 c 5.905122,-4.459186 11.10387,-11.473618 16.82416,-17.936648 1.378897,-1.557936 2.719096,-2.978616 4.029947,-4.30261 m -10.329538,9.652051 c 4.170507,-4.256913 8.180635,-8.357284 12.08777,-12.475918 m 26.119035,26.391185 c -5.58657,5.64719 -10.78139,11.16087 -15.848217,16.98565 -5.069003,5.82727 -10.891573,11.0949 -16.180407,16.7804 l -2e-6,1e-5 c -4.045332,4.34874 -8.333526,8.2783 -12.57922,12.03407 m 21.402464,-19.08213 c -5.48065,5.62442 -10.899916,11.28338 -16.198359,17.36067 -5.300713,6.0799 -11.428146,10.74602 -17.786655,15.73666 l -3e-6,0 c -4.639967,3.64179 -8.199793,7.7498 -11.676253,11.73171 m 17.169178,-20.0308 c -5.316227,5.37877 -10.675297,10.88487 -15.52982,16.16099 -2.147344,2.33383 -4.57441,4.83707 -7.114747,7.45262 -3.287063,3.38459 -7.650231,5.73804 -12.084632,6.77212 -2.64411,0.61659 -5.312055,0.53819 -7.88468,-0.19131 -1.000883,-0.28382 -1.966389,-0.66021 -2.891029,-1.11594 m 19.114892,-3.46465 c -4.858841,3.06066 -10.703936,4.28892 -16.183405,2.96503 -1.94874,-0.47084 -3.760461,-1.24357 -5.391983,-2.28058 -3.9187648,-2.49078 -7.0931108,-6.50604 -8.6381388,-11.17038 -0.9093484,-2.74528 -1.1934524,-5.53301 -0.8639509,-8.13411 0.4632618,-3.65701 2.3617434,-7.50612 5.3652763,-10.79148 1.0188624,-1.11448 2.0444024,-2.25304 3.0684904,-3.40531 m -6.57362,27.78447 c -0.1356736,-0.3919 -0.2589097,-0.78904 -0.369332,-1.19104 -1.8950218,-6.89894 0.260798,-14.20171 5.51683,-19.2436 0.312198,-0.29949 0.624537,-0.59916 0.93697,-0.89904 5.764536,-5.53305 11.085443,-11.44344 16.74916,-17.84291 l 1e-6,0 c 2.878534,-3.25247 5.657722,-5.93882 8.400654,-8.41197 m -14.618525,15.4297 c 5.395382,-5.50557 10.858458,-10.86489 16.092222,-16.11082 l 10e-7,-1e-5 c 5.236008,-5.24818 11.069688,-11.03171 16.70541,-16.58665 1.160381,-1.14374 2.312289,-2.2847 3.459361,-3.42418 m -9.353769,7.10596 c 5.299769,-5.39554 10.876581,-11.05409 16.136095,-16.679711 l 2e-6,-10e-7 c 5.261768,-5.628031 10.716069,-10.916266 15.64916,-16.255403 1.830827,-1.981524 3.844335,-4.055651 5.953738,-6.198218 m 31.224183,26.248033 c -5.61369,5.32497 -10.89088,11.17378 -16.18569,17.02981 -5.297079,5.85854 -10.898427,11.21564 -16.192909,17.13666 -3.975199,4.44561 -8.083767,8.45153 -12.066336,12.54991 m 18.662309,-21.60826 c -5.441252,5.54314 -11.016589,11.04266 -16.54841,16.63578 l -2e-6,0 c -5.534192,5.59553 -11.174961,10.88271 -17.030406,16.14916 -5.384487,4.84286 -10.381068,10.26169 -15.813227,15.70745 m 23.484637,-23.89779 c -5.58258,5.4392 -10.976205,11.05619 -16.441978,16.68591 -3.768499,3.88153 -7.400155,7.64452 -10.867274,11.41835 -1.593475,1.73456 -3.432472,3.10333 -5.399751,4.08707 -3.709224,1.85479 -8.452279,2.36792 -13.087697,1.37207 -2.848188,-0.61189 -5.475545,-1.754 -7.66534,-3.2934 m 30.460389,-4.59625 c -0.943819,0.94985 -1.879372,1.89437 -2.807566,2.83497 -4.646548,4.70895 -11.114729,6.67213 -17.27584,5.45244 -0.456002,-0.0903 -0.913678,-0.2005 -1.371898,-0.33096 C 15.38058,181.67064 9.6640233,175.83058 7.6116737,168.07696 7.5101658,167.69347 7.418319,167.308 7.3361201,166.92088 6.463232,162.81001 6.7263706,159.08836 7.9466929,155.80627 m 1.2402223,23.55551 c -1.6650338,-2.14563 -2.9916649,-4.65529 -3.8460122,-7.4167 -1.5553627,-5.02726 -1.3633447,-10.30316 0.4038842,-14.86616 0.674985,-1.74281 1.7305318,-3.32206 3.1137657,-4.68456 4.1127581,-4.05119 9.0621871,-7.75606 13.6519981,-11.4258 4.307684,-3.44416 8.058689,-7.48065 11.894768,-11.46625 m -18.694082,14.55626 c 5.49758,-5.44307 11.247428,-10.70571 17.242091,-15.61716 5.997232,-4.91355 10.808697,-10.88337 15.93666,-16.1554 l 2e-6,0 c 4.282845,-4.40317 9.322574,-9.24454 14.473292,-14.129967 M 42.987161,121.41963 c 5.356224,-5.71129 11.25545,-10.76223 17.279773,-15.78556 l 2e-6,0 c 6.026906,-5.02549 11.150552,-11.055839 16.95541,-16.667905 5.460415,-5.279063 10.384141,-10.356241 15.534176,-15.520714 m -64.831317,112.078039 -8.01808,-0.63226 m 37.245555,-79.30228 5.074045,-5.07404"
         fill="#aaaa99"
         id="path1"
         style="fill:none;stroke:#000000;stroke-width:2.58284234;stroke-dasharray:none"
         inkscape:original-d="M 119.21275,99.769492 39.538241,179.444 c -5.023279,5.02361 -12.344726,6.98547 -19.20665,5.1468 C 13.469633,182.75212 8.1098568,177.39228 6.2712444,170.53032 4.4326451,163.66836 6.3945309,156.34698 11.417908,151.3237 L 91.092451,71.649192" />
      <path
         d="m 128.09416,105.9455 c -5.71777,-5.30198 -11.07552,-11.013555 -16.74175,-16.536132 l 0,-10e-7 C 105.68375,83.884423 100.44532,78.327706 95.140801,72.666414 l -2e-6,-3e-6 C 90.673198,67.898326 85.959518,63.384259 81.346374,58.827954 M 98.674768,81.028797 C 93.15682,75.703821 87.898599,69.865382 82.832755,64.02394 79.229379,59.868875 75.130673,56.017576 71.001896,52.098916 c 1.500598,-1.592789 2.996227,-3.196707 4.518132,-4.836677 5.175855,-5.57738 10.869353,-10.753922 16.415213,-16.017334 M 73.543569,55.009368 C 72.448796,53.860866 71.353664,52.721379 70.262104,51.588209 74.768103,47.19073 79.32789,42.888394 84.171102,38.523637 l 2e-6,-2e-6 c 6.09385,-5.491846 11.001469,-11.168903 16.505376,-17.005434 2.6292,-2.788095 5.14911,-5.434995 7.561,-8.051297 1.07724,1.178271 2.13293,2.362645 3.16719,3.54327 M 94.537735,30.42273 c 5.17088,-5.077638 9.760335,-10.169684 14.303385,-15.58472 0.49853,0.492982 0.9965,0.982074 1.49461,1.466869 l 1e-5,1e-6 c 5.03959,4.904804 11.03275,10.997654 16.60538,16.505427 0.77516,0.766134 1.546,1.532535 2.31309,2.299262 m -7.87794,-7.28907 c 5.57018,5.61979 11.07551,10.72425 16.72322,15.691948 l 0,10e-7 c 5.65014,4.969828 10.69787,11.008004 15.60539,16.536674 l 0,3e-6 c 3.06355,3.45131 6.60522,7.029696 10.19524,10.75581 M 144.79521,53.470749 c 5.51418,5.561861 11.21826,11.050632 17.16705,16.648273 0.84952,0.799376 1.68136,1.592736 2.49947,2.380963 6.86604,0.01904 13.23657,-0.147057 19.96456,-0.307043 1.94705,-0.0463 3.87676,-0.0752 5.79232,-0.09512 M 176.421,72.486834 c 5.69934,0.08325 11.6983,0.166033 17.71792,0.386175 -0.17596,1.982763 -0.42101,3.956183 -0.74223,5.924134 -1.33661,8.188633 -4.29742,14.856729 -8.06436,21.016541 -2.01308,3.291856 -4.18051,6.724636 -6.52347,10.073656 m 10.67267,-19.774589 c -2.90376,7.196846 -7.42408,14.299899 -13.29514,20.789979 -1.79071,1.97953 -3.48533,3.78512 -5.15972,5.4584 -3.8541,3.85153 -7.59612,6.99704 -12.12404,9.91838 -6.24605,4.02984 -12.96084,7.02062 -19.70004,8.73717 m 28.63576,-15.08081 c -6.0288,4.98424 -12.64009,9.6896 -20.29875,13.56574 -7.0433,3.56469 -13.47901,4.83568 -20.44286,5.50839 0.0305,-0.49143 0.0604,-0.98085 0.0894,-1.46775 0.21867,-3.66499 0.23069,-7.30809 0.17629,-10.97265 m 10.64767,8.13748 c -2.58048,0.50624 -5.17567,0.93717 -7.77991,1.26109 0.0745,-5.11726 0.26101,-10.12547 0.48408,-15.21342 0.18401,-4.1973 0.058,-8.48886 -0.21307,-12.83898 -2.73007,-2.59798 -5.5614,-5.23686 -8.39768,-7.89581 -3.0352,-2.845432 -5.72197,-5.520763 -8.31388,-8.143943 m 12.26977,14.759673 C 120.32731,101.2486 115.19487,95.757471 109.96772,90.499667 l 0,-10e-7 C 104.73832,85.239608 98.723715,79.18597 92.737357,73.056711 88.263729,68.476293 84.554375,64.727918 81.003367,61.026538 M 101.10632,80.79113 C 95.56521,75.085884 89.986105,69.818789 84.233088,64.361763 80.732735,61.041502 77.480387,57.655437 74.301612,54.233118 c 2.261872,-2.204854 4.554282,-4.424756 6.830586,-6.651804 4.770381,-4.667158 8.922355,-9.027955 12.976813,-13.38599 M 74.334806,52.675983 C 74.031283,52.374926 73.727372,52.072002 73.423168,51.767329 78.753233,46.720952 84.002463,41.194628 89.592385,35.721096 l 1e-6,-2e-6 c 5.929952,-5.806481 10.542804,-11.146566 15.124124,-16.942934 1.51097,-1.911692 3.22081,-3.75751 5.03071,-5.569137 1.78948,1.795605 3.67676,3.624635 5.56631,5.456466 M 98.037102,29.169946 c 3.983428,-4.070738 8.009358,-8.255996 11.859508,-12.492058 1.29828,1.344136 2.57658,2.682495 3.82652,4.01752 l 0,2e-6 c 4.95887,5.296408 11.12688,10.98723 16.89289,16.467926 4.45086,4.23062 8.74865,8.439389 13.25985,12.596804 M 124.08784,28.606816 c 5.49953,5.343395 11.09922,10.833835 16.80457,16.004805 l 0,10e-7 c 5.7078,5.173186 10.93247,10.996191 16.30539,16.474175 l 0,10e-7 c 0.78515,0.800508 1.56966,1.601197 2.35237,2.40186 m -10.58486,-7.281749 c 5.66538,5.273054 10.57614,11.231855 15.24185,17.204896 0.0604,0.07728 0.12103,0.154428 0.182,0.231436 6.90118,0.448694 15.51297,0.104001 23.44419,0.344451 1.75249,0.05313 3.48362,0.0686 5.20149,0.054 -0.61312,5.730414 -2.03947,10.945244 -3.87443,15.804611 M 179.65009,73.0556 c 5.58924,0.08626 10.967,0.04851 16.31678,0.01599 -0.32458,2.294639 -0.75777,4.559553 -1.28052,6.795568 -1.81234,7.752186 -4.59437,15.080166 -8.64134,21.818401 -3.49139,5.81317 -7.12631,11.02911 -11.20282,15.69213 -0.14392,0.16463 -0.28838,0.32854 -0.43338,0.49175 m 15.23963,-29.489306 c -3.14022,7.485605 -6.62336,14.000186 -11.00031,19.900936 -1.36791,1.84414 -2.93034,3.63613 -4.63093,5.36243 -3.76977,3.82676 -8.21648,7.32914 -12.74507,10.37711 -1.27676,0.85933 -2.59025,1.65832 -3.93917,2.39974 m 11.1766,-4.70592 c -5.89591,4.73005 -12.27481,9.34162 -18.86761,12.90988 -5.5812,3.02074 -12.54673,4.21684 -19.6441,4.6064 -0.0354,-1.10299 -0.0649,-2.20324 -0.0835,-3.29652 -0.093,-5.45449 -0.0149,-10.4344 0.10861,-15.29988 m 6.96704,15.97365 c -2.08329,0.39406 -4.26381,0.7489 -6.51917,1.04743 -0.0797,-5.46762 -0.43729,-10.69085 -0.78773,-15.89691 -0.24114,-3.58217 -0.18082,-7.40303 0.008,-11.29091 -2.60294,-2.86767 -5.0685,-5.80722 -7.58929,-8.62795 -4.12071,-4.611024 -9.05555,-9.380023 -13.86482,-14.389732 m 17.43885,19.370002 C 120.16334,101.28093 114.51609,95.825811 108.70211,90.340307 102.88563,84.852451 97.800623,79.341028 92.490498,73.847351 91.079795,72.387884 89.663604,70.918516 88.252861,69.439648 M 99.17864,79.670268 C 93.550516,74.322745 88.407728,68.882121 83.355519,63.802939 80.519767,60.952048 77.330694,57.821741 74.02453,54.635267 c 2.241542,-2.493015 4.411411,-5.020411 6.622738,-7.475275 1.497742,-1.662691 3.103813,-3.309364 4.781992,-4.94715 M 72.518115,54.051394 C 77.757814,48.599748 83.660317,43.045466 89.460506,37.52797 l 1e-6,-2e-6 c 5.802675,-5.519861 11.031413,-11.085827 16.592883,-16.767934 0.93001,-0.950193 1.84792,-1.888015 2.7546,-2.816061 m -9.98708,9.942184 c 3.56901,-3.632722 7.20512,-7.289412 10.89112,-11.038947 1.97233,1.826123 3.95895,3.625663 5.95722,5.388066 l 0,1e-6 c 5.73516,5.058231 10.73272,11.004895 15.69914,16.517926 3.27491,3.635364 7.13896,7.222863 11.13633,10.772266 m -18.37724,-17.98134 c 5.2708,5.732566 11.03577,11.326851 16.61736,17.498053 5.58398,6.173849 10.91323,11.171159 16.24914,17.005428 2.55541,2.794076 5.23872,5.415513 7.99634,7.973962 3.85203,-0.07548 7.77852,-0.214058 11.72573,-0.305794 M 149.29733,55.672389 c 5.39088,5.070052 10.45638,10.717566 15.44244,16.275151 0.25806,0.009 0.51603,0.0179 0.77389,0.02665 7.43987,0.252373 15.68864,0.08588 23.72709,0.25 l 0,0 c 1.37063,0.02798 2.72737,0.04123 4.07414,0.04222 -0.45737,4.435138 -1.41319,8.629451 -2.68023,12.612885 M 178.5781,72.452272 c 4.72347,-0.02102 9.45415,0.153114 14.24303,0.49801 -0.29535,3.337978 -0.75349,6.690856 -1.34946,10.034789 -1.52922,8.580377 -5.34728,14.682891 -10.07453,20.744069 -3.61251,4.63188 -6.91621,9.30415 -10.82248,13.47388 -1.29189,1.37903 -2.64463,2.69676 -4.08716,3.92886 m 19.90351,-29.313563 c -3.20997,7.159756 -7.13417,13.776033 -12.07173,19.437833 -1.20997,1.38745 -2.48295,2.781 -3.81192,4.16892 -4.11959,4.3023 -8.77038,8.54316 -13.73789,12.37448 -5.28676,4.07756 -11.06374,6.04392 -17.14495,7.36167 m 27.55727,-14.92179 c -5.77964,4.69062 -12.51759,9.11452 -19.47107,12.40364 -5.66388,2.67911 -12.15022,3.88936 -18.84127,4.15747 -0.018,-1.38103 -0.0316,-2.76512 -0.0364,-4.14715 -0.0232,-6.71059 0.0163,-12.61705 0.0798,-18.65139 m 8.32863,21.38383 c -2.11787,0.4021 -4.28767,0.70739 -6.50553,0.90227 -0.11661,-5.76525 -0.36401,-11.64812 -0.77161,-17.79657 -0.27427,-4.13717 -0.19467,-7.80031 0.0457,-11.24926 -2.57827,-2.49223 -4.97492,-4.74247 -7.42189,-7.06278 -2.59733,-2.462878 -5.69233,-5.66667 -8.91761,-9.121984 m 42.76397,-29.053801 5.27291,5.272924 m -29.91044,-29.910511 6.72303,6.723047"
         fill="#ffffff"
         id="path2"
         style="fill:none;stroke:#000000;stroke-width:2.58284234;stroke-dasharray:none"
         inkscape:original-d="M 128.58618,109.14325 72.345584,52.902325 109.83932,15.408461 l 56.2406,56.240731 h 28.12062 c -4.08841,34.402588 -31.21177,61.525938 -65.61436,65.614358 z" />
    </g>
    <path
       id="path5"
       style="fill:#000000;fill-opacity:0.188235;stroke:none;stroke-width:2.58284234;stroke-dasharray:none"
       d="m 19.524122,143.33406 -8.106153,7.99016 c -5.0233723,5.02327 -6.9850821,12.34508 -5.1464846,19.20703 1.8386105,6.86195 7.1985956,12.21992 14.0605466,14.05859 6.861917,1.83867 14.183758,-0.12288 19.207031,-5.14648 l 78.639528,-79.21195 -6.31892,-9.060627 c 0,0 -69.782003,76.170707 -87.651912,79.641417 -5.762975,1.11929 -8.578098,-4.5536 -9.821022,-8.76072 -1.833094,-6.20477 1.573253,-13.241 5.137386,-18.71742 z"
       sodipodi:nodetypes="ccsscccsac" />
    <path
       id="path6"
       style="fill:#000000;fill-opacity:0.12549;stroke:none;stroke-width:2.58284234;stroke-dasharray:none"
       d="m 82.345703,42.902344 -10,10 56.240237,56.240236 v 28.12109 c 19.67749,-2.33848 36.96343,-12.22325 48.92968,-26.68555 -10.82242,8.95459 -31.73345,15.83994 -35.96125,12.75986 -7.57631,-5.51957 2.99749,-16.96532 -2.96843,-24.195402 C 132.08197,91.260433 82.345703,42.902344 82.345703,42.902344 Z"
       sodipodi:nodetypes="cccccssc" />
  </g>
</svg>
