<?xml version="1.0" encoding="UTF-8" standalone="no"?>
<!-- Created with Inkscape (http://www.inkscape.org/) -->

<svg
   width="500"
   height="1800"
   viewBox="0 0 132.29167 476.24999"
   version="1.1"
   id="svg1"
   inkscape:version="1.3.2 (091e20ef0f, 2023-11-25, custom)"
   sodipodi:docname="revenue-movies.svg"
   xmlns:inkscape="http://www.inkscape.org/namespaces/inkscape"
   xmlns:sodipodi="http://sodipodi.sourceforge.net/DTD/sodipodi-0.dtd"
   xmlns="http://www.w3.org/2000/svg"
   xmlns:svg="http://www.w3.org/2000/svg">
  <sodipodi:namedview
     id="namedview1"
     pagecolor="#ffffff"
     bordercolor="#000000"
     borderopacity="0.25"
     inkscape:showpageshadow="2"
     inkscape:pageopacity="0.0"
     inkscape:pagecheckerboard="0"
     inkscape:deskcolor="#d1d1d1"
     inkscape:document-units="px"
     inkscape:zoom="0.8387106"
     inkscape:cx="232.49974"
     inkscape:cy="1257.8832"
     inkscape:window-width="1440"
     inkscape:window-height="831"
     inkscape:window-x="0"
     inkscape:window-y="0"
     inkscape:window-maximized="1"
     inkscape:current-layer="layer1"
     showgrid="true">
    <inkscape:grid
       id="grid1"
       units="px"
       originx="0"
       originy="0"
       spacingx="2.6458333"
       spacingy="2.6458333"
       empcolor="#0099e5"
       empopacity="0.30196078"
       color="#0099e5"
       opacity="0.14901961"
       empspacing="5"
       dotted="false"
       gridanglex="30"
       gridanglez="30"
       visible="true" />
  </sodipodi:namedview>
  <defs
     id="defs1">
    <inkscape:path-effect
       effect="sketch"
       id="path-effect61"
       is_visible="true"
       lpeversion="1"
       nbiter_approxstrokes="3"
       parallel_offset="0.2;1"
       strokelength="70"
       strokelength_rdm="0.3;1"
       strokeoverlap="0.5"
       strokeoverlap_rdm="0.5;1"
       ends_tolerance="0.1;1"
       tremble_size="0.8;1"
       tremble_frequency="3"
       nbtangents="2"
       tgt_places_rdmness="0.5;1"
       tgtlength="12"
       tgtlength_rdm="0.3;1"
       tgtscale="10" />
    <inkscape:path-effect
       effect="sketch"
       id="path-effect35"
       is_visible="true"
       lpeversion="1"
       nbiter_approxstrokes="3"
       parallel_offset="0.2;1"
       strokelength="70"
       strokelength_rdm="0.3;1"
       strokeoverlap="0.5"
       strokeoverlap_rdm="0.5;1"
       ends_tolerance="0.1;1"
       tremble_size="0.8;1"
       tremble_frequency="3"
       nbtangents="2"
       tgt_places_rdmness="0.5;1"
       tgtlength="10"
       tgtlength_rdm="0.3;1"
       tgtscale="10" />
    <inkscape:path-effect
       effect="sketch"
       id="path-effect32"
       is_visible="true"
       lpeversion="1"
       nbiter_approxstrokes="3"
       parallel_offset="0.2;1"
       strokelength="70"
       strokelength_rdm="0.3;1"
       strokeoverlap="0.5"
       strokeoverlap_rdm="0.5;1"
       ends_tolerance="0.1;1"
       tremble_size="0.8;1"
       tremble_frequency="3"
       nbtangents="2"
       tgt_places_rdmness="0.5;1"
       tgtlength="10"
       tgtlength_rdm="0.3;1"
       tgtscale="10" />
    <inkscape:path-effect
       effect="sketch"
       id="path-effect28"
       is_visible="true"
       lpeversion="1"
       nbiter_approxstrokes="3"
       parallel_offset="0.2;1"
       strokelength="70"
       strokelength_rdm="0.3;1"
       strokeoverlap="0.5"
       strokeoverlap_rdm="0.5;1"
       ends_tolerance="0.1;1"
       tremble_size="0.8;1"
       tremble_frequency="3"
       nbtangents="2"
       tgt_places_rdmness="0.5;1"
       tgtlength="10"
       tgtlength_rdm="0.3;1"
       tgtscale="10" />
    <inkscape:path-effect
       effect="sketch"
       id="path-effect27"
       is_visible="true"
       lpeversion="1"
       nbiter_approxstrokes="3"
       parallel_offset="0.2;1"
       strokelength="70"
       strokelength_rdm="0.3;1"
       strokeoverlap="0.5"
       strokeoverlap_rdm="0.5;1"
       ends_tolerance="0.1;1"
       tremble_size="0.8;1"
       tremble_frequency="3"
       nbtangents="2"
       tgt_places_rdmness="0.5;1"
       tgtlength="10"
       tgtlength_rdm="0.3;1"
       tgtscale="10" />
    <inkscape:path-effect
       effect="sketch"
       id="path-effect25"
       is_visible="true"
       lpeversion="1"
       nbiter_approxstrokes="3"
       parallel_offset="0.2;1"
       strokelength="70"
       strokelength_rdm="0.3;1"
       strokeoverlap="0.5"
       strokeoverlap_rdm="0.5;1"
       ends_tolerance="0.1;1"
       tremble_size="0.8;1"
       tremble_frequency="3"
       nbtangents="2"
       tgt_places_rdmness="0.5;1"
       tgtlength="10"
       tgtlength_rdm="0.3;1"
       tgtscale="10" />
    <inkscape:path-effect
       effect="sketch"
       id="path-effect24"
       is_visible="true"
       lpeversion="1"
       nbiter_approxstrokes="3"
       parallel_offset="0.2;1"
       strokelength="70"
       strokelength_rdm="0.3;1"
       strokeoverlap="0.5"
       strokeoverlap_rdm="0.5;1"
       ends_tolerance="0.1;1"
       tremble_size="0.8;1"
       tremble_frequency="3"
       nbtangents="2"
       tgt_places_rdmness="0.5;1"
       tgtlength="10"
       tgtlength_rdm="0.3;1"
       tgtscale="10" />
    <inkscape:path-effect
       effect="sketch"
       id="path-effect22"
       is_visible="true"
       lpeversion="1"
       nbiter_approxstrokes="3"
       parallel_offset="0.2;1"
       strokelength="70"
       strokelength_rdm="0.3;1"
       strokeoverlap="0.5"
       strokeoverlap_rdm="0.5;1"
       ends_tolerance="0.1;1"
       tremble_size="0.8;1"
       tremble_frequency="3"
       nbtangents="2"
       tgt_places_rdmness="0.5;1"
       tgtlength="10"
       tgtlength_rdm="0.3;1"
       tgtscale="10" />
    <inkscape:path-effect
       effect="sketch"
       id="path-effect18"
       is_visible="true"
       lpeversion="1"
       nbiter_approxstrokes="3"
       parallel_offset="0.2;1"
       strokelength="70"
       strokelength_rdm="0.3;1"
       strokeoverlap="0.5"
       strokeoverlap_rdm="0.5;1"
       ends_tolerance="0.1;1"
       tremble_size="0.8;1"
       tremble_frequency="3"
       nbtangents="2"
       tgt_places_rdmness="0.5;1"
       tgtlength="10"
       tgtlength_rdm="0.3;1"
       tgtscale="10" />
    <inkscape:path-effect
       effect="sketch"
       id="path-effect15"
       is_visible="true"
       lpeversion="1"
       nbiter_approxstrokes="3"
       parallel_offset="0.2;1"
       strokelength="70"
       strokelength_rdm="0.3;1"
       strokeoverlap="0.5"
       strokeoverlap_rdm="0.5;1"
       ends_tolerance="0.1;1"
       tremble_size="0.8;1"
       tremble_frequency="3"
       nbtangents="2"
       tgt_places_rdmness="0.5;1"
       tgtlength="10"
       tgtlength_rdm="0.3;1"
       tgtscale="10" />
    <inkscape:path-effect
       effect="sketch"
       id="path-effect13"
       is_visible="true"
       lpeversion="1"
       nbiter_approxstrokes="3"
       parallel_offset="0.2;1"
       strokelength="70"
       strokelength_rdm="0.3;1"
       strokeoverlap="0.5"
       strokeoverlap_rdm="0.5;1"
       ends_tolerance="0.1;1"
       tremble_size="0.8;1"
       tremble_frequency="3"
       nbtangents="2"
       tgt_places_rdmness="0.5;1"
       tgtlength="10"
       tgtlength_rdm="0.3;1"
       tgtscale="10" />
    <inkscape:path-effect
       effect="sketch"
       id="path-effect12"
       is_visible="true"
       lpeversion="1"
       nbiter_approxstrokes="3"
       parallel_offset="0.2;1"
       strokelength="70"
       strokelength_rdm="0.3;1"
       strokeoverlap="0.5"
       strokeoverlap_rdm="0.5;1"
       ends_tolerance="0.1;1"
       tremble_size="0.8;1"
       tremble_frequency="3"
       nbtangents="2"
       tgt_places_rdmness="0.5;1"
       tgtlength="10"
       tgtlength_rdm="0.3;1"
       tgtscale="10" />
    <inkscape:path-effect
       effect="sketch"
       id="path-effect10"
       is_visible="true"
       lpeversion="1"
       nbiter_approxstrokes="3"
       parallel_offset="0.2;1"
       strokelength="70"
       strokelength_rdm="0.3;1"
       strokeoverlap="0.5"
       strokeoverlap_rdm="0.5;1"
       ends_tolerance="0.1;1"
       tremble_size="0.8;1"
       tremble_frequency="3"
       nbtangents="2"
       tgt_places_rdmness="0.5;1"
       tgtlength="10"
       tgtlength_rdm="0.3;1"
       tgtscale="10" />
    <rect
       x="49.999996"
       y="350"
       width="399.99997"
       height="148.66698"
       id="rect1" />
    <inkscape:path-effect
       effect="sketch"
       id="path-effect21"
       is_visible="true"
       lpeversion="1"
       nbiter_approxstrokes="3"
       parallel_offset="0.2;1"
       strokelength="70"
       strokelength_rdm="0.3;1"
       strokeoverlap="0.5"
       strokeoverlap_rdm="0.5;1"
       ends_tolerance="0.1;1"
       tremble_size="0.8;1"
       tremble_frequency="3"
       nbtangents="2"
       tgt_places_rdmness="0.5;1"
       tgtlength="10"
       tgtlength_rdm="0.3;1"
       tgtscale="10" />
    <inkscape:path-effect
       effect="sketch"
       id="path-effect9"
       is_visible="true"
       lpeversion="1"
       nbiter_approxstrokes="3"
       parallel_offset="0.2;1"
       strokelength="70"
       strokelength_rdm="0.3;1"
       strokeoverlap="0.5"
       strokeoverlap_rdm="0.5;1"
       ends_tolerance="0.1;1"
       tremble_size="0.8;1"
       tremble_frequency="3"
       nbtangents="2"
       tgt_places_rdmness="0.5;1"
       tgtlength="10"
       tgtlength_rdm="0.3;1"
       tgtscale="10" />
    <inkscape:path-effect
       effect="sketch"
       id="path-effect8"
       is_visible="true"
       lpeversion="1"
       nbiter_approxstrokes="3"
       parallel_offset="0.2;1"
       strokelength="70"
       strokelength_rdm="0.3;1"
       strokeoverlap="0.5"
       strokeoverlap_rdm="0.5;1"
       ends_tolerance="0.1;1"
       tremble_size="0.8;1"
       tremble_frequency="3"
       nbtangents="2"
       tgt_places_rdmness="0.5;1"
       tgtlength="10"
       tgtlength_rdm="0.3;1"
       tgtscale="10" />
    <inkscape:path-effect
       effect="sketch"
       id="path-effect20"
       is_visible="true"
       lpeversion="1"
       nbiter_approxstrokes="3"
       parallel_offset="0.2;1"
       strokelength="70"
       strokelength_rdm="0.3;1"
       strokeoverlap="0.5"
       strokeoverlap_rdm="0.5;1"
       ends_tolerance="0.1;1"
       tremble_size="0.8;1"
       tremble_frequency="3"
       nbtangents="2"
       tgt_places_rdmness="0.5;1"
       tgtlength="10"
       tgtlength_rdm="0.3;1"
       tgtscale="10" />
    <inkscape:path-effect
       effect="sketch"
       id="path-effect4"
       is_visible="true"
       lpeversion="1"
       nbiter_approxstrokes="3"
       parallel_offset="0.2;1"
       strokelength="70"
       strokelength_rdm="0.3;1"
       strokeoverlap="0.5"
       strokeoverlap_rdm="0.5;1"
       ends_tolerance="0.1;1"
       tremble_size="0.8;1"
       tremble_frequency="3"
       nbtangents="2"
       tgt_places_rdmness="0.5;1"
       tgtlength="10"
       tgtlength_rdm="0.3;1"
       tgtscale="10" />
    <inkscape:path-effect
       effect="sketch"
       id="path-effect3"
       is_visible="true"
       lpeversion="1"
       nbiter_approxstrokes="3"
       parallel_offset="0.2;1"
       strokelength="70"
       strokelength_rdm="0.3;1"
       strokeoverlap="0.5"
       strokeoverlap_rdm="0.5;1"
       ends_tolerance="0.1;1"
       tremble_size="0.8;1"
       tremble_frequency="3"
       nbtangents="2"
       tgt_places_rdmness="0.5;1"
       tgtlength="10"
       tgtlength_rdm="0.3;1"
       tgtscale="10" />
    <inkscape:path-effect
       effect="sketch"
       id="path-effect2"
       is_visible="true"
       lpeversion="1"
       nbiter_approxstrokes="4"
       parallel_offset="0.4;1"
       strokelength="50"
       strokelength_rdm="0.3;1"
       strokeoverlap="0.3"
       strokeoverlap_rdm="0.3;1"
       ends_tolerance="0.1;1"
       tremble_size="0.8;1"
       tremble_frequency="3"
       nbtangents="0"
       tgt_places_rdmness="1;1"
       tgtlength="100"
       tgtlength_rdm="0.3;1"
       tgtscale="10" />
    <inkscape:path-effect
       effect="sketch"
       id="path-effect1"
       is_visible="true"
       lpeversion="1"
       nbiter_approxstrokes="4"
       parallel_offset="0.5;1"
       strokelength="50"
       strokelength_rdm="0.3;1"
       strokeoverlap="0.3"
       strokeoverlap_rdm="0.3;1"
       ends_tolerance="0.1;1"
       tremble_size="0.8;1"
       tremble_frequency="3"
       nbtangents="0"
       tgt_places_rdmness="1;1"
       tgtlength="56.859206"
       tgtlength_rdm="0.3;1"
       tgtscale="10" />
    <inkscape:path-effect
       effect="sketch"
       id="path-effect11"
       is_visible="true"
       lpeversion="1"
       nbiter_approxstrokes="4"
       parallel_offset="0.7;1"
       strokelength="50"
       strokelength_rdm="0.3;1"
       strokeoverlap="0.3"
       strokeoverlap_rdm="0.3;1"
       ends_tolerance="0.1;1"
       tremble_size="0.8;1"
       tremble_frequency="3"
       nbtangents="0"
       tgt_places_rdmness="1;1"
       tgtlength="100"
       tgtlength_rdm="0.3;1"
       tgtscale="10" />
    <inkscape:path-effect
       effect="sketch"
       id="path-effect7"
       is_visible="true"
       lpeversion="1"
       nbiter_approxstrokes="3"
       parallel_offset="1;1"
       strokelength="50"
       strokelength_rdm="0.3;1"
       strokeoverlap="0.3"
       strokeoverlap_rdm="0.3;1"
       ends_tolerance="0.1;1"
       tremble_size="1.2;1"
       tremble_frequency="3"
       nbtangents="0"
       tgt_places_rdmness="1;1"
       tgtlength="100"
       tgtlength_rdm="0.3;1"
       tgtscale="10" />
    <rect
       x="223.77509"
       y="306.53192"
       width="415.43015"
       height="124.34706"
       id="rect6" />
    <inkscape:path-effect
       effect="sketch"
       id="path-effect6"
       is_visible="true"
       lpeversion="1"
       nbiter_approxstrokes="3"
       parallel_offset="1;1"
       strokelength="50"
       strokelength_rdm="0.3;1"
       strokeoverlap="0.3"
       strokeoverlap_rdm="0.3;1"
       ends_tolerance="0.1;1"
       tremble_size="1.2;1"
       tremble_frequency="3"
       nbtangents="0"
       tgt_places_rdmness="1;1"
       tgtlength="100"
       tgtlength_rdm="0.3;1"
       tgtscale="10" />
    <inkscape:path-effect
       effect="sketch"
       id="path-effect5"
       is_visible="true"
       lpeversion="1"
       nbiter_approxstrokes="3"
       parallel_offset="1;1"
       strokelength="50"
       strokelength_rdm="0.3;1"
       strokeoverlap="0.3"
       strokeoverlap_rdm="0.3;1"
       ends_tolerance="0.1;1"
       tremble_size="1.2;1"
       tremble_frequency="3"
       nbtangents="0"
       tgt_places_rdmness="1;1"
       tgtlength="100"
       tgtlength_rdm="0.3;1"
       tgtscale="10" />
    <inkscape:path-effect
       effect="sketch"
       id="path-effect12-0"
       is_visible="true"
       lpeversion="1"
       nbiter_approxstrokes="3"
       parallel_offset="0.2;1"
       strokelength="70"
       strokelength_rdm="0.3;1"
       strokeoverlap="0.5"
       strokeoverlap_rdm="0.5;1"
       ends_tolerance="0.1;1"
       tremble_size="0.8;1"
       tremble_frequency="3"
       nbtangents="2"
       tgt_places_rdmness="0.5;1"
       tgtlength="10"
       tgtlength_rdm="0.3;1"
       tgtscale="10" />
  </defs>
  <g
     inkscape:label="Layer 1"
     inkscape:groupmode="layer"
     id="layer1">
    <text
       xml:space="preserve"
       style="font-style:normal;font-variant:normal;font-weight:normal;font-stretch:normal;font-size:21.1667px;font-family:Quicksand;-inkscape-font-specification:'Quicksand, Normal';font-variant-ligatures:normal;font-variant-caps:normal;font-variant-numeric:normal;font-variant-east-asian:normal;fill:#1a1a1a;stroke:none;stroke-width:0.52916667;stroke-dasharray:none"
       x="66.419243"
       y="428.0939"
       id="text1"><tspan
         sodipodi:role="line"
         style="font-style:normal;font-variant:normal;font-weight:bold;font-stretch:normal;font-size:17.6389px;font-family:Sans;-inkscape-font-specification:'Sans, Bold';font-variant-ligatures:normal;font-variant-caps:normal;font-variant-numeric:normal;font-variant-east-asian:normal;text-align:center;text-anchor:middle;stroke:none;stroke-width:0.52916667;stroke-dasharray:none"
         x="66.419243"
         y="428.0939"
         id="tspan3">Filme</tspan><tspan
         sodipodi:role="line"
         style="font-style:normal;font-variant:normal;font-weight:normal;font-stretch:normal;font-size:17.6389px;font-family:Sans;-inkscape-font-specification:'Sans, Normal';font-variant-ligatures:normal;font-variant-caps:normal;font-variant-numeric:normal;font-variant-east-asian:normal;text-align:center;text-anchor:middle;stroke:none;stroke-width:0.52916667;stroke-dasharray:none"
         x="66.419243"
         y="454.55228"
         id="tspan13">~ $42 Mia</tspan></text>
    <path
       style="fill:none;stroke:#000000;stroke-width:0.52916667;stroke-dasharray:none;stroke-opacity:1"
       id="path25"
       width="126.99999"
       height="79.110413"
       x="2.6458333"
       y="2.9104168"
       ry="13.758205"
       sodipodi:type="rect"
       inkscape:path-effect="#path-effect28"
       d="m 21.275535,3.6429992 c 8.009293,-0.1787808 15.474099,0.0028 23.091781,-0.00602 7.620947,-0.00883 15.422417,-0.1349239 22.93958,-0.3999999 l 3e-6,-1e-7 c 3.106988,-0.109561 6.329619,-0.1193055 9.611921,-0.084937 M 57.785317,2.925924 c 7.543728,-0.091666 15.594629,-0.2280872 23.47363,-0.6686322 l 3e-6,10e-8 c 7.882378,-0.4407338 15.645821,0.1327321 23.58958,0.3874999 1.21669,0.039021 2.42782,0.068354 3.63523,0.090739 M 94.892774,2.8352482 C 101.63392,2.719207 108.90151,2.708961 116.37161,2.5232929 c 0.98798,-0.024556 1.95645,0.03591 2.89718,0.173002 6.89992,1.0055184 11.14464,6.9529516 10.54933,14.1989601 -0.13024,1.585282 -0.26016,3.179108 -0.37542,4.77612 -0.14572,2.01905 -0.20559,3.933332 -0.20423,5.771968 m -1.17156,-16.018144 c 0.56687,1.548374 0.88793,3.228939 0.90558,4.986364 0.0607,6.044943 0.41442,12.041446 0.83584,17.990962 l 0,2e-6 c 0.53991,7.622546 0.0516,15.700605 0.15,23.770831 0.0424,3.475492 0.005,6.895888 -0.0902,10.331684 -0.098,3.550639 -1.51344,6.809566 -3.78596,9.397534 m 4.1248,-29.711443 c 0.12723,6.987788 -0.0352,13.652234 -0.17848,20.19532 -0.0185,0.846683 -0.12052,1.672056 -0.29806,2.468771 -1.33859,6.007171 -6.88255,10.916553 -13.69634,10.777821 -1.46276,-0.02978 -2.93067,-0.0722 -4.4066,-0.135653 -4.31828,-0.185647 -8.47906,-0.106831 -12.56546,0.07407 m 22.38893,0.13086 c -1.4941,0.618832 -3.14904,0.957167 -4.90056,0.95791 -6.01025,0.0025 -12.23109,-0.08231 -18.295114,-0.150342 l -3e-6,0 c -7.773912,-0.08722 -15.804979,-0.22448 -24.09583,-0.68125 -2.4649,-0.135799 -4.840604,-0.204689 -7.167861,-0.242818 m 16.047883,-0.174305 c -7.572622,0.05034 -15.348127,0.516104 -22.717343,1.556185 l -3e-6,0 c -7.372375,1.040527 -15.451124,-0.474187 -23.008331,-1.4375 -1.821691,-0.232209 -3.682081,-0.327162 -5.571818,-0.325429 m 14.920761,1.145555 c -7.743442,-0.14553 -15.76014,-0.0096 -23.942123,-0.01856 -2.402806,-0.0026 -4.728683,-0.01601 -7.008432,-0.04107 C 9.8834898,82.226625 5.174348,78.487991 3.2899757,73.160228 3.0064683,72.358656 2.7891147,71.531143 2.6456963,70.68417 M 10.471227,81.04176 C 6.1319406,78.823577 3.1207559,74.079921 3.1043891,68.421928 c -0.0085,-2.940071 -0.016646,-5.925492 -0.010118,-8.941744 0.018346,-8.476613 -0.139325,-15.503585 -0.41875,-23.183331 l 0,-3e-6 C 2.4617937,30.422752 2.6304717,24.602783 2.8106401,18.96989 M 1.8833709,46.692092 C 1.9127414,38.96534 2.1944596,31.000373 2.8270833,22.943698 3.0120375,20.588243 3.063514,18.288327 3.0286857,16.022952 2.9389234,10.184445 5.9787348,5.4237443 10.689591,3.5575503 12.108435,2.9954789 13.73057,2.6844036 15.489716,2.6842085 19.45101,2.6837689 23.707028,2.5926205 28.017386,2.4812575 M 22.636261,3.468149 C 30.48135,3.405626 38.141488,3.2851143 45.828253,2.9119793 l 2e-6,0 c 7.69006,-0.3732948 15.502876,-0.2420611 23.183332,-0.7125 3.579504,-0.2192497 7.231644,-0.2070874 10.928074,-0.1075016 M 59.407234,3.4118586 c 7.789004,-0.093963 15.5578,-0.4830281 23.342064,-1.4436293 7.7876,-0.9610129 15.699834,0.4991075 23.770832,1.4999997 l 0,3e-7 c 3.08942,0.3831223 6.11271,0.4704989 9.1189,0.4305363 2.62416,-0.034884 5.05094,0.5509248 7.15028,1.6828387 M 97.326287,2.4497739 c 6.406853,0.1850174 12.573123,0.3270578 18.739653,0.7940266 1.5132,0.1145889 2.96712,0.4951625 4.32507,1.107549 5.36459,2.4192389 9.35188,7.2114885 9.50345,12.9882865 0.0512,1.952575 0.10814,3.908825 0.16387,5.913283 0.10677,3.840822 0.0699,7.829081 -0.0269,11.876947 m -0.50379,-21.00232 c 0.25023,0.998995 0.38612,2.047133 0.39444,3.129847 0.0509,6.624322 0.0654,13.406084 0.19714,20.046751 0.15284,7.703668 0.0607,15.64712 0.19375,23.60208 l 0,3e-6 c 0.0274,1.637905 0.0385,3.258289 0.0368,4.865697 m -1.1977,-14.701357 c -0.001,5.985513 0.11077,11.646185 0.33487,17.117567 0.0736,1.798007 -0.24217,3.486638 -0.87013,4.991447 -1.8408,4.411238 -6.89276,7.945715 -12.88799,8.024252 -2.57776,0.03377 -5.17558,0.0545 -7.75734,-0.0033 -3.0559,-0.06843 -5.97181,-0.06146 -8.81798,-0.0073 m 18.77896,1.255899 c -0.66034,0.114982 -1.33373,0.181501 -2.01677,0.196514 -7.11845,0.156456 -13.99227,0.01998 -20.780832,0.12832 l -3e-6,0 c -7.432917,0.118627 -15.492177,-0.199286 -23.14583,-0.6 -5.746511,-0.300863 -11.645346,-0.122908 -17.534819,0.02501 m 26.939981,-0.379699 c -7.668639,-0.004 -15.80196,0.214765 -24.07347,0.637505 l -3e-6,0 c -8.275055,0.42292 -15.494307,-0.407106 -23.14583,-1.21875 -6.001668,-0.636634 -12.147364,-0.236826 -18.256827,0.0291 -1.078271,0.04693 -2.125352,-0.03407 -3.128145,-0.234584 m 33.589784,0.464912 c -7.541636,0.04391 -15.579394,0.301398 -23.423633,0.912444 -2.034401,0.158475 -4.086356,0.241036 -6.159469,0.279564 C 10.48712,82.806713 5.0001926,78.57092 2.6194551,73.197044 2.0391598,71.887183 1.7141086,70.473136 1.6710128,68.994301 1.5014334,63.175184 2.0837128,57.208717 2.3838861,51.331031 M 10.218893,79.740995 C 5.4053033,77.381842 2.2377174,72.704563 2.3052408,67.271577 c 0.031678,-2.548831 0.06541,-5.094075 0.07653,-7.662785 0.033402,-7.715932 0.361012,-15.352256 1.0749998,-22.720831 l 2e-7,-2e-6 C 3.7895274,33.453808 3.7116999,29.814552 3.4387994,26.095362 M 2.650767,47.133076 C 2.8421083,39.452214 2.7498808,31.623109 2.9505208,23.915872 3.0066153,21.7611 3.0048373,19.56449 2.9583292,17.330391 2.8303484,11.182604 6.1668846,5.7597138 10.973417,3.2544061 12.306227,2.5597057 13.821338,2.1802926 15.457384,2.153826 19.286807,2.0918766 23.412175,2.3789786 27.579542,2.7163841 M 21.904644,3.3667925 C 29.465258,3.4643514 37.79565,3.1936885 46.259503,2.8416668 54.726984,2.4894943 61.394166,2.7800902 68.336584,2.6666669 l 3e-6,-1e-7 C 74.134855,2.5719362 81.280056,2.7971973 88.31614,3.1503759 M 59.209906,3.4416535 c 7.707923,-0.010391 15.552719,0.00347 23.335919,1.33e-5 C 90.33236,3.438206 97.987744,3.2382705 105.54791,2.822917 l 0,-2e-7 c 3.49442,-0.1919828 7.0645,-0.2104236 10.6451,-0.1772367 3.92102,0.036342 7.46103,1.7641527 9.89949,4.4061903 M 94.413884,2.3743991 c 7.113746,-0.058799 14.680706,0.024551 22.109666,0.083495 0.45167,0.00358 0.89769,0.028033 1.33702,0.072394 7.0543,0.7122978 12.32996,6.8140143 12.0145,14.5511491 -0.0446,1.0936 -0.0915,2.194066 -0.14018,3.301767 -0.31557,7.180115 0.0553,13.180628 0.43809,19.336293 M 127.67209,9.3565009 c 1.28137,2.0884681 2.0242,4.5534771 2.03941,7.2055251 0.0303,5.284823 0.0852,10.601968 0.17808,15.952968 l 0,3e-6 c 0.13747,7.919018 -0.21029,15.466497 -0.6375,23.07083 -0.22876,4.07179 -0.12668,8.242674 0.10876,12.434312 0.20799,3.702933 -0.93219,7.064088 -3.00622,9.535296 m 3.78183,-34.025989 c -0.002,7.730741 -0.47097,15.494039 -1.4125,23.154639 -0.028,0.227487 -0.0539,0.455438 -0.0777,0.683845 -0.39726,3.798385 -1.76499,7.264165 -3.96088,9.922352 -2.17794,2.636458 -5.10854,4.384111 -8.44922,4.672788 -0.29672,0.02564 -0.59413,0.05167 -0.89246,0.07807 -4.73541,0.419024 -10.46595,0.118871 -16.273621,-0.3027 m 25.047421,-3.199676 c -2.33623,1.650705 -5.21388,2.652151 -8.33921,2.6678 -4.85461,0.02431 -9.70623,0.123871 -14.63246,0.159576 l 0,0 c -7.944572,0.05758 -15.41659,0.325379 -22.920827,0.96875 l -2e-6,0 c -1.043843,0.08949 -2.096691,0.148848 -3.156373,0.183293 m 12.376743,-0.860166 c -7.996847,-0.24082 -15.506062,0.384618 -23.185547,1.15031 l -3e-6,0 C 56.577005,83.57435 48.546166,82.621884 40.451451,82.245829 35.39827,82.011075 30.679247,82.090997 26.064094,82.208739 M 50.705771,82.086396 C 42.947838,82.040583 35.016224,81.995744 26.957417,81.823954 23.116597,81.74208 19.386465,81.759496 15.6761,81.819776 11.351855,81.890029 7.5275103,80.036362 4.9318364,77.035739 3.6907098,75.600985 2.7748032,73.900345 2.2718186,72.035813 M 13.277724,81.696474 C 6.8816882,80.240728 2.3721788,74.919235 2.826479,68.507069 2.9268739,67.090057 3.0363159,65.675371 3.1520833,64.257994 l 0,-2e-6 c 0.608095,-7.445106 0.079379,-15.719752 0.2374999,-23.82083 l 10e-8,-2e-6 c 0.082587,-4.231222 -0.05112,-8.212062 -0.333729,-12.079991 M 1.9804413,50.536526 C 2.1616124,42.818079 2.3415357,34.833176 3.0739583,26.750621 3.385313,23.314705 3.3976154,19.957436 3.2802772,16.608268 3.1114287,11.788847 5.0991167,7.580478 8.5379615,4.9031731 10.609724,3.2902072 13.205102,2.4179977 16.019345,2.5179361 20.780638,2.6870177 25.588633,3.1310604 30.171254,3.59264 M 130.91471,62.996096 127.8783,78.792855 M 2.6458333,62.18772 V 47.836157"
       transform="translate(0,392.66621)" />
    <rect
       style="fill:#ffaaaa;stroke:none;stroke-width:0.52916667;stroke-dasharray:none;stroke-opacity:1"
       id="rect33"
       width="126.99999"
       height="117.73933"
       x="2.6458344"
       y="264.1698"
       ry="13.758205"
       sodipodi:type="rect" />
    <path
       id="rect34"
       style="fill:#ff8080;stroke:none;stroke-width:0.52916667;stroke-dasharray:none;stroke-opacity:1"
       d="m 9.6846802,265.91719 c -4.2041756,2.34898 -7.0388469,6.83386 -7.0388469,12.01064 v 90.22291 c 10e-8,7.62204 6.1362953,13.75834 13.7583337,13.75834 H 115.8875 c 5.17679,0 9.66218,-2.83466 12.01115,-7.03885 -1.98585,1.10954 -4.27423,1.74718 -6.71948,1.74718 H 21.695833 c -7.622038,0 -13.758333,-6.1363 -13.758333,-13.75833 v -90.22292 c 0,-2.44525 0.6376431,-4.73312 1.7471802,-6.71897 z" />
    <path
       style="fill:none;stroke:#000000;stroke-width:0.52916667;stroke-dasharray:none;stroke-opacity:1"
       id="rect15-6"
       width="126.99999"
       height="117.73933"
       x="2.6458344"
       y="408.78149"
       ry="13.758205"
       sodipodi:type="rect"
       inkscape:path-effect="#path-effect35"
       d="m 21.275536,409.51408 c 8.009293,-0.17878 15.474099,0.003 23.091781,-0.006 7.620947,-0.009 15.422417,-0.13493 22.939581,-0.4 l 2e-6,0 c 3.106989,-0.10956 6.32962,-0.11931 9.611921,-0.0849 M 57.785318,408.797 c 7.543728,-0.0917 15.594629,-0.22809 23.47363,-0.66863 l 3e-6,0 c 7.882379,-0.44073 15.645821,0.13273 23.589579,0.3875 1.21669,0.039 2.42782,0.0684 3.63524,0.0907 m -13.590995,0.0997 c 6.741145,-0.11605 14.008735,-0.12629 21.478835,-0.31196 0.98798,-0.0246 1.95645,0.0359 2.89718,0.173 6.89992,1.00552 11.14464,6.95295 10.54933,14.19896 -0.13024,1.58528 -0.26015,3.17911 -0.37542,4.77612 -0.14572,2.01905 -0.20559,3.93333 -0.20423,5.77197 m -1.17156,-16.01814 c 0.56687,1.54837 0.88794,3.22894 0.90558,4.98636 0.0607,6.04494 0.41443,12.04145 0.83584,17.99096 0.53991,7.62255 0.0516,15.70061 0.15,23.77083 l 0,1e-5 c 0.0839,6.88206 -0.14633,13.54809 -0.51195,20.54544 m 0.76057,-30.52767 c 0.14337,7.87405 -0.0811,15.33754 -0.23144,22.67946 l 0,0 c -0.15041,7.34506 -0.0872,15.39094 -0.25625,22.82708 l 0,0 c -0.0918,4.03796 -0.0263,8.34001 0.11352,12.74412 10e-5,0.003 2e-4,0.006 2.9e-4,0.009 m 0.36934,-21.07156 c 0.2485,7.44836 0.033,14.72419 0.0135,22.01476 -0.001,0.3983 -0.0187,0.79253 -0.0521,1.18204 -0.59748,6.96511 -6.67687,12.39057 -14.29036,12.0376 -1.02435,-0.0475 -2.05272,-0.0994 -3.08511,-0.1563 -2.4649,-0.1358 -4.84061,-0.20469 -7.16786,-0.24281 m 15.81295,-1.66384 c -1.82057,0.96725 -3.90141,1.54614 -6.11739,1.63135 -5.51396,0.21202 -11.04535,0.66355 -16.365023,1.41437 l -3e-6,0 c -7.372375,1.04052 -15.451124,-0.47419 -23.008331,-1.4375 -1.821691,-0.23221 -3.682081,-0.32717 -5.571818,-0.32543 m 14.920761,1.14555 c -7.743442,-0.14553 -15.76014,-0.01 -23.942123,-0.0186 -8.18549,-0.009 -15.478209,-0.14279 -23.095831,-0.4375 l -2e-6,0 c -0.818589,-0.0317 -1.638421,-0.0546 -2.458895,-0.0699 m 13.057422,0.76068 c -7.670495,0.10989 -15.542361,-0.34535 -23.298467,-1.04389 -2.89358,-0.2606 -5.811637,-0.31961 -8.751357,-0.28606 -5.264106,0.0601 -9.8763191,-2.45858 -12.3996415,-6.62358 -1.1819707,-1.95096 -1.8365027,-4.19902 -1.8246355,-6.5775 0.017634,-3.53432 0.1229597,-7.02936 0.2325353,-10.4552 m 8.4585777,23.59934 c -5.43142,-1.77964 -9.2265139,-7.02144 -8.8709672,-13.27793 0.119778,-2.10771 0.262121,-4.22447 0.4288326,-6.3476 0.6328949,-8.06013 -0.2971547,-15.46992 -0.9,-23.07083 -0.4399114,-5.54658 -0.067647,-11.34007 0.4155613,-17.17484 m -0.054533,28.03998 c 0.070644,-7.83696 -0.043661,-15.73192 -0.131341,-23.8795 -0.087717,-8.15107 -0.052679,-15.79761 -0.1499999,-24.04583 l -10e-8,0 c -0.045357,-3.84411 -0.018078,-7.45681 0.053491,-10.98209 M 1.7536657,456.5052 c 0.01456,-7.8684 0.00891,-16.03191 0.018731,-24.76696 0.00427,-3.7979 0.032079,-7.1385 0.086232,-10.25824 0.074613,-4.29852 2.4929679,-7.72143 6.1918537,-9.64929 2.3417718,-1.22054 5.1144368,-2.03038 8.0999368,-2.05539 2.673746,-0.0224 5.331826,-0.15283 8.008675,-0.27304 m -0.88366,-1.18143 c 7.930312,0.22901 15.492027,0.39218 23.141883,1.18721 l 1e-6,0 c 7.653136,0.79536 15.657978,-0.11056 23.645832,-0.33125 4.059756,-0.11217 7.97587,-0.0769 11.832104,0.018 m -21.394738,0.22711 c 7.851424,-0.16011 15.621022,-0.0445 23.548234,-0.11854 l 3e-6,0 c 7.930609,-0.0741 15.616292,0.0916 23.527077,0.26875 1.62881,0.0365 3.24133,0.0554 4.84103,0.0614 m -15.570575,-0.32848 c 6.181005,0.0841 12.486615,-0.18792 18.914765,-0.66042 1.71121,-0.12579 3.35836,0.0257 4.8963,0.40906 5.57004,1.38846 9.13168,6.64118 8.78152,12.67991 -0.12687,2.18794 -0.26626,4.35979 -0.39304,6.46995 -0.16932,2.81815 -0.19866,5.7117 -0.15825,8.65244 m 0.50931,-16.56926 c 0.18057,0.93976 0.27583,1.90747 0.27637,2.89477 0.004,6.95536 0.22771,13.65961 0.53038,20.58993 0.34486,7.8964 0.0634,15.35626 0.1875,22.73333 l 0,0 c 0.0932,5.53884 0.0341,11.5565 -0.0157,17.54412 m -0.69823,-28.0179 c 0.10581,7.77047 -0.25307,15.76365 -0.75013,23.96084 l 0,0 c -0.49728,8.2007 0.0612,15.14845 0.1875,22.11458 0.0534,2.94768 0.0649,6.197 0.0628,9.56421 -0.003,4.1887 -1.7906,8.09512 -4.59874,10.7247 m 5.67059,-31.09962 c 0.20905,7.02061 0.0181,14.21343 -0.0736,21.67982 -0.0106,0.86416 -0.0886,1.71414 -0.22801,2.54454 -1.17321,6.98972 -7.02864,11.63013 -14.37881,11.62381 -1.47514,-0.001 -2.96354,0.009 -4.46631,0.041 -8.068,0.17117 -14.571774,0.023 -21.513876,0.0127 m 32.806166,-3.44336 c -2.07464,1.06842 -4.42667,1.69027 -6.91211,1.69107 -5.40267,0.002 -10.68004,0.14667 -16.055728,0.1896 l -2e-6,0 c -7.744375,0.0619 -15.194542,0.2033 -22.258331,0.6125 -3.292105,0.19071 -6.994793,0.17632 -10.892555,0.082 m 19.437798,0.81188 c -7.583103,0.0936 -15.449775,0.0389 -23.02358,0.10613 l -1e-6,0 c -7.577051,0.0672 -15.895136,-0.40122 -24.352079,-1.20625 l -3e-6,0 c -5.963128,-0.56763 -11.125314,-0.19123 -16.203598,0.28566 m 26.409611,0.65041 c -7.988276,0.0976 -15.206772,-0.17311 -22.291808,-0.52513 -2.809893,-0.13961 -5.902708,-0.17821 -9.149141,-0.181 -5.266912,-0.005 -10.2010962,-2.55405 -13.1118804,-6.57959 -1.5328588,-2.1199 -2.3439151,-4.5696 -2.2925882,-7.14996 0.077696,-3.90601 0.4498085,-7.7197 0.7809163,-11.48532 M 13.670811,526.60722 C 7.7026868,525.05977 3.3876632,519.70464 3.4094421,513.29405 c 0.00592,-1.74396 0.01099,-3.48832 0.012955,-5.23356 l 0,0 c 0.00876,-7.78124 -0.1136346,-15.75895 -0.3312499,-23.95208 l -10e-8,0 C 2.8864442,476.40144 2.9950777,469.41322 2.8681221,462.11617 m 0.3039751,32.7587 c -0.2327964,-7.83678 0.043792,-15.5138 0.1252997,-23.22951 l 0,0 c 0.081543,-7.71901 -0.187814,-15.17794 -0.5624998,-22.20833 l -2e-7,0 c -0.31557,-5.92117 0.055339,-13.02194 0.4380872,-19.96756 m -0.4896309,29.7466 c 0.014611,-7.77647 0.06882,-15.48382 0.2062312,-23.11708 0.079416,-4.41161 -0.0031,-8.94721 -0.16933,-13.52421 -0.1282322,-3.53086 0.9747771,-6.76814 2.8989119,-9.25433 2.3073009,-2.98127 6.0897017,-4.81014 10.4604017,-4.7859 3.916635,0.0217 7.948834,0.0636 11.955794,0.0698 m -5.207006,-0.54015 c 7.771962,-0.0437 15.07792,-0.0548 21.910836,-0.16869 l 2e-6,0 c 6.835844,-0.1139 16.023983,0.29989 24.727078,0.90625 l 3e-6,0 c 6.014306,0.41902 11.033493,0.11887 15.975544,-0.3027 m -26.348018,-0.46005 c 7.670435,-0.19331 15.472,0.0302 23.079717,0.0877 l 3e-6,0 c 7.610978,0.0576 15.694514,0.32538 23.745829,0.96875 1.11994,0.0895 2.23088,0.14884 3.33498,0.18329 m -13.646547,-0.86017 c 6.434927,-0.20519 13.223897,0.21854 19.959897,0.82208 1.19945,0.10747 2.36126,0.36437 3.46616,0.75195 6.02315,2.11277 10.29452,7.04489 10.066,13.08112 -0.0608,1.6048 -0.1277,3.21298 -0.19776,4.84934 -0.19785,4.62057 -0.0616,9.55582 0.17863,14.5289 m -0.28961,-24.25876 c 0.46832,1.37509 0.71747,2.85021 0.70781,4.3847 -0.0393,6.23739 -0.18596,12.45937 -0.41558,18.59857 l 0,0 c -0.28449,7.60591 -0.0813,15.64932 -0.23125,23.60833 -0.0372,1.97451 -0.0504,3.94027 -0.0465,5.90541 m 0.44004,-15.51386 c -0.13487,7.52927 0.29859,15.71042 0.90643,23.8174 0.60809,8.11044 0.0794,15.39135 0.2375,22.84583 l 0,0 c 0.0737,3.47366 -0.0248,7.14661 -0.24759,10.92123 -0.0272,0.46108 -0.0767,0.9185 -0.14734,1.37104 m -1.01422,-21.03212 c 0.15763,6.8129 0.31432,13.42409 0.83477,19.94476 0.0795,0.99638 0.0526,1.9642 -0.0681,2.8923 -0.76959,5.91596 -6.70145,10.54638 -13.71753,10.3787 -1.68227,-0.0402 -3.36028,-0.0927 -5.01552,-0.16509 -7.95242,-0.34797 -15.415868,0.33085 -23.430263,1.05253 m 34.581013,-1.61203 c -1.88924,1.02315 -4.07608,1.58805 -6.41629,1.55517 -5.53086,-0.0777 -11.14626,-0.25249 -16.707358,-0.52223 l -3e-6,0 c -7.819915,-0.37932 -15.500899,-0.11211 -23.164581,-0.325 -3.544744,-0.0985 -7.103612,-0.0974 -10.641399,-0.0606 m 19.681738,-0.54253 c -7.917881,-0.0228 -15.542162,0.0343 -23.304398,0.10628 -7.765564,0.072 -15.482527,0.30607 -23.102081,0.9125 l -3e-6,0 c -3.711846,0.29542 -7.4681,0.33063 -11.212495,0.31677 m 20.259501,-0.70893 c -7.828157,0.0231 -15.153258,0.23101 -22.129514,0.69997 -2.481803,0.16684 -5.169591,0.22383 -7.955555,0.23471 -5.377976,0.021 -10.3344696,-3.118 -12.6575281,-7.43152 -0.9991464,-1.85524 -1.570255,-3.99013 -1.593231,-6.27239 -0.03627,-3.60281 -0.08455,-7.23822 -0.1639779,-10.86169 m 9.249741,23.43249 C 7.1933302,524.00904 3.3207789,519.1088 2.9561741,513.32627 2.820362,511.17233 2.6632843,509.0229 2.4973969,506.86257 c -0.5837026,-7.60148 0.1066981,-15.60236 0.3125,-23.48333 l 0,0 c 0.1689904,-6.47132 0.2044557,-12.90843 0.4499068,-19.48026 m -1.2513328,28.80238 c 0.1060153,-7.72454 -0.00848,-15.53661 -0.025136,-23.27964 l 1e-7,-10e-6 c -0.016667,-7.74635 0.3784937,-15.48592 1.1437496,-23.12707 l 3e-7,-1e-5 c 0.5019296,-5.01181 0.2313179,-10.1827 -0.1670019,-15.39996 m -0.3364387,25.1399 c -0.2450706,-7.89092 0.2762596,-15.62353 0.8253156,-23.55443 0.2470665,-3.56878 0.2453294,-6.98872 0.1447335,-10.30191 -0.1305736,-4.30053 1.778036,-7.93253 5.0147721,-9.97759 2.194762,-1.38671 5.012414,-2.31773 8.134044,-2.39339 3.114303,-0.0755 6.280592,-0.29232 9.450167,-0.49274 m 103.453154,94.2804 v 16.08593 M 2.6458344,479.97944 v -14.35156"
       transform="translate(3.0555556e-7,-144.61174)" />
    <rect
       style="fill:#ffffff;stroke:none;stroke-width:0.52916667;stroke-dasharray:none;stroke-opacity:1"
       id="rect56"
       width="66.145836"
       height="47.625015"
       x="24.944609"
       y="314.27133"
       ry="5.2916732" />
    <path
       id="path56"
       style="fill:#ffffff;stroke:none;stroke-width:0.52916667;stroke-dasharray:none"
       d="m 93.736282,319.56301 13.229148,-5.29167 c 1.36096,-0.54439 2.64584,1.18004 2.64584,2.64584 v 42.33332 c 0,1.46579 -1.28488,3.19023 -2.64584,2.64584 l -13.229148,-5.29167 c -1.360955,-0.54438 -2.64584,-1.18005 -2.64584,-2.64584 v -31.74998 c 0,-1.4658 1.284884,-2.10146 2.64584,-2.64584 z"
       sodipodi:nodetypes="sssssssss" />
    <circle
       style="fill:#ffffff;stroke:none;stroke-width:0.52916667;stroke-dasharray:none;stroke-opacity:1"
       id="circle56"
       cx="40.555023"
       cy="298.66092"
       r="15.634468" />
    <circle
       style="fill:#ffffff;stroke:none;stroke-width:0.52916667;stroke-dasharray:none;stroke-opacity:1"
       id="circle57"
       cx="75.347725"
       cy="298.52863"
       r="15.764754" />
    <path
       id="rect57"
       style="fill:#cccccc;stroke:none;stroke-width:0.52916667;stroke-dasharray:none;stroke-opacity:1"
       d="m 30.236278,314.27135 c -2.931584,0 -5.291667,2.36008 -5.291667,5.29167 v 37.04166 c 0,2.93158 2.360083,5.29167 5.291667,5.29167 h 55.562501 c 2.931584,0 5.291666,-2.36009 5.291666,-5.29167 h -55.5625 c -2.931584,0 -5.291667,-2.36008 -5.291667,-5.29167 z"
       sodipodi:nodetypes="csssscssc" />
    <path
       id="path60"
       style="fill:#cccccc;stroke:none;stroke-width:0.52916667;stroke-dasharray:none"
       d="m 96.382112,318.50468 -2.645833,1.05834 c -1.360955,0.54437 -2.645834,1.18003 -2.645834,2.64583 v 31.75 c 0,1.46578 1.28488,2.10145 2.645834,2.64583 l 13.229171,5.29167 c 1.36096,0.54439 2.64583,-1.18005 2.64583,-2.64584 v -3.70416 l -10.583332,-4.23334 c -1.360955,-0.54438 -2.645836,-1.18004 -2.645836,-2.64583 z"
       sodipodi:nodetypes="csssssscssc" />
    <path
       id="circle58"
       style="fill:#cccccc;stroke:none;stroke-width:0.52916667;stroke-dasharray:none;stroke-opacity:1"
       d="m 32.485237,285.29947 a 15.634468,15.634468 0 0 0 -7.564913,13.36146 15.634468,15.634468 0 0 0 15.634704,15.63471 15.634468,15.634468 0 0 0 13.361459,-7.5644 15.634468,15.634468 0 0 1 -8.069792,2.27273 15.634468,15.634468 0 0 1 -15.634705,-15.6347 15.634468,15.634468 0 0 1 2.273247,-8.0698 z" />
    <path
       id="circle59"
       style="fill:#cccccc;stroke:none;stroke-width:0.52916667;stroke-dasharray:none;stroke-opacity:1"
       d="m 67.181827,285.07106 a 15.764754,15.764754 0 0 0 -7.599019,13.45758 15.764754,15.764754 0 0 0 15.764929,15.76493 15.764754,15.764754 0 0 0 13.457576,-7.59902 15.764754,15.764754 0 0 1 -8.165909,2.30735 15.764754,15.764754 0 0 1 -15.76493,-15.76493 15.764754,15.764754 0 0 1 2.307353,-8.16591 z" />
    <g
       id="g61"
       transform="translate(-6.8053889,-11.166153)"
       inkscape:path-effect="#path-effect61"
       style="stroke-width:0.52916667;stroke-dasharray:none">
      <path
         style="fill:none;stroke:#000000;stroke-width:0.52916667;stroke-dasharray:none;stroke-opacity:1"
         id="rect36"
         width="66.145836"
         height="47.625019"
         x="31.749996"
         y="325.4375"
         ry="5.2916732"
         sodipodi:type="rect"
         d="m 41.913165,326.17008 c 8.009294,-0.17878 15.4741,0.003 23.091781,-0.006 7.620947,-0.009 15.422418,-0.13492 22.939581,-0.4 l 3e-6,0 c 1.397972,-0.0493 2.819356,-0.0784 4.259054,-0.0923 1.870816,-0.0181 3.535508,0.95948 4.509925,2.44539 m -18.290562,-2.6641 c 4.419414,-0.0537 9.012892,-0.12277 13.643899,-0.25934 2.980782,-0.0879 5.396129,2.17712 5.442168,4.95547 0.007,0.42402 0.01361,0.84709 0.01963,1.26916 0.104602,7.33704 0.09027,15.68828 0.25625,23.72083 l 0,0 c 0.02542,1.23029 0.04528,2.45089 0.06143,3.66454 m -0.297576,-13.1937 c -0.151293,7.23778 0.299735,14.59661 0.95665,21.73231 0.0377,0.40957 0.026,0.80693 -0.02944,1.18652 -0.329969,2.2592 -2.372168,3.98224 -4.918974,4.04792 -5.517712,0.14229 -11.564355,0.60153 -17.40956,1.10455 -1.993241,0.17153 -3.90063,0.2383 -5.746784,0.22941 m 14.795017,-1.09503 c -7.930126,0.002 -15.275871,-0.0761 -22.510633,-0.23126 l -2e-6,0 c -7.237863,-0.15523 -15.503927,0.14506 -23.183331,0.4375 -0.706787,0.0269 -1.417233,0.0513 -2.131114,0.0739 -2.928689,0.0926 -5.323297,-2.21785 -5.410372,-5.07171 -0.09343,-3.06211 -0.236327,-6.10807 -0.409657,-9.07956 m 18.849306,14.7447 c -4.187022,0.0546 -8.484781,-0.0143 -12.820275,-0.15911 -2.980184,-0.0995 -5.395127,-2.57495 -5.455561,-5.65707 -0.01519,-0.77484 -0.0301,-1.55102 -0.04434,-2.32828 l 0,-1e-5 c -0.150411,-8.21048 -0.08721,-15.72016 -0.25625,-23.83958 l 0,0 c -0.08331,-4.00151 -0.03706,-7.78549 0.07672,-11.47307 0.01195,-0.38715 0.06879,-0.76291 0.165891,-1.12267 m 0.240538,23.18916 c 0.23535,-6.916 0.05449,-13.98675 0.01814,-21.05316 -0.0043,-0.83115 0.179044,-1.61698 0.510798,-2.31802 0.852323,-1.80106 2.650819,-3.04642 4.727658,-3.08178 5.699743,-0.097 11.256375,-0.26 16.668808,-0.60031 2.159822,-0.1358 4.40884,-0.20469 6.706306,-0.24282 m -18.012671,-0.1743 c 7.976267,0.0503 15.749651,0.5161 23.929323,1.55618 l 2e-6,0 c 8.183178,1.04053 15.659983,-0.47418 23.658329,-1.43749 l 3e-6,-1e-5 c 0.793852,-0.0956 1.581143,-0.16795 2.362526,-0.21985 1.171442,-0.0778 2.244846,0.26341 3.104733,0.89064 M 80.886292,325.767 c 3.950305,-0.0736 7.83062,-0.0752 11.654941,-0.06 2.84941,0.0114 5.115811,2.38948 4.980017,5.32966 -0.04944,1.07051 -0.102278,2.13939 -0.15823,3.20554 -0.407714,7.76884 0.07734,15.41277 0.2375,22.89584 l 0,0 c 0.01721,0.80412 0.03318,1.61698 0.0485,2.43747 m 0.670382,-11.62635 c 0.09086,6.89133 0.02787,13.35092 0.02281,19.59367 -7.64e-4,0.94224 -0.288974,1.81485 -0.787784,2.53844 -0.928408,1.34678 -2.594949,2.25841 -4.516552,2.22356 -6.030604,-0.10936 -12.158008,0.35253 -18.357494,0.42796 -6.162807,0.075 -11.943209,0.20409 -17.71212,0.52028 m 27.104213,-0.30928 c -7.745073,0.0477 -15.2378,-0.14283 -22.37962,-0.42506 -7.144883,-0.28235 -15.852709,0.0856 -24.233331,0.2625 l -3e-6,0 c -0.408234,0.009 -0.812849,0.0161 -1.214054,0.0226 -3.088346,0.0498 -5.442632,-2.32341 -5.31587,-5.29246 0.109326,-2.56068 0.302293,-5.14761 0.517206,-7.7427 m 16.399909,13.85153 c -3.687112,-0.0299 -7.416589,-0.0731 -11.165237,-0.15096 -2.954071,-0.0613 -5.341805,-2.49195 -5.37598,-5.53213 -0.01495,-1.32971 -0.03012,-2.66541 -0.04457,-4.00796 l 0,0 c -0.08772,-8.15107 -0.05268,-15.79762 -0.15,-24.04583 l 0,0 c -0.04115,-3.48728 -0.02252,-6.78411 0.03473,-9.99799 0.006,-0.33553 0.0446,-0.66252 0.11299,-0.97819 m -0.400825,21.5398 c 0.012,-6.48287 0.01028,-13.16608 0.01479,-20.20421 0.001,-1.59004 0.577333,-3.04575 1.514042,-4.16423 0.959584,-1.14579 2.30561,-1.84937 3.799267,-1.88389 6.420135,-0.14837 12.92812,0.98037 19.54274,1.80065 5.662616,0.70223 11.103039,0.41089 16.623286,0.16297 m -29.095137,-1.18142 c 7.930311,0.22901 15.492026,0.39218 23.141882,1.1872 l 2e-6,0 c 7.653136,0.79537 15.657977,-0.11056 23.645832,-0.33125 1.017468,-0.0281 2.025915,-0.047 3.026657,-0.0579 2.956126,-0.0324 5.291031,2.36208 5.223806,5.35435 -0.0044,0.19409 -0.0089,0.38834 -0.01351,0.58272 m -17.799583,-5.63403 c 4.164431,-0.0849 8.305841,-0.0923 12.459961,-0.0915 2.954578,5.5e-4 5.335983,2.36477 5.381323,5.28314 0.01358,0.8742 0.02883,1.74664 0.04609,2.61667 0.152832,7.70366 0.06074,15.64712 0.19375,23.60208 l 0,0 c 0.02739,1.6379 0.03848,3.25829 0.03676,4.8657 m -1.197697,-14.70136 c -0.0017,6.97416 0.150942,13.5073 0.455064,19.81385 0.04127,0.85582 -0.156614,1.65422 -0.534244,2.33467 -0.809149,1.45801 -2.505143,2.45897 -4.509803,2.40895 -5.922133,-0.14778 -12.261266,0.17193 -18.506477,0.0321 -3.055899,-0.0684 -5.971814,-0.0615 -8.817982,-0.007 m 18.785853,1.39979 c -7.842898,0.23704 -15.374763,0.0624 -22.804495,0.18094 -7.432918,0.11863 -15.492178,-0.19928 -23.145831,-0.6 l -3e-6,0 c -0.176202,-0.009 -0.352547,-0.018 -0.529031,-0.0263 -2.892266,-0.13667 -5.244564,-2.50638 -5.254373,-5.42027 -0.0096,-2.8619 -0.03654,-5.66959 -0.06115,-8.48463 m 15.249718,13.57655 c -3.503747,-0.002 -7.104497,0.0429 -10.771111,0.13224 -3.030035,0.0739 -5.501511,-2.19742 -5.6654,-5.00152 -0.08097,-1.38537 -0.168865,-2.76353 -0.261566,-4.1346 -0.497278,-7.35485 0.06125,-15.96266 0.1875,-24.55208 l 0,0 c 0.05064,-3.44508 0.06362,-6.61916 0.06304,-9.67872 -5.43e-4,-2.87521 2.348637,-5.10173 5.274923,-4.97019 1.25793,0.0565 2.517144,0.10907 3.779229,0.14729 m -7.982516,25.83119 c 0.203915,-6.77113 0.02721,-13.3784 -0.06669,-19.72776 -0.01393,-0.94181 0.255039,-1.81467 0.733782,-2.54214 0.911623,-1.38523 2.557265,-2.31772 4.430678,-2.27195 5.814812,0.14208 11.447389,-0.13082 16.804147,0.009 6.564537,0.17117 14.693296,0.023 22.38373,0.0127 m 21.256765,29.65454 v 19.30313 M 31.749996,364.73319 v -17.22188" />
      <path
         id="rect37"
         style="fill:none;stroke:#000000;stroke-width:0.52916667;stroke-dasharray:none"
         d="m 101.29996,329.32885 c 3.92698,-1.76064 8.00029,-3.35701 12.10162,-4.91886 0.68838,-0.26214 1.35677,0.0416 1.85701,0.59928 0.50025,0.55764 0.83157,1.36815 0.84042,2.11255 0.0237,1.99549 0.0451,3.98929 0.0536,5.96958 l 0,0 c 0.0334,7.83962 0.36101,15.75885 1.075,23.94583 l 0,0 c 0.33275,3.81557 0.25493,7.42604 -0.018,10.95657 m -0.78804,-19.41394 c 0.18424,7.57585 0.10558,15.01426 0.27859,22.55636 0.006,0.28274 -0.0336,0.5753 -0.11167,0.8597 -0.12594,0.45851 -0.35459,0.89297 -0.6513,1.23039 -0.48024,0.54614 -1.13916,0.838 -1.81933,0.55792 -4.41338,-1.81726 -9.06975,-3.82326 -13.83199,-5.97264 -0.734661,-0.33158 -1.452548,-0.68871 -1.99449,-1.15578 -0.544042,-0.46889 -0.909094,-1.04474 -0.970967,-1.84845 -0.04542,-0.59006 -0.09171,-1.18178 -0.138664,-1.77512 -0.478892,-6.05187 -0.156842,-11.15971 0.24911,-16.16706 m 6.673361,22.96028 c -1.37134,-0.51475 -2.71647,-1.04204 -4.0394,-1.58007 -0.675918,-0.27489 -1.326876,-0.57541 -1.805041,-0.99241 -0.477238,-0.4162 -0.785077,-0.95091 -0.761171,-1.69464 0.163493,-5.08646 0.551924,-10.28311 0.995641,-15.51346 0.494772,-5.83218 0.06308,-11.33358 -0.528859,-16.89065 -0.07764,-0.72885 0.184343,-1.25509 0.603423,-1.66349 0.419605,-0.40891 1.003252,-0.70615 1.600107,-0.98108 0.70388,-0.32423 1.40831,-0.652 2.11612,-0.98473 3.1918,-1.50042 6.86596,-2.88625 10.71043,-4.19864 0.72404,-0.24717 1.42485,0.0678 1.97157,0.64504 0.54528,0.57574 0.93057,1.40843 0.99065,2.17534 0.0955,1.21941 0.19593,2.44404 0.29283,3.6728 m -11.64436,-1.87929 c 3.27904,-1.32858 6.58685,-2.65207 9.90431,-3.97446 0.68206,-0.27188 1.34515,0.0234 1.83877,0.57001 0.49358,0.54663 0.81757,1.3446 0.82016,2.07784 0.01,2.76803 0.0207,5.53575 0.0238,8.30127 0.009,7.77431 -0.11363,15.35216 -0.33125,22.71458 -0.0998,3.37611 -0.12511,6.92303 -0.13957,10.52172 -0.003,0.73949 -0.32697,1.54679 -0.82093,2.10312 -0.49448,0.55691 -1.15724,0.86034 -1.84134,0.59923 -2.1519,-0.82136 -4.31003,-1.64121 -6.49156,-2.49176 m 9.37435,-22.3958 c -0.21873,7.24633 0.0122,14.63371 0.10855,21.99751 0.006,0.45605 -0.11064,0.93691 -0.31492,1.36788 0,0 0,0 0,0 -0.12665,0.2672 -0.2872,0.51563 -0.47323,0.72753 -0.4867,0.5544 -1.14522,0.8565 -1.82633,0.59608 -4.41122,-1.68663 -8.94182,-3.26842 -13.53589,-4.70701 -0.71042,-0.22246 -1.398372,-0.46372 -1.918151,-0.82518 -0.519448,-0.36123 -0.863714,-0.83915 -0.897103,-1.51124 -0.03262,-0.65667 -0.06634,-1.3098 -0.100953,-1.95928 -0.31557,-5.92117 0.05534,-13.02194 0.438088,-19.96757 m 6.264079,25.60276 c -1.36652,-0.5481 -2.73161,-1.09372 -4.09498,-1.63681 -0.677531,-0.26989 -1.33568,-0.56201 -1.823729,-0.96917 -0.487896,-0.40702 -0.806177,-0.92952 -0.801562,-1.65787 0.03125,-4.93246 0.08506,-9.83602 0.172792,-14.70938 0.09933,-5.51778 -0.05467,-11.22953 -0.308923,-16.97365 -0.03312,-0.74834 0.262404,-1.28752 0.721898,-1.71199 0.459309,-0.4243 1.086472,-0.73708 1.727634,-1.02582 0.72012,-0.32429 1.43886,-0.64845 2.15672,-0.97197 3.43099,-1.54628 7.15621,-3.00442 11.01006,-4.44014 0.71785,-0.26743 1.41415,0.0305 1.95235,0.5828 0.53748,0.55163 0.91358,1.35564 0.96569,2.09419 0.16166,2.29125 0.34602,4.58192 0.52096,6.85927 m -10.77598,-6.74604 c 2.71622,-1.10331 5.3664,-2.20201 7.95019,-3.30331 0.64815,-0.27627 1.27933,0.0168 1.72884,0.55845 0.45019,0.54242 0.72102,1.33491 0.67119,2.06326 -0.23148,3.38295 -0.55309,6.75757 -0.96542,10.11248 -0.94194,7.66389 0.46843,15.85545 1.39374,24.23958 0.34841,3.15687 0.4014,6.10023 0.30744,8.92678 -0.0236,0.70863 -0.38039,1.46774 -0.91263,1.97556 -0.5303,0.50597 -1.23477,0.76458 -1.96139,0.44593 -1.00078,-0.43887 -2.01022,-0.88586 -3.02235,-1.33708 m 5.08724,-20.64471 c -0.0832,6.06418 -0.0825,12.39507 -0.16421,18.69438 -0.01,0.74254 -0.34268,1.54975 -0.84647,2.10426 -0.5041,0.55483 -1.17655,0.85491 -1.87167,0.58879 -0.10671,-0.0408 -0.21346,-0.0817 -0.32025,-0.12265 -4.40478,-1.68781 -8.64159,-3.3009 -12.81741,-4.80423 -0.660297,-0.23772 -1.299513,-0.49573 -1.771255,-0.87144 -0.470649,-0.37484 -0.774631,-0.8685 -0.749981,-1.55707 0.06063,-1.69371 0.125832,-3.36927 0.189299,-5.0246 0.03805,-0.9924 0.06709,-2.01494 0.08931,-3.06239 m 2.329972,10.5728 c -0.10962,-0.0461 -0.21914,-0.092 -0.32855,-0.13769 -0.699907,-0.29242 -1.376666,-0.59972 -1.878137,-1.01519 -0.501694,-0.41566 -0.830052,-0.94153 -0.836027,-1.66961 -0.05151,-6.27722 0.138385,-12.07093 0.215625,-17.77185 0.05203,-3.84007 -3.39e-4,-8.19558 -0.110421,-12.68955 -0.01892,-0.7725 0.286996,-1.33219 0.759117,-1.78235 0.470985,-0.44909 1.11304,-0.793 1.767533,-1.11329 1.95336,-0.95594 3.89541,-1.91719 5.83244,-2.83307 2.27915,-1.07764 4.65174,-2.0673 7.08371,-3.00991 0.69385,-0.26893 1.37024,0.0312 1.88382,0.58707 0.51333,0.55556 0.86381,1.36714 0.89355,2.1145 0.0343,0.86145 0.0729,1.72551 0.11471,2.59071 m 6.03246,45.50238 -16.61683,-6.64675 m 11.14949,-17.06118 v 22.81875"
         sodipodi:nodetypes="sssssssss"
         inkscape:original-d="m 100.54167,330.72916 13.22915,-5.29167 c 1.36096,-0.54439 2.64584,1.18004 2.64584,2.64584 v 42.33332 c 0,1.46579 -1.28488,3.19023 -2.64584,2.64584 l -13.22915,-5.29167 c -1.360954,-0.54438 -2.645839,-1.18005 -2.645839,-2.64584 V 333.375 c 0,-1.4658 1.284884,-2.10146 2.645839,-2.64584 z" />
      <path
         style="fill:none;stroke:#000000;stroke-width:0.52916667;stroke-dasharray:none;stroke-opacity:1"
         id="circle38"
         sodipodi:type="arc"
         sodipodi:ry="15.634468"
         sodipodi:rx="15.634468"
         sodipodi:cy="309.82709"
         sodipodi:cx="47.360413"
         d="m 61.754964,315.65951 c -2.349485,5.91705 -8.209279,9.79795 -14.801877,9.69414 -1.606366,-0.0253 -3.209272,-0.28798 -4.757109,-0.78159 -6.802507,-2.16936 -11.161185,-8.05189 -11.217731,-14.75098 -0.0095,-1.12106 0.102946,-2.23868 0.332155,-3.33392 0.385691,-1.84297 1.142679,-3.60076 2.224154,-5.17206 m -1.061085,14.33506 c -0.792736,-1.93063 -1.179554,-3.9476 -1.145187,-5.95164 0.100739,-5.87426 3.790835,-11.01759 9.533715,-13.41146 2.365853,-0.98619 4.838777,-1.53007 7.297076,-1.55716 5.535793,-0.061 10.387486,2.50367 13.331341,6.96976 1.527699,2.31766 2.259009,5.11901 2.128769,8.04253 -0.05652,1.26866 -0.274629,2.54741 -0.649765,3.80633 m -9.822542,-17.33281 c 5.741759,2.58064 9.448427,8.02735 9.848375,13.97528 0.117738,1.75097 -0.0568,3.48018 -0.500786,5.11104 -1.616862,5.93912 -8.048913,10.11896 -15.027582,9.93983 -1.488326,-0.0382 -2.96544,-0.27425 -4.381025,-0.70876 -7.125508,-2.18716 -11.739749,-7.82547 -12.03826,-14.24948 -0.03376,-0.72665 -0.01088,-1.45048 0.06678,-2.1656 m 30.172544,9.10016 c -2.489508,5.44174 -8.054929,8.8135 -14.135061,8.59115 -1.926085,-0.0704 -3.835662,-0.50114 -5.628647,-1.27587 -6.084127,-2.62891 -10.03051,-8.30598 -9.944653,-14.8507 0.01982,-1.51105 0.256204,-3.0239 0.701893,-4.50124 1.080902,-3.58289 3.329512,-6.6016 6.401249,-8.59661 m -6.597787,17.20248 c -0.527116,-1.55109 -0.797379,-3.1671 -0.805686,-4.78978 -0.0324,-6.3302 3.892546,-11.99821 9.763615,-14.34929 1.889155,-0.75651 3.915677,-1.12587 5.965539,-1.08102 5.924102,0.12963 11.3837,3.68357 14.161049,9.39462 1.157096,2.37933 1.765016,4.87839 1.792992,7.36235 0.01539,1.3665 -0.145041,2.71163 -0.474279,4.01135 m -8.058611,-18.40565 c 4.967407,2.77114 8.269618,8.11835 8.700524,14.06039 0.167615,2.31134 -0.106794,4.6135 -0.791377,6.76899 -1.893663,5.96243 -7.859801,9.41239 -14.207671,9.3896 -1.87252,-0.007 -3.718928,-0.31422 -5.432106,-0.89114 -5.664356,-1.9075 -9.680088,-6.99648 -10.465769,-12.93776 m 31.388559,-0.19656 c -0.748678,7.66206 -7.880101,13.86996 -16.364146,14.05553 -0.213753,0.005 -0.427568,0.005 -0.641327,0.002 0,0 -2e-6,0 -2e-6,0 -8.727435,-0.12593 -14.600843,-6.89754 -14.712588,-15.14491 0,0 0,0 0,0 -0.0029,-0.21206 -0.0017,-0.42423 0.0036,-0.63639 0.160097,-6.4489 4.049608,-12.22251 10.189191,-14.79932 m -7.230011,23.849 c -2.386588,-2.81255 -3.725685,-6.42263 -3.740963,-10.16117 -0.01686,-4.12615 1.580155,-8.08936 4.479576,-11.00141 2.92599,-2.93872 7.026173,-4.58334 11.406531,-4.54898 3.899908,0.0306 7.756103,1.38802 10.945239,3.84937 3.941711,3.04217 5.807986,7.37207 5.483663,11.86426 -0.04115,0.56996 -0.117362,1.13874 -0.22759,1.70371 M 48.58981,293.91921 c 7.905524,0.53293 14.631127,7.3633 15.206946,15.35355 0,0 0.0012,0.0173 0.0012,0.0173 0,0 0,0 0,0 0.570012,8.03758 -6.45364,15.32904 -14.821874,16.84516 -0.414938,0.0752 -0.82927,0.12983 -1.242146,0.1643 -5.870266,0.49015 -11.014088,-3.09579 -13.559896,-8.49875 m 8.877035,10.17383 -14.027841,-14.7339 m 10.726325,-19.87337 18.286519,1.80107" />
      <path
         style="fill:none;stroke:#000000;stroke-width:0.52916667;stroke-dasharray:none;stroke-opacity:1"
         id="circle39"
         sodipodi:type="arc"
         sodipodi:ry="15.764754"
         sodipodi:rx="15.764754"
         sodipodi:cy="309.69479"
         sodipodi:cx="82.153114"
         d="m 98.332001,311.76475 c -1.169837,8.06785 -8.000638,13.64963 -16.415266,13.56548 -0.237071,-0.002 -0.474422,-0.009 -0.711919,-0.0207 -8.667339,-0.41609 -14.372865,-7.02193 -14.05575,-15.5118 0,0 0,0 0,0 0.0099,-0.26577 0.02411,-0.53079 0.04264,-0.7949 0.06419,-0.91497 0.1803,-1.81632 0.350843,-2.69743 m 1.939318,13.81328 c -2.28421,-2.8375 -3.469557,-6.33989 -3.422409,-9.98569 0.05785,-4.47295 1.960084,-8.80744 5.184688,-12.12331 2.995457,-3.08024 6.876148,-4.6012 10.876437,-4.48331 3.812876,0.11236 7.473408,1.70349 10.337535,4.30586 3.377624,3.06893 5.300781,7.36314 5.253319,11.8648 -0.0313,2.96909 -0.920326,5.87177 -2.574287,8.38773 m 1.853211,-4.2315 c -1.823176,6.96854 -7.799683,11.69114 -14.345626,11.69938 -0.83001,0.001 -1.653081,-0.0749 -2.458726,-0.22658 -6.870095,-1.29317 -13.218269,-7.88066 -13.825805,-15.61434 -0.03397,-0.43246 -0.04939,-0.86478 -0.04594,-1.29586 0.05687,-7.10251 5.882015,-12.89649 13.328261,-14.27275 m -9.925747,24.34782 c -1.830318,-2.62897 -2.847656,-5.77947 -2.936967,-9.04131 -0.130945,-4.78245 1.738003,-9.37336 5.002265,-12.6087 2.567674,-2.54492 6.100511,-3.84446 9.775161,-3.79173 4.170702,0.0598 8.226691,1.85301 11.026511,4.84398 1.019292,1.08888 1.911934,2.33389 2.643631,3.69973 m -10.141649,-7.4018 c 7.402888,1.24519 13.065289,8.09945 13.26961,16.20075 0.01204,0.47742 0.0049,0.95521 -0.0215,1.4321 -0.476539,8.61457 -7.551894,14.14799 -15.842605,13.67597 0,0 -10e-7,0 -10e-7,0 -0.02835,-0.002 -0.0567,-0.003 -0.08504,-0.005 -5.375321,-0.32801 -10.334575,-2.72044 -13.457279,-6.77658 m 29.174196,-6.13711 c -1.36312,7.88033 -7.874547,13.19507 -15.837274,12.55883 -0.300631,-0.024 -0.601611,-0.0565 -0.90263,-0.0975 -8.317908,-1.13254 -14.589708,-6.84779 -14.877599,-14.68836 0,0 0,0 0,0 -0.0064,-0.17381 -0.0097,-0.34808 -0.01,-0.52272 -0.0094,-6.23753 3.847056,-12.2263 9.665128,-14.66357 m -6.163428,24.96707 c -2.356123,-2.89382 -3.610497,-6.53493 -3.48345,-10.3112 0.140847,-4.18641 1.968734,-8.22812 5.193901,-11.30886 3.297439,-3.14977 7.224461,-4.85916 11.174552,-4.86616 3.398363,-0.006 6.569937,1.25317 9.087061,3.48636 1.433035,1.2714 2.696891,2.88159 3.681189,4.73287 m -12.313246,-7.7842 c 8.11852,0.54579 14.629281,7.49487 15.300713,15.63683 0.0017,0.0206 0.0033,0.0411 0.0049,0.0617 0.630413,8.1214 -6.364641,14.90413 -14.711486,15.60676 -0.51313,0.0432 -1.025278,0.0634 -1.535028,0.0604 -1.865228,-0.0108 -3.680785,-0.33135 -5.377426,-0.95007 m -12.553547,-10.8043 5.203352,-17.15315 m 17.250646,-4.07627 12.20809,11.62307" />
    </g>
  </g>
</svg>
