<?xml version="1.0" encoding="UTF-8" standalone="no"?>
<svg
   height="80"
   width="320"
   version="1.1"
   id="svg1"
   sodipodi:docname="service-node.svg"
   inkscape:version="1.3.2 (091e20ef0f, 2023-11-25, custom)"
   xmlns:inkscape="http://www.inkscape.org/namespaces/inkscape"
   xmlns:sodipodi="http://sodipodi.sourceforge.net/DTD/sodipodi-0.dtd"
   xmlns="http://www.w3.org/2000/svg"
   xmlns:svg="http://www.w3.org/2000/svg">
  <defs
     id="defs1">
    <inkscape:path-effect
       effect="sketch"
       id="path-effect10"
       is_visible="true"
       lpeversion="1"
       nbiter_approxstrokes="3"
       parallel_offset="0.2;1043659229"
       strokelength="70"
       strokelength_rdm="0.3;1716518253"
       strokeoverlap="0.5"
       strokeoverlap_rdm="0.5;1137249961"
       ends_tolerance="0.1;1"
       tremble_size="0.8;1"
       tremble_frequency="3"
       nbtangents="2"
       tgt_places_rdmness="0.5;1"
       tgtlength="5"
       tgtlength_rdm="0.3;1"
       tgtscale="10" />
    <inkscape:path-effect
       effect="sketch"
       id="path-effect9"
       is_visible="true"
       lpeversion="1"
       nbiter_approxstrokes="3"
       parallel_offset="0.2;1"
       strokelength="70"
       strokelength_rdm="0.3;1"
       strokeoverlap="0.5"
       strokeoverlap_rdm="0.5;1"
       ends_tolerance="0.1;1"
       tremble_size="0.8;1"
       tremble_frequency="3"
       nbtangents="2"
       tgt_places_rdmness="0.5;1"
       tgtlength="5"
       tgtlength_rdm="0.3;1"
       tgtscale="10" />
    <inkscape:path-effect
       effect="sketch"
       id="path-effect8"
       is_visible="true"
       lpeversion="1"
       nbiter_approxstrokes="3"
       parallel_offset="0.2;1"
       strokelength="70"
       strokelength_rdm="0.3;1"
       strokeoverlap="0.5"
       strokeoverlap_rdm="0.5;1"
       ends_tolerance="0.1;1"
       tremble_size="0.8;1"
       tremble_frequency="3"
       nbtangents="2"
       tgt_places_rdmness="0.5;1"
       tgtlength="5"
       tgtlength_rdm="0.3;1"
       tgtscale="10" />
    <inkscape:path-effect
       effect="sketch"
       id="path-effect4"
       is_visible="true"
       lpeversion="1"
       nbiter_approxstrokes="3"
       parallel_offset="0.2;1"
       strokelength="70"
       strokelength_rdm="0.3;1"
       strokeoverlap="0.5"
       strokeoverlap_rdm="0.5;1"
       ends_tolerance="0.1;1"
       tremble_size="0.8;1"
       tremble_frequency="3"
       nbtangents="2"
       tgt_places_rdmness="0.5;1"
       tgtlength="5"
       tgtlength_rdm="0.3;1"
       tgtscale="10" />
    <inkscape:path-effect
       effect="sketch"
       id="path-effect3"
       is_visible="true"
       lpeversion="1"
       nbiter_approxstrokes="3"
       parallel_offset="2;1"
       strokelength="70"
       strokelength_rdm="0.3;1"
       strokeoverlap="0.5"
       strokeoverlap_rdm="0.5;1"
       ends_tolerance="0.1;1"
       tremble_size="0.8;1"
       tremble_frequency="3"
       nbtangents="2"
       tgt_places_rdmness="0.5;1"
       tgtlength="5"
       tgtlength_rdm="0.3;1"
       tgtscale="10" />
    <inkscape:path-effect
       effect="sketch"
       id="path-effect2"
       is_visible="true"
       lpeversion="1"
       nbiter_approxstrokes="3"
       parallel_offset="2;1"
       strokelength="70"
       strokelength_rdm="0.3;1"
       strokeoverlap="0.5"
       strokeoverlap_rdm="0.5;1"
       ends_tolerance="0.1;1"
       tremble_size="0.8;1"
       tremble_frequency="3"
       nbtangents="2"
       tgt_places_rdmness="0.5;1"
       tgtlength="5"
       tgtlength_rdm="0.3;1"
       tgtscale="10" />
    <inkscape:path-effect
       effect="sketch"
       id="path-effect6"
       is_visible="true"
       lpeversion="1"
       nbiter_approxstrokes="3"
       parallel_offset="0.2;1"
       strokelength="70"
       strokelength_rdm="0.3;1"
       strokeoverlap="0.5"
       strokeoverlap_rdm="0.5;1"
       ends_tolerance="0.1;1"
       tremble_size="0.8;1"
       tremble_frequency="3"
       nbtangents="2"
       tgt_places_rdmness="0.5;1"
       tgtlength="5"
       tgtlength_rdm="0.3;1"
       tgtscale="10" />
    <inkscape:path-effect
       effect="sketch"
       id="path-effect5"
       is_visible="true"
       lpeversion="1"
       nbiter_approxstrokes="3"
       parallel_offset="0.2;1"
       strokelength="70"
       strokelength_rdm="0.3;1"
       strokeoverlap="0.5"
       strokeoverlap_rdm="0.5;1"
       ends_tolerance="0.1;1"
       tremble_size="0.8;1"
       tremble_frequency="3"
       nbtangents="2"
       tgt_places_rdmness="0.5;1"
       tgtlength="5"
       tgtlength_rdm="0.3;1"
       tgtscale="10" />
    <inkscape:path-effect
       effect="sketch"
       id="path-effect1"
       is_visible="true"
       lpeversion="1"
       nbiter_approxstrokes="3"
       parallel_offset="0.2;1"
       strokelength="70"
       strokelength_rdm="0.3;1"
       strokeoverlap="0.5"
       strokeoverlap_rdm="0.5;1"
       ends_tolerance="0.1;1"
       tremble_size="0.8;1"
       tremble_frequency="3"
       nbtangents="2"
       tgt_places_rdmness="0.5;1"
       tgtlength="5"
       tgtlength_rdm="0.3;1"
       tgtscale="10" />
    <inkscape:path-effect
       effect="sketch"
       id="path-effect7"
       is_visible="true"
       lpeversion="1"
       nbiter_approxstrokes="3"
       parallel_offset="0.2;1"
       strokelength="70"
       strokelength_rdm="0.3;1"
       strokeoverlap="0.5"
       strokeoverlap_rdm="0.5;1"
       ends_tolerance="0.1;1"
       tremble_size="0.8;1"
       tremble_frequency="3"
       nbtangents="2"
       tgt_places_rdmness="0.5;1"
       tgtlength="5"
       tgtlength_rdm="0.3;1"
       tgtscale="10" />
  </defs>
  <sodipodi:namedview
     id="namedview1"
     pagecolor="#ffffff"
     bordercolor="#000000"
     borderopacity="0.25"
     inkscape:showpageshadow="2"
     inkscape:pageopacity="0.0"
     inkscape:pagecheckerboard="0"
     inkscape:deskcolor="#d1d1d1"
     inkscape:zoom="1"
     inkscape:cx="191.99999"
     inkscape:cy="50.999999"
     inkscape:window-width="1440"
     inkscape:window-height="831"
     inkscape:window-x="0"
     inkscape:window-y="0"
     inkscape:window-maximized="1"
     inkscape:current-layer="svg1"
     showgrid="true">
    <inkscape:grid
       id="grid1"
       units="px"
       originx="0"
       originy="0"
       spacingx="1"
       spacingy="1"
       empcolor="#0099e5"
       empopacity="0.30196078"
       color="#0099e5"
       opacity="0.14901961"
       empspacing="5"
       dotted="false"
       gridanglex="30"
       gridanglez="30"
       visible="true" />
  </sodipodi:namedview>
  <g
     id="g1">
    <path
       id="rect4"
       style="fill:#cccccc;stroke:none;stroke-linecap:round;stroke-linejoin:round"
       d="m 20.25,10.25 c -5.539994,0 -10,4.460006 -10,10 v 39.5 c 0,5.539994 4.460006,10 10,10 h 279.5 c 5.53999,0 10,-4.460006 10,-10 0,0 -184.75,5.25 -279.5,0 -5.531509,-0.306495 -8.850428,-4.580589 -10,-10 -5.25,-24.75 0,-39.5 0,-39.5 z"
       sodipodi:nodetypes="csssscssc" />
    <path
       style="fill:none;stroke:#000000;stroke-linecap:round;stroke-linejoin:round"
       id="rect3"
       width="299.75"
       height="59.75"
       x="10.25"
       y="10.25"
       rx="10"
       ry="10"
       sodipodi:type="rect"
       inkscape:path-effect="#path-effect10"
       d="m 24.890246,10.804457 c 8.009293,-0.178781 15.474031,0.0027 23.091781,-0.006 7.621015,-0.0087 15.422465,-0.134884 22.939581,-0.4 l 2e-6,-1e-6 c 3.582661,-0.126354 7.319088,-0.119957 11.123475,-0.06625 m -28.839684,-0.012 c 7.543729,-0.09167 15.595786,-0.226805 23.47363,-0.6686325 7.881221,-0.4420171 15.6446,0.1318347 23.589579,0.3874995 l 0,1e-6 c 6.97079,0.224315 13.75823,0.129212 20.70874,0.231593 M 91.846127,9.9107688 c 7.614672,-0.1310777 15.900793,-0.1269317 24.392293,-0.3935813 8.49513,-0.2667639 15.24384,0.3655395 22.40833,1.0874995 l 0,0 c 0.82027,0.08266 1.66048,0.14098 2.51787,0.178226 M 119.05833,9.9203151 c 7.61876,0.00201 15.82215,-0.075941 24.13603,-0.2312526 l 0,10e-8 c 8.31745,-0.1553785 15.60741,0.1449422 23.48333,0.4375004 3.97518,0.147661 7.84053,0.219528 11.63288,0.329219 m -27.04345,0.594346 c 7.91782,0.0996 15.46807,-0.211611 23.0919,-0.643878 l 0,0 c 7.62709,-0.4324527 15.46847,-0.164911 23.07708,-0.5062499 l 0,-10e-8 c 5.65919,-0.253884 11.61346,-0.012446 17.64981,0.307893 m -19.93557,0.865644 c 8.03639,0.07689 15.55638,-0.03862 23.33549,-0.125099 7.78246,-0.08651 15.30527,-0.224953 22.57084,-0.68125 l 0,0 c 5.86381,-0.3682641 12.38336,-0.244279 18.74592,-0.3499682 M 235.27978,9.4750645 c 7.97627,0.050335 15.74992,0.5167645 23.92933,1.5561855 l 0,0 c 8.18291,1.039866 15.66083,-0.475274 23.65833,-1.4375 5.91288,-0.7114138 11.46289,-0.1330639 16.91823,0.56634 0.96859,0.12418 1.89981,0.399227 2.77242,0.800028 m -19.9847,-0.17593 c 5.84617,-0.108999 11.5395,-0.05978 17.12434,-0.03221 1.96327,0.0097 3.77188,0.624876 5.25385,1.669863 2.5322,1.785536 4.28286,4.81993 4.34118,8.26236 0.0749,4.420134 0.2759,8.79377 0.36818,13.113937 0.0863,4.040249 0.14146,8.300481 0.24176,12.640983 m 0.70212,-21.21975 c 0.10395,7.884329 0.006,15.203707 0.0249,22.279441 0.01,3.711027 -0.0291,7.820592 -0.10842,12.025653 -0.0766,4.060189 -2.43125,7.639025 -5.85374,9.318084 -1.39453,0.684151 -2.93737,1.079864 -4.55213,1.110015 -3.25647,0.06081 -6.42829,0.1478 -9.57501,0.282334 m 16.30348,-3.673151 c -1.81881,2.104921 -4.46891,3.409332 -7.39024,3.368004 -4.79094,-0.06778 -9.46569,-0.209976 -13.99905,-0.389123 -7.14486,-0.282347 -15.85269,0.08563 -24.23333,0.2625 l 0,0 c -5.99771,0.126582 -11.21424,0.01567 -16.31105,-0.138755 m 26.38765,1.04805 c -7.7038,-0.06252 -15.59256,-0.183155 -23.45467,-0.55617 l 0,0 c -7.86549,-0.373175 -15.60811,-0.241839 -23.48334,-0.7125 -4.66698,-0.278922 -9.21637,-0.183587 -13.70663,-0.01006 m 24.77766,1.102123 c -7.75989,-0.09396 -15.53974,-0.483161 -23.30461,-1.44363 l 0,10e-7 c -7.76819,-0.96088 -15.41141,0.499027 -22.89583,1.499999 l 0,10e-7 c -3.59339,0.480582 -7.29086,0.495852 -10.99563,0.378149 m 23.96442,-1.610667 c -7.61858,0.229012 -15.60592,0.392337 -23.50479,1.187205 l 0,0 c -7.90225,0.795209 -15.45306,-0.110553 -23.02083,-0.33125 l 0,0 c -4.69763,-0.136996 -9.60943,-0.05409 -14.58293,0.08876 m 23.09698,0.223536 c -7.69746,-0.160111 -15.47628,-0.04362 -23.09843,-0.118544 -7.62542,-0.07495 -15.49417,0.09123 -23.13958,0.26875 l 0,0 c -4.96085,0.115184 -10.08298,0.05582 -15.25825,-0.03502 m 18.30904,0.09141 c -7.77635,0.105722 -15.35562,-0.351842 -22.742077,-1.062636 l -10e-7,0 c -7.38962,-0.711099 -15.786656,-0.09662 -24.020829,-0.28125 l -3e-6,0 c -4.79286,-0.107468 -9.241324,-0.0293 -13.616368,0.125574 m 27.818816,0.959106 c -7.842898,0.237045 -15.374793,0.0623 -22.804495,0.180945 l -3e-6,0 c -7.432885,0.118697 -15.492203,-0.199309 -23.145827,-0.6 l -3e-6,0 c -6.446078,-0.337472 -13.083796,-0.07248 -19.685063,0.07678 M 41.9227,69.743745 c -7.032884,-0.0036 -14.457124,0.180432 -22.019429,0.536683 -0.697659,0.03287 -1.380325,0.0036 -2.042417,-0.08214 -4.899743,-0.634199 -8.304712,-4.876344 -8.1606846,-10.117434 0.094372,-3.434162 0.2183555,-6.952341 0.2701431,-10.467455 0.046964,-3.187733 0.061659,-6.14359 0.063164,-8.991395 m 1.078953,20.519007 c -0.06819,-0.520827 -0.09807,-1.054434 -0.08626,-1.597464 0.155845,-7.166657 -0.0761,-14.140435 -0.141797,-20.806657 -0.05461,-5.541088 -0.264583,-11.758314 -0.726405,-17.805023 -0.14162,-1.854266 0.19668,-3.571913 0.884543,-5.012212 1.080044,-2.261474 3.281545,-3.963426 6.026689,-4.600509 M 9.8840833,26.640686 C 9.8156336,24.217396 9.7894543,21.841579 9.7871908,19.49309 9.7818542,13.956026 14.3564,9.6266631 19.925334,9.6779697 c 0.187649,0.00173 0.375189,0.00335 0.562613,0.00484 l 2e-6,0 c 7.81181,0.062368 15.916965,0.2031684 24.40833,0.6124995 l 2e-6,1e-6 c 1.240857,0.05982 2.44138,0.09945 3.6082,0.122773 M 26.92769,10.56887 c 7.965786,0.09358 15.647812,0.03987 23.623087,0.10613 7.978694,0.06629 15.215971,-0.401 22.314581,-1.2062497 l 2e-6,-3e-7 C 73.877736,9.3539084 74.922892,9.2776794 75.994888,9.2330881 M 54.623067,10.797001 c 7.560612,0.09756 15.890413,-0.17252 24.354859,-0.525126 8.468073,-0.3527571 15.134086,-0.06245 22.077084,-0.175 l 0,0 c 1.62481,-0.02634 3.35529,-0.0277 5.15942,-0.0082 m -18.138035,0.41917 c 7.707924,-0.01039 15.552575,0.0046 23.335915,1.4e-5 7.78668,-0.0046 15.44083,-0.202428 23.00209,-0.6187504 l 0,-1e-7 c 1.47709,-0.081329 2.96765,-0.1316343 4.46675,-0.1601131 M 118.49919,9.6014822 c 7.54165,-0.062336 15.59293,0.035609 23.44863,0.09383 l 0,10e-8 c 7.85908,0.058247 15.3677,0.3779664 22.77083,1.1249994 3.6845,0.371795 7.60875,0.331946 11.63347,0.155612 M 152.4836,10.140622 c 7.78905,-0.002 15.61772,0.06381 23.52956,0.206253 l 1e-5,0 c 7.91523,0.142503 15.34601,-0.08958 22.69582,-0.2625 l 1e-5,0 c 1.69418,-0.03986 3.44978,-0.06147 5.25099,-0.07102 M 181.87991,9.4874438 c 7.77197,-0.043703 15.07799,-0.054527 21.91084,-0.1686938 6.83578,-0.1142161 16.02488,0.2993866 24.72708,0.90625 l 0,0 c 1.6082,0.112151 3.14528,0.172855 4.62879,0.193543 M 209.64236,9.4216261 c 7.67044,-0.1933095 15.47131,0.030071 23.07972,0.087749 l 0,10e-8 c 7.61167,0.057702 15.69428,0.3249846 23.74583,0.9687499 4.4035,0.352084 8.66743,0.238226 12.92426,-0.02389 M 238.81526,9.7434398 c 7.55204,-0.2408201 15.59107,0.3847432 23.46112,1.1503102 l 0,0 c 7.87342,0.765895 15.39754,-0.186242 22.85833,-0.5625 1.4837,-0.07483 3.0013,-0.117674 4.54537,-0.137518 m -13.51217,0.02183 c 7.79096,-0.04581 15.40808,-0.09025 22.89831,-0.262441 0.17694,-0.00407 0.35416,-0.00789 0.53163,-0.011477 5.36318,-0.1083694 9.86023,4.4546281 9.85079,10.1129441 -0.004,2.410755 -0.0171,4.828281 -0.0627,7.238083 -0.0871,4.604868 -0.0433,9.16181 0.0449,13.77444 m 0.11163,-22.662811 c 0.0661,0.47929 0.0985,0.973131 0.0943,1.478891 -0.0582,7.113852 0.35728,14.75548 0.9257,22.332836 0.46809,6.239887 0.26294,11.988343 0.21538,17.70275 -0.0149,1.792888 -0.5254,3.463837 -1.38275,4.889228 -1.23122,2.046979 -3.32569,3.658986 -5.88529,4.421944 m 5.96539,-21.392356 c 0.0987,4.266964 0.19681,8.454801 0.3843,12.590835 0.16651,3.673337 -1.67812,6.821541 -4.40351,8.390223 -1.28756,0.741098 -2.86989,1.153273 -4.6208,1.116307 -5.98759,-0.126414 -12.69222,-0.109835 -19.05847,-0.388087 -3.08151,-0.134685 -6.08979,-0.11542 -9.08526,7.49e-4 m 20.16347,0.897691 c -7.64557,0.0019 -15.56947,-0.189616 -23.38599,-0.568752 l -1e-5,-10e-7 c -7.81987,-0.379298 -15.50075,-0.111774 -23.16457,-0.324999 l -1e-5,0 c -5.35,-0.14885 -10.73184,-0.07078 -16.02504,0.01486 m 23.23818,-0.227394 c -7.91788,-0.02284 -15.54212,0.03413 -23.3044,0.10628 l 0,0 c -7.7656,0.07218 -15.48309,0.306335 -23.10208,0.912499 -1.38123,0.109891 -2.76867,0.18375 -4.15939,0.232462 m 15.71921,-1.023057 c -7.82816,0.02307 -15.15319,0.231071 -22.12952,0.69997 l 0,10e-7 c -6.97932,0.4691 -15.58747,0.06976 -23.42708,0.218749 l 0,10e-7 c -6.46492,0.122867 -12.93106,0.05814 -19.50517,0.0543 m 30.60431,-0.248339 c -7.59799,-0.224445 -15.84713,0.08649 -24.20481,0.262788 l 0,0 c -8.36126,0.176373 -15.44871,-0.04662 -23.02083,-0.15 -5.0464,-0.0689 -10.18065,-0.115134 -15.21918,-0.229114 m 27.07739,-0.414571 c -7.66843,0.0499 -15.55737,0.01196 -23.34847,0.04368 l 0,10e-7 c -7.79445,0.03174 -15.17745,0.06975 -22.18958,0.206249 l 0,0 c -2.28195,0.04442 -4.754108,0.04976 -7.337724,0.02972 m 25.210084,-0.704868 c -8.01951,-0.116481 -15.27264,-0.07468 -22.498016,-0.231101 l -10e-7,10e-7 C 91.453789,68.948205 82.995492,69.52734 74.955184,70.379687 l -3e-6,10e-7 c -6.545619,0.693896 -12.674085,0.151069 -18.810653,-0.250722 m 17.088051,0.0448 c -7.893183,0.253592 -15.83234,-0.03538 -24.160681,-0.106576 -8.331911,-0.07123 -15.210955,-0.17891 -22.308331,-0.525 l -2e-6,-10e-7 c -1.805878,-0.08806 -3.726934,-0.115999 -5.729465,-0.10087 -1.740465,0.01315 -3.429575,-0.371675 -4.949855,-1.068531 m 27.395414,2.022355 c -7.99475,-0.133309 -15.483856,-0.304778 -23.1168,-0.912328 -0.07324,-0.0058 -0.146509,-0.01154 -0.219804,-0.01714 -5.451324,-0.416124 -9.945704,-4.647749 -9.993816,-10.013476 -0.02126,-2.371049 -0.04363,-4.738686 -0.05393,-7.161105 -0.0072,-1.681993 -0.01518,-3.376927 -0.025,-5.080578 m 2.726158,19.872505 C 10.896993,65.299816 9.7497988,62.737157 9.8447009,59.881479 10.013021,54.816609 10.325487,49.71731 10.8125,44.666945 l 0,-10e-7 C 11.559482,36.920686 10.520777,29.083178 9.9500001,21.239864 l -1e-7,-2e-6 c -0.02945,-0.40469 -0.055147,-0.809108 -0.077326,-1.213284 -0.1627286,-2.965572 1.1351046,-5.627907 3.2527296,-7.455827 m -2.319208,21.813157 c -0.02527,-4.695134 -0.118817,-9.46771 -0.31128,-14.312418 -0.13372,-3.366009 1.249007,-6.377166 3.439154,-8.353508 1.526378,-1.377371 3.540219,-2.1801268 5.772209,-2.1895946 5.507845,-0.023364 11.276533,0.2073443 16.679918,0.2528626 1.567621,0.013206 3.175778,0.034158 4.816348,0.06446 m -14.93152,0.049471 c 7.643566,-0.101646 15.655086,0.2555925 23.636002,0.7688815 7.984337,0.513508 15.48652,-0.250944 23.11458,-0.7437503 l 3e-6,-2e-7 c 7.01453,-0.4531694 14.078913,0.1347965 20.83626,0.6099365 m -16.605788,0.346554 c 7.55401,0.186828 15.462256,-0.316868 23.061118,-0.9627405 l 0,10e-8 c 7.60212,-0.646149 15.55318,0.1679274 23.32708,0.5062504 1.32733,0.05776 2.65008,0.09582 3.96826,0.119266 m -25.19743,-0.206895 c 7.88488,-0.0999 15.85013,-0.128232 24.24194,-0.3811215 l 0,0 c 8.39541,-0.2529981 15.23001,-0.076162 22.36458,-0.2374999 l 0,-10e-8 c 0.99242,-0.022442 2.01406,-0.034645 3.05971,-0.037898 m -24.56026,0.3158165 c 7.7456,-0.1600768 15.85104,-0.00409 24.23587,-0.00604 l 1e-5,0 c 8.38843,-0.00196 15.40731,-0.028369 22.90208,-0.0875 3.46661,-0.02735 7.08586,-0.03176 10.77448,-0.0306 m -15.10858,-0.047316 c 7.8116,0.162218 15.23923,0.07695 22.39829,0.2247917 l 0,0 c 7.16213,0.147904 15.64484,0.305005 23.60208,0.91875 5.77863,0.445707 11.43164,0.130751 17.16295,-0.244174 M 205.521,10.220248 c 7.77261,-0.04996 15.8378,-0.0837 24.19833,-0.2561855 l 10e-6,0 c 8.36411,-0.172561 15.28772,-0.1758006 22.53957,-0.5374998 l 1e-5,-2e-7 c 7.22947,-0.3605828 15.54479,0.3278958 23.38551,1.0000065 m -25.7656,0.464318 c 7.57715,0.203658 15.7793,-0.08384 24.01734,-0.256512 l 0,0 c 8.24158,-0.172746 15.68817,-0.432991 23.72708,-1.2875 1.07079,-0.1138204 2.12921,-0.1950328 3.17714,-0.2497079 5.16999,-0.2697404 9.2203,3.9043149 9.60012,9.1289499 m -26.75079,-8.063408 c 5.75434,0.118135 11.40806,-0.03142 17.09907,-0.2551796 2.22131,-0.087338 4.27517,0.5325596 5.95269,1.6492476 2.52058,1.677898 4.11887,4.586591 4.06453,7.924366 -0.0759,4.662173 -0.22957,9.416746 -0.40195,14.043215 -0.17821,4.782998 -0.0719,9.76642 0.11776,14.928511 m -0.73546,-28.544866 c 0.002,0.138038 0.002,0.276685 -0.001,0.41589 -0.16975,7.783193 0.0503,15.219247 0.11593,22.76963 0.0482,5.546825 -0.0322,11.128689 -0.16256,16.646398 -0.0529,2.240835 -0.8645,4.291623 -2.19767,5.910383 -0.82319,0.999543 -1.83034,1.848832 -2.9701,2.489734 m 5.07899,-17.955382 c 0.0795,3.596558 0.099,7.050274 0.10763,10.422802 0.0113,4.389301 -3.00671,7.957292 -7.08639,8.892875 -0.88485,0.202918 -1.8253,0.297366 -2.80266,0.262841 -6.7476,-0.238353 -13.61429,0.18941 -20.35452,0.261826 -5.96217,0.06406 -11.92493,0.147591 -17.76648,0.360755 m 25.45019,-0.709048 c -7.51455,0.11229 -15.50931,0.03602 -23.19241,0.118605 -7.6864,0.08262 -15.69973,0.170897 -23.76458,0.51875 l -1e-5,10e-7 c -5.97019,0.257506 -11.78145,-0.07149 -17.78218,-0.566731 m 20.99943,0.848248 c -7.812,0.207472 -15.7113,-0.484796 -23.81703,-1.450267 l 0,0 c -8.10921,-0.965886 -15.64524,0.154854 -23.59583,0.456249 l 0,10e-7 c -2.27989,0.08643 -4.54222,0.136818 -6.79902,0.172644 m 21.16745,0.964521 c -7.9511,-0.2599 -15.48561,-0.04798 -23.14186,-0.143415 -7.65953,-0.09547 -15.7837,-0.02905 -24.02083,-0.08125 l 0,-10e-7 c -5.95292,-0.03772 -11.35464,-0.04894 -16.72908,-0.09335 m 28.21739,0.44195 c -7.54544,0.128889 -15.16378,-0.0014 -22.15488,-0.0064 -6.9941,-0.0051 -15.77191,-0.260611 -23.98333,-0.78125 l 0,0 c -2.41242,-0.152957 -4.76359,-0.206558 -7.08622,-0.200682 m 16.39685,0.975768 c -7.99715,0.06651 -15.86708,-0.01019 -24.27305,-0.04384 l 0,0 c -8.40957,-0.03366 -15.163359,-0.145633 -22.145826,-0.425 l -3e-6,0 c -1.437671,-0.05752 -2.955197,-0.09083 -4.531771,-0.107358 m 15.59263,0.166634 c -7.74348,-0.07689 -15.801011,0.03743 -24.079626,0.125099 -8.282164,0.0877 -15.461704,-0.36685 -23.045831,-1.1 l -3e-6,0 c -3.26798,-0.315912 -6.558073,-0.327261 -9.824168,-0.210781 m 19.751404,0.17002 C 57.5156,69.319025 49.772839,69.639203 42.016684,70.05625 34.875879,70.44021 27.396098,69.945074 19.622838,69.544971 18.936006,69.509618 18.262178,69.417672 17.606197,69.27441 12.545435,68.169167 9.1831803,64.165328 9.5375431,59.356109 9.6788176,57.438807 9.8479854,55.528827 10.010513,53.606387 m 15.089425,16.483912 c -1.89341,-0.05983 -3.757597,-0.07798 -5.602256,-0.06451 -5.562095,0.04062 -9.8972099,-4.127575 -9.8265385,-9.345358 0.0089,-0.656929 0.016612,-1.313432 0.022607,-1.970066 C 9.7603853,51.411001 9.9933237,42.889492 10.6,34.577033 l 0,-2e-6 c 0.372265,-5.10064 0.278592,-9.730853 0.141761,-14.258952 -0.05418,-1.792859 0.407763,-3.450678 1.271464,-4.856277 M 9.6106886,39.208588 c -0.1549894,-6.127575 -0.024528,-12.618611 0.094031,-19.261839 0.03052,-1.710166 0.4327538,-3.333701 1.1218078,-4.788386 1.685269,-3.557832 5.144104,-5.7887248 9.186648,-5.6052163 4.197611,0.1905477 8.448918,0.5409373 12.803193,0.7968533 4.570145,0.268604 8.727787,0.165373 12.737123,-0.06386 M 310,37.425276 v 8.042969 M 60.948797,70 h -7.175781" />
    <text
       xml:space="preserve"
       style="font-size:26.6667px;font-family:Quicksand;-inkscape-font-specification:'Quicksand, Normal';text-align:center;text-anchor:middle;fill:#000000;stroke:none;stroke-linecap:round;stroke-linejoin:round"
       x="159.17334"
       y="47.200008"
       id="text3"><tspan
         sodipodi:role="line"
         id="tspan3"
         x="159.17334"
         y="47.200008">Node.js-Dienst</tspan></text>
  </g>
</svg>
