<?xml version="1.0" encoding="UTF-8" standalone="no"?>
<svg
   height="140"
   width="140"
   version="1.1"
   id="svg34"
   sodipodi:docname="structure-metropolis.svg"
   inkscape:version="1.3.2 (091e20ef0f, 2023-11-25, custom)"
   xmlns:inkscape="http://www.inkscape.org/namespaces/inkscape"
   xmlns:sodipodi="http://sodipodi.sourceforge.net/DTD/sodipodi-0.dtd"
   xmlns:xlink="http://www.w3.org/1999/xlink"
   xmlns="http://www.w3.org/2000/svg"
   xmlns:svg="http://www.w3.org/2000/svg">
  <sodipodi:namedview
     id="namedview34"
     pagecolor="#ffffff"
     bordercolor="#000000"
     borderopacity="0.25"
     inkscape:showpageshadow="2"
     inkscape:pageopacity="0.0"
     inkscape:pagecheckerboard="0"
     inkscape:deskcolor="#d1d1d1"
     inkscape:zoom="2.8284271"
     inkscape:cx="45.608388"
     inkscape:cy="35.355339"
     inkscape:window-width="1440"
     inkscape:window-height="831"
     inkscape:window-x="0"
     inkscape:window-y="0"
     inkscape:window-maximized="1"
     inkscape:current-layer="svg34" />
  <defs
     id="defs29">
    <inkscape:path-effect
       effect="sketch"
       id="path-effect225"
       is_visible="true"
       lpeversion="1"
       nbiter_approxstrokes="3"
       parallel_offset="0.2;1"
       strokelength="70"
       strokelength_rdm="0.3;1"
       strokeoverlap="0.5"
       strokeoverlap_rdm="0.5;1"
       ends_tolerance="0.1;1"
       tremble_size="0.8;1"
       tremble_frequency="3"
       nbtangents="2"
       tgt_places_rdmness="0.5;1"
       tgtlength="5"
       tgtlength_rdm="0.3;1"
       tgtscale="10" />
    <inkscape:path-effect
       effect="sketch"
       id="path-effect224"
       is_visible="true"
       lpeversion="1"
       nbiter_approxstrokes="3"
       parallel_offset="0.3;1829518752"
       strokelength="60"
       strokelength_rdm="0.3;1182793726"
       strokeoverlap="0.5"
       strokeoverlap_rdm="0.2;515477693"
       ends_tolerance="0.1;1"
       tremble_size="0.8;1"
       tremble_frequency="2"
       nbtangents="2"
       tgt_places_rdmness="0.5;1"
       tgtlength="1"
       tgtlength_rdm="0.3;1"
       tgtscale="10" />
    <g
       id="building0">
      <!-- Draw the wall. -->
      <polygon
         fill="#cccccc"
         points="6,-22 -6,-22 -6,0 6,0 "
         stroke="#000000"
         stroke-width="1"
         vector-effect="non-scaling-stroke"
         id="polygon1" />
      <!-- Draw the roof. -->
      <polygon
         fill="#999966"
         points="6,-26 -6,-26 -6,-22 6,-22 "
         stroke="#000000"
         stroke-width="1"
         vector-effect="non-scaling-stroke"
         id="polygon2" />
      <!-- Draw the floors. -->
      <g
         transform="translate(0,-15)"
         id="g2">
        <use
           xlink:href="#floor"
           id="use2" />
      </g>
      <g
         transform="translate(0,-11)"
         id="g3">
        <use
           xlink:href="#floor"
           id="use3" />
      </g>
      <g
         transform="translate(0,-7)"
         id="g4">
        <use
           xlink:href="#floor"
           id="use4" />
      </g>
    </g>
    <g
       id="building1">
      <!-- Draw the wall. -->
      <polygon
         fill="#cccccc"
         points="8,-34 -8,-34 -8,0 8,0 "
         stroke="#000000"
         stroke-width="1"
         vector-effect="non-scaling-stroke"
         id="polygon4" />
      <!-- Draw the floors. -->
      <g
         transform="translate(0,-27)"
         id="g5">
        <use
           xlink:href="#floor"
           id="use5" />
      </g>
      <g
         transform="translate(0,-23)"
         id="g6">
        <use
           xlink:href="#floor"
           id="use6" />
      </g>
      <g
         transform="translate(0,-19)"
         id="g7">
        <use
           xlink:href="#floor"
           id="use7" />
      </g>
      <g
         transform="translate(0,-15)"
         id="g8">
        <use
           xlink:href="#floor"
           id="use8" />
      </g>
      <g
         transform="translate(0,-11)"
         id="g9">
        <use
           xlink:href="#floor"
           id="use9" />
      </g>
      <g
         transform="translate(0,-7)"
         id="g10">
        <use
           xlink:href="#floor"
           id="use10" />
      </g>
    </g>
    <g
       id="building2">
      <!-- Draw the wall. -->
      <polygon
         fill="#cccccc"
         points="6,-50 -6,-46 -6,0 6,0 "
         stroke="#000000"
         stroke-width="1"
         vector-effect="non-scaling-stroke"
         id="polygon10" />
      <!-- Draw the floors. -->
      <g
         transform="translate(0,-39)"
         id="g11">
        <use
           xlink:href="#floor"
           id="use11" />
      </g>
      <g
         transform="translate(0,-35)"
         id="g12">
        <use
           xlink:href="#floor"
           id="use12" />
      </g>
      <g
         transform="translate(0,-31)"
         id="g13">
        <use
           xlink:href="#floor"
           id="use13" />
      </g>
      <g
         transform="translate(0,-27)"
         id="g14">
        <use
           xlink:href="#floor"
           id="use14" />
      </g>
      <g
         transform="translate(0,-23)"
         id="g15">
        <use
           xlink:href="#floor"
           id="use15" />
      </g>
      <g
         transform="translate(0,-19)"
         id="g16">
        <use
           xlink:href="#floor"
           id="use16" />
      </g>
      <g
         transform="translate(0,-15)"
         id="g17">
        <use
           xlink:href="#floor"
           id="use17" />
      </g>
      <g
         transform="translate(0,-11)"
         id="g18">
        <use
           xlink:href="#floor"
           id="use18" />
      </g>
      <g
         transform="translate(0,-7)"
         id="g19">
        <use
           xlink:href="#floor"
           id="use19" />
      </g>
    </g>
    <g
       id="building3">
      <!-- Draw the wall. -->
      <polygon
         fill="#cccccc"
         points="8,-30 -8,-30 -8,0 8,0 "
         stroke="#000000"
         stroke-width="1"
         vector-effect="non-scaling-stroke"
         id="polygon19" />
      <!-- Draw the floors. -->
      <g
         transform="translate(0,-23)"
         id="g20">
        <use
           xlink:href="#floor"
           id="use20" />
      </g>
      <g
         transform="translate(0,-19)"
         id="g21">
        <use
           xlink:href="#floor"
           id="use21" />
      </g>
      <g
         transform="translate(0,-15)"
         id="g22">
        <use
           xlink:href="#floor"
           id="use22" />
      </g>
      <g
         transform="translate(0,-11)"
         id="g23">
        <use
           xlink:href="#floor"
           id="use23" />
      </g>
      <g
         transform="translate(0,-7)"
         id="g24">
        <use
           xlink:href="#floor"
           id="use24" />
      </g>
    </g>
    <g
       id="building4">
      <!-- Draw the wall. -->
      <polygon
         fill="#cccccc"
         points="6,-26 -6,-22 -6,0 6,0 "
         stroke="#000000"
         stroke-width="1"
         vector-effect="non-scaling-stroke"
         id="polygon24" />
      <!-- Draw the roof. -->
      <polygon
         fill="#999966"
         points="6,-30 -6,-26 -6,-22 6,-26 "
         stroke="#000000"
         stroke-width="1"
         vector-effect="non-scaling-stroke"
         id="polygon25" />
      <!-- Draw the floors. -->
      <g
         transform="translate(0,-15)"
         id="g25">
        <use
           xlink:href="#floor"
           id="use25" />
      </g>
      <g
         transform="translate(0,-11)"
         id="g26">
        <use
           xlink:href="#floor"
           id="use26" />
      </g>
      <g
         transform="translate(0,-7)"
         id="g27">
        <use
           xlink:href="#floor"
           id="use27" />
      </g>
    </g>
    <g
       id="floor">
      <g
         transform="translate(-2)"
         id="g28">
        <use
           xlink:href="#window"
           id="use28" />
      </g>
      <g
         transform="translate(2)"
         id="g29">
        <use
           xlink:href="#window"
           id="use29" />
      </g>
    </g>
    <g
       id="window">
      <polygon
         fill="#444466"
         points="1.2,-1.2 -1.2,-1.2 -1.2,1.2 1.2,1.2 "
         id="polygon29" />
    </g>
    <inkscape:path-effect
       effect="sketch"
       id="path-effect1"
       is_visible="true"
       lpeversion="1"
       nbiter_approxstrokes="3"
       parallel_offset="2;1"
       strokelength="70"
       strokelength_rdm="0.3;1"
       strokeoverlap="0.5"
       strokeoverlap_rdm="0.5;1"
       ends_tolerance="0.1;1"
       tremble_size="0.3;2139095038"
       tremble_frequency="3"
       nbtangents="2"
       tgt_places_rdmness="0.5;1"
       tgtlength="5"
       tgtlength_rdm="0.3;1"
       tgtscale="10" />
  </defs>
  <g
     id="g226"
     transform="matrix(1.7472627,0,0,1.7472627,-0.03899587,-0.46046062)"
     style="stroke-width:0.57232378;stroke-dasharray:none">
    <g
       id="g224"
       transform="matrix(1.1292939,0,0,1.1292939,-5.1748164,9.4638996)"
       style="stroke-width:0.50679791;stroke-dasharray:none">
      <path
         id="polygon34"
         transform="translate(12,52)"
         style="fill:#cccccc;stroke:none;stroke-width:0.50679791;stroke-dasharray:none"
         d="M 6,-22 H -6 V 0 H 6 Z" />
      <path
         id="polygon35"
         transform="translate(12,52)"
         style="fill:#999966;stroke:none;stroke-width:0.50679791;stroke-dasharray:none"
         d="M 6,-26 H -6 v 4 H 6 Z" />
      <path
         id="polygon143"
         transform="translate(10,37)"
         style="fill:#444466;stroke:none;stroke-width:0.50679791;stroke-dasharray:none"
         d="M 1.2,-1.2 H -1.2 V 1.2 H 1.2 Z" />
      <path
         id="polygon136"
         transform="translate(14,37)"
         style="fill:#444466;stroke:none;stroke-width:0.50679791;stroke-dasharray:none"
         d="M 1.2,-1.2 H -1.2 V 1.2 H 1.2 Z" />
      <path
         id="polygon147"
         transform="translate(10,41)"
         style="fill:#444466;stroke:none;stroke-width:0.50679791;stroke-dasharray:none"
         d="M 1.2,-1.2 H -1.2 V 1.2 H 1.2 Z" />
      <path
         id="polygon131"
         transform="translate(14,41)"
         style="fill:#444466;stroke:none;stroke-width:0.50679791;stroke-dasharray:none"
         d="M 1.2,-1.2 H -1.2 V 1.2 H 1.2 Z" />
      <path
         id="polygon122"
         transform="translate(10,45)"
         style="fill:#444466;stroke:none;stroke-width:0.50679791;stroke-dasharray:none"
         d="M 1.2,-1.2 H -1.2 V 1.2 H 1.2 Z" />
      <path
         id="polygon120"
         transform="translate(14,45)"
         style="fill:#444466;stroke:none;stroke-width:0.50679791;stroke-dasharray:none"
         d="M 1.2,-1.2 H -1.2 V 1.2 H 1.2 Z" />
      <path
         id="polygon38"
         transform="translate(26,52)"
         style="fill:#cccccc;stroke:none;stroke-width:0.50679791;stroke-dasharray:none"
         d="M 8,-34 H -8 V 0 H 8 Z" />
      <path
         id="polygon146"
         transform="translate(24,25)"
         style="fill:#444466;stroke:none;stroke-width:0.50679791;stroke-dasharray:none"
         d="M 1.2,-1.2 H -1.2 V 1.2 H 1.2 Z" />
      <path
         id="polygon145"
         transform="translate(28,25)"
         style="fill:#444466;stroke:none;stroke-width:0.50679791;stroke-dasharray:none"
         d="M 1.2,-1.2 H -1.2 V 1.2 H 1.2 Z" />
      <path
         id="polygon165"
         transform="translate(24,29)"
         style="fill:#444466;stroke:none;stroke-width:0.50679791;stroke-dasharray:none"
         d="M 1.2,-1.2 H -1.2 V 1.2 H 1.2 Z" />
      <path
         id="polygon114"
         transform="translate(28,29)"
         style="fill:#444466;stroke:none;stroke-width:0.50679791;stroke-dasharray:none"
         d="M 1.2,-1.2 H -1.2 V 1.2 H 1.2 Z" />
      <path
         id="polygon158"
         transform="translate(24,33)"
         style="fill:#444466;stroke:none;stroke-width:0.50679791;stroke-dasharray:none"
         d="M 1.2,-1.2 H -1.2 V 1.2 H 1.2 Z" />
      <path
         id="polygon125"
         transform="translate(28,33)"
         style="fill:#444466;stroke:none;stroke-width:0.50679791;stroke-dasharray:none"
         d="M 1.2,-1.2 H -1.2 V 1.2 H 1.2 Z" />
      <path
         id="polygon156"
         transform="translate(24,37)"
         style="fill:#444466;stroke:none;stroke-width:0.50679791;stroke-dasharray:none"
         d="M 1.2,-1.2 H -1.2 V 1.2 H 1.2 Z" />
      <path
         id="polygon128"
         transform="translate(28,37)"
         style="fill:#444466;stroke:none;stroke-width:0.50679791;stroke-dasharray:none"
         d="M 1.2,-1.2 H -1.2 V 1.2 H 1.2 Z" />
      <path
         id="polygon149"
         transform="translate(24,41)"
         style="fill:#444466;stroke:none;stroke-width:0.50679791;stroke-dasharray:none"
         d="M 1.2,-1.2 H -1.2 V 1.2 H 1.2 Z" />
      <path
         id="polygon160"
         transform="translate(28,41)"
         style="fill:#444466;stroke:none;stroke-width:0.50679791;stroke-dasharray:none"
         d="M 1.2,-1.2 H -1.2 V 1.2 H 1.2 Z" />
      <path
         id="polygon138"
         transform="translate(24,45)"
         style="fill:#444466;stroke:none;stroke-width:0.50679791;stroke-dasharray:none"
         d="M 1.2,-1.2 H -1.2 V 1.2 H 1.2 Z" />
      <path
         id="polygon141"
         transform="translate(28,45)"
         style="fill:#444466;stroke:none;stroke-width:0.50679791;stroke-dasharray:none"
         d="M 1.2,-1.2 H -1.2 V 1.2 H 1.2 Z" />
      <path
         id="polygon44"
         transform="translate(40,52)"
         style="fill:#cccccc;stroke:none;stroke-width:0.50679791;stroke-dasharray:none"
         d="m 6,-50 -12,4 V 0 H 6 Z" />
      <path
         id="polygon150"
         transform="translate(38,13)"
         style="fill:#444466;stroke:none;stroke-width:0.50679791;stroke-dasharray:none"
         d="M 1.2,-1.2 H -1.2 V 1.2 H 1.2 Z" />
      <path
         id="polygon155"
         transform="translate(42,13)"
         style="fill:#444466;stroke:none;stroke-width:0.50679791;stroke-dasharray:none"
         d="M 1.2,-1.2 H -1.2 V 1.2 H 1.2 Z" />
      <path
         id="polygon117"
         transform="translate(38,17)"
         style="fill:#444466;stroke:none;stroke-width:0.50679791;stroke-dasharray:none"
         d="M 1.2,-1.2 H -1.2 V 1.2 H 1.2 Z" />
      <path
         id="polygon144"
         transform="translate(42,17)"
         style="fill:#444466;stroke:none;stroke-width:0.50679791;stroke-dasharray:none"
         d="M 1.2,-1.2 H -1.2 V 1.2 H 1.2 Z" />
      <path
         id="polygon162"
         transform="translate(38,21)"
         style="fill:#444466;stroke:none;stroke-width:0.50679791;stroke-dasharray:none"
         d="M 1.2,-1.2 H -1.2 V 1.2 H 1.2 Z" />
      <path
         id="polygon153"
         transform="translate(42,21)"
         style="fill:#444466;stroke:none;stroke-width:0.50679791;stroke-dasharray:none"
         d="M 1.2,-1.2 H -1.2 V 1.2 H 1.2 Z" />
      <path
         id="polygon152"
         transform="translate(38,25)"
         style="fill:#444466;stroke:none;stroke-width:0.50679791;stroke-dasharray:none"
         d="M 1.2,-1.2 H -1.2 V 1.2 H 1.2 Z" />
      <path
         id="polygon123"
         transform="translate(42,25)"
         style="fill:#444466;stroke:none;stroke-width:0.50679791;stroke-dasharray:none"
         d="M 1.2,-1.2 H -1.2 V 1.2 H 1.2 Z" />
      <path
         id="polygon161"
         transform="translate(38,29)"
         style="fill:#444466;stroke:none;stroke-width:0.50679791;stroke-dasharray:none"
         d="M 1.2,-1.2 H -1.2 V 1.2 H 1.2 Z" />
      <path
         id="polygon137"
         transform="translate(42,29)"
         style="fill:#444466;stroke:none;stroke-width:0.50679791;stroke-dasharray:none"
         d="M 1.2,-1.2 H -1.2 V 1.2 H 1.2 Z" />
      <path
         id="polygon121"
         transform="translate(38,33)"
         style="fill:#444466;stroke:none;stroke-width:0.50679791;stroke-dasharray:none"
         d="M 1.2,-1.2 H -1.2 V 1.2 H 1.2 Z" />
      <path
         id="polygon119"
         transform="translate(42,33)"
         style="fill:#444466;stroke:none;stroke-width:0.50679791;stroke-dasharray:none"
         d="M 1.2,-1.2 H -1.2 V 1.2 H 1.2 Z" />
      <path
         id="polygon140"
         transform="translate(38,37)"
         style="fill:#444466;stroke:none;stroke-width:0.50679791;stroke-dasharray:none"
         d="M 1.2,-1.2 H -1.2 V 1.2 H 1.2 Z" />
      <path
         id="polygon116"
         transform="translate(42,37)"
         style="fill:#444466;stroke:none;stroke-width:0.50679791;stroke-dasharray:none"
         d="M 1.2,-1.2 H -1.2 V 1.2 H 1.2 Z" />
      <path
         id="polygon133"
         transform="translate(38,41)"
         style="fill:#444466;stroke:none;stroke-width:0.50679791;stroke-dasharray:none"
         d="M 1.2,-1.2 H -1.2 V 1.2 H 1.2 Z" />
      <path
         id="polygon118"
         transform="translate(42,41)"
         style="fill:#444466;stroke:none;stroke-width:0.50679791;stroke-dasharray:none"
         d="M 1.2,-1.2 H -1.2 V 1.2 H 1.2 Z" />
      <path
         id="polygon157"
         transform="translate(38,45)"
         style="fill:#444466;stroke:none;stroke-width:0.50679791;stroke-dasharray:none"
         d="M 1.2,-1.2 H -1.2 V 1.2 H 1.2 Z" />
      <path
         id="polygon163"
         transform="translate(42,45)"
         style="fill:#444466;stroke:none;stroke-width:0.50679791;stroke-dasharray:none"
         d="M 1.2,-1.2 H -1.2 V 1.2 H 1.2 Z" />
      <path
         id="polygon53"
         transform="translate(54,52)"
         style="fill:#cccccc;stroke:none;stroke-width:0.50679791;stroke-dasharray:none"
         d="M 8,-30 H -8 V 0 H 8 Z" />
      <path
         id="polygon139"
         transform="translate(52,29)"
         style="fill:#444466;stroke:none;stroke-width:0.50679791;stroke-dasharray:none"
         d="M 1.2,-1.2 H -1.2 V 1.2 H 1.2 Z" />
      <path
         id="polygon142"
         transform="translate(56,29)"
         style="fill:#444466;stroke:none;stroke-width:0.50679791;stroke-dasharray:none"
         d="M 1.2,-1.2 H -1.2 V 1.2 H 1.2 Z" />
      <path
         id="polygon151"
         transform="translate(52,33)"
         style="fill:#444466;stroke:none;stroke-width:0.50679791;stroke-dasharray:none"
         d="M 1.2,-1.2 H -1.2 V 1.2 H 1.2 Z" />
      <path
         id="polygon124"
         transform="translate(56,33)"
         style="fill:#444466;stroke:none;stroke-width:0.50679791;stroke-dasharray:none"
         d="M 1.2,-1.2 H -1.2 V 1.2 H 1.2 Z" />
      <path
         id="polygon134"
         transform="translate(52,37)"
         style="fill:#444466;stroke:none;stroke-width:0.50679791;stroke-dasharray:none"
         d="M 1.2,-1.2 H -1.2 V 1.2 H 1.2 Z" />
      <path
         id="polygon135"
         transform="translate(56,37)"
         style="fill:#444466;stroke:none;stroke-width:0.50679791;stroke-dasharray:none"
         d="M 1.2,-1.2 H -1.2 V 1.2 H 1.2 Z" />
      <path
         id="polygon130"
         transform="translate(52,41)"
         style="fill:#444466;stroke:none;stroke-width:0.50679791;stroke-dasharray:none"
         d="M 1.2,-1.2 H -1.2 V 1.2 H 1.2 Z" />
      <path
         id="polygon129"
         transform="translate(56,41)"
         style="fill:#444466;stroke:none;stroke-width:0.50679791;stroke-dasharray:none"
         d="M 1.2,-1.2 H -1.2 V 1.2 H 1.2 Z" />
      <path
         id="polygon154"
         transform="translate(52,45)"
         style="fill:#444466;stroke:none;stroke-width:0.50679791;stroke-dasharray:none"
         d="M 1.2,-1.2 H -1.2 V 1.2 H 1.2 Z" />
      <path
         id="polygon148"
         transform="translate(56,45)"
         style="fill:#444466;stroke:none;stroke-width:0.50679791;stroke-dasharray:none"
         d="M 1.2,-1.2 H -1.2 V 1.2 H 1.2 Z" />
      <path
         id="polygon58"
         transform="translate(68,52)"
         style="fill:#cccccc;stroke:none;stroke-width:0.50679791;stroke-dasharray:none"
         d="m 6,-26 -12,4 V 0 H 6 Z" />
      <path
         id="polygon59"
         transform="translate(68,52)"
         style="fill:#999966;stroke:none;stroke-width:0.50679791;stroke-dasharray:none"
         d="m 6,-30 -12,4 v 4 l 12,-4 z" />
      <path
         id="polygon164"
         transform="translate(66,37)"
         style="fill:#444466;stroke:none;stroke-width:0.50679791;stroke-dasharray:none"
         d="M 1.2,-1.2 H -1.2 V 1.2 H 1.2 Z" />
      <path
         id="polygon132"
         transform="translate(70,37)"
         style="fill:#444466;stroke:none;stroke-width:0.50679791;stroke-dasharray:none"
         d="M 1.2,-1.2 H -1.2 V 1.2 H 1.2 Z" />
      <path
         id="polygon115"
         transform="translate(66,41)"
         style="fill:#444466;stroke:none;stroke-width:0.50679791;stroke-dasharray:none"
         d="M 1.2,-1.2 H -1.2 V 1.2 H 1.2 Z" />
      <path
         id="polygon159"
         transform="translate(70,41)"
         style="fill:#444466;stroke:none;stroke-width:0.50679791;stroke-dasharray:none"
         d="M 1.2,-1.2 H -1.2 V 1.2 H 1.2 Z" />
      <path
         id="polygon127"
         transform="translate(66,45)"
         style="fill:#444466;stroke:none;stroke-width:0.50679791;stroke-dasharray:none"
         d="M 1.2,-1.2 H -1.2 V 1.2 H 1.2 Z" />
      <path
         id="polygon126"
         transform="translate(70,45)"
         style="fill:#444466;stroke:none;stroke-width:0.50679791;stroke-dasharray:none"
         d="M 1.2,-1.2 H -1.2 V 1.2 H 1.2 Z" />
    </g>
    <g
       id="g225"
       transform="translate(0,100)"
       style="stroke-width:0.57232378;stroke-dasharray:none">
      <path
         id="path217"
         style="fill:none;stroke:#000000;stroke-width:0.57232378;stroke-dasharray:none;stroke-opacity:1"
         d="m 74.365754,-63.405611 c -2.975266,0.949881 -6.045061,1.962326 -9.158939,2.997492 -0.01895,1.510742 -0.04742,3.026393 -0.08035,4.542953 2.807661,-0.936173 5.597275,-1.868671 8.410101,-2.830079 1.608339,-0.549722 3.225632,-1.105259 4.846744,-1.666853 -0.01926,-1.517754 -0.03563,-3.040085 -0.05249,-4.567149 -4.357757,1.371301 -8.719937,2.699569 -13.178984,3.980486 -0.217676,0.06253 -0.434802,0.125534 -0.651397,0.188995 -0.04311,1.460731 -0.0617,2.942517 -0.06151,4.439636 1.411215,-0.478846 2.840747,-0.942731 4.283053,-1.397173 m 2.901688,-5.765516 c -2.509368,0.780843 -4.963535,1.556814 -7.386885,2.3186 0.0058,1.476785 0.02225,2.948682 0.04437,4.413806 3.568192,-1.271133 7.170797,-2.583247 10.734386,-3.964387 1.017623,-0.3944 2.033047,-0.770046 3.047024,-1.130288 0.01506,-1.54242 0.02719,-3.053622 0.03855,-4.543279 -4.481234,1.556539 -8.970079,3.328542 -13.397874,5.010189 0.0085,0.469587 0.01755,0.938358 0.02722,1.406048 0.02247,1.087356 0.04059,2.167146 0.05565,3.241258 0.133275,-0.04097 0.266497,-0.08204 0.399669,-0.123208 m 7.230867,-6.926939 c -2.697983,0.833326 -5.309853,1.683959 -7.85704,2.533292 0.05063,1.488997 0.120176,2.977613 0.205261,4.462905 3.503187,-1.149378 7.089593,-2.316567 10.717161,-3.538078 1.328606,-0.447382 2.610195,-0.870567 3.854319,-1.273127 0.03917,-1.504449 0.0262,-2.980197 -0.02323,-4.433109 -4.673481,1.672735 -9.711535,3.573838 -14.618378,5.517873 -0.01916,0.255656 -0.038,0.511416 -0.05647,0.767258 -0.100299,1.389682 -0.159928,2.729732 -0.186911,4.029646 0.534124,-0.169302 1.074944,-0.346835 1.621715,-0.531719 m 10.580049,-4.702669 c -4.241658,1.385793 -8.297945,2.746173 -12.253436,4.081684 0.15393,3.357654 0.368482,6.700352 0.604208,10.028347 0.339155,4.788209 0.272591,9.756159 0.200581,14.789002 2.849433,0.08709 5.696957,0.196914 8.625593,0.305657 1.645672,0.06111 3.272487,0.109242 4.883074,0.15246 -0.04478,-4.874387 -0.243632,-9.795469 -0.519667,-14.527701 m -12.790959,13.06919 c 0.01213,0.666217 0.02163,1.329494 0.02876,1.990007 4.566152,0.01871 9.020749,-0.09293 13.45048,-0.278234 -0.05032,-2.706115 -0.108877,-5.436624 -0.159147,-8.180724 -0.139001,-7.587619 -0.09557,-14.576722 -0.221593,-22.001654 -0.570111,0.167116 -1.141363,0.331296 -1.713951,0.491966 -4.048075,1.135904 -7.942714,2.529438 -11.763847,4.02448 0.0018,0.05726 0.0036,0.114544 0.0054,0.171841 m 10.5485,-2.494364 c -3.272547,1.166389 -6.654214,2.292208 -10.069728,3.398812 -0.02636,4.169196 -0.09936,8.311921 -0.09727,12.4627 0.002,4.037842 -0.06683,8.061891 -0.20696,12.033142 3.567378,-0.101665 7.076433,-0.246535 10.526884,-0.463483 0.768742,-0.04834 1.548783,-0.08819 2.338286,-0.121205 -0.06068,-1.549064 -0.09037,-3.075709 -0.09996,-4.589594 m -12.142827,4.293676 c 4.056427,0.0256 8.060382,0.158642 12.09199,0.42003 0.0752,-3.568069 0.176221,-7.016293 0.375365,-10.325813 0.310995,-5.16834 0.206299,-11.840405 0.240248,-18.613717 -1.707968,0.327858 -3.403161,0.646387 -5.07007,0.994817 -1.72548,0.360673 -3.489658,0.858604 -5.283184,1.45322 m 5.110777,-0.621967 c -2.776055,0.874251 -5.59115,1.78871 -8.439454,2.720357 -0.09961,4.839806 -0.289159,9.726161 -0.542656,14.556474 -0.180621,3.441654 -0.186029,6.858796 -0.122094,10.248298 4.412548,-0.07055 8.934713,-0.184797 13.35608,-0.348951 0.188823,-0.007 0.377585,-0.01359 0.566293,-0.01976 0.01299,-0.672477 0.02532,-1.339808 0.03725,-2.002516 m -9.764301,2.713043 c 3.524734,0.04916 7.009161,-0.01479 10.481682,-0.163041 -0.007,-4.479331 -0.03227,-9.087267 -0.02213,-13.7695 0.01295,-5.984366 -0.06182,-11.246208 -0.205239,-16.525311 -2.229156,0.811388 -4.470216,1.619783 -6.721802,2.371749 -2.436653,0.813773 -4.807132,1.636913 -7.138139,2.47899 0.0235,3.557866 0.124802,7.153056 0.230023,10.812052 m -6.833619,-19.766649 c -4.038802,0.02487 -8.008983,-0.01504 -11.896568,-0.09895 0.152821,3.643326 0.375197,7.249597 0.677928,10.834867 0.6162,7.297708 -0.249176,15.211899 -0.851645,22.965956 0.188843,0.0049 0.377879,0.0097 0.567143,0.01438 5.235731,0.129062 11.283638,0.01121 17.442488,-0.147909 m -17.696958,-8.423773 c 0.02851,3.111661 0.0269,6.213881 0.0091,9.293875 4.611214,-0.08411 9.186994,-0.216801 13.772248,-0.43938 1.369721,-0.06649 2.743336,-0.116974 4.119404,-0.157702 -0.04281,-6.580365 -0.03338,-12.953019 -0.113371,-19.732099 -0.04536,-3.844111 -0.01808,-7.456809 0.05349,-10.982085 m -0.306598,21.545711 c 0.01456,-7.868407 0.0089,-16.031917 0.01873,-24.766962 3.08e-4,-0.273186 7.36e-4,-0.544006 0.0013,-0.812548 -6.009233,-0.629141 -11.94309,0.139564 -17.785722,0.968603 0.04525,1.719821 0.09624,3.443443 0.153233,5.149716 0.205723,6.159118 0.189253,11.324668 0.252608,16.533648 m 11.588069,-22.087305 c -3.633427,0.10922 -7.350692,0.203463 -11.10225,0.358413 -0.04803,4.23663 -0.13732,8.54629 -0.20249,13.028836 -0.115803,7.965227 0.07199,14.46188 0.267686,21.403956 0.566456,-0.02169 1.132958,-0.04078 1.699374,-0.05643 4.059756,-0.112164 7.97587,-0.07689 11.832104,0.01799 M 47.02124,-38.807124 c 0.02556,2.528208 0.0421,5.086817 0.05838,7.658788 5.225831,-0.01891 10.450624,0.01626 15.745742,-0.03322 0.846132,-0.0079 1.689477,-0.01308 2.530604,-0.01581 0.09462,-6.970767 0.03381,-13.769623 0.152625,-20.559295 0.02739,-1.564942 0.03848,-3.147405 0.03676,-4.742844 m -1.197697,14.044401 c -0.0019,-7.432065 0.181349,-15.392954 0.545879,-23.601113 -0.228313,-0.02145 -0.456443,-0.04315 -0.684388,-0.06509 -5.494332,-0.528903 -11.545754,-0.324855 -17.672947,-0.261184 -0.118734,2.01676 -0.246483,4.016817 -0.363493,5.964328 -0.16932,2.818152 -0.198655,5.711696 -0.158243,8.652443 m 17.033788,-13.244344 c -5.459844,0.165019 -10.768954,0.130508 -15.997805,0.134304 0.08002,2.363911 0.175332,4.73512 0.280072,7.133404 l 1e-6,1e-6 c 0.344859,7.896403 0.06338,15.356268 0.187499,22.73333 l 0,2e-6 c 0.0184,1.093509 0.03086,2.20568 0.03863,3.332599 4.71838,-0.105647 9.359204,0.03242 14.00606,0.151129 M 46.804089,-45.482809 c 0.0616,4.523623 -0.03429,9.122725 -0.223247,13.793613 3.112884,0.10404 6.177823,0.245062 9.218635,0.421701 2.59701,0.15086 5.32836,0.142293 8.126511,0.032 0.04285,-5.202283 0.302949,-10.7354 0.384167,-16.260909 0.102096,-6.945895 0.05111,-12.790187 0.04456,-18.815282 -0.863548,0.03627 -1.726261,0.06914 -2.587628,0.0953 M 45.37861,-88.025669 c -3.729769,1.30671 -7.594816,2.671654 -11.496948,4.114766 -0.04648,3.860576 -0.124012,7.786603 -0.157361,11.793352 l 0,1e-6 c -0.06982,8.389085 -0.40085,15.648586 -1.2,23.60833 l 0,2e-6 c -0.59833,5.959523 -0.205701,11.71671 0.168125,17.502165 1.588827,-0.0097 3.176418,-0.01754 4.745757,-0.01963 M 32.913072,-61.36201 c -0.226588,7.52708 0.01065,15.574889 0.04404,23.411151 0.0077,1.801374 0.03088,3.606951 0.07075,5.419013 4.617925,0.06294 9.342232,0.167304 14.190977,0.349964 0.108153,-1.413858 0.229546,-2.819386 0.364806,-4.215305 0.332756,-3.434151 0.254929,-7.073407 -0.01797,-10.792597 m -5.718962,16.106785 c 1.684096,0.01979 3.355517,0.03294 5.019711,0.04203 0.07665,-6.096913 0.05275,-12.250501 0.210972,-18.328303 l 0,-3e-6 c 0.200726,-7.710541 -0.339583,-15.956779 -1.01875,-24.539581 -0.429008,-5.421495 -0.215242,-10.085379 0.125797,-14.598101 -0.502281,0.227186 -1.002842,0.456415 -1.502493,0.686734 m 1.657671,24.772469 c -0.213831,-7.676886 0.342117,-15.721993 1.031525,-23.848459 0.03963,-0.467123 0.07331,-0.932123 0.101449,-1.3952 -4.217398,1.33323 -9.064823,2.884817 -14.066065,4.414586 -0.261207,2.582343 -0.567202,5.158333 -0.843161,7.690233 -0.697686,6.401224 -0.04844,13.12244 0.491689,19.971574 M 43.59362,-86.322537 c -3.231709,1.063095 -6.437608,2.130763 -9.633948,3.199601 0.0084,4.399977 0.03311,8.801938 0.03807,13.198354 l 0,10e-7 c 0.0088,7.774316 -0.113634,15.352157 -0.331249,22.71458 l -10e-7,2e-6 c -0.143803,4.865216 -0.132973,10.085147 -0.157816,15.303532 2.166057,0.03333 4.325718,0.06638 6.464527,0.07209 m -6.22576,-27.039118 c -0.232797,7.712108 0.04379,15.583982 0.125299,23.417164 0.01157,1.111907 0.01608,2.229049 0.01422,3.35191 4.509573,0.07896 8.912539,0.253714 13.257005,0.557258 -0.08247,-2.012085 -0.178284,-3.994803 -0.282196,-5.944559 -0.315571,-5.921169 0.05534,-13.021941 0.438087,-19.967561 m -4.606951,25.629282 c 1.375019,-3.57e-4 2.751273,0.0014 4.129,0.0054 0.02466,-6.383448 0.0814,-12.719432 0.194551,-19.005179 l 0,-3e-6 c 0.13747,-7.636536 -0.210285,-15.64461 -0.6375,-23.595831 -0.254962,-4.745294 -0.09895,-9.367488 0.194638,-13.975049 -2.658615,0.971645 -5.259665,1.949414 -7.877152,2.903947 m 6.361844,-2.653663 c -3.783435,1.238309 -7.689412,2.48518 -11.718882,3.722373 -0.23496,3.765344 -0.581389,7.521952 -1.0401,11.254183 l 0,3e-6 c -0.941932,7.663883 0.468431,15.855446 1.39375,24.239578 l 0,2e-6 c 0.639445,5.793886 0.283771,10.868594 -0.14904,15.821884 m -0.352656,-26.45541 c -0.10401,7.581135 -0.07689,15.57908 -0.243617,23.411082 -0.02715,1.275555 -0.04178,2.556681 -0.04607,3.844092 4.501892,0.07574 9.135462,0.231463 13.801823,0.499569 0.06587,-1.876048 0.13813,-3.730188 0.208272,-5.559632 0.03805,-0.992399 0.06709,-2.014937 0.0893,-3.062384 m -4.417609,8.368775 c 1.224831,-0.03906 2.46249,-0.05533 3.710168,-0.05191 -0.06831,-6.495888 0.130765,-12.466371 0.210324,-18.338406 l 0,-3e-6 c 0.095,-7.011756 -0.158061,-15.741999 -0.475,-23.89583 -0.184604,-4.749281 -0.0783,-9.224613 0.131856,-13.650883 -0.293322,0.110262 -0.58611,0.220777 -0.878432,0.331461 m 1.352847,22.808037 c 0.01645,-7.791908 -0.139521,-15.582848 -0.421933,-23.499361 -0.02776,0.0083 -0.05553,0.01658 -0.0833,0.02487 -4.663568,1.392222 -9.146506,2.946475 -13.638354,4.545127 -9.06e-4,3.109943 -0.0055,6.238253 -0.06421,9.353631 -0.03721,1.974509 -0.05044,3.940267 -0.04647,5.905411 m -3.388182,-1.621895 c -4.829173,-0.149692 -9.446477,-0.05637 -13.941581,0.114706 0.160552,3.136735 0.370818,6.3051 0.607528,9.462216 l 0,2e-6 c 0.608095,8.110447 0.07938,15.391354 0.2375,22.84583 l 0,2e-6 c 0.04052,1.910413 0.02897,3.881106 -0.02669,5.895841 2.011312,0.02228 3.975092,0.09202 5.900243,0.191054 m -7.282693,-14.826742 c 0.11962,5.170109 0.238695,10.22406 0.516614,15.210439 2.784313,-0.07552 5.610684,-0.168923 8.500827,-0.273601 3.700169,-0.134017 7.087252,-0.185696 10.342725,-0.230608 -0.16396,-4.454572 -0.550353,-8.897708 -0.760447,-13.495448 -0.362712,-7.937675 -0.236457,-14.848562 -0.661148,-21.716579 m 0.605064,34.227955 c 0.128873,-7.772528 -0.02055,-15.738492 -0.06267,-23.892086 -0.02412,-4.66817 -0.0027,-9.1246 0.04136,-13.58045 -3.293728,-0.0036 -6.574774,-0.0068 -9.852655,-0.09784 -2.656668,-0.0738 -5.321269,-0.09171 -7.978983,-0.08055 0.01287,0.905026 0.02651,1.813299 0.04148,2.723817 m 11.429764,-3.246417 c -4.036087,-0.01164 -7.995886,-0.0025 -11.936556,0.01879 0.02145,3.831952 0.06059,7.675146 0.06658,11.521911 l 0,2e-6 c 0.01221,7.849795 0.07303,15.861623 0.231249,24.245831 0.0246,1.303711 0.04468,2.58091 0.06206,3.838463 2.616587,0.102675 5.220916,0.11598 7.830741,0.106546 m -8.217875,-13.709242 c -0.02994,4.346295 0.09642,8.750028 0.35236,13.224388 3.64424,0.111899 7.370189,0.268331 11.164477,0.475899 2.846973,0.155744 5.514438,0.215764 8.090101,0.231904 -0.01254,-5.163402 -0.39687,-10.504514 -0.438166,-15.600803 -0.0462,-5.700951 -0.09339,-11.556038 -0.221062,-17.380273 m 0.321289,27.231621 c 0.176449,-7.998889 -0.298025,-15.462322 -0.881477,-23.060544 -0.239858,-3.123626 -0.264572,-6.314693 -0.196176,-9.537169 -4.48366,-0.03785 -8.775973,-0.140252 -13.236447,-0.201042 -1.403059,-0.01912 -2.812917,-0.0365 -4.225627,-0.05408 0.09774,4.885066 0.161892,9.767786 0.351954,14.569726 m 11.922738,-15.664018 c -4.331474,0.02819 -8.733302,0.02845 -13.148113,0.029 -0.01807,3.383512 -0.04384,6.767194 -0.05109,10.163948 l 0,10e-7 c -0.01667,7.809196 0.378494,15.625178 1.14375,23.53958 l 0,2e-6 c 0.161143,1.666569 0.242659,3.316741 0.265887,4.954246 3.512746,-6.22e-4 6.7648,-0.0579 9.957985,-0.136539 M 15.130283,-46.686759 c -0.154037,4.813366 -0.0053,9.689277 0.262802,14.539183 3.046304,-0.02167 6.134293,-0.05243 9.226108,-0.110544 3.356442,-0.06309 6.513078,-0.0067 9.577818,0.139018 -0.104104,-4.427012 -0.409748,-8.658309 -0.56646,-12.792243 -0.202652,-5.345801 -0.03026,-11.803503 0.154654,-18.198603 m -0.0095,27.666712 c -0.118739,-7.520852 -0.284076,-15.584205 -0.837348,-23.42991 -0.269532,-3.822121 -0.194749,-7.652994 0.03144,-11.515758 -3.752057,-0.0794 -7.336041,-0.194196 -10.977559,-0.371459 -1.037216,-0.05049 -2.112409,-0.08118 -3.219196,-0.09529 m -5.842054,10.468528 c -3.9796715,-0.06636 -7.8337995,-0.142143 -11.6428685,-0.276479 0.023709,1.453458 0.05424,2.898052 0.086851,4.330889 2.4506637,-0.116116 4.9066076,-0.262071 7.3486667,-0.449563 2.1567459,-0.165587 4.2917419,-0.235893 6.4133559,-0.247879 0.0022,-1.514245 -0.0023,-2.999027 -0.01056,-4.467619 -4.17642,0.102434 -8.3814193,0.32807 -12.5519234,0.398322 -0.3650674,0.0061 -0.7301759,0.01171 -1.0953344,0.01673 -0.00651,1.526505 -0.013875,3.04365 -0.022722,4.554322 4.4906368,0.01484 8.9679504,-0.02858 13.4151014,-0.05232 -0.01611,-1.044616 -0.03381,-2.088191 -0.05332,-3.129775 m -0.677544,-1.304454 c -4.2877495,0.05645 -8.4831248,0.05589 -12.5675874,0.04958 0.077967,1.503519 0.1694865,3.006334 0.2753504,4.510635 2.0991004,-0.0019 4.2225361,-0.0012 6.3720571,0.0068 2.8013779,0.01046 5.4100279,0.01094 7.9058359,0.0046 -0.03544,-1.509479 -0.110037,-3.021337 -0.207465,-4.534937 -3.956538,-0.01943 -8.0521232,-0.04948 -12.0412474,-0.08056 -0.8599456,-0.0067 -1.7049169,-0.01234 -2.5367799,-0.01713 -0.057847,1.496708 -0.069384,2.996379 -0.047001,4.497522 4.5843245,-0.01375 9.4739253,-0.01425 14.3342483,-0.04178 7e-6,-9.3e-5 1.4e-5,-1.86e-4 2.1e-5,-2.78e-4 m -0.395344,-4.59301 c -4.385653,0.0034 -8.8301442,-0.05994 -13.3580006,-0.185777 -0.057183,1.462289 -0.1242978,2.917133 -0.2023545,4.364706 1.8076906,-0.07363 3.5978398,-0.158921 5.3683997,-0.25551 2.4244711,-0.132263 4.9575334,-0.172987 7.5362214,-0.166335 -0.01844,-1.501889 -0.02169,-2.988018 -0.02185,-4.466861 -3.66179,0.06537 -7.3052648,0.173819 -11.1041219,0.20352 -0.8879015,0.0069 -1.7646124,0.01602 -2.63131111,0.02747 -0.008471,0.672497 -0.0109222,1.346421 -0.007902,2.021878 m 10.34502371,3.138007 c -3.1844464,-0.04095 -6.309159,-0.0074 -9.4002224,0.08073 0.060281,4.77343 0.1945145,9.667011 0.3177139,14.616311 0.096559,3.879056 0.08774,7.478292 0.035641,10.956504 4.0797463,-0.18263 8.1034939,-0.521846 12.1626329,-0.783944 0.370871,-0.02395 0.741883,-0.04498 1.112984,-0.06328 -0.0898,-5.037797 -0.165241,-9.633315 -0.335057,-14.136447 M 4.6122585,-31.132879 c 3.5356568,0.08744 7.1488825,0.02339 10.7716805,-0.135628 -0.01822,-4.316335 -0.02408,-8.755323 -0.117402,-13.233952 -0.09355,-4.489742 -0.08802,-8.565126 -0.06306,-12.518976 -3.610033,0.168219 -7.2051512,0.429706 -10.8388959,0.587599 -0.8857227,0.03849 -1.7734634,0.06823 -2.6632253,0.09074 -0.028308,5.725287 -0.1370103,11.162765 -0.3268839,16.690835 M 12.732204,-56.293339 c -3.6982263,-0.0482 -7.377673,-0.07973 -10.9995375,-0.127872 0.1390327,3.971302 0.3442808,7.923498 0.663593,11.815532 0.3380152,4.120002 0.2083331,8.368852 -0.083825,12.620537 3.277781,-0.0057 6.4446048,-0.0094 9.6727234,-0.08235 0.915412,-0.02068 1.855685,-0.03265 2.81674,-0.03692 -0.03951,-1.072884 -0.0552,-2.136945 -0.05208,-3.193426 m -12.2244947,3.687957 c 4.1295964,-0.08535 8.3614307,-0.08089 12.6833867,-0.05841 0.154971,-3.609781 0.379041,-7.205734 0.664078,-10.836041 0.365341,-4.653095 0.2405,-9.315032 0.02066,-13.987514 -3.273468,-0.01375 -6.5898244,-0.03226 -9.8291873,-0.05605 -1.4419885,-0.01059 -2.8611721,-0.01774 -4.262358,-0.02247 -0.00647,0.917815 -0.00505,1.836695 0.00286,2.756347 m 12.6984353,-2.999294 c -4.069216,0.08531 -8.2447091,0.102324 -12.5095775,0.120706 -0.1587504,3.702257 -0.3901237,7.405628 -0.681741,11.161148 -0.36362688,4.682876 -0.2663792,9.36923 -0.088908,14.151235 3.3048518,0.128922 6.6481604,0.303697 9.9035874,0.554918 1.330666,0.102687 2.654681,0.165051 3.97453,0.195636 M 1.1634445,-31.678699 c -1.02e-5,0.04302 -1.14e-5,0.08604 -3.4e-6,0.129057 4.5180023,-0.02893 9.1346549,-0.05259 13.8507269,-0.101529 0.141514,-3.248789 0.333357,-6.51037 0.575806,-9.795739 0.382273,-5.18009 0.152546,-10.287935 -0.199318,-15.470045 -2.898449,-0.06129 -5.8318347,-0.143818 -8.7252153,-0.270005 -1.9289993,-0.08413 -3.799081,-0.111263 -5.6299734,-0.09489 -0.0440812,3.351959 0.044288,6.850974 0.1425298,10.413262 M 33.221176,-61.269898 v 8.042969 M 2.5101196,-56.547898 h 7.1757812"
         inkscape:path-effect="#path-effect225"
         inkscape:original-d="m 78.392932,-65.582249 -13.551527,4.517175 v 4.517176 l 13.551527,-4.517176 z m 0,4.517175 -13.551527,4.517176 v 24.844466 H 78.392932 Z M 64.841405,-65.582249 H 46.772703 v 33.878817 h 18.068702 z m -18.068702,-22.585878 -13.551527,4.517175 v 51.94752 H 46.772703 Z M 33.221176,-70.099425 H 15.152474 v 38.395993 h 18.068702 z m -18.068702,9.034351 H 1.600947 v 4.517176 h 13.551527 z m 0,4.517176 H 1.600947 v 24.844466 h 13.551527 z" />
    </g>
  </g>
</svg>
