<?xml version="1.0" encoding="UTF-8" standalone="no"?>
<svg
   height="140"
   width="140"
   version="1.1"
   id="svg9"
   sodipodi:docname="structure-factory.svg"
   inkscape:version="1.3.2 (091e20ef0f, 2023-11-25, custom)"
   xmlns:inkscape="http://www.inkscape.org/namespaces/inkscape"
   xmlns:sodipodi="http://sodipodi.sourceforge.net/DTD/sodipodi-0.dtd"
   xmlns:xlink="http://www.w3.org/1999/xlink"
   xmlns="http://www.w3.org/2000/svg"
   xmlns:svg="http://www.w3.org/2000/svg">
  <sodipodi:namedview
     id="namedview9"
     pagecolor="#ffffff"
     bordercolor="#000000"
     borderopacity="0.25"
     inkscape:showpageshadow="2"
     inkscape:pageopacity="0.0"
     inkscape:pagecheckerboard="0"
     inkscape:deskcolor="#d1d1d1"
     inkscape:zoom="1.3811733"
     inkscape:cx="-7.9642432"
     inkscape:cy="68.782101"
     inkscape:window-width="1440"
     inkscape:window-height="831"
     inkscape:window-x="0"
     inkscape:window-y="0"
     inkscape:window-maximized="1"
     inkscape:current-layer="svg9" />
  <defs
     id="defs8">
    <inkscape:path-effect
       effect="sketch"
       id="path-effect30"
       is_visible="true"
       lpeversion="1"
       nbiter_approxstrokes="3"
       parallel_offset="0.4;689094028"
       strokelength="70"
       strokelength_rdm="0.3;2139095038"
       strokeoverlap="0.5"
       strokeoverlap_rdm="0.5;1"
       ends_tolerance="0.1;1"
       tremble_size="0.8;1"
       tremble_frequency="3"
       nbtangents="2"
       tgt_places_rdmness="0.5;1"
       tgtlength="5"
       tgtlength_rdm="0.3;1"
       tgtscale="10" />
    <g
       id="building">
      <!-- Draw the root. -->
      <polygon
         fill="#776644"
         points="20,1 5,-6 5,-2 20,5 "
         stroke="#000000"
         stroke-width="1"
         vector-effect="non-scaling-stroke"
         id="polygon1" />
      <polygon
         fill="#776644"
         points="5,1 -10,-6 -10,-2 5,5 "
         stroke="#000000"
         stroke-width="1"
         vector-effect="non-scaling-stroke"
         id="polygon2" />
      <polygon
         fill="#776644"
         points="-10,1 -25,-6 -25,-2 -10,5 "
         stroke="#000000"
         stroke-width="1"
         vector-effect="non-scaling-stroke"
         id="polygon3" />
      <!-- Draw the wall. -->
      <polygon
         fill="#cccccc"
         points="-25,20 25,20 25,-25 20,-25 20,5 5,-2 5,5 -10,-2 -10,5 -25,-2 "
         stroke="#000000"
         stroke-width="1"
         vector-effect="non-scaling-stroke"
         id="polygon4" />
      <!-- Draw the windows. -->
      <g
         transform="translate(-18,12)"
         id="g4">
        <use
           xlink:href="#window"
           id="use4" />
      </g>
      <g
         transform="translate(-9,12)"
         id="g5">
        <use
           xlink:href="#window"
           id="use5" />
      </g>
      <g
         transform="translate(0,12)"
         id="g6">
        <use
           xlink:href="#window"
           id="use6" />
      </g>
      <g
         transform="translate(9,12)"
         id="g7">
        <use
           xlink:href="#window"
           id="use7" />
      </g>
      <g
         transform="translate(18,12)"
         id="g8">
        <use
           xlink:href="#window"
           id="use8" />
      </g>
    </g>
    <g
       id="window">
      <polygon
         fill="#555555"
         points="2,-2 -2,-2 -2,2 2,2 "
         id="polygon8" />
    </g>
  </defs>
  <!-- XXX -->
  <g
     id="g1"
     transform="matrix(1.1836093,0,0,1.1836093,-1.3798924,-1.4486882)"
     style="stroke-width:0.84487339;stroke-dasharray:none">
    <path
       id="polygon9"
       style="fill:#776644;stroke:none;stroke-width:0.84487339;stroke-dasharray:none"
       d="M 97.686981,66.483769 69.612403,53.382298 v 7.486555 l 28.074578,13.10147 z" />
    <path
       id="polygon10"
       style="fill:#776644;stroke:none;stroke-width:0.84487339;stroke-dasharray:none"
       d="M 69.612403,66.483769 41.537823,53.382298 v 7.486555 l 28.07458,13.10147 z" />
    <path
       id="polygon11"
       style="fill:#776644;stroke:none;stroke-width:0.84487339;stroke-dasharray:none"
       d="M 41.537823,66.483769 13.463242,53.382298 v 7.486555 l 28.074581,13.10147 z" />
    <path
       id="polygon12"
       style="fill:#cccccc;stroke:none;stroke-width:0.84487339;stroke-dasharray:none"
       d="m 69.612403,73.970323 -28.07458,-13.10147 v 13.10147 L 13.463242,60.868853 V 102.04491 H 107.04518 V 17.821163 h -9.358199 v 56.14916 L 69.612403,60.868853 Z" />
    <path
       id="polygon18"
       style="fill:#555555;stroke-width:0.84487339;stroke-dasharray:none"
       d="m 30.307991,83.328517 h -7.486556 v 7.486554 h 7.486556 z" />
    <path
       id="polygon17"
       style="fill:#555555;stroke-width:0.84487339;stroke-dasharray:none"
       d="m 47.152739,83.328517 h -7.486554 v 7.486554 h 7.486554 z" />
    <path
       id="polygon20"
       style="fill:#555555;stroke-width:0.84487339;stroke-dasharray:none"
       d="m 63.997487,83.328517 h -7.486556 v 7.486554 h 7.486556 z" />
    <path
       id="polygon21"
       style="fill:#555555;stroke-width:0.84487339;stroke-dasharray:none"
       d="M 80.842235,83.328517 H 73.35568 v 7.486554 h 7.486555 z" />
    <path
       id="polygon19"
       style="fill:#555555;stroke-width:0.84487339;stroke-dasharray:none"
       d="m 97.686981,83.328517 h -7.486552 v 7.486554 h 7.486552 z" />
    <path
       id="polygon30"
       style="fill:none;stroke:#000000;stroke-width:0.7222534;stroke-dasharray:none"
       d="m 4.7261836,76.74352 c 8.0092924,-0.178782 15.4736374,0.002 23.0917814,-0.006 7.621408,-0.008 15.422743,-0.134648 22.93958,-0.4 l 3e-6,0 c 6.912252,-0.244009 14.396947,0.0068 21.838377,0.137605 M 48.746793,75.956132 c 7.543729,-0.09166 15.594844,-0.227849 23.473631,-0.668632 2.346138,-0.131256 4.681756,-0.17263 7.014748,-0.159277 0.0423,-5.431204 0.06997,-10.557697 0.186703,-15.841355 0.04299,-1.945646 0.07011,-3.918939 0.09024,-5.906685 m 0.415808,14.28835 C 79.768148,59.76301 80.280695,51.99195 80.996875,43.951619 81.713362,35.90784 80.685769,28.761061 80.071875,21.705788 l 0,-3e-6 C 79.718863,17.648735 79.869309,12.977547 80.173636,8.1054139 M 79.274799,24.704148 C 79.136267,17.787892 79.460799,10.808403 79.913938,3.7672849 79.113637,3.75205 78.315306,3.7358707 77.518312,3.71875 75.833607,3.6825599 74.093269,3.6710636 72.317629,3.6784164 72.431788,9.6701619 72.162328,15.866736 72.2375,22.058771 c 0.02878,2.370991 0.0204,4.716273 -0.0179,7.058271 M 72.843935,5.0779086 c 0.143372,7.8740494 -0.08147,15.3378984 -0.231435,22.6794554 -0.150028,7.344703 -0.08739,15.391368 -0.25625,22.827081 l 0,2e-6 c -0.0083,0.365456 -0.01531,0.733076 -0.02109,1.10274 -1.853798,-0.917237 -3.673602,-1.777834 -5.468393,-2.599312 m 5.949199,-10.267438 c 0.157778,4.729115 0.128268,9.388484 0.08083,14.026395 -2.832912,-1.337049 -5.673639,-2.683451 -8.473444,-4.025312 -5.195089,-2.489846 -10.531126,-5.007716 -16.007593,-7.66062 -0.09894,1.960417 -0.215656,3.903738 -0.350129,5.825143 -0.111479,1.592856 -0.175283,3.221497 -0.207341,4.871775 -3.305793,-1.599538 -6.470025,-3.102591 -9.642715,-4.642382 m 8.737816,-3.980307 c 0.0719,2.787493 0.118061,5.627742 0.166017,8.527893 -4.448679,-1.880505 -8.891506,-3.565395 -13.166048,-5.012498 -3.265429,-1.105479 -6.701412,-2.828396 -10.162253,-4.799662 0.0037,3.387254 -0.01624,6.537716 0.07573,9.795015 -0.194901,-0.121686 -0.389409,-0.242998 -0.583497,-0.363864 -3.15815,-1.966699 -6.458591,-3.428271 -9.835431,-4.67115 m 10.561514,0.79148 c 0.0068,1.684727 3.69e-4,3.383181 -0.01827,5.09077 -5.555042,-2.594392 -11.26149,-5.075067 -17.0683498,-7.643725 -2.6559818,-1.174871 -5.198656,-2.365586 -7.68307723,-3.573771 0.0475331,4.941132 0.28531734,9.825206 0.38840703,14.642618 0.0211487,0.988286 0.040419,1.98976 0.0589315,3.00237 M 0.77513382,46.765151 C 0.87908296,54.64948 0.78148795,61.968996 0.8,69.044592 c 0.005005,1.912871 -0.002868,3.931662 -0.0225378,6.014856 C 6.4003179,75.009193 11.937136,75.42861 17.409176,75.5 c 3.784596,0.04937 7.735634,0.122398 11.746656,0.257229 M 5.5743564,75.631311 c 7.8038146,0.04769 15.8594516,-0.142968 24.2670456,-0.425061 8.411198,-0.282214 15.258801,0.08537 22.433331,0.2625 l 2e-6,0 c 2.814034,0.06947 5.862803,0.06754 9.037378,0.02617 M 38.381501,77.06242 c 7.845089,-0.06252 15.505246,-0.182826 23.191993,-0.55617 5.927665,-0.287906 11.928154,-0.276018 17.884912,-0.470731 -0.01146,-1.840375 -0.02678,-3.699012 -0.04903,-5.589221 -0.02648,-2.249135 -0.02814,-4.419079 -0.01065,-6.53867 m -7.206195,12.445376 c 2.314114,-0.02792 4.626451,-0.08188 6.937941,-0.169152 0.004,-5.67112 0.0033,-11.52862 0.01015,-17.668448 l 0,-2e-6 c 0.0097,-8.73874 0.144228,-15.056476 0.4375,-21.833331 0.179984,-4.159023 0.18994,-9.078297 0.232003,-14.063741 m 0.752573,24.45839 c 0.155866,-7.545433 -0.05708,-15.156496 -0.181451,-22.136128 -0.106946,-6.00193 0.04571,-13.260504 0.224044,-20.2605503 -1.063232,-0.051411 -2.125779,-0.09592 -3.188661,-0.1269167 -1.531793,-0.044672 -3.086354,-0.065963 -4.658399,-0.06942 0.0051,3.5739516 -0.08027,7.2402254 -0.193915,10.9335194 m 7.457655,-6.8534073 c 0.01262,-1.3007129 0.02305,-2.5939878 0.03235,-3.8818889 -2.647208,-0.028111 -5.299391,-0.032696 -7.946956,-0.032662 0.02746,3.8333604 0.06446,7.6762644 0.139502,11.4725454 l 0,2e-6 c 0.152257,7.702641 0.06152,15.646717 0.19375,23.602081 0.07462,4.48912 0.02733,8.846148 -0.07078,13.165281 -1.474067,-0.696575 -2.954783,-1.398109 -4.438786,-2.100143 m 3.512688,-11.655631 c -0.0011,4.485549 0.06168,8.788588 0.187522,12.9663 -2.93964,-1.6037 -5.843157,-3.279178 -8.710893,-5.00165 -4.691682,-2.818005 -9.883316,-4.978164 -15.165765,-7.223276 -0.133124,2.328797 -0.28223,4.642643 -0.417111,6.886693 -0.08419,1.400662 -0.133788,2.819968 -0.157425,4.25445 -2.828076,-1.296711 -5.537649,-2.524152 -8.212816,-3.716128 m 8.792028,-5.232214 c -0.03043,3.561067 6.13e-4,7.040822 0.07476,10.501132 -3.820914,-1.820575 -7.574508,-3.671522 -11.296635,-5.432084 -3.886526,-1.838323 -7.983527,-3.823255 -12.089959,-5.885988 -0.0145,3.155415 -0.03395,6.269963 0.01818,9.369839 0.0074,0.441087 0.01387,0.885211 0.01944,1.332115 -3.387924,-1.750027 -6.834565,-3.31554 -10.295702,-4.835523 m 12.587699,-5.032426 c -0.899427,-0.426647 -1.80667,-0.849545 -2.721015,-1.268737 -0.0045,3.759045 -0.106409,7.568953 -0.26948,11.427498 -2.881346,-1.181058 -5.803048,-2.330005 -8.745602,-3.448037 -5.6211948,-2.13579 -10.657152,-4.966673 -15.72219109,-7.967203 0.0636881,1.794767 0.12397064,3.569669 0.15623109,5.345761 0.0487404,2.683388 0.0627211,5.616562 0.0632721,8.661078 M 11.06308,45.498729 C 7.6645475,43.880454 4.1427176,42.315164 0.58295005,40.820496 0.53765752,44.862555 0.45408734,48.975867 0.41875,53.178308 l -9e-8,2e-6 c -0.0705476,8.389767 -0.40104479,15.648899 -1.19999973,23.60833 l -1.8e-7,2e-6 c -0.006129,0.06105 -0.0121531,0.122087 -0.0180747,0.1831 2.69411557,0.06774 5.64696337,0.08278 8.72164447,0.07635 M 5.567777,75.480932 c 7.547856,-0.247364 15.559469,0.02594 23.367375,0.08782 7.811254,0.06191 15.916614,0.203283 24.408333,0.6125 3.599352,0.173453 6.859118,0.177239 9.941395,0.105535 M 42.635429,76.22512 c 7.965786,0.09358 15.647989,0.03899 23.623087,0.10613 4.81305,0.04052 9.356417,-0.113852 13.762309,-0.419455 -0.188138,-3.286816 -0.435741,-6.639046 -0.7052,-10.04427 -0.445464,-5.629447 -0.197878,-10.442062 0.165593,-15.116752 m -1.048734,25.524353 c 0.433082,0.0056 0.868688,0.01 1.306699,0.0132 C 79.618732,69.012335 80.149736,61.423969 80.8,53.762657 l 0,-3e-6 c 0.69007,-8.130311 -0.421247,-15.61767 -1.25625,-23.508331 -0.3598,-3.400065 -0.361279,-6.715264 -0.204215,-9.971705 m 1.254129,26.657447 c -0.06652,-7.784836 0.0037,-15.544482 0.01259,-23.32332 C 80.613496,17.26174 80.53255,10.777477 80.384586,4.1508526 78.924995,4.0890477 77.462023,4.020063 75.995911,3.94375 74.721044,3.8773915 73.455152,3.8317027 72.195565,3.8016802 c -0.01879,1.1795167 -0.0316,2.3739134 -0.04089,3.5785585 M 80.0122,18.37587 c -0.144519,-4.865056 -0.09271,-9.6685138 -0.01315,-14.4579036 -2.622706,0.020426 -5.236939,0.045147 -7.87113,0.066145 0.0034,0.2836353 0.0066,0.567229 0.0096,0.8507719 l 0,2.2e-6 c 0.08151,7.836468 -0.18782,15.933209 -0.5625,24.458329 l 0,2e-6 c -0.295806,6.730507 0.01161,12.424598 0.36651,18.181529 m 0.02726,-30.792382 c 0.01461,7.772421 0.06882,15.613427 0.206231,23.529586 0.06926,3.990369 0.01542,7.886085 -0.109742,11.742238 C 68.445193,50.26052 64.755975,48.528494 61.047042,46.810703 56.485461,44.698009 52.353825,42.713658 48.359545,40.742194 m 24.381077,6.450342 c -4.61e-4,1.437054 -0.01703,2.875234 -0.04974,4.313672 C 66.81215,48.800134 60.623692,46.09899 54.1217,43.32971 c -2.567168,-1.093389 -4.891487,-2.132302 -7.067083,-3.127852 0.132855,3.824806 0.597643,7.746394 1.080527,11.727713 -1.200585,-0.5509 -2.398069,-1.091565 -3.614716,-1.624621 -3.62854,-1.589794 -7.988813,-3.708494 -12.501943,-5.979136 m 16.090756,0.168756 c -0.02934,2.138855 -0.04829,4.310881 -0.0641,6.502995 -5.097692,-2.363401 -10.175097,-4.596738 -15.351873,-6.915501 -3.01197,-1.34911 -5.941781,-2.661662 -8.826016,-3.925538 0.06704,3.85901 0.194328,7.782362 0.32626,11.788469 -0.694287,-0.278897 -1.388362,-0.554021 -2.082766,-0.825191 -2.895245,-1.130615 -5.875662,-2.545753 -8.878097,-4.093805 m 10.04832,2.187783 c -0.0229,0.775714 -0.04063,1.560612 -0.0539,2.353901 C 16.791779,48.555593 10.694561,46.180363 4.4597669,43.9181 2.8019933,43.316585 1.1244742,42.617378 -0.56895232,41.851585 -0.61075975,47.833726 -0.81489459,53.136387 -1.05625,58.773546 c -0.2367261,5.529037 0.00506,11.508322 0.33064513,17.464081 1.53307545,0.03646 3.07138327,0.07144 4.60876557,0.09757 M 0.35314633,53.114116 c 0.0160791,7.526701 -0.13267861,15.054638 -0.40300243,22.464741 0.19587542,-0.0043 0.39166335,-0.0087 0.58736461,-0.01323 7.49341319,-0.172192 15.47473949,0.09355 23.10208149,0.275 l 2e-6,0 c 3.903344,0.09286 7.909025,0.148266 11.957273,0.237879 M 22.862166,45.282734 C 15.682225,41.749867 9.0712398,38.869431 2.6333782,35.913702 2.0777803,35.658617 1.5137317,35.39737 0.94240206,35.130603 1.059002,37.317882 1.1019919,39.449351 1.1089668,41.545658 c 4.52316,2.016899 8.8505748,3.842689 13.4586062,5.739001 3.571484,1.469748 6.948182,3.165139 10.187714,4.968523 -0.140333,-2.03744 -0.322679,-4.041803 -0.53727,-6.033032 -1.801825,-0.637626 -3.626344,-1.266007 -5.467791,-1.89692 -0.0034,-0.0012 -0.0069,-0.0023 -0.01029,-0.0035 m 2.55408,0.208269 C 14.124407,41.289446 7.2487185,37.888094 -0.02845397,34.311622 c -0.006021,0.125231 -0.01216016,0.250409 -0.01842103,0.375536 -0.09559145,1.910451 -0.15719269,3.892306 -0.20388433,5.927534 5.09904603,2.537688 10.32215533,5.519485 15.21133533,8.512535 2.584154,1.581963 5.348164,2.924243 8.207496,4.161331 0.06504,-2.170957 0.17663,-4.393287 0.305923,-6.621088 -0.09034,-0.04991 -0.180638,-0.09984 -0.270894,-0.149771 M 1.8089093,42.065819 c 7.0721429,3.295919 14.1450947,6.463865 21.3039267,9.538088 0.244397,0.104951 0.488718,0.210446 0.732978,0.316457 0.03012,-2.183392 0.05628,-4.33337 0.08576,-6.46325 C 19.131503,43.191107 14.352516,41.052878 9.7112129,38.828983 6.7350614,37.40295 3.5538323,35.914354 0.2562447,34.382505 0.14987821,36.470546 -0.0010003,38.542042 -0.17539967,40.601561 1.614633,41.444616 3.3803018,42.275265 5.1437365,43.098325 M 18.337992,42.899715 C 12.00496,39.875701 5.7039645,37.211535 -0.51906773,34.752113 c 0.0137291,0.824386 0.0283981,1.651241 0.0440677,2.480358 0.0277917,1.470522 0.0498054,2.907314 0.0686749,4.320232 5.90061114,2.941374 11.73172214,5.355045 17.76701714,8.265203 2.272209,1.095637 4.468608,2.114722 6.613604,3.078767 -0.006,-0.343148 -0.01296,-0.687357 -0.02086,-1.032569 M 7.7369109,44.204206 c 5.4863151,2.496832 11.1723001,5.241892 16.7955711,7.996309 -2.05e-4,-1.535298 -0.0044,-3.069998 -0.01686,-4.607953 -0.0045,-0.554362 -0.009,-1.110185 -0.01356,-1.667299 C 17.90777,42.978729 11.300042,39.821981 4.5267044,36.809129 3.0094037,36.134217 1.5210803,35.451623 0.05476358,34.762533 c -0.0021468,1.565992 0.01653025,3.125838 0.04961497,4.68063 M 42.353694,43.883431 c -6.435945,-2.976001 -12.40006,-5.855376 -18.41254,-8.821129 0.02714,0.906321 0.05341,1.811106 0.0776,2.713919 0.0322,1.202128 0.05955,2.405514 0.08443,3.608982 6.078016,2.693801 12.08454,5.389983 18.391467,7.905216 2.181465,0.869978 4.250855,1.779636 6.240079,2.706073 -0.06274,-2.164369 -0.196365,-4.313904 -0.374339,-6.467641 -0.01553,-0.0068 -0.03106,-0.01357 -0.0466,-0.02036 M 28.970075,42.798564 c 6.199843,2.770612 12.692296,5.811022 19.483615,8.834262 0.08071,-0.915303 0.16697,-1.830925 0.25881,-2.747594 0.118144,-1.179216 0.193515,-2.367225 0.234513,-3.562564 -5.735751,-2.754419 -12.503749,-5.728954 -18.922,-8.68287 -2.196255,-1.010798 -4.291215,-1.988502 -6.323918,-2.94778 0.0024,0.769989 0.01206,1.542149 0.02752,2.315887 m 18.827633,6.267677 c -5.863841,-2.626856 -11.883935,-5.170464 -17.979597,-7.358828 -0.03749,1.370945 -0.07782,2.755212 -0.120396,4.154779 -0.02943,0.967545 -0.05096,1.911635 -0.06568,2.83587 6.141324,3.334124 12.709185,5.422904 19.151904,8.05367 1.793539,0.732359 3.557589,1.504294 5.301663,2.300857 0.0022,-2.151546 -0.0202,-4.272764 -0.0542,-6.384082 -2.376211,-1.063138 -4.769353,-2.11183 -7.156524,-3.182079 m 4.159155,2.251354 C 38.506644,41.682137 32.047801,38.192406 25.682667,34.558995 c -0.362763,-0.207076 -0.731299,-0.411141 -1.105229,-0.612384 0.132809,2.066553 0.14056,4.198496 0.06547,6.37449 4.530304,2.303592 8.568151,4.869037 12.725376,7.387015 2.044863,1.238547 4.283013,2.38687 6.626081,3.496067 M 31.952056,44.202509 c 5.122082,2.443528 10.473839,4.956174 15.785722,7.500775 0.01085,-1.921389 0.01725,-3.839204 0.0091,-5.754835 -7.73e-4,-0.181787 -0.0016,-0.363725 -0.0024,-0.545809 -6.913186,-3.095284 -13.845612,-6.436475 -20.876762,-9.654143 -1.143967,-0.523514 -2.282865,-1.04563 -3.418557,-1.566456 -0.0045,0.339156 -0.0087,0.67841 -0.01267,1.017758 m 46.824098,9.541168 c -7.109765,-3.185859 -14.381854,-6.603894 -21.997628,-9.95698 -0.344754,-0.151789 -0.686621,-0.30337 -1.025758,-0.454763 -0.122557,2.117793 -0.144824,4.242512 -0.101992,6.36986 4.902242,2.223277 10.205152,4.462738 15.371436,6.65279 3.451404,1.463093 6.677311,2.976072 9.831292,4.518998 -0.0063,-0.438599 -0.01372,-0.876726 -0.02198,-1.314418 M 48.536319,40.836479 c 7.284016,3.196251 13.944174,6.600332 20.697404,9.950717 0.764073,0.379068 1.539965,0.760401 2.326398,1.14425 -0.02585,-2.10454 0.0103,-4.194278 0.09021,-6.265612 C 67.511004,43.789335 63.589993,42.004652 59.684076,40.351944 57.228175,39.31278 54.561897,38.06757 51.800925,36.71802 m 16.454691,7.396107 c -6.629154,-3.21333 -13.541931,-6.531204 -20.43305,-10.124714 -0.0065,0.31178 -0.01302,0.623013 -0.01944,0.933683 -0.03487,1.687669 -0.06645,3.441357 -0.100509,5.242627 5.302483,2.525858 10.577763,5.575228 15.615586,8.475271 2.404336,1.384066 4.976739,2.635278 7.645086,3.824924 0.0098,-0.337162 0.02102,-0.675175 0.0334,-1.013922 m -18.59377,-9.557861 c 6.642753,3.298174 13.224824,6.344812 19.829387,9.704052 -4.57e-4,-0.460456 -8.18e-4,-0.919568 -0.0011,-1.377177 -8.33e-4,-1.582954 -0.0087,-3.196492 -0.02374,-4.830746 -5.603899,-2.512807 -11.304747,-5.309178 -17.102806,-7.889317 -2.561868,-1.140032 -5.035178,-2.282829 -7.460206,-3.426706 0.0088,0.8922 0.02275,1.784282 0.04056,2.676307 m 22.58647,7.325831 C 62.970487,40.730405 55.856634,37.42399 48.167905,33.975856 c -0.275944,-0.123752 -0.549943,-0.246824 -0.822086,-0.369238 -0.147566,2.099532 -0.186658,4.237499 -0.157164,6.404047 4.936233,2.352497 10.306301,4.885782 15.475641,7.44309 3.336262,1.650472 6.450011,3.125276 9.459292,4.535693 -0.07926,-2.166574 -0.19818,-4.357585 -0.329144,-6.547015 C 69.97136,44.596094 68.138877,43.75099 66.316012,42.925046 M 48,46.99247 v 8.042969 m -13.686348,-9.422401 6.502572,3.034533"
       inkscape:path-effect="#path-effect30"
       inkscape:original-d="M 0,76 H 80 V 4 H 72 V 52 L 48,40.8 V 52 L 24,40.8 V 52 L 0,40.8 Z M 24,45.6 0,34.4 v 6.4 L 24,52 Z m 24,0 -24,-11.2 v 6.4 L 48,52 Z m 24,0 -24,-11.2 v 6.4 L 72,52 Z"
       transform="matrix(1.1697742,0,0,1.1697742,13.463242,13.142066)"
       sodipodi:nodetypes="cccccccccccccccccccccccccc" />
  </g>
</svg>
