<?xml version="1.0" encoding="UTF-8" standalone="no"?>
<svg
   height="140"
   width="140"
   version="1.1"
   id="svg8"
   sodipodi:docname="structure-village.svg"
   inkscape:version="1.3.2 (091e20ef0f, 2023-11-25, custom)"
   xmlns:inkscape="http://www.inkscape.org/namespaces/inkscape"
   xmlns:sodipodi="http://sodipodi.sourceforge.net/DTD/sodipodi-0.dtd"
   xmlns:xlink="http://www.w3.org/1999/xlink"
   xmlns="http://www.w3.org/2000/svg"
   xmlns:svg="http://www.w3.org/2000/svg">
  <sodipodi:namedview
     id="namedview1"
     pagecolor="#ffffff"
     bordercolor="#000000"
     borderopacity="0.25"
     inkscape:showpageshadow="2"
     inkscape:pageopacity="0.0"
     inkscape:pagecheckerboard="0"
     inkscape:deskcolor="#d1d1d1"
     showgrid="false"
     inkscape:zoom="2.3625"
     inkscape:cx="27.089947"
     inkscape:cy="63.492063"
     inkscape:window-width="1440"
     inkscape:window-height="831"
     inkscape:window-x="0"
     inkscape:window-y="0"
     inkscape:window-maximized="1"
     inkscape:current-layer="svg8" />
  <defs
     id="defs6">
    <inkscape:path-effect
       effect="sketch"
       id="path-effect1"
       is_visible="true"
       lpeversion="1"
       nbiter_approxstrokes="3"
       parallel_offset="0.3;1056383960"
       strokelength="70"
       strokelength_rdm="0.4;587202559"
       strokeoverlap="0.5"
       strokeoverlap_rdm="0.5;1"
       ends_tolerance="0.1;1"
       tremble_size="0.8;1"
       tremble_frequency="3"
       nbtangents="2"
       tgt_places_rdmness="0.6;2139095038"
       tgtlength="5"
       tgtlength_rdm="0.4;2139095038"
       tgtscale="10" />
    <inkscape:path-effect
       effect="sketch"
       id="path-effect25"
       is_visible="true"
       lpeversion="1"
       nbiter_approxstrokes="3"
       parallel_offset="0.2;2139095038"
       strokelength="70"
       strokelength_rdm="0.3;309857518"
       strokeoverlap="0.5"
       strokeoverlap_rdm="0.5;2139095038"
       ends_tolerance="0.1;1"
       tremble_size="0.3;2139095038"
       tremble_frequency="3"
       nbtangents="2"
       tgt_places_rdmness="0.4;2139095038"
       tgtlength="5"
       tgtlength_rdm="0.3;1"
       tgtscale="10" />
    <inkscape:path-effect
       effect="sketch"
       id="path-effect24"
       is_visible="true"
       lpeversion="1"
       nbiter_approxstrokes="3"
       parallel_offset="0.2;1915312131"
       strokelength="70"
       strokelength_rdm="0.3;2139095038"
       strokeoverlap="0.5"
       strokeoverlap_rdm="0.5;1"
       ends_tolerance="0.1;1"
       tremble_size="0.8;1"
       tremble_frequency="3"
       nbtangents="2"
       tgt_places_rdmness="0.5;1"
       tgtlength="5"
       tgtlength_rdm="0.3;1"
       tgtscale="10" />
    <inkscape:path-effect
       effect="sketch"
       id="path-effect21"
       is_visible="true"
       lpeversion="1"
       nbiter_approxstrokes="3"
       parallel_offset="0.2;1915312131"
       strokelength="70"
       strokelength_rdm="0.3;2139095038"
       strokeoverlap="0.5"
       strokeoverlap_rdm="0.5;1"
       ends_tolerance="0.1;1"
       tremble_size="0.8;1"
       tremble_frequency="3"
       nbtangents="2"
       tgt_places_rdmness="0.5;1"
       tgtlength="5"
       tgtlength_rdm="0.3;1"
       tgtscale="10" />
    <g
       id="building">
      <!-- Draw the wall. -->
      <polygon
         fill="#cccccc"
         points="-10,0 -10,10 10,10 10,0 "
         stroke="#000000"
         stroke-width="1"
         vector-effect="non-scaling-stroke"
         id="polygon1" />
      <!-- Draw the roof. -->
      <polygon
         fill="#776644"
         points="0,-12 -12,0 12,0 "
         stroke="#000000"
         stroke-width="1"
         vector-effect="non-scaling-stroke"
         id="polygon2" />
      <polygon
         fill="#000000"
         opacity="0.3"
         points="0,-12 -12,0 -4,0 "
         id="polygon3" />
      <polygon
         fill="#ffffff"
         opacity="0.2"
         points="0,-12 12,0 4,0 "
         id="polygon4" />
      <!-- Draw the door. -->
      <g
         transform="translate(-4,6)"
         id="g4">
        <use
           xlink:href="#door"
           id="use4" />
      </g>
      <!-- Draw the windows. -->
      <g
         transform="translate(4,5)"
         id="g5">
        <use
           xlink:href="#window"
           id="use5" />
      </g>
    </g>
    <g
       id="door">
      <polygon
         fill="#555555"
         points="2,-3 -2,-3 -2,3.5 2,3.5 "
         id="polygon5" />
    </g>
    <g
       id="window">
      <polygon
         fill="#555555"
         points="2,-2 -2,-2 -2,2 2,2 "
         id="polygon6" />
    </g>
  </defs>
  <g
     id="g1"
     transform="matrix(1.2,0,0,1.2,-1.9215188,-2.2354807)"
     style="stroke-width:0.83333333;stroke-dasharray:none">
    <polygon
       fill="#cccccc"
       points="-10,10 10,10 10,0 -10,0 "
       stroke="#000000"
       stroke-width="1"
       vector-effect="non-scaling-stroke"
       id="polygon8"
       transform="matrix(3.3028839,0,0,3.3028839,60.014026,63.436794)"
       style="stroke:none;stroke-width:0.25230476;stroke-dasharray:none" />
    <polygon
       fill="#776644"
       points="0,-12 -12,0 12,0 "
       stroke="#000000"
       stroke-width="1"
       vector-effect="non-scaling-stroke"
       id="polygon9"
       transform="matrix(3.3028839,0,0,3.3028839,60.014026,63.436794)"
       style="stroke:none;stroke-width:0.25230476;stroke-dasharray:none" />
    <polygon
       fill="#000000"
       opacity="0.3"
       points="0,-12 -12,0 -4,0 "
       id="polygon10"
       transform="matrix(3.3028839,0,0,3.3028839,60.014026,63.436794)"
       style="stroke:none;stroke-width:0.25230476;stroke-dasharray:none" />
    <polygon
       fill="#ffffff"
       opacity="0.2"
       points="0,-12 12,0 4,0 "
       id="polygon11"
       transform="matrix(3.3028839,0,0,3.3028839,60.014026,63.436794)"
       style="stroke:none;stroke-width:0.25230476;stroke-dasharray:none" />
    <polygon
       fill="#555555"
       points="-2,3.5 2,3.5 2,-3 -2,-3 "
       id="polygon13"
       style="stroke:none;stroke-width:0.24312695;stroke-dasharray:none"
       transform="matrix(3.3028839,0,0,3.5569518,46.80249,84.0163)" />
    <polygon
       fill="#555555"
       points="-2,-2 -2,2 2,2 2,-2 "
       id="polygon14"
       style="stroke:none;stroke-width:0.25230476;stroke-dasharray:none"
       transform="matrix(3.3028839,0,0,3.3028839,73.22556,79.951214)" />
    <path
       id="polygon18"
       style="fill:none;stroke:#000000;stroke-width:0.76414848;stroke-dasharray:none;stroke-opacity:1"
       d="M 73.178648,-59.628341 C 67.916134,-65.304484 62.108901,-70.620669 56.455009,-76.126448 50.798692,-81.634588 45.322598,-87.260672 39.5621,-93.025606 c -0.04323,-0.04326 -0.08642,-0.08649 -0.129574,-0.12969 -3.661119,3.338233 -7.050245,6.911097 -10.371842,10.514741 m 14.37582,-6.240156 c -1.455799,-1.420459 -2.87877,-2.843733 -4.280113,-4.274138 -4.112469,4.002642 -8.038674,7.943872 -12.061677,11.71462 l -2e-6,2e-6 c -5.396173,5.057816 -10.910283,11.131352 -16.242907,16.886657 -2.4383649,2.631638 -4.9265033,5.176556 -7.4153816,7.707895 2.6396006,0.01221 5.2787995,0.01705 7.9372126,0.04377 m -1.362408,-6.50521 c -2.2776181,2.160519 -4.4462737,4.342848 -6.5365333,6.520622 4.8269317,-0.0527 9.8264633,-0.115433 14.8987423,-0.274327 l 2e-6,0 c 8.49437,-0.266095 15.244374,0.365063 22.408331,1.0875 3.641018,0.367172 7.675278,0.254619 11.86146,-0.05238 m -17.298512,-1.101519 c 7.618763,0.002 15.821934,-0.07607 24.136034,-0.231252 6.094559,-0.113754 11.637136,0.01706 17.262936,0.210167 -1.496629,-1.3995 -2.982184,-2.790711 -4.425837,-4.182482 -4.365611,-4.20872 -9.013324,-8.611534 -13.791088,-12.742376 M 72.066494,-60.8783 c -5.35399,-5.397757 -11.076401,-11.205522 -16.723522,-17.135966 -5.202017,-5.463009 -10.224157,-10.330342 -15.412463,-15.627956 -0.446345,0.415565 -0.89392,0.827945 -1.342945,1.236487 -1.127269,1.025637 -2.233442,2.08672 -3.322602,3.175289 m 14.20436,5.731355 c -2.839022,-2.939375 -5.82995,-5.935371 -8.84903,-8.952604 -2.548381,2.485768 -5.116822,4.956404 -7.630894,7.433189 -5.494862,5.413363 -11.249917,10.774379 -17.261657,15.817906 l -2e-6,2e-6 c -4.480259,3.758698 -8.401692,7.936967 -12.4037716,11.966611 1.6471244,-0.01929 3.2879485,-0.0502 4.9085087,-0.105125 m 6.1028399,-11.492176 c -3.663321,3.837758 -7.4236248,7.874587 -11.0794682,12.162536 2.4618176,0.2161 4.9443727,0.482053 7.4654832,0.802461 l 3e-6,0 c 8.182951,1.039974 15.660695,-0.475097 23.658328,-1.437499 l 3e-6,-10e-7 c 5.939171,-0.714695 11.512055,-0.127941 16.990689,0.575647 m -18.379518,0.589791 c 7.805446,-0.14553 15.337664,-0.0096 22.704543,-0.01856 6.320464,-0.0077 13.297572,-0.107213 20.163239,-0.321278 -0.75075,-0.818767 -1.504574,-1.640694 -2.264988,-2.465882 -0.636363,-0.690571 -1.274256,-1.370402 -1.912855,-2.041002 m -1.260622,5.308773 c 2.145704,0.02993 4.276439,0.01799 6.398639,-0.02935 -3.987297,-4.126626 -8.035522,-8.505988 -12.022014,-13.01496 -5.480955,-6.199304 -11.138699,-10.946977 -16.917907,-16.349157 l -2e-6,-2e-6 c -1.230558,-1.150278 -2.431512,-2.296328 -3.610841,-3.43529 m 27.302983,27.514956 c -5.467993,-5.449671 -10.685112,-11.137944 -15.548375,-16.917149 -4.616781,-5.486301 -10.64253,-10.38838 -16.461354,-15.422319 -0.03805,0.03534 -0.0761,0.07067 -0.114129,0.105992 m 14.333419,13.475189 c -4.601286,-4.508325 -9.18777,-8.768212 -13.901192,-12.729098 -1.003223,1.086432 -2.012197,2.186409 -3.028288,3.300419 -5.792452,6.350659 -11.043,10.816154 -16.630407,15.942906 l -1e-6,2e-6 c -4.725501,4.335905 -9.362982,9.032654 -14.0673706,13.420554 M 23.370567,-76.473915 c -5.726233,5.709654 -11.221486,11.282853 -17.173043,17.360564 -1.0857887,1.108803 -2.1410625,2.16294 -3.174135,3.172999 6.2242608,0.03198 12.894841,-0.822161 19.262382,-1.60797 6.294341,-0.776776 12.670006,0.02816 19.14508,0.893868 m -26.889861,0.537382 c 7.882619,-3.8e-4 15.63497,-0.444171 23.573194,-1.34375 l 3e-6,0 c 7.941627,-0.899964 15.499155,0.391928 23.15208,1.1875 2.885085,0.299924 5.820201,0.357996 8.785576,0.302119 m -20.463299,-0.359758 c 7.622746,0.1351 15.619109,-0.0319 23.529778,-0.08767 1.16643,-0.0082 2.328519,-0.01497 3.487596,-0.02075 -4.615467,-4.722513 -9.331684,-9.412276 -13.890961,-14.165402 -3.820682,-3.983127 -7.765489,-7.843067 -11.664347,-11.663714 m 19.296305,55.386721 c 0.0247,-7.591432 -0.283644,-15.465949 -0.850032,-23.079819 -0.141209,-1.898251 -0.200047,-3.83827 -0.202792,-5.812733 -5.847762,-0.108996 -11.186395,-0.530623 -16.734437,-1.064621 -3.340027,-0.321477 -6.8859,-0.372114 -10.529518,-0.348105 m 18.700999,0.301971 c -7.676652,-0.031 -15.448318,0.217815 -23.017209,0.63754 -7.551719,0.418773 -15.339187,0.06537 -22.754446,0.180308 m 20.333949,-0.563843 c -7.718335,0.04578 -15.571437,0.04794 -23.379656,0.143692 -0.421781,0.0052 -0.843877,0.0094 -1.266302,0.01286 -0.04325,7.417739 -0.187967,14.57344 -0.524819,21.710597 -0.1253385,2.655648 -0.1938282,5.395743 -0.2516217,8.189433 0.2259837,0.0047 0.4520427,0.0098 0.6781507,0.01527 M 9.2506673,-52.979709 c -0.085217,7.716287 0.019175,15.609127 0.05011,23.517158 0.00334,0.853539 0.010061,1.704146 0.020267,2.552322 7.0230443,0.07489 14.2842183,-0.01645 21.8394563,0.0088 1.128409,0.0038 2.231763,0.01186 3.314936,0.02451 m -25.1239526,1.26814 c -3.278e-4,0.04443 -6.465e-4,0.08885 -9.561e-4,0.13326 7.6760327,0.09096 15.6350757,7.43e-4 23.6926707,0.01081 7.590955,0.0095 14.501863,-0.462086 21.55553,-1.376254 m -16.383351,-0.426349 c 7.531526,-0.201477 15.910931,0.203599 24.398646,0.612759 2.944319,0.141934 5.661544,0.170249 8.240296,0.136567 -0.222573,-5.144342 -0.936644,-10.508735 -1.549623,-15.747977 -0.129425,-1.106213 -0.217247,-2.197301 -0.270885,-3.275188 m 1.449732,15.945383 c -0.04603,-7.548191 -0.339815,-15.950669 -1.018691,-24.529874 -0.09921,-1.253814 -0.164046,-2.467111 -0.200873,-3.647389 -6.856845,-0.25765 -12.756801,0.61289 -18.973856,1.113784 -3.427293,0.27613 -7.117292,0.318056 -10.913253,0.308816 m 26.748336,-0.260193 c -7.920327,0.143388 -15.97063,-0.06284 -24.579396,-0.175185 -8.612456,-0.112394 -15.29604,0.230771 -22.545831,0.70625 l -2e-6,0 c -1.101904,0.07227 -2.224719,0.121265 -3.36287,0.151999 m 24.489955,-0.536069 c -7.803647,0.236818 -15.664235,-0.202411 -23.654546,-0.619055 -2.254615,-0.117564 -4.481233,-0.170432 -6.6946167,-0.18627 -0.045979,5.088594 -0.019706,10.379341 -0.1094855,15.519332 m 5.7872372,-15.632361 c -1.810615,-0.01409 -3.595132,-0.01991 -5.361733,-0.01982 -0.02952,6.016781 0.150816,12.102774 0.213109,18.163062 0.04223,4.108813 -0.01154,8.290734 -0.126259,12.568509 2.192384,0.109868 4.366129,0.249051 6.527165,0.421397 m -6.533571,-14.205551 c 0.0695,4.83743 0.01125,9.511588 -0.09761,14.141982 2.974407,-0.06409 5.927846,-0.146316 8.88089,-0.214803 l 2e-6,0 c 7.544194,-0.174964 15.62434,0.06428 23.539581,0.20625 3.948646,0.07082 7.776644,0.04874 11.53421,-0.01266 m -23.565227,0.105334 c 7.880468,-0.232979 15.550805,-0.169271 23.329446,-0.50595 5.763676,-0.249467 11.264609,-0.159515 16.507603,-0.142333 -0.181241,-2.011194 -0.394111,-4.031313 -0.638405,-6.078053 -0.72598,-6.082404 -0.05467,-11.851354 0.715001,-17.460313 m -0.09718,17.694089 c -0.118467,-7.612295 0.03317,-15.551528 0.106403,-23.317292 0.0047,-0.497625 0.0085,-0.995197 0.01139,-1.492711 -5.98378,0.0081 -12.09312,0.02459 -18.233112,0.06048 m 17.422089,1.198006 c -7.701615,0.122422 -15.468081,-0.270498 -23.092177,-0.800158 l -3e-6,0 c -7.627363,-0.529886 -15.85712,0.0085 -24.227077,0.0375 l -3e-6,0 c -4.597639,0.01591 -8.825096,0.130199 -12.9751573,0.356951 0.014861,0.546731 0.030864,1.095123 0.047486,1.6452 m 15.8407197,-1.548162 c -5.389486,0.0448 -10.687157,0.05396 -15.8749648,0.08925 0.093753,2.388781 0.2087166,4.782609 0.3464231,7.186729 0.4480777,7.822681 0.041554,15.352936 0.1048134,22.88966 0.055928,-0.0013 0.111881,-0.0027 0.1678584,-0.004 6.4537329,-0.15361 12.7168429,-0.115448 18.9055339,-0.19295 M 8.8020585,-31.113077 c -0.045127,1.630658 -0.067752,3.261325 -0.073611,4.894815 6.1441408,0.09841 12.5349108,0.238338 18.8487288,0.57854 7.270056,0.391726 14.202056,-0.162096 21.226727,-0.669458 m -20.965616,0.04341 c 7.543758,-0.20595 15.6287,-0.164613 23.56113,-0.487235 6.617143,-0.269128 12.683223,0.09875 18.472076,0.546186 -0.06607,-0.572759 -0.134635,-1.144802 -0.205461,-1.716605 m -13.529144,1.998616 c 4.706953,0.03313 9.412897,-0.02703 14.233534,-0.145484 0.152443,-3.256439 0.359521,-6.54065 0.659274,-9.841131 0.653468,-7.195141 -0.0083,-14.04609 -0.422851,-21.198923 -0.908211,-0.02872 -1.812633,-0.06206 -2.7103,-0.101259 -0.321772,-0.01405 -0.642747,-0.02643 -0.962993,-0.03719 m -26.054969,-36.631558 -6.816952,6.816952 M 9.713277,-42.543558 v 6.703125"
       inkscape:path-effect="#path-effect1"
       inkscape:original-d="m 76.344072,-56.657697 -36.34407,-36.34407 -36.34407,36.34407 z m -6.057345,30.286725 V -56.657697 H 9.713277 v 30.286725 z"
       transform="matrix(1.0905385,0,0,1.0905385,16.392485,125.22419)"
       sodipodi:nodetypes="ccccccccc" />
  </g>
</svg>
