<?xml version="1.0" encoding="UTF-8" standalone="no"?>
<svg
   height="120"
   width="160"
   version="1.1"
   id="svg2"
   sodipodi:docname="tile-water.svg"
   inkscape:version="1.3.2 (091e20ef0f, 2023-11-25, custom)"
   xmlns:inkscape="http://www.inkscape.org/namespaces/inkscape"
   xmlns:sodipodi="http://sodipodi.sourceforge.net/DTD/sodipodi-0.dtd"
   xmlns="http://www.w3.org/2000/svg"
   xmlns:svg="http://www.w3.org/2000/svg">
  <defs
     id="defs2">
    <inkscape:path-effect
       effect="sketch"
       id="path-effect1"
       is_visible="true"
       lpeversion="1"
       nbiter_approxstrokes="3"
       parallel_offset="2;1"
       strokelength="70"
       strokelength_rdm="0.3;2139095038"
       strokeoverlap="0.55"
       strokeoverlap_rdm="0.5;1"
       ends_tolerance="0.1;1"
       tremble_size="0.3;2139095038"
       tremble_frequency="3"
       nbtangents="2"
       tgt_places_rdmness="0.5;1"
       tgtlength="5"
       tgtlength_rdm="0.3;1"
       tgtscale="10" />
  </defs>
  <sodipodi:namedview
     id="namedview2"
     pagecolor="#ffffff"
     bordercolor="#000000"
     borderopacity="0.25"
     inkscape:showpageshadow="2"
     inkscape:pageopacity="0.0"
     inkscape:pagecheckerboard="0"
     inkscape:deskcolor="#d1d1d1"
     inkscape:zoom="1.0375"
     inkscape:cx="56.86747"
     inkscape:cy="221.68675"
     inkscape:window-width="1440"
     inkscape:window-height="831"
     inkscape:window-x="0"
     inkscape:window-y="0"
     inkscape:window-maximized="1"
     inkscape:current-layer="svg2" />
  <!-- Draw the shadow. -->
  <!-- Draw the tile background. -->
  <g
     id="g1"
     transform="matrix(0.77683668,0,0,0.77683668,1.9266238,1.6935887)"
     style="stroke-width:1.28727186;stroke-dasharray:none">
    <polygon
       fill="#555588"
       points="80,15 80,45 40,60 0,45 0,15 40,0 "
       stroke="#000000"
       stroke-width="1"
       id="polygon2"
       transform="matrix(2.4,0,0,2.4,4,3)"
       style="stroke:none;stroke-width:0.53636328;stroke-dasharray:none" />
    <path
       id="path2"
       style="fill:none;stroke:#000000;stroke-width:1.28727186;stroke-dasharray:none"
       d="M 8.5375649,38.390034 C 15.881825,35.717176 23.232001,32.956766 30.783612,30.275591 38.338458,27.593267 45.305496,24.855653 52.500039,22.209275 l 3e-6,-2e-6 c 6.615882,-2.433528 13.350287,-5.067567 19.999554,-7.704833 m -22.684019,5.82419 c 7.314512,-2.753247 14.549661,-5.541121 21.807804,-8.433089 7.261254,-2.8932078 14.5297,-5.4937878 21.739866,-8.2889731 l 2e-6,-9e-7 C 95.228027,2.8836434 97.096391,2.1684268 98.964612,1.4575408 M 83.413736,9.7055149 C 88.947353,7.5782925 94.49661,5.5132348 100.05466,3.4209678 c 1.74964,0.6485229 3.50014,1.2943494 5.2513,1.9346917 7.31721,2.6756613 14.54748,5.3610875 21.79378,7.8928795 l 0,1e-6 c 4.1669,1.455876 8.32199,3.076666 12.44393,4.748532 m -16.2589,-5.73977 c 7.27152,2.665906 14.40974,5.508799 21.39536,8.339451 6.98862,2.831864 14.58533,5.497639 21.90393,8.305379 l 0,10e-7 c 2.15012,0.82488 4.29338,1.628529 6.43267,2.416745 m -27.27116,-12.66965 c 7.29895,2.665128 14.5769,5.510603 21.89455,8.341796 l 0,1e-6 c 7.32078,2.832406 14.58313,5.40565 21.89924,8.028816 l 0,0 c 1.90604,0.683405 3.79438,1.38229 5.66672,2.090853 -0.005,0.367543 -0.01,0.735405 -0.0152,1.103552 m -18.71788,-8.239177 c 6.46673,2.375267 13.11456,4.96616 19.7411,7.572662 0.008,0.79477 0.0166,1.589734 0.0242,2.384615 l 0,2e-6 c 0.0761,7.945552 -0.008,15.496754 -0.0234,23.155206 -0.0101,5.184704 0.0123,10.479765 0.0543,15.775031 m 0.0488,-18.26397 c -9e-4,7.824276 -0.137,15.476372 -0.41484,23.107644 l 0,3e-6 c -0.27797,7.634544 0.017,15.565548 0.0469,23.359108 0.006,1.60686 0.0154,3.21366 0.0285,4.82085 -1.85069,0.70457 -3.69541,1.40974 -5.53266,2.11635 m 6.48159,-17.131151 c 0.0263,4.128001 0.01,8.247241 -0.0273,12.384251 -3.47845,1.32955 -6.97365,2.67344 -10.46971,4.05091 l -1e-5,0 c -7.39035,2.91182 -14.65467,5.38284 -22.12189,7.95381 l 0,0 c -0.98619,0.33955 -1.96425,0.68457 -2.93545,1.03395 m 10.7423,-5.69911 c -7.34641,2.75554 -14.47877,5.49587 -21.59682,8.30183 -7.1211,2.80716 -14.58132,5.53201 -21.89221,8.40382 l -1e-5,0 c -3.68999,1.44948 -7.38367,2.80672 -11.09134,4.12541 m 27.75155,-8.92228 c -7.18422,2.79061 -14.42446,5.47182 -21.43297,8.22679 l -1e-5,1e-5 c -7.01151,2.75615 -14.67288,5.46622 -22.17111,8.20225 l 0,0 c -0.54712,0.19964 -1.09187,0.39888 -1.6345,0.59772 -2.374205,-0.87375 -4.707781,-1.75508 -7.021738,-2.64344 m 22.967638,-4.62339 c -5.79122,2.18162 -11.54772,4.35175 -17.224988,6.51286 -1.430556,-0.55427 -2.856081,-1.10911 -4.275862,-1.66449 -7.05731,-2.7606 -14.636435,-5.63779 -22.063305,-8.71553 l -10e-7,0 c -2.025265,-0.83929 -4.034608,-1.61283 -6.036697,-2.34177 m 19.379392,7.51075 c -7.337914,-2.79688 -14.5668,-5.50543 -21.859336,-8.32757 -7.295661,-2.82335 -14.605999,-5.52825 -21.969553,-8.38741 l -2e-6,0 c -4.519086,-1.7547 -8.994058,-3.3686 -13.481392,-4.93022 m 26.950086,13.63688 c -7.309773,-2.78518 -14.477532,-5.50811 -21.594528,-8.33227 -7.120047,-2.82536 -14.626726,-5.38306 -22.035178,-7.95381 l -3e-6,0 c -2.8504075,-0.9891 -5.6821772,-2.02044 -8.5168028,-3.06649 -0.02361,-2.16021 -0.048713,-4.32812 -0.083432,-6.49333 M 20.43783,117.92259 C 14.709942,115.7748 9.113064,113.617 3.6374184,111.44435 3.7045821,109.77427 3.7807198,108.1031 3.8656347,106.43073 4.2628241,98.608226 3.6769377,90.939821 3.3031348,83.289589 l -10e-8,-2e-6 C 3.0159056,77.411168 3.2598691,71.324253 3.5255805,65.200826 m 0.432322,16.77008 c 0.062374,-7.692603 0.00945,-15.565344 0.030388,-23.36797 0.019992,-7.449628 0.063955,-14.768547 0.1858702,-22.029297 0.3382821,-0.116921 0.6767426,-0.233709 1.0153874,-0.350372 4.2918557,-1.478542 8.4491864,-3.092872 12.5517594,-4.740514 m -7.361515,4.473357 c 7.319249,-2.680519 14.619238,-5.275255 22.021078,-7.640995 7.405013,-2.366754 14.474791,-5.474833 21.57346,-8.232723 l 2e-6,-10e-7 c 3.882355,-1.508326 7.915215,-3.024587 12.008219,-4.562039 M 38.44226,23.764014 c 7.307595,-2.690733 14.666053,-5.368433 22.157031,-7.919889 7.494189,-2.552549 14.54293,-5.57818 21.777366,-8.53741 l 2e-6,-1.1e-6 c 2.786663,-1.1398782 5.578002,-2.2114185 8.36588,-3.2539163 M 63.532232,14.853064 c 7.265482,-2.79852 14.647657,-5.6091465 22.105523,-8.6345929 4.774031,-1.9366901 9.415766,-3.6056943 14.064657,-5.2398907 2.616598,1.0472627 5.235468,2.1055523 7.881458,3.1333455 2.88173,1.1193587 5.72644,2.2106344 8.54593,3.2962198 M 90.588189,4.6819024 c 3.824937,-1.4262872 7.559674,-2.8503352 11.239041,-4.27826926 3.40088,1.30256356 6.75446,2.60180716 10.08824,3.89289366 6.94352,2.6890485 14.64659,5.5473243 22.08908,8.4483482 l 0,10e-7 c 3.15462,1.229645 6.25329,2.403571 9.3324,3.56056 m -23.49489,-4.491904 c 7.33385,2.751548 14.37476,5.379166 21.28746,7.952622 6.91566,2.574558 14.61361,5.495815 21.99534,8.291316 l 0,1e-6 c 4.84166,1.833562 9.57949,3.597119 14.2988,5.344024 m -25.49187,-12.61831 c 7.2802,2.706314 14.53472,5.356453 21.76801,7.87768 7.18651,2.504922 14.42333,5.54717 21.57227,8.515461 -5.7e-4,0.05539 -0.001,0.110772 -0.002,0.166152 -0.0367,3.462108 -0.0168,6.834329 0.0392,10.17833 M 180.03814,33.025896 c 5.59016,2.196215 11.2596,4.277493 16.89371,6.384505 -0.005,1.73317 -0.0139,3.468469 -0.0279,5.209247 -0.0629,7.79521 0.0209,15.542056 0.0656,23.288801 l 0,10e-7 c 0.0141,2.439309 0.0273,4.89158 0.0437,7.353842 m 0.29534,-30.580357 c -0.0334,7.77616 0.0785,15.730808 0.23911,23.867082 0.16073,8.13976 -0.0715,15.504137 -0.21563,23.18333 l 0,3e-6 c -0.11225,5.979256 -0.0156,12.10716 0.0869,18.24469 -0.0777,0.0308 -0.15532,0.0616 -0.23298,0.0924 m -3.15403,-32.894782 c -0.0834,7.76123 0.01,15.593962 0.0259,23.456942 0.006,3.05789 0.0112,6.08318 0.0179,9.0914 -4.44114,1.64539 -8.87821,3.24856 -13.30009,4.86984 -4.41409,1.61842 -8.86904,3.27546 -13.3312,4.91783 m 26.71016,-15.36254 c -0.0156,1.56922 -0.0312,3.13921 -0.0485,4.71174 -5.89303,2.25524 -11.81443,4.5511 -17.88198,7.00082 l -1e-5,0 c -7.58745,3.06338 -14.53159,5.30252 -21.74455,7.7171 l 0,0 c -4.27451,1.43092 -8.54917,3.09364 -12.77986,4.79164 m 26.65075,-8.42182 c -7.23964,2.80313 -14.52031,5.52819 -21.72352,8.39318 l 0,0 c -7.2063,2.86622 -14.68144,5.37279 -22.19924,7.93038 l 0,0 c -3.21298,1.09307 -6.33247,2.2636 -9.41319,3.471 m 16.47435,-4.52259 c -7.36748,2.65578 -14.49321,5.51735 -21.63899,8.3629 -3.23118,1.2867 -6.52252,2.52085 -9.83664,3.7347 -4.01821,-1.52148 -8.069891,-3.07278 -12.08838,-4.59643 -6.846166,-2.59579 -13.518556,-5.06074 -20.137013,-7.51303 m 25.710052,9.79234 c -7.323114,-2.77505 -14.580836,-5.51134 -21.903886,-8.34869 l -10e-7,0 c -7.326189,-2.83857 -14.398006,-5.45275 -21.348458,-8.16944 l -3e-6,0 c -3.556942,-1.39029 -7.30226,-2.78601 -11.102268,-4.18173 m 19.55633,7.00426 c -7.362202,-2.75159 -14.707849,-5.42068 -22.283523,-8.07684 l -3e-6,0 c -7.578921,-2.6573 -14.418612,-5.46947 -21.404709,-8.21163 -3.36415,-1.32049 -6.8546828,-2.63832 -10.3723691,-3.9575 -0.011601,-4.0368 -0.054677,-8.07517 -0.0054,-12.120119 4.07e-5,-0.0033 8.14e-5,-0.0067 1.22e-4,-0.01003 m 13.7445015,16.56865 c -5.111574,-1.9288 -10.1371721,-3.76244 -15.1722148,-5.55536 0.00469,-2.34178 0.00754,-4.67558 2.475e-4,-7.00612 -0.023762,-7.59798 0.01207,-15.566044 0.039844,-23.36146 l 0,-2e-6 c 0.0189,-5.304833 -0.00797,-10.666434 -0.054787,-16.101431 M 2.3531397,98.770413 c 0.0039,-7.795496 0.00656,-15.552983 0.021089,-23.335025 0.014532,-7.785377 0.00292,-15.431814 0.011719,-22.963018 l 0,-2e-6 c 0.00486,-4.163206 0.018864,-8.48792 0.046937,-12.849073 C 5.6897607,38.360901 8.95572,37.074987 12.23332,35.830411 m -1.057946,-0.481562 c 7.235015,-2.824915 14.572627,-5.478763 21.875875,-8.245497 7.306379,-2.767919 14.488614,-5.382799 21.615647,-7.958504 l 3e-6,-1e-6 c 2.519788,-0.91065 5.074597,-1.859844 7.643967,-2.826973 m -19.814357,9.071788 c 7.285666,-2.761788 14.547063,-5.500934 21.805497,-8.311203 7.261546,-2.811474 14.424473,-5.445128 21.430491,-8.1460045 l 2e-6,-9e-7 c 2.871092,-1.1068291 5.86292,-2.2070402 8.918342,-3.2941729 M 70.460054,15.005791 c 7.188194,-2.787598 14.51814,-5.5994813 21.711872,-8.6088256 3.178523,-1.3296673 6.395041,-2.5281942 9.627024,-3.6679805 4.08588,1.6087065 8.19648,3.3112925 12.28628,4.9614779 4.16059,1.6787459 8.2971,3.1837332 12.43245,4.6382092 M 97.534172,1.508242 c 1.051209,-0.4107809 2.106096,-0.81684609 3.164278,-1.21911065 6.2288,2.29890215 12.57174,4.72949345 18.95065,7.10516605 7.4658,2.7804556 14.51276,5.4465016 21.69299,8.1483476 l 10e-6,10e-7 c 2.79102,1.050235 5.63396,2.131185 8.51066,3.237629 m -24.07094,-5.345628 c 7.3535,2.647246 14.55296,5.566816 21.81947,8.512913 l 1e-5,1e-6 c 7.26962,2.947358 14.56493,5.288732 21.85001,7.670221 l 1e-5,1e-6 c 6.21252,2.030869 12.45681,4.579642 18.73701,6.997694 m -29.66738,-13.12204 c 7.2647,2.746058 14.63733,5.339145 22.06803,7.823723 5.43249,1.816444 10.65316,3.940654 15.84038,6.087559 -0.0496,2.149679 -0.10379,4.302438 -0.15357,6.444022 -0.0608,2.616621 -0.0906,5.183504 -0.1091,7.719673 M 193.0871,39.208902 c 0.55122,0.210332 1.10179,0.420542 1.65185,0.630738 0.0759,7.270597 0.0721,14.539147 0.21653,22.011658 l 0,3e-6 c 0.15622,8.079418 0.0112,15.447273 0.0352,23.005206 0.005,1.529587 0.007,3.075884 0.007,4.633377 m 2.51209,-27.366229 c 0.0321,7.67463 0.17867,15.51512 0.53199,23.220337 0.35347,7.708521 -0.0355,15.568928 -0.10781,23.368488 l 0,0 c -0.0101,1.08573 -0.0195,2.16988 -0.0288,3.25265 -2.73814,1.01764 -5.47582,2.02535 -8.22442,3.0266 m 6.55789,-28.238781 c -0.0171,7.149394 0.0428,14.230831 0.13331,21.343061 -0.61286,0.23312 -1.22546,0.4665 -1.83784,0.70024 l 0,0 c -7.17782,2.73965 -14.62835,5.54654 -22.03752,8.446 l 0,0 c -2.85397,1.11686 -5.66995,2.1895 -8.46987,3.24669 m 16.60652,-2.39524 c -7.3753,2.81009 -14.52365,5.46026 -21.72804,8.19396 -7.20748,2.73486 -14.42274,5.44222 -21.42112,8.12959 l 0,0 c -2.86796,1.1013 -5.85589,2.23217 -8.9053,3.38397 m 23.6685,-10.25472 c -7.2584,2.81405 -14.56793,5.53689 -21.86647,8.42598 l 0,0 c -7.30166,2.89034 -14.52745,5.43184 -21.73049,8.10148 l 0,0 c -2.29676,0.85124 -4.62128,1.72864 -6.96592,2.62621 -1.05649,-0.38031 -2.11707,-0.75653 -3.181028,-1.1292 m 26.246178,-6.51724 c -7.2809,2.79842 -14.44447,5.49505 -21.49848,8.29709 -0.59249,0.23536 -1.18838,0.47028 -1.78727,0.70489 -6.534342,-2.44355 -13.425764,-4.92352 -20.156501,-7.27127 -7.066631,-2.46491 -14.128083,-5.32764 -21.361329,-8.13903 m 21.542722,7.76277 C 74.130799,137.76341 66.78212,135.00375 59.211824,132.3851 l -3e-6,0 c -7.57354,-2.61977 -14.479548,-5.57618 -21.59455,-8.53975 l -3e-6,0 c -5.517178,-2.29804 -11.24671,-4.27284 -16.954106,-6.25044 m 18.267517,7.81178 c -7.319915,-2.77579 -14.48629,-5.46405 -21.62264,-8.20338 -4.537989,-1.74193 -9.2340859,-3.45919 -13.9789399,-5.15837 -0.066426,-2.813 -0.1488746,-5.62005 -0.2267456,-8.4224 -0.1927657,-6.937067 0.00951,-13.991322 0.1356289,-20.968262 M 3.7758511,101.70041 C 3.8225172,93.862805 3.6490665,86.135098 3.391416,78.323251 3.1336549,70.508055 3.4245641,62.765092 3.4945409,54.978201 l 10e-8,-2e-6 c 0.016622,-1.849683 0.022107,-3.694871 0.019316,-5.535858 M 3.4172795,73.042927 C 3.4811898,65.35357 3.3996434,57.626682 3.3609472,50.117922 3.3440249,46.834257 3.3413487,43.456949 3.3435456,40.052572 7.4455547,38.509552 11.555644,36.921648 15.6538,35.431009 19.379768,34.075747 23.084559,32.662411 26.767806,31.223661 M 195.89845,79.166406 v 8.042969 M 19.896257,116.24333 13.177364,113.72374"
       inkscape:path-effect="#path-effect1"
       inkscape:original-d="m 3.8984472,38.244149 95.9999998,-36 96.000003,36 v 72.000001 l -96.000003,36 -95.9999998,-36 z"
       transform="translate(0.2311325,0.8830586)" />
  </g>
</svg>
