<?xml version="1.0" encoding="UTF-8" standalone="no"?>
<svg
   height="120"
   width="160"
   version="1.1"
   id="svg2"
   sodipodi:docname="tile-grass.svg"
   inkscape:version="1.3.2 (091e20ef0f, 2023-11-25, custom)"
   xmlns:inkscape="http://www.inkscape.org/namespaces/inkscape"
   xmlns:sodipodi="http://sodipodi.sourceforge.net/DTD/sodipodi-0.dtd"
   xmlns="http://www.w3.org/2000/svg"
   xmlns:svg="http://www.w3.org/2000/svg">
  <defs
     id="defs2">
    <inkscape:path-effect
       effect="sketch"
       id="path-effect1"
       is_visible="true"
       lpeversion="1"
       nbiter_approxstrokes="3"
       parallel_offset="2;1"
       strokelength="70"
       strokelength_rdm="0.3;1"
       strokeoverlap="0.5"
       strokeoverlap_rdm="0.5;1"
       ends_tolerance="0.1;1"
       tremble_size="0.3;2139095038"
       tremble_frequency="3"
       nbtangents="2"
       tgt_places_rdmness="0.5;1"
       tgtlength="5"
       tgtlength_rdm="0.3;1"
       tgtscale="10" />
    <inkscape:path-effect
       effect="sketch"
       id="path-effect14"
       is_visible="true"
       lpeversion="1"
       nbiter_approxstrokes="3"
       parallel_offset="0.2;1"
       strokelength="70"
       strokelength_rdm="0.3;1"
       strokeoverlap="0.5"
       strokeoverlap_rdm="0.5;1"
       ends_tolerance="0.1;1"
       tremble_size="0.8;1"
       tremble_frequency="3"
       nbtangents="2"
       tgt_places_rdmness="0.5;1"
       tgtlength="5"
       tgtlength_rdm="0.3;1"
       tgtscale="10" />
  </defs>
  <sodipodi:namedview
     id="namedview2"
     pagecolor="#ffffff"
     bordercolor="#000000"
     borderopacity="0.25"
     inkscape:showpageshadow="2"
     inkscape:pageopacity="0.0"
     inkscape:pagecheckerboard="0"
     inkscape:deskcolor="#d1d1d1"
     inkscape:zoom="1.4142136"
     inkscape:cx="91.923882"
     inkscape:cy="95.459416"
     inkscape:window-width="1440"
     inkscape:window-height="831"
     inkscape:window-x="0"
     inkscape:window-y="0"
     inkscape:window-maximized="1"
     inkscape:current-layer="svg2" />
  <!-- Draw the shadow. -->
  <!-- Draw the tile background. -->
  <g
     id="g1"
     transform="matrix(0.96,0,0,0.96,1.6783629,-11.635516)"
     style="stroke-width:1.04166667;stroke-dasharray:none">
    <polygon
       points="40,60 0,45 0,15 40,0 80,15 80,45 "
       stroke="#000000"
       stroke-width="1"
       id="polygon2"
       fill="#66aa66"
       style="stroke:none;stroke-width:0.53363899;stroke-dasharray:none"
       transform="matrix(1.9520063,0,0,1.9520063,3.6614432,16.368992)" />
    <path
       id="path2"
       style="fill:none;stroke:#000000;stroke-width:1.2807336;stroke-dasharray:none"
       d="M 8.5375649,38.390034 C 15.881825,35.717176 23.231915,32.957052 30.783612,30.275591 38.338545,27.592981 45.305605,24.85561 52.50004,22.209274 l 2e-6,-1e-6 c 2.973599,-1.093781 5.971154,-2.228084 8.97418,-3.384987 m -16.843915,3.44882 c 7.314513,-2.753247 14.54971,-5.541133 21.807804,-8.433089 l 2e-6,-10e-7 C 73.699319,10.946821 80.967839,8.3462364 88.177979,5.5510431 89.282306,5.122923 90.387891,4.6975072 91.493959,4.2740938 M 77.839717,11.795772 c 7.275558,-2.7968561 14.578348,-5.4861574 21.892229,-8.271314 0.11568,-0.044052 0.231339,-0.088101 0.346974,-0.1321482 7.19867,2.6335347 14.31511,5.2740844 21.4468,7.7659732 1.72126,0.601426 3.44052,1.230982 5.15627,1.880646 M 114.08185,8.8062062 c 7.27152,2.6659068 14.41,5.5089768 21.39536,8.3394508 6.98835,2.831687 14.58504,5.497988 21.90393,8.305379 l 0,1e-6 c 6.24134,2.394066 12.42478,4.609674 18.6207,6.788213 M 145.44953,18.538213 c 7.29895,2.665129 14.57697,5.510593 21.89455,8.341796 l 0,10e-7 c 7.32072,2.832417 14.58306,5.405797 21.89924,8.028817 2.0052,0.718909 3.99078,1.45496 5.95874,2.201402 -0.0275,2.0927 -0.0721,4.195432 -0.13178,6.301789 M 181.28397,31.779177 c 4.88368,1.793804 9.87056,3.710659 14.87365,5.664265 0.0263,2.537182 0.0563,5.082531 0.0807,7.627005 l 0,2e-6 c 0.0762,7.945391 -0.009,15.49685 -0.0234,23.155207 -0.004,2.276857 -0.003,4.574999 0.004,6.885103 m 0.0987,-13.631208 c -9e-4,7.824276 -0.13686,15.476321 -0.41484,23.107645 l 0,2e-6 c -0.2781,7.634595 0.0171,15.565682 0.0469,23.359112 0.005,1.31259 0.0121,2.62515 0.0216,3.93792 -0.52482,0.19957 -1.04918,0.39917 -1.57304,0.59883 m 2.52882,-16.744166 c 0.0287,4.508536 0.006,9.006646 -0.0381,13.528846 -3.12449,1.19596 -6.26115,2.40506 -9.39852,3.64118 -7.39035,2.9118 -14.65465,5.38285 -22.1219,7.95382 l 0,0 c -0.80243,0.27627 -1.59947,0.55617 -2.39182,0.83909 m 9.42749,-5.21506 c -7.34641,2.75554 -14.47873,5.49598 -21.59682,8.30183 l -1e-5,0 c -7.12115,2.80705 -14.58118,5.53203 -21.8922,8.40382 l -1e-5,0 c -5.59207,2.19658 -11.19235,4.18127 -16.83713,6.1411 m 27.90587,-8.84117 c -7.18421,2.79061 -14.42436,5.47184 -21.43297,8.22679 -5.82157,2.28835 -12.091,4.54486 -18.34311,6.81098 -1.278052,-0.46378 -2.555378,-0.92716 -3.828007,-1.38978 -5.471644,-1.98904 -10.705919,-4.01843 -15.953759,-6.08152 m 23.804086,4.61638 c -1.88571,0.71036 -3.76774,1.41951 -5.644547,2.12753 -5.339464,-2.02537 -10.636689,-4.0599 -15.85631,-6.10165 -7.057329,-2.76061 -14.636478,-5.63766 -22.063303,-8.71554 l -3e-6,0 c -3.461298,-1.43445 -6.876082,-2.67684 -10.28764,-3.8327 m 19.145754,7.31996 c -7.337914,-2.79687 -14.566769,-5.50542 -21.859336,-8.32756 l -10e-7,0 c -7.295692,-2.82335 -14.605991,-5.5282 -21.969552,-8.38741 l -3e-6,0 c -5.166278,-2.00603 -10.274903,-3.82798 -15.410247,-5.59819 m 25.378666,12.99225 C 28.354245,121.3667 21.186485,118.64372 14.069489,115.81962 10.645828,114.46107 7.1327836,113.16438 3.5842446,111.89836 3.5337887,107.91143 3.4419581,103.96026 3.3765722,100.00561 3.3125605,96.13407 3.2810975,92.1888 3.232621,88.233257 M 3.2703133,108.7699 C 3.2634668,100.9931 3.4685354,93.200349 3.8656347,85.380945 4.2629042,77.558189 3.6766325,69.890182 3.3031348,62.239802 l -10e-8,-3e-6 C 3.2262325,60.664606 3.18745,59.074468 3.1769901,57.472683 m 0.7809124,11.103798 c 0.062374,-7.692603 0.00939,-15.565473 0.030388,-23.367969 0.00799,-2.968586 0.019769,-5.916457 0.038766,-8.848178 4.5439349,-1.64969 9.1070271,-3.256496 13.7040821,-4.840163 2.75314,-0.948446 5.45091,-1.95279 8.114383,-2.985962 M 10.379793,35.95611 c 7.319249,-2.680519 14.619281,-5.27536 22.021078,-7.640995 7.404971,-2.36665 14.474713,-5.474861 21.573462,-8.232724 5.329878,-2.070657 10.943309,-4.156303 16.606618,-6.291192 m -27.206379,8.123197 c 7.307596,-2.690733 14.665894,-5.368665 22.157031,-7.919888 l 3e-6,-10e-7 C 73.025955,11.442191 80.074308,8.4165859 87.308972,5.4570968 91.260294,3.8407264 95.220917,2.3618497 99.1677,0.90840667 c 2.69835,1.04580813 5.39023,2.10350463 8.06824,3.13727863 M 77.052254,9.7830558 C 84.317737,6.9845354 91.699982,4.1741125 99.157777,1.1484626 99.314669,1.084811 99.471418,1.0214487 99.62803,0.95836741 c 7.29102,2.41031649 14.28305,5.42961589 21.47587,8.22356679 6.91135,2.6846188 13.60954,5.2076688 20.25739,7.8779148 M 112.82419,4.5089186 c 7.36036,2.7149594 14.38675,5.4382151 21.32727,8.1261064 6.9435,2.689044 14.64658,5.54732 22.08909,8.448348 l 0,10e-7 c 3.46861,1.352035 6.86956,2.636703 10.25125,3.905562 m -21.95468,-3.914757 c 7.33385,2.751549 14.37477,5.379192 21.28746,7.952622 l 1e-5,1e-6 c 6.91565,2.574533 14.61362,5.495796 21.99533,8.291317 2.19498,0.831259 4.36863,1.648125 6.52889,2.455571 -0.007,3.165153 -0.0395,6.312594 -0.0766,9.455152 M 179.6776,31.187863 c 5.26375,1.956726 10.51413,3.884024 15.7527,5.754537 -0.009,2.113815 -0.0206,4.219296 -0.0334,6.314907 l 0,2e-6 c -0.0463,7.569244 -0.0415,15.683148 -0.12657,23.717706 -0.0711,6.710417 0.0705,13.083266 0.27417,19.567445 m 1.45307,-27.911883 c -0.0811,7.872677 -0.0308,15.555159 -0.0936,23.346645 l 0,2e-6 c -0.0628,7.794825 0.0211,15.541769 0.0656,23.288796 0.0116,2.02478 0.0227,4.05844 0.0355,6.0993 -4.91381,1.87607 -9.81575,3.80081 -14.66454,5.74478 m 14.9681,-24.916861 c -0.0248,5.772411 0.0304,11.643171 0.12629,17.613571 -1.84249,0.77258 -3.68008,1.55717 -5.51444,2.35381 -7.12186,3.09296 -14.63659,5.41053 -22.06331,8.04288 l 0,0 c -6.25498,2.21704 -12.26552,4.60803 -18.28863,6.99699 m 24.90277,-11.04688 c -7.36285,2.71658 -14.54915,5.5046 -21.81243,8.32298 l 0,0 c -7.2664,2.8196 -14.54108,5.42332 -21.77502,8.07569 l -1e-5,1e-5 c -7.10988,2.60688 -14.32562,5.31389 -21.50695,7.89833 m 32.31941,-12.71652 c -7.35753,2.80243 -14.71334,5.62413 -22.29759,8.68615 l 0,0 c -7.58751,3.06333 -14.53157,5.30254 -21.744556,7.7171 l -2e-6,0 c -0.612639,0.20508 -1.225281,0.41492 -1.837795,0.62895 -4.371028,-1.78322 -8.735562,-3.35339 -13.046453,-4.92083 m 25.150036,2.01361 c -3.67909,1.42451 -7.36877,2.82889 -11.053495,4.2417 -3.566006,-1.31781 -7.127376,-2.62771 -10.670032,-3.9038 -7.206342,-2.59579 -14.681321,-5.55127 -22.199242,-8.45538 l -10e-7,0 c -1.045747,-0.40397 -2.081591,-0.79973 -3.109417,-1.1887 m 13.44409,5.76766 c -7.367475,-2.8038 -14.493322,-5.40182 -21.638985,-8.01583 l -2e-6,0 c -7.148726,-2.61513 -14.59234,-5.48765 -21.92502,-8.26788 l -3e-6,0 c -4.577475,-1.73558 -9.077434,-3.41277 -13.535487,-5.06676 m 20.659806,7.92779 c -7.323114,-2.77505 -14.58085,-5.51117 -21.903886,-8.34868 -5.387253,-2.08744 -10.6369292,-4.05329 -15.8019984,-6.02791 0.068423,-2.04636 0.1478048,-4.09385 0.2356771,-6.14856 0.08237,-1.92605 0.120478,-3.85335 0.1295527,-5.781299 m 5.029851,13.543659 C 6.5401118,111.74596 5.4992643,111.35848 4.4580494,110.97245 4.3867583,104.29766 4.3019231,97.676528 4.047666,91.064559 3.7514015,83.36019 4.1939551,75.501216 4.4906346,67.712479 l 1e-7,-3e-6 C 4.6455915,63.64439 4.6517632,59.579341 4.6358366,55.512246 M 3.496986,76.076529 C 3.5756491,68.236544 3.4102836,60.46206 3.2414159,52.558749 3.1347083,47.564638 3.1582416,42.710073 3.1840796,37.896603 5.8818239,36.94846 8.5803521,36.014294 11.254286,35.074577 18.337592,32.585247 25.477698,29.743341 32.611497,27.053264 M 7.9207812,37.054436 C 15.229061,34.32155 22.475781,31.620297 29.747343,28.942415 37.022022,26.263384 44.318922,23.476331 51.616115,20.737817 l 2e-6,-1e-6 c 3.375229,-1.266667 6.744777,-2.503615 10.113342,-3.713195 m -15.78764,5.229188 C 53.155821,19.508425 60.555531,16.791045 67.946627,14.059773 75.340892,11.32733 82.525363,8.5785918 89.831806,5.8106435 l 2e-6,-1.1e-6 C 93.391122,4.4622437 96.920935,3.1501642 100.42925,1.861249 m -19.631467,9.434667 c 6.80518,-2.5847405 13.829172,-5.2699593 20.906687,-8.0799432 0.42523,0.1406031 0.85066,0.2807558 1.27625,0.4204529 l 0,7e-7 c 7.51215,2.4658344 14.55342,5.4206487 21.81486,8.0710046 5.42651,1.98062 10.79816,4.060567 16.09026,6.13764 M 115.54037,8.180967 c 7.29192,2.662002 14.56842,5.501012 21.87111,8.316019 l 0,1e-6 c 7.30583,2.816212 14.52418,5.322063 21.72112,7.773347 5.90963,2.012828 11.95035,4.478936 17.97779,6.933104 M 148.71944,18.240019 c 7.31984,2.751586 14.38928,5.422765 21.33202,8.083872 6.94571,2.662248 14.65833,5.487373 22.12424,8.267879 l 0,1e-6 c 1.64245,0.611693 3.26463,1.217846 4.8724,1.820059 0.0112,3.39318 -0.0341,6.770891 -0.0902,10.145572 M 182.40387,34.808703 c 4.66536,1.760364 9.2556,3.458908 13.79594,5.119723 -0.0588,2.76881 -0.13375,5.52547 -0.22011,8.274383 l 0,3e-6 c -0.23865,7.596244 -0.006,15.662569 -0.0188,23.656768 -0.01,6.170826 -0.005,11.980568 -5.7e-4,17.726384 m 0.41388,-30.799706 c 0.0203,7.719221 -0.0168,15.69707 -0.0493,23.766373 l 0,3e-6 c -0.0325,8.072762 0.0785,15.435379 0.22969,22.967706 0.0221,1.10071 0.0357,2.21373 0.0423,3.33678 m -2.10091,-10.490281 c -0.008,4.467211 0.0187,8.974961 0.0712,13.480551 -3.01963,1.1443 -6.02571,2.28746 -9.02169,3.41324 l 0,0 c -7.13554,2.68129 -14.48502,5.6107 -21.61096,8.64288 l 0,0 c -6.80331,2.89491 -13.88184,5.14173 -20.82562,7.52474 m 34.36286,-12.14514 c -7.31541,2.82579 -14.68815,5.59324 -22.22733,8.59471 l -10e-6,1e-5 c -7.54241,3.00276 -14.38671,5.42798 -21.31564,8.08975 l 0,0 c -6.07932,2.33539 -12.73046,4.78743 -19.23765,7.21302 m 27.56128,-14.62629 c -7.2124,2.69387 -14.5648,5.38773 -21.85481,7.97145 -6.72958,2.38509 -13.39452,5.02153 -20.02362,7.56717 -0.555143,-0.20887 -1.110031,-0.41839 -1.664685,-0.62873 -1.402217,-0.53178 -2.814831,-1.061 -4.235504,-1.58747 m 13.816629,3.74292 c -2.40933,0.9256 -4.83686,1.82852 -7.27474,2.71315 -4.858412,-1.87242 -9.757914,-3.81746 -14.636321,-5.80034 l -10e-7,0 c -7.329452,-2.97913 -14.529881,-5.46106 -21.737521,-8.18819 l -2e-6,0 c -4.803491,-1.81748 -9.610301,-3.64717 -14.35406,-5.48679 m 23.905473,7.73932 c -7.231056,-2.82419 -14.501541,-5.54732 -21.667286,-8.45643 l -10e-7,0 c -7.168816,-2.91036 -14.574185,-5.38438 -21.875802,-7.95616 l -3e-6,0 c -6.072599,-2.1389 -12.092657,-4.51885 -18.090963,-6.8657 m 27.34704,12.09307 c -7.234971,-2.71274 -14.521433,-5.58419 -21.725874,-8.56673 -4.322981,-1.78966 -8.6587081,-3.38465 -12.9594854,-4.9483 0.044843,-3.06317 0.1052471,-6.11239 0.1953824,-9.19618 0.059832,-2.04703 0.085706,-4.098463 0.090216,-6.150157 M 5.1017838,111.80989 c -0.031687,-0.0121 -0.063374,-0.0242 -0.095061,-0.0363 C 5.0920265,104.01548 5.1554778,96.336038 5.4554784,88.675115 5.7569356,80.977 5.3079276,73.174724 5.0171973,65.508191 l -1e-7,-3e-6 C 4.930762,63.2289 4.9033072,60.919872 4.9117991,58.589744 M 3.2476589,75.11299 c -0.00547,-7.744118 -0.01487,-15.638196 -0.04218,-23.588216 -0.013483,-3.925017 0.00404,-7.765566 0.042434,-11.585059 3.7280205,-1.363894 7.4780226,-2.705608 11.2390416,-4.093698 1.241734,-0.458289 2.472547,-0.914879 3.694422,-1.369884 M 195.89845,79.166406 v 8.042969 M 19.896257,116.24333 13.177364,113.72374"
       inkscape:path-effect="#path-effect1"
       inkscape:original-d="m 3.8984472,38.244149 95.9999998,-36 96.000003,36 v 72.000001 l -96.000003,36 -95.9999998,-36 z"
       transform="matrix(0.81333594,0,0,0.81333594,0.40809944,13.928984)" />
  </g>
</svg>
