<?xml version="1.0" encoding="UTF-8" standalone="no"?>
<svg
   height="130"
   width="250"
   version="1.1"
   id="svg1"
   sodipodi:docname="usecase-8.svg"
   inkscape:version="1.3.2 (091e20ef0f, 2023-11-25, custom)"
   xmlns:inkscape="http://www.inkscape.org/namespaces/inkscape"
   xmlns:sodipodi="http://sodipodi.sourceforge.net/DTD/sodipodi-0.dtd"
   xmlns="http://www.w3.org/2000/svg"
   xmlns:svg="http://www.w3.org/2000/svg">
  <defs
     id="defs1">
    <inkscape:path-effect
       effect="sketch"
       id="path-effect4"
       is_visible="true"
       lpeversion="1"
       nbiter_approxstrokes="3"
       parallel_offset="1;4028679504"
       strokelength="70"
       strokelength_rdm="0.3;1"
       strokeoverlap="0.5"
       strokeoverlap_rdm="0.5;1"
       ends_tolerance="0.1;1"
       tremble_size="0.8;1"
       tremble_frequency="3"
       nbtangents="2"
       tgt_places_rdmness="0.5;1"
       tgtlength="5"
       tgtlength_rdm="0.3;1"
       tgtscale="10" />
    <inkscape:path-effect
       effect="sketch"
       id="path-effect3"
       is_visible="true"
       lpeversion="1"
       nbiter_approxstrokes="3"
       parallel_offset="2;1"
       strokelength="70"
       strokelength_rdm="0.3;1"
       strokeoverlap="0.5"
       strokeoverlap_rdm="0.5;1"
       ends_tolerance="0.1;1"
       tremble_size="0.8;1"
       tremble_frequency="3"
       nbtangents="2"
       tgt_places_rdmness="0.5;1"
       tgtlength="5"
       tgtlength_rdm="0.3;1"
       tgtscale="10" />
    <inkscape:path-effect
       effect="sketch"
       id="path-effect2"
       is_visible="true"
       lpeversion="1"
       nbiter_approxstrokes="3"
       parallel_offset="2;1"
       strokelength="70"
       strokelength_rdm="0.3;1"
       strokeoverlap="0.5"
       strokeoverlap_rdm="0.5;1"
       ends_tolerance="0.1;1"
       tremble_size="0.8;1"
       tremble_frequency="3"
       nbtangents="2"
       tgt_places_rdmness="0.5;1"
       tgtlength="5"
       tgtlength_rdm="0.3;1"
       tgtscale="10" />
    <inkscape:path-effect
       effect="sketch"
       id="path-effect6"
       is_visible="true"
       lpeversion="1"
       nbiter_approxstrokes="3"
       parallel_offset="0.2;1"
       strokelength="70"
       strokelength_rdm="0.3;1"
       strokeoverlap="0.5"
       strokeoverlap_rdm="0.5;1"
       ends_tolerance="0.1;1"
       tremble_size="0.8;1"
       tremble_frequency="3"
       nbtangents="2"
       tgt_places_rdmness="0.5;1"
       tgtlength="5"
       tgtlength_rdm="0.3;1"
       tgtscale="10" />
    <inkscape:path-effect
       effect="sketch"
       id="path-effect5"
       is_visible="true"
       lpeversion="1"
       nbiter_approxstrokes="3"
       parallel_offset="0.2;1"
       strokelength="70"
       strokelength_rdm="0.3;1"
       strokeoverlap="0.5"
       strokeoverlap_rdm="0.5;1"
       ends_tolerance="0.1;1"
       tremble_size="0.8;1"
       tremble_frequency="3"
       nbtangents="2"
       tgt_places_rdmness="0.5;1"
       tgtlength="5"
       tgtlength_rdm="0.3;1"
       tgtscale="10" />
    <inkscape:path-effect
       effect="sketch"
       id="path-effect1"
       is_visible="true"
       lpeversion="1"
       nbiter_approxstrokes="3"
       parallel_offset="0.2;1"
       strokelength="70"
       strokelength_rdm="0.3;1"
       strokeoverlap="0.5"
       strokeoverlap_rdm="0.5;1"
       ends_tolerance="0.1;1"
       tremble_size="0.8;1"
       tremble_frequency="3"
       nbtangents="2"
       tgt_places_rdmness="0.5;1"
       tgtlength="5"
       tgtlength_rdm="0.3;1"
       tgtscale="10" />
  </defs>
  <sodipodi:namedview
     id="namedview1"
     pagecolor="#ffffff"
     bordercolor="#000000"
     borderopacity="0.25"
     inkscape:showpageshadow="2"
     inkscape:pageopacity="0.0"
     inkscape:pagecheckerboard="0"
     inkscape:deskcolor="#d1d1d1"
     inkscape:zoom="2.152"
     inkscape:cx="125"
     inkscape:cy="65.055762"
     inkscape:window-width="1440"
     inkscape:window-height="831"
     inkscape:window-x="0"
     inkscape:window-y="0"
     inkscape:window-maximized="1"
     inkscape:current-layer="svg1"
     showgrid="false" />
  <g
     id="g1">
    <path
       id="ellipse1"
       style="fill:#cccccc;fill-opacity:1;stroke:none;stroke-width:0.6;stroke-dasharray:none"
       d="M 23.539818,35.260245 A 117.6,58.8 0 0 0 7.47224,64.893448 a 117.6,58.8 0 0 0 117.6,58.800002 117.6,58.8 0 0 0 107.53242,-35.1668 117.6,58.8 0 0 1 -101.53242,29.1668 117.6,58.8 0 0 1 -117.6,-58.800002 117.6,58.8 0 0 1 10.067578,-23.633203 z" />
    <path
       style="fill:none;fill-opacity:0.12549;stroke:#000000;stroke-width:1.66666667;stroke-dasharray:none"
       id="path1"
       inkscape:path-effect="#path-effect4"
       sodipodi:type="arc"
       sodipodi:cx="200"
       sodipodi:cy="100"
       sodipodi:rx="196"
       sodipodi:ry="98"
       d="m 395.21145,105.76438 c -0.30732,4.77894 -1.5625,9.67291 -3.59166,14.51492 -1.06084,2.53138 -2.32962,5.04022 -3.77613,7.50213 -2.17371,3.6996 -4.74332,7.31971 -7.74946,10.78646 -2.10807,2.43107 -4.4438,4.80176 -7.02948,7.08382 -2.30487,2.03421 -4.79175,4.22943 -7.24168,6.31612 m 14.09515,-13.20486 c -4.83075,5.39717 -10.41028,10.73482 -16.84617,15.2336 -5.46424,3.81958 -12.63229,8.9253 -19.39064,12.93312 0,0 -10e-6,0 -10e-6,0 -1.01502,0.60193 -2.04767,1.18795 -3.0978,1.76133 m 12.00396,-7.53477 c -4.38163,2.56022 -8.91249,5.15301 -13.35086,7.46476 -2.03886,1.06194 -4.09949,2.0866 -6.17762,3.04999 -6.15087,2.85144 -14.30757,6.27118 -22.62752,9.63154 0,0 0,0 0,0 -1.88245,0.76031 -3.69752,1.40345 -5.47082,1.9562 m 13.47793,-4.91457 c -7.16706,2.68373 -14.20599,5.07541 -21.3215,7.09709 -6.53724,1.85737 -14.30113,3.91823 -21.74893,5.76132 7.3e-4,-1.8e-4 -0.76875,0.18974 -0.76802,0.18956 -6.39469,1.57412 -13.02116,2.71603 -20.11169,4.06382 m 30.89588,-6.00348 c -3.10939,0.80035 -6.31812,1.48489 -9.60239,2.07376 -4.40719,0.7902 -8.92387,1.40342 -13.48699,1.89409 -7.72267,0.83041 -15.38751,2.12269 -23.38265,2.56401 -4.28596,0.23657 -8.42096,0.6652 -12.52075,1.13097 m 22.78205,-1.56352 c -7.39707,1.04418 -15.37031,1.66258 -23.20345,2.07479 -7.7282,0.40669 -15.76988,0.53276 -24.07909,0.10491 0,0 0,0 0,0 -0.53482,-0.0275 -1.06544,-0.0529 -1.59228,-0.0764 -1.90152,-0.0849 -3.75357,-0.1462 -5.57541,-0.20114 m 15.19787,-0.85228 c -3.53499,0.12454 -7.11689,0.28913 -10.68387,0.51039 -4.06842,0.25235 -8.10823,0.57786 -12.02998,1.00027 0,0 -1e-5,0 -1e-5,0 -7.38469,0.7954 -15.50576,-1.21535 -22.96008,-2.88059 -1.81725,-0.40595 -3.66927,-0.68745 -5.54375,-0.88617 m 14.98875,3.19785 c -7.83748,-0.67939 -15.7379,-1.29644 -23.82582,-2.30697 -8.22128,-1.0272 -15.4366,-2.42955 -22.78396,-4.21302 -0.80401,-0.19516 -1.60735,-0.38434 -2.4088,-0.56859 m 13.51755,3.47396 c -4.07357,-0.63874 -8.1619,-1.51124 -12.19991,-2.55791 -3.58864,-0.93019 -7.14284,-1.99933 -10.61895,-3.16745 -7.72931,-2.59737 -15.394721,-3.96308 -22.852995,-6.2416 -5.956362,-1.81969 -11.472077,-3.787 -16.599897,-5.67038 m 25.247922,8.20397 c -7.656001,-2.17922 -14.753431,-4.87631 -21.148971,-7.8771 -5.828392,-2.73468 -12.539799,-5.1723 -18.804079,-7.85685 -1.132731,-0.48543 -2.250161,-0.9775 -3.350011,-1.48041 -5.630436,-2.57451 -10.201491,-5.62733 -14.259706,-8.76765 M 67.375201,173.396 c -1.998282,-0.9458 -3.969711,-1.91576 -5.913286,-2.91607 -5.196012,-2.67427 -10.125148,-5.53094 -14.758385,-8.65481 0,0 -3e-6,0 -3e-6,0 -7.181714,-4.84214 -13.201364,-9.24549 -18.786831,-14.70045 -2.828777,-2.76268 -5.316542,-5.2953 -7.574973,-7.84969 m 13.690457,14.43291 c -6.396558,-5.06466 -11.869652,-10.69954 -16.388306,-17.01372 -0.129377,-0.18079 -0.257934,-0.36208 -0.385668,-0.54388 0,0 -1e-6,0 -1e-6,0 C 12.46341,129.32603 9.1431294,124.84221 6.8447679,119.42252 6.5799657,118.7981 6.3333917,118.16977 6.1050023,117.53465 4.4561966,112.9496 3.4574782,107.27731 3.4230641,101.66312 m 7.8231989,23.91639 c -1.188374,-2.18205 -2.25437,-4.39123 -3.1790389,-6.60495 -2.0318379,-4.86437 -3.3625926,-9.7065 -3.8481343,-14.31971 -0.1207614,-1.14737 -0.1818508,-2.34238 -0.1849478,-3.57251 -0.015421,-6.125567 1.4115283,-13.154505 4.0717061,-19.610672 0,0 4e-7,-10e-7 4e-7,-10e-7 -3.4e-6,8e-6 0.04449,-0.107742 0.044487,-0.107734 C 9.651738,77.735871 11.412167,74.27751 13.478838,70.950898 M 4.4576246,90.568807 c 0.6583015,-3.115495 1.5902148,-6.171996 2.8078387,-9.18555 1.6669715,-4.125664 3.8680167,-8.167153 6.6431237,-12.192347 1.463366,-2.122561 3.045397,-4.198072 4.754318,-6.223075 3.178422,-3.766302 6.807923,-7.373038 10.982896,-10.823648 1.213842,-1.003239 2.455595,-2.016492 3.716191,-3.027184 m -11.975878,9.327748 c 4.970639,-5.146349 11.144366,-10.652789 18.32727,-16.136148 6.608481,-5.044849 12.378878,-8.189092 19.368839,-12.167366 0.221272,-0.125935 0.444312,-0.250933 0.669088,-0.375018 2.183478,-1.205365 4.522305,-2.319902 6.984911,-3.367038 M 51.48549,36.457935 c 2.83115,-1.534368 5.854354,-3.108275 8.998936,-4.639227 3.917237,-1.907122 8.102997,-3.786909 12.436398,-5.467616 7.249344,-2.811654 14.298437,-5.798382 22.08557,-8.632276 10e-7,-1e-6 2e-6,-1e-6 3e-6,-1e-6 5.584053,-2.032148 11.087253,-3.432156 16.841333,-4.735913 m -25.712565,7.284637 c 7.203289,-2.552381 14.315845,-4.659324 21.517695,-6.276035 5.21837,-1.171448 11.01989,-2.860551 17.05718,-4.6401518 1.95344,-0.5758105 3.93629,-1.1622565 5.88315,-1.72747 7.11179,-2.0647048 13.98005,-2.486717 21.23805,-3.1821324 m -30.93863,5.022548 c 1.7449,-0.3693258 3.47674,-0.7160927 5.20065,-1.0380023 5.86041,-1.0943252 11.64402,-1.9045219 17.61874,-2.3449502 7.37282,-0.5434887 14.59075,-1.9584997 21.96356,-2.5019884 6.47442,-0.4668814 14.64105,-1.0509379 22.34217,-1.2883014 M 154.8153,4.6195954 c 7.46062,-1.1568505 15.39162,-1.5555159 23.27575,-1.9355084 7.3212,-0.3528614 14.94368,-0.4305183 22.91108,-0.073473 0.49393,0.022134 0.98915,0.045938 1.48569,0.071448 3.95975,0.203438 7.50747,0.2518215 10.85462,0.2707976 m -21.09257,-0.041664 c 2.72592,-0.022216 5.42147,-0.034679 8.10627,-0.026553 5.16038,0.01562 10.27838,0.1072915 15.51234,0.3516107 0,0 0,0 0,0 8.01507,0.3741398 15.24528,0.4407314 22.2547,0.4132889 5.0042,-0.019592 10.80553,1.0378089 16.57743,2.2937246 M 228.64973,3.8343948 c 7.60384,0.6775163 15.91805,1.2183136 24.22287,1.9167154 8.43448,0.7093068 15.13583,2.3413131 21.73769,3.7641678 -2e-5,-4.6e-6 0.0909,0.019605 0.0908,0.0196 5.77293,1.246662 12.69332,2.974279 19.35221,4.991736 M 264.2655,7.3845388 c 3.49458,0.6099184 6.9825,1.2752383 10.43941,1.9909833 4.19119,0.8677779 8.33433,1.8091529 12.39073,2.8159769 7.74142,1.921467 15.11774,3.899105 22.06217,5.913902 6.87066,1.993393 13.97963,5.051336 20.22935,7.900684 M 298.63154,15.644527 c 7.46236,2.191369 15.10901,4.800092 22.1957,7.611284 6.19427,2.457178 11.84335,5.280342 17.09467,8.509876 1.20858,0.743272 2.39523,1.507571 3.56124,2.293015 5.71952,3.85276 11.73964,6.656316 17.24134,9.851643 M 333.15626,28.137751 c 1.9549,0.898693 3.8762,1.822457 5.76309,2.770313 5.26619,2.645406 10.26351,5.478114 14.97049,8.474646 0,0 0,10e-7 0,10e-7 7.14554,4.548957 12.97207,8.972229 17.97634,13.755666 3.14095,3.002336 6.27672,6.143613 9.23469,9.437773 2.35216,2.619489 4.53586,5.273987 6.4772,7.957233 M 364.45998,44.986989 c 6.63815,4.937337 11.8519,10.233177 15.6818,15.629904 0.23906,0.336859 0.48259,0.676688 0.72938,1.018717 4.47718,6.205043 9.16297,12.141201 12.64078,19.274553 0.0641,0.131465 0.12759,0.26302 0.19047,0.394666 0,10e-7 0,10e-7 0,10e-7 2.65644,5.561169 3.46885,10.542638 3.37634,15.365761 m -9.39468,-25.672737 c 1.60175,2.719909 2.97577,5.548685 4.09418,8.430399 1.72472,4.443948 2.83815,9.003369 3.26882,13.527895 0.18356,1.928479 0.28376,3.870797 0.29258,5.830542 0.0265,5.90057 -0.77635,11.92472 -2.59182,18.10386 -0.20282,0.69031 -0.42152,1.368 -0.65566,2.03406 -0.13889,0.39513 -0.2832,0.78612 -0.43284,1.1732 m 2.66658,-14.71224 c -0.68754,4.07988 -1.77626,8.40207 -3.35621,12.82848 -1.18278,3.3137 -2.64931,6.70806 -4.43359,10.08199 -1.83908,3.47755 -4.04551,6.51045 -6.62523,9.33784 -2.58055,2.8283 -5.44022,5.35453 -8.68011,8.01799 -3.59506,2.95544 -7.23334,6.10771 -11.06895,9.20395 m 19.43791,-15.99583 c -4.76222,5.40886 -10.68988,10.62109 -17.6747,15.36887 -5.99679,4.07618 -12.82449,8.69368 -20.01566,12.60462 0,0 -1e-5,0 -1e-5,0 -1.30735,0.71101 -2.61959,1.40763 -3.94077,2.09416 -0.42007,0.21828 -0.84089,0.43546 -1.26261,0.65169 m 12.95486,-6.29768 c -4.06986,2.25311 -7.71196,4.38184 -11.866,6.75919 -2.59918,1.4875 -5.26954,2.99615 -7.93902,4.42674 -6.38304,3.42073 -13.91426,5.63995 -21.53459,7.8786 0,0 0,0 0,0 -3.77017,1.10757 -7.67913,2.34389 -11.98408,3.68067 m 20.61861,-7.73914 c -6.92675,2.70215 -14.09496,4.8688 -21.09574,6.6981 -5.79302,1.51372 -13.12712,3.19675 -20.35252,4.37951 -0.97319,0.15931 -1.94541,0.30969 -2.9123,0.4494 -7.82155,1.13013 -14.94153,2.9793 -23.1257,4.73948 m 33.24406,-6.32593 c -2.74021,0.65664 -5.54732,1.25383 -8.40299,1.79069 -4.75288,0.89353 -9.63015,1.61799 -14.5342,2.16959 -7.62244,0.85737 -15.25869,2.12251 -22.96771,2.66878 -3.52809,0.25001 -7.05018,0.54616 -10.60409,0.83161 m 19.47566,-0.96449 c -7.78162,0.91532 -15.40859,1.68129 -23.20419,2.2255 -7.72888,0.53955 -15.4491,1.00846 -23.08787,1.62031 -0.064,0.005 -0.12801,0.0102 -0.19203,0.0151 -3.65088,0.28169 -7.34357,0.26222 -11.01895,0.14247 m 21.35235,-0.95555 c -3.20571,0.0872 -6.3391,0.1669 -9.38988,0.24379 -4.40659,0.11108 -8.61424,0.21575 -12.73586,0.33146 0,0 0,0 0,0 -6.97797,0.19589 -15.65987,-0.71599 -23.37369,-1.30485 -5.86561,-0.44776 -11.71219,-1.18695 -17.53235,-2.02026 m 26.1573,1.79081 c -8.14152,-0.81965 -15.94257,-1.25019 -24.08409,-2.06984 -8.35855,-0.85101 -15.44015,-2.36991 -22.70116,-3.97263 -0.59341,-0.13098 -1.18676,-0.26313 -1.77993,-0.39666 -5.61932,-1.26498 -11.1472,-2.63701 -16.42955,-4.26098 m 29.49224,5.91532 c -4.03138,-0.66578 -8.08327,-1.42469 -12.09062,-2.24992 -3.63797,-0.74916 -7.24548,-1.55425 -10.77647,-2.3964 -7.75557,-1.84973 -14.856862,-3.95404 -21.287759,-6.19495 -4.470472,-1.55778 -9.494966,-3.35728 -14.543486,-5.33628 m 22.225625,8.35313 c -7.947007,-2.36713 -14.758831,-4.82477 -21.251249,-7.73053 -5.587422,-2.50073 -12.194582,-4.83479 -17.893607,-6.96461 -1.267453,-0.47367 -2.509937,-0.94387 -3.728421,-1.41676 -5.661838,-2.19731 -10.782542,-5.85557 -15.308415,-9.40547 m 25.972392,13.79571 c -1.931806,-0.80922 -3.836283,-1.67918 -5.70924,-2.58872 -5.350381,-2.59823 -10.667972,-5.63265 -15.64573,-8.57449 0,0 -2e-6,0 -2e-6,0 -7.476818,-4.41879 -12.879092,-9.35901 -17.571618,-14.56575 -0.744807,-0.82643 -1.510611,-1.64039 -2.283946,-2.44096 m 6.937413,8.48991 C 27.591844,147.72604 22.345782,142.2548 17.96968,136.2777 c -0.121275,-0.16564 -0.241887,-0.33169 -0.36184,-0.49814 0,0 -1e-6,0 -1e-6,0 -4.666365,-6.475 -8.2662379,-11.69217 -10.8118791,-17.78488 -0.2937965,-0.70317 -0.5702722,-1.4116 -0.8291027,-2.12709 C 3.9799557,110.37517 2.9588193,104.65224 2.8809696,98.94208 2.8581279,97.266679 2.9163951,95.592933 3.054694,93.925991 m 7.072168,34.035629 c -1.522928,-2.62078 -2.7740897,-5.30502 -3.7480361,-8.02003 -1.6385617,-4.56772 -2.4961168,-9.23172 -2.5466585,-13.86462 -0.019109,-1.75166 -0.036003,-3.48562 -0.023359,-5.24822 0.042361,-5.904843 0.4205233,-11.929356 2.0956545,-17.784812 0,0 3e-7,-10e-7 3e-7,-10e-7 C 6.0428394,82.560242 6.1943108,82.077645 6.3585083,81.596099 8.2852357,75.945531 11.899942,70.590445 16.547528,65.21746 M 4.162477,93.629434 c 0.5699526,-3.988847 1.5759557,-8.000604 2.9864062,-12.04113 1.1883549,-3.404289 2.6556002,-6.806047 4.3750848,-10.219963 1.558768,-3.094826 3.553181,-5.961478 5.881894,-8.736628 2.63078,-3.135125 5.532995,-5.979219 8.654713,-8.976655 1.046158,-1.004507 2.161434,-1.992053 3.342188,-2.961127 m -8.901401,8.307487 c 4.740663,-5.554464 10.691305,-10.370767 17.667631,-14.747146 6.138413,-3.85074 12.525031,-8.658404 19.623068,-12.981595 0,-1e-6 2e-6,-2e-6 2e-6,-2e-6 1.046423,-0.637343 2.106485,-1.238646 3.180049,-1.809324 3.415752,-1.815725 6.911412,-3.292245 10.506619,-4.64406 M 49.073119,36.750805 c 3.594012,-2.118935 7.544402,-4.39811 11.626905,-6.700701 2.875573,-1.621865 5.856897,-3.277987 8.846441,-4.907387 6.835303,-3.725463 13.993117,-5.610768 21.780604,-7.821521 1e-6,0 2e-6,-1e-6 2e-6,-1e-6 6.000543,-1.703466 12.115849,-3.69423 18.293119,-5.396245 m -27.776194,9.154458 c 7.194764,-2.761451 14.721376,-5.177237 23.089414,-7.598483 7.26766,-2.102862 13.35888,-3.6243083 19.81922,-5.1926936 0.12779,-0.031024 1.7747,-0.4299355 1.90249,-0.4609595 1.847,-0.4468938 3.8106,-0.8398056 5.85963,-1.1873312 m -14.91049,4.9301683 c 2.35252,-0.594987 4.75835,-1.135274 7.22094,-1.6356351 5.30921,-1.0787527 10.81522,-1.9588379 16.58417,-2.8075947 8.16687,-1.2015478 15.21309,-2.2068075 22.7161,-2.9961736 2.2134,-0.2328648 4.496,-0.4356783 6.82711,-0.6130214 m -15.90387,0.2677906 c 7.65719,-0.7481732 15.14157,-1.5184352 22.30524,-1.8146496 6.78827,-0.2806916 14.8216,-0.3428432 22.45948,0.2030023 0.37792,0.027008 0.75486,0.055504 1.13062,0.085534 1.33081,0.1063552 2.65481,0.1788414 3.9744,0.226027 m -14.40579,0.017719 c 2.85543,-0.080884 5.75255,-0.1283018 8.68991,-0.1499621 5.05389,-0.037268 10.229,0.00173 15.50426,0.077722 0,0 0,0 0,0 8.35701,0.1203917 15.35902,0.6483462 22.48216,1.0463904 4.78574,0.2674293 10.02327,1.1044939 15.20911,2.1840226 M 228.07608,3.1162319 c 7.62037,0.7758588 15.80478,1.2919481 23.88809,2.159213 8.28851,0.8892823 15.64076,1.9248606 23.39246,2.6237745 0.1771,0.015968 0.35375,0.032993 0.52995,0.051045 7.39101,0.7572202 14.27789,3.3789356 20.72511,5.5621236 M 263.39041,6.4990138 c 3.97153,0.7507538 7.90878,1.4422142 11.73556,2.1222575 3.79864,0.6750417 7.50585,1.3418167 11.23702,2.0751237 7.74416,1.522006 15.18578,4.064841 21.98973,6.394035 5.36543,1.836744 10.92951,4.103189 16.34961,6.736377 m -25.25465,-8.406328 c 7.69566,2.479315 14.91613,4.638981 22.17844,7.375236 6.17073,2.324975 11.95794,4.914534 17.29625,7.537716 1.21624,0.597647 2.41455,1.199714 3.59339,1.803533 6.94274,3.556172 13.88133,7.799796 19.83129,11.903074 M 332.58777,28.696929 c 2.18676,1.038513 4.62099,2.18509 6.80776,3.223603 4.96397,2.356645 9.49211,4.55168 13.96543,6.931815 0,0 0,2e-6 0,2e-6 6.997,3.722928 13.48731,9.157761 18.86593,13.985201 3.73956,3.35634 7.09546,6.832013 10.09906,10.450012 1.06948,1.288252 2.09391,2.594126 3.07403,3.917862 M 363.06882,46.20217 c 6.88359,5.080047 12.43891,10.348653 17.22186,15.920772 0.29414,0.342669 0.58339,0.686153 0.8678,1.03047 4.95444,5.997983 8.4726,12.290551 10.72504,18.870408 0.046,0.134341 0.0915,0.268806 0.13638,0.403397 0,0 0,0 0,0 2.1036,6.300658 3.26862,11.932765 3.03978,17.52119 m -6.47191,-27.537852 c 1.73379,3.024442 3.17054,5.903931 4.30989,8.722254 1.61636,3.998297 2.61892,7.840529 2.98359,11.63656 0.1738,1.809135 0.25776,3.770083 0.23225,5.825986 -0.069,5.557615 -0.94374,11.863585 -2.99548,17.618905 -0.29,0.81347 -0.59664,1.6205 -0.92041,2.42185 -1.28748,3.18656 -2.84435,6.28017 -4.70623,9.34139 m 8.14741,-20.61948 c -0.6374,4.27997 -1.74241,8.70337 -3.39781,13.07192 -1.10607,2.91889 -2.46411,5.82825 -4.09486,8.63242 -1.89382,3.2565 -4.24605,6.4975 -7.02395,9.67891 -2.46497,2.82304 -5.26167,5.59493 -8.35229,8.27209 -3.12207,2.7044 -6.35138,5.45553 -9.59588,8.01073 m 16.18664,-14.46498 c -4.63257,5.71515 -10.06514,10.6439 -16.01515,15.69644 -5.22475,4.43667 -12.57547,8.24508 -20.39845,11.60536 0,0 0,0 -1e-5,0 -1.49885,0.64382 -2.98555,1.32109 -4.4827,2.02592 -1.04243,0.49077 -2.08231,0.99128 -3.13202,1.50132 m 16.96703,-8.186 c -4.04948,2.40689 -8.28818,4.67697 -12.82807,6.8249 -2.80353,1.32642 -5.72907,2.60974 -8.81496,3.85793 -7.29196,2.94947 -13.96099,5.78669 -20.5735,7.96974 0,0 0,0 0,0 -5.94145,1.96151 -13.79379,4.21726 -21.59077,6.06031 m 31.36491,-10.31574 c -6.9777,2.60467 -14.69895,5.18221 -22.89005,7.45478 -7.55654,2.09651 -14.34584,3.47931 -21.63938,4.33025 -0.24597,0.0287 -0.49255,0.0568 -0.73979,0.0843 -3.18232,0.35408 -6.40226,0.96031 -9.64874,1.65722 m 19.5043,-2.52425 c -2.77209,0.61053 -5.54187,1.23975 -8.35955,1.88407 -4.72201,1.07978 -9.63583,2.21568 -14.49134,3.26932 -7.60923,1.65119 -15.62182,2.02696 -24.2248,2.37477 -3.81823,0.15436 -7.28927,0.43295 -10.63483,0.72526 m 18.74571,-1.15025 c -8.00175,0.69509 -15.26535,1.8666 -23.12344,2.83151 -7.68468,0.94363 -15.21469,0.43654 -22.41306,-0.0988 -4e-5,0 -0.079,-0.006 -0.0791,-0.006 -2.61378,-0.19141 -5.39035,-0.24867 -8.23963,-0.24878 m 17.526,0.14636 c -3.2144,0.129 -6.35883,0.12829 -9.47009,0.0246 -4.59662,-0.15323 -9.11687,-0.53118 -13.67417,-1.04603 0,0 0,0 0,0 -7.69328,-0.86913 -15.31809,-0.54335 -22.48558,-0.80156 -4.96284,-0.17878 -10.55118,-1.05196 -16.17509,-2.12519 m 26.27752,3.4587 c -7.69294,-0.39642 -15.65693,-1.14111 -23.23759,-1.74577 -7.80029,-0.62218 -15.75803,-2.62098 -23.59038,-4.66226 -0.49911,-0.13008 -0.99517,-0.25693 -1.48834,-0.38093 -4.55702,-1.14583 -9.06086,-2.09361 -13.34077,-3.07043 m 22.6464,6.22871 c -3.74921,-0.51571 -7.3197,-1.31665 -10.74101,-2.3058 -3.80827,-1.10104 -7.45368,-2.4419 -10.95858,-3.89228 -6.97222,-2.88522 -15.251741,-3.9867 -22.460899,-6.21918 -6.423875,-1.98929 -13.058342,-4.43028 -19.396729,-6.80415 m 29.621678,10.14062 c -7.798982,-2.06683 -15.385141,-5.05078 -22.811758,-8.23653 -6.280389,-2.69405 -12.286905,-4.92725 -17.454871,-6.98185 -1.270196,-0.50499 -2.526607,-1.01268 -3.78505,-1.53489 -2.026273,-0.84083 -4.014442,-1.88839 -5.950268,-3.06602 m 15.439885,5.16241 c -1.600294,-0.71805 -3.151101,-1.43558 -4.654685,-2.14942 -5.571208,-2.64497 -10.688321,-5.33289 -15.306218,-7.86461 0,0 -2e-6,0 -2e-6,0 -6.511681,-3.56997 -13.340326,-9.47279 -18.617931,-14.54335 -1.143416,-1.09856 -2.231952,-2.196 -3.269523,-3.29857 m 9.63819,10.13718 c -6.177034,-4.63481 -11.237477,-9.53797 -15.448256,-14.29234 -0.39025,-0.44063 -0.774435,-0.88141 -1.152646,-1.32204 C 12.972714,132.09389 9.5161166,126.12887 7.1164985,120.46341 6.6490156,119.35968 6.2185834,118.26087 5.8255918,117.1725 4.0099617,112.14418 3.3403994,106.71267 3.6468485,101.25829 3.67425,100.77058 3.709456,100.28238 3.752361,99.793891 m 6.339382,25.021169 C 9.0215709,122.82894 8.0893084,120.83735 7.2881449,118.83802 5.120768,113.42926 3.9087125,107.95387 3.5364698,102.38168 3.4729744,101.4312 3.4417247,100.48656 3.4422796,99.547508 3.4460896,93.100332 4.9473362,86.921154 7.815662,80.913832 7.9457999,80.641276 8.0787403,80.369086 8.2144722,80.09724 8.8269427,78.870575 9.4736922,77.610637 10.157613,76.328601 M 3.8453072,88.701703 c 0.6535616,-2.801408 1.5440433,-5.537517 2.6832176,-8.194802 1.7989037,-4.196196 4.2243182,-8.210604 7.3325252,-11.974386 1.391309,-1.684761 2.842437,-3.48025 4.372066,-5.346285 3.249704,-3.964403 7.129,-8.593138 11.405943,-12.645402 1.793902,-1.699664 3.678511,-3.237472 5.667659,-4.653778 M 24.557165,56.770124 c 5.082911,-5.242177 11.215013,-10.123501 18.443571,-14.560023 6.382616,-3.917326 12.302401,-8.215004 18.571873,-12.220928 -2.74e-4,1.75e-4 0.149634,-0.0955 0.14936,-0.09532 0.915848,-0.583812 1.88662,-1.140633 2.905335,-1.674571 m -12.122008,6.970067 c 2.689764,-1.423116 5.646577,-2.999883 8.388855,-4.434512 3.885757,-2.032842 7.928684,-4.091462 12.027622,-5.977252 6.73954,-3.100648 14.472973,-5.8755 23.161231,-9.141918 10e-7,0 10e-7,0 2e-6,-1e-6 3.118111,-1.172278 6.041684,-2.018993 8.913334,-2.660225 m -16.598716,6.537597 c 7.201464,-2.519517 14.338446,-4.916307 21.452346,-7.195127 4.75258,-1.522409 9.99398,-2.6806645 15.31681,-3.7587409 2.03387,-0.4119344 4.90567,-0.9728855 6.93953,-1.38482 2.26205,-0.4558814 4.64611,-0.8591212 7.12529,-1.2145601 m -15.78466,3.376801 c 0.70643,-0.1482041 1.414,-0.2947378 2.12286,-0.4395594 6.89392,-1.4084305 13.92671,-2.6585205 21.27232,-3.7166448 7.91189,-1.1396963 15.35388,-1.7877447 23.17978,-2.0644214 7.12035,-0.2517326 14.00632,-0.698313 20.446,-0.5118749 m -32.11833,1.3891138 c 7.74986,-0.7889294 15.51757,-1.4601261 23.46028,-1.8471824 6.34689,-0.3092899 12.55111,-0.5669204 18.77929,-0.7882913 1.50814,-0.053604 3.01881,-0.1051222 4.53423,-0.1547561 4.00856,-0.1312903 7.93903,-0.056468 11.77743,0.082628 m -22.91436,1.7338592 c 1.58473,0.025363 3.19377,0.034827 4.82289,0.034268 6.19701,-0.00213 12.67964,-0.1491033 19.17493,-0.1166466 0,0 0,0 0,10e-8 8.24916,0.041221 15.40381,1.0499973 22.65312,2.0099973 1.4352,0.1900579 2.90381,0.3898501 4.39854,0.6025368 M 231.51848,4.6819843 c 7.8966,0.8119022 15.31602,1.5754222 22.56123,2.782475 6.64767,1.1075019 12.73911,1.9865211 19.38678,3.0940227 1.0808,0.181215 2.14952,0.364666 3.20374,0.551273 0,0 0,0 0,0 3.37929,0.598164 6.83201,1.445073 10.25925,2.42724 M 269.36277,9.1073253 c 1.97898,0.3688155 3.91781,0.7650374 5.81788,1.1876317 5.60932,1.247563 10.88061,2.724909 15.84639,4.40437 6.83479,2.311568 15.59047,3.884735 22.96873,5.454127 5.77642,1.228674 10.84693,3.826019 15.48122,6.451592 m -23.711,-9.284149 c 7.71601,2.396391 14.89037,4.918279 21.57806,7.492266 4.03152,1.551673 7.97282,3.373324 11.61613,5.217617 2.89537,1.465676 5.6566,2.973196 8.18124,4.411922 5.01156,2.855962 10.86344,6.540741 16.18056,10.277367 M 337.99952,30.866024 c 0.001,7.34e-4 0.249,0.134254 0.25036,0.134988 7.26913,3.916734 13.72077,7.207135 20.08207,11.257744 0,0 10e-6,1e-6 10e-6,1e-6 6.90696,4.398065 12.7321,9.984032 17.46395,15.495133 0.4585,0.534013 1.61556,1.875356 2.07407,2.409369 m -8.96896,-10.066066 c 4.6408,3.75425 8.60364,7.902314 12.0079,12.15363 1.41148,1.762693 2.7395,3.559063 3.98811,5.37128 3.11435,4.520134 5.36881,8.821915 6.89365,13.1594 0.87929,2.501211 1.51384,5.010535 1.919,7.554603 0.15535,0.975427 0.30584,1.958813 0.4477,2.95491 m -2.16075,-10.86355 c 0.1987,0.476718 0.38987,0.955509 0.57337,1.43622 2.3808,6.236733 3.46317,12.773247 3.00729,19.308784 -0.0508,0.72861 -0.12078,1.45724 -0.2102,2.18541 -0.71058,5.78643 -1.61637,11.22999 -3.39434,16.27887 -0.5711,1.62174 -1.23563,3.2116 -2.019,4.76247 -0.55923,1.10711 -1.19914,2.2711 -1.91209,3.48013 M 25.071787,144.32343 19.589249,138.43861 M 286.49403,12.036837 l 6.94769,1.794819"
       transform="matrix(0.6,0,0,0.6,5.07224,4.8934483)" />
    <g
       id="g7"
       transform="matrix(0.6,0,0,0.6,5.07224,14.893465)">
      <text
         xml:space="preserve"
         style="font-weight:bold;font-size:66.6667px;font-family:Sans;-inkscape-font-specification:'Sans, Bold';text-align:center;text-anchor:middle;fill:#808080;fill-opacity:0.12549;stroke:none;stroke-width:1;stroke-dasharray:none"
         x="200.57999"
         y="72.133308"
         id="text4"><tspan
           sodipodi:role="line"
           x="200.57999"
           y="72.133308"
           style="font-style:normal;font-variant:normal;font-weight:normal;font-stretch:normal;font-size:40px;font-family:Quicksand;-inkscape-font-specification:'Quicksand, Normal';font-variant-ligatures:normal;font-variant-caps:normal;font-variant-numeric:normal;font-variant-east-asian:normal;fill:#000000;fill-opacity:1"
           id="tspan6">Spielzug</tspan></text>
      <text
         xml:space="preserve"
         style="font-weight:bold;font-size:66.6667px;font-family:Sans;-inkscape-font-specification:'Sans, Bold';text-align:center;text-anchor:middle;fill:#808080;fill-opacity:0.12549;stroke:none;stroke-width:1;stroke-dasharray:none"
         x="200.57999"
         y="122.1333"
         id="text7"><tspan
           sodipodi:role="line"
           x="200.57999"
           y="122.1333"
           style="font-style:normal;font-variant:normal;font-weight:normal;font-stretch:normal;font-size:40px;font-family:Quicksand;-inkscape-font-specification:'Quicksand, Normal';font-variant-ligatures:normal;font-variant-caps:normal;font-variant-numeric:normal;font-variant-east-asian:normal;fill:#000000;fill-opacity:1"
           id="tspan7">ausführen</tspan></text>
    </g>
  </g>
</svg>
