<?xml version="1.0" encoding="UTF-8" standalone="no"?>
<svg
   height="130"
   width="250"
   version="1.1"
   id="svg1"
   sodipodi:docname="usecase-7.svg"
   inkscape:version="1.3.2 (091e20ef0f, 2023-11-25, custom)"
   xmlns:inkscape="http://www.inkscape.org/namespaces/inkscape"
   xmlns:sodipodi="http://sodipodi.sourceforge.net/DTD/sodipodi-0.dtd"
   xmlns="http://www.w3.org/2000/svg"
   xmlns:svg="http://www.w3.org/2000/svg">
  <defs
     id="defs1">
    <inkscape:path-effect
       effect="sketch"
       id="path-effect4"
       is_visible="true"
       lpeversion="1"
       nbiter_approxstrokes="3"
       parallel_offset="1;1757554429"
       strokelength="70"
       strokelength_rdm="0.3;1"
       strokeoverlap="0.5"
       strokeoverlap_rdm="0.5;1"
       ends_tolerance="0.1;1"
       tremble_size="0.8;1"
       tremble_frequency="3"
       nbtangents="2"
       tgt_places_rdmness="0.5;1"
       tgtlength="5"
       tgtlength_rdm="0.3;1"
       tgtscale="10" />
    <inkscape:path-effect
       effect="sketch"
       id="path-effect3"
       is_visible="true"
       lpeversion="1"
       nbiter_approxstrokes="3"
       parallel_offset="2;1"
       strokelength="70"
       strokelength_rdm="0.3;1"
       strokeoverlap="0.5"
       strokeoverlap_rdm="0.5;1"
       ends_tolerance="0.1;1"
       tremble_size="0.8;1"
       tremble_frequency="3"
       nbtangents="2"
       tgt_places_rdmness="0.5;1"
       tgtlength="5"
       tgtlength_rdm="0.3;1"
       tgtscale="10" />
    <inkscape:path-effect
       effect="sketch"
       id="path-effect2"
       is_visible="true"
       lpeversion="1"
       nbiter_approxstrokes="3"
       parallel_offset="2;1"
       strokelength="70"
       strokelength_rdm="0.3;1"
       strokeoverlap="0.5"
       strokeoverlap_rdm="0.5;1"
       ends_tolerance="0.1;1"
       tremble_size="0.8;1"
       tremble_frequency="3"
       nbtangents="2"
       tgt_places_rdmness="0.5;1"
       tgtlength="5"
       tgtlength_rdm="0.3;1"
       tgtscale="10" />
    <inkscape:path-effect
       effect="sketch"
       id="path-effect6"
       is_visible="true"
       lpeversion="1"
       nbiter_approxstrokes="3"
       parallel_offset="0.2;1"
       strokelength="70"
       strokelength_rdm="0.3;1"
       strokeoverlap="0.5"
       strokeoverlap_rdm="0.5;1"
       ends_tolerance="0.1;1"
       tremble_size="0.8;1"
       tremble_frequency="3"
       nbtangents="2"
       tgt_places_rdmness="0.5;1"
       tgtlength="5"
       tgtlength_rdm="0.3;1"
       tgtscale="10" />
    <inkscape:path-effect
       effect="sketch"
       id="path-effect5"
       is_visible="true"
       lpeversion="1"
       nbiter_approxstrokes="3"
       parallel_offset="0.2;1"
       strokelength="70"
       strokelength_rdm="0.3;1"
       strokeoverlap="0.5"
       strokeoverlap_rdm="0.5;1"
       ends_tolerance="0.1;1"
       tremble_size="0.8;1"
       tremble_frequency="3"
       nbtangents="2"
       tgt_places_rdmness="0.5;1"
       tgtlength="5"
       tgtlength_rdm="0.3;1"
       tgtscale="10" />
    <inkscape:path-effect
       effect="sketch"
       id="path-effect1"
       is_visible="true"
       lpeversion="1"
       nbiter_approxstrokes="3"
       parallel_offset="0.2;1"
       strokelength="70"
       strokelength_rdm="0.3;1"
       strokeoverlap="0.5"
       strokeoverlap_rdm="0.5;1"
       ends_tolerance="0.1;1"
       tremble_size="0.8;1"
       tremble_frequency="3"
       nbtangents="2"
       tgt_places_rdmness="0.5;1"
       tgtlength="5"
       tgtlength_rdm="0.3;1"
       tgtscale="10" />
  </defs>
  <sodipodi:namedview
     id="namedview1"
     pagecolor="#ffffff"
     bordercolor="#000000"
     borderopacity="0.25"
     inkscape:showpageshadow="2"
     inkscape:pageopacity="0.0"
     inkscape:pagecheckerboard="0"
     inkscape:deskcolor="#d1d1d1"
     inkscape:zoom="1"
     inkscape:cx="53"
     inkscape:cy="127"
     inkscape:window-width="1440"
     inkscape:window-height="831"
     inkscape:window-x="0"
     inkscape:window-y="0"
     inkscape:window-maximized="1"
     inkscape:current-layer="svg1"
     showgrid="false" />
  <g
     id="g1">
    <path
       id="ellipse1"
       style="fill:#cccccc;fill-opacity:1;stroke:none;stroke-width:0.6;stroke-dasharray:none"
       d="M 23.539818,35.260245 A 117.6,58.8 0 0 0 7.47224,64.893448 a 117.6,58.8 0 0 0 117.6,58.800002 117.6,58.8 0 0 0 107.53242,-35.1668 117.6,58.8 0 0 1 -101.53242,29.1668 117.6,58.8 0 0 1 -117.6,-58.800002 117.6,58.8 0 0 1 10.067578,-23.633203 z" />
    <path
       style="fill:none;fill-opacity:0.12549;stroke:#000000;stroke-width:1.66666667;stroke-dasharray:none"
       id="path1"
       inkscape:path-effect="#path-effect4"
       sodipodi:type="arc"
       sodipodi:cx="200"
       sodipodi:cy="100"
       sodipodi:rx="196"
       sodipodi:ry="98"
       d="m 396.57864,105.88938 c -0.30732,4.77894 -1.5625,9.67291 -3.59167,14.51492 -1.06083,2.53138 -2.32962,5.04022 -3.77612,7.50213 -2.17372,3.6996 -4.74332,7.31971 -7.74947,10.78646 -2.10806,2.43107 -4.44379,4.80176 -7.02948,7.08382 -2.30486,2.03421 -4.79174,4.22943 -7.24167,6.31612 m 13.25921,-13.55642 c -4.83075,5.39717 -10.41028,10.73482 -16.84617,15.2336 -5.46424,3.81958 -12.63229,8.9253 -19.39064,12.93312 0,0 -10e-6,0 -10e-6,0 -1.01502,0.60192 -2.04767,1.18795 -3.0978,1.76133 m 11.33209,-7.34728 c -4.38164,2.56023 -8.91249,5.15302 -13.35087,7.46477 -2.03885,1.06194 -4.09949,2.0866 -6.17761,3.04999 -6.15087,2.85144 -14.30758,6.27118 -22.62752,9.63154 0,0 0,0 0,0 -1.88246,0.76031 -3.69752,1.40345 -5.47083,1.9562 m 13.99356,-5.31301 c -7.16706,2.68373 -14.20599,5.07541 -21.3215,7.09709 -6.53724,1.85737 -14.30113,3.91823 -21.74893,5.76132 7.3e-4,-1.8e-4 -0.76875,0.18974 -0.76802,0.18956 -6.39469,1.57412 -13.02116,2.71603 -20.11169,4.06382 m 30.77088,-5.66755 c -3.10939,0.80035 -6.31812,1.4849 -9.60239,2.07377 -4.40719,0.7902 -8.92387,1.40341 -13.48699,1.89408 -7.72267,0.83042 -15.38751,2.1227 -23.38265,2.56401 -4.28596,0.23658 -8.42096,0.66521 -12.52075,1.13098 m 21.71174,-1.18071 c -7.39707,1.04418 -15.37031,1.66258 -23.20345,2.07479 -7.7282,0.40669 -15.76988,0.53276 -24.07909,0.10491 0,0 -1e-5,0 -1e-5,0 -0.53481,-0.0275 -1.06543,-0.0529 -1.59227,-0.0764 -1.90152,-0.0849 -3.75357,-0.1462 -5.57541,-0.20114 m 17.04943,-0.96947 c -3.53499,0.12454 -7.11689,0.28913 -10.68387,0.51039 -4.06842,0.25236 -8.10823,0.57786 -12.02998,1.00027 0,0 -1e-5,0 -1e-5,0 -7.38469,0.7954 -15.50576,-1.21535 -22.96008,-2.88058 -1.81725,-0.40596 -3.66927,-0.68746 -5.54375,-0.88618 m 14.86375,3.54942 c -7.83748,-0.67939 -15.7379,-1.29644 -23.82582,-2.30697 -8.22128,-1.0272 -15.4366,-2.42955 -22.78396,-4.21302 -0.80401,-0.19517 -1.60735,-0.38434 -2.4088,-0.5686 m 11.7363,2.18491 c -4.07357,-0.63875 -8.1619,-1.51124 -12.19991,-2.55792 -3.58864,-0.93019 -7.14284,-1.99933 -10.61895,-3.16744 -7.72931,-2.59738 -15.394721,-3.96308 -22.852995,-6.24161 -5.956362,-1.81968 -11.472077,-3.78699 -16.599897,-5.67038 m 24.927607,9.91491 c -7.655999,-2.17922 -14.753428,-4.87631 -21.148969,-7.8771 -5.828391,-2.73468 -12.539798,-5.1723 -18.804078,-7.85685 -1.132731,-0.48543 -2.250161,-0.9775 -3.350011,-1.48041 -5.630437,-2.57451 -10.201491,-5.62733 -14.259706,-8.76765 m 24.24704,13.32011 c -1.998282,-0.9458 -3.969711,-1.91576 -5.913286,-2.91607 -5.196012,-2.67427 -10.125148,-5.53094 -14.758385,-8.65481 0,0 -3e-6,0 -3e-6,0 -7.181714,-4.84214 -13.201364,-9.24549 -18.786831,-14.70045 -2.828777,-2.76268 -5.316542,-5.2953 -7.574973,-7.84969 m 14.721707,14.93291 c -6.396558,-5.06466 -11.869652,-10.69954 -16.388306,-17.01372 -0.129377,-0.18079 -0.257934,-0.36208 -0.385668,-0.54388 0,0 -1e-6,0 -1e-6,0 C 12.77591,129.20103 9.4556294,124.71721 7.1572679,119.29752 6.8924657,118.6731 6.6458917,118.04477 6.4175023,117.40965 4.7686966,112.8246 3.7699782,107.15231 3.7355641,101.53812 m 8.4013239,24.19764 C 10.948514,123.55371 9.882518,121.34453 8.9578491,119.13081 6.9260112,114.26644 5.5952565,109.42431 5.1097148,104.8111 4.9889534,103.66373 4.927864,102.46872 4.924767,101.23859 4.9093456,95.113023 6.3362953,88.084085 8.9964731,81.627918 c 0,0 4e-7,-10e-7 4e-7,-10e-7 -3.4e-6,8e-6 0.04449,-0.107742 0.044487,-0.107734 C 10.542363,77.892121 12.302792,74.43376 14.369463,71.107148 M 5.9654371,90.404745 c 0.6583015,-3.115496 1.5902148,-6.171997 2.8078387,-9.18555 1.6669712,-4.125665 3.8680162,-8.167153 6.6431232,-12.192347 1.463366,-2.122561 3.045397,-4.198073 4.754318,-6.223075 3.178422,-3.766303 6.807923,-7.373038 10.982897,-10.823648 1.213841,-1.003239 2.455594,-2.016493 3.71619,-3.027185 m -11.60869,10.319936 c 4.970639,-5.146349 11.144366,-10.652789 18.32727,-16.136148 6.608481,-5.044849 12.378878,-8.189092 19.368839,-12.167366 0.221272,-0.125935 0.444312,-0.250933 0.669088,-0.375018 2.183478,-1.205365 4.522305,-2.319902 6.984911,-3.367038 M 52.696428,36.06731 c 2.83115,-1.534368 5.854353,-3.108275 8.998936,-4.639227 3.917237,-1.907122 8.102996,-3.786909 12.436398,-5.467616 7.249343,-2.811654 14.298436,-5.798382 22.08557,-8.632276 10e-7,-1e-6 2e-6,-1e-6 3e-6,-1e-6 5.584045,-2.032148 11.087255,-3.432156 16.841335,-4.735913 m -27.696943,7.722137 c 7.203289,-2.552381 14.315845,-4.659324 21.517693,-6.276035 5.21837,-1.171448 11.01989,-2.860551 17.05718,-4.6401518 1.95344,-0.5758105 3.93629,-1.1622565 5.88315,-1.72747 7.1118,-2.0647048 13.98005,-2.486717 21.23805,-3.1821324 m -31.50894,6.4756732 c 1.7449,-0.369326 3.47674,-0.716093 5.20065,-1.0380025 5.86041,-1.0943252 11.64402,-1.9045219 17.61874,-2.3449502 7.37282,-0.5434887 14.59075,-1.9584997 21.96356,-2.5019884 6.47442,-0.4668814 14.64105,-1.0509379 22.34217,-1.2883014 m -31.95243,0.9301024 c 7.46062,-1.1568505 15.39162,-1.5555159 23.27575,-1.9355084 7.3212,-0.3528614 14.94368,-0.4305183 22.91108,-0.073473 0.49393,0.022134 0.98915,0.045938 1.48569,0.071448 3.95975,0.203438 7.50747,0.2518215 10.85462,0.2707976 M 191.60925,2.7236953 c 2.72592,-0.022216 5.42147,-0.034679 8.10627,-0.026553 5.16038,0.01562 10.27837,0.1072915 15.51234,0.3516107 0,0 0,0 0,0 8.01507,0.3741398 15.24528,0.4407314 22.2547,0.4132889 5.0042,-0.019592 10.80552,1.0378089 16.57742,2.2937246 M 227.85286,3.3187698 c 7.60383,0.6775163 15.91805,1.2183136 24.22286,1.9167154 8.43449,0.7093068 15.13583,2.3413131 21.73769,3.7641678 -2e-5,-4.6e-6 0.0909,0.019605 0.0909,0.0196 5.77292,1.246662 12.69331,2.974279 19.35221,4.991736 m -28.6316,-6.7202002 c 3.49457,0.6099184 6.98249,1.2752383 10.4394,1.9909833 4.1912,0.8677779 8.33433,1.8091529 12.39074,2.8159769 7.74141,1.921467 15.11774,3.899105 22.06217,5.913902 6.87065,1.993393 13.97962,5.051336 20.22935,7.900684 M 299.32685,15.824214 c 7.46236,2.191369 15.10901,4.800092 22.19571,7.611285 6.19426,2.457178 11.84334,5.280342 17.09466,8.509876 1.20858,0.743272 2.39524,1.507571 3.56125,2.293014 5.71951,3.852761 11.73963,6.656317 17.24133,9.851644 m -26.28698,-17.16322 c 1.9549,0.898694 3.87621,1.822457 5.76309,2.770314 5.26619,2.645406 10.26351,5.478114 14.97049,8.474645 0,0 0,2e-6 0,2e-6 7.14554,4.548956 12.97208,8.972229 17.97635,13.755666 3.14094,3.002336 6.27671,6.143612 9.23469,9.437772 2.35215,2.61949 4.53585,5.273988 6.47719,7.957234 M 364.38967,45.557302 c 6.63814,4.937337 11.8519,10.233176 15.6818,15.629904 0.23906,0.336858 0.48259,0.676687 0.72938,1.018716 4.47718,6.205043 9.16297,12.141201 12.64077,19.274553 0.0641,0.131465 0.12759,0.263021 0.19048,0.394667 0,0 0,0 0,10e-7 2.65644,5.561169 3.46885,10.542638 3.37634,15.36576 M 388.3247,71.825979 c 1.60175,2.719909 2.97577,5.548685 4.09418,8.430399 1.72472,4.443948 2.83815,9.003369 3.26881,13.527895 0.18356,1.928479 0.28377,3.870797 0.29258,5.830542 0.0265,5.900575 -0.77635,11.924715 -2.59182,18.103855 -0.20282,0.69031 -0.42152,1.368 -0.65565,2.03407 -0.1389,0.39512 -0.28321,0.78611 -0.43284,1.17319 m 2.29158,-15.44661 c -0.68754,4.07988 -1.77626,8.40207 -3.35621,12.82848 -1.18278,3.3137 -2.64932,6.70806 -4.43359,10.08199 -1.83908,3.47755 -4.04551,6.51045 -6.62523,9.33784 -2.58055,2.8283 -5.44023,5.35453 -8.68012,8.01799 -3.59506,2.95544 -7.23333,6.10771 -11.06894,9.20395 m 18.99259,-15.69114 c -4.76221,5.40886 -10.68987,10.62109 -17.6747,15.36887 -5.99678,4.07618 -12.82449,8.69368 -20.01566,12.60462 0,0 0,0 0,0 -1.30735,0.71101 -2.6196,1.40763 -3.94078,2.09416 -0.42007,0.21828 -0.84089,0.43546 -1.2626,0.65169 m 13.71267,-7.39925 c -4.06986,2.25311 -7.71196,4.38185 -11.866,6.75919 -2.59918,1.48751 -5.26955,2.99616 -7.93902,4.42675 -6.38304,3.42072 -13.91426,5.63994 -21.53459,7.87859 0,0 0,0 0,0 -3.77017,1.10758 -7.67913,2.34389 -11.98409,3.68068 m 20.5483,-5.13758 c -6.92675,2.70215 -14.09496,4.86879 -21.09574,6.6981 -5.79301,1.51372 -13.12712,3.19674 -20.35252,4.37951 -0.97319,0.15931 -1.94541,0.30969 -2.9123,0.4494 -7.82155,1.13012 -14.94152,2.9793 -23.12569,4.73948 m 33.13468,-6.58375 c -2.74021,0.65664 -5.54732,1.25383 -8.40299,1.79069 -4.75288,0.89353 -9.63015,1.61799 -14.5342,2.1696 -7.62244,0.85737 -15.25869,2.12251 -22.96771,2.66878 -3.52809,0.25 -7.05018,0.54615 -10.60409,0.8316 m 19.42879,-2.0973 c -7.78162,0.91532 -15.4086,1.68129 -23.2042,2.2255 -7.72888,0.53956 -15.4491,1.00846 -23.08787,1.62032 -0.064,0.005 -0.12801,0.0102 -0.19203,0.0151 -3.65088,0.28169 -7.34357,0.26222 -11.01895,0.14247 m 20.17266,-1.79149 c -3.2057,0.0872 -6.33909,0.1669 -9.38987,0.2438 -4.4066,0.11107 -8.61425,0.21574 -12.73586,0.33145 0,0 0,0 0,0 -6.97797,0.1959 -15.65987,-0.71599 -23.3737,-1.30484 -5.86561,-0.44777 -11.71219,-1.18696 -17.53235,-2.02026 m 27.28231,3.40018 c -8.14152,-0.81965 -15.94257,-1.25019 -24.08409,-2.06984 -8.35855,-0.85101 -15.44016,-2.36991 -22.70117,-3.97263 -0.59341,-0.13098 -1.18676,-0.26313 -1.77992,-0.39666 -5.61933,-1.26498 -11.1472,-2.63701 -16.42955,-4.26098 m 29.25005,4.25907 c -4.03139,-0.66578 -8.08327,-1.42469 -12.09062,-2.24992 -3.63798,-0.74916 -7.24548,-1.55425 -10.77648,-2.3964 -7.75556,-1.84973 -14.856854,-3.95404 -21.287751,-6.19495 -4.470473,-1.55778 -9.494967,-3.35728 -14.543487,-5.33628 m 22.397498,9.40001 c -7.947004,-2.36714 -14.758829,-4.82477 -21.251247,-7.73054 -5.587422,-2.50072 -12.194581,-4.83478 -17.893607,-6.9646 -1.267453,-0.47367 -2.509936,-0.94388 -3.728421,-1.41676 -5.661838,-2.19732 -10.782542,-5.85557 -15.308414,-9.40547 m 24.980204,12.28008 c -1.931806,-0.80922 -3.836283,-1.67918 -5.70924,-2.58872 -5.350381,-2.59823 -10.667972,-5.63265 -15.64573,-8.57449 0,0 -2e-6,0 -2e-6,0 -7.476818,-4.41879 -12.879092,-9.35901 -17.571618,-14.56575 -0.744807,-0.82643 -1.510611,-1.64039 -2.283946,-2.44096 m 9.640538,9.79459 c -6.605593,-5.0763 -11.851655,-10.54754 -16.227757,-16.52464 -0.121275,-0.16565 -0.241887,-0.33169 -0.36184,-0.49814 0,0 -1e-6,0 -1e-6,0 -4.666365,-6.475 -8.266238,-11.69217 -10.8118791,-17.78488 -0.2937965,-0.70317 -0.5702722,-1.41161 -0.8291027,-2.12709 -1.9869015,-5.49242 -3.0080379,-11.21535 -3.0858876,-16.925513 -0.022842,-1.6754 0.035425,-3.349147 0.1737244,-5.016089 m 5.322168,32.121562 c -1.522928,-2.62077 -2.7740897,-5.30501 -3.7480361,-8.02002 -1.6385617,-4.56773 -2.4961168,-9.23173 -2.5466585,-13.86462 -0.01911,-1.75166 -0.036003,-3.48563 -0.023359,-5.248223 0.042361,-5.904845 0.4205233,-11.929358 2.0956545,-17.784814 0,0 3e-7,-10e-7 3e-7,-10e-7 C 6.2303394,81.107117 6.3818108,80.62452 6.5460083,80.142974 8.4727357,74.492406 12.087442,69.13732 16.735028,63.764335 M 5.849977,92.652871 c 0.5699526,-3.988846 1.5759557,-8.000603 2.9864062,-12.04113 1.1883548,-3.404288 2.6555998,-6.806047 4.3750848,-10.219963 1.558768,-3.094826 3.553181,-5.961478 5.881894,-8.736627 2.63078,-3.135126 5.532995,-5.97922 8.654713,-8.976655 1.046158,-1.004508 2.161434,-1.992054 3.342188,-2.961128 m -10.463901,9.948113 c 4.740663,-5.554464 10.691305,-10.370768 17.667631,-14.747146 6.138413,-3.850741 12.525031,-8.658405 19.623068,-12.981596 0,0 2e-6,-1e-6 2e-6,-1e-6 1.046423,-0.637344 2.106485,-1.238646 3.180049,-1.809325 3.415752,-1.815724 6.911412,-3.292244 10.506619,-4.644059 M 48.994994,37.532055 c 3.594012,-2.118935 7.544402,-4.39811 11.626905,-6.700701 2.875573,-1.621865 5.856897,-3.277987 8.846441,-4.907387 6.835303,-3.725463 13.993117,-5.610768 21.780604,-7.821521 1e-6,0 2e-6,-1e-6 2e-6,-1e-6 6.000543,-1.703466 12.115854,-3.69423 18.293124,-5.396245 m -28.268387,8.263833 c 7.194765,-2.761451 14.721377,-5.177237 23.089407,-7.598483 7.26767,-2.102862 13.35889,-3.6243083 19.81923,-5.1926936 0.12779,-0.031024 1.7747,-0.4299355 1.90249,-0.4609595 1.847,-0.4468938 3.8106,-0.8398056 5.85963,-1.1873312 m -13.76987,5.3207933 c 2.35252,-0.594987 4.75835,-1.135274 7.22094,-1.635635 5.30922,-1.0787528 10.81522,-1.958838 16.58418,-2.8075948 8.16686,-1.2015478 15.21308,-2.2068075 22.71609,-2.9961736 2.2134,-0.2328648 4.496,-0.4356783 6.82711,-0.6130214 m -17.24762,0.4084156 c 7.65719,-0.7481732 15.14157,-1.5184352 22.30525,-1.8146496 6.78827,-0.2806916 14.8216,-0.3428432 22.45948,0.2030023 0.37791,0.027008 0.75485,0.055504 1.13061,0.085534 1.33081,0.1063552 2.65482,0.1788414 3.9744,0.226027 M 191.63766,1.1515444 c 2.85543,-0.080884 5.75255,-0.1283018 8.68991,-0.1499621 5.05389,-0.0372675 10.229,0.00173 15.50426,0.077722 0,0 0,0 0,0 8.35701,0.1203917 15.35902,0.6483462 22.48216,1.0463904 4.78574,0.2674293 10.02327,1.1044939 15.20911,2.1840226 m -25.42358,-0.029423 c 7.62036,0.7758588 15.80478,1.2919481 23.88808,2.159213 8.28852,0.8892823 15.64077,1.9248606 23.39247,2.6237745 0.1771,0.015968 0.35374,0.032993 0.52994,0.051045 7.39102,0.7572202 14.2779,3.3789361 20.72512,5.5621231 M 264.04666,7.1396388 c 3.97153,0.7507538 7.90878,1.4422142 11.73556,2.1222575 3.79864,0.6750417 7.50585,1.3418167 11.23702,2.0751237 7.74416,1.522006 15.18578,4.064841 21.98973,6.394035 5.36543,1.836744 10.92951,4.103189 16.34961,6.736377 m -26.5984,-9.945391 c 7.69566,2.479315 14.91613,4.638982 22.17844,7.375236 6.17073,2.324976 11.95794,4.914535 17.29625,7.537717 1.21624,0.597646 2.41455,1.199713 3.59339,1.803532 6.94274,3.556173 13.88133,7.799797 19.83129,11.903074 M 331.38464,29.056304 c 2.18677,1.038513 4.62099,2.18509 6.80776,3.223603 4.96398,2.356645 9.49212,4.55168 13.96543,6.931815 0,0 0,2e-6 0,2e-6 6.99701,3.722928 13.48731,9.157761 18.86594,13.985201 3.73956,3.35634 7.09546,6.832013 10.09905,10.450012 1.06949,1.288252 2.09392,2.594126 3.07404,3.917862 M 364.03757,45.897483 c 6.88359,5.080047 12.43891,10.348653 17.22186,15.920772 0.29414,0.342668 0.58339,0.686152 0.8678,1.03047 4.95444,5.997982 8.4726,12.290551 10.72504,18.870408 0.046,0.13434 0.0915,0.268806 0.13638,0.403396 0,0 0,10e-7 0,10e-7 2.1036,6.300657 3.26862,11.932765 3.03978,17.521189 M 387.9784,73.277743 c 1.73378,3.024441 3.17054,5.903931 4.30988,8.722254 1.61637,3.998297 2.61892,7.840528 2.9836,11.636559 0.17379,1.809135 0.25776,3.770084 0.23224,5.825986 -0.069,5.557618 -0.94374,11.863588 -2.99547,17.618908 -0.29,0.81346 -0.59665,1.6205 -0.92042,2.42184 -1.28747,3.18656 -2.84434,6.28018 -4.70623,9.3414 m 9.1396,-22.3851 c -0.63739,4.27997 -1.74241,8.70336 -3.39781,13.07191 -1.10607,2.91889 -2.46411,5.82826 -4.09486,8.63242 -1.89382,3.2565 -4.24605,6.4975 -7.02394,9.67891 -2.46498,2.82304 -5.26168,5.59493 -8.3523,8.27209 -3.12207,2.7044 -6.35137,5.45553 -9.59587,8.01073 m 15.84289,-13.70716 c -4.63258,5.71514 -10.06515,10.64389 -16.01516,15.69643 -5.22474,4.43667 -12.57547,8.24508 -20.39845,11.60537 0,0 0,0 0,0 -1.49886,0.64382 -2.98556,1.32109 -4.4827,2.02592 -1.04244,0.49076 -2.08232,0.99128 -3.13202,1.50131 m 15.89671,-7.24068 c -4.04948,2.40688 -8.28818,4.67697 -12.82807,6.8249 -2.80353,1.32641 -5.72907,2.60974 -8.81496,3.85793 -7.29196,2.94947 -13.96099,5.78668 -20.5735,7.96974 0,0 0,0 0,0 -5.94145,1.9615 -13.79379,4.21726 -21.59077,6.06031 m 32.58366,-10.81574 c -6.9777,2.60467 -14.69895,5.1822 -22.89005,7.45477 -7.55654,2.09652 -14.34584,3.47931 -21.63938,4.33025 -0.24597,0.0287 -0.49255,0.0568 -0.73979,0.0843 -3.18232,0.35408 -6.40226,0.96031 -9.64874,1.65722 m 18.53555,-3.76644 c -2.77209,0.61053 -5.54187,1.23975 -8.35955,1.88407 -4.72201,1.07978 -9.63583,2.21568 -14.49134,3.26932 -7.60923,1.65119 -15.62182,2.02696 -24.2248,2.37477 -3.81823,0.15436 -7.28927,0.43295 -10.63483,0.72526 m 19.98008,-0.5565 c -8.00174,0.69509 -15.26535,1.8666 -23.12343,2.83151 -7.68469,0.94363 -15.2147,0.43654 -22.41307,-0.0988 -4e-5,0 -0.079,-0.006 -0.0791,-0.006 -2.61379,-0.19141 -5.39035,-0.24867 -8.23963,-0.24878 m 16.04162,-0.36146 c -3.2144,0.12901 -6.35883,0.1283 -9.47009,0.0246 -4.59662,-0.15322 -9.11687,-0.53117 -13.67417,-1.04602 0,0 0,0 0,0 -7.69328,-0.86914 -15.31809,-0.54335 -22.48558,-0.80156 -4.96284,-0.17879 -10.55118,-1.05196 -16.17509,-2.12519 m 26.34002,4.2087 c -7.69294,-0.39642 -15.65693,-1.14111 -23.23759,-1.74577 -7.80029,-0.62218 -15.75803,-2.62098 -23.59038,-4.66227 -0.49911,-0.13007 -0.99517,-0.25692 -1.48834,-0.38093 -4.55702,-1.14582 -9.06086,-2.0936 -13.34077,-3.07042 m 24.36515,5.15839 c -3.74921,-0.5157 -7.3197,-1.31664 -10.74101,-2.3058 -3.80827,-1.10103 -7.45368,-2.44189 -10.95858,-3.89228 -6.97222,-2.88521 -15.251741,-3.9867 -22.460899,-6.21917 -6.423875,-1.9893 -13.058342,-4.43029 -19.396729,-6.80415 m 28.746678,10.18749 c -7.798982,-2.06683 -15.385141,-5.05078 -22.811758,-8.23653 -6.280389,-2.69405 -12.286905,-4.92725 -17.454871,-6.98185 -1.270196,-0.50499 -2.526607,-1.01268 -3.78505,-1.53489 -2.026273,-0.84083 -4.014442,-1.88839 -5.950268,-3.06602 m 15.752385,7.35772 c -1.600294,-0.71805 -3.151101,-1.43557 -4.654685,-2.14941 -5.571208,-2.64498 -10.688321,-5.3329 -15.306218,-7.86462 0,0 -2e-6,0 -2e-6,0 -6.511681,-3.56996 -13.340326,-9.47279 -18.617931,-14.54335 -1.143416,-1.09855 -2.231952,-2.196 -3.269523,-3.29857 m 10.73194,8.90281 c -6.177034,-4.63481 -11.237477,-9.53797 -15.448256,-14.29234 -0.39025,-0.44063 -0.774435,-0.88141 -1.152646,-1.32204 -4.329783,-5.04434 -7.78638,-11.00936 -10.1859985,-16.67483 -0.4674829,-1.10372 -0.8979151,-2.20253 -1.2909067,-3.29091 -1.8156301,-5.02832 -2.4851924,-10.45982 -2.1787433,-15.9142 0.027401,-0.48771 0.062608,-0.97592 0.1055125,-1.464401 m 5.33157,26.388361 C 9.2950084,124.03207 8.3627459,122.04047 7.5615824,120.04114 5.3942055,114.63238 4.18215,109.157 3.8099073,103.58481 c -0.063495,-0.95048 -0.094745,-1.89513 -0.09419,-2.83418 0.00381,-6.447173 1.5050566,-12.626351 4.3733824,-18.633673 0.1301379,-0.272556 0.2630783,-0.544746 0.3988102,-0.816592 0.6124705,-1.226665 1.25922,-2.486603 1.9431413,-3.768639 M 4.5640572,87.88139 C 5.2176188,85.079982 6.1081005,82.343874 7.2472748,79.686589 9.0461785,75.490392 11.471593,71.475984 14.5798,67.712202 c 1.391309,-1.68476 2.842437,-3.480249 4.372066,-5.346285 3.249704,-3.964402 7.129,-8.593138 11.405943,-12.645402 1.793902,-1.699664 3.678511,-3.237472 5.667659,-4.653778 M 24.150915,56.910749 C 29.233826,51.668572 35.365928,46.787248 42.594486,42.350726 48.977102,38.4334 54.896887,34.135722 61.166359,30.129798 c -2.74e-4,1.75e-4 0.149634,-0.0955 0.14936,-0.09532 0.915848,-0.583812 1.88662,-1.140633 2.905335,-1.674571 m -11.403258,6.845067 c 2.689764,-1.423116 5.646577,-2.999883 8.388855,-4.434512 3.885757,-2.032842 7.928684,-4.091462 12.027622,-5.977252 6.73954,-3.100648 14.472973,-5.8755 23.161231,-9.141918 0,0 2e-6,-1e-6 2e-6,-1e-6 3.118111,-1.172278 6.041684,-2.018993 8.913334,-2.660225 m -17.231529,7.146972 c 7.201464,-2.519517 14.338449,-4.916307 21.452349,-7.195127 4.75257,-1.522409 9.99398,-2.680664 15.31681,-3.7587409 2.03386,-0.4119344 4.90567,-0.9728855 6.93953,-1.38482 2.26204,-0.4558814 4.64611,-0.8591212 7.12529,-1.2145601 m -15.94091,3.1814885 c 0.70642,-0.1482041 1.414,-0.2947378 2.12286,-0.4395594 6.89391,-1.4084305 13.92671,-2.6585205 21.27232,-3.7166448 7.91188,-1.1396963 15.35388,-1.7877447 23.17978,-2.0644214 7.12035,-0.2517326 14.00631,-0.698313 20.446,-0.5118749 m -30.73552,1.4594263 c 7.74986,-0.7889294 15.51757,-1.4601261 23.46028,-1.8471824 6.34689,-0.3092899 12.55111,-0.5669204 18.77929,-0.7882913 1.50814,-0.053604 3.01881,-0.1051222 4.53423,-0.1547561 4.00856,-0.1312903 7.93903,-0.056468 11.77743,0.082628 m -22.33624,0.3744842 c 1.58474,0.025363 3.19378,0.034827 4.82289,0.034268 6.19701,-0.00213 12.67964,-0.1491033 19.17493,-0.1166466 0,0 0,0 0,10e-8 8.24917,0.041221 15.40381,1.0499973 22.65313,2.0099973 1.43519,0.1900579 2.9038,0.3898501 4.39854,0.6025368 M 231.44035,3.5257343 c 7.89661,0.8119022 15.31602,1.5754222 22.56124,2.782475 6.64766,1.1075019 12.73911,1.9865211 19.38677,3.0940229 1.0808,0.1812152 2.14953,0.3646663 3.20375,0.5512726 0,0 0,2e-7 0,2e-7 3.37928,0.598164 6.832,1.445073 10.25925,2.42724 M 270.03465,7.8495128 c 1.97898,0.3688155 3.9178,0.7650374 5.81788,1.1876316 5.60932,1.2475636 10.8806,2.7249086 15.84639,4.4043706 6.83478,2.311568 15.59047,3.884735 22.96873,5.454127 5.77642,1.228674 10.84693,3.826018 15.48121,6.451592 m -24.42974,-7.47165 c 7.716,2.396392 14.89036,4.918279 21.57805,7.492266 4.03153,1.551673 7.97282,3.373325 11.61613,5.217617 2.89538,1.465677 5.65661,2.973197 8.18124,4.411923 5.01156,2.855961 10.86344,6.54074 16.18056,10.277366 M 337.88233,31.155087 c 0.001,7.34e-4 0.249,0.134254 0.25036,0.134988 7.26913,3.916733 13.72078,7.207134 20.08208,11.257743 0,0 0,2e-6 0,2e-6 6.90696,4.398064 12.7321,9.984031 17.46395,15.495133 0.4585,0.534013 1.61557,1.875356 2.07407,2.409369 m -7.76584,-9.495754 c 4.64081,3.75425 8.60365,7.902314 12.0079,12.15363 1.41149,1.762693 2.7395,3.559063 3.98811,5.37128 3.11436,4.520134 5.36882,8.821915 6.89366,13.1594 0.87929,2.501211 1.51384,5.010535 1.919,7.554603 0.15534,0.975427 0.30583,1.958813 0.4477,2.95491 m -2.94201,-12.980738 c 0.19871,0.476719 0.38987,0.955509 0.57338,1.43622 2.38079,6.236734 3.46317,12.773247 3.00728,19.308788 -0.0508,0.728609 -0.12077,1.457229 -0.21019,2.185409 -0.71058,5.78643 -1.61637,11.22999 -3.39435,16.27886 -0.5711,1.62174 -1.23562,3.21161 -2.019,4.76248 -0.55922,1.10711 -1.19913,2.2711 -1.91209,3.48013 M 25.071787,144.32343 19.589249,138.43861 M 286.49403,12.036837 l 6.94769,1.794819"
       transform="matrix(0.6,0,0,0.6,5.07224,4.8934483)" />
    <g
       id="g7"
       transform="matrix(0.6,0,0,0.6,5.07224,14.893465)">
      <text
         xml:space="preserve"
         style="font-weight:bold;font-size:66.6667px;font-family:Sans;-inkscape-font-specification:'Sans, Bold';text-align:center;text-anchor:middle;fill:#808080;fill-opacity:0.12549;stroke:none;stroke-width:1;stroke-dasharray:none"
         x="200.57999"
         y="72.133308"
         id="text4"><tspan
           sodipodi:role="line"
           x="200.57999"
           y="72.133308"
           style="font-style:normal;font-variant:normal;font-weight:normal;font-stretch:normal;font-size:40px;font-family:Quicksand;-inkscape-font-specification:'Quicksand, Normal';font-variant-ligatures:normal;font-variant-caps:normal;font-variant-numeric:normal;font-variant-east-asian:normal;fill:#000000;fill-opacity:1"
           id="tspan6">Highscores</tspan></text>
      <text
         xml:space="preserve"
         style="font-weight:bold;font-size:66.6667px;font-family:Sans;-inkscape-font-specification:'Sans, Bold';text-align:center;text-anchor:middle;fill:#808080;fill-opacity:0.12549;stroke:none;stroke-width:1;stroke-dasharray:none"
         x="200.57999"
         y="122.1333"
         id="text7"><tspan
           sodipodi:role="line"
           x="200.57999"
           y="122.1333"
           style="font-style:normal;font-variant:normal;font-weight:normal;font-stretch:normal;font-size:40px;font-family:Quicksand;-inkscape-font-specification:'Quicksand, Normal';font-variant-ligatures:normal;font-variant-caps:normal;font-variant-numeric:normal;font-variant-east-asian:normal;fill:#000000;fill-opacity:1"
           id="tspan7">anzeigen</tspan></text>
    </g>
  </g>
</svg>
