<?xml version="1.0" encoding="UTF-8" standalone="no"?>
<svg
   height="130"
   width="250"
   version="1.1"
   id="svg1"
   sodipodi:docname="usecase-1.svg"
   inkscape:version="1.3.2 (091e20ef0f, 2023-11-25, custom)"
   xmlns:inkscape="http://www.inkscape.org/namespaces/inkscape"
   xmlns:sodipodi="http://sodipodi.sourceforge.net/DTD/sodipodi-0.dtd"
   xmlns="http://www.w3.org/2000/svg"
   xmlns:svg="http://www.w3.org/2000/svg">
  <defs
     id="defs1">
    <inkscape:path-effect
       effect="sketch"
       id="path-effect4"
       is_visible="true"
       lpeversion="1"
       nbiter_approxstrokes="3"
       parallel_offset="1;3883339009"
       strokelength="70"
       strokelength_rdm="0.3;2322538959"
       strokeoverlap="0.5"
       strokeoverlap_rdm="0.5;3217345626"
       ends_tolerance="0.1;3926522537"
       tremble_size="0.8;3644333791"
       tremble_frequency="3"
       nbtangents="2"
       tgt_places_rdmness="0.5;1"
       tgtlength="5"
       tgtlength_rdm="0.3;1"
       tgtscale="10" />
    <inkscape:path-effect
       effect="sketch"
       id="path-effect3"
       is_visible="true"
       lpeversion="1"
       nbiter_approxstrokes="3"
       parallel_offset="2;1"
       strokelength="70"
       strokelength_rdm="0.3;1"
       strokeoverlap="0.5"
       strokeoverlap_rdm="0.5;1"
       ends_tolerance="0.1;1"
       tremble_size="0.8;1"
       tremble_frequency="3"
       nbtangents="2"
       tgt_places_rdmness="0.5;1"
       tgtlength="5"
       tgtlength_rdm="0.3;1"
       tgtscale="10" />
    <inkscape:path-effect
       effect="sketch"
       id="path-effect2"
       is_visible="true"
       lpeversion="1"
       nbiter_approxstrokes="3"
       parallel_offset="2;1"
       strokelength="70"
       strokelength_rdm="0.3;1"
       strokeoverlap="0.5"
       strokeoverlap_rdm="0.5;1"
       ends_tolerance="0.1;1"
       tremble_size="0.8;1"
       tremble_frequency="3"
       nbtangents="2"
       tgt_places_rdmness="0.5;1"
       tgtlength="5"
       tgtlength_rdm="0.3;1"
       tgtscale="10" />
    <inkscape:path-effect
       effect="sketch"
       id="path-effect6"
       is_visible="true"
       lpeversion="1"
       nbiter_approxstrokes="3"
       parallel_offset="0.2;1"
       strokelength="70"
       strokelength_rdm="0.3;1"
       strokeoverlap="0.5"
       strokeoverlap_rdm="0.5;1"
       ends_tolerance="0.1;1"
       tremble_size="0.8;1"
       tremble_frequency="3"
       nbtangents="2"
       tgt_places_rdmness="0.5;1"
       tgtlength="5"
       tgtlength_rdm="0.3;1"
       tgtscale="10" />
    <inkscape:path-effect
       effect="sketch"
       id="path-effect5"
       is_visible="true"
       lpeversion="1"
       nbiter_approxstrokes="3"
       parallel_offset="0.2;1"
       strokelength="70"
       strokelength_rdm="0.3;1"
       strokeoverlap="0.5"
       strokeoverlap_rdm="0.5;1"
       ends_tolerance="0.1;1"
       tremble_size="0.8;1"
       tremble_frequency="3"
       nbtangents="2"
       tgt_places_rdmness="0.5;1"
       tgtlength="5"
       tgtlength_rdm="0.3;1"
       tgtscale="10" />
    <inkscape:path-effect
       effect="sketch"
       id="path-effect1"
       is_visible="true"
       lpeversion="1"
       nbiter_approxstrokes="3"
       parallel_offset="0.2;1"
       strokelength="70"
       strokelength_rdm="0.3;1"
       strokeoverlap="0.5"
       strokeoverlap_rdm="0.5;1"
       ends_tolerance="0.1;1"
       tremble_size="0.8;1"
       tremble_frequency="3"
       nbtangents="2"
       tgt_places_rdmness="0.5;1"
       tgtlength="5"
       tgtlength_rdm="0.3;1"
       tgtscale="10" />
  </defs>
  <sodipodi:namedview
     id="namedview1"
     pagecolor="#ffffff"
     bordercolor="#000000"
     borderopacity="0.25"
     inkscape:showpageshadow="2"
     inkscape:pageopacity="0.0"
     inkscape:pagecheckerboard="0"
     inkscape:deskcolor="#d1d1d1"
     inkscape:zoom="1"
     inkscape:cx="60"
     inkscape:cy="156"
     inkscape:window-width="1440"
     inkscape:window-height="831"
     inkscape:window-x="0"
     inkscape:window-y="0"
     inkscape:window-maximized="1"
     inkscape:current-layer="svg1"
     showgrid="false" />
  <g
     id="g1">
    <path
       id="ellipse1"
       style="fill:#cccccc;fill-opacity:1;stroke:none;stroke-width:0.6;stroke-dasharray:none"
       d="M 23.539818,35.260245 A 117.6,58.8 0 0 0 7.47224,64.893448 a 117.6,58.8 0 0 0 117.6,58.800002 117.6,58.8 0 0 0 107.53242,-35.1668 117.6,58.8 0 0 1 -101.53242,29.1668 117.6,58.8 0 0 1 -117.6,-58.800002 117.6,58.8 0 0 1 10.067578,-23.633203 z" />
    <path
       style="fill:none;fill-opacity:0.12549;stroke:#000000;stroke-width:1.66666667;stroke-dasharray:none"
       id="path1"
       inkscape:path-effect="#path-effect4"
       sodipodi:type="arc"
       sodipodi:cx="200"
       sodipodi:cy="100"
       sodipodi:rx="196"
       sodipodi:ry="98"
       d="m 394.51962,101.23387 c 0.0586,6.35246 -1.05741,12.47099 -3.02806,18.63631 -0.42978,1.34461 -0.89819,2.6859 -1.40152,4.03056 -1.89179,5.05401 -5.25579,9.79672 -9.47959,14.61059 -1.37938,1.57207 -2.8207,3.11983 -4.31385,4.6855 -4.8464,5.08183 -10.17632,9.45588 -16.4781,13.52389 m 24.55958,-22.35144 c -0.94339,1.30733 -1.95251,2.59982 -3.02489,3.87443 -3.67931,4.37315 -8.10132,8.53198 -13.11344,12.31108 -5.48858,4.13835 -12.31171,9.17093 -19.43018,13.03886 0,0 0,0 0,0 -1.75968,0.95615 -3.56245,1.92068 -5.39352,2.87285 m 14.32851,-7.7643 c -5.55022,3.5511 -11.77229,7.23935 -18.24307,10.41586 -0.61777,0.30327 -1.2396,0.60277 -1.8652,0.89792 -6.59622,3.11201 -13.98017,6.05735 -21.63747,8.25379 0,0 0,0 0,0 -4.22588,1.21216 -8.47144,2.72821 -13.04225,4.35269 m 21.85621,-6.19863 c -6.86661,2.63792 -14.78723,5.60685 -23.15605,8.1914 -8.06805,2.49166 -14.72496,4.27718 -22.41467,6.21663 -1.48856,0.37543 -2.9931,0.71546 -4.51242,1.0246 -0.71609,0.14571 -1.43521,0.2845 -2.15723,0.41687 m 16.69919,-5.28034 c -4.44913,1.03421 -9.00553,2.1524 -13.6206,3.24697 -2.98402,0.70772 -6.00782,1.40865 -9.02643,2.06283 -7.4932,1.62389 -15.17317,2.31345 -22.95153,2.90145 -2.34807,0.1775 -4.76275,0.38934 -7.2535,0.61207 m 15.91895,-2.09129 c -7.86833,0.81265 -15.27457,2.0956 -22.88965,3.13004 -7.53788,1.02395 -15.50606,0.76571 -23.36945,0.55779 0,0 0,0 0,0 -1.8821,-0.0498 -3.75339,-0.0757 -5.61585,-0.0911 -3.37416,-0.0279 -6.71735,-0.021 -10.03432,-0.0579 m 25.37325,0.7227 c -5.13766,0.2907 -10.4424,0.27929 -15.91741,0.0817 -2.79393,-0.10081 -5.63022,-0.25002 -8.50764,-0.43194 0,0 0,0 0,0 -8.54806,-0.54044 -15.54374,-0.52086 -23.17549,-1.10035 -3.56184,-0.27046 -7.06754,-0.59202 -10.48597,-0.95078 m 20.98126,1.28649 c -7.68183,-0.27089 -15.72503,-0.85951 -23.66365,-1.28626 -8.05398,-0.43295 -15.83007,-2.31925 -23.79822,-4.12516 -1.07712,-0.24412 -2.13019,-0.47786 -3.16079,-0.70391 m 13.83406,2.52711 c -5.70339,-0.82182 -11.06028,-1.79514 -16.19563,-2.82625 -2.04608,-0.41082 -4.06659,-0.8328 -6.06297,-1.2593 -7.24802,-1.54846 -15.42616,-3.62464 -22.645079,-5.49795 -3.834765,-0.99512 -7.622219,-2.31733 -11.33013,-3.78829 m 18.967849,5.39984 c -7.430423,-1.96232 -14.773251,-4.50308 -21.109008,-7.05882 0,0 -2e-6,0 -2e-6,0 -7.1042,-2.86571 -14.798563,-5.79112 -22.271744,-9.22567 -1.6e-5,-1e-5 -0.07285,-0.0335 -0.07286,-0.0335 -2.976507,-1.37117 -5.694957,-2.82106 -8.24308,-4.32929 m 17.010246,9.94819 c -2.882175,-1.29112 -5.660252,-2.63237 -8.322903,-4.02251 -4.132767,-2.15766 -7.970697,-4.42431 -11.484582,-6.79591 0,0 -2e-6,0 -2e-6,0 -6.634085,-4.47749 -13.462467,-9.18217 -19.506079,-14.98533 -1.730748,-1.66189 -3.374102,-3.18605 -4.897094,-4.58937 m 11.820803,10.86115 C 30.7164,149.9473 25.10333,144.77677 20.277435,139.0623 c -0.508979,-0.6027 -1.006992,-1.20441 -1.494326,-1.80618 -4.834128,-5.96936 -8.565129,-11.89251 -11.2629549,-18.33284 -0.073969,-0.17658 -0.1468708,-0.35269 -0.218716,-0.52835 -1.8669807,-4.56477 -3.0248672,-8.8389 -3.6012843,-13.0193 m 8.6246052,22.97236 c -1.833447,-3.05622 -3.3053255,-6.12274 -4.4376667,-9.22175 -1.547792,-4.23602 -2.4635145,-8.5402 -2.7839912,-12.93903 0,0 -2e-7,-10e-6 -2e-7,-10e-6 C 4.9419527,103.9753 4.8419826,101.82319 4.8316222,99.69992 4.8048665,94.216624 5.3789181,88.971106 7.0041331,83.825858 7.2572799,83.024424 7.5371148,82.215207 7.8421772,81.399864 9.2185883,77.721116 11.10218,73.935743 13.331465,70.220764 M 2.8625946,92.717015 c 0.5761285,-4.03833 1.8079363,-8.075475 3.7003669,-12.076239 1.5545787,-3.286515 3.5569605,-6.553052 6.0166465,-9.786803 2.287589,-3.007493 4.340751,-5.891216 6.381919,-8.659566 2.192593,-2.973724 4.458005,-5.92658 7.060634,-8.654686 3.474953,-3.642485 8.656338,-7.553258 14.632251,-11.551868 m -21.36668,18.478338 c 4.83405,-5.145963 10.702468,-10.827015 17.327203,-15.754159 5.983361,-4.450123 12.690464,-8.285085 20.326247,-11.632661 0,0 2e-6,-1e-6 2e-6,-1e-6 1.35488,-0.593988 2.688641,-1.214264 4.013621,-1.856214 2.687933,-1.302297 5.255941,-2.652286 7.891717,-4.041705 m -20.856637,9.97768 c 3.913336,-2.243967 8.054271,-4.33698 12.416755,-6.137389 2.812398,-1.160684 5.736065,-2.207836 8.777498,-3.100903 7.167875,-2.104729 13.909294,-5.873166 21.038057,-8.479552 0,0 10e-7,0 2e-6,-10e-7 3.721698,-1.36071 7.893109,-2.65763 12.360433,-3.949653 m -19.60564,5.983869 c 7.105496,-2.524722 14.78072,-4.810376 23.03589,-6.452131 7.12311,-1.416615 13.14574,-3.516243 19.93651,-5.543366 0.85112,-0.2540701 1.70941,-0.505146 2.57622,-0.7506324 2.87336,-0.8137558 5.77684,-1.4110222 8.70527,-1.8952879 m -18.5713,3.7961753 c 2.13471,-0.542207 4.30591,-1.0664124 6.52254,-1.5879636 5.4738,-1.2879358 11.1889,-2.5490344 17.09156,-3.990094 8.13312,-1.9855986 15.35393,-1.9808288 23.41523,-2.3718783 3.10767,-0.1507514 6.09619,-0.3382818 9.06061,-0.5070371 m -18.31935,3.1271716 c 7.87562,-0.9366582 14.96324,-1.6188216 21.87152,-2.1621899 6.30315,-0.4957726 14.34356,-0.4141209 22.00226,-0.014175 0.65814,0.034369 1.31327,0.07108 1.964,0.1099635 3.47895,0.2078787 6.80847,0.3086558 10.08021,0.4059032 m -19.00645,-1.013889 c 2.53797,-0.02895 4.99517,-0.068044 7.38888,-0.111252 5.07554,-0.091616 9.85471,-0.201578 14.46073,-0.2707075 0,0 0,10e-8 0,10e-8 6.81264,-0.1022474 15.74639,0.963064 23.66502,1.9130758 5.2846,0.6340034 10.24724,1.1809007 15.1063,1.7860131 M 229.94377,3.61073 c 7.44902,0.5049075 15.55025,1.1486736 22.99927,1.653581 7.45527,0.5079579 15.03648,2.6729183 22.09207,4.838881 0.01,0.0031 0.54646,0.168088 0.55644,0.171151 3.20131,0.986436 6.54571,1.780818 9.91246,2.540343 M 265.06333,7.3429554 c 2.79375,0.6162174 5.64829,1.2011966 8.45472,1.7834716 4.81774,0.999579 9.51724,1.996685 14.08443,3.219402 7.62874,2.04235 15.2061,4.153381 22.52369,6.5647 2.3753,0.782716 4.71559,1.627377 7.02368,2.521279 m -16.06123,-4.896104 c 7.59053,2.366373 15.22271,5.490393 22.59512,9.289614 5.00412,2.578768 9.77611,4.552252 13.8343,6.396038 2.28563,1.038447 4.46301,2.083058 6.6275,3.268136 5.28799,2.895219 10.78686,6.405742 15.80404,10.052713 M 336.4426,30.31356 c 0.68025,0.33738 1.36011,0.679271 2.03896,1.025594 6.45036,3.290711 12.68415,6.917392 18.29736,10.836385 0,0 10e-6,10e-7 10e-6,10e-7 7.02584,4.905254 12.9499,9.281787 18.34372,14.294283 2.27046,2.109949 4.33729,4.317856 6.20403,6.555105 1.09788,1.315784 2.13145,2.647581 3.10124,3.983675 M 369.04538,48.575841 c 4.93888,4.402981 9.14561,8.94274 12.48073,14.020373 0.87323,1.329473 1.68046,2.68693 2.41917,4.076126 2.91494,5.481777 6.06202,9.837844 8.33353,14.231236 0.90325,1.747023 1.67249,3.484142 2.26674,5.274564 1.27938,3.854619 1.97318,8.335646 2.17993,12.911143 0.009,0.196714 0.0169,0.393619 0.024,0.590681 m -6.15334,-23.035332 c 0.46931,1.010105 0.90601,2.019438 1.31084,3.029289 2.57445,6.42185 3.86027,12.866121 4.02092,19.569111 0.004,0.173385 0.008,0.346934 0.0102,0.520653 0.0999,6.542275 -1.45583,12.452315 -4.3749,18.178945 -0.61688,1.21019 -1.29368,2.41096 -2.02829,3.61018 -1.66388,2.7162 -3.36295,5.59224 -5.20523,8.53462 m 10.01755,-25.08442 c -0.66428,4.37111 -1.73076,8.90968 -3.31068,13.46707 -1.02535,2.95767 -2.27237,5.93748 -3.76807,8.86499 -1.79728,3.51778 -4.12668,6.77903 -6.89916,9.93413 -2.40129,2.73268 -5.06423,5.30871 -7.96002,7.92664 -4.97104,4.49404 -10.61352,9.38185 -16.40772,13.81132 m 24.49039,-22.18252 c -4.69342,5.41547 -10.40106,10.86711 -17.07306,15.58016 -5.53654,3.91097 -12.40459,8.97756 -18.26249,12.69021 0,0 0,0 0,0 -1.6891,1.07053 -3.57096,2.11199 -5.60268,3.13251 -1.54273,0.7749 -3.16413,1.53386 -4.84407,2.28145 m 17.74887,-8.48504 c -4.52837,2.68294 -9.41296,5.39201 -14.6915,7.97473 -2.26094,1.10625 -4.61527,2.19982 -7.07377,3.26995 -7.48728,3.25903 -13.83791,6.00645 -20.50947,8.5238 -6.44467,2.43173 -14.4284,4.59189 -21.99625,6.49302 0,0 -0.009,0.002 -0.009,0.002 m 33.42125,-12.3692 c -7.24579,2.62284 -14.4058,5.51109 -22.15698,8.26264 -7.46068,2.64842 -14.70315,3.99344 -22.51533,5.62102 -0.54542,0.11363 -1.09328,0.22428 -1.6435,0.33188 -4.55946,0.89165 -9.28139,1.5739 -14.1068,2.00432 m 23.84393,-5.62989 c -3.68396,0.87642 -7.43482,1.72098 -11.22256,2.50871 -3.80757,0.79185 -7.6675,1.52943 -11.5555,2.18716 -7.5577,1.27854 -15.24849,2.67114 -23.08073,4.16421 -7.67336,1.46279 -15.23557,1.28919 -22.80894,1.44044 m 35.36447,-1.8421 c -7.65035,0.78514 -15.42775,1.81528 -23.09162,2.28803 -7.1934,0.44373 -16.73302,1.19763 -23.92642,1.64136 0,0 0,0 0,0 -1.87622,0.11912 -3.71366,0.18297 -5.52699,0.20646 -0.98535,0.0128 -1.96347,0.0136 -2.9367,0.005 m 19.58082,-1.5878 c -4.87325,0.12975 -9.78631,0.19176 -14.71046,0.12348 -2.89695,-0.0402 -5.79706,-0.12543 -8.69625,-0.26841 0,0 -1e-5,0 -1e-5,0 -7.86146,-0.38772 -15.96892,-0.53281 -24.41066,-1.08958 -3.48795,-0.23005 -6.64541,-0.48229 -9.61178,-0.73864 m 18.79343,1.69244 c -8.07523,-0.61072 -15.67142,-1.52059 -23.5652,-3.18372 -7.91273,-1.66711 -15.60035,-1.82888 -22.88422,-2.63836 -2.00943,-0.22332 -4.02231,-0.56683 -6.02704,-0.99366 -2.30537,-0.49085 -4.60765,-1.09359 -6.88551,-1.75338 m 22.72125,3.62961 c -5.48899,-1.04935 -9.64459,-1.74153 -15.13358,-2.79089 -2.38469,-0.46036 -4.71554,-0.93928 -7.01729,-1.46684 -7.27004,-1.66628 -15.43446,-3.89684 -22.916786,-6.26022 -3.022292,-0.95463 -5.856235,-1.86465 -8.548806,-2.74627 m 16.428122,6.29269 c -7.498867,-2.39058 -15.127884,-4.28515 -22.20957,-6.3896 -7.153439,-2.12578 -14.116115,-6.15169 -20.409653,-10.15231 -0.315877,-0.20079 -0.630802,-0.40203 -0.944611,-0.60345 0,0 -10e-7,0 -10e-7,0 -5.717325,-3.66966 -11.201095,-6.28096 -16.91842,-9.95062 m 28.18057,16.18597 c -2.989982,-1.298 -5.851735,-2.7139 -8.589195,-4.22781 -4.102356,-2.26874 -7.939477,-4.76534 -11.516625,-7.42578 0,0 -2e-6,0 -2e-6,0 -6.638426,-4.93723 -13.693056,-8.53057 -19.694076,-12.86502 -2.142571,-1.54755 -4.105281,-3.2762 -5.920517,-5.0966 m 11.237685,8.59867 c -6.4277,-4.70643 -12.230164,-9.7298 -16.619305,-14.43102 -0.489473,-0.52427 -0.975711,-1.0725 -1.456615,-1.64076 -4.511806,-5.33136 -8.485441,-12.3019 -10.915176,-18.83392 -0.082576,-0.222 -0.1639837,-0.4432 -0.2442237,-0.66368 -0.4955802,-1.36175 -0.9459045,-2.69404 -1.3504259,-4.01021 m 4.6900726,15.75862 c -1.778055,-3.13536 -3.2002877,-6.21384 -4.2577712,-9.31717 -1.4246181,-4.18075 -2.1799132,-8.38966 -2.2255319,-12.72666 0,0 -10e-8,0 -10e-8,0 -0.023551,-2.23906 -0.059974,-4.38361 -0.044099,-6.57639 0.039831,-5.501855 0.412876,-10.95603 2.1219227,-16.332258 0.276184,-0.868805 0.5772603,-1.738383 0.9022541,-2.608625 1.0322931,-2.76419 2.3014106,-5.523276 3.7731221,-8.279902 M 3.2203383,92.818406 c 0.5696604,-3.883678 1.6802948,-7.804958 3.3098841,-11.692607 1.4052608,-3.352478 3.1965053,-6.679671 5.3536966,-9.924534 1.89711,-2.853645 3.937302,-5.652239 6.137241,-8.33061 2.514018,-3.060753 5.280771,-6.018905 8.359438,-8.771368 2.019369,-1.805405 4.277573,-3.690412 6.705868,-5.572451 M 20.01132,58.272244 C 24.620555,53.080618 30.764093,47.708107 37.718316,42.832581 43.829792,38.547895 50.7196,34.362148 58.729295,30.477015 c 10e-7,0 3e-6,-1e-6 3e-6,-1e-6 1.054781,-0.511626 2.088194,-1.011248 3.097147,-1.495632 1.931715,-0.927389 3.798876,-1.811023 5.615007,-2.643926 m -17.84786,8.707911 c 3.519205,-1.945285 7.236342,-3.917075 11.034851,-5.739101 3.118333,-1.495767 6.354227,-2.921204 9.67439,-4.180454 6.827211,-2.589379 14.265521,-5.832828 22.129237,-8.493316 0,0 2e-6,-1e-6 2e-6,-1e-6 3.475266,-1.175767 6.859284,-2.154372 10.213398,-2.977677 m -19.02606,6.34383 c 7.010811,-2.394635 14.86625,-4.877621 23.13139,-6.761753 6.4555,-1.471604 12.48339,-2.944048 18.50794,-3.9821596 1.30467,-0.2248121 2.6221,-0.4318718 3.9612,-0.6173451 7.18296,-0.9948884 14.20917,-2.7606374 21.22213,-4.2499159 m -31.94346,7.4555536 c 2.24875,-0.463584 4.54651,-0.938253 6.82097,-1.393718 5.0153,-1.0043197 10.09223,-1.9511933 14.90476,-2.5916326 6.92745,-0.9218884 15.42799,-2.4488126 23.82332,-3.825904 6.33198,-1.0386383 12.11205,-1.0785331 18.01398,-0.9812857 m -28.72778,0.9017606 c 7.56492,-1.0516203 15.57617,-1.6333982 23.8015,-2.1210052 7.99057,-0.4736903 15.01348,-0.5664684 22.11614,-0.3409929 1.6e-4,4.9e-6 0.35384,0.011494 0.354,0.011499 6.53093,0.2169376 14.05921,0.3075783 21.39741,0.7952008 m -31.57481,0.092332 c 3.57713,-0.1713793 7.03692,-0.2350964 10.41168,-0.2392073 4.06901,-0.00496 8.01594,0.076788 11.88295,0.1605975 0,0 10e-6,1e-7 10e-6,1e-7 7.11648,0.154236 15.68822,0.7369604 23.55885,1.4315449 1.88778,0.1665969 3.74069,0.3584663 5.56597,0.5746079 M 227.4708,1.543928 c 8.01452,0.7658947 15.49821,1.6608616 23.05485,3.3703196 7.71479,1.7452361 15.504,2.4094429 23.0055,4.1277525 0.73923,0.1693287 1.47486,0.3353673 2.20638,0.4986412 3.13729,0.7002347 6.29027,1.3695407 9.27942,2.0179457 m -21.7717,-4.3259182 c 3.97136,0.6282042 7.7709,1.361746 11.46301,2.171332 3.75878,0.8242052 7.42677,1.7318452 11.05028,2.6903302 7.64681,2.022723 15.26303,3.989631 22.80395,6.359752 3.43891,1.080856 6.69865,2.192005 9.81174,3.306357 m -17.25489,-6.123796 c 7.50667,2.136644 14.79905,5.112228 21.29522,8.416441 5.28001,2.685623 11.50432,4.882504 16.93128,7.027241 1.62898,0.643773 3.2231,1.294736 4.7839,1.976428 1.86303,0.813698 3.65397,1.727959 5.38159,2.706858 m -14.66948,-6.846779 c 1.30876,0.647078 2.61732,1.300285 3.92829,1.964422 6.00521,3.042234 11.84759,6.207833 17.51735,9.759139 0,0 0,2e-6 0,2e-6 7.58112,4.748501 12.89338,9.184815 17.73437,13.943882 2.58506,2.541323 5.1623,5.194482 7.6103,7.932571 0.57189,0.639653 1.13483,1.281833 1.68747,1.926202 M 365.63454,48.447624 c 5.80824,4.695897 10.55963,9.547333 14.4338,14.717645 0.52665,0.702847 1.0369,1.411335 1.53103,2.125637 3.91296,5.656496 7.40013,10.756944 10.23438,16.525106 0.67752,1.378856 1.30292,2.768991 1.87077,4.17733 2.03836,5.055377 2.54133,10.089314 2.16635,15.076628 -0.059,0.78451 -0.13978,1.56918 -0.24006,2.35439 M 390.0561,75.821752 c 0.85723,1.70805 1.6221,3.446641 2.28774,5.207574 2.12665,5.625949 3.23098,11.454355 3.13199,17.254178 -0.0118,0.691783 -0.03,1.381413 -0.0555,2.069546 -0.23906,6.44029 -1.12943,12.76688 -3.41528,18.91819 -0.18847,0.50718 -0.38661,1.01359 -0.59489,1.51911 -2.29296,5.56524 -5.62813,10.98175 -9.63307,15.98822 m 12.86468,-32.68299 c -0.25929,5.49773 -1.42785,10.7053 -3.34151,15.87027 -0.78424,2.11664 -1.68835,4.2133 -2.70107,6.32335 -1.97343,4.11177 -4.75324,8.03093 -8.13636,11.7923 -1.89111,2.10253 -3.94625,4.12911 -6.12162,6.09762 -4.69431,4.24793 -10.38603,9.329 -16.15562,13.47455 m 24.77948,-20.81224 c -0.49251,0.60471 -0.99262,1.20693 -1.50051,1.80643 -4.30296,5.07903 -9.23698,10.05034 -15.05531,14.79638 -5.8152,4.74349 -12.06968,8.91371 -19.02062,13.08013 0,0 0,1e-5 0,1e-5 -2.49742,1.49696 -5.19158,2.92231 -8.06551,4.2988 -3.49375,1.67338 -7.21107,3.25463 -11.1227,4.79836 m 28.6771,-15.77987 c -5.17383,3.42764 -11.15915,6.50371 -17.68238,9.03718 -1.06667,0.41428 -2.14687,0.81367 -3.23888,1.19717 -7.45188,2.61699 -13.29523,6.40992 -20.42775,10.07816 0,0 0,1e-5 0,1e-5 -3.43571,1.76698 -7.37745,2.97258 -11.59289,3.9533 m 20.08555,-7.4823 c -7.19209,3.07326 -14.4601,5.04728 -22.54233,6.68235 -7.60982,1.5395 -14.90642,4.41628 -22.87332,6.7303 -1.08137,0.31409 -2.15984,0.59454 -3.23743,0.846 -4.82314,1.12552 -9.57133,1.65832 -14.46918,2.05024 m 27.40029,-4.16456 c -4.3913,0.94023 -8.75322,1.80259 -13.10012,2.4276 -3.13918,0.45136 -6.29642,0.78301 -9.49939,0.93399 -7.54503,0.35565 -15.17942,2.75672 -23.2196,4.36904 -6.50421,1.30431 -12.6309,1.36311 -18.61679,1.41405 m 27.77902,-3.5705 c -7.55194,0.89308 -15.32398,1.90839 -22.86744,2.50917 -7.50593,0.59778 -15.57204,1.12547 -23.5054,1.62327 0,0 0,0 0,0 -1.57237,0.0987 -3.12582,0.1523 -4.66328,0.1697 m 15.5677,-0.69666 c -5.2921,0.0796 -10.48591,0.19181 -15.6056,0.15396 -2.45102,-0.0181 -4.88819,-0.0706 -7.31914,-0.17739 0,0 -1e-5,0 -1e-5,0 -7.57114,-0.33261 -15.52846,-0.58686 -23.189,-1.31755 -2.77693,-0.26487 -5.57406,-0.54463 -8.3879,-0.85666 m 16.467,2.62374 c -8.05553,-0.46014 -15.30394,-0.87386 -22.37112,-1.32246 -7.21918,-0.45826 -15.44465,-2.53279 -22.72014,-4.77297 -2.32982,-0.71737 -4.71392,-1.27795 -7.11499,-1.76318 -5.21796,-1.05449 -10.54251,-1.76933 -15.73947,-2.92181 m 32.86088,7.52864 c -6.13536,-1.12236 -12.39872,-2.19817 -18.72896,-3.61494 -1.5365,-0.34388 -3.06473,-0.70534 -4.58118,-1.08899 -8.18016,-2.06955 -15.18009,-3.65549 -22.667111,-5.94484 -6.655347,-2.03505 -12.984282,-3.95462 -19.235831,-5.89117 m 29.709192,9.11096 c -7.709461,-1.88052 -15.292356,-4.87128 -22.550922,-8.33769 0,0 -2e-6,0 -2e-6,0 -7.782838,-3.71679 -14.441896,-5.59728 -20.539455,-8.64257 -0.930022,-0.46448 -1.886559,-0.93504 -2.859876,-1.40882 -6.230533,-3.03286 -12.193941,-5.76916 -18.424474,-8.80201 -1e-6,0 -0.0092,-0.004 -0.0092,-0.004 m 32.484644,14.71153 c -4.598235,-1.8847 -9.193302,-3.89424 -13.542133,-5.91827 -2.497133,-1.1622 -4.917328,-2.3311 -7.227131,-3.49178 0,0 -3e-6,0 -3e-6,0 -6.910291,-3.47245 -13.815302,-8.38357 -19.498835,-12.84141 -5.040867,-3.95378 -9.438529,-8.17197 -13.194382,-12.59739 m 19.723313,18.48662 c -6.999066,-4.69403 -12.567253,-9.01106 -17.124336,-13.32146 -1.875724,-1.77419 -3.852222,-3.8787 -5.780028,-6.12278 -3.458054,-4.02537 -6.748528,-8.48129 -9.3652,-12.70483 -1.3449334,-2.17084 -2.4226457,-4.33981 -3.2913744,-6.50755 -0.353034,-0.88092 -0.6722247,-1.76334 -0.9609765,-2.64714 M 15.521619,132.58028 C 12.207512,127.85233 9.6020073,123.29337 7.7608296,118.70923 6.9292431,116.63876 6.2592133,114.57589 5.7566571,112.51361 4.816955,108.65745 4.3061882,104.32782 4.3397516,99.812548 4.368217,95.983104 4.7880772,92.015627 5.6660519,88.086373 6.196053,85.714427 6.8185661,83.486868 7.5462954,81.354377 M 2.4793873,98.908178 C 2.6223227,93.048891 4.1226632,87.001955 6.9845466,81.119383 7.7312774,79.584486 8.5714539,78.059423 9.5051374,76.552085 12.409345,71.863534 15.094104,67.138624 18.2453,62.425281 c 1.188505,-1.777683 2.46001,-3.57019 3.849255,-5.341638 2.121927,-2.705705 4.768269,-5.170305 7.836979,-7.547159 M 18.672319,64.86317 c 0.5176,-0.70833 1.050191,-1.409673 1.597662,-2.10533 4.135995,-5.255501 8.880453,-9.902718 14.371209,-14.946501 5.590336,-5.135258 11.810912,-8.861441 18.731368,-13.194736 0,0 3e-6,-10e-7 3e-6,-10e-7 2.506376,-1.569386 5.276734,-3.020611 8.265935,-4.385276 4.070227,-1.858187 8.468033,-3.520992 13.071052,-5.098476 M 42.19506,39.908898 c 5.702997,-3.641588 11.723063,-7.008279 18.328442,-9.890881 0.758942,-0.331204 1.52734,-0.656814 2.305913,-0.97657 6.956426,-2.856972 14.236752,-6.553373 22.528325,-9.916273 0,0 2e-6,0 2e-6,0 6.627543,-2.688003 12.265583,-4.272647 18.369858,-5.871783 m -27.895951,9.669957 c 6.991457,-3.084425 14.234248,-5.037728 21.91005,-6.437166 7.213961,-1.315236 15.064521,-4.209194 23.444961,-5.911302 1.62406,-0.329855 3.19622,-0.654631 4.73934,-0.9754626 m -15.63843,2.7653846 c 4.7272,-1.198839 9.55655,-2.341354 14.43132,-3.3998101 2.69689,-0.5855731 5.41127,-1.1462009 8.13369,-1.6769957 7.4202,-1.4467243 15.47368,-2.3383302 23.8121,-2.9073954 5.96491,-0.4070824 11.32427,-1.0779992 16.82204,-1.6681538 m -27.35656,2.7120544 c 7.59863,-1.222907 15.33756,-2.0498735 23.24869,-2.9166996 7.76109,-0.8503849 15.58665,-1.3106334 23.55902,-2.11036441 0,-1.1e-7 1e-5,-2.8e-7 1e-5,-2.8e-7 2.42291,-0.24304903 4.80536,-0.31224793 7.16122,-0.26321399 3.38911,0.0705398 6.72165,0.38576096 10.03518,0.77898701 M 181.72148,3.973021 c 5.95357,-0.4451798 11.34949,-0.7105486 17.30307,-1.1557284 2.03661,-0.1535031 4.07871,-0.3257362 6.13917,-0.5304698 0,1e-7 10e-6,1e-7 10e-6,2e-7 7.86964,-0.7819502 15.86374,0.9419337 24.08684,2.4378337 4.3365,0.7888718 8.3393,1.0456603 12.2049,1.1683156 M 218.47669,2.9719742 c 7.75551,0.2817948 15.96587,1.1788509 24.36682,2.311087 8.62063,1.1618424 15.35756,2.0846828 22.69096,3.6248449 0.89975,0.1889648 1.80556,0.3716175 2.71539,0.5489087 M 256.90628,6.7674884 c 6.35908,0.8014096 12.40514,2.1384271 18.33267,3.7123996 1.51627,0.402625 3.02845,0.821794 4.53749,1.252314 7.73093,2.2056 14.96984,3.322331 21.6016,4.818792 2.4016,0.54192 4.97233,1.300004 7.59808,2.165381 m -16.00841,-5.023991 c 7.46497,1.849321 15.29724,4.171861 22.10655,6.122125 0,10e-7 0,10e-7 0,10e-7 7.36349,2.108985 15.07006,6.119221 21.94766,9.767735 -0.19463,-0.103248 1.95581,1.038905 1.76118,0.935657 6.86612,3.655357 12.43901,6.752724 17.89677,10.630552 M 326.41015,25.659936 c 4.2463,1.903421 8.21921,3.716811 12.05895,5.626668 2.91966,1.452214 5.69673,2.928267 8.35331,4.481611 0,0 0,1e-6 0,1e-6 7.00896,4.098253 13.66558,7.895508 20.00161,11.938199 5.8826,3.753381 10.74136,9.556381 14.83703,15.066415 0.33744,0.453981 0.67179,0.909044 1.0028,1.363819 m -25.6227,-22.005697 c 6.82816,4.638113 13.08519,9.117882 18.62303,13.60326 2.08673,1.690143 3.93522,3.635129 5.57765,5.684366 3.29514,4.111312 5.91671,8.842343 7.99008,13.185556 0.93607,1.960839 1.80379,3.924728 2.58991,5.916409 2.21085,5.601253 3.72062,11.291206 4.2469,17.308742 0,0 9.4e-4,0.01081 9.4e-4,0.01081 M 383.86704,66.651537 c 3.76017,5.161865 6.74536,9.988327 8.85735,14.809487 0.65859,1.503395 1.22665,2.994645 1.70075,4.477722 1.31674,4.118995 1.90246,9.122764 1.71125,14.291144 -0.12181,3.29267 -0.55862,6.66834 -1.32369,9.95969 -0.29845,1.28394 -0.60736,2.53034 -0.93176,3.74664 M 25.071787,144.32343 19.589249,138.43861 M 286.49403,12.036837 l 6.94769,1.794819"
       transform="matrix(0.6,0,0,0.6,5.07224,4.8934483)" />
    <g
       id="g7"
       transform="matrix(0.6,0,0,0.6,5.07224,14.893465)">
      <text
         xml:space="preserve"
         style="font-weight:bold;font-size:66.6667px;font-family:Sans;-inkscape-font-specification:'Sans, Bold';text-align:center;text-anchor:middle;fill:#808080;fill-opacity:0.12549;stroke:none;stroke-width:1;stroke-dasharray:none"
         x="200.57999"
         y="72.133308"
         id="text4"><tspan
           sodipodi:role="line"
           x="200.57999"
           y="72.133308"
           style="font-style:normal;font-variant:normal;font-weight:normal;font-stretch:normal;font-size:40px;font-family:Quicksand;-inkscape-font-specification:'Quicksand, Normal';font-variant-ligatures:normal;font-variant-caps:normal;font-variant-numeric:normal;font-variant-east-asian:normal;fill:#000000;fill-opacity:1"
           id="tspan6">Partie</tspan></text>
      <text
         xml:space="preserve"
         style="font-weight:bold;font-size:66.6667px;font-family:Sans;-inkscape-font-specification:'Sans, Bold';text-align:center;text-anchor:middle;fill:#808080;fill-opacity:0.12549;stroke:none;stroke-width:1;stroke-dasharray:none"
         x="200.57999"
         y="122.1333"
         id="text7"><tspan
           sodipodi:role="line"
           x="200.57999"
           y="122.1333"
           style="font-style:normal;font-variant:normal;font-weight:normal;font-stretch:normal;font-size:40px;font-family:Quicksand;-inkscape-font-specification:'Quicksand, Normal';font-variant-ligatures:normal;font-variant-caps:normal;font-variant-numeric:normal;font-variant-east-asian:normal;fill:#000000;fill-opacity:1"
           id="tspan7">erstellen</tspan></text>
    </g>
  </g>
</svg>
