<?xml version="1.0" encoding="UTF-8" standalone="no"?>
<svg
   height="130"
   width="250"
   version="1.1"
   id="svg1"
   sodipodi:docname="usecase-2.svg"
   inkscape:version="1.3.2 (091e20ef0f, 2023-11-25, custom)"
   xmlns:inkscape="http://www.inkscape.org/namespaces/inkscape"
   xmlns:sodipodi="http://sodipodi.sourceforge.net/DTD/sodipodi-0.dtd"
   xmlns="http://www.w3.org/2000/svg"
   xmlns:svg="http://www.w3.org/2000/svg">
  <defs
     id="defs1">
    <inkscape:path-effect
       effect="sketch"
       id="path-effect4"
       is_visible="true"
       lpeversion="1"
       nbiter_approxstrokes="3"
       parallel_offset="1;3648716239"
       strokelength="70"
       strokelength_rdm="0.3;1380397382"
       strokeoverlap="0.5"
       strokeoverlap_rdm="0.5;227113933"
       ends_tolerance="0.1;2747067470"
       tremble_size="0.8;3461045349"
       tremble_frequency="3"
       nbtangents="2"
       tgt_places_rdmness="0.5;1"
       tgtlength="5"
       tgtlength_rdm="0.3;1"
       tgtscale="10" />
    <inkscape:path-effect
       effect="sketch"
       id="path-effect3"
       is_visible="true"
       lpeversion="1"
       nbiter_approxstrokes="3"
       parallel_offset="2;1"
       strokelength="70"
       strokelength_rdm="0.3;1"
       strokeoverlap="0.5"
       strokeoverlap_rdm="0.5;1"
       ends_tolerance="0.1;1"
       tremble_size="0.8;1"
       tremble_frequency="3"
       nbtangents="2"
       tgt_places_rdmness="0.5;1"
       tgtlength="5"
       tgtlength_rdm="0.3;1"
       tgtscale="10" />
    <inkscape:path-effect
       effect="sketch"
       id="path-effect2"
       is_visible="true"
       lpeversion="1"
       nbiter_approxstrokes="3"
       parallel_offset="2;1"
       strokelength="70"
       strokelength_rdm="0.3;1"
       strokeoverlap="0.5"
       strokeoverlap_rdm="0.5;1"
       ends_tolerance="0.1;1"
       tremble_size="0.8;1"
       tremble_frequency="3"
       nbtangents="2"
       tgt_places_rdmness="0.5;1"
       tgtlength="5"
       tgtlength_rdm="0.3;1"
       tgtscale="10" />
    <inkscape:path-effect
       effect="sketch"
       id="path-effect6"
       is_visible="true"
       lpeversion="1"
       nbiter_approxstrokes="3"
       parallel_offset="0.2;1"
       strokelength="70"
       strokelength_rdm="0.3;1"
       strokeoverlap="0.5"
       strokeoverlap_rdm="0.5;1"
       ends_tolerance="0.1;1"
       tremble_size="0.8;1"
       tremble_frequency="3"
       nbtangents="2"
       tgt_places_rdmness="0.5;1"
       tgtlength="5"
       tgtlength_rdm="0.3;1"
       tgtscale="10" />
    <inkscape:path-effect
       effect="sketch"
       id="path-effect5"
       is_visible="true"
       lpeversion="1"
       nbiter_approxstrokes="3"
       parallel_offset="0.2;1"
       strokelength="70"
       strokelength_rdm="0.3;1"
       strokeoverlap="0.5"
       strokeoverlap_rdm="0.5;1"
       ends_tolerance="0.1;1"
       tremble_size="0.8;1"
       tremble_frequency="3"
       nbtangents="2"
       tgt_places_rdmness="0.5;1"
       tgtlength="5"
       tgtlength_rdm="0.3;1"
       tgtscale="10" />
    <inkscape:path-effect
       effect="sketch"
       id="path-effect1"
       is_visible="true"
       lpeversion="1"
       nbiter_approxstrokes="3"
       parallel_offset="0.2;1"
       strokelength="70"
       strokelength_rdm="0.3;1"
       strokeoverlap="0.5"
       strokeoverlap_rdm="0.5;1"
       ends_tolerance="0.1;1"
       tremble_size="0.8;1"
       tremble_frequency="3"
       nbtangents="2"
       tgt_places_rdmness="0.5;1"
       tgtlength="5"
       tgtlength_rdm="0.3;1"
       tgtscale="10" />
  </defs>
  <sodipodi:namedview
     id="namedview1"
     pagecolor="#ffffff"
     bordercolor="#000000"
     borderopacity="0.25"
     inkscape:showpageshadow="2"
     inkscape:pageopacity="0.0"
     inkscape:pagecheckerboard="0"
     inkscape:deskcolor="#d1d1d1"
     inkscape:zoom="1"
     inkscape:cx="127"
     inkscape:cy="236"
     inkscape:window-width="1440"
     inkscape:window-height="831"
     inkscape:window-x="0"
     inkscape:window-y="0"
     inkscape:window-maximized="1"
     inkscape:current-layer="svg1"
     showgrid="false" />
  <g
     id="g1">
    <path
       id="ellipse1"
       style="fill:#cccccc;fill-opacity:1;stroke:none;stroke-width:0.6;stroke-dasharray:none"
       d="M 23.539818,35.260245 A 117.6,58.8 0 0 0 7.47224,64.893448 a 117.6,58.8 0 0 0 117.6,58.800002 117.6,58.8 0 0 0 107.53242,-35.1668 117.6,58.8 0 0 1 -101.53242,29.1668 117.6,58.8 0 0 1 -117.6,-58.800002 117.6,58.8 0 0 1 10.067578,-23.633203 z" />
    <path
       style="fill:none;fill-opacity:0.12549;stroke:#000000;stroke-width:1.66666667;stroke-dasharray:none"
       id="path1"
       inkscape:path-effect="#path-effect4"
       sodipodi:type="arc"
       sodipodi:cx="200"
       sodipodi:cy="100"
       sodipodi:rx="196"
       sodipodi:ry="98"
       d="m 394.51962,101.23387 c 0.0586,6.35246 -1.05763,12.47173 -3.02819,18.63673 -0.42975,1.34453 -0.89812,2.6857 -1.40139,4.03014 -1.89153,5.05316 -5.25544,9.7962 -9.47936,14.61034 -1.37941,1.57217 -2.82083,3.12004 -4.31408,4.68575 -1.23025,1.28996 -2.49524,2.53757 -3.80026,3.7467 m 12.42995,-13.33568 c -1.09858,1.56306 -2.29061,3.1054 -3.57192,4.62187 -3.50901,4.15304 -7.6848,8.10757 -12.39633,11.72143 -5.45098,4.18102 -12.23747,9.25621 -19.33976,13.16676 0,0 -1e-5,0 -1e-5,0 -0.8788,0.48387 -1.7673,0.96917 -2.66325,1.4531 m 16.08908,-9.58932 c -5.84987,4.14223 -12.56556,8.46527 -19.63347,12.10379 -1.25849,0.64786 -2.54474,1.28767 -3.85546,1.9156 -5.43598,2.60426 -11.36117,5.03686 -17.49974,6.97744 -5.98197,1.89108 -12.29302,4.51085 -19.09247,6.97772 m 24.55571,-7.65948 c -6.82271,2.72369 -14.70679,5.7797 -23.06293,8.44798 -8.03223,2.56484 -14.68033,4.42798 -22.35508,6.4386 -2.41578,0.63288 -4.87346,1.17178 -7.36819,1.63639 -3.06708,0.5712 -6.1769,1.02768 -9.32179,1.40926 m 25.38195,-6.62611 c -4.33182,1.03084 -10.80051,2.65253 -15.13233,3.68337 -2.48119,0.59562 -4.9862,1.18223 -7.49054,1.73707 -7.48488,1.65829 -15.15746,2.38098 -22.93657,3.00298 -1.22167,0.0977 -2.46288,0.20476 -3.72452,0.31792 m 13.04119,-1.93116 c -7.85727,0.85944 -15.25883,2.18863 -22.87444,3.26933 -7.5325,1.06892 -15.49422,0.85554 -23.36309,0.69208 0,0 0,0 0,0 -2.62979,-0.0546 -5.23826,-0.0628 -7.83153,-0.0606 -2.10841,0.002 -4.20543,0.0106 -6.29223,0.007 m 17.81111,0.79738 c -3.87446,0.18136 -7.84263,0.19106 -11.90552,0.0789 -4.08242,-0.11272 -8.2574,-0.34842 -12.52061,-0.65578 0,0 0,0 0,0 -8.5543,-0.61672 -15.54391,-0.67309 -23.16281,-1.32987 -0.95965,-0.0827 -1.91497,-0.16915 -2.86536,-0.25901 m 22.81123,1.19541 c -7.67712,-0.15646 -15.72882,-0.63093 -23.69118,-0.94024 -8.06239,-0.3132 -15.84303,-2.07422 -23.85061,-3.7602 -4.46205,-0.93948 -8.50469,-1.70008 -12.3659,-2.49292 -1.05087,-0.21578 -2.08716,-0.43361 -3.11539,-0.65788 m 22.36897,4.26278 c -6.32812,-0.87949 -12.24012,-1.94611 -17.9008,-3.07168 -1.47243,-0.29278 -2.93273,-0.59055 -4.3811,-0.89076 -7.2513,-1.50297 -15.44578,-3.53381 -22.681658,-5.36085 -1.022491,-0.25817 -2.040428,-0.5391 -3.053443,-0.83939 m 12.630351,2.90619 c -7.44549,-1.86067 -14.8235,-4.29751 -21.206971,-6.74909 0,0 -3e-6,0 -3e-6,0 -7.116258,-2.733 -14.894041,-5.5602 -22.427116,-8.85955 -1.27249,-0.55733 -2.497865,-1.12798 -3.683414,-1.71063 -0.538975,-0.26488 -1.069947,-0.53235 -1.59354,-0.80228 m 20.059507,10.38874 c -6.263761,-2.46677 -12.085179,-5.153 -17.363761,-8.04706 -1.011946,-0.55482 -2.003079,-1.11679 -2.972908,-1.68586 -10e-7,0 -10e-7,0 -2e-6,0 -6.819119,-4.00124 -13.96479,-8.29764 -20.418709,-13.62856 -2.228163,-1.84045 -4.334851,-3.46726 -6.297753,-4.95114 m 12.076129,9.62184 c -7.105202,-4.70795 -13.068632,-9.43673 -18.386967,-14.73438 -2.685532,-2.67509 -5.138225,-5.31913 -7.388536,-8.03457 -2.848954,-3.43783 -5.334528,-6.94462 -7.474788,-10.63542 -1.6186422,-2.79129 -2.9622466,-5.45778 -4.0685612,-8.06791 -0.7694179,-1.81529 -1.4233303,-3.60181 -1.9717913,-5.37607 M 16.471781,134.50026 C 12.702945,129.43495 9.9666187,124.31373 8.1558708,119.02283 7.5272509,117.18605 7.0105148,115.32912 6.6028602,113.45015 5.580327,108.73707 4.8317722,104.32426 4.6329784,99.911249 4.4975686,96.905294 4.6211947,93.940688 5.0865488,90.990229 5.4675529,88.574569 6.0857956,86.088667 6.9028008,83.577296 M 2.4624993,103.15415 c -0.078668,-1.11482 -0.1076803,-2.23134 -0.087209,-3.348644 0.1176857,-6.423011 1.8700033,-12.897481 5.2762874,-19.282727 0.062617,-0.117378 0.1257964,-0.234734 0.1895395,-0.352068 3.1858513,-5.86431 6.3055663,-12.533821 9.7969933,-17.61624 0.350183,-0.509755 0.711883,-1.017053 1.086972,-1.521276 1.336482,-1.7966 3.034375,-3.65583 5.025133,-5.56587 M 8.897115,75.576058 c 2.404035,-4.362026 5.370605,-8.923099 8.918754,-13.312813 1.513677,-1.872697 3.14834,-3.732751 4.905833,-5.541232 5.141191,-5.290348 11.240775,-9.991666 18.470496,-14.176446 0,1e-6 1e-6,-10e-7 1e-6,-10e-7 3.324786,-1.924485 6.446105,-3.962296 9.705064,-6.116211 M 33.070444,47.432374 c 5.808614,-4.39757 12.439101,-8.448151 19.899629,-11.422102 2.626587,-1.047022 5.178107,-2.30579 7.761744,-3.675824 3.967159,-2.103679 8.359437,-4.68031 12.504992,-6.574806 2.107795,-0.96325 4.382682,-1.905297 6.796562,-2.838796 m -14.499064,5.892846 c 6.798213,-3.081961 14.276386,-5.937382 22.422772,-8.119814 7.669867,-2.054772 14.524481,-5.089097 22.121001,-7.734618 2.44289,-0.85075 4.91476,-1.53981 7.41511,-2.133894 m -15.69335,4.163686 c 7.25471,-2.293668 15.0817,-4.375579 23.34241,-6.8092635 0,0 0,-3e-7 0,-3e-7 0.25168,-0.074146 0.50272,-0.1463834 0.75317,-0.2167815 7.75265,-2.17916 14.67719,-2.5413479 22.49371,-3.2838979 3.40139,-0.323123 6.63412,-0.6847086 9.88241,-1.0214779 m -25.63437,5.2391909 c 7.74545,-1.4438569 14.79082,-2.6332749 21.69084,-3.6776986 6.7722,-1.0250784 15.61069,-1.3693689 23.88404,-1.3584915 0,1e-7 1e-5,0 1e-5,0 2.89345,0.0038 5.68467,-0.066284 8.4378,-0.150999 m -24.40129,0.7612508 c 7.89772,-0.7198086 14.89733,-1.5154524 21.79468,-2.2482022 4.45306,-0.4730779 9.80863,-0.4489836 15.24612,-0.2821983 2.84585,0.087292 5.71335,0.2136454 8.4765,0.3276055 6.90479,0.2847742 13.32193,0.4202268 19.72647,0.7256864 m -27.64859,-0.491679 c 0.004,-4.12e-5 0.68955,-0.00656 0.69375,-0.0066 7.55385,-0.069685 15.04335,-0.068935 22.42944,-0.1705367 7.67332,-0.1055524 15.4955,1.4956111 22.90056,3.0900871 5.89422,1.26916 12.47793,1.919498 18.86901,2.8857325 m -33.01812,-5.351132 c 7.60235,0.9339777 15.47613,1.5927844 22.91113,2.7772134 6.24867,0.9954397 12.59773,2.0529584 18.87074,3.2651074 1.42391,0.2751462 2.83996,0.5575128 4.24597,0.8480602 1.75904,0.3634997 3.50626,0.7579117 5.2438,1.1793487 M 263.7026,7.6129977 c 3.2417,0.5810923 6.52185,1.2928786 9.81717,2.1319229 4.54103,1.1562244 9.10151,2.5516864 13.62709,4.1763384 8.17971,2.936457 15.01882,4.004412 21.80141,6.190454 2.16841,0.698882 4.396,1.486537 6.63769,2.334493 m -13.87234,-5.559012 c 7.46961,2.302613 15.03718,5.047103 22.05497,8.116191 5.32359,2.32816 10.04734,4.327585 14.93738,6.590739 2.15867,0.999054 4.26571,2.01192 6.33904,3.065104 1.42009,0.721357 2.80533,1.46668 4.15526,2.227885 m -15.20159,-9.761748 c 1.93208,0.970869 3.82056,1.962416 5.66413,2.992726 5.03329,2.812949 9.60866,5.848064 13.64585,9.35714 0,0 0,10e-7 0,10e-7 6.13297,5.330712 13.33534,8.601596 18.90187,12.732297 0.93879,0.696639 1.85454,1.446409 2.74622,2.234523 M 355.5298,39.323769 c 7.05769,4.76541 13.11136,9.543033 18.57395,14.988526 2.60644,2.59829 4.85479,5.044865 6.82444,7.466221 2.73609,3.363572 4.91618,6.65889 6.65571,10.079004 1.19131,2.342253 2.3602,4.843077 3.41968,7.465438 0.9289,2.299152 1.76183,4.662651 2.44772,7.062271 M 381.46155,63.859598 c 3.90335,5.131488 7.30127,10.75787 9.78477,16.553908 0.62113,1.44962 1.18371,2.906363 1.68316,4.366459 1.75551,5.132129 2.4178,10.050389 2.28434,14.918024 -0.0727,2.650451 -0.38117,5.286221 -0.87942,7.946891 -0.67882,3.62492 -1.65283,7.3186 -2.94995,11.03259 -0.72431,2.07387 -1.54946,4.15411 -2.47846,6.22602 m 6.20857,-19.87538 c -0.59536,4.41421 -1.75086,8.85114 -3.52361,13.17895 -1.15153,2.81124 -2.56733,5.58483 -4.26154,8.26551 -2.01689,3.19123 -4.25645,6.52629 -6.65399,9.79206 -2.06875,2.81791 -4.30843,5.65689 -6.66769,8.33121 -2.61678,2.96622 -6.04764,5.78571 -9.99051,8.56554 m 14.57492,-12.45469 c -5.00516,5.29332 -11.10194,10.72547 -18.59136,15.76171 -6.47511,4.35417 -12.54871,8.55489 -18.68743,12.14457 0,0 0,0 0,0 -0.85844,0.50198 -1.75518,0.99897 -2.68553,1.49132 -2.8299,1.49758 -5.94216,2.9371 -9.19197,4.33157 m 21.21392,-11.70968 c -3.42194,1.99828 -7.20988,3.97538 -11.25387,5.83475 -3.25174,1.4951 -6.68,2.91894 -10.20644,4.20803 -7.30794,2.67143 -14.19751,5.99431 -21.9071,8.98348 0,0 0,0 0,0 -1.4231,0.55176 -2.85089,1.05848 -4.28692,1.53021 m 16.5836,-7.79789 c -6.94596,2.73829 -14.3871,5.30381 -22.11276,7.69148 -7.3602,2.27473 -14.79074,3.9925 -22.57679,5.61922 1.7e-4,-3e-5 -1.04754,0.21933 -1.04736,0.21929 -6.29052,1.31983 -12.69396,2.71322 -19.23857,4.18461 m 30.17665,-4.50885 c -3.47602,0.80306 -6.91517,1.57536 -10.32453,2.29885 -4.018,0.85266 -8.02783,1.6447 -12.07896,2.3519 -7.28419,1.27159 -15.24588,2.26367 -23.02002,2.9678 -1.68536,0.15265 -3.38923,0.31347 -5.11327,0.47977 m 20.54183,-1.80551 c -7.78446,1.07617 -15.05197,1.62519 -22.25408,1.54673 -7.10139,-0.0774 -15.52674,0.9108 -23.38735,0.85667 0,0 0,0 0,0 -2.52102,-0.0174 -5.06888,-0.01 -7.65178,0.001 m 19.81205,-0.42604 c -7.66268,0.24689 -13.83539,0.63458 -21.49807,0.88147 -0.57598,0.0174 -1.15161,0.0335 -1.72684,0.0478 0,0 0,0 0,0 -7.73244,0.19311 -15.69566,-0.67789 -23.65362,-1.91893 -7.86709,-1.22688 -15.38351,-0.949 -22.73828,-1.3004 m 25.43608,1.78581 c -7.70403,-0.43008 -16.04177,-1.31504 -24.56863,-2.45062 -8.73899,-1.16384 -15.23862,-2.1222 -22.30444,-3.44886 -1.38529,-0.2601 -2.80602,-0.54074 -4.25008,-0.83869 -0.62443,-0.12884 -1.25328,-0.26093 -1.88558,-0.396 m 16.58387,4.65715 c -5.14078,-0.77706 -10.44508,-1.85069 -15.7903,-3.12937 -2.67398,-0.63967 -5.36171,-1.33149 -8.04748,-2.06436 -8.41102,-2.29511 -15.29697,-3.55521 -22.552972,-5.28378 -1.383748,-0.32964 -2.755107,-0.72447 -4.112475,-1.17131 m 19.193627,4.13621 c -7.50131,-2.14812 -15.382888,-3.9696 -22.407481,-5.70533 0,0 -2e-6,0 -2e-6,0 -7.556153,-1.86708 -14.701365,-6.12284 -20.93356,-9.90422 -0.971998,-0.58976 -1.957714,-1.1521 -2.949726,-1.69263 -1.234657,-0.67275 -2.484885,-1.31488 -3.734293,-1.93512 m 13.441223,6.7004 c -4.608493,-2.03149 -8.869899,-4.00789 -12.93507,-6.12921 -2.591555,-1.35234 -5.068705,-2.74591 -7.453604,-4.21773 0,0 -2e-6,0 -2e-6,0 -7.138723,-4.40561 -13.072403,-7.65557 -18.778032,-11.70677 -0.654584,-0.46478 -1.309231,-0.95922 -1.960899,-1.47813 m 15.760019,11.7366 c -6.888009,-3.90352 -13.943458,-8.68635 -19.824467,-12.69013 -4.298302,-2.92628 -7.46645,-6.74135 -9.95368,-10.56316 -1.531924,-2.35391 -2.860352,-4.79897 -4.035012,-7.14621 -0.832382,-1.66328 -1.742222,-3.38228 -2.604691,-5.02978 m 10.006951,15.43928 C 19.877492,140.8477 18.76663,139.5397 17.697283,138.21435 13.618342,133.15893 10.245931,127.97316 7.784403,122.45084 7.2945848,121.35195 6.843448,120.26713 6.4303962,119.19168 3.9538104,112.74343 2.8493587,106.62249 3.0778517,100.227 c 0.00372,-0.10406 0.00779,-0.20818 0.012214,-0.312371 0.1820406,-4.286508 0.7081413,-8.509065 1.7092173,-12.63151 M 3.5033063,106.66465 C 3.2052557,104.29443 3.0421914,101.86873 3.0319307,99.39692 3.0094107,93.971811 3.723956,88.341069 5.3414786,82.653811 5.6850952,81.445645 6.0743579,80.269966 6.5082933,79.121283 8.8225494,72.995146 12.288628,67.88691 16.865557,62.352871 c 0.382914,-0.462989 0.772928,-0.925051 1.170169,-1.386022 2.629638,-3.051519 5.593261,-6.075417 8.942106,-9.021969 M 8.1246484,76.299834 c 2.4999896,-5.222733 5.7286596,-10.180428 9.8405066,-15.185915 1.237424,-1.506357 2.553484,-3.015811 3.956429,-4.543524 5.332402,-5.806628 10.86979,-10.159848 17.641778,-14.491361 0,0 2e-6,-10e-7 2e-6,-10e-7 3.569764,-2.2833 7.738489,-4.963821 11.911343,-7.45057 M 32.372112,48.594295 c 5.735836,-4.516948 12.315583,-9.333724 19.587281,-14.07505 2.962294,-1.931489 5.995078,-3.544145 9.185563,-5.000651 4.012511,-1.831774 8.107099,-3.344841 12.64632,-5.003679 6.456328,-2.359435 12.738324,-4.814226 19.002103,-6.633416 m -24.251244,9.649663 c 7.057898,-3.110788 14.47355,-5.779442 22.932828,-8.113807 7.95611,-2.195515 14.291937,-4.427029 21.241507,-6.031134 1.29522,-0.298962 2.66154,-0.621099 4.08754,-0.961828 m -21.930602,4.643021 c 6.890502,-2.107099 15.022602,-4.649741 22.386772,-6.828367 2.3679,-0.7005235 4.78627,-1.2841954 7.25809,-1.7955944 5.26978,-1.0902775 10.60305,-1.8194638 16.21817,-2.6868181 4.74113,-0.7323528 9.17508,-1.3266887 13.51066,-1.792743 m -23.28477,4.7397176 c 7.65368,-1.6666785 15.3772,-2.662787 23.67942,-3.7966145 8.10148,-1.1064117 15.0594,-1.6315664 22.21578,-2.1780021 0,-10e-8 1e-5,-2e-7 1e-5,-2e-7 2.69764,-0.2059822 5.61321,-0.350297 8.63495,-0.4499643 m -13.64598,0.2423299 c 7.55628,-0.8096511 15.96189,-1.165057 24.6691,-1.85775592 1.63273,-0.12989085 3.19979,-0.19643889 4.71912,-0.21164274 6.56668,-0.0657123 12.24957,0.82886746 18.45672,1.70822646 3.17299,0.4495139 6.37808,0.715004 9.57859,0.946977 M 200.7427,1.6355236 c 7.67113,0.2594108 15.6712,0.3869774 23.63831,1.0837229 8.08393,0.7069613 15.43123,1.2623091 22.9076,2.3175365 6.40689,0.904279 12.99332,1.811608 19.59903,2.9158877 M 238.31199,3.6433202 c 7.81968,0.5679329 15.77684,1.8209461 23.706,3.1437995 5.04949,0.8424273 9.63024,1.8109368 14.03331,2.968616 2.75056,0.7231933 5.42918,1.5195983 8.0981,2.4020303 6.80729,2.250716 15.24172,3.635478 22.36939,5.320821 M 273.78722,9.9073244 c 0.94556,0.1595236 1.88268,0.3255106 2.81049,0.4964576 6.54638,1.206164 12.93853,2.722879 18.43389,3.96078 6.65209,1.49847 15.61291,4.729026 23.24515,7.611842 7.10922,2.685262 12.66927,5.009858 18.09192,7.588643 m -18.92481,-7.820986 c 7.09597,2.515752 14.24884,5.891581 20.54213,9.293592 0.17883,0.09667 0.35709,0.193433 0.53476,0.290264 7.20935,3.929051 13.74294,7.726312 19.56956,12.263978 4.87079,3.793286 9.09342,6.838371 13.76966,10.744053 m -24.25392,-18.90758 c 6.91225,4.013944 13.60504,8.510361 19.38527,13.282107 5.56996,4.598147 10.10349,9.199306 13.79261,14.09187 0.65117,0.863581 1.27474,1.734702 1.87129,2.614147 1.89594,2.795051 3.6951,5.502948 5.36318,8.308156 M 377.03901,58.307876 c 1.44,1.483322 2.77106,3.010665 3.99359,4.569703 3.6796,4.692446 6.39876,9.699124 8.17558,14.7659 0.48053,1.370263 0.99164,2.77223 1.48001,4.123163 2.25324,6.233025 4.24147,12.076003 4.6478,18.367118 0.0145,0.22507 0.0268,0.44997 0.0369,0.67467 0.0286,0.63837 0.0392,1.27528 0.0326,1.91053 m -1.40835,-18.070675 c 1.64288,4.965072 2.45306,10.344664 2.44803,15.863755 -0.002,2.71392 -0.20169,5.46316 -0.5943,8.22415 -0.60004,4.21964 -1.66152,8.07885 -3.1815,11.82437 -1.36929,3.37421 -3.09055,6.61202 -5.18671,10.0127 -1.40372,2.27731 -2.94444,4.50113 -4.6228,6.68635 m 13.33352,-33.29581 c -0.20502,5.21403 -1.3712,10.48809 -3.26265,15.667 -0.77446,2.12055 -1.66626,4.2139 -2.65503,6.2709 -1.92507,4.00483 -4.76889,7.88515 -8.28097,11.53229 -1.96222,2.03767 -4.11596,3.98453 -6.39577,5.81388 -0.99574,0.799 -1.98622,1.6409 -2.98038,2.52239 m 10.08272,-9.98143 c -0.25386,0.29962 -0.51003,0.60041 -0.76846,0.90225 -4.3896,5.12712 -9.70808,10.88385 -15.56851,16.33813 -5.68501,5.29102 -12.30493,8.43918 -20.01162,11.80334 0,0 0,0 0,0 -2.41279,1.05324 -4.79793,2.24484 -7.24223,3.53418 -0.59831,0.3156 -1.1978,0.63579 -1.80075,0.96035 m 13.78071,-6.29883 c -3.74741,2.30374 -7.7918,4.59253 -12.11152,6.92064 -2.86361,1.54334 -5.81143,3.08429 -8.84901,4.64883 -7.10748,3.6608 -13.98805,5.34593 -21.56898,6.85794 0,0 -1e-5,0 -1e-5,0 -3.11682,0.62165 -6.32428,1.62015 -9.64514,2.78918 m 19.3485,-5.55975 c -7.21654,2.86222 -14.74165,4.89874 -23.1877,6.67287 -7.44918,1.56473 -13.87632,3.59001 -20.84078,5.1436 -0.50403,0.11244 -1.01113,0.22232 -1.52182,0.32921 -7.04843,1.47535 -14.62273,2.86138 -22.31069,4.23519 m 30.44882,-6.23317 c -1.75186,0.37987 -3.50102,0.76354 -5.25888,1.15215 -4.57317,1.01099 -13.34271,2.9938 -17.91589,4.00479 -7.82965,1.74296 -15.1464,1.9999 -22.76921,2.51314 -5.63745,0.37956 0.71215,-0.0481 -4.92529,0.33146 m 17.92215,-1.2763 c -7.45009,1.12275 -15.6569,1.83355 -24.13264,2.66733 -8.33529,0.81996 -15.24283,0.94796 -22.45553,1.41762 0,0 0,0 0,0 -0.23996,0.0156 -0.48108,0.0295 -0.72329,0.0417 -2.09736,0.10546 -4.27668,0.0836 -6.49518,-0.0327 m 12.67462,-1.18074 c -2.39781,0.11304 -4.83136,0.18522 -7.2812,0.23691 -5.28458,0.1115 -10.64161,0.12786 -15.86256,0.2521 0,0 -1e-5,0 -1e-5,0 -7.67659,0.18266 -15.74686,-1.03238 -23.65213,-2.11204 -5.77085,-0.78816 -10.64915,-1.31878 -16.42,-2.10693 m 29.46941,3.49756 c -7.75701,-0.52597 -15.42225,-1.27397 -22.77855,-2.26726 -7.54496,-1.01877 -15.60133,-2.75773 -23.30125,-5.19637 -1.0134,-0.32095 -2.01227,-0.61162 -2.99697,-0.87846 -5.9032,-1.59971 -11.31524,-2.36712 -16.47101,-3.61089 m 29.71958,6.98325 c -4.16512,-0.79256 -8.20579,-1.62951 -12.16376,-2.59366 -3.47474,-0.84644 -6.85991,-1.78478 -10.17463,-2.86428 -7.40536,-2.41172 -15.196425,-3.99695 -22.298213,-6.34274 -4.730414,-1.5625 -9.357171,-3.15607 -13.80218,-4.76608 m 14.820541,7.18579 c -7.563416,-2.26918 -14.918859,-5.37583 -21.622767,-8.60393 -3.609207,-1.73792 -7.081758,-3.37781 -10.714791,-5.20748 -3.805565,-1.91655 -7.528962,-3.91453 -11.192484,-6.13968 -1.708886,-1.03794 -3.281984,-1.9978 -4.7676,-2.91617 m 22.208721,11.11594 c -2.272174,-0.93914 -4.469156,-1.96706 -6.596388,-3.05376 -4.951838,-2.52965 -9.666153,-5.45211 -14.081746,-8.38427 0,0 -2e-6,0 -2e-6,0 -7.174962,-4.7645 -13.054525,-8.92987 -18.372845,-13.9239 -1.162072,-1.09122 -2.294474,-2.17798 -3.395722,-3.26686 m 12.054979,10.84465 c -6.670662,-4.97811 -12.564961,-10.19197 -17.564856,-15.65863 -0.45978,-0.5027 -0.909474,-1.00645 -1.349352,-1.51097 -5.027431,-5.76625 -8.8857762,-11.76209 -11.862978,-17.63496 -0.037617,-0.0742 -0.074858,-0.14851 -0.1117268,-0.22292 -1.1905792,-2.40266 -1.9976407,-4.91875 -2.4954065,-7.46997 m 6.8123853,11.71866 C 9.5851521,121.76403 8.7766623,119.94988 8.0975224,118.13072 6.0149535,112.55228 5.1386618,106.89847 5.3863965,101.18765 5.4188102,100.44045 5.4554839,99.699038 5.498368,98.961994 5.8673449,92.620431 6.704159,86.553098 9.1481637,81.047166 9.3294917,80.638664 9.5199408,80.232685 9.7200432,79.829426 11.916266,75.40346 14.992109,69.691171 18.60674,64.337721 M 6.5251063,80.623153 C 6.6110446,80.406746 6.6983866,80.190915 6.7871424,79.975657 9.4344371,73.555211 13.333979,67.6435 18.861293,62.066853 c 0.251873,-0.254121 0.50723,-0.507671 0.76613,-0.760689 5.336414,-5.215171 10.074939,-11.072187 15.851213,-16.646003 0,0 10e-7,-1e-6 10e-7,-1e-6 0.651628,-0.628789 1.339053,-1.235397 2.059762,-1.822604 m -8.126677,8.519837 c 5.516518,-5.134906 11.433129,-9.521807 18.077795,-13.772466 4.331347,-2.770805 9.280596,-5.569255 14.50249,-8.262079 1.926146,-0.993274 3.881825,-1.968206 5.842525,-2.914951 4.089637,-1.974724 8.413385,-3.619444 12.914047,-4.979668 M 54.930484,35.308764 c 2.331744,-1.374519 4.76639,-2.704099 7.285118,-4.004943 4.253024,-2.196554 8.622171,-4.248441 13.061421,-6.282303 6.51663,-2.985623 14.116603,-5.804328 21.419955,-8.81788 1.794019,-0.740259 3.644002,-1.386434 5.540542,-1.969482 m -20.54818,6.765367 c 6.847117,-2.439205 14.57383,-5.266018 21.90458,-7.6045 6.72654,-2.145742 13.84503,-3.4206881 21.13397,-4.3642779 0.49856,-0.064542 0.99727,-0.1274603 1.49607,-0.1889564 6.62093,-0.8162667 13.04523,-2.384074 19.98149,-3.6699036 m -21.40896,4.4723701 c 7.64916,-1.71408 15.04405,-2.5381602 22.65449,-2.9454084 7.40469,-0.3962383 15.28885,-1.7379971 22.91482,-2.0579564 6.35598,-0.2666746 13.02173,-1.0445137 19.70401,-1.8905089 m -26.26355,2.4723224 c 7.64307,-0.728498 15.31655,-1.525065 22.8505,-2.4562061 3.96309,-0.4898088 8.03496,-0.5449787 12.09313,-0.4664798 3.51717,0.068034 7.16955,0.2453175 10.68672,0.3133516 3.64149,0.071379 7.54276,0.2671514 11.56764,0.5599448 M 194.12208,2.8194688 c 1.93678,-0.078192 3.85957,-0.1366455 5.77398,-0.1844498 5.90885,-0.1475485 11.73567,-0.1940955 17.63053,-0.4044594 0,1e-7 0,1e-7 0,2e-7 7.84521,-0.2799642 15.72976,1.1949564 23.59462,2.5080119 2.98287,0.4979977 5.90981,0.9235721 8.76797,1.3498372 M 227.63509,2.1588096 c 7.62648,0.7383547 15.86576,1.3258368 24.0732,2.3093672 8.39146,1.0055819 15.16689,2.6222935 21.99299,4.6776302 0.3356,0.1010487 0.67383,0.1994338 1.01443,0.2953426 3.94653,1.1113094 8.2639,1.9037034 12.47261,2.6437274 M 262.74565,7.2492934 c 4.04764,0.7648332 7.92656,1.5116347 11.74154,2.3213065 3.64903,0.7744501 7.19467,1.5971261 10.6958,2.5277221 7.57069,2.012279 15.47631,4.163449 23.33075,6.850593 4.5958,1.572304 8.60803,3.019276 12.4177,4.514691 m -21.42727,-8.352113 c 7.47293,2.05242 15.24816,5.288594 22.49849,8.882136 6.10807,3.027392 11.39769,5.022289 16.328,7.32735 1.39689,0.653085 2.75942,1.325817 4.10489,2.04632 5.12795,2.74603 10.54177,5.673759 15.63606,8.552482 M 332.4193,27.786897 c 2.14098,0.961796 4.26899,1.99556 6.37121,3.088746 5.08171,2.642583 10.02432,5.63819 14.67919,8.835259 0,1e-6 0,1e-6 0,2e-6 7.48398,5.14016 12.89454,8.767363 18.13761,13.633304 3.35707,3.115593 6.64795,6.516338 9.64141,10.089182 1.44955,1.730106 2.82139,3.490919 4.09668,5.273741 M 367.55484,48.21063 c 5.16662,4.484852 9.51504,9.088254 13.04475,14.207222 0.82488,1.196287 1.60072,2.414877 2.327,3.658415 3.2222,5.517074 6.47882,10.251292 8.92463,15.226944 0.88839,1.807311 1.67246,3.634401 2.3299,5.525469 0.45897,1.320197 0.82534,2.644509 1.10817,3.970128 m -6.05263,-14.327287 c 0.76066,1.527745 1.44073,3.047467 2.03961,4.558992 2.26602,5.719187 3.36718,11.322708 3.26476,16.716328 -0.008,0.403986 -0.0175,0.813492 -0.0297,1.228282 -0.1752,5.950337 -0.84766,12.968737 -2.52349,19.684427 -0.19558,0.78379 -0.40494,1.56319 -0.62877,2.33471 0,0 0,0 0,0 -0.56807,1.95806 -1.38753,3.85492 -2.41769,5.71486 M 25.071787,144.32343 19.589249,138.43861 M 286.49403,12.036837 l 6.94769,1.794819"
       transform="matrix(0.6,0,0,0.6,5.07224,4.8934483)" />
    <g
       id="g7"
       transform="matrix(0.6,0,0,0.6,5.07224,14.893465)">
      <text
         xml:space="preserve"
         style="font-weight:bold;font-size:66.6667px;font-family:Sans;-inkscape-font-specification:'Sans, Bold';text-align:center;text-anchor:middle;fill:#808080;fill-opacity:0.12549;stroke:none;stroke-width:1;stroke-dasharray:none"
         x="200.57999"
         y="72.133308"
         id="text4"><tspan
           sodipodi:role="line"
           x="200.57999"
           y="72.133308"
           style="font-style:normal;font-variant:normal;font-weight:normal;font-stretch:normal;font-size:40px;font-family:Quicksand;-inkscape-font-specification:'Quicksand, Normal';font-variant-ligatures:normal;font-variant-caps:normal;font-variant-numeric:normal;font-variant-east-asian:normal;fill:#000000;fill-opacity:1"
           id="tspan6">Partie</tspan></text>
      <text
         xml:space="preserve"
         style="font-weight:bold;font-size:66.6667px;font-family:Sans;-inkscape-font-specification:'Sans, Bold';text-align:center;text-anchor:middle;fill:#808080;fill-opacity:0.12549;stroke:none;stroke-width:1;stroke-dasharray:none"
         x="200.57999"
         y="122.1333"
         id="text7"><tspan
           sodipodi:role="line"
           x="200.57999"
           y="122.1333"
           style="font-style:normal;font-variant:normal;font-weight:normal;font-stretch:normal;font-size:40px;font-family:Quicksand;-inkscape-font-specification:'Quicksand, Normal';font-variant-ligatures:normal;font-variant-caps:normal;font-variant-numeric:normal;font-variant-east-asian:normal;fill:#000000;fill-opacity:1"
           id="tspan7">abbrechen</tspan></text>
    </g>
  </g>
</svg>
