<?xml version="1.0" encoding="UTF-8" standalone="no"?>
<svg
   height="130"
   width="250"
   version="1.1"
   id="svg1"
   sodipodi:docname="usecase-15.svg"
   inkscape:version="1.3.2 (091e20ef0f, 2023-11-25, custom)"
   xmlns:inkscape="http://www.inkscape.org/namespaces/inkscape"
   xmlns:sodipodi="http://sodipodi.sourceforge.net/DTD/sodipodi-0.dtd"
   xmlns="http://www.w3.org/2000/svg"
   xmlns:svg="http://www.w3.org/2000/svg">
  <defs
     id="defs1">
    <inkscape:path-effect
       effect="sketch"
       id="path-effect4"
       is_visible="true"
       lpeversion="1"
       nbiter_approxstrokes="3"
       parallel_offset="1;2069550669"
       strokelength="70"
       strokelength_rdm="0.3;1"
       strokeoverlap="0.5"
       strokeoverlap_rdm="0.5;1"
       ends_tolerance="0.1;1"
       tremble_size="0.8;1"
       tremble_frequency="3"
       nbtangents="2"
       tgt_places_rdmness="0.5;1"
       tgtlength="5"
       tgtlength_rdm="0.3;1"
       tgtscale="10" />
    <inkscape:path-effect
       effect="sketch"
       id="path-effect3"
       is_visible="true"
       lpeversion="1"
       nbiter_approxstrokes="3"
       parallel_offset="2;1"
       strokelength="70"
       strokelength_rdm="0.3;1"
       strokeoverlap="0.5"
       strokeoverlap_rdm="0.5;1"
       ends_tolerance="0.1;1"
       tremble_size="0.8;1"
       tremble_frequency="3"
       nbtangents="2"
       tgt_places_rdmness="0.5;1"
       tgtlength="5"
       tgtlength_rdm="0.3;1"
       tgtscale="10" />
    <inkscape:path-effect
       effect="sketch"
       id="path-effect2"
       is_visible="true"
       lpeversion="1"
       nbiter_approxstrokes="3"
       parallel_offset="2;1"
       strokelength="70"
       strokelength_rdm="0.3;1"
       strokeoverlap="0.5"
       strokeoverlap_rdm="0.5;1"
       ends_tolerance="0.1;1"
       tremble_size="0.8;1"
       tremble_frequency="3"
       nbtangents="2"
       tgt_places_rdmness="0.5;1"
       tgtlength="5"
       tgtlength_rdm="0.3;1"
       tgtscale="10" />
    <inkscape:path-effect
       effect="sketch"
       id="path-effect6"
       is_visible="true"
       lpeversion="1"
       nbiter_approxstrokes="3"
       parallel_offset="0.2;1"
       strokelength="70"
       strokelength_rdm="0.3;1"
       strokeoverlap="0.5"
       strokeoverlap_rdm="0.5;1"
       ends_tolerance="0.1;1"
       tremble_size="0.8;1"
       tremble_frequency="3"
       nbtangents="2"
       tgt_places_rdmness="0.5;1"
       tgtlength="5"
       tgtlength_rdm="0.3;1"
       tgtscale="10" />
    <inkscape:path-effect
       effect="sketch"
       id="path-effect5"
       is_visible="true"
       lpeversion="1"
       nbiter_approxstrokes="3"
       parallel_offset="0.2;1"
       strokelength="70"
       strokelength_rdm="0.3;1"
       strokeoverlap="0.5"
       strokeoverlap_rdm="0.5;1"
       ends_tolerance="0.1;1"
       tremble_size="0.8;1"
       tremble_frequency="3"
       nbtangents="2"
       tgt_places_rdmness="0.5;1"
       tgtlength="5"
       tgtlength_rdm="0.3;1"
       tgtscale="10" />
    <inkscape:path-effect
       effect="sketch"
       id="path-effect1"
       is_visible="true"
       lpeversion="1"
       nbiter_approxstrokes="3"
       parallel_offset="0.2;1"
       strokelength="70"
       strokelength_rdm="0.3;1"
       strokeoverlap="0.5"
       strokeoverlap_rdm="0.5;1"
       ends_tolerance="0.1;1"
       tremble_size="0.8;1"
       tremble_frequency="3"
       nbtangents="2"
       tgt_places_rdmness="0.5;1"
       tgtlength="5"
       tgtlength_rdm="0.3;1"
       tgtscale="10" />
  </defs>
  <sodipodi:namedview
     id="namedview1"
     pagecolor="#ffffff"
     bordercolor="#000000"
     borderopacity="0.25"
     inkscape:showpageshadow="2"
     inkscape:pageopacity="0.0"
     inkscape:pagecheckerboard="0"
     inkscape:deskcolor="#d1d1d1"
     inkscape:zoom="2.1415864"
     inkscape:cx="172.76912"
     inkscape:cy="89.186222"
     inkscape:window-width="1440"
     inkscape:window-height="831"
     inkscape:window-x="0"
     inkscape:window-y="0"
     inkscape:window-maximized="1"
     inkscape:current-layer="svg1"
     showgrid="false" />
  <path
     id="ellipse1"
     style="fill:#cccccc;fill-opacity:1;stroke:none;stroke-width:0.6;stroke-dasharray:none"
     d="M 23.539818,35.260245 A 117.6,58.8 0 0 0 7.4722399,64.893449 117.6,58.8 0 0 0 125.07224,123.69345 117.6,58.8 0 0 0 232.60466,88.526651 117.6,58.8 0 0 1 131.07224,117.69345 117.6,58.8 0 0 1 13.47224,58.893449 117.6,58.8 0 0 1 23.539818,35.260245 Z" />
  <path
     style="fill:none;fill-opacity:0.12549;stroke:#000000;stroke-width:1.66666667;stroke-dasharray:none"
     id="path1"
     inkscape:path-effect="#path-effect4"
     sodipodi:type="arc"
     sodipodi:cx="200"
     sodipodi:cy="100"
     sodipodi:rx="196"
     sodipodi:ry="98"
     d="m 396.03176,106.00657 c -0.30732,4.77894 -1.5625,9.6729 -3.59166,14.51491 -1.06084,2.53139 -2.32962,5.04023 -3.77613,7.50213 -2.17371,3.6996 -4.74332,7.31972 -7.74946,10.78647 -2.10807,2.43106 -4.4438,4.80176 -7.02948,7.08382 -2.30486,2.03421 -4.79175,4.22943 -7.24167,6.31612 m 13.21233,-13.19705 c -4.83075,5.39717 -10.41028,10.73482 -16.84617,15.2336 -5.46424,3.81958 -12.63229,8.9253 -19.39064,12.93312 0,0 -10e-6,0 -10e-6,0 -1.01502,0.60193 -2.04767,1.18795 -3.0978,1.76133 m 11.66803,-8.2379 c -4.38164,2.56023 -8.9125,5.15302 -13.35087,7.46476 -2.03885,1.06195 -4.09949,2.08661 -6.17762,3.04999 -6.15086,2.85144 -14.30757,6.27119 -22.62751,9.63155 0,0 0,0 0,0 -1.88246,0.76031 -3.69753,1.40345 -5.47083,1.9562 m 13.11856,-5.34427 c -7.16706,2.68374 -14.20599,5.07542 -21.3215,7.09709 -6.53725,1.85738 -14.30114,3.91824 -21.74893,5.76133 7.3e-4,-1.8e-4 -0.76876,0.18974 -0.76803,0.18956 -6.39468,1.57412 -13.02115,2.71603 -20.11168,4.06382 m 30.81775,-4.62067 c -3.10939,0.80035 -6.31812,1.48489 -9.60239,2.07376 -4.40718,0.7902 -8.92387,1.40342 -13.48699,1.89409 -7.72267,0.83041 -15.38751,2.12269 -23.38265,2.56401 -4.28596,0.23657 -8.42096,0.6652 -12.52074,1.13097 m 22.85235,-2.50883 c -7.39706,1.04418 -15.3703,1.66258 -23.20344,2.07479 -7.7282,0.40669 -15.76988,0.53276 -24.0791,0.1049 0,0 0,0 0,0 -0.53481,-0.0275 -1.06543,-0.0529 -1.59228,-0.0764 -1.90152,-0.0849 -3.75356,-0.1462 -5.5754,-0.20114 m 16.11193,-0.4851 c -3.53499,0.12455 -7.11689,0.28914 -10.68387,0.51039 -4.06843,0.25236 -8.10823,0.57787 -12.02999,1.00028 0,0 0,0 0,0 -7.38469,0.79539 -15.50577,-1.21536 -22.96008,-2.88059 -1.81725,-0.40596 -3.66927,-0.68745 -5.54375,-0.88618 m 14.78562,2.83067 c -7.83748,-0.67939 -15.7379,-1.29644 -23.82582,-2.30697 -8.22128,-1.0272 -15.4366,-2.42955 -22.78396,-4.21302 -0.80401,-0.19516 -1.60734,-0.38434 -2.4088,-0.56859 m 13.97849,3.8724 c -4.07357,-0.63875 -8.1619,-1.51124 -12.19991,-2.55791 -3.58864,-0.9302 -7.14284,-1.99933 -10.61895,-3.16745 -7.72931,-2.59738 -15.39472,-3.96308 -22.852995,-6.24161 -5.956362,-1.81968 -11.472077,-3.78699 -16.599897,-5.67038 m 25.029172,7.68053 c -7.656001,-2.17922 -14.753431,-4.8763 -21.148971,-7.87709 -5.828392,-2.73468 -12.539799,-5.1723 -18.804079,-7.85685 -1.132731,-0.48543 -2.250161,-0.97751 -3.350011,-1.48041 -5.630436,-2.57451 -10.201491,-5.62733 -14.259706,-8.76765 m 24.036103,15.76542 c -1.998282,-0.9458 -3.969711,-1.91576 -5.913286,-2.91607 -5.196012,-2.67427 -10.125148,-5.53094 -14.758385,-8.65481 0,0 -3e-6,0 -3e-6,0 -7.181714,-4.84214 -13.201364,-9.24549 -18.786831,-14.70045 -2.828777,-2.76268 -5.316542,-5.2953 -7.574973,-7.84969 m 12.940457,14.74541 c -6.396558,-5.06466 -11.869652,-10.69954 -16.388306,-17.01372 -0.129377,-0.18079 -0.257934,-0.36208 -0.385668,-0.54388 0,0 -1e-6,0 -1e-6,0 C 12.166535,129.95103 8.8462544,125.46721 6.5478929,120.04752 6.2830907,119.4231 6.0365167,118.79477 5.8081273,118.15965 4.1593216,113.5746 3.1606032,107.90231 3.1261891,102.28812 m 8.9481989,23.99451 C 10.886014,124.10059 9.820018,121.89141 8.8953491,119.67768 6.8635112,114.81331 5.5327565,109.97118 5.0472148,105.35797 4.9264534,104.2106 4.865364,103.0156 4.862267,101.78546 4.8468456,95.659898 6.2737953,88.63096 8.9339731,82.174793 c 0,0 4e-7,-10e-7 4e-7,-10e-7 -3.4e-6,8e-6 0.04449,-0.107742 0.044487,-0.107734 1.5014028,-3.628062 3.2618318,-7.086423 5.3285028,-10.413035 M 4.5591871,90.412557 c 0.6583015,-3.115495 1.5902148,-6.171996 2.8078387,-9.18555 1.6669715,-4.125664 3.8680162,-8.167153 6.6431232,-12.192347 1.463366,-2.122561 3.045397,-4.198072 4.754318,-6.223075 3.178422,-3.766302 6.807923,-7.373038 10.982897,-10.823648 1.213841,-1.003239 2.455594,-2.016492 3.71619,-3.027184 M 22.472052,59.124438 c 4.970638,-5.146348 11.144365,-10.652789 18.32727,-16.136147 6.608481,-5.04485 12.378877,-8.189093 19.368838,-12.167366 0.221273,-0.125935 0.444313,-0.250934 0.669088,-0.375019 2.183479,-1.205364 4.522305,-2.319902 6.984911,-3.367037 m -15.219481,9.566566 c 2.83115,-1.534368 5.854353,-3.108275 8.998936,-4.639227 3.917237,-1.907122 8.102996,-3.786909 12.436398,-5.467616 7.249343,-2.811654 14.298436,-5.798382 22.08557,-8.632276 10e-7,-1e-6 2e-6,-1e-6 3e-6,-1e-6 5.584045,-2.032148 11.087255,-3.432156 16.841335,-4.735913 m -27.142255,6.378387 c 7.203289,-2.552381 14.315845,-4.659324 21.517695,-6.276035 5.21837,-1.171448 11.01989,-2.860551 17.05718,-4.6401518 1.95344,-0.5758105 3.93629,-1.1622565 5.88315,-1.72747 7.11179,-2.0647048 13.98005,-2.486717 21.23805,-3.1821324 M 120.76761,10.87836 c 1.7449,-0.369326 3.47674,-0.716092 5.20065,-1.038002 5.86041,-1.0943252 11.64402,-1.9045219 17.61874,-2.3449502 7.37282,-0.5434887 14.59075,-1.9584997 21.96356,-2.5019884 6.47442,-0.4668814 14.64105,-1.0509379 22.34217,-1.2883014 M 154.52624,3.1899079 c 7.46062,-1.1568505 15.39162,-1.5555159 23.27575,-1.9355084 7.3212,-0.35286141 14.94368,-0.43051835 22.91108,-0.073473 0.49393,0.022134 0.98915,0.045938 1.48568,0.071448 3.95976,0.203438 7.50748,0.2518215 10.85463,0.2707976 m -21.05351,0.6067733 c 2.72592,-0.022216 5.42147,-0.034679 8.10627,-0.026553 5.16038,0.01562 10.27838,0.1072915 15.51234,0.3516107 0,0 0,0 0,0 8.01507,0.3741398 15.24528,0.4407314 22.2547,0.4132889 5.0042,-0.019592 10.80553,1.0378089 16.57743,2.2937246 M 229.25129,2.7797073 c 7.60384,0.6775163 15.91805,1.2183136 24.22287,1.9167154 8.43448,0.7093068 15.13583,2.3413131 21.73769,3.7641678 -2e-5,-4.6e-6 0.0909,0.019605 0.0908,0.0196 5.77293,1.2466616 12.69332,2.9742785 19.35222,4.9917355 M 264.74206,7.0095388 c 3.49458,0.6099184 6.9825,1.2752383 10.43941,1.9909833 4.19119,0.8677775 8.33433,1.8091529 12.39073,2.8159769 7.74142,1.921467 15.11775,3.899105 22.06217,5.913902 6.87066,1.993393 13.97963,5.051336 20.22936,7.900684 M 298.84248,14.152339 c 7.46236,2.191369 15.109,4.800092 22.1957,7.611285 6.19427,2.457178 11.84334,5.280342 17.09467,8.509876 1.20858,0.743272 2.39523,1.507571 3.56124,2.293014 5.71952,3.852761 11.73963,6.656317 17.24134,9.851644 m -25.2323,-14.983532 c 1.9549,0.898693 3.87621,1.822457 5.7631,2.770313 5.26618,2.645406 10.2635,5.478114 14.97048,8.474646 0,0 0,10e-7 0,10e-7 7.14555,4.548957 12.97208,8.972229 17.97635,13.755666 3.14094,3.002336 6.27671,6.143613 9.23469,9.437773 2.35216,2.619489 4.53586,5.273987 6.47719,7.957233 M 364.17873,44.666677 c 6.63815,4.937337 11.8519,10.233176 15.6818,15.629904 0.23906,0.336858 0.48259,0.676687 0.72938,1.018716 4.47718,6.205043 9.16297,12.141201 12.64078,19.274553 0.0641,0.131465 0.12759,0.263021 0.19047,0.394667 0,0 0,0 0,10e-7 2.65644,5.561169 3.46885,10.542638 3.37634,15.36576 m -8.33999,-24.758674 c 1.60175,2.719909 2.97577,5.548685 4.09418,8.430399 1.72472,4.443948 2.83815,9.003369 3.26881,13.527895 0.18357,1.928479 0.28377,3.870797 0.29258,5.830542 0.0265,5.90057 -0.77635,11.92472 -2.59182,18.10386 -0.20281,0.69031 -0.42151,1.368 -0.65565,2.03406 -0.13889,0.39513 -0.2832,0.78612 -0.43284,1.1732 m 2.85408,-14.86068 c -0.68754,4.07988 -1.77626,8.40207 -3.35621,12.82849 -1.18278,3.31369 -2.64931,6.70805 -4.43359,10.08198 -1.83908,3.47755 -4.04551,6.51045 -6.62523,9.33784 -2.58055,2.82831 -5.44022,5.35454 -8.68012,8.018 -3.59506,2.95543 -7.23333,6.10771 -11.06894,9.20394 m 18.63322,-16.37864 c -4.76222,5.40886 -10.68988,10.62109 -17.6747,15.36887 -5.99679,4.07618 -12.82449,8.69368 -20.01566,12.60462 0,0 -1e-5,0 -1e-5,0 -1.30735,0.71101 -2.61959,1.40763 -3.94077,2.09416 -0.42007,0.21828 -0.84089,0.43546 -1.26261,0.65169 m 12.70486,-7.73518 c -4.06986,2.25311 -7.71196,4.38184 -11.866,6.75919 -2.59918,1.4875 -5.26954,2.99615 -7.93902,4.42674 -6.38304,3.42073 -13.91426,5.63995 -21.53459,7.8786 0,0 0,0 0,0 -3.77017,1.10757 -7.67913,2.34389 -11.98408,3.68067 m 19.51705,-6.32508 c -6.92676,2.70215 -14.09497,4.8688 -21.09574,6.6981 -5.79302,1.51372 -13.12712,3.19675 -20.35253,4.37952 -0.97318,0.1593 -1.9454,0.30969 -2.9123,0.44939 -7.82154,1.13013 -14.94152,2.9793 -23.12569,4.73949 m 34.42375,-4.74 c -2.74022,0.65664 -5.54732,1.25383 -8.40299,1.79069 -4.75288,0.89353 -9.63015,1.61799 -14.5342,2.16959 -7.62244,0.85737 -15.25869,2.12251 -22.96771,2.66878 -3.5281,0.25001 -7.05019,0.54616 -10.60409,0.83161 m 19.46003,-3.6598 c -7.78162,0.91532 -15.40859,1.68129 -23.20419,2.2255 -7.72888,0.53955 -15.4491,1.00845 -23.08787,1.62031 -0.064,0.005 -0.12801,0.0102 -0.19203,0.0151 -3.65088,0.28169 -7.34357,0.26221 -11.01895,0.14247 m 21.34454,0.56788 c -3.20571,0.0872 -6.3391,0.1669 -9.38988,0.2438 -4.40659,0.11107 -8.61425,0.21574 -12.73586,0.33145 0,0 0,0 0,0 -6.97797,0.1959 -15.65987,-0.71599 -23.37369,-1.30484 -5.86561,-0.44777 -11.7122,-1.18696 -17.53236,-2.02026 m 26.53231,1.38456 c -8.14152,-0.81965 -15.94257,-1.25019 -24.08409,-2.06984 -8.35855,-0.85102 -15.44016,-2.36992 -22.70116,-3.97263 -0.59341,-0.13098 -1.18677,-0.26314 -1.77993,-0.39667 -5.61932,-1.26498 -11.1472,-2.63701 -16.42955,-4.26097 m 29.22661,5.82157 c -4.03138,-0.66578 -8.08326,-1.4247 -12.09061,-2.24992 -3.63798,-0.74916 -7.24548,-1.55425 -10.77648,-2.39641 -7.75557,-1.84972 -14.856859,-3.95403 -21.287756,-6.19494 -4.470473,-1.55778 -9.494967,-3.35728 -14.543487,-5.33629 m 23.459993,7.40001 c -7.946999,-2.36713 -14.758824,-4.82477 -21.251242,-7.73053 -5.587422,-2.50073 -12.194581,-4.83479 -17.893607,-6.96461 -1.267453,-0.47367 -2.509936,-0.94387 -3.728421,-1.41676 -5.661838,-2.19731 -10.782542,-5.85557 -15.308414,-9.40547 m 23.527079,15.24884 c -1.931806,-0.80923 -3.836283,-1.67919 -5.70924,-2.58873 -5.350381,-2.59822 -10.667972,-5.63264 -15.64573,-8.57449 0,0 -2e-6,0 -2e-6,0 -7.476818,-4.41878 -12.879092,-9.35901 -17.571618,-14.56575 -0.744807,-0.82642 -1.510611,-1.64039 -2.283946,-2.44096 m 9.351475,9.30241 c -6.605593,-5.0763 -11.851655,-10.54754 -16.227756,-16.52464 -0.121276,-0.16565 -0.241887,-0.3317 -0.361841,-0.49814 0,0 0,0 0,0 -4.666366,-6.475 -8.266238,-11.69217 -10.8118796,-17.78488 -0.2937965,-0.70317 -0.5702722,-1.41161 -0.8291027,-2.1271 -1.9869015,-5.49242 -3.0080379,-11.21534 -3.0858876,-16.92551 -0.022842,-1.675396 0.035425,-3.349142 0.1737244,-5.016084 m 7.3534175,32.551254 c -1.522928,-2.62078 -2.7740892,-5.30502 -3.7480356,-8.02003 -1.6385617,-4.56772 -2.4961168,-9.23172 -2.5466585,-13.86462 -0.01911,-1.75166 -0.036003,-3.48562 -0.023359,-5.24822 0.042361,-5.904843 0.4205233,-11.929356 2.0956545,-17.784812 0,0 3e-7,-10e-7 3e-7,-10e-7 C 7.5975269,82.341492 7.7489983,81.858895 7.9131958,81.377349 9.8399232,75.726781 13.45463,70.371695 18.102216,64.99871 M 5.115602,92.738809 c 0.5699526,-3.988847 1.5759557,-8.000604 2.9864062,-12.04113 1.1883549,-3.404289 2.6555998,-6.806047 4.3750848,-10.219963 1.558768,-3.094826 3.553181,-5.961478 5.881894,-8.736628 2.63078,-3.135125 5.532995,-5.979219 8.654713,-8.976655 1.046158,-1.004507 2.161434,-1.992053 3.342188,-2.961127 m -9.502964,11.026237 c 4.740664,-5.554464 10.691305,-10.370767 17.667631,-14.747146 6.138414,-3.85074 12.525032,-8.658404 19.623068,-12.981595 0,-1e-6 3e-6,-2e-6 3e-6,-2e-6 1.046422,-0.637343 2.106485,-1.238646 3.180049,-1.809324 3.415751,-1.815725 6.911411,-3.292245 10.506618,-4.64406 M 50.174682,38.23518 c 3.594011,-2.118935 7.544401,-4.39811 11.626905,-6.700701 2.875572,-1.621865 5.856896,-3.277987 8.846441,-4.907387 6.835302,-3.725463 13.993116,-5.610768 21.780603,-7.821521 10e-7,0 2e-6,-1e-6 3e-6,-1e-6 6.000543,-1.703466 12.115846,-3.69423 18.293116,-5.396245 m -29.440254,9.021646 c 7.194764,-2.761451 14.721376,-5.177237 23.089414,-7.598484 7.26766,-2.102861 13.35888,-3.624308 19.81922,-5.1926931 0.12779,-0.031024 1.7747,-0.4299355 1.90249,-0.4609595 1.847,-0.4468938 3.8106,-0.8398056 5.85963,-1.1873312 m -14.51987,2.7973558 c 2.35252,-0.594987 4.75835,-1.135274 7.22094,-1.6356351 5.30922,-1.0787527 10.81522,-1.9588379 16.58418,-2.8075947 8.16686,-1.2015478 15.21309,-2.2068075 22.71609,-2.9961736 2.21341,-0.2328648 4.496,-0.4356783 6.82712,-0.6130214 m -16.40388,2.3927906 c 7.65719,-0.7481732 15.14157,-1.5184352 22.30525,-1.8146496 6.78827,-0.2806916 14.8216,-0.3428432 22.45948,0.2030023 0.37792,0.027008 0.75485,0.055504 1.13062,0.085534 1.3308,0.1063552 2.65481,0.1788414 3.97439,0.226027 M 190.80173,1.4952944 c 2.85543,-0.080884 5.75254,-0.1283018 8.6899,-0.1499621 5.0539,-0.037268 10.229,0.00173 15.50426,0.077722 0,0 0,0 0,0 8.35701,0.1203917 15.35902,0.6483462 22.48216,1.0463904 4.78574,0.2674293 10.02327,1.1044939 15.20911,2.1840226 M 228.08389,3.1006069 c 7.62037,0.7758588 15.80479,1.2919481 23.88809,2.159213 8.28851,0.8892823 15.64077,1.9248606 23.39247,2.6237745 0.17709,0.015968 0.35374,0.032993 0.52994,0.051045 7.39102,0.7572202 14.27789,3.3789356 20.72511,5.5621236 M 264.03885,7.0927638 c 3.97153,0.7507538 7.90878,1.4422142 11.73556,2.1222575 3.79864,0.6750417 7.50585,1.3418167 11.23701,2.0751237 7.74417,1.522006 15.18579,4.064841 21.98974,6.394035 5.36543,1.836744 10.92951,4.103189 16.34961,6.736377 m -26.31715,-9.812578 c 7.69566,2.479315 14.91613,4.638981 22.17844,7.375236 6.17073,2.324975 11.95794,4.914534 17.29624,7.537716 1.21624,0.597647 2.41456,1.199714 3.59339,1.803533 6.94275,3.556172 13.88134,7.799796 19.8313,11.903074 M 332.07214,28.228179 c 2.18677,1.038513 4.62099,2.18509 6.80776,3.223603 4.96398,2.356645 9.49212,4.55168 13.96543,6.931815 0,0 0,2e-6 0,2e-6 6.99701,3.722928 13.48731,9.157761 18.86594,13.985201 3.73956,3.35634 7.09546,6.832013 10.09905,10.450012 1.06949,1.288252 2.09392,2.594126 3.07404,3.917862 M 362.82663,45.366233 c 6.88359,5.080047 12.43892,10.348653 17.22186,15.920772 0.29414,0.342668 0.58339,0.686152 0.8678,1.03047 4.95444,5.997982 8.47261,12.290551 10.72504,18.870408 0.046,0.13434 0.0915,0.268806 0.13638,0.403396 0,0 0,10e-7 0,10e-7 2.1036,6.300657 3.26862,11.932765 3.03978,17.521189 m -5.74534,-26.795664 c 1.73378,3.024442 3.17054,5.903931 4.30988,8.722254 1.61637,3.998297 2.61892,7.840529 2.9836,11.63656 0.17379,1.809135 0.25776,3.770083 0.23224,5.825986 -0.069,5.557615 -0.94374,11.863585 -2.99547,17.618905 -0.29,0.81347 -0.59665,1.6205 -0.92042,2.42185 -1.28747,3.18656 -2.84434,6.28017 -4.70623,9.34139 m 8.60054,-20.86166 c -0.6374,4.27997 -1.74241,8.70336 -3.39781,13.07191 -1.10607,2.91889 -2.46411,5.82826 -4.09486,8.63242 -1.89382,3.2565 -4.24605,6.4975 -7.02395,9.67891 -2.46497,2.82304 -5.26167,5.59493 -8.35229,8.27209 -3.12207,2.7044 -6.35138,5.45553 -9.59588,8.01073 m 15.30383,-14.58998 c -4.63257,5.71515 -10.06514,10.6439 -16.01515,15.69644 -5.22475,4.43667 -12.57547,8.24508 -20.39846,11.60536 0,0 0,1e-5 0,1e-5 -1.49885,0.64381 -2.98555,1.32108 -4.4827,2.02592 -1.04243,0.49076 -2.08231,0.99127 -3.13202,1.50131 m 15.42015,-8.27194 c -4.04948,2.40689 -8.28818,4.67698 -12.82806,6.8249 -2.80354,1.32642 -5.72908,2.60974 -8.81496,3.85793 -7.29197,2.94948 -13.961,5.78669 -20.57351,7.96974 0,0 0,0 0,0 -5.94145,1.96151 -13.79379,4.21727 -21.59076,6.06032 m 32.45865,-9.72981 c -6.9777,2.60467 -14.69895,5.18221 -22.89005,7.45478 -7.55654,2.09651 -14.34584,3.47931 -21.63938,4.33025 -0.24597,0.0287 -0.49254,0.0568 -0.73979,0.0843 -3.18231,0.35408 -6.40226,0.96031 -9.64873,1.65722 m 19.59023,-3.6805 c -2.77209,0.61053 -5.54187,1.23975 -8.35955,1.88407 -4.72201,1.07978 -9.63583,2.21568 -14.49134,3.26932 -7.60923,1.65119 -15.62182,2.02697 -24.2248,2.37477 -3.81823,0.15436 -7.28927,0.43295 -10.63483,0.72526 m 19.1754,-1.3065 c -8.00175,0.69509 -15.26535,1.8666 -23.12344,2.83151 -7.68468,0.94363 -15.2147,0.43654 -22.41307,-0.0988 -3e-5,0 -0.079,-0.006 -0.0791,-0.006 -2.61379,-0.19142 -5.39035,-0.24868 -8.23963,-0.24879 m 17.776,1.50573 c -3.2144,0.12901 -6.35883,0.1283 -9.47009,0.0246 -4.59663,-0.15322 -9.11687,-0.53117 -13.67417,-1.04602 0,0 0,0 0,0 -7.69328,-0.86914 -15.31809,-0.54335 -22.48559,-0.80156 -4.96283,-0.17879 -10.55117,-1.05196 -16.17508,-2.12519 m 25.48846,3.3962 c -7.69295,-0.39642 -15.65693,-1.14111 -23.2376,-1.74577 -7.80029,-0.62218 -15.75803,-2.62098 -23.59037,-4.66227 -0.49911,-0.13007 -0.99517,-0.25692 -1.48834,-0.38093 -4.55703,-1.14582 -9.06086,-2.0936 -13.34077,-3.07042 m 24.59171,4.69746 c -3.74921,-0.51571 -7.31971,-1.31665 -10.74101,-2.30581 -3.80828,-1.10103 -7.45368,-2.44189 -10.95858,-3.89227 -6.97222,-2.88522 -15.251743,-3.98671 -22.460902,-6.21918 -6.423874,-1.98929 -13.058342,-4.43029 -19.396729,-6.80415 m 27.668551,11.18749 c -7.79898,-2.06682 -15.385139,-5.05078 -22.811755,-8.23652 -6.28039,-2.69406 -12.286905,-4.92726 -17.454872,-6.98186 -1.270196,-0.50499 -2.526606,-1.01268 -3.78505,-1.53489 -2.026273,-0.84083 -4.014441,-1.88839 -5.950267,-3.06602 m 15.103947,5.09991 c -1.600294,-0.71805 -3.151101,-1.43557 -4.654685,-2.14941 -5.571208,-2.64498 -10.688321,-5.3329 -15.306218,-7.86462 0,0 -2e-6,0 -2e-6,0 -6.511681,-3.56996 -13.340326,-9.47279 -18.617931,-14.54335 -1.143416,-1.09855 -2.231952,-2.196 -3.269523,-3.29857 m 10.427253,9.28562 C 27.749802,146.7428 22.68936,141.83964 18.478581,137.08527 18.08833,136.64464 17.704145,136.20386 17.325935,135.76323 12.996152,130.71889 9.5395541,124.75387 7.139936,119.08841 6.6724531,117.98468 6.2420209,116.88587 5.8490293,115.7975 4.0333992,110.76918 3.3638369,105.33767 3.670286,99.883291 c 0.027401,-0.487711 0.062607,-0.975914 0.1055125,-1.4644 M 9.5839309,124.56506 C 8.5137584,122.57894 7.5814959,120.58735 6.7803324,118.58802 4.6129555,113.17926 3.4009,107.70387 3.0286573,102.13168 c -0.063495,-0.95048 -0.094745,-1.89512 -0.09419,-2.834172 0.00381,-6.447176 1.5050566,-12.626354 4.3733824,-18.633676 0.1301379,-0.272556 0.2630783,-0.544746 0.3988102,-0.816592 0.6124705,-1.226665 1.25922,-2.486603 1.9431411,-3.768639 M 4.0015572,88.897015 C 4.6551188,86.095607 5.5456005,83.359499 6.6847748,80.702214 8.4836785,76.506017 10.909093,72.491609 14.0173,68.727827 c 1.391309,-1.68476 2.842437,-3.480249 4.372066,-5.346285 3.249704,-3.964402 7.129,-8.593138 11.405943,-12.645402 1.793902,-1.699664 3.678511,-3.237472 5.667659,-4.653778 m -12.765178,11.7112 c 5.082911,-5.242178 11.215013,-10.123501 18.443571,-14.560023 6.382616,-3.917326 12.302401,-8.215004 18.571873,-12.220928 -2.74e-4,1.74e-4 0.149634,-0.0955 0.14936,-0.09532 0.915848,-0.583813 1.88662,-1.140633 2.905335,-1.674572 m -10.56732,7.204443 c 2.689764,-1.423116 5.646577,-2.999883 8.388855,-4.434512 3.885757,-2.032842 7.928684,-4.091463 12.027621,-5.977253 6.739541,-3.100647 14.472974,-5.8755 23.161231,-9.141917 0,0 3e-6,-1e-6 3e-6,-1e-6 3.11811,-1.172278 6.041681,-2.018993 8.913331,-2.660225 M 87.546061,20.49741 c 7.201464,-2.519517 14.338449,-4.916307 21.452349,-7.195127 4.75257,-1.522409 9.99398,-2.680664 15.31681,-3.7587409 2.03386,-0.4119344 4.90567,-0.9728855 6.93953,-1.38482 2.26204,-0.4558814 4.64611,-0.8591212 7.12529,-1.2145601 M 123.48601,9.7194005 C 124.19243,9.5711964 124.9,9.4246627 125.60887,9.2798411 132.50278,7.8714106 139.53557,6.6213206 146.88118,5.5631963 154.79307,4.4235 162.23506,3.7754516 170.06097,3.4987749 177.18132,3.2470423 184.06728,2.8004619 190.50696,2.9869 m -32.1027,1.8266138 c 7.74986,-0.7889294 15.51757,-1.4601261 23.46028,-1.8471824 6.34689,-0.3092899 12.55111,-0.5669204 18.77929,-0.7882913 1.50814,-0.053604 3.01881,-0.1051222 4.53423,-0.1547561 4.00856,-0.1312903 7.93903,-0.056468 11.77742,0.082628 M 194.59581,1.8632085 c 1.58474,0.025363 3.19378,0.034827 4.82289,0.034267 6.19701,-0.00213 12.67964,-0.1491033 19.17493,-0.1166466 0,0 0,0 0,1e-7 8.24917,0.041221 15.40381,1.0499973 22.65313,2.0099973 1.43519,0.1900579 2.9038,0.3898501 4.39854,0.6025368 M 232.72942,3.0882343 c 7.8966,0.8119022 15.31601,1.5754222 22.56123,2.782475 6.64767,1.1075019 12.73911,1.9865211 19.38678,3.0940229 1.0808,0.1812152 2.14952,0.3646663 3.20374,0.5512726 0,0 0,2e-7 0,2e-7 3.37929,0.598164 6.832,1.445073 10.25925,2.42724 M 270.55809,8.1620128 c 1.97897,0.3688155 3.9178,0.7650374 5.81788,1.1876316 5.60932,1.2475636 10.8806,2.7249086 15.84639,4.4043706 6.83478,2.311568 15.59047,3.884735 22.96872,5.454127 5.77643,1.228674 10.84694,3.826018 15.48122,6.451592 m -25.86725,-7.166962 c 7.71601,2.396391 14.89037,4.918279 21.57806,7.492266 4.03153,1.551673 7.97282,3.373324 11.61613,5.217617 2.89538,1.465676 5.65661,2.973196 8.18124,4.411922 5.01156,2.855962 10.86344,6.540741 16.18056,10.277367 M 337.1714,31.576962 c 0.001,7.34e-4 0.24899,0.134254 0.25035,0.134988 7.26914,3.916733 13.72078,7.207134 20.08208,11.257743 0,0 0,2e-6 0,2e-6 6.90697,4.398064 12.7321,9.984031 17.46395,15.495133 0.45851,0.534013 1.61557,1.875356 2.07407,2.409369 m -8.29708,-11.237942 c 4.6408,3.754251 8.60364,7.902315 12.0079,12.15363 1.41148,1.762694 2.7395,3.559064 3.98811,5.37128 3.11435,4.520134 5.36881,8.821915 6.89365,13.1594 0.87929,2.501212 1.51384,5.010536 1.919,7.554604 0.15535,0.975426 0.30584,1.958813 0.4477,2.954909 m -1.24669,-10.199487 c 0.1987,0.476718 0.38987,0.955509 0.57337,1.43622 2.3808,6.236733 3.46318,12.773247 3.00729,19.308789 -0.0508,0.72861 -0.12078,1.45723 -0.2102,2.1854 -0.71058,5.78643 -1.61636,11.23 -3.39434,16.27887 -0.5711,1.62174 -1.23562,3.21161 -2.019,4.76248 -0.55922,1.1071 -1.19914,2.2711 -1.91209,3.48013 M 25.071787,144.32343 19.589249,138.43861 M 286.49403,12.036837 l 6.94769,1.794819"
     transform="matrix(0.6,0,0,0.6,5.0722399,4.8934486)" />
  <g
     id="g7"
     transform="matrix(0.6,0,0,0.6,5.0722399,14.893466)">
    <text
       xml:space="preserve"
       style="font-weight:bold;font-size:66.6667px;font-family:Sans;-inkscape-font-specification:'Sans, Bold';text-align:center;text-anchor:middle;fill:#808080;fill-opacity:0.12549;stroke:none;stroke-width:1;stroke-dasharray:none"
       x="200.57999"
       y="72.133308"
       id="text4"><tspan
         sodipodi:role="line"
         x="200.57999"
         y="72.133308"
         style="font-style:normal;font-variant:normal;font-weight:normal;font-stretch:normal;font-size:40px;font-family:Quicksand;-inkscape-font-specification:'Quicksand, Normal';font-variant-ligatures:normal;font-variant-caps:normal;font-variant-numeric:normal;font-variant-east-asian:normal;fill:#000000;fill-opacity:1"
         id="tspan6">Nachricht</tspan></text>
    <text
       xml:space="preserve"
       style="font-weight:bold;font-size:66.6667px;font-family:Sans;-inkscape-font-specification:'Sans, Bold';text-align:center;text-anchor:middle;fill:#808080;fill-opacity:0.12549;stroke:none;stroke-width:1;stroke-dasharray:none"
       x="200.57999"
       y="122.1333"
       id="text7"><tspan
         sodipodi:role="line"
         x="200.57999"
         y="122.1333"
         style="font-style:normal;font-variant:normal;font-weight:normal;font-stretch:normal;font-size:40px;font-family:Quicksand;-inkscape-font-specification:'Quicksand, Normal';font-variant-ligatures:normal;font-variant-caps:normal;font-variant-numeric:normal;font-variant-east-asian:normal;fill:#000000;fill-opacity:1"
         id="tspan7">senden</tspan></text>
  </g>
</svg>
