<svg xmlns="http://www.w3.org/2000/svg" viewBox="0 0 52 41">
  <rect fill="#eee" stroke="none" x="0" y="0" width="52" height="41"/>

  <defs>
    <pattern id="wave" x="0" y="0" width="100%" height="100%">
      <polygon fill="none" points="1,4 3,1 7,1 9,4 7,7 3,7" stroke="#ccc" stroke-width="0.5px"/>
    </pattern>
  </defs>

  <rect x="3" y="3" width="10" height="8" fill="url(#wave)"/>
  <rect x="27" y="3" width="10" height="8" fill="url(#wave)"/>

  <rect x="9" y="6" width="10" height="8" fill="url(#wave)"/>
  <rect x="21" y="6" width="10" height="8" fill="url(#wave)"/>

  <rect x="15" y="9" width="10" height="8" fill="url(#wave)"/>
  <rect x="27" y="9" width="10" height="8" fill="url(#wave)"/>

  <rect x="9" y="12" width="10" height="8" fill="url(#wave)"/>
  <rect x="21" y="12" width="10" height="8" fill="url(#wave)"/>
  <rect x="33" y="12" width="10" height="8" fill="url(#wave)"/>

  <rect x="15" y="15" width="10" height="8" fill="url(#wave)"/>
  <rect x="27" y="15" width="10" height="8" fill="url(#wave)"/>

  <rect x="9" y="18" width="10" height="8" fill="url(#wave)"/>
  <rect x="21" y="18" width="10" height="8" fill="url(#wave)"/>

  <rect x="3" y="21" width="10" height="8" fill="url(#wave)"/>
  <rect x="15" y="21" width="10" height="8" fill="url(#wave)"/>
  <rect x="27" y="21" width="10" height="8" fill="url(#wave)"/>
  <rect x="39" y="21" width="10" height="8" fill="url(#wave)"/>

  <rect x="21" y="24" width="10" height="8" fill="url(#wave)"/>
  <rect x="33" y="24" width="10" height="8" fill="url(#wave)"/>

  <rect x="27" y="27" width="10" height="8" fill="url(#wave)"/>
  <rect x="39" y="27" width="10" height="8" fill="url(#wave)"/>

  <rect x="21" y="30" width="10" height="8" fill="url(#wave)"/>
</svg>
