<?xml version="1.0" encoding="UTF-8" standalone="no"?>
<!-- Generator: Adobe Illustrator 18.0.0, SVG Export Plug-In . SVG Version: 6.00 Build 0)  -->

<svg
   xmlns:dc="http://purl.org/dc/elements/1.1/"
   xmlns:cc="http://creativecommons.org/ns#"
   xmlns:rdf="http://www.w3.org/1999/02/22-rdf-syntax-ns#"
   xmlns:svg="http://www.w3.org/2000/svg"
   xmlns="http://www.w3.org/2000/svg"
   xmlns:sodipodi="http://sodipodi.sourceforge.net/DTD/sodipodi-0.dtd"
   xmlns:inkscape="http://www.inkscape.org/namespaces/inkscape"
   version="1.1"
   id="Capa_1"
   x="0px"
   y="0px"
   viewBox="0 0 30 30"
   xml:space="preserve"
   sodipodi:docname="close.svg"
   width="30"
   height="30"
   inkscape:version="0.92.4 (5da689c313, 2019-01-14)"><metadata
   id="metadata43"><rdf:RDF><cc:Work
       rdf:about=""><dc:format>image/svg+xml</dc:format><dc:type
         rdf:resource="http://purl.org/dc/dcmitype/StillImage" /><dc:title /></cc:Work></rdf:RDF></metadata><defs
   id="defs41">
	
	
</defs><sodipodi:namedview
   pagecolor="#ffffff"
   bordercolor="#666666"
   borderopacity="1"
   objecttolerance="10"
   gridtolerance="10"
   guidetolerance="10"
   inkscape:pageopacity="0"
   inkscape:pageshadow="2"
   inkscape:window-width="3200"
   inkscape:window-height="1677"
   id="namedview39"
   showgrid="false"
   inkscape:zoom="17.147339"
   inkscape:cx="-15.653676"
   inkscape:cy="1.9662454"
   inkscape:window-x="0"
   inkscape:window-y="49"
   inkscape:window-maximized="1"
   inkscape:current-layer="Capa_1" />
<path
   inkscape:connector-curvature="0"
   id="path4"
   d="m 22.064265,7.9357396 c -0.507685,-0.5076855 -1.330671,-0.5076855 -1.838358,0 L 15.000001,13.161646 9.7739499,7.9355954 c -0.5076862,-0.5076865 -1.3306712,-0.5076865 -1.8383578,0 -0.5076868,0.5076866 -0.5076868,1.3306716 0,1.8383588 l 5.2260509,5.2260498 -5.2260509,5.22605 c -0.5076866,0.507687 -0.5076868,1.330673 0,1.838358 0.2537712,0.253772 0.5865466,0.380729 0.9191791,0.380729 0.3326313,0 0.6652637,-0.126957 0.9191787,-0.380729 l 5.2260511,-5.22605 5.22605,5.22605 c 0.253771,0.253772 0.586547,0.380729 0.919179,0.380729 0.332633,0 0.665264,-0.126957 0.919179,-0.380729 0.507687,-0.507685 0.507687,-1.330671 0,-1.838358 l -5.226051,-5.22605 5.226051,-5.2260498 C 22.571951,9.266411 22.571951,8.443282 22.064265,7.9357396 Z"
   style="stroke-width:0.14443417"
   sodipodi:nodetypes="cccssscsssccsscscsc" />
<g
   id="g8"
   transform="matrix(0.19421387,0,0,0.19421387,20.708059,-39.649941)">
</g>
<g
   id="g10"
   transform="matrix(0.19421387,0,0,0.19421387,20.708059,-39.649941)">
</g>
<g
   id="g12"
   transform="matrix(0.19421387,0,0,0.19421387,20.708059,-39.649941)">
</g>
<g
   id="g14"
   transform="matrix(0.19421387,0,0,0.19421387,20.708059,-39.649941)">
</g>
<g
   id="g16"
   transform="matrix(0.19421387,0,0,0.19421387,20.708059,-39.649941)">
</g>
<g
   id="g18"
   transform="matrix(0.19421387,0,0,0.19421387,20.708059,-39.649941)">
</g>
<g
   id="g20"
   transform="matrix(0.19421387,0,0,0.19421387,20.708059,-39.649941)">
</g>
<g
   id="g22"
   transform="matrix(0.19421387,0,0,0.19421387,20.708059,-39.649941)">
</g>
<g
   id="g24"
   transform="matrix(0.19421387,0,0,0.19421387,20.708059,-39.649941)">
</g>
<g
   id="g26"
   transform="matrix(0.19421387,0,0,0.19421387,20.708059,-39.649941)">
</g>
<g
   id="g28"
   transform="matrix(0.19421387,0,0,0.19421387,20.708059,-39.649941)">
</g>
<g
   id="g30"
   transform="matrix(0.19421387,0,0,0.19421387,20.708059,-39.649941)">
</g>
<g
   id="g32"
   transform="matrix(0.19421387,0,0,0.19421387,20.708059,-39.649941)">
</g>
<g
   id="g34"
   transform="matrix(0.19421387,0,0,0.19421387,20.708059,-39.649941)">
</g>
<g
   id="g36"
   transform="matrix(0.19421387,0,0,0.19421387,20.708059,-39.649941)">
</g>
</svg>