<?xml version="1.0" encoding="UTF-8" standalone="no"?>
<!-- Created with Inkscape (http://www.inkscape.org/) -->

<svg
   width="300"
   height="210"
   viewBox="0 0 79.375011 55.562509"
   version="1.1"
   id="svg1"
   inkscape:version="1.3.2 (091e20ef0f, 2023-11-25, custom)"
   sodipodi:docname="randbedingungen.svg"
   xml:space="preserve"
   xmlns:inkscape="http://www.inkscape.org/namespaces/inkscape"
   xmlns:sodipodi="http://sodipodi.sourceforge.net/DTD/sodipodi-0.dtd"
   xmlns="http://www.w3.org/2000/svg"
   xmlns:svg="http://www.w3.org/2000/svg"><sodipodi:namedview
     id="namedview1"
     pagecolor="#ffffff"
     bordercolor="#000000"
     borderopacity="0.25"
     inkscape:showpageshadow="2"
     inkscape:pageopacity="0.0"
     inkscape:pagecheckerboard="0"
     inkscape:deskcolor="#d1d1d1"
     inkscape:document-units="px"
     inkscape:zoom="0.90747291"
     inkscape:cx="126.72555"
     inkscape:cy="137.74516"
     inkscape:window-width="1440"
     inkscape:window-height="831"
     inkscape:window-x="0"
     inkscape:window-y="0"
     inkscape:window-maximized="1"
     inkscape:current-layer="g10"
     showgrid="true"><inkscape:grid
       id="grid10"
       units="px"
       originx="0"
       originy="0"
       spacingx="1.3229168"
       spacingy="1.3229168"
       empcolor="#0099e5"
       empopacity="0.30196078"
       color="#0099e5"
       opacity="0.14901961"
       empspacing="5"
       dotted="false"
       gridanglex="30"
       gridanglez="30"
       visible="true" /></sodipodi:namedview><defs
     id="defs1"><inkscape:path-effect
       effect="sketch"
       id="path-effect12"
       is_visible="true"
       lpeversion="1"
       nbiter_approxstrokes="3"
       parallel_offset="0.2;1"
       strokelength="70"
       strokelength_rdm="0.3;1"
       strokeoverlap="0.5"
       strokeoverlap_rdm="0.5;1"
       ends_tolerance="0.1;1"
       tremble_size="0.8;1"
       tremble_frequency="3"
       nbtangents="2"
       tgt_places_rdmness="0.5;1"
       tgtlength="4"
       tgtlength_rdm="0.3;1"
       tgtscale="10" /><inkscape:path-effect
       effect="sketch"
       id="path-effect18"
       is_visible="true"
       lpeversion="1"
       nbiter_approxstrokes="3"
       parallel_offset="0.2;1"
       strokelength="70"
       strokelength_rdm="0.3;1"
       strokeoverlap="0.5"
       strokeoverlap_rdm="0.5;1"
       ends_tolerance="0.1;1"
       tremble_size="0.8;1"
       tremble_frequency="3"
       nbtangents="2"
       tgt_places_rdmness="0.5;1"
       tgtlength="10"
       tgtlength_rdm="0.3;1"
       tgtscale="10" /><inkscape:path-effect
       effect="sketch"
       id="path-effect10"
       is_visible="true"
       lpeversion="1"
       nbiter_approxstrokes="3"
       parallel_offset="0.2;1"
       strokelength="70"
       strokelength_rdm="0.3;1"
       strokeoverlap="0.5"
       strokeoverlap_rdm="0.5;1"
       ends_tolerance="0.1;1"
       tremble_size="0.8;1"
       tremble_frequency="3"
       nbtangents="2"
       tgt_places_rdmness="0.5;1"
       tgtlength="10"
       tgtlength_rdm="0.3;1"
       tgtscale="10" /><inkscape:path-effect
       effect="sketch"
       id="path-effect9"
       is_visible="true"
       lpeversion="1"
       nbiter_approxstrokes="3"
       parallel_offset="0.2;1"
       strokelength="70"
       strokelength_rdm="0.3;1"
       strokeoverlap="0.5"
       strokeoverlap_rdm="0.5;1"
       ends_tolerance="0.1;1"
       tremble_size="0.8;1"
       tremble_frequency="3"
       nbtangents="2"
       tgt_places_rdmness="0.5;1"
       tgtlength="10"
       tgtlength_rdm="0.3;1"
       tgtscale="10" /><inkscape:path-effect
       effect="sketch"
       id="path-effect8"
       is_visible="true"
       lpeversion="1"
       nbiter_approxstrokes="3"
       parallel_offset="0.2;1"
       strokelength="70"
       strokelength_rdm="0.3;1"
       strokeoverlap="0.5"
       strokeoverlap_rdm="0.5;1"
       ends_tolerance="0.1;1"
       tremble_size="0.8;1"
       tremble_frequency="3"
       nbtangents="2"
       tgt_places_rdmness="0.5;1"
       tgtlength="10"
       tgtlength_rdm="0.3;1"
       tgtscale="10" /><inkscape:path-effect
       effect="sketch"
       id="path-effect3"
       is_visible="true"
       lpeversion="1"
       nbiter_approxstrokes="3"
       parallel_offset="0.2;1"
       strokelength="70"
       strokelength_rdm="0.3;1"
       strokeoverlap="0.5"
       strokeoverlap_rdm="0.5;1"
       ends_tolerance="0.1;1"
       tremble_size="0.8;1"
       tremble_frequency="3"
       nbtangents="2"
       tgt_places_rdmness="0.5;1"
       tgtlength="10"
       tgtlength_rdm="0.3;1"
       tgtscale="10" /><inkscape:path-effect
       effect="sketch"
       id="path-effect2"
       is_visible="true"
       lpeversion="1"
       nbiter_approxstrokes="4"
       parallel_offset="0.7;1"
       strokelength="50"
       strokelength_rdm="0.3;1"
       strokeoverlap="0.3"
       strokeoverlap_rdm="0.3;1"
       ends_tolerance="0.1;1"
       tremble_size="0.8;1"
       tremble_frequency="3"
       nbtangents="0"
       tgt_places_rdmness="1;1"
       tgtlength="100"
       tgtlength_rdm="0.3;1"
       tgtscale="10" /><inkscape:path-effect
       effect="sketch"
       id="path-effect1"
       is_visible="true"
       lpeversion="1"
       nbiter_approxstrokes="3"
       parallel_offset="0.5;1"
       strokelength="50"
       strokelength_rdm="0.3;1"
       strokeoverlap="0.3"
       strokeoverlap_rdm="0.3;1"
       ends_tolerance="0.1;1"
       tremble_size="1;1"
       tremble_frequency="3"
       nbtangents="0"
       tgt_places_rdmness="1;1"
       tgtlength="100"
       tgtlength_rdm="0.3;1"
       tgtscale="10" /><inkscape:path-effect
       effect="sketch"
       id="path-effect11"
       is_visible="true"
       lpeversion="1"
       nbiter_approxstrokes="3"
       parallel_offset="0.5;1"
       strokelength="50"
       strokelength_rdm="0.3;1"
       strokeoverlap="0.3"
       strokeoverlap_rdm="0.3;1"
       ends_tolerance="0.1;1"
       tremble_size="1;1"
       tremble_frequency="3"
       nbtangents="0"
       tgt_places_rdmness="1;1"
       tgtlength="100"
       tgtlength_rdm="0.3;1"
       tgtscale="10" /><inkscape:path-effect
       effect="sketch"
       id="path-effect7"
       is_visible="true"
       lpeversion="1"
       nbiter_approxstrokes="3"
       parallel_offset="1;1"
       strokelength="50"
       strokelength_rdm="0.3;1"
       strokeoverlap="0.3"
       strokeoverlap_rdm="0.3;1"
       ends_tolerance="0.1;1"
       tremble_size="1.2;1"
       tremble_frequency="3"
       nbtangents="0"
       tgt_places_rdmness="1;1"
       tgtlength="100"
       tgtlength_rdm="0.3;1"
       tgtscale="10" /><rect
       x="223.77509"
       y="306.53192"
       width="415.43015"
       height="124.34706"
       id="rect6" /><inkscape:path-effect
       effect="sketch"
       id="path-effect6"
       is_visible="true"
       lpeversion="1"
       nbiter_approxstrokes="3"
       parallel_offset="1;1"
       strokelength="50"
       strokelength_rdm="0.3;1"
       strokeoverlap="0.3"
       strokeoverlap_rdm="0.3;1"
       ends_tolerance="0.1;1"
       tremble_size="1.2;1"
       tremble_frequency="3"
       nbtangents="0"
       tgt_places_rdmness="1;1"
       tgtlength="100"
       tgtlength_rdm="0.3;1"
       tgtscale="10" /><inkscape:path-effect
       effect="sketch"
       id="path-effect5"
       is_visible="true"
       lpeversion="1"
       nbiter_approxstrokes="3"
       parallel_offset="1;1"
       strokelength="50"
       strokelength_rdm="0.3;1"
       strokeoverlap="0.3"
       strokeoverlap_rdm="0.3;1"
       ends_tolerance="0.1;1"
       tremble_size="1.2;1"
       tremble_frequency="3"
       nbtangents="0"
       tgt_places_rdmness="1;1"
       tgtlength="100"
       tgtlength_rdm="0.3;1"
       tgtscale="10" /></defs><g
     inkscape:label="Layer 1"
     inkscape:groupmode="layer"
     id="layer1"><g
       id="g6"><g
         id="g9"
         transform="translate(28.418657,-43.5)"><g
           id="g10"
           transform="matrix(1.1080917,0,0,1.1080917,2.7624827,-8.7600785)"><rect
             style="fill:#ffaaaa;stroke:none;stroke-width:0.264583;stroke-dasharray:none"
             id="rect7"
             width="13.816542"
             height="23.948671"
             x="-4.5537672"
             y="59.82148"
             ry="1.1620202e-06"
             transform="rotate(-20)"
             sodipodi:type="rect" /><path
             id="path17"
             style="fill:#cccccc;stroke:none;stroke-width:0.264583;stroke-dasharray:none"
             d="m 23.969983,92.486066 c -0.510107,-0.01365 -0.921103,0.410819 -0.921103,0.921106 v 2.763308 c 0,0 17.500954,7e-6 17.500954,0 l -0.02671,-1.564991 c 0,0 -14.321059,0.64462 -14.905023,-0.08048 -0.382299,-0.474699 -0.03347,-1.995738 -0.03347,-1.995738 z"
             sodipodi:nodetypes="sscscscs" /><path
             id="rect16"
             style="fill:#cccccc;stroke:none;stroke-width:0.264583;stroke-dasharray:none"
             d="m 39.911061,77.008967 -13.279012,5.0717 c -0.479515,0.174529 -1.086846,0.03167 -1.180524,-0.550508 l -0.250419,-1.556279 -1.694552,0.616655 c -0.479526,0.174502 -0.725392,0.701367 -0.550863,1.18088 l 0.63038,1.731028 c 0.174528,0.479514 0.701006,0.72503 1.180522,0.550501 l 14.714259,-5.355708 c 0.479515,-0.174529 0.725032,-0.701007 0.550502,-1.180526 z"
             sodipodi:nodetypes="ccscscccccc" /><path
             id="rect15"
             style="fill:#cccccc;stroke:none;stroke-width:0.264583;stroke-dasharray:none"
             d="M 30.399773,51.053902 17.046456,55.72694 c -0.479515,0.174529 -0.865589,0.01593 -0.865549,-0.494359 l 1.03e-4,-1.314709 -2.125836,0.706195 c -0.484268,0.160872 -0.725033,0.701007 -0.550503,1.180523 l 0.63002,1.731385 c 0.17453,0.479516 0.701368,0.725033 1.180883,0.550504 l 14.714258,-5.35571 c 0.479516,-0.174529 0.725033,-0.701007 0.550503,-1.180523 z"
             sodipodi:nodetypes="ccscscccccc" /><path
             id="rect14"
             style="fill:#ff8080;stroke:none;stroke-width:0.264583;stroke-dasharray:none"
             d="m 18.763113,56.647252 -2.582206,1.124037 8.19098,22.504416 12.98323,-4.725694 -0.597129,-2.332315 c 0,0 -9.292846,4.048555 -10.950623,3.612507 -1.999691,-0.525982 -7.044252,-20.182951 -7.044252,-20.182951 z"
             sodipodi:nodetypes="cccccsc" /><path
             id="path13"
             style="fill:#cccccc;stroke:none;stroke-width:0.264583;stroke-dasharray:none"
             d="m 20.656531,70.068372 c 0,0 -27.6475109,10.051982 -41.632809,14.827459 -0.513852,0.175462 -2.599671,0.424237 -3.013611,0.120245 -0.445541,-0.3272 -0.793265,-2.573292 -0.793265,-2.573292 l -1.75964,0.680777 c -0.479516,0.17453 -0.725392,0.701367 -0.550862,1.180883 l 1.2604,3.462052 c 0.174529,0.479519 0.701006,0.725036 1.180523,0.550503 L 21.221427,71.62021 c 0,0 -0.328207,-0.90154 -0.564896,-1.551842 z"
             sodipodi:nodetypes="csscccccccc" /><g
             id="g7"
             inkscape:path-effect="#path-effect12"><path
               style="fill:none;stroke:#000000;stroke-width:0.264583;stroke-dasharray:none"
               id="rect1"
               width="17.500952"
               height="3.6844141"
               x="-6.3959723"
               y="56.137062"
               ry="0.92110193"
               transform="rotate(-20)"
               sodipodi:type="rect"
               d="m -0.87232525,56.929777 c 3.83144925,-0.0417 7.51929515,-0.04892 11.15429125,-0.05169 0.501676,-3.82e-4 0.904468,0.41018 0.894163,0.920178 -0.0124,0.613718 -0.02593,1.227451 -0.04018,1.841062 -0.01184,0.509896 -0.433004,0.920336 -0.955816,0.919723 -2.559259,-0.003 -5.1249469,-0.0098 -7.6690844,-0.02971 -2.77231879,-0.02167 -5.5189517,-0.04928 -8.2582997,-0.09051 -0.5135591,-0.0077 -0.9269366,-0.425441 -0.9298498,-0.94436 -0.00351,-0.624516 -0.00681,-1.249794 -0.010115,-1.875924 -0.00275,-0.520312 0.4057638,-0.939976 0.9131885,-0.951154 3.4571982,-0.07616 6.9088626,-0.181825 10.316642,-0.333014 1.7082976,-0.07579 3.4385016,-0.112385 5.1852663,-0.121177 0.5115712,-0.0026 0.9243352,0.408215 0.9280422,0.919952 0.0045,0.61609 0.0108,1.23524 0.01877,1.856951 0.0052,0.404214 -0.241141,0.747866 -0.5889,0.882705 M 0.62349327,55.974644 C 3.5743193,55.910469 6.599514,55.866161 9.6667793,55.813738 c 0.5178897,-0.0089 0.9358057,0.39435 0.9454187,0.895261 0.01157,0.60275 0.02466,1.204981 0.039,1.806459 0.01192,0.499763 -0.388141,0.901473 -0.8850983,0.889901 -3.0888599,-0.07192 -6.1499713,-0.168879 -9.22065875,-0.323205 -1.98177145,-0.0996 -3.99532155,-0.135983 -6.02720675,-0.130128 -0.5065483,0.0015 -0.9149453,-0.405784 -0.9130646,-0.910196 0.00226,-0.606691 0.00316,-1.210027 0.00306,-1.810573 -8.63e-5,-0.498869 0.4100341,-0.898918 0.919177,-0.884326 4.1413715,0.11869 8.2499959,0.344507 12.4379388,0.502582 1.0778354,0.04068 2.154134,0.07251 3.2294698,0.09781 0.128351,0.003 0.250415,0.03145 0.361411,0.08057 M 0.15838329,55.947718 c 3.19777601,-0.07414 6.49726781,-0.08629 9.87671971,-0.07563 0.532174,0.0017 0.962519,0.4144 0.987875,0.927251 0.03051,0.617212 0.06378,1.235033 0.09966,1.853197 0.02981,0.513692 -0.354616,0.927546 -0.831769,0.931259 -2.7617102,0.02149 -5.4658433,0.04607 -8.128853,0.04409 -2.04318915,-0.0015 -4.2517115,0.01795 -6.5685121,0.0579 -0.5222496,0.009 -0.9464622,-0.393366 -0.9676919,-0.892799 -0.025542,-0.600888 -0.058144,-1.200281 -0.096668,-1.798187 -0.032006,-0.496741 0.3483309,-0.895626 0.8198491,-0.880245 3.6306105,0.118426 7.0548869,0.29746 10.5709974,0.534464 1.1508569,0.07757 2.3582623,0.121615 3.6110262,0.138531 0.4973636,0.0067 0.9017506,0.41931 0.9009856,0.929027 -1.16e-4,0.07764 -8.2e-5,0.155199 10e-5,0.232664 m 0.67288,-2.810134 v 6.434375 m -12.1530581,-1.752011 -5.740625,0" /><path
               style="fill:none;stroke:#000000;stroke-width:0.264583;stroke-dasharray:none"
               id="rect2"
               width="17.500952"
               height="3.6844237"
               x="-6.3959708"
               y="83.770134"
               ry="0.92110193"
               transform="rotate(-20)"
               sodipodi:type="rect"
               d="m -4.8528847,83.315768 c 4.74529455,-0.03195 9.7137386,-0.01568 14.7979627,0.01052 0.536401,0.0028 0.970098,0.415978 0.998533,0.929201 0.03422,0.617603 0.07013,1.235303 0.107517,1.853024 0.03107,0.513321 -0.352924,0.926683 -0.830334,0.9297 -1.270924,0.008 -2.5354799,0.01586 -3.7960469,0.02263 -3.5829068,0.01926 -7.4423202,0.05734 -11.3732013,0.128544 -0.5196154,0.0094 -0.9390476,-0.393007 -0.9502051,-0.892822 -0.013425,-0.601396 -0.02801,-1.201909 -0.042929,-1.801482 -0.012398,-0.49824 0.3878289,-0.898451 0.8857077,-0.885143 2.2805427,0.06096 4.56562819,0.1362 6.9007437,0.228898 2.8793781,0.114304 5.7169727,0.16999 8.5112021,0.214275 0.494577,0.0078 0.891417,0.424898 0.873265,0.94261 -0.02184,0.622977 -0.04567,1.245795 -0.07149,1.868912 -0.02146,0.517837 -0.451462,0.935061 -0.985682,0.943197 -2.2736504,0.03463 -4.572402,0.07747 -6.896931,0.148717 M -1.60714,84.550946 c 4.0868921,0.07402 8.118511,0.01026 12.139087,-0.132215 0.508496,-0.01802 0.917687,0.376581 0.915652,0.866701 -0.0024,0.589653 -0.005,1.177645 -0.0076,1.764187 -0.0021,0.487412 -0.41471,0.878271 -0.927017,0.853604 -2.1690754,-0.104439 -4.3363531,-0.224815 -6.495041,-0.352057 -3.056428,-0.180157 -6.1188827,-0.247142 -9.1855838,-0.285158 -0.5115793,-0.0063 -0.9235417,-0.421741 -0.925035,-0.937262 -0.0018,-0.620291 -0.00375,-1.239949 -0.00586,-1.859657 -0.00175,-0.514995 0.4075128,-0.929711 0.9158839,-0.934807 3.1276086,-0.03135 6.2517129,-0.07798 9.3742373,-0.230901 2.0688722,-0.101322 4.1516855,-0.129398 6.2457478,-0.105808 0.51378,0.0058 0.927933,0.424224 0.9326,0.945594 0.0056,0.627772 0.01216,1.25961 0.01956,1.894959 0.0062,0.528206 -0.398986,0.955515 -0.902099,0.977499 -0.5590256,0.02443 -1.1173674,0.05148 -1.6750796,0.08071 m -8.505386,-2.558713 c 3.4926851,0.07071 6.9054043,0.07337 10.2924866,0.04723 0.508804,-0.0039 0.917999,0.403015 0.915634,0.908328 -0.0028,0.60801 -0.0063,1.215262 -0.01,1.821986 -0.0031,0.504152 -0.416618,0.909586 -0.93015,0.902909 -2.8163922,-0.03662 -5.6330405,-0.08041 -8.4195579,-0.109424 -2.41060905,-0.0251 -4.8429734,-0.06328 -7.2943879,-0.122199 -0.51678,-0.01242 -0.9335422,-0.43445 -0.9415242,-0.95887 -0.00961,-0.631193 -0.020405,-1.263818 -0.03235,-1.898001 -0.00993,-0.527119 0.3918699,-0.952649 0.8908371,-0.971461 3.6931002,-0.139244 7.3441186,-0.341156 10.9633311,-0.634849 1.3816573,-0.112118 2.7870128,-0.187918 4.2097779,-0.23902 0.5036667,-0.01809 0.9102807,0.380365 0.9073197,0.877662 -0.0023,0.378043 -0.0034,0.75759 -0.0036,1.138415 m 0.320009,2.154231 -5.9656252,0 m 5.8957612,-5.029281 v 7.60625" /><path
               style="fill:none;stroke:#000000;stroke-width:0.264583;stroke-dasharray:none"
               id="rect3"
               width="13.816542"
               height="23.948671"
               x="-4.5537672"
               y="59.82148"
               ry="1.1620202e-06"
               transform="rotate(-20)"
               sodipodi:type="rect"
               d="m 0.89756655,59.007452 c 2.69521195,0.03945 5.35215115,0.115827 7.99102895,0.243076 2.78e-5,0.0016 5.26e-5,0.0032 7.4e-5,0.0049 0.00328,5.353213 -0.060169,10.897744 -0.043715,16.734814 0.00928,3.291693 0.047345,6.221412 0.1188268,8.958428 8.278e-4,-0.0016 0.00166,-0.0033 0.0025,-0.005 -4.4899047,-0.233486 -8.89412961,-0.955249 -13.1937132,-1.471994 0.00221,-0.0037 0.00443,-0.0075 0.00666,-0.01119 0.01516,-0.252422 0.030574,-0.504332 0.046245,-0.755649 0.1293832,-2.074882 0.1754582,-4.03402 0.160886,-5.912341 m 8.134674,7.316728 c -2.8727761,-0.04709 -5.7947493,-0.07035 -8.753057,-0.0887 -6.447e-4,-2.11e-4 -0.00129,-4.21e-4 -0.00195,-6.32e-4 -0.094883,-4.869288 -0.2903611,-9.725523 -0.5268167,-14.656385 -0.1536345,-3.203775 -0.1632058,-6.376835 -0.1034805,-9.54892 6.332e-4,-2.98e-4 0.00127,-5.97e-4 0.00192,-8.94e-4 4.68996376,-0.04105 9.5265987,-0.0807 14.2756695,-0.212105 0.00524,-1.45e-4 0.010487,-2.9e-4 0.01573,-4.34e-4 0.00108,-9.49e-4 0.00214,-0.0019 0.00321,-0.0028 0.025401,0.775289 0.047058,1.557625 0.065794,2.346284 m -6.501345,-1.448062 c 2.3080806,0.04089 4.6165133,0.02972 6.9301035,-0.02301 3.385e-4,-7.67e-4 6.779e-4,-0.0015 0.00102,-0.0023 0.055607,5.322361 0.1408191,10.410198 0.3204051,15.405116 0.083427,2.320403 0.096772,4.778808 0.066607,7.307683 -3.971e-4,-4.2e-5 -8.023e-4,-7.3e-5 -0.00122,-9.2e-5 -4.6624526,-0.0026 -9.46768213,0.224958 -14.2558098,0.276382 -0.00132,3.73e-4 -0.00264,7.35e-4 -0.00396,0.0011 -0.022706,-0.567361 -0.045129,-1.137498 -0.06696,-1.711197 -0.226483,-5.951719 -0.112136,-11.721783 -0.050975,-17.312123 m 7.5983448,18.959799 c -2.78392267,0.01967 -5.5268733,0.02166 -8.2268917,0.01386 0.00105,-9.3e-5 0.00211,-1.88e-4 0.00317,-2.85e-4 0.1580813,-4.967408 0.4517459,-9.9654 0.891986,-14.949657 0.2692872,-3.048783 0.281963,-6.085948 0.1600258,-9.120022 -0.00134,-4.8e-5 -0.0027,-9.6e-5 -0.00407,-1.43e-4 4.41567655,-0.0065 8.5234049,-0.006 12.7517021,-0.02859 -0.00273,-1.64e-4 -0.00545,-3.28e-4 -0.00817,-4.93e-4 -0.00618,0.07547 -0.012333,0.150937 -0.018447,0.226396 -0.4575235,5.646463 -0.067402,11.338684 0.4410878,17.030068 M -3.2485387,60.223229 c 4.03990125,-0.01777 8.0391518,-0.06664 12.033756,-0.161585 -10e-7,-7.92e-4 -2.5e-6,-0.0016 -4.7e-6,-0.0024 -2.565e-4,3.656544 -0.00434,7.272449 0.017459,10.835346 0.024646,4.029167 0.032319,8.211458 0.045421,12.364775 1.03e-4,-6.54e-4 2.059e-4,-0.0013 3.091e-4,-0.002 -3.4969432,-0.06933 -6.9900438,-0.159505 -10.4665854,-0.373895 -1.0878491,-0.06709 -2.1766969,-0.111952 -3.2659156,-0.138628 2.554e-4,-8.1e-4 5.106e-4,-0.0016 7.659e-4,-0.0024 0.019106,-2.551984 0.036395,-5.010694 0.059232,-7.423349 m 11.9046646,8.617055 c -4.1898926,-0.04517 -8.3557022,-0.173868 -12.4770236,-0.425544 7.381e-4,-0.002 0.00148,-0.004 0.00222,-0.006 0.078745,-3.738581 0.1887457,-7.563467 0.3419543,-11.497761 0.1936196,-4.972019 0.1538269,-9.183107 0.071973,-13.140225 -6.123e-4,0.0037 -0.00123,0.0075 -0.00184,0.01125 3.2270869,0.371225 6.4320577,0.878628 9.6917575,1.318618 1.3062652,0.176317 2.6201692,0.293774 3.9407144,0.36754 7.56e-5,0.0019 1.554e-4,0.0037 2.39e-4,0.0055 0.010287,4.328998 0.084825,8.237429 0.193421,12.184424 m 0.4187954,-1.469207 v 6.78125 m -13.8165417,2.514096 v -6.125" /><path
               id="rect4"
               style="fill:none;stroke:#000000;stroke-width:0.264583;stroke-dasharray:none"
               d="m -24.282934,81.942921 c 7.461455,-2.430004 14.5543138,-4.925855 21.7353137,-6.789844 7.1840782,-1.864788 14.7198623,-5.430871 22.2386593,-8.311719 l 2e-6,-10e-7 c 0.01811,-0.0069 0.03621,-0.01387 0.05431,-0.0208 3e-6,-3e-6 2.3e-5,4.2e-5 6e-5,1.34e-4 0.0061,0.0151 0.511767,1.267788 0.996468,2.541929 0.484701,1.274142 0.950531,2.567558 0.956155,2.583155 3.5e-5,9.5e-5 5.2e-5,1.42e-4 5.1e-5,1.43e-4 -1.971074,0.719308 -3.971335,1.468329 -5.988366,2.234044 m -5.014504,-3.878961 c 2.992761,-1.142824 5.972075,-2.240332 8.953894,-3.323533 1e-6,0 1.9e-5,4.7e-5 5.4e-5,1.42e-4 0.109119,0.293233 0.854748,2.301544 0.963867,2.594777 0.266056,0.71576 0.701472,1.881709 0.967527,2.597469 3.6e-5,9.5e-5 5.4e-5,1.43e-4 5.5e-5,1.43e-4 -2.587601,0.951754 -5.165995,1.900535 -7.724228,2.825049 -7.1558872,2.586047 -14.55670102,5.411878 -21.7324099,8.249217 l -1.7e-6,10e-7 c -1.4774594,0.584201 -2.9712104,1.15088 -4.4777814,1.704584 m 12.30839205,-5.244291 c -7.30750175,2.764738 -14.41797305,4.966436 -21.33551205,6.914412 -1.005063,0.283025 -2.031379,0.594014 -3.075364,0.926458 -0.47208,0.150332 -0.994343,-0.111953 -1.167606,-0.608346 -0.416768,-1.194022 -0.852609,-2.365967 -1.302914,-3.524201 -0.187058,-0.481136 0.04563,-1.007226 0.50843,-1.179651 4.03783,-1.504359 7.909186,-2.871552 11.834105,-4.50082 2.543178,-1.055696 5.2263407,-2.036001 7.9792505,-2.969102 m -15.9932795,7.51103 C -15.361172,79.852364 -7.8130038,77.018672 -0.16270375,74.478231 6.83663,72.153957 13.312126,69.464587 20.053072,66.680677 c 1e-6,-5e-6 1.9e-5,3.7e-5 5.5e-5,1.27e-4 0.0047,0.01196 0.320975,0.81884 0.705718,1.773421 0,0 0,0 0,0 0.09011,0.22357 0.181532,0.451988 0.274328,0.685502 0.488538,1.229376 0.966989,2.490451 0.972763,2.505653 3.5e-5,9.3e-5 5.3e-5,1.38e-4 5.4e-5,1.36e-4 -4.350519,1.492033 -8.777353,3.223875 -13.1982184,4.936569 M 11.728199,69.004 c 2.5817,-0.927631 5.107015,-1.828238 7.589745,-2.702612 -2e-6,2e-6 1.3e-5,5.1e-5 4.5e-5,1.48e-4 0.0053,0.01588 0.443139,1.33273 0.867453,2.658515 0.424315,1.325785 0.83617,2.660442 0.84114,2.676542 3.1e-5,9.8e-5 4.4e-5,1.49e-4 4e-5,1.52e-4 -3.164899,1.206486 -6.376846,2.449389 -9.612558,3.727373 -7.8059983,3.083077 -14.5561933,4.913206 -21.738659,6.761718 l -3e-6,10e-7 c -4.867574,1.252741 -9.842664,3.279185 -14.809007,5.324503 -0.480779,0.198005 -1.008352,-0.0277 -1.183908,-0.484009 -0.422525,-1.098233 -0.843997,-2.199193 -1.262945,-3.312428 -0.0609,-0.16183 -0.07034,-0.330045 -0.0363,-0.487194 m 28.8293593,-4.56765 c -7.0727805,2.70293 -14.6416823,5.619429 -22.0170643,8.889492 -1.12571,0.499112 -2.2575,0.971931 -3.396104,1.424957 -0.489643,0.194821 -1.025657,-0.03665 -1.21275,-0.502342 -0.450281,-1.120794 -0.908183,-2.259962 -1.374519,-3.410298 -0.193843,-0.478164 0.03445,-1.004731 0.491996,-1.180923 3.942677,-1.518222 7.773093,-3.143362 11.453842,-4.54462 6.1233117,-2.331141 13.8108466,-4.981669 21.0600552,-7.494251 m -30.8849912,9.573917 c 7.079,-2.90638 14.62183,-5.292033 21.960806,-7.889231 7.2909715,-2.58021 14.872066,-5.081917 22.83354,-7.320885 9e-6,5e-6 3.6e-5,5.8e-5 8e-5,1.58e-4 0.01649,0.03771 0.05385,0.123261 0.07034,0.160973 0.215206,0.492249 0.60498,1.396389 1.060802,2.54739 0.526026,1.328273 0.986812,2.625042 0.992387,2.640694 3.4e-5,9.6e-5 5e-5,1.44e-4 5e-5,1.44e-4 -1.73608,0.637752 -3.550287,1.238695 -5.414581,1.819113 m -6.134758,-3.123372 c 2.953564,-1.010703 5.863114,-2.044416 8.763899,-3.08462 10e-7,0 1.9e-5,4.8e-5 5.4e-5,1.43e-4 0.0058,0.0156 0.485141,1.309151 0.964035,2.60185 0.269364,0.727109 0.695653,1.873921 0.965018,2.601029 3.5e-5,9.5e-5 5.3e-5,1.43e-4 5.4e-5,1.43e-4 -2.673,0.986536 -5.335087,1.976093 -7.957282,2.982249 l -2e-6,10e-7 c -7.1079941,2.727392 -14.9570233,4.919086 -22.9449097,6.774218 -5.6323873,1.308083 -10.4638343,3.560201 -15.2113793,5.912811 M 0.1000613,79.606488 c -7.5194194,2.756575 -14.2690593,5.144929 -20.8852393,7.451923 -0.98688,0.344115 -2.013782,0.702519 -3.073825,1.071743 -0.466461,0.162475 -0.987182,-0.09148 -1.160269,-0.579354 -0.416576,-1.174189 -0.867113,-2.337863 -1.34344,-3.495142 -0.197936,-0.480907 0.02408,-1.007461 0.472725,-1.181659 3.886722,-1.509119 7.480363,-2.956259 11.163085,-4.53416 5.4065138,-2.316478 12.1599611,-4.312964 18.8042911,-6.181533 m 14.6226809,0.37959 -5.614664,2.04357 m -27.987861,10.186746 -5.279898,1.921725"
               sodipodi:nodetypes="sccssss"
               inkscape:original-d="M -26.542972,83.123711 19.331344,66.426826 c 1.8e-5,-7e-6 1.890215,5.193323 1.890215,5.193323 l -45.874316,16.696882 c -0.479517,0.174533 -1.006059,-0.071 -1.180589,-0.550517 L -27.09349,84.3043 c -0.174529,-0.479516 0.071,-1.006058 0.550518,-1.180589 z" /><path
               id="rect5"
               style="fill:none;stroke:#000000;stroke-width:0.264583;stroke-dasharray:none"
               d="m 28.562142,93.017298 c 3.909766,-0.0053 7.854748,-0.0043 11.809044,-0.0025 0.511686,2.31e-4 0.923793,0.411247 0.925433,0.92178 0.003,0.92155 0.0063,1.843107 0.0096,2.764604 0,0 -1.5e-5,0 -4.7e-5,0 0.526905,-3.35e-4 -3.261242,0.0013 -2.734337,9.2e-4 0.201095,-4.4e-5 -4.326062,-4.04e-4 -4.527157,-3.6e-4 -0.485926,-2.17e-4 -0.975494,-0.0012 -1.468659,-0.003 -4.371169,-0.01587 -8.794629,-0.115827 -8.811476,-0.11621 -3.2e-5,-10e-7 -4.8e-5,-2e-6 -4.9e-5,-2e-6 -0.01175,-0.942327 -0.02512,-1.887525 -0.04005,-2.835627 -0.0083,-0.525337 0.395191,-0.949279 0.896361,-0.965927 2.914344,-0.09681 5.812829,-0.223926 8.697452,-0.382406 2.188921,-0.120258 4.407527,-0.172421 6.639811,-0.186454 0.505903,-0.0032 0.913489,0.40672 0.910201,0.917034 -0.0059,0.921486 -0.01016,1.848277 -0.01376,2.778322 0,10e-7 -1.6e-5,10e-7 -4.8e-5,10e-7 -0.0084,8.3e-5 -1.108027,0.01043 -2.753842,0.03425 -1.430234,0.0207 -4.053951,0.06424 -6.046979,0.08346 -0.764727,0.0074 -1.516879,0.01243 -2.263439,0.01435 m 0.885834,-4.089491 c 3.065042,-0.02533 6.21422,-0.02428 9.400245,-0.01015 0.514638,0.0023 0.929697,0.415306 0.935596,0.928436 0.01065,0.926295 0.02381,1.853527 0.03832,2.781367 10e-7,0 -1.5e-5,0 -4.6e-5,10e-7 4.14945,-0.03171 -6.847255,0.05324 -2.697805,0.02154 -3.882604,0.03267 -2.028879,0.01757 -5.911482,0.05024 0.01523,-1.21e-4 -0.887973,0.0069 -0.872744,0.0068 -4.011209,0.03062 -7.879649,0.154097 -7.895414,0.154603 -3.3e-5,1e-6 -4.9e-5,2e-6 -5e-5,3e-6 -0.01506,-0.891106 -0.03388,-1.777768 -0.05605,-2.659706 -0.01228,-0.488432 0.38732,-0.880094 0.883548,-0.855605 3.64735,0.179999 7.242639,0.440794 10.813423,0.801291 1.397351,0.141073 2.829181,0.222899 4.287896,0.260502 0.507358,0.01308 0.91771,0.430038 0.920319,0.94438 0.0047,0.927475 0.01901,1.839486 0.04104,2.739743 10e-7,0 -1.4e-5,-10e-7 -4.5e-5,-2e-6 -0.0081,-1.86e-4 -1.080796,-0.02108 -2.657228,-0.09324 -1.781487,-0.08153 -3.448966,-0.18938 -5.711078,-0.340565 -0.736179,-0.0492 -1.441771,-0.09643 -2.154099,-0.142044 M 28.90209,92.359497 c 3.594782,-9.33e-4 7.197999,0.01286 10.813936,0.04186 0.514284,0.0041 0.928594,0.418664 0.933059,0.933627 0.0081,0.929602 0.017,1.860211 0.02688,2.791834 0,1e-6 -1.6e-5,1e-6 -4.7e-5,2e-6 -0.0082,9.6e-5 -1.092954,0.01202 -2.711541,0.03435 -1.583408,0.02184 -3.443789,0.05064 -5.518959,0.089 0,0 -1e-6,0 -1e-6,0 -5.61e-4,10e-6 -0.395114,0.007 -0.395675,0.007 -4.299041,0.07218 -8.777808,0.01376 -8.79483,0.01358 -3.2e-5,0 -4.9e-5,0 -5e-5,-1e-6 -0.02141,-0.931091 -0.04739,-1.865037 -0.07727,-2.801125 -0.01656,-0.518651 0.379333,-0.936871 0.871024,-0.946309 3.201251,-0.06145 6.356348,-0.145932 9.49694,-0.220036 1.792292,-0.04229 3.653184,-0.06403 5.564033,-0.07262 0.514514,-0.0023 0.931098,0.407418 0.941484,0.916973 0.01875,0.91995 0.04817,1.842559 0.08611,2.766978 1e-6,0 -1.4e-5,0 -4.4e-5,0 -0.008,3.2e-5 -1.061979,0.0036 -2.607695,0.0144 -1.549448,0.01084 -4.044069,0.0338 -5.593517,0.04464 -1.412803,0.01044 -2.694747,0.01749 -3.949533,0.01976 m 2.936727,-3.507321 7.371875,2e-6 m 3.91694,3.684417 -7.278125,0"
               sodipodi:nodetypes="sssccss"
               inkscape:original-d="m 23.96994,92.48606 15.658748,6e-6 c 0.51029,0 0.921102,0.410812 0.921102,0.921099 v 2.763315 c 0,7e-6 -17.500952,-7e-6 -17.500952,-7e-6 v -2.763315 c 0,-0.510287 0.410812,-0.921098 0.921102,-0.921098 z" /></g></g></g></g></g></svg>
