<?xml version="1.0" encoding="UTF-8" standalone="no"?>
<!-- Created with Inkscape (http://www.inkscape.org/) -->

<svg
   width="800"
   height="220"
   viewBox="0 0 211.66667 58.208332"
   version="1.1"
   id="svg1"
   inkscape:version="1.3.2 (091e20ef0f, 2023-11-25, custom)"
   sodipodi:docname="fahrplan.svg"
   xmlns:inkscape="http://www.inkscape.org/namespaces/inkscape"
   xmlns:sodipodi="http://sodipodi.sourceforge.net/DTD/sodipodi-0.dtd"
   xmlns="http://www.w3.org/2000/svg"
   xmlns:svg="http://www.w3.org/2000/svg">
  <sodipodi:namedview
     id="namedview1"
     pagecolor="#ffffff"
     bordercolor="#000000"
     borderopacity="0.25"
     inkscape:showpageshadow="2"
     inkscape:pageopacity="0.0"
     inkscape:pagecheckerboard="0"
     inkscape:deskcolor="#d1d1d1"
     inkscape:document-units="mm"
     inkscape:zoom="2.2625071"
     inkscape:cx="22.541366"
     inkscape:cy="150.27577"
     inkscape:window-width="1440"
     inkscape:window-height="831"
     inkscape:window-x="0"
     inkscape:window-y="0"
     inkscape:window-maximized="1"
     inkscape:current-layer="layer1"
     showgrid="true">
    <inkscape:grid
       id="grid1"
       units="px"
       originx="0"
       originy="0"
       spacingx="2.6458333"
       spacingy="2.6458333"
       empcolor="#0099e5"
       empopacity="0.30196078"
       color="#0099e5"
       opacity="0.14901961"
       empspacing="5"
       dotted="false"
       gridanglex="30"
       gridanglez="30"
       visible="true" />
  </sodipodi:namedview>
  <defs
     id="defs1">
    <inkscape:path-effect
       effect="sketch"
       id="path-effect22"
       is_visible="true"
       lpeversion="1"
       nbiter_approxstrokes="3"
       parallel_offset="0.2;1"
       strokelength="70"
       strokelength_rdm="0.3;1"
       strokeoverlap="0.5"
       strokeoverlap_rdm="0.5;1"
       ends_tolerance="0.1;1"
       tremble_size="0.8;1"
       tremble_frequency="3"
       nbtangents="2"
       tgt_places_rdmness="0.5;1"
       tgtlength="10"
       tgtlength_rdm="0.3;1"
       tgtscale="10" />
    <inkscape:path-effect
       effect="sketch"
       id="path-effect19"
       is_visible="true"
       lpeversion="1"
       nbiter_approxstrokes="3"
       parallel_offset="0.2;1"
       strokelength="70"
       strokelength_rdm="0.3;1"
       strokeoverlap="0.5"
       strokeoverlap_rdm="0.5;1"
       ends_tolerance="0.1;1"
       tremble_size="0.8;1"
       tremble_frequency="3"
       nbtangents="2"
       tgt_places_rdmness="0.5;1"
       tgtlength="10"
       tgtlength_rdm="0.3;1"
       tgtscale="10" />
    <inkscape:path-effect
       effect="sketch"
       id="path-effect21"
       is_visible="true"
       lpeversion="1"
       nbiter_approxstrokes="3"
       parallel_offset="0.2;1"
       strokelength="70"
       strokelength_rdm="0.3;1"
       strokeoverlap="0.5"
       strokeoverlap_rdm="0.5;1"
       ends_tolerance="0.1;1"
       tremble_size="0.8;1"
       tremble_frequency="3"
       nbtangents="2"
       tgt_places_rdmness="0.5;1"
       tgtlength="10"
       tgtlength_rdm="0.3;1"
       tgtscale="10" />
    <inkscape:path-effect
       effect="sketch"
       id="path-effect9"
       is_visible="true"
       lpeversion="1"
       nbiter_approxstrokes="3"
       parallel_offset="0.2;1"
       strokelength="70"
       strokelength_rdm="0.3;1"
       strokeoverlap="0.5"
       strokeoverlap_rdm="0.5;1"
       ends_tolerance="0.1;1"
       tremble_size="0.8;1"
       tremble_frequency="3"
       nbtangents="2"
       tgt_places_rdmness="0.5;1"
       tgtlength="10"
       tgtlength_rdm="0.3;1"
       tgtscale="10" />
    <inkscape:path-effect
       effect="sketch"
       id="path-effect8"
       is_visible="true"
       lpeversion="1"
       nbiter_approxstrokes="3"
       parallel_offset="0.2;1"
       strokelength="70"
       strokelength_rdm="0.3;1"
       strokeoverlap="0.5"
       strokeoverlap_rdm="0.5;1"
       ends_tolerance="0.1;1"
       tremble_size="0.8;1"
       tremble_frequency="3"
       nbtangents="2"
       tgt_places_rdmness="0.5;1"
       tgtlength="10"
       tgtlength_rdm="0.3;1"
       tgtscale="10" />
    <inkscape:path-effect
       effect="sketch"
       id="path-effect20"
       is_visible="true"
       lpeversion="1"
       nbiter_approxstrokes="3"
       parallel_offset="0.2;1"
       strokelength="70"
       strokelength_rdm="0.3;1"
       strokeoverlap="0.5"
       strokeoverlap_rdm="0.5;1"
       ends_tolerance="0.1;1"
       tremble_size="0.8;1"
       tremble_frequency="3"
       nbtangents="2"
       tgt_places_rdmness="0.5;1"
       tgtlength="10"
       tgtlength_rdm="0.3;1"
       tgtscale="10" />
    <inkscape:path-effect
       effect="sketch"
       id="path-effect4"
       is_visible="true"
       lpeversion="1"
       nbiter_approxstrokes="3"
       parallel_offset="0.2;1"
       strokelength="70"
       strokelength_rdm="0.3;1"
       strokeoverlap="0.5"
       strokeoverlap_rdm="0.5;1"
       ends_tolerance="0.1;1"
       tremble_size="0.8;1"
       tremble_frequency="3"
       nbtangents="2"
       tgt_places_rdmness="0.5;1"
       tgtlength="10"
       tgtlength_rdm="0.3;1"
       tgtscale="10" />
    <inkscape:path-effect
       effect="sketch"
       id="path-effect3"
       is_visible="true"
       lpeversion="1"
       nbiter_approxstrokes="3"
       parallel_offset="0.2;1"
       strokelength="70"
       strokelength_rdm="0.3;1"
       strokeoverlap="0.5"
       strokeoverlap_rdm="0.5;1"
       ends_tolerance="0.1;1"
       tremble_size="0.8;1"
       tremble_frequency="3"
       nbtangents="2"
       tgt_places_rdmness="0.5;1"
       tgtlength="10"
       tgtlength_rdm="0.3;1"
       tgtscale="10" />
    <inkscape:path-effect
       effect="sketch"
       id="path-effect2"
       is_visible="true"
       lpeversion="1"
       nbiter_approxstrokes="4"
       parallel_offset="0.4;1"
       strokelength="50"
       strokelength_rdm="0.3;1"
       strokeoverlap="0.3"
       strokeoverlap_rdm="0.3;1"
       ends_tolerance="0.1;1"
       tremble_size="0.8;1"
       tremble_frequency="3"
       nbtangents="0"
       tgt_places_rdmness="1;1"
       tgtlength="100"
       tgtlength_rdm="0.3;1"
       tgtscale="10" />
    <inkscape:path-effect
       effect="sketch"
       id="path-effect1"
       is_visible="true"
       lpeversion="1"
       nbiter_approxstrokes="4"
       parallel_offset="0.5;1"
       strokelength="50"
       strokelength_rdm="0.3;1"
       strokeoverlap="0.3"
       strokeoverlap_rdm="0.3;1"
       ends_tolerance="0.1;1"
       tremble_size="0.8;1"
       tremble_frequency="3"
       nbtangents="0"
       tgt_places_rdmness="1;1"
       tgtlength="56.859206"
       tgtlength_rdm="0.3;1"
       tgtscale="10" />
    <inkscape:path-effect
       effect="sketch"
       id="path-effect11"
       is_visible="true"
       lpeversion="1"
       nbiter_approxstrokes="4"
       parallel_offset="0.7;1"
       strokelength="50"
       strokelength_rdm="0.3;1"
       strokeoverlap="0.3"
       strokeoverlap_rdm="0.3;1"
       ends_tolerance="0.1;1"
       tremble_size="0.8;1"
       tremble_frequency="3"
       nbtangents="0"
       tgt_places_rdmness="1;1"
       tgtlength="100"
       tgtlength_rdm="0.3;1"
       tgtscale="10" />
    <inkscape:path-effect
       effect="sketch"
       id="path-effect7"
       is_visible="true"
       lpeversion="1"
       nbiter_approxstrokes="3"
       parallel_offset="1;1"
       strokelength="50"
       strokelength_rdm="0.3;1"
       strokeoverlap="0.3"
       strokeoverlap_rdm="0.3;1"
       ends_tolerance="0.1;1"
       tremble_size="1.2;1"
       tremble_frequency="3"
       nbtangents="0"
       tgt_places_rdmness="1;1"
       tgtlength="100"
       tgtlength_rdm="0.3;1"
       tgtscale="10" />
    <rect
       x="223.77509"
       y="306.53192"
       width="415.43015"
       height="124.34706"
       id="rect6" />
    <inkscape:path-effect
       effect="sketch"
       id="path-effect6"
       is_visible="true"
       lpeversion="1"
       nbiter_approxstrokes="3"
       parallel_offset="1;1"
       strokelength="50"
       strokelength_rdm="0.3;1"
       strokeoverlap="0.3"
       strokeoverlap_rdm="0.3;1"
       ends_tolerance="0.1;1"
       tremble_size="1.2;1"
       tremble_frequency="3"
       nbtangents="0"
       tgt_places_rdmness="1;1"
       tgtlength="100"
       tgtlength_rdm="0.3;1"
       tgtscale="10" />
    <inkscape:path-effect
       effect="sketch"
       id="path-effect5"
       is_visible="true"
       lpeversion="1"
       nbiter_approxstrokes="3"
       parallel_offset="1;1"
       strokelength="50"
       strokelength_rdm="0.3;1"
       strokeoverlap="0.3"
       strokeoverlap_rdm="0.3;1"
       ends_tolerance="0.1;1"
       tremble_size="1.2;1"
       tremble_frequency="3"
       nbtangents="0"
       tgt_places_rdmness="1;1"
       tgtlength="100"
       tgtlength_rdm="0.3;1"
       tgtscale="10" />
  </defs>
  <g
     inkscape:label="Layer 1"
     inkscape:groupmode="layer"
     id="layer1">
    <path
       style="fill:#ffaaaa;stroke:#000000;stroke-width:0.264583;stroke-dasharray:none;stroke-opacity:1"
       d="m 179.82946,2.7487436 h 23.81249 l -7.93749,10.5833324 7.9379,10.583334 h -23.81249"
       id="path21"
       sodipodi:nodetypes="ccccc" />
    <path
       id="path19"
       style="fill:#ff8080;stroke:none;stroke-width:0.264583;stroke-dasharray:none;stroke-opacity:1"
       d="m 179.82933,2.7486694 c 0,0 -2.5585,18.4179976 5.2e-4,21.1666666 2.54359,2.73209 23.8125,0 23.8125,0 l -1.98437,-2.645833 c 0,0 -18.01617,1.160811 -19.1823,0 -1.07244,-1.067548 -5.1e-4,-18.5208336 -5.1e-4,-18.5208336 z"
       sodipodi:nodetypes="csccscc" />
    <path
       id="path3"
       style="fill:#ffffff;stroke:none;stroke-width:0.264583;stroke-dasharray:none"
       d="m 26.369127,50.167919 a 5.1626644,5.1626644 0 0 1 -5.162664,5.162665 5.1626644,5.1626644 0 0 1 -5.162665,-5.162665 5.1626644,5.1626644 0 0 1 5.162665,-5.162664 5.1626644,5.1626644 0 0 1 5.162664,5.162664 z" />
    <g
       id="g19"
       inkscape:path-effect="#path-effect19">
      <g
         id="g10"
         transform="matrix(0.66668046,0,0,-0.49739124,26.783511,99.616018)"
         style="stroke:#000000;stroke-width:0.459467;stroke-dasharray:none;stroke-opacity:1">
        <path
           style="fill:none;stroke:#000000;stroke-width:0.459467;stroke-dasharray:none;stroke-opacity:1"
           d="m -22.041672,103.64887 c 4.861878,-3.17135 9.516321,-4.819532 14.1640233,-4.841059 6.1857903,-0.02865 12.2717734,2.835329 18.3731067,8.779129 0.335774,0.32711 0.671836,0.66349 1.008151,1.00915 6.467888,6.64774 13.048918,10.07284 19.559364,10.26736 3.720765,0.11117 7.424783,-0.83088 11.070187,-2.8049 M -20.339813,103.5326 c 4.199708,-2.426 8.239339,-3.647514 12.2264127,-3.622537 6.4464397,0.04038 12.7110722,3.349067 18.8038483,10.097997 0.191862,0.21253 0.383778,0.42193 0.575764,0.6282 5.915902,6.35605 12.501859,9.59752 19.08297,9.8517 4.672483,0.18047 9.380346,-1.14644 14.003497,-3.88871 1.55497,-0.92235 3.106392,-2.06157 4.656171,-3.41773 m -75.800063,-5.01736 c 5.898086,-5.75713 12.066305,-8.524628 18.1310923,-8.374311 4.7688151,0.118196 9.5462563,2.036411 14.1812804,5.766041 1.72267,1.38617 3.4839329,2.99932 5.2850103,4.84144 6.630421,6.78165 13.811817,10.10872 20.917038,10.27526 2.514238,0.0589 5.04018,-0.27161 7.583238,-0.97602 2.803282,-0.77648 5.486212,-2.13817 8.04952,-4.08505 M -2.3363093,98.405091 18.213589,115.35311 m 10.880834,7.17408 20.587301,-8.4315"
           id="path1"
           sodipodi:nodetypes="ccc"
           inkscape:original-d="m -28.268433,110.05374 c 13.231108,-13.234889 26.4575112,-13.228889 39.686677,0 13.229166,13.22917 26.457368,13.22903 39.686677,0" />
      </g>
      <g
         id="g5"
         transform="matrix(0.66668046,0,0,-0.49739124,79.707112,99.616018)"
         style="stroke:#000000;stroke-width:0.459467;stroke-dasharray:none;stroke-opacity:1">
        <path
           style="fill:none;stroke:#000000;stroke-width:0.459467;stroke-dasharray:none;stroke-opacity:1"
           d="m -22.60997,107.16729 c 5.130064,-3.91944 10.1431,-6.03679 15.074098,-6.21691 5.4833656,-0.20029 10.853357,2.01682 15.7593206,6.76582 0.7404811,0.71679 1.5031688,1.49855 2.2873634,2.34513 6.007935,6.48602 13.238901,9.97156 20.218376,10.16032 3.7143,0.10046 7.467746,-0.70418 11.153603,-2.43636 0.842853,-0.3961 1.679712,-0.84454 2.510934,-1.34533 m -66.056448,-13.63479 c 4.238443,-2.49852 8.501997,-3.824104 12.8252611,-3.906553 6.9730093,-0.132983 14.0140833,2.955563 21.4481029,9.490663 0.106492,0.0936 0.213007,0.18658 0.319545,0.27888 7.37047,6.38594 13.288452,9.76843 19.511703,10.07468 3.370891,0.16589 6.69562,-0.60515 10.11304,-2.2946 m -68.277986,-7.48846 c 5.776187,-5.51055 11.88734,-8.30051 18.0002233,-8.5575 5.2596887,-0.22112 10.5369009,1.41709 15.8777405,4.75649 1.7026197,1.06457 3.3716752,2.35772 5.0093092,3.87816 6.804339,6.31753 12.887866,9.70382 19.260759,9.57695 2.524033,-0.0502 5.056418,-0.66279 7.611412,-1.87618 3.031342,-1.43962 6.109262,-3.53611 9.23978,-6.29965 M 5.4500292,104.48942 24.351794,120.52716 M -3.790166,96.563172 20.547797,116.49872"
           id="path5"
           sodipodi:nodetypes="ccc"
           inkscape:original-d="m -28.278837,110.05374 c 13.231108,-13.234889 26.8546693,-13.636618 40.083835,-0.40773 13.229166,13.22917 25.92886,13.23457 39.158169,0.006" />
      </g>
      <g
         id="g7"
         transform="matrix(0.66668046,0,0,-0.49739124,132.63072,99.616018)"
         style="stroke:#000000;stroke-width:0.459467;stroke-dasharray:none;stroke-opacity:1">
        <path
           style="fill:none;stroke:#000000;stroke-width:0.459467;stroke-dasharray:none;stroke-opacity:1"
           d="m -26.146791,107.17795 c 5.963207,-5.12904 11.720265,-7.432995 17.4283942,-7.14127 5.1766624,0.26456 10.2883708,2.66371 15.469397,7.12363 1.4026119,1.20739 2.8033531,2.54206 4.1987528,4.00283 6.514711,6.82004 13.056854,9.89823 19.435704,9.7789 2.694881,-0.0504 5.371125,-0.66917 8.032492,-1.81851 2.439736,-1.05364 4.941958,-2.66889 7.501223,-4.85365 m -68.675327,-7.66801 c 4.733877,-3.80172 9.564586,-5.71397 14.3530176,-5.92165 5.9929464,-0.25992 11.8979268,2.14663 17.5852101,6.6585 0.5094125,0.40413 1.0231203,0.84061 1.5412233,1.30936 6.408998,5.79872 13.076857,9.47169 20.050769,9.82132 3.881672,0.1946 7.827366,-0.64925 11.708641,-2.6907 1.172168,-0.61653 2.332303,-1.33329 3.48037,-2.14942 m -72.323994,-6.20779 c 5.584001,-4.98833 11.400402,-7.40328 17.2502964,-7.444808 5.5044281,-0.03907 11.0509744,2.009568 16.7130588,5.941618 1.4040244,0.97503 2.7890248,2.09391 4.1581698,3.35565 6.914665,6.37235 13.262127,9.66311 19.934323,9.51673 2.877367,-0.0631 5.776883,-0.77516 8.729097,-2.1642 2.1849,-1.02801 4.348312,-2.34377 6.498596,-3.94141 M -9.4872589,96.512402 14.037525,109.45406 m 7.000716,11.20133 22.924582,-1.89799"
           id="path6"
           sodipodi:nodetypes="ccc"
           inkscape:original-d="m -28.420599,109.65201 c 13.231108,-13.234884 26.5888602,-12.827159 39.818026,0.40173 13.229166,13.22917 26.329603,12.82084 39.558912,-0.40819" />
      </g>
      <g
         id="g8"
         transform="matrix(0.66668046,0,0,-0.49739124,185.55435,99.616018)"
         style="stroke:#000000;stroke-width:0.459467;stroke-dasharray:none;stroke-opacity:1">
        <path
           style="fill:none;stroke:#000000;stroke-width:0.459467;stroke-dasharray:none;stroke-opacity:1"
           d="m -20.157844,103.68163 c 1.605205,-1.03237 3.212185,-1.87754 4.818107,-2.52944 m -12.089733,6.7016 c 5.547072,-4.9528 11.289688,-7.6384 17.015194,-7.77271 m -18.773273,9.83015 c 4.515789,-4.16265 9.038546,-7.0522 13.599956,-8.44109 m -12.990073,5.66314 20.985287,-10.523021 m -14.129735,4.603281 20.93665864,-3.170733"
           id="path7"
           sodipodi:nodetypes="cc"
           inkscape:original-d="m -28.420599,109.65155 c 6.615554,-6.61744 13.349415,-10.235906 19.9642407,-10.236656" />
      </g>
    </g>
    <path
       id="path20"
       style="fill:#ffffff;stroke:none;stroke-width:0.264583;stroke-dasharray:none"
       d="m 26.369127,50.16792 a 5.1626644,5.1626644 0 0 1 -5.162664,5.162665 5.1626644,5.1626644 0 0 1 -5.162665,-5.162665 5.1626644,5.1626644 0 0 1 5.162665,-5.162664 5.1626644,5.1626644 0 0 1 5.162664,5.162664 z" />
    <path
       id="path2"
       style="fill:#cccccc;stroke:none;stroke-width:0.264583;stroke-dasharray:none"
       d="m 19.130615,45.446322 a 5.1626644,5.1626644 0 0 0 -3.086633,4.721675 5.1626644,5.1626644 0 0 0 5.162476,5.162476 5.1626644,5.1626644 0 0 0 4.724259,-3.08405 5.1626644,5.1626644 0 0 1 -2.078426,0.438216 5.1626644,5.1626644 0 0 1 -5.162476,-5.162475 5.1626644,5.1626644 0 0 1 0.4408,-2.075842 z" />
    <path
       id="path12"
       style="fill:#ffffff;stroke:none;stroke-width:0.264583;stroke-dasharray:none"
       d="m 52.916662,39.584587 a 5.291666,5.2916684 0 0 1 -5.291666,5.291669 5.291666,5.2916684 0 0 1 -5.291666,-5.291669 5.291666,5.2916684 0 0 1 5.291666,-5.291668 5.291666,5.2916684 0 0 1 5.291666,5.291668 z" />
    <path
       id="ellipse12"
       style="fill:#ffffff;stroke:none;stroke-width:0.264583;stroke-dasharray:none"
       d="m 79.374994,50.167919 a 5.291666,5.2916684 0 0 1 -5.291666,5.291669 5.291666,5.2916684 0 0 1 -5.291666,-5.291669 5.291666,5.2916684 0 0 1 5.291666,-5.291668 5.291666,5.2916684 0 0 1 5.291666,5.291668 z" />
    <path
       id="ellipse13"
       style="fill:#ffffff;stroke-width:0.264583;stroke-dasharray:none"
       d="m 105.83332,39.584587 a 5.291666,5.2916684 0 0 1 -5.29166,5.291669 5.291666,5.2916684 0 0 1 -5.29167,-5.291669 5.291666,5.2916684 0 0 1 5.29167,-5.291668 5.291666,5.2916684 0 0 1 5.29166,5.291668 z" />
    <path
       id="ellipse14"
       style="fill:#ffffff;stroke:none;stroke-width:0.264583;stroke-dasharray:none"
       d="m 132.29166,50.167919 a 5.291666,5.2916684 0 0 1 -5.29167,5.291669 5.291666,5.2916684 0 0 1 -5.29166,-5.291669 5.291666,5.2916684 0 0 1 5.29166,-5.291668 5.291666,5.2916684 0 0 1 5.29167,5.291668 z" />
    <path
       id="ellipse15"
       style="fill:#ffffff;stroke:none;stroke-width:0.264583;stroke-dasharray:none"
       d="m 158.74999,39.584587 a 5.291666,5.2916684 0 0 1 -5.29166,5.291669 5.291666,5.2916684 0 0 1 -5.29167,-5.291669 5.291666,5.2916684 0 0 1 5.29167,-5.291668 5.291666,5.2916684 0 0 1 5.29166,5.291668 z" />
    <path
       id="path4"
       style="fill:#cccccc;stroke:none;stroke-width:0.264583;stroke-dasharray:none"
       d="m 45.448905,34.762736 a 5.291666,5.2916684 0 0 0 -3.115572,4.821928 5.291666,5.2916684 0 0 0 5.291667,5.291667 5.291666,5.2916684 0 0 0 4.821928,-3.115573 5.291666,5.2916684 0 0 1 -2.176095,0.469739 5.291666,5.2916684 0 0 1 -5.291666,-5.291666 5.291666,5.2916684 0 0 1 0.469738,-2.176095 z" />
    <path
       id="path10"
       style="fill:#cccccc;stroke:none;stroke-width:0.264583;stroke-dasharray:none"
       d="m 71.907239,45.346069 a 5.291666,5.2916684 0 0 0 -3.115572,4.821928 5.291666,5.2916684 0 0 0 5.291666,5.291667 5.291666,5.2916684 0 0 0 4.821928,-3.115572 5.291666,5.2916684 0 0 1 -2.176094,0.469739 5.291666,5.2916684 0 0 1 -5.291667,-5.291667 5.291666,5.2916684 0 0 1 0.469739,-2.176095 z" />
    <path
       id="path13"
       style="fill:#cccccc;stroke-width:0.264583;stroke-dasharray:none"
       d="M 98.365572,34.762736 A 5.291666,5.2916684 0 0 0 95.25,39.584664 a 5.291666,5.2916684 0 0 0 5.29167,5.291667 5.291666,5.2916684 0 0 0 4.82192,-3.115573 5.291666,5.2916684 0 0 1 -2.17609,0.469739 5.291666,5.2916684 0 0 1 -5.291667,-5.291666 5.291666,5.2916684 0 0 1 0.469739,-2.176095 z" />
    <path
       id="path15"
       style="fill:#cccccc;stroke:none;stroke-width:0.264583;stroke-dasharray:none"
       d="m 124.82391,45.346069 a 5.291666,5.2916684 0 0 0 -3.11558,4.821928 5.291666,5.2916684 0 0 0 5.29167,5.291667 5.291666,5.2916684 0 0 0 4.82193,-3.115572 5.291666,5.2916684 0 0 1 -2.1761,0.469739 5.291666,5.2916684 0 0 1 -5.29166,-5.291667 5.291666,5.2916684 0 0 1 0.46974,-2.176095 z" />
    <path
       id="path17"
       style="fill:#cccccc;stroke:none;stroke-width:0.264583;stroke-dasharray:none"
       d="m 151.28224,34.762736 a 5.291666,5.2916684 0 0 0 -3.11557,4.821928 5.291666,5.2916684 0 0 0 5.29166,5.291667 5.291666,5.2916684 0 0 0 4.82193,-3.115573 5.291666,5.2916684 0 0 1 -2.17609,0.469739 5.291666,5.2916684 0 0 1 -5.29167,-5.291666 5.291666,5.2916684 0 0 1 0.46974,-2.176095 z" />
    <g
       id="g20"
       inkscape:path-effect="#path-effect21">
      <path
         id="circle12"
         style="fill:none;stroke:#000000;stroke-width:0.264583;stroke-dasharray:none"
         d="m 24.782811,54.894413 c -0.886855,0.728495 -2.020026,1.122877 -3.199581,1.110297 -2.824144,-0.03012 -5.153598,-2.333372 -5.203204,-5.171003 -0.04957,-2.835324 2.196297,-5.122589 4.979896,-5.109204 1.170288,0.0056 2.304742,0.425956 3.205525,1.187734 1.157784,0.979119 1.823176,2.433193 1.802543,3.963556 -0.03815,2.829304 -2.370952,5.112216 -5.258149,5.059995 -2.889073,-0.05226 -5.235437,-2.423257 -5.310067,-5.35886 -0.02252,-0.885866 0.167247,-1.759128 0.548479,-2.544273 0.838786,-1.727473 2.561015,-2.793629 4.456144,-2.801405 1.388174,-0.0057 2.732992,0.557744 3.732551,1.560468 m -2.350264,8.332356 c -0.500667,0.141224 -1.018159,0.209895 -1.536529,0.20346 -2.908141,-0.0361 -5.224552,-2.385601 -5.198045,-5.298776 0.02654,-2.917199 2.38771,-5.29536 5.291811,-5.408912 1.944861,-0.07605 3.730288,0.892372 4.652896,2.469683 0.408686,0.698699 0.626323,1.496241 0.635278,2.316135 0.03029,2.772863 -2.266265,5.099183 -5.095586,5.175 -2.828919,0.07581 -5.122064,-2.122402 -5.082942,-4.855555 0.02133,-1.489961 0.747706,-2.902144 1.988531,-3.831344 0.945406,-0.707974 2.112882,-1.086891 3.314126,-1.064414 0.01823,3.41e-4 0.03646,7.75e-4 0.05468,0.0013 m 1.760435,9.973016 c -0.67924,0.28553 -1.40789,0.428506 -2.139516,0.418259 -2.858127,-0.04003 -5.120025,-2.373762 -4.994633,-5.258592 0.125442,-2.885988 2.598883,-5.227984 5.668593,-5.290326 1.806802,-0.03669 3.513294,0.732905 4.635865,2.042691 0.715677,0.835033 1.112148,1.859593 1.150769,2.922509 0.103399,2.845693 -2.296811,5.225296 -5.304524,5.376226 -3.026981,0.151897 -5.557793,-1.970672 -5.811935,-4.581397 -0.118066,-1.212852 0.280681,-2.373194 1.092027,-3.210112 0.864335,-0.891576 2.153263,-1.40023 3.541645,-1.377165 0.44873,0.0075 0.899366,0.07029 1.340025,0.187443 m -5.32007,7.413338 -1.089449,-3.438932 m 6.899705,-5.117171 2.974603,2.040806"
         inkscape:original-d="m 26.369127,50.16792 a 5.1626644,5.1626644 0 0 1 -5.162664,5.162665 5.1626644,5.1626644 0 0 1 -5.162665,-5.162665 5.1626644,5.1626644 0 0 1 5.162665,-5.162664 5.1626644,5.1626644 0 0 1 5.162664,5.162664 z" />
      <path
         id="path9"
         style="fill:none;stroke:#000000;stroke-width:0.264583;stroke-dasharray:none"
         d="m 52.142307,40.477257 c -0.584373,2.425171 -2.722673,4.146503 -5.158947,4.131608 -2.857789,-0.01747 -5.13038,-2.411514 -4.975784,-5.371593 0.145176,-2.779689 2.396107,-5.106734 5.315992,-5.402101 0.164985,-0.01669 0.330083,-0.02642 0.494865,-0.02917 3.099848,-0.0518 5.520827,2.329972 5.519163,5.293304 -2.13e-4,0.37936 -0.04094,0.758324 -0.121341,1.130605 m -2.081975,3.199483 c -0.97217,1.238725 -2.462425,1.961687 -4.032196,1.956452 -2.839522,-0.0095 -5.125926,-2.362871 -4.975403,-5.263318 0.150438,-2.898806 2.690642,-5.240006 5.872284,-5.216875 0.707967,0.0051 1.413337,0.129207 2.085413,0.366101 2.261334,0.797079 3.701631,2.75465 3.71882,4.912905 0.02292,2.87815 -2.45559,5.18443 -5.504609,5.077363 -3.053461,-0.107224 -5.56441,-2.595591 -5.628572,-5.675888 -0.0025,-0.119105 -0.0012,-0.238217 0.0038,-0.357165 0,0 0,0 0,0 0.124294,-2.935067 2.414686,-5.165327 5.183679,-5.203621 1.583273,-0.0219 3.084859,0.686984 4.079268,1.913602 m -0.821842,8.330377 c -0.792825,0.456799 -1.709669,0.69341 -2.650648,0.680733 -2.888233,-0.03891 -5.269847,-2.367432 -5.31491,-5.217165 -0.04493,-2.841211 2.260891,-5.110038 5.116573,-4.986952 1.269479,0.05472 2.49502,0.586638 3.438811,1.504744 1.095187,1.065381 1.72073,2.535017 1.710895,4.061962 -0.01902,2.953315 -2.375502,5.29921 -5.281001,5.247914 -2.903948,-0.05127 -5.249113,-2.483628 -5.23775,-5.455057 0.0029,-0.766345 0.1658,-1.522196 0.477462,-2.21715 0,0 0,-10e-7 0,-10e-7 0.858861,-1.915111 2.726994,-3.154062 4.770296,-3.189163 0.287841,-0.0049 0.574817,0.01424 0.857911,0.05727 m -7.151594,5.532481 1.458835,-4.604934 M 43.169157,43.3237 41.880805,38.66819"
         inkscape:original-d="m 52.916662,39.584588 a 5.291666,5.2916684 0 0 1 -5.291666,5.291669 5.291666,5.2916684 0 0 1 -5.291666,-5.291669 5.291666,5.2916684 0 0 1 5.291666,-5.291668 5.291666,5.2916684 0 0 1 5.291666,5.291668 z" />
      <path
         id="path11"
         style="fill:none;stroke:#000000;stroke-width:0.264583;stroke-dasharray:none"
         d="m 76.132348,54.475314 c -0.702452,0.36356 -1.482313,0.554619 -2.277568,0.559607 -2.891244,0.01814 -5.280845,-2.363144 -5.345767,-5.309321 -0.06499,-2.949414 2.214847,-5.353155 5.030504,-5.396131 1.396857,-0.02132 2.730368,0.553675 3.675096,1.58558 0.883334,0.964845 1.377109,2.271355 1.368869,3.650746 -0.01781,2.98211 -2.321443,5.461705 -5.140284,5.679329 -2.809345,0.216891 -5.049833,-1.896757 -4.893887,-4.473174 0.04797,-0.792522 0.32572,-1.566024 0.811589,-2.232984 0,0 10e-7,-1e-6 10e-7,-1e-6 1.038776,-1.425943 2.850628,-2.362698 4.809614,-2.365283 0,0 0.0027,-3e-6 0.0027,-3e-6 m 0.878721,9.677727 c -0.446912,0.123225 -0.905825,0.187836 -1.365482,0.192474 -2.940743,0.02967 -5.293387,-2.35119 -5.239213,-5.301811 0.05426,-2.955118 2.498529,-5.368829 5.520405,-5.427342 1.879499,-0.03639 3.633986,0.858745 4.676227,2.358099 0.573668,0.825272 0.882979,1.790513 0.897649,2.779032 0.04293,2.892438 -2.380631,5.260708 -5.398346,5.271665 -3.028177,0.01099 -5.525999,-2.338695 -5.683913,-5.250359 -0.06788,-1.251501 0.312269,-2.464172 1.060167,-3.422468 0.499963,-0.640614 1.155369,-1.144117 1.906395,-1.468946 m 7.739689,6.664862 c -0.785266,2.127273 -2.778432,3.544434 -4.996075,3.563127 -2.902236,0.02446 -5.232675,-2.327466 -5.169568,-5.218565 0.06306,-2.888816 2.500092,-5.224469 5.50093,-5.156041 0.07501,0.0017 0.150002,0.0049 0.224945,0.0097 0,0 10e-7,0 10e-7,0 2.908023,0.184963 5.169015,2.489408 5.168883,5.24475 -1.35e-4,2.824467 -2.394021,5.060804 -5.337057,4.853976 -2.412027,-0.16951 -4.524197,-1.959484 -5.137543,-4.487074 0,0 0,0 0,0 -0.118369,-0.487795 -0.178399,-0.984013 -0.178538,-1.477758 -8.77e-4,-3.11 2.345603,-5.507008 5.225828,-5.453267 2.814372,0.05251 5.104671,2.439725 5.111083,5.40169 m -7.662175,6.038801 -3.3308,-3.498451 m 3.61296,-7.402515 4.807175,0.473465"
         inkscape:original-d="m 79.374994,50.16792 a 5.291666,5.2916684 0 0 1 -5.291666,5.291669 5.291666,5.2916684 0 0 1 -5.291666,-5.291669 5.291666,5.2916684 0 0 1 5.291666,-5.291668 5.291666,5.2916684 0 0 1 5.291666,5.291668 z" />
      <path
         id="path14"
         style="fill:none;stroke:#000000;stroke-width:0.264583;stroke-dasharray:none"
         d="m 105.94465,42.278701 c -0.88052,1.945497 -2.85595,3.199139 -5.05623,3.159522 -3.023489,-0.05444 -5.490377,-2.491754 -5.666146,-5.522356 -0.176191,-3.037869 1.993833,-5.523158 4.610427,-5.709887 0.146626,-0.01046 0.292899,-0.01342 0.438249,-0.0089 2.43561,0.07562 4.44882,2.301586 4.52335,4.994558 0.0799,2.888647 -2.07349,5.271925 -4.73537,5.261719 -2.267176,-0.0087 -4.194885,-1.779757 -4.511583,-4.310097 0,0 0,-10e-7 0,-10e-7 -0.04704,-0.375877 -0.05943,-0.75725 -0.03616,-1.138401 0.183113,-2.999438 2.521078,-5.374922 5.338303,-5.334994 2.53548,0.03594 4.60627,2.060198 4.74099,4.759033 m -1.22767,4.180524 c -1.00772,0.997891 -2.3667,1.571406 -3.78543,1.600751 -2.954952,0.06112 -5.35146,-2.20806 -5.401265,-4.96845 -0.04959,-2.748663 2.262966,-4.936191 5.095585,-4.653135 0.82486,0.08243 1.63546,0.374663 2.35864,0.861659 1.67564,1.128385 2.73404,3.019511 2.71407,5.016204 -0.0294,2.939225 -2.38245,5.195281 -5.29164,5.008392 -2.909008,-0.186878 -5.259526,-2.757689 -5.282826,-5.840506 -0.0025,-0.330652 0.0224,-0.659736 0.07429,-0.983472 0,0 0,0 0,0 0.423438,-2.641523 2.60509,-4.539703 5.153933,-4.593993 1.172913,-0.02498 2.313293,0.347507 3.238383,1.050017 m 1.88322,6.36109 c -0.93246,1.91207 -2.83917,3.14006 -4.93157,3.188733 -2.981994,0.06937 -5.391599,-2.237741 -5.468336,-5.054732 -0.07653,-2.809535 2.20341,-5.066374 4.969903,-4.859199 0.224145,0.01679 0.447643,0.04995 0.668823,0.09944 2.47651,0.554127 4.38392,2.789261 4.38323,5.348386 -7.5e-4,2.796878 -2.31078,4.954765 -5.176465,4.635214 -2.52893,-0.282 -4.684544,-2.434902 -5.113838,-5.295827 0,0 0,0 0,0 -0.04951,-0.329979 -0.07404,-0.660044 -0.0733,-0.987324 0.0072,-3.19077 2.398644,-5.563879 5.361892,-5.375793 2.520531,0.159986 4.716221,2.151352 5.312801,4.896937 m -10.276181,2.29594 1.402216,-4.622489 m 6.262295,-1.650542 3.49845,3.330801"
         inkscape:original-d="m 105.83332,39.584588 a 5.291666,5.2916684 0 0 1 -5.29166,5.291669 5.291666,5.2916684 0 0 1 -5.29167,-5.291669 5.291666,5.2916684 0 0 1 5.29167,-5.291668 5.291666,5.2916684 0 0 1 5.29166,5.291668 z" />
      <path
         id="path16"
         style="fill:none;stroke:#000000;stroke-width:0.264583;stroke-dasharray:none"
         d="m 130.99765,54.553658 c -0.98294,1.136777 -2.41283,1.772692 -3.91609,1.739251 -2.89652,-0.06444 -5.25193,-2.544605 -5.22928,-5.645337 0.0227,-3.113117 2.41646,-5.682844 5.38702,-5.988315 0.75371,-0.0775 1.50018,-0.0026 2.19298,0.212977 1.95278,0.607542 3.2001,2.430837 3.19898,4.530394 -0.002,2.959638 -2.40492,5.509845 -5.37303,5.803421 -2.97055,0.293817 -5.39129,-1.759856 -5.4399,-4.375138 -0.003,-0.182587 0.005,-0.365314 0.0254,-0.547172 0,0 0,0 0,0 0.26847,-2.40683 2.52655,-4.340223 5.23456,-4.363559 1.41738,-0.01221 2.78162,0.505341 3.79965,1.442208 m -1.76081,8.401654 c -0.66995,0.292055 -1.38651,0.445994 -2.10769,0.453628 -2.95183,0.03124 -5.3134,-2.345057 -5.27926,-5.284774 0.0342,-2.942919 2.45348,-5.342487 5.43197,-5.373788 1.57643,-0.01657 3.07461,0.645194 4.10692,1.809017 0.84225,0.94955 1.30944,2.162923 1.32284,3.418293 0.031,2.908451 -2.32882,5.270433 -5.23522,5.260137 -2.90598,-0.01029 -5.26275,-2.389674 -5.22349,-5.332312 0.0134,-1.001384 0.3093,-1.983709 0.85706,-2.835594 0.89748,-1.395763 2.37129,-2.30568 4.00734,-2.469837 m 3.54355,9.26497 c -0.91396,0.718596 -2.03573,1.113147 -3.19519,1.129659 -2.95355,0.04206 -5.37775,-2.31759 -5.4872,-5.22509 -0.10947,-2.907775 2.12964,-5.26933 4.87106,-5.232455 1.03271,0.01389 2.03476,0.375586 2.85171,1.039117 1.26841,1.030202 2.03407,2.632872 2.01786,4.321192 -0.0276,2.874856 -2.29841,5.15222 -5.08155,4.981163 -2.77355,-0.170469 -4.97331,-2.734637 -4.81088,-5.908271 0.0312,-0.609741 0.15002,-1.216735 0.3529,-1.800747 0,0 0,-10e-7 0,-10e-7 0.82538,-2.37602 2.87858,-3.937168 5.14134,-3.975204 0.6695,-0.01125 1.32797,0.113113 1.93901,0.364449 m 0.0786,11.177307 -4.82716,-0.177795 m -2.99979,-3.655234 0.76736,-4.769151"
         inkscape:original-d="m 132.29166,50.16792 a 5.291666,5.2916684 0 0 1 -5.29167,5.291669 5.291666,5.2916684 0 0 1 -5.29166,-5.291669 5.291666,5.2916684 0 0 1 5.29166,-5.291668 5.291666,5.2916684 0 0 1 5.29167,5.291668 z" />
      <path
         id="path18"
         style="fill:none;stroke:#000000;stroke-width:0.264583;stroke-dasharray:none"
         d="m 158.13074,41.417162 c -0.75854,2.036817 -2.70341,3.396293 -4.87447,3.428211 -2.89627,0.04258 -5.24668,-2.258887 -5.21047,-5.080101 0.0361,-2.815398 2.44759,-5.074517 5.44304,-4.918164 0.1123,0.0059 0.22462,0.01516 0.33678,0.02788 2.86197,0.324609 5.07411,2.676334 5.11556,5.490354 0.0432,2.933802 -2.2928,5.27311 -5.15122,5.252469 -2.3803,-0.01719 -4.43916,-1.686976 -4.91272,-4.017773 0,0 0,0 0,0 -0.0826,-0.406635 -0.11698,-0.825269 -0.10169,-1.246732 0.10521,-2.900513 2.49033,-5.289677 5.42004,-5.357579 2.77673,-0.06436 5.05867,1.990846 5.25289,4.641212 m -0.1736,0.723618 c -0.3886,2.660336 -2.68141,4.653515 -5.40273,4.626991 -2.96762,-0.02893 -5.36779,-2.437551 -5.43334,-5.418834 -0.0572,-2.599305 1.68566,-4.838669 4.07237,-5.386118 0.3075,-0.07053 0.62083,-0.109685 0.93554,-0.117148 2.58575,-0.06131 4.79548,1.982546 5.03853,4.71667 m -0.24641,0.505806 c -0.27088,2.713088 -2.56293,4.8073 -5.3027,4.822077 -2.91691,0.01573 -5.27066,-2.32461 -5.25141,-5.207419 0.0164,-2.448445 1.75863,-4.561276 4.19384,-5.052783 0.37559,-0.07581 0.75972,-0.111378 1.14572,-0.105904 2.94916,0.04182 5.36606,2.416304 5.47145,5.339192 0.0485,1.345508 -0.40834,2.637114 -1.26225,3.614276 m -7.30346,1.511755 -2.27707,-4.260103 m 0.0729,0.622398 1.23112,-4.67097"
         inkscape:original-d="m 158.74999,39.584588 a 5.291666,5.2916684 0 0 1 -5.29166,5.291669 5.291666,5.2916684 0 0 1 -5.29167,-5.291669 5.291666,5.2916684 0 0 1 5.29167,-5.291668 5.291666,5.2916684 0 0 1 5.29166,5.291668 z" />
    </g>
    <path
       style="fill:none;stroke:#000000;stroke-width:0.264583;stroke-dasharray:none;stroke-opacity:1"
       d="m 180.21411,51.728585 c 0.22201,-7.953214 -0.10046,-15.546064 -0.27006,-23.329321 -0.16967,-7.786595 -0.15882,-15.690458 -0.43228,-23.7333016 -0.0186,-0.5482893 -0.0341,-1.0938632 -0.0467,-1.6369716 2.62511,-0.06526 5.32444,-0.067322 8.06537,-0.038622 M 179.33,13.679305 c -0.11398,-3.6812502 -0.11688,-7.3723022 -0.0783,-11.0997406 4.18677,-0.1012742 8.42713,-0.2495711 12.61885,-0.4839458 3.85253,-0.2154098 7.67665,-0.1885485 11.5073,-0.075036 -2.35523,3.2998341 -4.70333,6.6944797 -7.00429,10.0058264 -0.25076,0.360875 -0.50226,0.720469 -0.7544,1.078912 0.46852,0.626895 0.93506,1.250272 1.4001,1.870836 m 4.94992,-10.5349858 c -2.27942,2.8766481 -4.40915,5.7836628 -6.43807,8.6779648 2.65622,3.231482 5.43811,6.447118 8.27767,9.586946 0.21365,0.236244 0.42455,0.473906 0.63283,0.712936 -5.31059,-0.145657 -11.52716,0.182111 -17.77835,0.65615 m -5.93772,25.025383 c -0.0777,-7.884534 -0.51794,-15.454865 -1.50718,-23.04191 v -1e-6 c -0.98966,-7.590298 0.24691,-15.631552 0.77398,-23.5645487 v -2.4e-6 c 0.005,-0.075977 0.01,-0.1519121 0.0149,-0.2278058 6.99696,-0.1235685 13.27388,0.073567 19.79887,0.3136347 M 179.2148,14.173153 c 0.0659,-3.678593 0.1518,-7.3007588 0.3038,-10.9024226 4.33101,0.025957 8.74866,0.078795 13.32212,0.1045757 4.17374,0.023527 7.95204,-0.0259 11.61105,-0.132774 -2.5295,3.07971 -5.19143,6.0956507 -7.66283,9.0659599 -0.2597,0.312136 -0.51879,0.62631 -0.77733,0.942315 2.22135,2.868937 4.48811,5.888857 6.74801,8.906059 m 0.15465,-17.2571084 c -2.04347,2.7396213 -4.19287,5.6209534 -6.38691,8.5690974 2.46163,3.469729 4.86143,7.032005 7.29931,10.564719 0.11984,0.173668 0.23992,0.346866 0.36021,0.51961 -7.68961,0.27218 -15.08886,-0.06178 -22.63975,-0.148149 m -1.84851,27.63099 c 0.24077,-7.635284 -0.043,-15.705685 -0.10134,-23.798481 -0.0584,-8.096266 -0.16557,-15.608744 -0.46977,-23.4957992 v -2.5e-6 c -0.0339,-0.879647 -0.0581,-1.75016 -0.0737,-2.6119812 0.9909,0.00655 1.99331,0.024814 3.00536,0.054112 M 180.1351,14.106592 c -0.11237,-3.89521 -0.17556,-7.8131972 -0.27395,-11.6462488 3.65909,0.1830834 7.28781,0.4394841 10.81849,0.8555879 3.9539,0.4659826 8.21139,0.405651 12.56353,0.2267154 -2.01486,2.7147236 -3.96054,5.342771 -5.96758,8.1388555 -0.46198,0.643605 -0.93335,1.290596 -1.41299,1.940431 0.007,0.0084 0.0132,0.01684 0.0198,0.02526 m 6.69582,-10.4098393 c -2.51825,3.3740243 -4.92677,6.7107998 -7.26445,10.0760753 2.31209,2.987535 4.68002,5.997532 7.07657,9.075994 0.49403,0.634601 0.98098,1.263969 1.46201,1.888988 -5.88078,0.17918 -12.15064,0.07217 -18.18415,0.151657 M 176.22519,2.7487436 h 16.08594 M 206.58552,23.91541 h -14.35156"
       id="path8"
       sodipodi:nodetypes="cccccc"
       inkscape:path-effect="#path-effect22"
       inkscape:original-d="m 179.91666,55.562503 -0.0872,-52.8137594 h 23.81249 l -7.93749,10.5833324 7.9379,10.583334 h -23.81249" />
  </g>
</svg>
