<?xml version="1.0" encoding="UTF-8" standalone="no"?>
<!-- Created with Inkscape (http://www.inkscape.org/) -->

<svg
   width="240"
   height="200"
   viewBox="0 0 63.500009 52.916674"
   version="1.1"
   id="svg1"
   inkscape:version="1.3.2 (091e20ef0f, 2023-11-25, custom)"
   sodipodi:docname="spielidee.svg"
   xml:space="preserve"
   xmlns:inkscape="http://www.inkscape.org/namespaces/inkscape"
   xmlns:sodipodi="http://sodipodi.sourceforge.net/DTD/sodipodi-0.dtd"
   xmlns="http://www.w3.org/2000/svg"
   xmlns:svg="http://www.w3.org/2000/svg"><sodipodi:namedview
     id="namedview1"
     pagecolor="#ffffff"
     bordercolor="#000000"
     borderopacity="0.25"
     inkscape:showpageshadow="2"
     inkscape:pageopacity="0.0"
     inkscape:pagecheckerboard="0"
     inkscape:deskcolor="#d1d1d1"
     inkscape:document-units="px"
     inkscape:zoom="1.6"
     inkscape:cx="120"
     inkscape:cy="100"
     inkscape:window-width="1440"
     inkscape:window-height="831"
     inkscape:window-x="0"
     inkscape:window-y="0"
     inkscape:window-maximized="1"
     inkscape:current-layer="g30"
     showgrid="true"><inkscape:grid
       id="grid10"
       units="px"
       originx="0"
       originy="0"
       spacingx="1.3229168"
       spacingy="1.3229168"
       empcolor="#0099e5"
       empopacity="0.30196078"
       color="#0099e5"
       opacity="0.14901961"
       empspacing="5"
       dotted="false"
       gridanglex="30"
       gridanglez="30"
       visible="true" /></sodipodi:namedview><defs
     id="defs1"><inkscape:path-effect
       effect="sketch"
       id="path-effect38"
       is_visible="true"
       lpeversion="1"
       nbiter_approxstrokes="1"
       parallel_offset="0.2;1"
       strokelength="26.5"
       strokelength_rdm="0.5;1"
       strokeoverlap="0"
       strokeoverlap_rdm="0.2;1"
       ends_tolerance="0.4;1"
       tremble_size="0.2;1"
       tremble_frequency="2"
       nbtangents="0"
       tgt_places_rdmness="0.5;1"
       tgtlength="5"
       tgtlength_rdm="0.3;1"
       tgtscale="10" /><inkscape:path-effect
       effect="sketch"
       id="path-effect37"
       is_visible="true"
       lpeversion="1"
       nbiter_approxstrokes="3"
       parallel_offset="0.2;1"
       strokelength="70"
       strokelength_rdm="0.3;1"
       strokeoverlap="0.5"
       strokeoverlap_rdm="0.5;1"
       ends_tolerance="0.1;1"
       tremble_size="0.8;1"
       tremble_frequency="3"
       nbtangents="2"
       tgt_places_rdmness="0.5;1"
       tgtlength="5"
       tgtlength_rdm="0.3;1"
       tgtscale="10" /><inkscape:path-effect
       effect="sketch"
       id="path-effect26"
       is_visible="true"
       lpeversion="1"
       nbiter_approxstrokes="3"
       parallel_offset="0.2;1"
       strokelength="70"
       strokelength_rdm="0.3;1"
       strokeoverlap="0.5"
       strokeoverlap_rdm="0.5;1"
       ends_tolerance="0.1;1"
       tremble_size="0.8;1"
       tremble_frequency="3"
       nbtangents="2"
       tgt_places_rdmness="0.5;1"
       tgtlength="5"
       tgtlength_rdm="0.3;1"
       tgtscale="10" /><inkscape:path-effect
       effect="sketch"
       id="path-effect25"
       is_visible="true"
       lpeversion="1"
       nbiter_approxstrokes="3"
       parallel_offset="0.2;1"
       strokelength="70"
       strokelength_rdm="0.3;1"
       strokeoverlap="0.5"
       strokeoverlap_rdm="0.5;1"
       ends_tolerance="0.1;1"
       tremble_size="0.8;1"
       tremble_frequency="3"
       nbtangents="2"
       tgt_places_rdmness="0.5;1"
       tgtlength="5"
       tgtlength_rdm="0.3;1"
       tgtscale="10" /><inkscape:path-effect
       effect="sketch"
       id="path-effect13"
       is_visible="true"
       lpeversion="1"
       nbiter_approxstrokes="3"
       parallel_offset="0.2;1"
       strokelength="70"
       strokelength_rdm="0.3;1"
       strokeoverlap="0.5"
       strokeoverlap_rdm="0.5;1"
       ends_tolerance="0.1;1"
       tremble_size="0.8;1"
       tremble_frequency="3"
       nbtangents="3"
       tgt_places_rdmness="0.5;1"
       tgtlength="5"
       tgtlength_rdm="0.3;1"
       tgtscale="10" /><inkscape:path-effect
       effect="sketch"
       id="path-effect12"
       is_visible="true"
       lpeversion="1"
       nbiter_approxstrokes="3"
       parallel_offset="0.2;1"
       strokelength="70"
       strokelength_rdm="0.3;1"
       strokeoverlap="0.5"
       strokeoverlap_rdm="0.5;1"
       ends_tolerance="0.1;1"
       tremble_size="0.8;1"
       tremble_frequency="3"
       nbtangents="2"
       tgt_places_rdmness="0.5;1"
       tgtlength="10"
       tgtlength_rdm="0.3;1"
       tgtscale="10" /><inkscape:path-effect
       effect="sketch"
       id="path-effect18"
       is_visible="true"
       lpeversion="1"
       nbiter_approxstrokes="3"
       parallel_offset="0.2;1"
       strokelength="70"
       strokelength_rdm="0.3;1"
       strokeoverlap="0.5"
       strokeoverlap_rdm="0.5;1"
       ends_tolerance="0.1;1"
       tremble_size="0.8;1"
       tremble_frequency="3"
       nbtangents="2"
       tgt_places_rdmness="0.5;1"
       tgtlength="10"
       tgtlength_rdm="0.3;1"
       tgtscale="10" /><inkscape:path-effect
       effect="sketch"
       id="path-effect10"
       is_visible="true"
       lpeversion="1"
       nbiter_approxstrokes="3"
       parallel_offset="0.2;1"
       strokelength="70"
       strokelength_rdm="0.3;1"
       strokeoverlap="0.5"
       strokeoverlap_rdm="0.5;1"
       ends_tolerance="0.1;1"
       tremble_size="0.8;1"
       tremble_frequency="3"
       nbtangents="2"
       tgt_places_rdmness="0.5;1"
       tgtlength="10"
       tgtlength_rdm="0.3;1"
       tgtscale="10" /><inkscape:path-effect
       effect="sketch"
       id="path-effect9"
       is_visible="true"
       lpeversion="1"
       nbiter_approxstrokes="3"
       parallel_offset="0.2;1"
       strokelength="70"
       strokelength_rdm="0.3;1"
       strokeoverlap="0.5"
       strokeoverlap_rdm="0.5;1"
       ends_tolerance="0.1;1"
       tremble_size="0.8;1"
       tremble_frequency="3"
       nbtangents="2"
       tgt_places_rdmness="0.5;1"
       tgtlength="10"
       tgtlength_rdm="0.3;1"
       tgtscale="10" /><inkscape:path-effect
       effect="sketch"
       id="path-effect8"
       is_visible="true"
       lpeversion="1"
       nbiter_approxstrokes="3"
       parallel_offset="0.2;1"
       strokelength="70"
       strokelength_rdm="0.3;1"
       strokeoverlap="0.5"
       strokeoverlap_rdm="0.5;1"
       ends_tolerance="0.1;1"
       tremble_size="0.8;1"
       tremble_frequency="3"
       nbtangents="2"
       tgt_places_rdmness="0.5;1"
       tgtlength="10"
       tgtlength_rdm="0.3;1"
       tgtscale="10" /><inkscape:path-effect
       effect="sketch"
       id="path-effect3"
       is_visible="true"
       lpeversion="1"
       nbiter_approxstrokes="3"
       parallel_offset="0.2;1"
       strokelength="70"
       strokelength_rdm="0.3;1"
       strokeoverlap="0.5"
       strokeoverlap_rdm="0.5;1"
       ends_tolerance="0.1;1"
       tremble_size="0.8;1"
       tremble_frequency="3"
       nbtangents="2"
       tgt_places_rdmness="0.5;1"
       tgtlength="10"
       tgtlength_rdm="0.3;1"
       tgtscale="10" /><inkscape:path-effect
       effect="sketch"
       id="path-effect2"
       is_visible="true"
       lpeversion="1"
       nbiter_approxstrokes="4"
       parallel_offset="0.7;1"
       strokelength="50"
       strokelength_rdm="0.3;1"
       strokeoverlap="0.3"
       strokeoverlap_rdm="0.3;1"
       ends_tolerance="0.1;1"
       tremble_size="0.8;1"
       tremble_frequency="3"
       nbtangents="0"
       tgt_places_rdmness="1;1"
       tgtlength="100"
       tgtlength_rdm="0.3;1"
       tgtscale="10" /><inkscape:path-effect
       effect="sketch"
       id="path-effect1"
       is_visible="true"
       lpeversion="1"
       nbiter_approxstrokes="3"
       parallel_offset="0.5;1"
       strokelength="50"
       strokelength_rdm="0.3;1"
       strokeoverlap="0.3"
       strokeoverlap_rdm="0.3;1"
       ends_tolerance="0.1;1"
       tremble_size="1;1"
       tremble_frequency="3"
       nbtangents="0"
       tgt_places_rdmness="1;1"
       tgtlength="100"
       tgtlength_rdm="0.3;1"
       tgtscale="10" /><inkscape:path-effect
       effect="sketch"
       id="path-effect11"
       is_visible="true"
       lpeversion="1"
       nbiter_approxstrokes="3"
       parallel_offset="0.5;1"
       strokelength="50"
       strokelength_rdm="0.3;1"
       strokeoverlap="0.3"
       strokeoverlap_rdm="0.3;1"
       ends_tolerance="0.1;1"
       tremble_size="1;1"
       tremble_frequency="3"
       nbtangents="0"
       tgt_places_rdmness="1;1"
       tgtlength="100"
       tgtlength_rdm="0.3;1"
       tgtscale="10" /><inkscape:path-effect
       effect="sketch"
       id="path-effect7"
       is_visible="true"
       lpeversion="1"
       nbiter_approxstrokes="3"
       parallel_offset="1;1"
       strokelength="50"
       strokelength_rdm="0.3;1"
       strokeoverlap="0.3"
       strokeoverlap_rdm="0.3;1"
       ends_tolerance="0.1;1"
       tremble_size="1.2;1"
       tremble_frequency="3"
       nbtangents="0"
       tgt_places_rdmness="1;1"
       tgtlength="100"
       tgtlength_rdm="0.3;1"
       tgtscale="10" /><rect
       x="223.77509"
       y="306.53192"
       width="415.43015"
       height="124.34706"
       id="rect6" /><inkscape:path-effect
       effect="sketch"
       id="path-effect6"
       is_visible="true"
       lpeversion="1"
       nbiter_approxstrokes="3"
       parallel_offset="1;1"
       strokelength="50"
       strokelength_rdm="0.3;1"
       strokeoverlap="0.3"
       strokeoverlap_rdm="0.3;1"
       ends_tolerance="0.1;1"
       tremble_size="1.2;1"
       tremble_frequency="3"
       nbtangents="0"
       tgt_places_rdmness="1;1"
       tgtlength="100"
       tgtlength_rdm="0.3;1"
       tgtscale="10" /><inkscape:path-effect
       effect="sketch"
       id="path-effect5"
       is_visible="true"
       lpeversion="1"
       nbiter_approxstrokes="3"
       parallel_offset="1;1"
       strokelength="50"
       strokelength_rdm="0.3;1"
       strokeoverlap="0.3"
       strokeoverlap_rdm="0.3;1"
       ends_tolerance="0.1;1"
       tremble_size="1.2;1"
       tremble_frequency="3"
       nbtangents="0"
       tgt_places_rdmness="1;1"
       tgtlength="100"
       tgtlength_rdm="0.3;1"
       tgtscale="10" /></defs><g
     inkscape:label="Layer 1"
     inkscape:groupmode="layer"
     id="layer1"><g
       id="g6"><g
         id="g9"
         transform="translate(28.418657,-43.5)"><g
           id="g10"><g
             id="g1"
             transform="matrix(1.0406646,0,0,1.0406646,-0.14223599,-7.5308883)"><g
               id="g30"
               transform="matrix(0.80425836,0,0,0.80425836,4.9989209,11.815387)"><path
                 id="path23"
                 style="fill:#e6e6e6;stroke:none;stroke-width:0.31612306;stroke-linecap:round;stroke-linejoin:round;stroke-dasharray:none"
                 d="m 5.9274017,91.868416 c -0.685305,1.084503 0.3295407,13.432894 -0.9562596,13.696004 -3.242404,0.66349 -11.354703,0.38846 -13.253053,0 -1.2858,-0.26311 -0.388164,-11.965378 -1.061797,-13.057169 z"
                 sodipodi:nodetypes="csscc" /><path
                 id="path24"
                 style="fill:#b3b3b3;stroke:none;stroke-width:0.31612306;stroke-linecap:round;stroke-linejoin:round;stroke-dasharray:none"
                 d="m -9.3438034,92.507496 c 0.6736323,1.09179 -0.223848,12.793974 1.0619508,13.057084 1.8983481,0.38846 10.0105394,0.66349 13.2529397,0 0.3552329,-0.0727 0.5397,-1.03438 0.6397543,-2.389 -3.7989273,0.3085 -9.6680328,0.0662 -11.2468603,-0.25683 -0.94962,-0.19432 -0.7093604,-6.620433 -0.789616,-10.411254 z" /><g
                 id="g25"
                 style="stroke-width:0.31612306;stroke-dasharray:none"><g
                   id="g29"
                   style="stroke-width:0.31612306;stroke-dasharray:none"><g
                     id="g28"
                     style="stroke-width:0.31612306;stroke-dasharray:none"><g
                       id="g27"
                       style="stroke-width:0.31612306;stroke-dasharray:none"><path
                         id="path26"
                         style="fill:#ffeeaa;stroke:#000000;stroke-width:0.31612306;stroke-linecap:round;stroke-linejoin:round;stroke-dasharray:none"
                         d="m 17.725415,69.892189 c 0,8.563565 -6.456569,13.295313 -12.0635587,22.168433 -15.3766481,0 0,0 -15.3766481,0 C -15.189489,83.187502 -21.77835,78.457327 -21.77835,69.892189 c 0,-10.908663 8.843219,-19.751883 19.7518822,-19.751883 10.9086637,0 19.7518828,8.843219 19.7518828,19.751883 z"
                         sodipodi:nodetypes="sccsss" /><g
                         id="g26"
                         inkscape:path-effect="#path-effect26"
                         style="stroke-width:0.31612306;stroke-linecap:round;stroke-linejoin:round;stroke-dasharray:none"><path
                           id="path1"
                           style="fill:none;stroke:#000000;stroke-width:0.31612306;stroke-linecap:round;stroke-linejoin:round;stroke-dasharray:none"
                           d="m 17.386042,75.129564 c -0.605272,2.242203 -1.753718,4.299722 -3.202825,6.384508 -2.334521,3.358606 -5.4756033,6.819497 -8.4001765,11.271003 -0.8366192,0.0023 -1.5757674,0.0029 -2.2430175,0.0021 -3e-7,0 -6e-7,0 -9e-7,0 -5.31196,-0.0059 -5.5647772,-0.02589 -5.579078,-0.02601 -0.00157,-1.3e-5 -3.9e-5,-2.6e-5 -0.00161,-3.9e-5 -0.01609,-1.34e-4 -0.3517168,0.0346 -7.7774848,-0.105158 -1.9984529,-3.231456 -4.1357069,-5.934622 -6.1270779,-8.513123 -0.808752,-1.047203 -1.56515,-2.051276 -2.250479,-3.040159 -1.198288,-1.729048 -2.185098,-3.420063 -2.848519,-5.212107 m 10.373607,15.487294 c -2.761752,-4.15678 -5.531108,-7.446789 -7.677228,-10.741198 -1.98682,-3.049875 -3.4317,-6.103843 -3.724983,-9.861755 -0.04114,-0.527127 -0.05958,-1.06324 -0.05348,-1.610189 0.06313,-5.661389 2.286507,-10.392133 5.921554,-13.753842 1.499862,-1.387079 3.238825,-2.538552 5.164383,-3.420727 1.0803149,-0.494935 2.2096757,-0.907285 3.3792865,-1.224049 m -10.8891845,7.714378 c 0.63644,-0.959486 1.36759,-1.855976 2.181682,-2.680658 3.596171,-3.642949 8.7958193,-5.878576 14.6858766,-6.004379 1.60811557,-0.03435 3.1852502,0.08975 4.7114951,0.352928 4.0559187,0.69938 7.3227993,2.666646 9.7014063,5.453378 2.600447,3.046637 4.148374,7.07901 4.515402,11.595756 0.0958,1.178942 0.13318,2.351774 0.101714,3.515412 -0.02132,0.78821 -0.08109,1.528114 -0.178332,2.234374 M 13.058442,57.704398 c 2.43957,3.320709 4.012685,7.430388 4.211299,11.872085 0.168395,3.765902 -0.900927,6.75857 -2.564983,9.682525 -0.208268,0.365953 -0.429539,0.732427 -0.662386,1.100751 -2.091173,3.307867 -5.1446732,6.771497 -8.0253692,11.371045 -2.9933862,0.09162 -6.37177378,0.220748 -6.64166203,0.230897 -0.41114727,0.01546 -0.68243787,0.02589 -1.09358507,0.04135 -0.00154,5.8e-5 3.05e-5,1.17e-4 -0.00151,1.75e-4 0.7133734,-0.0271 -1.1541209,0.04387 -0.4407475,0.01677 -0.6975743,0.02656 -2.4694891,0.0959 -7.2664018,0.212837 -2.5730101,-3.912556 -5.4669191,-6.961537 -7.8991271,-9.817626 m 34.280416,-5.489741 c -0.640525,1.592436 -1.519818,3.088325 -2.551064,4.569627 -2.602517,3.738305 -5.7230217,7.031098 -8.3255384,10.769403 -1.7574005,-0.08394 -3.3022407,-0.166336 -4.3049511,-0.221062 -2e-7,-10e-7 -4e-7,-10e-7 -7e-7,-10e-7 -3.3220324,-0.181312 -3.5110656,-0.150435 -3.523223,-0.150826 -0.00157,-5e-5 -3.86e-5,-1.01e-4 -0.00161,-1.51e-4 -0.016088,-5.17e-4 -0.3754541,-0.0738 -7.7511154,-0.132351 -2.3834386,-3.853858 -5.0364206,-7.005917 -7.2644276,-10.084465 -0.342125,-0.472731 -0.671572,-0.937498 -0.986599,-1.397456 -2.225336,-3.249126 -3.745934,-6.281347 -3.8158,-10.001332 m 10.929191,20.12199 c -2.169017,-3.329509 -4.555421,-6.132502 -6.495271,-8.92062 -2.358041,-3.38918 -4.071504,-6.766151 -4.073581,-11.092985 -5.7e-5,-0.119529 9.81e-4,-0.238808 0.0031,-0.357826 0,0 0,-10e-7 0,-10e-7 0.09604,-5.376529 2.17416,-10.250946 5.463181,-13.920177 1.800726,-2.00889 3.959589,-3.650774 6.3469327,-4.815085 1.9562681,-0.954075 4.170026,-1.495322 6.539166,-1.582754 m -14.6778127,6.49564 c 0.280066,-0.302181 0.568844,-0.594841 0.86598,-0.877511 3.684349,-3.504983 8.6840012,-5.497579 14.2827194,-4.98779 2.32981899,0.212141 4.5894808,0.842035 6.7269885,1.830487 3.0158997,1.394648 5.6100864,3.027309 7.7234501,4.948319 3.357551,3.051955 5.435915,6.783072 5.855702,11.17414 0.03074,0.321513 0.05002,0.65072 0.05762,0.987184 0.03269,1.448361 -0.188708,2.864549 -0.604161,4.251766 M 15.039629,60.125504 c 1.773361,2.888731 2.747416,6.333929 2.654909,10.032133 -0.107305,4.2898 -1.866257,7.654658 -4.385762,11.014039 -0.179515,0.239357 -0.362932,0.478736 -0.549925,0.718454 -2.482859,3.182928 -5.1837087,6.267526 -7.6913286,10.344594 -3.2336045,-0.06788 -5.73654149,-0.149046 -6.3858565,-0.170008 -0.4314871,-0.01393 -0.6373008,-0.02158 -1.0687879,-0.03551 -0.00151,-5.2e-5 8.72e-5,-1.03e-4 -0.00142,-1.55e-4 -0.010636,-3.63e-4 -0.1616409,-4e-4 -2.6064936,-0.09499 -2e-7,0 -3e-7,0 -5e-7,-10e-7 -0.6357797,-0.0246 -1.4626005,-0.05133 -2.4588945,-0.06992 M 17.064163,76.25513 c -0.66718,1.823437 -1.641546,3.500794 -2.798933,5.149229 -2.303348,3.2806 -5.3463743,6.458233 -8.1563671,10.478488 -1.4113705,-0.111818 -2.6429712,-0.21923 -3.5610274,-0.301912 -3e-7,0 -5e-7,0 -7e-7,0 -3.8803009,-0.349471 -4.1187261,-0.245921 -4.1315632,-0.246334 -0.00156,-5.1e-5 -1.69e-5,-1.01e-4 -0.00158,-1.51e-4 -0.00799,-2.57e-4 -0.096866,-0.0087 -1.1079353,-0.02863 -0.9526432,-0.01879 -3.0015695,-0.05101 -6.6736337,0.0557 -2.2662653,-3.422895 -4.8950663,-6.285863 -7.0532623,-8.965195 -0.497052,-0.617074 -0.970213,-1.226485 -1.414178,-1.833093 -2.404547,-3.285435 -4.000691,-6.552233 -3.885888,-10.653234 0.03353,-1.197764 0.186175,-2.362999 0.444445,-3.48373 m 10.085182,24.391048 c -2.521203,-3.869302 -5.119233,-7.028754 -7.092187,-10.180845 -1.972469,-3.151315 -3.349945,-6.345437 -3.281932,-10.257895 0.0061,-0.349677 0.02008,-0.704 0.04249,-1.063823 0.35055,-5.628841 2.187154,-10.394294 5.372907,-13.852648 1.410249,-1.530922 3.072773,-2.786126 4.956748,-3.71069 2.3419244,-1.149304 5.1834171,-1.82353 8.3166095,-1.860825 2.97869721,-0.03546 5.9123619,0.507694 8.6038844,1.533431 m -24.1726429,7.525624 c 0.640191,-0.887459 1.347082,-1.722109 2.11312,-2.496338 3.593577,-3.631997 8.4736113,-5.922029 13.8690573,-6.119764 1.54044099,-0.05645 3.03852034,0.0605 4.4760926,0.330027 3.5918354,0.673421 6.8312823,2.472652 9.3688501,4.957026 2.864441,2.804397 4.8459,6.492691 5.459662,10.445412 0.147926,0.952663 0.224217,1.948705 0.222487,2.980059 -0.0046,2.736817 -0.664167,5.14875 -1.743146,7.48356 m -32.889257,5.117469 -3.89936,-7.034511 M 5.5143557,51.280914 11.572857,55.126222"
                           sodipodi:nodetypes="sccsss"
                           inkscape:original-d="m 17.725415,69.892189 c 0,8.563565 -6.456569,13.295313 -12.0635587,22.168433 -15.3766481,0 0,0 -15.3766481,0 C -15.189489,83.187502 -21.77835,78.457327 -21.77835,69.892189 c 0,-10.908663 8.843219,-19.751883 19.7518822,-19.751883 10.9086637,0 19.7518828,8.843219 19.7518828,19.751883 z" /><path
                           style="fill:none;stroke:#000000;stroke-width:0.31612306;stroke-linecap:round;stroke-linejoin:round;stroke-dasharray:none"
                           d="m -8.318537,95.595195 c 2.8472752,-0.03435 5.6941261,-0.1094 8.53979733,-0.237263 m -3.69619173,0.668561 c 0.6102355,-0.0045 1.2229127,-0.0083 1.8377974,-0.01166 m 0.318779,-1.430161 c 1.51363173,0.0437 3.0155093,0.08338 4.5078494,0.124816 m -8.2323766,0.384264 h 7.4570313 m -9.6968181,0 h 9.5078125"
                           id="path4"
                           inkscape:original-d="M -8.5749057,95.093753 H 4.6542617" /><path
                           style="fill:none;stroke:#000000;stroke-width:0.31612306;stroke-linecap:round;stroke-linejoin:round;stroke-dasharray:none"
                           d="m -5.9819683,97.763013 c 2.2919471,-0.0024 4.5882598,0.0096 6.88252327,0.03407 m -6.83073047,0.476671 c 2.3822268,-0.04859 4.7552931,-0.0747 7.1273697,-0.08868 m -2.9800668,0.09058 c 0.6999955,0.0094 1.40244965,0.01727 2.10686772,0.02361 M -7.8005728,97.739586 h 8.47656246 m -2.95043916,0 h 7.65625"
                           id="path5"
                           inkscape:original-d="M -8.5749058,97.739586 H 4.6542616" /><path
                           style="fill:none;stroke:#000000;stroke-width:0.31612306;stroke-linecap:round;stroke-linejoin:round;stroke-dasharray:none"
                           d="m -7.1865271,100.99962 c 3.5520093,0.0483 7.14454406,-0.0183 10.7780684,-0.17401 M -8.5429244,99.57426 c 2.8263615,-0.06363 5.6998932,-0.05632 8.60131361,-0.0036 m -6.48172071,1.516625 c 3.1873336,0.0981 6.42881627,0.12779 9.7085014,0.13646 m -8.3597498,-0.83833 h 7.46875 m -2.95694961,0 H 6.460658"
                           id="path6"
                           inkscape:original-d="M -8.5749058,100.38542 H 4.6542616" /><path
                           style="fill:none;stroke:#000000;stroke-width:0.31612306;stroke-linecap:round;stroke-linejoin:round;stroke-dasharray:none"
                           d="m -7.4552023,103.03132 c 3.8722928,0.0226 7.70817866,0.0346 11.5345059,0.0526 m -12.2719418,-0.0214 c 3.6104707,-0.002 7.1203385,0.0455 10.5652114,0.13681 m -4.5217075,-0.87906 c 1.18815857,-0.009 2.38156831,-0.0151 3.5789228,-0.0184 m -11.2273097,0.72939 h 9.21484378 m -5.59057598,0 h 9.0976563"
                           id="path7"
                           inkscape:original-d="M -8.5749058,103.03126 H 4.6542616" /><path
                           style="fill:none;stroke:#000000;stroke-width:0.31612306;stroke-linecap:round;stroke-linejoin:round;stroke-dasharray:none"
                           d="m -6.6626404,83.567578 c -0.2309989,-1.280224 -0.4747369,-2.555717 -0.7286184,-3.825096 m 0.5758787,10.517617 c -0.6490693,-2.945784 -1.2514092,-5.921056 -1.8213627,-8.907295 m 1.2884571,3.749708 c -0.59109,-2.545242 -1.1364174,-5.038249 -1.6558434,-7.501565 m 2.7475828,10.641738 -1.6890951,-8.043308 m 1.4387892,6.851375 -1.8504583,-8.811704"
                           id="path9"
                           inkscape:original-d="M -5.9290724,89.802084 -8.7071973,76.572921" /><path
                           style="fill:none;stroke:#000000;stroke-width:0.31612306;stroke-linecap:round;stroke-linejoin:round;stroke-dasharray:none"
                           d="m 2.9196355,88.428221 c 0.6775502,-3.098149 1.233216,-6.202986 1.6921739,-9.3208 M 2.3385097,88.574903 C 2.7114703,86.938369 3.0706458,85.296767 3.4222089,83.651607 M 1.5531608,88.89724 C 2.3494094,84.944934 3.2174324,81.038408 4.1514747,77.207323 M 2.2429229,88.629609 3.8823316,80.432568 m -0.4347087,2.173543 1.4417604,-7.2088"
                           id="path10"
                           inkscape:original-d="M 2.0084279,89.802084 4.6542616,76.572919" /><path
                           id="path14"
                           style="fill:none;stroke:#000000;stroke-width:0.31612306;stroke-linecap:round;stroke-linejoin:round;stroke-dasharray:none"
                           d="m 4.9181356,98.836082 c -0.00627,0.20386 -0.012202,0.407037 -0.017956,0.610297 -0.043587,1.539871 -0.075795,3.109831 -0.168499,4.230831 -0.047373,0.57284 -0.1115871,1.05137 -0.2040355,1.39534 -0.092353,0.34361 -0.213172,0.55279 -0.3703652,0.58372 -1.6017344,0.31515 -4.29505326,0.35208 -6.8102752,0.23348 -1.2540804,-0.0591 -2.4505469,-0.15541 -3.4484317,-0.2671 -0.9950302,-0.11136 -1.7883905,-0.23765 -2.2221785,-0.35489 -0.1488108,-0.0402 -0.2559671,-0.25909 -0.3254902,-0.62305 -0.069382,-0.36322 -0.100799,-0.86636 -0.1039535,-1.46809 -0.00149,-0.28419 0.00332,-0.58988 0.013334,-0.91275 0.032354,-1.04341 0.083733,-2.25109 0.1086837,-3.46167 0.033373,-1.619263 0.021507,-3.142057 -0.05548,-4.436933 -0.037477,-0.630341 -0.089341,-1.17976 -0.1546686,-1.604715 -0.065267,-0.424559 -0.1443369,-0.72786 -0.2381405,-0.863437 4.097987,0.0056 7.9141484,0.06955 11.8172106,0.0057 0.6719195,-0.01099 1.3619302,-0.01768 2.0677654,-0.02037 -0.095155,0.134273 -0.1749213,0.436348 -0.2377972,0.860295 -0.063173,0.425953 -0.108988,0.972443 -0.1369972,1.605704 -0.058192,1.315676 -0.034329,2.809168 0.015997,4.44861 0.048342,1.574804 0.1172206,3.172844 0.093862,4.358314 -0.011807,0.59921 -0.046859,1.1014 -0.1182763,1.4652 -0.071535,0.3644 -0.178833,0.58387 -0.3280894,0.62464 -1.4668551,0.4007 -4.09790526,0.65059 -6.5496641,0.77504 -5.46e-5,0 -0.09736,0.005 -0.097414,0.005 M 5.8881092,95.164218 c -0.039165,1.249286 -0.039054,2.745789 -0.052916,4.263905 -0.014118,1.546037 -0.042798,3.071127 -0.1479379,4.221817 -0.052634,0.57604 -0.1244802,1.05936 -0.2233702,1.40702 -0.098886,0.34763 -0.2247862,0.55943 -0.3852046,0.5924 -1.6171014,0.33235 -4.44737201,0.43125 -7.1074962,0.39766 -1.3310445,-0.0168 -2.6197765,-0.0667 -3.695925,-0.13703 -0.7072249,-0.0462 -1.3219914,-0.10111 -1.7950537,-0.16102 -0.2465037,-0.0312 -0.4546066,-0.064 -0.6171474,-0.0976 -0.160714,-0.0332 -0.2872532,-0.24522 -0.3873803,-0.59377 -0.1001237,-0.34855 -0.1738481,-0.83362 -0.2290877,-1.41298 -0.1101256,-1.155 -0.1476182,-2.69868 -0.1711648,-4.267382 -0.023773,-1.583763 -0.033202,-3.166972 -0.082227,-4.466221 -0.02428,-0.643462 -0.058055,-1.20657 -0.1074254,-1.644072 -0.04937,-0.437495 -0.1142197,-0.749156 -0.2012002,-0.890652 3.0968535,-0.09871 6.1757618,-0.231568 9.23925573,-0.400086 C 1.8428862,91.870682 3.7847051,91.817472 5.73851,91.796438 c -0.087242,0.133744 -0.1511302,0.432535 -0.1980122,0.854273 -0.046939,0.422248 -0.07679,0.967121 -0.096273,1.595467 -0.022163,0.714813 -0.030712,1.529399 -0.03663,2.393905 m 0.5433572,-3.869306 c -0.033364,0.341313 -0.05988,0.734612 -0.080968,1.167236 -0.062404,1.280233 -0.073342,2.781941 -0.089205,4.364171 -0.015475,1.543543 -0.035626,3.080796 -0.1310072,4.233236 -0.047902,0.57877 -0.1149162,1.06439 -0.2101128,1.41414 -0.095207,0.3498 -0.218419,0.56262 -0.3772675,0.59662 -1.594095,0.34119 -4.39460417,0.4621 -7.0131208,0.45044 -1.3140301,-0.006 -2.5864126,-0.0451 -3.6532324,-0.10685 -0.1771567,-0.0103 -0.3485205,-0.0211 -0.5133141,-0.0326 0,0 -2e-7,0 -2e-7,0 -0.8266144,-0.0574 -1.4891853,-0.12533 -1.8836033,-0.20101 -0.1602441,-0.0307 -0.286174,-0.23974 -0.3857202,-0.5813 -0.09959,-0.3417 -0.1730325,-0.81666 -0.2291204,-1.38071 -0.1111347,-1.11763 -0.1566494,-2.62318 -0.1938801,-4.106689 -0.037983,-1.513469 -0.066956,-2.982014 -0.1352815,-4.191465 -0.033657,-0.595767 -0.076303,-1.113662 -0.1327802,-1.514426 -0.056398,-0.400201 -0.1268373,-0.685351 -0.2163815,-0.81183 2.6282387,0.163904 5.2330355,0.373067 7.8249015,0.634602 2.28679501,0.230751 4.6659457,0.302937 7.1041515,0.282341 -0.083294,0.134208 -0.1394295,0.432915 -0.1738367,0.849923 -0.034458,0.417621 -0.046964,0.951255 -0.043634,1.558955 0.00272,0.496518 0.01593,1.036585 0.035624,1.605966 m -9.8438995,8.755553 -7.817195,-1.15694 m 3.5130947,3.43733 -1.0673499,-9.10563"
                           sodipodi:nodetypes="csscc"
                           inkscape:original-d="m 5.6618562,92.060622 c -0.685305,1.084503 0.224003,12.794058 -1.061797,13.057168 -3.2424036,0.66349 -11.3547036,0.38846 -13.2530536,0 -1.2858001,-0.26311 -0.388164,-11.965377 -1.061797,-13.057168 z" /></g></g></g></g></g><path
                 id="path21"
                 style="fill:#ffffff;stroke:none;stroke-width:0.31612306;stroke-linecap:round;stroke-linejoin:round;stroke-dasharray:none"
                 d="m -2.9476646,53.444095 c 6.2465345,0.268391 12.1770037,3.996555 15.1658306,9.481549 2.507326,4.556687 1.61077,10.350673 -0.674831,15.134619 -0.212992,0.459939 0.0717,-0.822114 0.03516,-1.142136 0.449561,-7.086696 -1.452955,-14.245928 -7.279488,-18.296785 -4.51060622,-3.244465 -10.3425854,-2.950987 -15.807219,-1.985304 2.6688908,-1.219149 5.6323506,-3.342332 8.5605474,-3.191943 z"
                 sodipodi:nodetypes="ccccccc" /></g><path
               id="path11"
               style="color:#000000;fill:#000000;stroke-linecap:round;stroke-linejoin:round;-inkscape-stroke:none"
               d="m -17.869158,54.497243 c 0.890032,0.645504 1.771791,1.296694 2.647867,1.95136 0.04163,-0.07974 0.08049,-0.161092 0.123019,-0.240179 -2.584249,-1.94158 -5.216128,-3.854486 -7.82909,-5.795538 -0.041,-0.03046 -0.082,-0.06092 -0.122988,-0.09139 -0.0286,-0.02114 -0.06443,-0.03011 -0.09963,-0.02493 -2.96e-4,-4.3e-5 -5.89e-4,-8.8e-5 -8.8e-4,-1.34e-4 -0.03521,0.0051 -0.06694,0.02375 -0.08823,0.05204 -0.04481,0.05823 -0.03375,0.141268 0.0241,0.185194 1.041889,0.787266 2.087421,1.572253 3.133491,2.354685 m 0.124202,-0.354289 c 1.606276,1.174258 3.179011,2.357276 4.733096,3.541479 0.04025,-0.07973 0.07772,-0.161103 0.118869,-0.240226 -1.912101,-1.410417 -3.849412,-2.819655 -5.787191,-4.240298 -0.21668,-0.158855 -0.432501,-0.317735 -0.647535,-0.476655 M 21.963545,56.0764 c 0.0076,0.01426 0.01515,0.02849 0.02281,0.04268 2.629846,-1.907048 5.206051,-3.848608 7.805125,-5.772728 0.05925,-0.04322 0.0718,-0.126123 0.02827,-0.184507 -0.02125,-0.02771 -0.05269,-0.04575 -0.08738,-0.05012 1.52e-4,1.7e-4 3.07e-4,3.43e-4 4.64e-4,5.17e-4 -0.03419,-0.0052 -0.06911,0.0034 -0.09717,0.02379 -0.789716,0.601291 -1.576889,1.20449 -2.359299,1.811103 -0.532648,0.41297 -1.068677,0.823002 -1.607475,1.230626 m 0.286098,-0.113322 c -1.260163,0.947888 -2.515428,1.894302 -3.773191,2.845729 0.0418,0.0797 0.08048,0.161243 0.121295,0.241571 2.186042,-1.624469 4.362702,-3.231651 6.487479,-4.784264 0.350311,-0.255979 0.704653,-0.516914 1.062524,-0.782203 0.05766,-0.0421 0.06891,-0.124144 0.02393,-0.181623 -0.02194,-0.02727 -0.05404,-0.04493 -0.0894,-0.04892 -4.76e-4,5.28e-4 -9.34e-4,10e-4 -0.0014,0.0015 m 1.296308,19.542757 c 0.765354,8.6e-5 1.535207,-4.21e-4 2.308909,-0.0015 0.07281,1.85e-4 0.132256,-0.05828 0.133318,-0.131051 5.02e-4,-0.07359 -0.05892,-0.133315 -0.13211,-0.133153 -3.489383,-0.006 -6.901949,-0.02436 -10.298352,-0.05563 -0.147993,-0.0014 -0.29629,-0.0026 -0.444874,-0.0037 -0.01838,0.08757 -0.03778,0.174739 -0.05771,0.261744 1.981028,-0.0119 3.917541,-0.003 5.84294,0.01683 m -0.06827,0.327657 c 1.757912,-0.01147 3.519669,-0.01265 5.291965,-0.0092 0.0739,4.33e-4 0.134251,-0.05781 0.136372,-0.130311 0.0016,-0.07331 -0.05696,-0.132796 -0.129107,-0.132333 -2.486567,0.006 -4.949762,0.02084 -7.369054,0.02712 -0.926295,0.0024 -1.872643,0.0013 -2.832692,-0.003 m -41.098017,0.04489 c -3.05146,0.05009 -6.053627,0.06584 -9.035747,0.111063 -0.07223,6.16e-4 -0.130801,0.06102 -0.129251,0.135421 0.0021,0.07359 0.06245,0.132655 0.13639,0.133426 1.263122,0.01317 2.529378,0.03177 3.796762,0.06016 0.707927,0.01586 1.410947,0.02718 2.110081,0.03525 m -0.02183,-0.195235 c 1.724742,0.01554 3.42299,0.0076 5.104208,-0.01535 -0.02286,-0.08366 -0.04867,-0.16612 -0.07041,-0.250433 -0.0017,-0.0057 -0.0032,-0.01152 -0.0049,-0.01721 -4.54e-4,-4.02e-4 -9.14e-4,-8.11e-4 -0.0014,-0.0012 -2.59476,-0.02506 -5.226128,-0.08233 -7.861911,-0.142931 -0.03897,-8.95e-4 -0.07792,-0.0018 -0.116846,-0.0026 m 7.808072,13.730586 c -2.52921,1.933488 -5.08537,3.921292 -7.609636,5.979743 -0.0575,0.04711 -0.06826,0.132855 -0.0231,0.194324 0.04459,0.06243 0.12903,0.07742 0.188886,0.03644 0.868346,-0.593527 1.740505,-1.179157 2.618642,-1.756288 2.686397,-1.765561 5.27524,-3.88021 7.892411,-6.031203 m 0.05678,0.226028 c 0.533279,-0.398481 1.068623,-0.798779 1.605764,-1.200575 -0.05278,-0.06897 -0.109209,-0.14173 -0.161622,-0.210513 2.8e-5,3.1e-5 6e-5,5.9e-5 9.7e-5,8.2e-5 -2.892195,2.174622 -5.733538,4.307372 -8.565899,6.448244 -1.080867,0.816986 -2.182254,1.641058 -3.296779,2.468908 -0.05895,0.044 -0.07096,0.127086 -0.02734,0.185394 0.04303,0.05925 0.126124,0.07154 0.184329,0.02732 1.243212,-0.942935 2.470395,-1.881415 3.692401,-2.820302 m 43.210753,-1.23907 c 1.891283,1.47774 3.811157,2.945942 5.749522,4.421925 0.05928,0.04487 0.143298,0.03401 0.188603,-0.02369 0.0454,-0.05763 0.035,-0.140234 -0.02214,-0.183844 -1.461597,-1.12597 -2.912212,-2.246553 -4.356696,-3.353431 -1.383104,-1.059843 -2.797568,-2.142361 -4.2217,-3.231488 m 0.0225,-0.256083 c -1.115642,-0.832355 -2.22935,-1.672965 -3.343699,-2.517394 -0.04429,0.05767 -0.117806,0.152179 -0.162093,0.209847 2.31176,1.787645 4.61997,3.559651 6.900717,5.357229 1.664175,1.311625 3.366372,2.629003 5.083532,3.96041 0.05887,0.04537 0.142532,0.03494 0.187423,-0.02224 0.04499,-0.05711 0.03424,-0.139273 -0.02333,-0.182349 -0.530245,-0.400582 -1.059144,-0.799708 -1.587426,-1.197116"
               sodipodi:nodetypes="cccccccccccccccccccccccccsccccccccccccccccc"
               inkscape:path-effect="#path-effect38"
               inkscape:original-d="m -23.211739,49.982809 c -0.0349,0.0051 -0.06634,0.02385 -0.08733,0.05219 -0.04419,0.05834 -0.03261,0.141471 0.02584,0.185518 l 7.908562,5.930905 c 0.04158,-0.07958 0.08043,-0.160803 0.12299,-0.239779 l -7.871355,-5.904033 c -0.02828,-0.0211 -0.06381,-0.03003 -0.0987,-0.0248 z m 52.953881,0.0016 c -0.03435,-0.0054 -0.06943,0.003 -0.09767,0.02325 l -7.724078,5.793446 c 0.04287,0.07843 0.08264,0.158687 0.124541,0.237711 l 7.757667,-5.81825 c 0.05895,-0.04357 0.07124,-0.126771 0.02739,-0.185518 -0.0214,-0.02788 -0.053,-0.0461 -0.08785,-0.05064 z m -7.016627,19.841685 c -0.02078,0.08822 -0.04247,0.175986 -0.06459,0.26355 H 33.69126 c 0.07266,2.89e-4 0.131958,-0.05808 0.132809,-0.130741 2.88e-4,-0.07347 -0.05934,-0.133097 -0.132809,-0.132809 z m -38.681365,0.104387 -10.839133,0.02842 c -0.07347,-2.87e-4 -0.133096,0.05934 -0.132808,0.132808 8.5e-4,0.07266 0.06014,0.130931 0.132808,0.130742 l 10.90993,-0.02842 c -0.02183,-0.08273 -0.04657,-0.164226 -0.06718,-0.24753 -0.0013,-0.0053 -0.0023,-0.01073 -0.0036,-0.01602 z m 4.686536,10.762135 -12.00392,9.002553 c -0.05845,0.04405 -0.07002,0.127177 -0.02584,0.185518 0.0436,0.05928 0.127199,0.07159 0.186035,0.02739 l 12.005471,-9.00462 c -0.05279,-0.0691 -0.109264,-0.141976 -0.161748,-0.21084 z m 29.129492,0.273368 c -0.05243,0.06866 -0.107976,0.140374 -0.160713,0.20929 l 12.07575,9.246465 c 0.05821,0.0443 0.141314,0.03296 0.185519,-0.02532 0.0443,-0.05821 0.03296,-0.141313 -0.02532,-0.185518 z" /><g
               id="g35"
               transform="matrix(0.80425836,0,0,0.80425836,4.9989209,11.815387)"><g
                 id="g34"><g
                   id="g33"><g
                     id="g32"><g
                       id="g31"
                       style="stroke-width:0.264583;stroke-linecap:round;stroke-linejoin:round;stroke-dasharray:none" /></g></g></g></g></g></g></g></g></g></svg>
