<?xml version="1.0" encoding="UTF-8" standalone="no"?>
<!-- Created with Inkscape (http://www.inkscape.org/) -->

<svg
   width="240"
   height="220"
   viewBox="0 0 63.500009 58.208342"
   version="1.1"
   id="svg1"
   inkscape:version="1.3.2 (091e20ef0f, 2023-11-25, custom)"
   sodipodi:docname="projektplanung.svg"
   xml:space="preserve"
   xmlns:inkscape="http://www.inkscape.org/namespaces/inkscape"
   xmlns:sodipodi="http://sodipodi.sourceforge.net/DTD/sodipodi-0.dtd"
   xmlns="http://www.w3.org/2000/svg"
   xmlns:svg="http://www.w3.org/2000/svg"><sodipodi:namedview
     id="namedview1"
     pagecolor="#ffffff"
     bordercolor="#000000"
     borderopacity="0.25"
     inkscape:showpageshadow="2"
     inkscape:pageopacity="0.0"
     inkscape:pagecheckerboard="0"
     inkscape:deskcolor="#d1d1d1"
     inkscape:document-units="px"
     inkscape:zoom="5.6568544"
     inkscape:cx="125.1579"
     inkscape:cy="0.17677669"
     inkscape:window-width="1440"
     inkscape:window-height="831"
     inkscape:window-x="0"
     inkscape:window-y="0"
     inkscape:window-maximized="1"
     inkscape:current-layer="g20"
     showgrid="true"><inkscape:grid
       id="grid10"
       units="px"
       originx="0"
       originy="0"
       spacingx="1.3229168"
       spacingy="1.3229168"
       empcolor="#0099e5"
       empopacity="0.30196078"
       color="#0099e5"
       opacity="0.14901961"
       empspacing="5"
       dotted="false"
       gridanglex="30"
       gridanglez="30"
       visible="true" /></sodipodi:namedview><defs
     id="defs1"><inkscape:path-effect
       effect="sketch"
       id="path-effect20"
       is_visible="true"
       lpeversion="1"
       nbiter_approxstrokes="3"
       parallel_offset="0.2;1"
       strokelength="70"
       strokelength_rdm="0.4;1"
       strokeoverlap="0.5"
       strokeoverlap_rdm="0.7;1"
       ends_tolerance="0.1;1"
       tremble_size="0.4;1"
       tremble_frequency="1.5"
       nbtangents="2"
       tgt_places_rdmness="0.6;1"
       tgtlength="5"
       tgtlength_rdm="0.3;1"
       tgtscale="10" /><inkscape:path-effect
       effect="sketch"
       id="path-effect19"
       is_visible="true"
       lpeversion="1"
       nbiter_approxstrokes="3"
       parallel_offset="0.2;1"
       strokelength="70"
       strokelength_rdm="0.3;1"
       strokeoverlap="0.5"
       strokeoverlap_rdm="0.5;1"
       ends_tolerance="0.1;1"
       tremble_size="0.8;1"
       tremble_frequency="3"
       nbtangents="2"
       tgt_places_rdmness="0.5;1"
       tgtlength="5"
       tgtlength_rdm="0.3;1"
       tgtscale="10" /><inkscape:path-effect
       effect="sketch"
       id="path-effect25"
       is_visible="true"
       lpeversion="1"
       nbiter_approxstrokes="3"
       parallel_offset="0.2;1"
       strokelength="70"
       strokelength_rdm="0.3;1"
       strokeoverlap="0.5"
       strokeoverlap_rdm="0.5;1"
       ends_tolerance="0.1;1"
       tremble_size="0.8;1"
       tremble_frequency="3"
       nbtangents="2"
       tgt_places_rdmness="0.5;1"
       tgtlength="5"
       tgtlength_rdm="0.3;1"
       tgtscale="10" /><inkscape:path-effect
       effect="sketch"
       id="path-effect13"
       is_visible="true"
       lpeversion="1"
       nbiter_approxstrokes="3"
       parallel_offset="0.2;1"
       strokelength="70"
       strokelength_rdm="0.3;1"
       strokeoverlap="0.5"
       strokeoverlap_rdm="0.5;1"
       ends_tolerance="0.1;1"
       tremble_size="0.8;1"
       tremble_frequency="3"
       nbtangents="3"
       tgt_places_rdmness="0.5;1"
       tgtlength="5"
       tgtlength_rdm="0.3;1"
       tgtscale="10" /><inkscape:path-effect
       effect="sketch"
       id="path-effect12"
       is_visible="true"
       lpeversion="1"
       nbiter_approxstrokes="3"
       parallel_offset="0.2;1"
       strokelength="70"
       strokelength_rdm="0.3;1"
       strokeoverlap="0.5"
       strokeoverlap_rdm="0.5;1"
       ends_tolerance="0.1;1"
       tremble_size="0.8;1"
       tremble_frequency="3"
       nbtangents="2"
       tgt_places_rdmness="0.5;1"
       tgtlength="10"
       tgtlength_rdm="0.3;1"
       tgtscale="10" /><inkscape:path-effect
       effect="sketch"
       id="path-effect18"
       is_visible="true"
       lpeversion="1"
       nbiter_approxstrokes="3"
       parallel_offset="0.2;1"
       strokelength="70"
       strokelength_rdm="0.3;1"
       strokeoverlap="0.5"
       strokeoverlap_rdm="0.5;1"
       ends_tolerance="0.1;1"
       tremble_size="0.8;1"
       tremble_frequency="3"
       nbtangents="2"
       tgt_places_rdmness="0.5;1"
       tgtlength="10"
       tgtlength_rdm="0.3;1"
       tgtscale="10" /><inkscape:path-effect
       effect="sketch"
       id="path-effect10"
       is_visible="true"
       lpeversion="1"
       nbiter_approxstrokes="3"
       parallel_offset="0.2;1"
       strokelength="70"
       strokelength_rdm="0.3;1"
       strokeoverlap="0.5"
       strokeoverlap_rdm="0.5;1"
       ends_tolerance="0.1;1"
       tremble_size="0.8;1"
       tremble_frequency="3"
       nbtangents="2"
       tgt_places_rdmness="0.5;1"
       tgtlength="10"
       tgtlength_rdm="0.3;1"
       tgtscale="10" /><inkscape:path-effect
       effect="sketch"
       id="path-effect9"
       is_visible="true"
       lpeversion="1"
       nbiter_approxstrokes="3"
       parallel_offset="0.2;1"
       strokelength="70"
       strokelength_rdm="0.3;1"
       strokeoverlap="0.5"
       strokeoverlap_rdm="0.5;1"
       ends_tolerance="0.1;1"
       tremble_size="0.8;1"
       tremble_frequency="3"
       nbtangents="2"
       tgt_places_rdmness="0.5;1"
       tgtlength="10"
       tgtlength_rdm="0.3;1"
       tgtscale="10" /><inkscape:path-effect
       effect="sketch"
       id="path-effect8"
       is_visible="true"
       lpeversion="1"
       nbiter_approxstrokes="3"
       parallel_offset="0.2;1"
       strokelength="70"
       strokelength_rdm="0.3;1"
       strokeoverlap="0.5"
       strokeoverlap_rdm="0.5;1"
       ends_tolerance="0.1;1"
       tremble_size="0.8;1"
       tremble_frequency="3"
       nbtangents="2"
       tgt_places_rdmness="0.5;1"
       tgtlength="10"
       tgtlength_rdm="0.3;1"
       tgtscale="10" /><inkscape:path-effect
       effect="sketch"
       id="path-effect3"
       is_visible="true"
       lpeversion="1"
       nbiter_approxstrokes="3"
       parallel_offset="0.2;1"
       strokelength="70"
       strokelength_rdm="0.3;1"
       strokeoverlap="0.5"
       strokeoverlap_rdm="0.5;1"
       ends_tolerance="0.1;1"
       tremble_size="0.8;1"
       tremble_frequency="3"
       nbtangents="2"
       tgt_places_rdmness="0.5;1"
       tgtlength="10"
       tgtlength_rdm="0.3;1"
       tgtscale="10" /><inkscape:path-effect
       effect="sketch"
       id="path-effect2"
       is_visible="true"
       lpeversion="1"
       nbiter_approxstrokes="4"
       parallel_offset="0.7;1"
       strokelength="50"
       strokelength_rdm="0.3;1"
       strokeoverlap="0.3"
       strokeoverlap_rdm="0.3;1"
       ends_tolerance="0.1;1"
       tremble_size="0.8;1"
       tremble_frequency="3"
       nbtangents="0"
       tgt_places_rdmness="1;1"
       tgtlength="100"
       tgtlength_rdm="0.3;1"
       tgtscale="10" /><inkscape:path-effect
       effect="sketch"
       id="path-effect1"
       is_visible="true"
       lpeversion="1"
       nbiter_approxstrokes="3"
       parallel_offset="0.5;1"
       strokelength="50"
       strokelength_rdm="0.3;1"
       strokeoverlap="0.3"
       strokeoverlap_rdm="0.3;1"
       ends_tolerance="0.1;1"
       tremble_size="1;1"
       tremble_frequency="3"
       nbtangents="0"
       tgt_places_rdmness="1;1"
       tgtlength="100"
       tgtlength_rdm="0.3;1"
       tgtscale="10" /><inkscape:path-effect
       effect="sketch"
       id="path-effect11"
       is_visible="true"
       lpeversion="1"
       nbiter_approxstrokes="3"
       parallel_offset="0.5;1"
       strokelength="50"
       strokelength_rdm="0.3;1"
       strokeoverlap="0.3"
       strokeoverlap_rdm="0.3;1"
       ends_tolerance="0.1;1"
       tremble_size="1;1"
       tremble_frequency="3"
       nbtangents="0"
       tgt_places_rdmness="1;1"
       tgtlength="100"
       tgtlength_rdm="0.3;1"
       tgtscale="10" /><inkscape:path-effect
       effect="sketch"
       id="path-effect7"
       is_visible="true"
       lpeversion="1"
       nbiter_approxstrokes="3"
       parallel_offset="1;1"
       strokelength="50"
       strokelength_rdm="0.3;1"
       strokeoverlap="0.3"
       strokeoverlap_rdm="0.3;1"
       ends_tolerance="0.1;1"
       tremble_size="1.2;1"
       tremble_frequency="3"
       nbtangents="0"
       tgt_places_rdmness="1;1"
       tgtlength="100"
       tgtlength_rdm="0.3;1"
       tgtscale="10" /><rect
       x="223.77509"
       y="306.53192"
       width="415.43015"
       height="124.34706"
       id="rect6" /><inkscape:path-effect
       effect="sketch"
       id="path-effect6"
       is_visible="true"
       lpeversion="1"
       nbiter_approxstrokes="3"
       parallel_offset="1;1"
       strokelength="50"
       strokelength_rdm="0.3;1"
       strokeoverlap="0.3"
       strokeoverlap_rdm="0.3;1"
       ends_tolerance="0.1;1"
       tremble_size="1.2;1"
       tremble_frequency="3"
       nbtangents="0"
       tgt_places_rdmness="1;1"
       tgtlength="100"
       tgtlength_rdm="0.3;1"
       tgtscale="10" /><inkscape:path-effect
       effect="sketch"
       id="path-effect5"
       is_visible="true"
       lpeversion="1"
       nbiter_approxstrokes="3"
       parallel_offset="1;1"
       strokelength="50"
       strokelength_rdm="0.3;1"
       strokeoverlap="0.3"
       strokeoverlap_rdm="0.3;1"
       ends_tolerance="0.1;1"
       tremble_size="1.2;1"
       tremble_frequency="3"
       nbtangents="0"
       tgt_places_rdmness="1;1"
       tgtlength="100"
       tgtlength_rdm="0.3;1"
       tgtscale="10" /></defs><g
     inkscape:label="Layer 1"
     inkscape:groupmode="layer"
     id="layer1"><g
       id="g6"><g
         id="g9"
         transform="translate(28.418657,-43.5)"><g
           id="g20"
           transform="matrix(1.081724,0,0,1.0765666,2.0351379,-4.2786684)"><path
             id="path19"
             style="fill:#cccccc;stroke:none;stroke-width:0.245179;stroke-linecap:round;stroke-linejoin:round;stroke-dasharray:none"
             d="m 12.591765,44.822917 v 9.166331 h 3.968751 v -1.322917 c 0,0 -1.914017,0.632239 -2.503879,-0.02342 -0.628896,-0.699047 -0.141955,-7.819994 -0.141955,-7.819994 z"
             sodipodi:nodetypes="ccccscc" /><path
             id="path2"
             style="fill:#cccccc;stroke:none;stroke-width:0.245179;stroke-linecap:round;stroke-linejoin:round;stroke-dasharray:none"
             d="m -13.866572,44.822917 v 9.166331 h 3.9687509 v -1.322917 c 0,0 -1.7667159,0.418575 -2.3565779,-0.237084 -0.628896,-0.699047 -0.289256,-7.60633 -0.289256,-7.60633 z"
             sodipodi:nodetypes="ccccscc" /><path
             id="path17"
             style="fill:#cccccc;stroke:none;stroke-width:0.245179;stroke-linecap:round;stroke-linejoin:round;stroke-dasharray:none"
             d="m -27.09574,48.791667 v 48.759749 h 56.885424 v -2.645834 c 0,0 -52.916674,1.322913 -54.23959,0 -1.32292,-1.322917 0,-46.113915 0,-46.113915 z m 18.5208357,0 v 5.291668 c 0,0 2.1685287,-1.493518 2.6458337,-2.645834 0.3375056,-0.814811 0,-2.645834 0,-2.645834 z m 26.4583373,0 v 5.291668 c 0,0 2.168528,-1.493518 2.645833,-2.645834 0.337506,-0.814811 0,-2.645834 0,-2.645834 z"
             sodipodi:nodetypes="ccccsccccaccccacc" /><rect
             style="fill:#ffaaaa;stroke:none;stroke-width:0.245179;stroke-linecap:round;stroke-linejoin:round;stroke-dasharray:none"
             id="rect15"
             width="46.302086"
             height="33.072918"
             x="-21.804073"
             y="59.280914" /><path
             id="rect16"
             style="fill:#ff8080;stroke:none;stroke-width:0.245179;stroke-linecap:round;stroke-linejoin:round;stroke-dasharray:none"
             d="m -21.804073,59.280915 v 33.072921 h 46.30209 v -2.645833 c 0,0 -42.33334,1.322913 -43.656256,0 -1.32292,-1.322918 0,-30.427088 0,-30.427088 z"
             sodipodi:nodetypes="ccccscc" /><g
             id="g19"
             style="stroke-width:0.245179;stroke-dasharray:none"
             inkscape:path-effect="#path-effect20"><path
               style="fill:none;stroke:#000000;stroke-width:0.245179;stroke-linecap:round;stroke-linejoin:round;stroke-dasharray:none"
               d="m -13.683685,49.844053 c 0.01159,1.524452 0.02055,3.050679 0.0272,4.578409 1.328654,-0.0048 2.655593,-0.0084 3.9810275,-0.01117 0.00582,-3.061723 0.00361,-6.118401 -0.004,-9.172175 -1.3262108,7.23e-4 -2.6534348,0.002 -3.9814588,0.0036 -0.0093,2.420489 -0.02134,4.842216 -0.03472,7.264122 m -0.222531,-1.153413 c -0.0029,0.856325 -0.0053,1.713005 -0.0071,2.570018 1.320095,-0.0027 2.64146,-0.0047 3.9639907,-0.006 -8.916e-4,-3.058326 0.00444,-6.11287 0.014729,-9.164618 -1.3184616,0.0016 -2.6359926,0.0037 -3.9526966,0.0063 0.01435,3.061374 0.03311,6.125116 0.05503,9.190239 1.332407,0.0042 2.665405,0.0086 3.9988918,0.01327 0.024413,-3.044754 0.051433,-6.088555 0.0798,-9.132391 -0.5478653,0.0021 -1.0956853,0.0042 -1.6434703,0.0063 m -2.782629,6.107473 c -0.008,1.07437 -0.01479,2.148632 -0.02047,3.222742 1.315943,-0.0042 2.633551,-0.0087 3.952615,-0.01342 -0.0089,-3.066421 -0.01003,-6.134483 -0.006,-9.205165 -1.321158,-0.0066 -2.641342,-0.01369 -3.960761,-0.02135 0.0081,3.037752 0.02024,6.072462 0.03391,9.103148 1.328835,-0.01072 2.657954,-0.02219 3.987146,-0.0345 0.0145,-3.083867 0.02938,-6.172181 0.0421,-9.26592 -1.204217,-0.01516 -2.408775,-0.03116 -3.613833,-0.04808 m -0.368159,9.307703 h 8.0429687 m -0.6260086,-9.16633 h -7.1757811"
               id="path18"
               sodipodi:nodetypes="ccccc"
               inkscape:original-d="m -13.866573,44.822917 v 9.16633 h 3.9687505 v -9.16633 z" /><path
               style="fill:none;stroke:#000000;stroke-width:0.245179;stroke-linecap:round;stroke-linejoin:round;stroke-dasharray:none"
               d="m -25.934624,48.922975 c 3.61398,0.02064 7.217565,0.03432 10.815306,0.04433 0.0072,2.179564 0.0122,4.357779 0.0161,6.535374 2.208811,0.0042 4.416455,0.0077 6.6239898,0.01132 0.00264,-2.169907 0.00516,-4.339692 0.0086,-6.508625 5.4230185,0.01138 10.851665,0.02804 16.3016017,0.0613 1.207989,0.0074 2.4143608,0.01326 3.6192568,0.01779 0.0086,2.181714 0.01244,4.358995 0.01225,6.532633 2.204664,1.41e-4 4.405216,-0.0035 6.602539,-0.01 -0.0023,-0.673365 -0.0049,-1.347001 -0.0078,-2.020885 m -12.4534,-5.164791 c 1.9611112,0.01337 3.9235759,0.02628 5.886666,0.03939 -0.01456,2.187914 -0.02836,4.37606 -0.04237,6.565287 2.190647,0.01595 4.381077,0.03302 6.570278,0.05209 -0.01544,-2.154703 -0.03207,-4.307463 -0.05086,-6.45743 3.934438,0.04297 7.861669,0.09525 11.775799,0.162021 -0.04205,3.106688 -0.09186,6.221963 -0.15213,9.348186 -0.06,3.112143 -0.0909,6.188789 -0.09957,9.238058 M 29.433379,54.15511 c -0.07205,14.370026 0.10576,28.706016 0.345835,43.008693 -1.163375,-0.0055 -2.326327,-0.01116 -3.488963,-0.01708 -0.480961,-0.0024 -0.96243,-0.0047 -1.444382,-0.0067 m 4.69386,-3.952749 c 0.008,1.604906 0.01647,3.211209 0.0257,4.81871 -13.768038,-0.02957 -27.4807202,0.02941 -40.978195,0.05121 m 7.0354444,-0.563557 c -7.5289594,0.0505 -15.0166084,0.03361 -22.4996374,-0.01662 -0.0067,-6.64181 -0.0098,-13.309583 -0.03454,-19.979905 m 0.02364,17.433497 c 0.107165,-15.529849 -0.03276,-30.730301 -0.110335,-45.976332 0.14835,0.0015 0.296705,0.003 0.445066,0.0045 3.80072,0.03873 7.610977,0.05728 11.427262,0.06259 -0.0013,1.520864 -0.0017,3.039634 -0.0014,4.556746 m -8.491756,-4.917728 c 2.806544,0.01247 5.604669,0.01797 8.396533,0.01767 0.0063,2.173265 0.0087,4.342999 0.0084,6.509767 2.204529,-0.0068 4.406186,-0.01671 6.6060437,-0.02905 -0.00493,-2.185667 -0.011615,-4.373729 -0.019019,-6.563618 6.1953636,-0.04688 12.3848146,-0.108722 18.5923688,-0.172308 0.3974668,-0.0041 0.7949168,-0.008 1.1923488,-0.01165 -0.0033,2.153309 -0.0072,4.31207 -0.01177,6.474978 2.200208,-0.01074 4.399669,-0.01722 6.598176,-0.02079 -5.69e-4,-0.197738 -0.0011,-0.395452 -0.0017,-0.593144 M 6.8178619,49.015054 c 1.4187286,-0.0072 2.838433,-0.01514 4.2590431,-0.02388 -0.0016,2.160133 -0.0011,4.318289 0.0012,6.473802 2.207254,-0.01825 4.416431,-0.03921 6.627273,-0.0636 0.0059,-2.197538 0.01341,-4.398398 0.02229,-6.603247 3.98497,-0.05725 7.974503,-0.127792 11.967086,-0.215707 0.02168,3.529971 0.04588,7.045573 0.07146,10.543746 0.01587,2.170111 0.02484,4.364697 0.02791,6.579439 M 26.726532,48.808808 c 0.979845,-0.0046 1.959149,-0.0086 2.937927,-0.01213 -0.0013,14.520957 -0.119306,29.154022 -0.310717,43.722874 -0.02207,1.679371 -0.03891,3.358019 -0.05131,5.035919 -3.024416,-0.0036 -6.034621,-0.0095 -9.035005,-0.01795 m 9.594092,-9.300954 c -0.01041,3.252789 -0.01412,6.503135 -0.01253,9.752424 -12.304241,0.02791 -24.5319579,0.04059 -36.7589106,0.113986 -2.6588238,0.01596 -5.3237904,0.02133 -7.9932744,0.01749 m 10.2414259,-0.512765 c -7.4526339,0.03046 -14.8983589,0.06484 -22.3336839,0.124364 0.02183,-7.57615 0.05456,-15.125922 0.101955,-22.626502 m -0.589734,10.879554 c 0.01173,-12.450002 0.104287,-24.976695 0.303832,-37.5421 3.132395,-0.0238 6.27133,-0.04996 9.417202,-0.07791 0.90374,-0.008 1.804944,-0.01501 2.703787,-0.02101 0.0055,0.366872 0.01056,0.733913 0.01523,1.101119 m -6.441552,-0.897285 c 2.140053,0.002 4.280314,0.0075 6.420452,0.01662 -0.0057,2.182717 -0.0116,4.369124 -0.01793,6.559347 2.198434,0.01696 4.396381,0.03786 6.5934808,0.0628 -0.00765,-2.148908 -0.016126,-4.293877 -0.025769,-6.434781 6.5852352,0.09919 13.1596418,0.236024 19.7134777,0.41397 -0.0022,0.246435 -0.0044,0.492923 -0.0067,0.739467 -0.0182,1.986409 -0.03221,3.958255 -0.04288,5.917984 2.192697,0.02989 4.389741,0.04401 6.589882,0.04601 -0.0023,-1.053235 -0.0038,-2.109243 -0.0048,-3.167628 M -1.9375167,48.40252 c 4.2663014,-0.03614 8.5496425,-0.04763 12.8452877,-0.04282 0.0041,2.175936 0.0114,4.356062 0.02122,6.53929 2.214828,0.0099 4.432274,0.02293 6.651696,0.03805 0.01435,-2.158594 0.03063,-4.315189 0.0482,-6.470872 4.000843,0.03253 8.006029,0.06811 12.0118,0.100108 0.0069,0.750092 0.0139,1.500058 0.02086,2.249855 0.06491,6.995796 0.04929,13.972784 -0.0081,20.962956 M 20.257265,48.318199 c 3.054376,-0.0091 6.105072,-0.0052 9.153988,0.01087 0.04536,12.580323 0.06053,25.365219 0.178426,38.282113 0.03523,3.859211 0.05741,7.66012 0.07264,11.423574 -3.408452,0.02245 -6.822738,0.01351 -10.238202,-0.01082 M 30.141292,87.407246 c 0.01613,3.237899 0.02438,6.47438 0.02678,9.712529 -12.328786,0.09183 -24.7438767,0.208256 -37.1314492,0.523823 -2.2484428,0.05728 -4.4932348,0.09692 -6.7349278,0.122483 m 20.2055105,0.240061 c -11.2918093,0.04886 -22.4860155,0.01879 -33.6693265,-0.01216 0.02059,-4.327173 0.04279,-8.654475 0.06169,-12.977486 0.02066,-4.727059 0.03213,-9.451011 0.04021,-14.174008 m 0.262856,26.308966 c -0.09888,-15.501248 -0.05914,-31.134328 -0.178061,-46.750449 -0.0038,-0.502041 -0.0075,-1.003906 -0.01118,-1.505604 3.939887,-0.01358 7.88529,-0.01655 11.830284,-0.01213 -0.0096,1.600613 -0.01921,3.202425 -0.0293,4.805224 M 20.782039,97.551411 H 13.325008 M 29.789679,55.648385 v 9.507813"
               id="path1"
               sodipodi:nodetypes="ccccccccccccc"
               inkscape:original-d="m -27.09574,48.791667 h 11.90625 v 6.520497 h 6.6145835 V 48.791667 H 11.268846 v 6.520497 h 6.614581 V 48.791667 H 29.789679 V 97.551411 H -27.09574 Z" /><path
               style="fill:none;stroke:#000000;stroke-width:0.245179;stroke-linecap:round;stroke-linejoin:round;stroke-dasharray:none"
               d="m 12.755813,48.020451 c -0.0014,-1.080846 -0.0032,-2.162759 -0.0053,-3.24565 1.320275,0.0046 2.639957,0.0077 3.959015,0.0096 -0.0085,2.907997 -0.01994,5.809803 -0.03472,8.70715 m -4.065799,-6.543023 c 0.0023,-0.741047 0.0045,-1.481768 0.0067,-2.22217 1.326713,-1.73e-4 2.653127,6.71e-4 3.979335,0.0025 0.0076,3.059648 0.01411,6.124506 0.02067,9.194076 -1.217606,0.0056 -2.435203,0.01204 -3.652718,0.01915 m -0.293038,-1.50521 c 0.0049,-2.433617 0.0091,-4.87318 0.01285,-7.317875 1.324957,2.1e-5 2.649799,-0.0015 3.974581,-0.0043 0.0043,3.048848 0.0083,6.090369 0.01266,9.126154 -1.321028,-0.0085 -2.641987,-0.0181 -3.962822,-0.02863 7.93e-4,-0.507439 0.0016,-1.015015 0.0024,-1.522721 M 9.8183559,44.822917 h 8.4765621 m -1.734407,3.23198 10e-7,7.65625"
               id="path3"
               sodipodi:nodetypes="ccccc"
               inkscape:original-d="m 12.591763,53.989247 v -9.16633 h 3.968748 l 10e-7,9.16633 z" /><path
               style="fill:none;stroke:#000000;stroke-width:0.245179;stroke-linecap:round;stroke-linejoin:round;stroke-dasharray:none"
               d="m -19.570446,65.912686 c 13.2582847,8.72e-4 26.6041491,-0.04277 39.839668,-0.128857 m -40.175598,0.391402 c 14.3152993,0.06544 28.8154002,-0.165172 43.281973,-0.521616 m -41.542032,0.09494 c 12.1442215,-0.08661 24.3238016,-0.03365 36.618,7.27e-4 m -15.919374,0.14622 h 7.46875 m 6.138103,0 h 7.023437"
               id="path4"
               sodipodi:nodetypes="cc"
               inkscape:original-d="M -21.804073,65.895498 H 24.498012" /><path
               style="fill:none;stroke:#000000;stroke-width:0.245179;stroke-linecap:round;stroke-linejoin:round;stroke-dasharray:none"
               d="m -16.803122,72.806891 c 13.2467821,-0.08624 26.1950835,0.0071 39.04282,0.0927 m -43.445953,0.07922 C -6.0431334,72.939375 8.8830746,72.728229 23.843434,72.242042 M -17.929051,72.11783 c 13.1790062,-0.08617 26.6677335,0.04894 40.234924,0.217768 m -36.816285,0.174484 h 9.2148439 m 1.1893724,0 h 9.0976562"
               id="path5"
               sodipodi:nodetypes="cc"
               inkscape:original-d="M -21.804073,72.510082 H 24.498013" /><path
               style="fill:none;stroke:#000000;stroke-width:0.245179;stroke-linecap:round;stroke-linejoin:round;stroke-dasharray:none"
               d="m -21.037486,79.008985 c 14.9699246,-0.08141 29.8535874,0.134295 44.97167,0.421409 m -44.12489,-0.108781 c 14.9561147,0.109152 29.7972882,-0.178007 44.462144,-0.559 m -43.414421,0.588554 c 12.4643085,-0.07464 24.7626969,0.007 37.02456,0.100608 m -22.6696987,-0.32711 8.21875,1e-6 m -6.6217854,-1e-6 9.0039062,1e-6"
               id="path6"
               sodipodi:nodetypes="cc"
               inkscape:original-d="m -21.804073,79.124665 46.302085,1e-6" /><path
               style="fill:none;stroke:#000000;stroke-width:0.245179;stroke-linecap:round;stroke-linejoin:round;stroke-dasharray:none"
               d="m -18.376676,85.842421 c 12.4495256,0.05773 24.8567177,0.0018 37.110789,-0.0511 m -36.622509,0.07441 c 14.0625342,-0.1059 28.310906,-0.04263 42.578224,-0.07227 m -41.969592,0.313043 c 12.6967771,0.0969 25.3742347,-0.0318 38.013251,-0.196015 M -6.1606804,85.73925 h 8.359375 m 10.7377124,0 h 7.351562"
               id="path7"
               sodipodi:nodetypes="cc"
               inkscape:original-d="M -21.804073,85.73925 H 24.498012" /><path
               style="fill:none;stroke:#000000;stroke-width:0.245179;stroke-linecap:round;stroke-linejoin:round;stroke-dasharray:none"
               d="m -15.112879,61.048117 c 0.04838,9.819649 0.05297,19.728763 0.07568,29.626559 m -0.02256,-28.726395 c 0.03635,9.614558 -0.0073,19.207564 -0.08969,28.86267 m 0.430316,-24.613474 c 0.03197,8.740322 0.01006,17.411717 -0.0359,26.06053 m -0.43445,-19.745849 v 7.902343 m 0,-10.292155 v 9.167969"
               id="path8"
               sodipodi:nodetypes="cc"
               inkscape:original-d="m -15.18949,59.280914 v 33.07292" /><path
               style="fill:none;stroke:#000000;stroke-width:0.245179;stroke-linecap:round;stroke-linejoin:round;stroke-dasharray:none"
               d="m -8.3108433,60.127024 c 5.52e-4,8.545904 -0.031233,17.157641 -0.096343,25.769858 m 0.3026261,-23.868287 c 0.03317,9.647988 0.025254,19.353825 0.015172,29.032645 M -8.7670886,64.669323 c 0.00395,7.316909 0.05656,14.647114 0.1586928,22.00513 m 0.033489,-27.168644 v 9.730468 m 0,-3.616128 v 9.800781"
               id="path9"
               sodipodi:nodetypes="cc"
               inkscape:original-d="m -8.5749065,59.280914 v 33.07292" /><path
               style="fill:none;stroke:#000000;stroke-width:0.245179;stroke-linecap:round;stroke-linejoin:round;stroke-dasharray:none"
               d="m -1.8400472,65.566222 c -0.03043,8.021614 -0.02553,15.999688 -0.00847,23.968767 M -1.90244,59.437276 c 0.070528,10.243639 0.07851,20.541773 0.1145193,30.908699 m 0.010485,-31.063466 c 0.077402,10.451829 -0.019812,21.001028 -0.1819533,31.553443 m -9.328e-4,-20.574893 v 8.21875 m 0,-7.2736 v 9.015625"
               id="path10"
               sodipodi:nodetypes="cc"
               inkscape:original-d="m -1.9603215,59.280914 v 33.07292" /><path
               style="fill:none;stroke:#000000;stroke-width:0.245179;stroke-linecap:round;stroke-linejoin:round;stroke-dasharray:none"
               d="m 4.4854474,61.294308 c -0.061189,9.340763 -0.077337,18.63399 -0.114693,27.891742 M 4.5432981,63.190454 c -0.022337,8.196875 -0.016321,16.325273 -4.857e-4,24.429095 M 4.3074074,59.774711 c 0.018161,9.315896 -9.508e-4,18.708756 -0.03501,28.123416 M 4.654263,61.506785 v 9.449219 m 0,-5.335855 v 9.800781"
               id="path11"
               sodipodi:nodetypes="cc"
               inkscape:original-d="m 4.654263,59.280914 v 33.07292" /><path
               style="fill:none;stroke:#000000;stroke-width:0.245179;stroke-linecap:round;stroke-linejoin:round;stroke-dasharray:none"
               d="m 10.912564,64.035762 c -0.02664,8.010185 -0.03083,15.9339 -0.03239,23.811344 M 11.309398,61.95751 c -0.0688,9.203734 -0.04147,18.451152 0.0086,27.678023 M 10.873543,60.724732 c 0.0077,8.772019 0.01442,17.575373 0.02577,26.382324 m 0.369532,-25.767019 v 9.472657 m 0,-6.193034 v 9.941406"
               id="path12"
               sodipodi:nodetypes="cc"
               inkscape:original-d="m 11.268847,59.280914 v 33.07292" /><path
               style="fill:none;stroke:#000000;stroke-width:0.245179;stroke-linecap:round;stroke-linejoin:round;stroke-dasharray:none"
               d="m 18.32554,65.527106 c -0.06595,8.279067 -0.08955,16.533831 -0.124792,24.763976 M 17.55065,65.886402 c 0.02141,7.047442 0.04868,14.139861 0.09434,21.241212 m 0.01814,-21.067691 c 0.0063,7.22538 0.01235,14.436207 0.02288,21.635234 m 0.197423,-22.770036 v 8.96875 m 0,10.735557 v 7.128906"
               id="path13"
               sodipodi:nodetypes="cc"
               inkscape:original-d="m 17.883432,59.280914 v 33.07292" /><path
               style="fill:none;stroke:#000000;stroke-width:0.245179;stroke-linecap:round;stroke-linejoin:round;stroke-dasharray:none"
               id="rect14"
               width="46.302086"
               height="33.072918"
               x="-21.804077"
               y="59.280914"
               sodipodi:type="rect"
               d="m -16.28531,59.093448 c 13.5342413,0.04654 27.125333,-0.05456 40.513738,-0.195324 -0.03617,1.88504 -0.07628,3.769308 -0.121044,5.653096 -0.165744,6.974576 -0.180544,14.022835 -0.146624,21.097218 m 0.551236,-24.83317 c -0.08003,10.625951 -0.02117,21.227652 0.06733,31.8586 -4.922347,0.01995 -9.838179,0.04633 -14.7587548,0.08465 -1.8585221,0.01447 -3.7227606,0.02318 -5.592001,0.02674 M 23.043041,92.574093 c -14.9372861,-0.07652 -29.7315606,0.02467 -44.60762,0.09914 -9.99e-4,-0.693939 -0.0022,-1.387937 -0.0036,-2.082014 -0.0041,-2.083533 -0.0083,-4.169575 -0.01273,-6.257585 m 15.2155032,8.10763 c -4.9900932,-0.03626 -10.0141582,-0.04464 -15.0630252,-0.03639 -0.0635,-10.516295 -0.236263,-20.959331 -0.433498,-31.433113 -0.0092,-0.487911 -0.01774,-0.97602 -0.02569,-1.46432 0.716122,0.0036 1.433576,0.0067 2.152273,0.0094 m -1.90629,8.68693 c -0.0065,-3.035392 -0.01911,-6.069863 -0.0386,-9.104503 12.4456877,-0.0363 24.7736122,-0.0755 36.930173,-0.194952 2.821839,-0.02773 5.675623,-0.04487 8.552353,-0.05432 -0.01694,1.587009 -0.02701,3.176325 -0.03167,4.767476 m -44.712971,-4.542822 c 15.1589067,0.02649 30.3545362,-0.04526 45.340592,-0.143969 -0.0052,0.307628 -0.01051,0.615245 -0.0159,0.922851 -0.07003,3.999549 -0.09956,8.012324 -0.102544,12.033081 M 14.219109,58.857526 c 3.531489,0.01724 7.057252,0.03753 10.578089,0.06357 -0.01709,11.105702 -0.08233,22.267559 -0.171258,33.568031 -1.009691,0.02509 -2.019577,0.05133 -3.02964,0.07877 C 15.293699,92.739123 9.0419002,92.75974 2.8153446,92.712551 M 14.858086,92.491414 c -12.1847822,0.09908 -24.3838071,0.0328 -36.678118,-0.01802 -0.04384,-3.428073 -0.09521,-6.854922 -0.15592,-10.276528 -0.0074,-0.417482 -0.0143,-0.834978 -0.02068,-1.252489 m -0.01529,10.959387 c -0.032,-10.898503 0.01067,-21.738655 0.08353,-32.549924 4.134468,0.02498 8.27324,0.05407 12.4139188,0.08569 m -8.3833218,-0.289875 c 14.0803838,-0.01232 28.330564,0.02636 42.508496,0.08303 1.69e-4,1.38154 -3.42e-4,2.76325 -0.0018,4.1451 -0.0053,5.177881 -0.01161,10.341036 -0.02052,15.496706 M 24.36052,62.785602 c 0.01127,9.895718 0.08298,19.754218 0.229224,29.613659 -4.901394,-0.002 -9.783825,-0.0037 -14.6454814,-3.44e-4 m 9.9853244,-0.04034 c -14.0078556,0.07626 -27.7191469,0.0047 -41.38489,-0.03682 0.02803,-1.655284 0.05671,-3.310146 0.0856,-4.964289 0.01048,-0.600195 0.02016,-1.20021 0.02907,-1.800051 m 15.6120479,6.440136 c -5.3213889,-0.01579 -10.6798849,-0.01928 -16.0607879,-0.01577 -0.03128,-9.178226 -0.128281,-18.335914 -0.217159,-27.499641 m 0.247812,14.266555 c 0.03025,-6.317805 0.02956,-12.694785 0.01342,-19.104997 9.160029,-0.05954 18.2879422,-0.188161 27.4301891,-0.308098 1.3583447,-0.01782 2.7181694,-0.03153 4.0793308,-0.04155 m 14.7337911,4.998256 v 8.746093 m -46.302086,21.490562 v -7.492188" /></g></g></g></g></g></svg>
