<?xml version="1.0" encoding="UTF-8" standalone="no"?>
<!-- Created with Inkscape (http://www.inkscape.org/) -->

<svg
   width="800"
   height="160"
   viewBox="0 0 211.66667 42.333332"
   version="1.1"
   id="svg1"
   inkscape:version="1.3.2 (091e20ef0f, 2023-11-25, custom)"
   sodipodi:docname="protocols.svg"
   xmlns:inkscape="http://www.inkscape.org/namespaces/inkscape"
   xmlns:sodipodi="http://sodipodi.sourceforge.net/DTD/sodipodi-0.dtd"
   xmlns="http://www.w3.org/2000/svg"
   xmlns:svg="http://www.w3.org/2000/svg">
  <sodipodi:namedview
     id="namedview1"
     pagecolor="#ffffff"
     bordercolor="#000000"
     borderopacity="0.25"
     inkscape:showpageshadow="2"
     inkscape:pageopacity="0.0"
     inkscape:pagecheckerboard="0"
     inkscape:deskcolor="#d1d1d1"
     inkscape:document-units="mm"
     inkscape:zoom="0.80257484"
     inkscape:cx="447.9333"
     inkscape:cy="117.12303"
     inkscape:window-width="1440"
     inkscape:window-height="831"
     inkscape:window-x="0"
     inkscape:window-y="0"
     inkscape:window-maximized="1"
     inkscape:current-layer="layer1"
     showgrid="true">
    <inkscape:grid
       id="grid1"
       units="px"
       originx="0"
       originy="0"
       spacingx="2.6458333"
       spacingy="2.6458333"
       empcolor="#0099e5"
       empopacity="0.30196078"
       color="#0099e5"
       opacity="0.14901961"
       empspacing="5"
       dotted="false"
       gridanglex="30"
       gridanglez="30"
       visible="true" />
  </sodipodi:namedview>
  <defs
     id="defs1">
    <inkscape:path-effect
       effect="sketch"
       id="path-effect10"
       is_visible="true"
       lpeversion="1"
       nbiter_approxstrokes="3"
       parallel_offset="0.2;1406042925"
       strokelength="70"
       strokelength_rdm="0.3;3164084226"
       strokeoverlap="0.5"
       strokeoverlap_rdm="0.5;1"
       ends_tolerance="0.1;1"
       tremble_size="0.8;1"
       tremble_frequency="3"
       nbtangents="2"
       tgt_places_rdmness="0.5;3519134676"
       tgtlength="5"
       tgtlength_rdm="0.3;1"
       tgtscale="10" />
    <inkscape:path-effect
       effect="sketch"
       id="path-effect23"
       is_visible="true"
       lpeversion="1"
       nbiter_approxstrokes="3"
       parallel_offset="0.3;1555834214"
       strokelength="70"
       strokelength_rdm="0.6;1537297943"
       strokeoverlap="0.5"
       strokeoverlap_rdm="0.5;1"
       ends_tolerance="0;1"
       tremble_size="0.8;1"
       tremble_frequency="3"
       nbtangents="2"
       tgt_places_rdmness="0.5;1"
       tgtlength="3"
       tgtlength_rdm="0.3;1"
       tgtscale="10" />
    <inkscape:path-effect
       effect="sketch"
       id="path-effect22"
       is_visible="true"
       lpeversion="1"
       nbiter_approxstrokes="3"
       parallel_offset="0.2;1"
       strokelength="70"
       strokelength_rdm="0.3;1"
       strokeoverlap="0.5"
       strokeoverlap_rdm="0.5;1"
       ends_tolerance="0.1;1"
       tremble_size="0.8;1"
       tremble_frequency="3"
       nbtangents="2"
       tgt_places_rdmness="0.5;1"
       tgtlength="10"
       tgtlength_rdm="0.3;1"
       tgtscale="10" />
    <inkscape:path-effect
       effect="sketch"
       id="path-effect19"
       is_visible="true"
       lpeversion="1"
       nbiter_approxstrokes="3"
       parallel_offset="0.2;1"
       strokelength="70"
       strokelength_rdm="0.3;1"
       strokeoverlap="0.5"
       strokeoverlap_rdm="0.5;1"
       ends_tolerance="0.1;1"
       tremble_size="0.8;1"
       tremble_frequency="3"
       nbtangents="2"
       tgt_places_rdmness="0.5;1"
       tgtlength="10"
       tgtlength_rdm="0.3;1"
       tgtscale="10" />
    <inkscape:path-effect
       effect="sketch"
       id="path-effect21"
       is_visible="true"
       lpeversion="1"
       nbiter_approxstrokes="3"
       parallel_offset="0.2;1"
       strokelength="70"
       strokelength_rdm="0.3;1"
       strokeoverlap="0.5"
       strokeoverlap_rdm="0.5;1"
       ends_tolerance="0.1;1"
       tremble_size="0.8;1"
       tremble_frequency="3"
       nbtangents="2"
       tgt_places_rdmness="0.5;1"
       tgtlength="10"
       tgtlength_rdm="0.3;1"
       tgtscale="10" />
    <inkscape:path-effect
       effect="sketch"
       id="path-effect9"
       is_visible="true"
       lpeversion="1"
       nbiter_approxstrokes="3"
       parallel_offset="0.2;1"
       strokelength="70"
       strokelength_rdm="0.3;1"
       strokeoverlap="0.5"
       strokeoverlap_rdm="0.5;1"
       ends_tolerance="0.1;1"
       tremble_size="0.8;1"
       tremble_frequency="3"
       nbtangents="2"
       tgt_places_rdmness="0.5;1"
       tgtlength="10"
       tgtlength_rdm="0.3;1"
       tgtscale="10" />
    <inkscape:path-effect
       effect="sketch"
       id="path-effect8"
       is_visible="true"
       lpeversion="1"
       nbiter_approxstrokes="3"
       parallel_offset="0.2;1"
       strokelength="70"
       strokelength_rdm="0.3;1"
       strokeoverlap="0.5"
       strokeoverlap_rdm="0.5;1"
       ends_tolerance="0.1;1"
       tremble_size="0.8;1"
       tremble_frequency="3"
       nbtangents="2"
       tgt_places_rdmness="0.5;1"
       tgtlength="10"
       tgtlength_rdm="0.3;1"
       tgtscale="10" />
    <inkscape:path-effect
       effect="sketch"
       id="path-effect20"
       is_visible="true"
       lpeversion="1"
       nbiter_approxstrokes="3"
       parallel_offset="0.2;1"
       strokelength="70"
       strokelength_rdm="0.3;1"
       strokeoverlap="0.5"
       strokeoverlap_rdm="0.5;1"
       ends_tolerance="0.1;1"
       tremble_size="0.8;1"
       tremble_frequency="3"
       nbtangents="2"
       tgt_places_rdmness="0.5;1"
       tgtlength="10"
       tgtlength_rdm="0.3;1"
       tgtscale="10" />
    <inkscape:path-effect
       effect="sketch"
       id="path-effect4"
       is_visible="true"
       lpeversion="1"
       nbiter_approxstrokes="3"
       parallel_offset="0.2;1"
       strokelength="70"
       strokelength_rdm="0.3;1"
       strokeoverlap="0.5"
       strokeoverlap_rdm="0.5;1"
       ends_tolerance="0.1;1"
       tremble_size="0.8;1"
       tremble_frequency="3"
       nbtangents="2"
       tgt_places_rdmness="0.5;1"
       tgtlength="10"
       tgtlength_rdm="0.3;1"
       tgtscale="10" />
    <inkscape:path-effect
       effect="sketch"
       id="path-effect3"
       is_visible="true"
       lpeversion="1"
       nbiter_approxstrokes="3"
       parallel_offset="0.2;1"
       strokelength="70"
       strokelength_rdm="0.3;1"
       strokeoverlap="0.5"
       strokeoverlap_rdm="0.5;1"
       ends_tolerance="0.1;1"
       tremble_size="0.8;1"
       tremble_frequency="3"
       nbtangents="2"
       tgt_places_rdmness="0.5;1"
       tgtlength="10"
       tgtlength_rdm="0.3;1"
       tgtscale="10" />
    <inkscape:path-effect
       effect="sketch"
       id="path-effect2"
       is_visible="true"
       lpeversion="1"
       nbiter_approxstrokes="4"
       parallel_offset="0.4;1"
       strokelength="50"
       strokelength_rdm="0.3;1"
       strokeoverlap="0.3"
       strokeoverlap_rdm="0.3;1"
       ends_tolerance="0.1;1"
       tremble_size="0.8;1"
       tremble_frequency="3"
       nbtangents="0"
       tgt_places_rdmness="1;1"
       tgtlength="100"
       tgtlength_rdm="0.3;1"
       tgtscale="10" />
    <inkscape:path-effect
       effect="sketch"
       id="path-effect1"
       is_visible="true"
       lpeversion="1"
       nbiter_approxstrokes="4"
       parallel_offset="0.5;1"
       strokelength="50"
       strokelength_rdm="0.3;1"
       strokeoverlap="0.3"
       strokeoverlap_rdm="0.3;1"
       ends_tolerance="0.1;1"
       tremble_size="0.8;1"
       tremble_frequency="3"
       nbtangents="0"
       tgt_places_rdmness="1;1"
       tgtlength="56.859206"
       tgtlength_rdm="0.3;1"
       tgtscale="10" />
    <inkscape:path-effect
       effect="sketch"
       id="path-effect11"
       is_visible="true"
       lpeversion="1"
       nbiter_approxstrokes="4"
       parallel_offset="0.7;1"
       strokelength="50"
       strokelength_rdm="0.3;1"
       strokeoverlap="0.3"
       strokeoverlap_rdm="0.3;1"
       ends_tolerance="0.1;1"
       tremble_size="0.8;1"
       tremble_frequency="3"
       nbtangents="0"
       tgt_places_rdmness="1;1"
       tgtlength="100"
       tgtlength_rdm="0.3;1"
       tgtscale="10" />
    <inkscape:path-effect
       effect="sketch"
       id="path-effect7"
       is_visible="true"
       lpeversion="1"
       nbiter_approxstrokes="3"
       parallel_offset="1;1"
       strokelength="50"
       strokelength_rdm="0.3;1"
       strokeoverlap="0.3"
       strokeoverlap_rdm="0.3;1"
       ends_tolerance="0.1;1"
       tremble_size="1.2;1"
       tremble_frequency="3"
       nbtangents="0"
       tgt_places_rdmness="1;1"
       tgtlength="100"
       tgtlength_rdm="0.3;1"
       tgtscale="10" />
    <rect
       x="223.77509"
       y="306.53192"
       width="415.43015"
       height="124.34706"
       id="rect6" />
    <inkscape:path-effect
       effect="sketch"
       id="path-effect6"
       is_visible="true"
       lpeversion="1"
       nbiter_approxstrokes="3"
       parallel_offset="1;1"
       strokelength="50"
       strokelength_rdm="0.3;1"
       strokeoverlap="0.3"
       strokeoverlap_rdm="0.3;1"
       ends_tolerance="0.1;1"
       tremble_size="1.2;1"
       tremble_frequency="3"
       nbtangents="0"
       tgt_places_rdmness="1;1"
       tgtlength="100"
       tgtlength_rdm="0.3;1"
       tgtscale="10" />
    <inkscape:path-effect
       effect="sketch"
       id="path-effect5"
       is_visible="true"
       lpeversion="1"
       nbiter_approxstrokes="3"
       parallel_offset="1;1"
       strokelength="50"
       strokelength_rdm="0.3;1"
       strokeoverlap="0.3"
       strokeoverlap_rdm="0.3;1"
       ends_tolerance="0.1;1"
       tremble_size="1.2;1"
       tremble_frequency="3"
       nbtangents="0"
       tgt_places_rdmness="1;1"
       tgtlength="100"
       tgtlength_rdm="0.3;1"
       tgtscale="10" />
  </defs>
  <g
     inkscape:label="Layer 1"
     inkscape:groupmode="layer"
     id="layer1">
    <path
       id="path17"
       style="fill:#ffaaaa;stroke:none;stroke-width:0.211666;stroke-dasharray:none"
       d="m 119.93028,6.3499999 c 8.18304,0 14.8167,6.6336481 14.8167,14.8166671 0,8.183019 -6.63366,14.816666 -14.8167,14.816666 h -4.23334 l -1e-5,-29.6333315 z"
       sodipodi:nodetypes="cscccc" />
    <path
       id="path12"
       style="fill:#ff8080;stroke:none;stroke-width:0.211666;stroke-dasharray:none"
       d="M 115.69693,6.3500007 V 35.983333 h 4.23333 c 4.6572,0 8.81051,-2.150244 11.52674,-5.51036 -5.4221,4.534246 -13.23959,3.759939 -13.73146,3.446611 -0.85478,-0.544514 0.1633,-27.5695833 0.1633,-27.5695833 z"
       sodipodi:nodetypes="ccscscc" />
    <path
       id="path15"
       style="fill:#ffffff;stroke:none;stroke-width:0.211666;stroke-dasharray:none"
       d="m 83.153167,25.4 h 8.466664 c 1.172637,0 2.116666,0.92014 2.116666,2.116667 0,1.196526 -0.944029,2.116666 -2.116666,2.116666 h -8.466664 z"
       sodipodi:nodetypes="cssscc" />
    <path
       id="path14"
       style="fill:#ffffff;stroke:none;stroke-width:0.211666;stroke-dasharray:none"
       d="m 83.153167,12.7 h 8.466664 c 1.172637,0 2.116666,0.92014 2.116666,2.116667 0,1.196525 -0.944029,2.116667 -2.116666,2.116667 h -8.466664 z"
       sodipodi:nodetypes="cssscc" />
    <path
       id="path13"
       style="fill:#ffaaaa;stroke:none;stroke-width:0.211666;stroke-dasharray:none"
       d="m 78.919833,6.3500004 c -8.18302,0 -14.816662,6.6336466 -14.816662,14.8166656 0,8.183019 6.633649,14.816667 14.816667,14.816667 h 4.233327 V 6.3500004 Z"
       sodipodi:nodetypes="cscccc" />
    <path
       id="path18"
       style="fill:#ff8080;stroke:none;stroke-width:0.211666;stroke-dasharray:none"
       d="M 69.555653,9.6858162 C 66.228435,12.402836 64.10317,16.536007 64.10317,21.166666 c 0,8.183011 6.633656,14.816666 14.816667,14.816666 h 4.233334 v -2.116666 h -2.116668 c -8.18301,0 -14.816666,-6.633656 -14.816666,-14.816666 0,-3.552352 1.25149,-6.811749 3.335816,-9.3641838 z" />
    <path
       id="path19"
       style="fill:#cccccc;stroke:none;stroke-width:0.211666;stroke-dasharray:none"
       d="m 83.153171,12.7 v 4.233332 h 8.466666 c 1.172636,0 2.116666,-0.920141 2.116666,-2.116666 0,0 -6.471054,1.995613 -8.466666,0 -0.498903,-0.498903 0,-2.116666 0,-2.116666 z"
       sodipodi:nodetypes="ccscscc" />
    <path
       id="path20"
       style="fill:#cccccc;stroke:none;stroke-width:0.211666;stroke-dasharray:none"
       d="m 83.153171,25.4 v 4.233332 h 8.466666 c 1.172636,0 2.116666,-0.92014 2.116666,-2.116666 0,0 -6.471054,1.995613 -8.466666,0 -0.498903,-0.498903 0,-2.116666 0,-2.116666 z"
       sodipodi:nodetypes="ccscscc" />
    <g
       id="g3"
       inkscape:path-effect="#path-effect10">
      <path
         id="path7"
         style="fill:none;stroke:#000000;stroke-width:0.211666;stroke-dasharray:none"
         d="M 74.604664,7.6454953 C 68.809032,9.4045159 64.31885,15.09508 64.157179,21.749191 c -0.03869,1.59236 0.172996,3.12266 0.602465,4.551335 1.788373,5.949208 7.379136,10.199152 13.840841,10.020653 1.381096,-0.03815 2.755896,-0.08073 4.121623,-0.12788 -0.0047,-0.149597 -0.0094,-0.299243 -0.01426,-0.448936 -0.08846,-2.73046 -0.09889,-5.393597 -0.06233,-8.020265 m -9.856824,7.416088 c 1.685663,0.697151 3.568186,1.069267 5.564268,1.035825 1.407397,-0.02358 2.825942,-0.05076 4.25157,-0.08309 0.04559,-4.531811 0.160999,-9.114399 0.220507,-13.795841 0.07317,-5.756252 0.08806,-11.014902 0.147484,-16.2339401 -1.395716,0.059172 -2.788444,0.1210017 -4.176396,0.1775287 -0.921441,0.037528 -1.820912,0.1588488 -2.690174,0.3547343 -1.652086,0.3722927 -3.213758,1.0089637 -4.629775,1.8692244 m 0.815098,-0.7550599 c -5.092666,2.2839382 -8.350289,7.3684446 -7.923624,13.1561746 0.166247,2.25515 0.876272,4.378142 2.008696,6.245348 2.909726,4.797725 7.61244,8.448824 13.013372,8.907911 1.288864,0.109556 2.570986,0.229719 3.859262,0.355671 -0.07131,-0.746116 -0.140552,-1.490282 -0.205193,-2.233438 -0.249338,-2.866544 -0.247427,-6.039629 -0.117509,-9.37353 M 78.21385,35.655211 c 3.59e-4,0 7.19e-4,0 0.0011,0 1.382862,3.64e-4 2.784986,-0.0019 4.203537,-0.0068 0.03355,-6.385002 0.401092,-12.823235 0.842513,-19.313368 0.243834,-3.585053 0.277897,-7.0770279 0.251036,-10.5187015 -1.421895,0.029362 -2.85361,0.066832 -4.285512,0.1096412 -3.028139,0.090532 -5.846503,1.0801743 -8.136446,2.7020647 -2.472536,1.7512146 -4.478853,4.1953046 -5.699316,7.0800266 m 8.571118,-7.3239003 c -5.210991,2.3275433 -9.022461,7.4402933 -9.148386,13.3081673 -0.04233,1.972321 0.337394,3.83659 1.063468,5.515015 2.149231,4.968254 7.410146,8.746585 13.466417,8.656983 1.396825,-0.02067 2.789801,-0.05024 4.176264,-0.09656 -0.01049,-0.620201 -0.02215,-1.243432 -0.03521,-1.870298 -0.09305,-4.469154 -0.02449,-8.66696 0.119277,-12.76218 m -7.521293,15.018857 c 1.094955,0.250762 2.223546,0.38467 3.373596,0.388554 1.434847,0.0048 2.856324,0.0044 4.269061,-3.1e-5 0.0061,-5.273771 -0.109185,-10.602733 -0.106266,-15.918703 0.0026,-4.672074 -0.08611,-9.36218 -0.265996,-14.126399 -1.466048,-0.043894 -2.940603,-0.0947 -4.423663,-0.1540155 -1.895757,-0.075822 -3.725792,0.1599494 -5.436855,0.650065 -4.403258,1.2612661 -7.639911,4.5522205 -9.029686,8.6714905 m -0.229719,1.021537 -0.245367,8.039225 m 7.465632,9.738286 6.908847,1.938985"
         sodipodi:nodetypes="cscccc"
         inkscape:original-d="m 78.919833,6.3500001 c -8.18302,0 -14.816662,6.6336469 -14.816662,14.8166659 0,8.183019 6.633649,14.816667 14.816667,14.816667 h 4.233327 V 6.3500001 Z" />
      <path
         id="rect7"
         style="fill:none;stroke:#000000;stroke-width:0.211666;stroke-dasharray:none"
         d="m 83.547277,11.751627 c 2.502701,0.01579 4.985364,0.07233 7.466867,0.174665 1.19307,0.0492 2.153234,1.019339 2.175271,2.285413 0.02208,1.268614 -0.90277,2.253924 -2.048812,2.345243 -2.757815,0.219748 -5.494172,0.506959 -8.179838,0.869463 0.0141,-0.254038 0.02875,-0.507274 0.04396,-0.759697 0.05845,-0.969618 0.102197,-1.992199 0.134922,-3.058484 2.606108,0.12065 5.155853,0.01777 7.691883,-0.20155 m -4.486208,-0.219033 c 1.616306,0.02406 3.248457,0.03417 4.893613,0.03372 1.179077,-3.23e-4 2.132044,0.914764 2.149741,2.102233 0.01768,1.186493 -0.907022,2.095811 -2.052998,2.079435 -2.75684,-0.03939 -5.48648,-0.09648 -8.20346,-0.153868 0.02044,-0.559172 0.04135,-1.118355 0.06263,-1.677423 m 4.948734,-2.60791 c 0.969085,-0.02246 1.947187,-0.04146 2.932829,-0.05814 1.1577,-0.0196 2.095571,0.88721 2.09714,2.068021 0.0016,1.181141 -0.933811,2.089878 -2.092455,2.07568 -2.786625,-0.03415 -5.539266,-0.07026 -8.291165,-0.134244 0.03516,-1.443105 0.07051,-2.893181 0.101887,-4.353467 0.327597,-0.01117 0.654989,-0.02286 0.982127,-0.03512 0.768969,-0.02881 1.536879,-0.05047 2.30418,-0.06578 M 84.044994,12.7 h 7.457032 m -0.816237,4.233334 h -9.507812"
         sodipodi:nodetypes="cssscc"
         inkscape:original-d="m 83.153167,12.7 h 8.466664 c 1.172637,0 2.116666,0.92014 2.116666,2.116667 0,1.196525 -0.944029,2.116667 -2.116666,2.116667 h -8.466664 z" />
      <path
         id="rect9"
         style="fill:none;stroke:#000000;stroke-width:0.211666;stroke-dasharray:none"
         d="m 89.708088,25.967329 c 0.864849,0.01206 1.727238,0.01738 2.587597,0.01634 1.181796,-0.0014 2.131002,0.906969 2.134326,2.081297 0.0033,1.171831 -0.940575,2.065201 -2.113936,2.022195 -2.824624,-0.10353 -5.659189,-0.264881 -8.488125,-0.469366 -0.0034,-1.513353 -0.0053,-3.037491 -0.0039,-4.570576 0.466768,-0.04031 0.933902,-0.08159 1.401472,-0.123786 0.334931,-0.03022 0.669527,-0.05775 1.003794,-0.08275 m 4.361196,1.331104 c 0.493908,-0.0042 0.987712,-0.009 1.481246,-0.01428 1.140799,-0.0123 2.05865,0.894927 2.021941,2.072791 -0.03668,1.177011 -1.013196,2.07912 -2.229859,2.05264 -2.928923,-0.06375 -5.889182,-0.152923 -8.9099,-0.277053 -0.09925,-1.473176 -0.213613,-2.95509 -0.346733,-4.446932 0.735995,-0.04649 1.465769,-0.09628 2.188628,-0.149584 0.779504,-0.05748 1.584707,-0.103842 2.411961,-0.141255 m -2.850385,-0.05109 c 2.263037,-0.03373 4.522597,-0.05716 6.791288,-0.07851 1.203565,-0.01133 2.173704,0.899988 2.211326,2.085032 0.03762,1.184913 -0.872369,2.095436 -1.998603,2.081925 -2.709607,-0.03251 -5.383719,-0.07509 -7.996132,-0.144838 0.03861,-0.532178 0.07931,-1.065276 0.122257,-1.5994 0.07375,-0.917152 0.12869,-1.822911 0.16772,-2.718274 2.945743,-0.01138 5.732147,0.08138 8.451214,0.246694 1.128588,0.06862 2.029273,1.056759 1.969198,2.343642 -0.06019,1.289332 -1.057127,2.291497 -2.293062,2.399533 -1.94175,0.169732 -3.881335,0.359803 -5.79316,0.561431 -1.016714,0.107227 -2.024819,0.184538 -3.026073,0.237022 -0.02558,-1.105904 -0.04142,-2.247118 -0.0505,-3.41501 m 12.910412,2.417051 h -8.476562 m 2.793779,0 h -7.65625"
         sodipodi:nodetypes="cssscc"
         inkscape:original-d="m 83.153167,25.4 h 8.466664 c 1.172637,0 2.116666,0.92014 2.116666,2.116667 0,1.196526 -0.944029,2.116666 -2.116666,2.116666 h -8.466664 z" />
      <path
         style="fill:none;stroke:#000000;stroke-width:0.264583;stroke-dasharray:none"
         d="m 3.810104,20.45383 c 7.620727,-0.261831 15.688661,0.12526 23.754781,0.362837 8.069578,0.237679 15.328745,0.287824 22.652081,0.86875 l 3e-6,0 c 2.07427,0.164542 4.22221,0.197124 6.412627,0.137468 M 6.10002,22.041595 c 7.676853,-0.05614 15.684382,-0.01661 23.723459,-0.04993 8.042523,-0.03333 15.641657,-0.443854 23.58333,-1.34375 l 3e-6,0 c 3.310367,-0.375108 6.553968,-0.369391 9.765556,-0.17754 M 4.8398582,21.186969 c 7.6724628,-0.0082 15.4128468,0.129629 22.9234648,0.38126 7.513836,0.251739 15.625685,-0.03204 23.53958,-0.0875 l 3e-6,-1e-6 c 3.087535,-0.02164 6.144651,-0.03313 9.196062,-0.04352 M 11.395041,21.166667 h 7.46875 m 22.984618,0 h 7.023438"
         id="path3"
         sodipodi:nodetypes="cc"
         inkscape:original-d="m 2.1906707,21.166667 61.9124993,0" />
      <path
         style="fill:none;stroke:#000000;stroke-width:0.264583;stroke-dasharray:none"
         d="m 141.51401,21.627736 c 7.57685,0.101814 15.43074,-0.0594 22.96734,-0.187632 l 0,10e-7 c 7.53983,-0.128284 15.27219,0.08315 22.48333,0.243749 2.8284,0.06299 5.86083,0.02254 8.99487,-0.09281 m -25.09523,-0.88397 c 7.65811,-0.172394 15.65424,0.178575 23.62973,0.537722 3.06226,0.137898 6.07999,0.20233 9.08766,0.252988 m -66.42439,0.344069 c 7.83686,0.141192 15.61221,-0.199662 23.51075,-0.600182 7.90193,-0.400692 15.53369,0.04795 23.27708,0.14375 l 0,0 c 6.49446,0.08035 12.91386,-0.05619 19.19449,-0.239953 m -68.42483,0.510447 c 7.58948,0.141015 15.61036,-0.407679 23.51107,-1.218932 l 0,10e-7 c 7.9041,-0.811601 15.57406,0.06115 23.38334,0.193749 6.08299,0.103292 12.34104,0.05493 18.8137,0.04196 m -31.77814,1.178091 c 7.9903,-0.203649 15.14681,0.09435 22.12306,0.275262 4.98583,0.129296 10.87426,0.07495 16.78658,0.03713 m -36.61269,-0.996509 h 9.21484 m -13.19321,0 h 9.09766"
         id="path5"
         sodipodi:nodetypes="cc"
         inkscape:original-d="m 134.74698,21.166667 h 73.81877" />
      <path
         id="path6"
         style="fill:none;stroke:#000000;stroke-width:0.211666;stroke-dasharray:none"
         d="m 123.3451,6.1656332 c 6.00445,1.575598 10.65009,7.4249598 10.72412,14.2794108 0.0158,1.460492 -0.17709,2.869392 -0.55397,4.196088 -1.76892,6.226921 -7.24059,10.807978 -13.50649,11.084436 -1.30661,0.05765 -2.60106,0.122983 -3.88279,0.197127 7.4e-4,-0.0076 0.001,-0.01519 0.002,-0.02278 0.30513,-3.149188 0.26501,-6.47087 0.0458,-9.868503 m 4.37358,10.5941 c -0.17344,0.0085 -0.34781,0.01372 -0.52305,0.01573 -1.37869,0.01577 -2.76629,0.02685 -4.15935,0.03487 0.0791,-6.149564 0.0534,-12.35807 0.21301,-18.489033 0.0953,-3.661004 0.0235,-7.442953 -0.15085,-11.3243969 1.34449,-0.071971 2.67401,-0.1584688 3.99213,-0.2582958 2.60892,-0.1975821 5.00473,0.3387805 7.00786,1.4129257 3.87465,2.077711 6.96142,7.0511 7.34427,12.884667 0.18788,2.862804 -0.29655,5.580039 -1.3444,7.920253 M 121.66643,7.2007015 c 6.93299,1.1959811 12.73038,7.1094585 13.35722,14.2192535 0.067,0.759835 0.0724,1.504489 0.0204,2.22967 -0.48432,6.756464 -7.46058,12.371294 -15.62629,12.332057 -0.88875,-0.0043 -1.77686,-0.01167 -2.66206,-0.02335 -0.67749,-0.0089 -1.34304,-0.01503 -1.99785,-0.01844 -0.4947,-7.071845 0.42879,-13.789504 0.92241,-20.397439 m 0.58221,20.196312 c -0.0665,-7.784835 0.004,-15.544803 0.0126,-23.32332 0.002,-1.822249 -0.003,-3.6551756 -0.015,-5.4990675 1.40189,-0.017509 2.79974,-0.041599 4.19376,-0.072405 4.75142,-0.1049989 8.93038,2.0174856 11.51378,5.33092 1.81125,2.32308 2.908,5.395764 2.89172,8.78826 -0.003,0.67024 -0.0498,1.332261 -0.13739,1.982629 M 121.50899,6.0203799 c 7.36662,0.5906566 13.54162,7.0367061 13.6426,14.8453211 0.006,0.451522 -0.009,0.898266 -0.0431,1.339384 -0.59494,7.646416 -7.17766,13.792337 -15.25479,14.483948 -0.48356,0.0414 -0.96755,0.08429 -1.45191,0.128676 -0.99473,0.09116 -1.97505,0.157581 -2.94301,0.203307 -0.0736,-3.509887 0.0393,-7.332176 0.21848,-11.228923 m 16.83769,3.425666 c -2.64823,3.98201 -7.15602,6.6258 -12.25025,6.682929 -1.39639,0.01566 -2.79058,0.0337 -4.18231,0.05417 0.0207,-1.483785 0.0442,-2.964817 0.0708,-4.443058 l 0,-1e-6 c 0.13747,-7.636356 -0.21018,-15.644686 -0.6375,-23.595832 -0.0327,-0.6076321 -0.0586,-1.2132476 -0.0783,-1.8170739 1.36423,-0.022419 2.76321,-0.034754 4.18926,-0.040047 4.89674,-0.018174 9.52497,2.3620989 12.576,5.9737252 m -0.76921,-1.069215 3.61767,7.379724 m -12.50875,17.640258 h -9.0039"
         sodipodi:nodetypes="cscccc"
         inkscape:original-d="m 119.93028,6.3499995 c 8.18304,0 14.8167,6.6336485 14.8167,14.8166675 0,8.183019 -6.63366,14.816667 -14.8167,14.816667 h -4.23335 V 6.350001 Z" />
    </g>
  </g>
</svg>
