<?xml version="1.0" encoding="UTF-8" standalone="no"?>
<!-- Created with Inkscape (http://www.inkscape.org/) -->

<svg
   width="300"
   height="210"
   viewBox="0 0 79.375011 55.562509"
   version="1.1"
   id="svg1"
   inkscape:version="1.3.2 (091e20ef0f, 2023-11-25, custom)"
   sodipodi:docname="conditions.svg"
   xml:space="preserve"
   xmlns:inkscape="http://www.inkscape.org/namespaces/inkscape"
   xmlns:sodipodi="http://sodipodi.sourceforge.net/DTD/sodipodi-0.dtd"
   xmlns="http://www.w3.org/2000/svg"
   xmlns:svg="http://www.w3.org/2000/svg"><sodipodi:namedview
     id="namedview1"
     pagecolor="#ffffff"
     bordercolor="#000000"
     borderopacity="0.25"
     inkscape:showpageshadow="2"
     inkscape:pageopacity="0.0"
     inkscape:pagecheckerboard="0"
     inkscape:deskcolor="#d1d1d1"
     inkscape:document-units="px"
     inkscape:zoom="1.2833605"
     inkscape:cx="202.59311"
     inkscape:cy="28.051354"
     inkscape:window-width="1440"
     inkscape:window-height="831"
     inkscape:window-x="0"
     inkscape:window-y="0"
     inkscape:window-maximized="1"
     inkscape:current-layer="g10"
     showgrid="true"><inkscape:grid
       id="grid10"
       units="px"
       originx="0"
       originy="0"
       spacingx="1.3229168"
       spacingy="1.3229168"
       empcolor="#0099e5"
       empopacity="0.30196078"
       color="#0099e5"
       opacity="0.14901961"
       empspacing="5"
       dotted="false"
       gridanglex="30"
       gridanglez="30"
       visible="true" /></sodipodi:namedview><defs
     id="defs1"><inkscape:path-effect
       effect="sketch"
       id="path-effect12"
       is_visible="true"
       lpeversion="1"
       nbiter_approxstrokes="3"
       parallel_offset="0.3;2816709605"
       strokelength="70"
       strokelength_rdm="0.3;1"
       strokeoverlap="0.5"
       strokeoverlap_rdm="0.5;1780345887"
       ends_tolerance="0.1;2171205604"
       tremble_size="0.5;1"
       tremble_frequency="3"
       nbtangents="2"
       tgt_places_rdmness="0.3;1897520308"
       tgtlength="4"
       tgtlength_rdm="0.3;1"
       tgtscale="10" /><inkscape:path-effect
       effect="sketch"
       id="path-effect18"
       is_visible="true"
       lpeversion="1"
       nbiter_approxstrokes="3"
       parallel_offset="0.2;1"
       strokelength="70"
       strokelength_rdm="0.3;1"
       strokeoverlap="0.5"
       strokeoverlap_rdm="0.5;1"
       ends_tolerance="0.1;1"
       tremble_size="0.8;1"
       tremble_frequency="3"
       nbtangents="2"
       tgt_places_rdmness="0.5;1"
       tgtlength="10"
       tgtlength_rdm="0.3;1"
       tgtscale="10" /><inkscape:path-effect
       effect="sketch"
       id="path-effect10"
       is_visible="true"
       lpeversion="1"
       nbiter_approxstrokes="3"
       parallel_offset="0.2;1"
       strokelength="70"
       strokelength_rdm="0.3;1"
       strokeoverlap="0.5"
       strokeoverlap_rdm="0.5;1"
       ends_tolerance="0.1;1"
       tremble_size="0.8;1"
       tremble_frequency="3"
       nbtangents="2"
       tgt_places_rdmness="0.5;1"
       tgtlength="10"
       tgtlength_rdm="0.3;1"
       tgtscale="10" /><inkscape:path-effect
       effect="sketch"
       id="path-effect9"
       is_visible="true"
       lpeversion="1"
       nbiter_approxstrokes="3"
       parallel_offset="0.2;1"
       strokelength="70"
       strokelength_rdm="0.3;1"
       strokeoverlap="0.5"
       strokeoverlap_rdm="0.5;1"
       ends_tolerance="0.1;1"
       tremble_size="0.8;1"
       tremble_frequency="3"
       nbtangents="2"
       tgt_places_rdmness="0.5;1"
       tgtlength="10"
       tgtlength_rdm="0.3;1"
       tgtscale="10" /><inkscape:path-effect
       effect="sketch"
       id="path-effect8"
       is_visible="true"
       lpeversion="1"
       nbiter_approxstrokes="3"
       parallel_offset="0.2;1"
       strokelength="70"
       strokelength_rdm="0.3;1"
       strokeoverlap="0.5"
       strokeoverlap_rdm="0.5;1"
       ends_tolerance="0.1;1"
       tremble_size="0.8;1"
       tremble_frequency="3"
       nbtangents="2"
       tgt_places_rdmness="0.5;1"
       tgtlength="10"
       tgtlength_rdm="0.3;1"
       tgtscale="10" /><inkscape:path-effect
       effect="sketch"
       id="path-effect3"
       is_visible="true"
       lpeversion="1"
       nbiter_approxstrokes="3"
       parallel_offset="0.2;1"
       strokelength="70"
       strokelength_rdm="0.3;1"
       strokeoverlap="0.5"
       strokeoverlap_rdm="0.5;1"
       ends_tolerance="0.1;1"
       tremble_size="0.8;1"
       tremble_frequency="3"
       nbtangents="2"
       tgt_places_rdmness="0.5;1"
       tgtlength="10"
       tgtlength_rdm="0.3;1"
       tgtscale="10" /><inkscape:path-effect
       effect="sketch"
       id="path-effect2"
       is_visible="true"
       lpeversion="1"
       nbiter_approxstrokes="4"
       parallel_offset="0.7;1"
       strokelength="50"
       strokelength_rdm="0.3;1"
       strokeoverlap="0.3"
       strokeoverlap_rdm="0.3;1"
       ends_tolerance="0.1;1"
       tremble_size="0.8;1"
       tremble_frequency="3"
       nbtangents="0"
       tgt_places_rdmness="1;1"
       tgtlength="100"
       tgtlength_rdm="0.3;1"
       tgtscale="10" /><inkscape:path-effect
       effect="sketch"
       id="path-effect1"
       is_visible="true"
       lpeversion="1"
       nbiter_approxstrokes="3"
       parallel_offset="0.5;1"
       strokelength="50"
       strokelength_rdm="0.3;1"
       strokeoverlap="0.3"
       strokeoverlap_rdm="0.3;1"
       ends_tolerance="0.1;1"
       tremble_size="1;1"
       tremble_frequency="3"
       nbtangents="0"
       tgt_places_rdmness="1;1"
       tgtlength="100"
       tgtlength_rdm="0.3;1"
       tgtscale="10" /><inkscape:path-effect
       effect="sketch"
       id="path-effect11"
       is_visible="true"
       lpeversion="1"
       nbiter_approxstrokes="3"
       parallel_offset="0.5;1"
       strokelength="50"
       strokelength_rdm="0.3;1"
       strokeoverlap="0.3"
       strokeoverlap_rdm="0.3;1"
       ends_tolerance="0.1;1"
       tremble_size="1;1"
       tremble_frequency="3"
       nbtangents="0"
       tgt_places_rdmness="1;1"
       tgtlength="100"
       tgtlength_rdm="0.3;1"
       tgtscale="10" /><inkscape:path-effect
       effect="sketch"
       id="path-effect7"
       is_visible="true"
       lpeversion="1"
       nbiter_approxstrokes="3"
       parallel_offset="1;1"
       strokelength="50"
       strokelength_rdm="0.3;1"
       strokeoverlap="0.3"
       strokeoverlap_rdm="0.3;1"
       ends_tolerance="0.1;1"
       tremble_size="1.2;1"
       tremble_frequency="3"
       nbtangents="0"
       tgt_places_rdmness="1;1"
       tgtlength="100"
       tgtlength_rdm="0.3;1"
       tgtscale="10" /><rect
       x="223.77509"
       y="306.53192"
       width="415.43015"
       height="124.34706"
       id="rect6" /><inkscape:path-effect
       effect="sketch"
       id="path-effect6"
       is_visible="true"
       lpeversion="1"
       nbiter_approxstrokes="3"
       parallel_offset="1;1"
       strokelength="50"
       strokelength_rdm="0.3;1"
       strokeoverlap="0.3"
       strokeoverlap_rdm="0.3;1"
       ends_tolerance="0.1;1"
       tremble_size="1.2;1"
       tremble_frequency="3"
       nbtangents="0"
       tgt_places_rdmness="1;1"
       tgtlength="100"
       tgtlength_rdm="0.3;1"
       tgtscale="10" /><inkscape:path-effect
       effect="sketch"
       id="path-effect5"
       is_visible="true"
       lpeversion="1"
       nbiter_approxstrokes="3"
       parallel_offset="1;1"
       strokelength="50"
       strokelength_rdm="0.3;1"
       strokeoverlap="0.3"
       strokeoverlap_rdm="0.3;1"
       ends_tolerance="0.1;1"
       tremble_size="1.2;1"
       tremble_frequency="3"
       nbtangents="0"
       tgt_places_rdmness="1;1"
       tgtlength="100"
       tgtlength_rdm="0.3;1"
       tgtscale="10" /></defs><g
     inkscape:label="Layer 1"
     inkscape:groupmode="layer"
     id="layer1"><g
       id="g6"><g
         id="g9"
         transform="translate(28.418657,-43.5)"><g
           id="g10"
           transform="matrix(1.1080917,0,0,1.1080917,2.7624827,-8.7600785)"><rect
             style="fill:#ffaaaa;stroke:none;stroke-width:0.264583;stroke-dasharray:none"
             id="rect7"
             width="13.816542"
             height="23.948671"
             x="-4.5537672"
             y="59.82148"
             ry="1.1620202e-06"
             transform="rotate(-20)"
             sodipodi:type="rect" /><path
             id="path17"
             style="fill:#cccccc;stroke:none;stroke-width:0.264583;stroke-dasharray:none"
             d="m 23.969983,92.486066 c -0.510107,-0.01365 -0.921103,0.410819 -0.921103,0.921106 v 2.763308 c 0,0 17.500954,7e-6 17.500954,0 l -0.02671,-1.564991 c 0,0 -14.321059,0.64462 -14.905023,-0.08048 -0.382299,-0.474699 -0.03347,-1.995738 -0.03347,-1.995738 z"
             sodipodi:nodetypes="sscscscs" /><path
             id="rect16"
             style="fill:#cccccc;stroke:none;stroke-width:0.264583;stroke-dasharray:none"
             d="m 39.911061,77.008967 -13.279012,5.0717 c -0.479515,0.174529 -1.086846,0.03167 -1.180524,-0.550508 l -0.250419,-1.556279 -1.694552,0.616655 c -0.479526,0.174502 -0.725392,0.701367 -0.550863,1.18088 l 0.63038,1.731028 c 0.174528,0.479514 0.701006,0.72503 1.180522,0.550501 l 14.714259,-5.355708 c 0.479515,-0.174529 0.725032,-0.701007 0.550502,-1.180526 z"
             sodipodi:nodetypes="ccscscccccc" /><path
             id="rect15"
             style="fill:#cccccc;stroke:none;stroke-width:0.264583;stroke-dasharray:none"
             d="M 30.399773,51.053902 17.046456,55.72694 c -0.479515,0.174529 -0.865589,0.01593 -0.865549,-0.494359 l 1.03e-4,-1.314709 -2.125836,0.706195 c -0.484268,0.160872 -0.725033,0.701007 -0.550503,1.180523 l 0.63002,1.731385 c 0.17453,0.479516 0.701368,0.725033 1.180883,0.550504 l 14.714258,-5.35571 c 0.479516,-0.174529 0.725033,-0.701007 0.550503,-1.180523 z"
             sodipodi:nodetypes="ccscscccccc" /><path
             id="rect14"
             style="fill:#ff8080;stroke:none;stroke-width:0.264583;stroke-dasharray:none"
             d="m 18.763113,56.647252 -2.582206,1.124037 8.19098,22.504416 12.98323,-4.725694 -0.597129,-2.332315 c 0,0 -9.292846,4.048555 -10.950623,3.612507 -1.999691,-0.525982 -7.044252,-20.182951 -7.044252,-20.182951 z"
             sodipodi:nodetypes="cccccsc" /><path
             id="path13"
             style="fill:#cccccc;stroke:none;stroke-width:0.264583;stroke-dasharray:none"
             d="m 20.656531,70.068372 c 0,0 -27.6475109,10.051982 -41.632809,14.827459 -0.513852,0.175462 -2.599671,0.424237 -3.013611,0.120245 -0.445541,-0.3272 -0.793265,-2.573292 -0.793265,-2.573292 l -1.75964,0.680777 c -0.479516,0.17453 -0.725392,0.701367 -0.550862,1.180883 l 1.2604,3.462052 c 0.174529,0.479519 0.701006,0.725036 1.180523,0.550503 L 21.221427,71.62021 c 0,0 -0.328207,-0.90154 -0.564896,-1.551842 z"
             sodipodi:nodetypes="csscccccccc" /><g
             id="g7"
             inkscape:path-effect="#path-effect12"><path
               style="fill:none;stroke:#000000;stroke-width:0.264583;stroke-dasharray:none"
               id="rect1"
               width="17.500952"
               height="3.6844141"
               x="-6.3959723"
               y="56.137062"
               ry="0.92110193"
               transform="rotate(-20)"
               sodipodi:type="rect"
               d="m -5.0888155,56.665007 c 5.26323961,-0.03628 10.3525811,-0.03081 15.4209995,-0.03419 0.502521,-3.36e-4 0.906685,0.410117 0.898674,0.919875 -0.0096,0.613415 -0.01937,1.226637 -0.02894,1.839579 -0.008,0.509331 -0.425316,0.919229 -0.943225,0.917883 -1.0641773,-0.0028 -2.1272748,-0.0065 -3.1879987,-0.01176 -4.2194048,-0.02076 -8.4011092,-0.05023 -12.5865013,-0.105695 -0.5120578,-0.0068 -0.924372,-0.423627 -0.9263021,-0.941426 -0.00232,-0.623156 -0.00483,-1.246919 -0.00765,-1.871345 -0.00235,-0.518944 0.4063078,-0.93727 0.9137985,-0.946769 2.0162782,-0.03774 4.0279822,-0.08317 6.03035845,-0.138272 3.15251545,-0.08676 6.35095825,-0.09134 9.57480185,-0.05749 0.02304,2.42e-4 0.04589,0.0013 0.0685,0.0032 M -5.5838828,56.015255 c 5.03398844,-0.0678 10.2008029,-0.100124 15.4029278,-0.181444 0.519505,-0.0081 0.938253,0.395457 0.948015,0.896681 0.01175,0.603096 0.02387,1.205369 0.0362,1.806672 0.01025,0.499609 -0.391856,0.901086 -0.8917268,0.889136 -1.0628392,-0.02541 -2.1254452,-0.05421 -3.1887513,-0.0872 -4.0518242,-0.125713 -8.1846513,-0.09029 -12.3292792,-0.0017 -0.511545,0.01093 -0.9235324,-0.390004 -0.9249984,-0.888086 -0.00176,-0.59929 -0.00361,-1.197687 -0.00531,-1.795542 -0.00141,-0.496788 0.4083031,-0.896042 0.9174684,-0.882043 2.059479,0.05662 4.1226043,0.116209 6.19798441,0.16533 1.19785689,0.02835 2.39451959,0.04983 3.59048529,0.06642 m -9.4735173,-0.170687 c 5.0036514,-0.07214 10.1613612,-0.05038 15.4218342,-0.02711 0.53194,0.0024 0.96171,0.41515 0.9853,0.927737 0.02839,0.616834 0.05822,1.233559 0.08942,1.850009 0.02592,0.512245 -0.362351,0.92459 -0.845091,0.926123 -1.0865816,0.0035 -2.1686696,0.0055 -3.246869,0.005 -3.8205184,-0.0017 -7.97449638,0.03892 -12.2552161,0.12003 -0.5367982,0.01017 -0.9710474,-0.391567 -1.0007732,-0.890551 -0.035767,-0.600391 -0.07386,-1.199865 -0.1135701,-1.798429 -0.032995,-0.497337 0.3491844,-0.896934 0.8248276,-0.88286 1.9828822,0.05867 3.9530478,0.128215 5.94001696,0.208363 1.72526544,0.06959 3.52334804,0.09601 5.37356484,0.09108 m -2.1638656,-0.22512 6.4343746,0 m -2.5031955,3.684414 -5.740625,0" /><path
               style="fill:none;stroke:#000000;stroke-width:0.264583;stroke-dasharray:none"
               id="rect2"
               width="17.500952"
               height="3.6844237"
               x="-6.3959708"
               y="83.770134"
               ry="0.92110193"
               transform="rotate(-20)"
               sodipodi:type="rect"
               d="m 0.14364113,83.238037 c 3.21238757,-0.01342 6.48777657,-0.01323 9.80579337,-0.0067 0.5209455,0.001 0.9413225,0.412837 0.9537895,0.924411 0.015,0.615634 0.03142,1.231457 0.04911,1.847418 0.0147,0.51186 -0.3831,0.924062 -0.877093,0.925788 -2.8503503,0.01 -5.6738502,0.02222 -8.4856382,0.0314 -2.17272663,0.0071 -4.405459,0.01827 -6.6719775,0.03536 -0.5085054,0.0038 -0.918888,-0.403504 -0.9198928,-0.909411 -0.00121,-0.608761 -0.00447,-1.217063 -0.00928,-1.82487 -0.00399,-0.505046 0.4025231,-0.911267 0.9071676,-0.905394 3.8791922,0.04515 7.7120373,0.111656 11.6329784,0.208903 1.2954609,0.03213 2.5856394,0.05685 3.8704455,0.07684 0.505699,0.0079 0.912167,0.424618 0.906082,0.941606 -0.0073,0.622054 -0.01586,1.243272 -0.02562,1.863939 -0.0081,0.515738 -0.426465,0.93086 -0.946379,0.935765 -3.8286677,0.03612 -7.7033886,0.06002 -11.6263519,0.137076 m -2.5349318,-3.268487 c 4.8666882,0.05536 9.683917,-0.01258 14.4990427,-0.140557 0.50897,-0.01353 0.918654,0.385426 0.917339,0.880987 -0.0016,0.596349 -0.0031,1.191828 -0.0045,1.786569 -0.0012,0.494176 -0.412863,0.89118 -0.924096,0.874216 -1.3700622,-0.04546 -2.7390498,-0.09408 -4.1058864,-0.144418 -3.8499543,-0.141787 -7.7058813,-0.171416 -11.565559,-0.193969 -0.5113122,-0.003 -0.9230193,-0.416189 -0.9241544,-0.929451 -0.00137,-0.617649 -0.00282,-1.235453 -0.00435,-1.853837 -0.00127,-0.513872 0.4084269,-0.927988 0.9173443,-0.932546 2.3401949,-0.02096 4.6793359,-0.05529 7.0179254,-0.126722 2.8633769,-0.08747 5.7433764,-0.0876 8.6355655,-0.03594 0.513722,0.0092 0.927646,0.429129 0.931745,0.95135 0.0049,0.62862 0.01039,1.259333 0.01633,1.891793 0.0026,0.27991 -0.111473,0.53129 -0.294951,0.707674 M -1.797496,84.160846 c 4.041033,0.05166 8.0137606,0.0452 11.972435,0.01981 0.508707,-0.0033 0.918037,0.404536 0.916136,0.911073 -0.0023,0.609523 -0.0048,1.218708 -0.0072,1.827698 -0.002,0.506056 -0.414528,0.913231 -0.926724,0.908828 -2.2326155,-0.01919 -4.4628699,-0.03944 -6.6812277,-0.05385 -2.98718973,-0.01941 -5.9951913,-0.05133 -9.0208032,-0.10483 -0.5155151,-0.0091 -0.931013,-0.428116 -0.9371386,-0.94868 -0.00737,-0.626516 -0.015463,-1.254001 -0.024245,-1.882532 -0.0073,-0.522382 0.3969791,-0.943743 0.8991309,-0.957166 3.1518945,-0.08425 6.28557821,-0.198659 9.4049674,-0.354314 1.9634979,-0.09798 3.9559509,-0.151578 5.9666159,-0.180655 0.3135261,-0.0045 0.5898501,0.147957 0.7557931,0.383787 m 0.353545,-2.085001 0.456858,5.948106 m -8.8326179,-0.138555 -7.60625,0" /><path
               style="fill:none;stroke:#000000;stroke-width:0.264583;stroke-dasharray:none"
               id="rect3"
               width="13.816542"
               height="23.948671"
               x="-4.5537672"
               y="59.82148"
               ry="1.1620202e-06"
               transform="rotate(-20)"
               sodipodi:type="rect"
               d="m 1.3168875,59.266489 c 2.6640402,0.02457 5.304325,0.07206 7.933356,0.151099 1.86e-5,0.001 3.53e-5,0.002 4.96e-5,0.003 0.0022,5.268866 -0.037612,10.65762 -0.02731,16.229864 0.00578,3.126816 0.02944,6.028829 0.073843,8.810832 5.158e-4,-0.001 0.00103,-0.002 0.00155,-0.0031 -4.5334698,-0.144719 -9.01341311,-0.595469 -13.4279791,-0.91894 0.00138,-0.0023 0.00277,-0.0047 0.00416,-0.007 0.00984,-0.252698 0.019856,-0.505054 0.030043,-0.757008 0.080864,-1.999874 0.1096614,-3.927408 0.1005538,-5.804431 m 8.4958944,7.285192 c -3.0100508,-0.03072 -6.0536005,-0.04522 -9.1215074,-0.05693 -4.258e-4,-1.29e-4 -8.545e-4,-2.58e-4 -0.00129,-3.87e-4 -0.060935,-4.729971 -0.1805556,-9.45357 -0.3244605,-14.221395 -0.099901,-3.309908 -0.1023401,-6.599035 -0.059941,-9.888316 4.32e-4,-1.86e-4 8.693e-4,-3.73e-4 0.00131,-5.59e-4 4.53262465,-0.02495 9.1481036,-0.05058 13.7118358,-0.13044 0.1347817,-0.0024 0.2694986,-0.0046 0.4041529,-0.0067 6.416e-4,-5.34e-4 0.00128,-0.0011 0.00191,-0.0016 0.01273,0.659912 0.023865,1.322884 0.03371,1.98865 M -3.8872757,60.230909 c 4.4353994,0.04926 8.8716164,-0.02235 13.3301486,-0.167829 3.364e-4,-0.0011 6.739e-4,-0.0022 0.00101,-0.0033 0.033765,3.216547 0.0803,6.391332 0.14881,9.54448 0.095873,4.412511 0.043663,9.11662 -0.053393,13.849954 -6.948e-4,5.56e-4 -0.00139,0.0011 -0.00209,0.0017 -3.1533998,0.05167 -6.3262099,0.115373 -9.48829197,0.114517 -1.55301423,-4.21e-4 -3.09217863,0.0065 -4.62157583,0.02086 -2.748e-4,3.14e-4 -5.448e-4,6.32e-4 -8.095e-4,9.53e-4 -0.034941,-4.356354 0.011498,-8.650807 0.039762,-12.883847 m 6.5886042,12.671872 c -2.30590078,0.01018 -4.5942522,0.01278 -6.8643593,0.01061 5.466e-4,-3.2e-5 0.0011,-6.5e-5 0.00165,-9.9e-5 0.090431,-5.438548 0.2820197,-10.903325 0.5838327,-16.357774 0.1416416,-2.559785 0.1696916,-5.114427 0.1295986,-7.667104 -5.242e-4,-3.8e-5 -0.00106,-7.6e-5 -0.00161,-1.14e-4 4.52989117,-0.0052 8.8394029,-0.004 13.1963582,-0.01533 -0.0018,-8.2e-5 -0.00359,-1.64e-4 -0.00539,-2.46e-4 -0.029913,0.554437 -0.059107,1.108692 -0.087111,1.66273 -0.2859522,5.657405 -0.042126,11.343409 0.2756799,17.02889 M -1.383359,60.244986 c 3.527329,-0.0097 7.0351263,-0.03442 10.5385596,-0.08035 8.4e-6,-4.37e-4 1.63e-5,-8.75e-4 2.33e-5,-0.0013 8.912e-4,4.182423 -0.0044,8.333634 0.011015,12.442437 0.013614,3.62982 0.018942,7.334398 0.02565,11.035159 5.97e-5,-3.88e-4 1.19e-4,-7.76e-4 1.783e-4,-0.0012 -3.9928581,-0.04669 -7.9840435,-0.09854 -11.9617715,-0.251332 -0.6020836,-0.02313 -1.2043571,-0.04203 -1.8067547,-0.05713 1.681e-4,-8.31e-4 3.36e-4,-0.0017 5.04e-4,-0.0025 0.015049,-3.058478 0.027168,-6.025027 0.044258,-8.950309 m 12.4228717,9.792728 c -4.4178611,-0.0297 -8.81906209,-0.117186 -13.1887518,-0.291165 4.842e-4,-0.0013 9.704e-4,-0.0026 0.00146,-0.0039 0.04846,-3.437638 0.1145078,-6.923501 0.2043039,-10.469499 0.1269715,-5.014032 0.093339,-9.504488 0.037248,-13.837373 -3.999e-4,0.0024 -8.003e-4,0.0049 -0.0012,0.0074 3.0314583,0.226604 6.05366994,0.519939 9.1056732,0.776577 1.5287922,0.128554 3.0640817,0.207043 4.6048784,0.250521 8.21e-5,9.43e-4 1.666e-4,0.0019 2.532e-4,0.0028 0.010098,3.992633 0.055271,7.763501 0.1195159,11.555964 m 0.4882229,-0.343761 0,6.78125 M 0.63910761,83.770151 H -5.4858924" /><path
               id="rect4"
               style="fill:none;stroke:#000000;stroke-width:0.264583;stroke-dasharray:none"
               d="M -22.76641,81.234257 C -15.363405,78.718372 -8.1907729,76.161335 -0.96305235,73.99921 5.6920273,72.008388 12.533312,69.116842 19.381145,66.487479 c 2e-6,-3e-6 2.1e-5,4.2e-5 5.7e-5,1.34e-4 0.0046,0.01176 0.302959,0.770622 0.66682,1.705325 0,0 0,0 0,0 0.105623,0.271328 0.213419,0.550029 0.323425,0.836389 0.488219,1.2709 0.963282,2.555273 0.969016,2.570763 3.5e-5,9.5e-5 5.3e-5,1.42e-4 5.3e-5,1.41e-4 -2.554189,0.921053 -5.143472,1.877957 -7.750606,2.85263 m -0.452559,-5.438676 c 2.089292,-0.783896 4.174456,-1.55388 6.258923,-2.316624 1e-6,0 1.9e-5,4.7e-5 5.3e-5,1.42e-4 -0.123849,-0.334567 1.079862,2.92527 0.956013,2.590704 0.475202,1.288984 0.951025,2.579792 0.956766,2.59536 3.5e-5,9.4e-5 5.3e-5,1.42e-4 5.4e-5,1.42e-4 -3.481826,1.273724 -6.957497,2.552208 -10.410573,3.803495 -7.2131991,2.613838 -14.5794777,5.37754 -21.805066,8.148436 l -2e-6,10e-7 c -1.487729,0.57052 -2.98564,1.130089 -4.491565,1.681549 M 4.9716404,77.773325 c -7.3067842,2.725092 -14.4904243,5.098285 -21.5534824,7.312901 -2.513376,0.788067 -5.106436,1.680972 -7.746244,2.618956 -0.487101,0.173082 -1.020898,-0.07248 -1.205682,-0.551021 -0.444658,-1.151547 -0.897396,-2.296264 -1.355333,-3.43938 -0.190279,-0.474981 0.04128,-0.99743 0.503619,-1.167249 2.552703,-0.937619 5.083995,-1.877622 7.628681,-2.883163 2.606673,-1.030036 5.300836,-2.012952 8.038592,-2.966366 m -13.953957,6.176823 c 7.262805,-2.510864 14.7200054,-5.279053 22.2410385,-7.863959 l 2.2e-6,-1e-6 C 5.0931309,72.424851 12.225923,69.566 19.612219,66.655398 l 2e-6,-1e-6 c 0.02644,-0.01042 0.05288,-0.02083 0.07932,-0.03124 1e-6,-4e-6 1.9e-5,4.1e-5 5.5e-5,1.32e-4 0.0058,0.01504 0.488778,1.262715 0.965519,2.529869 0.476742,1.267154 0.948061,2.551338 0.953749,2.566823 3.5e-5,9.4e-5 5.2e-5,1.41e-4 5.2e-5,1.41e-4 -3.725009,1.337978 -7.479056,2.767177 -11.230399,4.1877 m 9.292035,-9.24919 c 0.200956,0.538534 0.475599,1.279481 0.802008,2.175796 0.471558,1.294892 0.932206,2.595509 0.937764,2.611198 3.4e-5,9.6e-5 5.1e-5,1.44e-4 5e-5,1.45e-4 -5.755461,2.125425 -11.6615226,4.334501 -17.6204542,6.621625 l -2.3e-6,10e-7 c -7.6195189,2.924481 -14.5791605,5.06587 -21.8089715,7.218749 -2.242377,0.66773 -4.498828,1.436744 -6.762388,2.261819 -0.478924,0.174572 -1.004963,-0.06879 -1.179413,-0.544143 -0.419679,-1.143569 -0.840839,-2.274952 -1.262562,-3.400117 -0.175196,-0.467428 0.0696,-0.98311 0.548338,-1.143994 2.388883,-0.802813 4.776901,-1.588973 7.172248,-2.411678 m -0.359418,0.703011 c 7.451093,-2.63157 14.5921103,-5.12966 21.8540771,-7.406772 5.8267224,-1.827067 11.5484359,-4.10825 17.0984239,-6.253563 -5e-6,0 8e-6,4.7e-5 3.7e-5,1.42e-4 0.0048,0.01553 0.405957,1.302528 0.795535,2.602069 0.197833,0.659927 0.371514,1.249651 0.521158,1.76372 0.148852,0.511346 0.254414,0.856411 0.256856,0.864469 3e-5,9.6e-5 4.1e-5,1.45e-4 3.6e-5,1.46e-4 -6.965863,2.486091 -13.0807778,4.799584 -19.4474677,7.192313 M 18.987988,72.159391 c -7.447206,2.504413 -14.6045176,5.334282 -21.8892386,8.031934 -7.2292724,2.67712 -14.2776094,5.403197 -21.0887814,8.29301 -0.05637,0.02392 -0.11355,0.04122 -0.170721,0.05228 -0.399831,0.0774 -0.802822,-0.151973 -0.93698,-0.560271 -0.369123,-1.123398 -0.765912,-2.26047 -1.185128,-3.408175 -0.174286,-0.477151 0.06827,-1.002559 0.541428,-1.177823 1.384504,-0.512844 2.738864,-1.039652 4.072512,-1.574947 m 8.278968,2.887062 c -3.723501,1.408104 -7.494586,2.791332 -11.263135,4.173169 -0.477366,0.175042 -1.002093,-0.07008 -1.174313,-0.549084 -0.414486,-1.152838 -0.828178,-2.305544 -1.239655,-3.457452 -0.170958,-0.478588 0.07787,-1.004312 0.561733,-1.177629 1.472388,-0.527402 2.949207,-1.053111 4.433328,-1.575782 7.434173,-2.618134 14.4051996,-5.571078 21.2894402,-8.734375 l 1.97e-6,-10e-7 C 4.0716363,71.150819 9.4264138,69.51035 14.83363,67.932688 m -12.360124,4.629889 5.6146634,-2.04357 m -17.5120953,12.255184 -5.2798981,1.921725"
               sodipodi:nodetypes="sccssss"
               inkscape:original-d="M -26.542972,83.123711 19.331344,66.426826 c 1.8e-5,-7e-6 1.890215,5.193323 1.890215,5.193323 l -45.874316,16.696882 c -0.479517,0.174533 -1.006059,-0.071 -1.180589,-0.550517 L -27.09349,84.3043 c -0.174529,-0.479516 0.071,-1.006058 0.550518,-1.180589 z" /><path
               id="rect5"
               style="fill:none;stroke:#000000;stroke-width:0.264583;stroke-dasharray:none"
               d="m 26.033149,92.947858 c 4.404234,0.03515 8.968317,-0.0062 13.616085,-0.08961 0.529357,-0.0095 0.956796,0.392869 0.977709,0.892718 0.03775,0.90217 0.07868,1.802717 0.122146,2.701938 1e-6,-10e-7 -1.3e-5,-10e-7 -4.4e-5,-2e-6 -0.0079,-1.96e-4 -1.053044,-0.0257 -2.607566,-0.06882 -0.827531,-0.02295 -1.736915,-0.04914 -2.767152,-0.08001 -0.943541,-0.02827 -1.929533,-0.05063 -2.967134,-0.0677 -4.279056,-0.07041 -8.890995,-0.04259 -8.908436,-0.04255 -3.3e-5,0 -5e-5,0 -5.2e-5,0 -0.04459,-0.918844 -0.09574,-1.836708 -0.151285,-2.754676 -0.03077,-0.50855 0.353191,-0.917923 0.830482,-0.916412 2.272758,0.0072 4.522751,0.0097 6.789533,-0.01245 2.602425,-0.02543 5.360107,-0.01397 8.20097,0.02487 0.519912,0.0071 0.940526,0.424679 0.954754,0.943662 0.02569,0.936961 0.05908,1.876727 0.09759,2.818957 1e-6,10e-7 -1.3e-5,10e-7 -4.4e-5,2e-6 -0.008,1.92e-4 -1.058975,0.02417 -2.61656,0.06988 -1.157453,0.03397 -2.452475,0.0758 -3.946943,0.129366 M 30.70358,92.464179 c 3.124625,-0.0026 6.263217,-0.0028 9.407593,-0.0022 0.510783,9.9e-5 0.922105,0.411012 0.922842,0.921428 0.0013,0.921341 0.003,1.842725 0.005,2.764108 0,0 -1.6e-5,0 -4.8e-5,0 0.154975,-7.9e-5 -2.892836,8.67e-4 -2.737862,7.88e-4 0.272527,-7e-5 -5.723022,3.99e-4 -5.995549,4.69e-4 0.0069,10e-7 -0.943517,-2.12e-4 -0.936649,-2.1e-4 -4.030278,-0.0011 -7.818635,-0.04376 -7.83417,-0.04393 -3.2e-5,-1e-6 -4.8e-5,-1e-6 -4.8e-5,-1e-6 -0.0056,-0.931258 -0.01215,-1.864293 -0.01976,-2.799126 -0.0042,-0.517949 0.402795,-0.935506 0.908324,-0.944158 3.734335,-0.06391 7.452132,-0.158103 11.155949,-0.283922 1.424491,-0.04839 2.856673,-0.07914 4.293876,-0.09725 0.505899,-0.0064 0.913424,0.400506 0.910048,0.907036 -0.0061,0.914597 -0.01053,1.833626 -0.01397,2.755805 0,0 -1.6e-5,0 -4.8e-5,0 -0.0083,1.1e-5 -1.108366,4.66e-4 -2.751891,0.01126 -2.121474,0.01394 -3.352661,0.02941 -6.023432,0.053 -1.692471,0.01495 -3.192783,0.025 -4.671508,0.0274 m 1.297625,-3.815907 c 3.726601,-0.01903 7.529169,-0.01423 11.356384,-6.8e-5 0.514298,0.0019 0.928752,0.41446 0.933452,0.926923 0.0085,0.925062 0.01803,1.850566 0.02792,2.776307 0,0 -1.5e-5,10e-7 -4.7e-5,10e-7 -1.864584,0.0099 -0.849569,0.0044 -2.714153,0.01431 3.774896,-0.02031 -8.705224,0.0459 -4.930328,0.02559 0,0 0,0 0,0 0.0041,-1.9e-5 -1.029852,0.0059 -1.025778,0.0058 -4.348998,0.0288 -8.779276,0.1334 -8.796138,0.133809 -3.2e-5,10e-7 -4.8e-5,2e-6 -4.9e-5,3e-6 -0.01255,-0.898424 -0.02727,-1.793949 -0.0439,-2.6864 -0.0092,-0.494312 0.393349,-0.891191 0.893406,-0.873504 3.050689,0.107906 6.080983,0.251978 9.100728,0.43897 2.042683,0.126489 4.129716,0.17677 6.247086,0.178567 0.513198,4.35e-4 0.927537,0.409065 0.933463,0.91503 0.01069,0.912809 0.02657,1.81756 0.04646,2.716571 1e-6,0 -1.4e-5,-10e-7 -4.6e-5,-2e-6 -0.0081,-1.98e-4 -1.081759,-0.02497 -2.673869,-0.08052 -2.017521,-0.07039 -3.276114,-0.128165 -5.80396,-0.228383 0.0056,2.23e-4 -0.364106,-0.01434 -0.358493,-0.01412 m -1.083773,-3.681676 7.371875,2e-6 m 0.863266,3.684418 -7.278125,-4e-6"
               sodipodi:nodetypes="sssccss"
               inkscape:original-d="m 23.96994,92.48606 15.658748,6e-6 c 0.51029,0 0.921102,0.410812 0.921102,0.921099 v 2.763315 c 0,7e-6 -17.500952,-7e-6 -17.500952,-7e-6 v -2.763315 c 0,-0.510287 0.410812,-0.921098 0.921102,-0.921098 z" /></g></g></g></g></g></svg>
