<?xml version="1.0" encoding="UTF-8" standalone="no"?>
<!-- Created with Inkscape (http://www.inkscape.org/) -->

<svg
   width="240"
   height="200"
   viewBox="0 0 63.500009 52.916674"
   version="1.1"
   id="svg1"
   inkscape:version="1.3.2 (091e20ef0f, 2023-11-25, custom)"
   sodipodi:docname="game-idea.svg"
   xml:space="preserve"
   xmlns:inkscape="http://www.inkscape.org/namespaces/inkscape"
   xmlns:sodipodi="http://sodipodi.sourceforge.net/DTD/sodipodi-0.dtd"
   xmlns="http://www.w3.org/2000/svg"
   xmlns:svg="http://www.w3.org/2000/svg"><sodipodi:namedview
     id="namedview1"
     pagecolor="#ffffff"
     bordercolor="#000000"
     borderopacity="0.25"
     inkscape:showpageshadow="2"
     inkscape:pageopacity="0.0"
     inkscape:pagecheckerboard="0"
     inkscape:deskcolor="#d1d1d1"
     inkscape:document-units="px"
     inkscape:zoom="1.6"
     inkscape:cx="120"
     inkscape:cy="100"
     inkscape:window-width="1440"
     inkscape:window-height="831"
     inkscape:window-x="0"
     inkscape:window-y="0"
     inkscape:window-maximized="1"
     inkscape:current-layer="g1"
     showgrid="true"><inkscape:grid
       id="grid10"
       units="px"
       originx="0"
       originy="0"
       spacingx="1.3229168"
       spacingy="1.3229168"
       empcolor="#0099e5"
       empopacity="0.30196078"
       color="#0099e5"
       opacity="0.14901961"
       empspacing="5"
       dotted="false"
       gridanglex="30"
       gridanglez="30"
       visible="true" /></sodipodi:namedview><defs
     id="defs1"><inkscape:path-effect
       effect="sketch"
       id="path-effect38"
       is_visible="true"
       lpeversion="1"
       nbiter_approxstrokes="3"
       parallel_offset="0.2;1"
       strokelength="26.5"
       strokelength_rdm="0.5;1"
       strokeoverlap="0"
       strokeoverlap_rdm="0.2;1"
       ends_tolerance="0.4;1"
       tremble_size="0.2;1"
       tremble_frequency="2"
       nbtangents="0"
       tgt_places_rdmness="0.5;1"
       tgtlength="5"
       tgtlength_rdm="0.3;1"
       tgtscale="10" /><inkscape:path-effect
       effect="sketch"
       id="path-effect37"
       is_visible="true"
       lpeversion="1"
       nbiter_approxstrokes="3"
       parallel_offset="0.2;1"
       strokelength="70"
       strokelength_rdm="0.3;1"
       strokeoverlap="0.5"
       strokeoverlap_rdm="0.5;1"
       ends_tolerance="0.1;1"
       tremble_size="0.8;1"
       tremble_frequency="3"
       nbtangents="2"
       tgt_places_rdmness="0.5;1"
       tgtlength="5"
       tgtlength_rdm="0.3;1"
       tgtscale="10" /><inkscape:path-effect
       effect="sketch"
       id="path-effect26"
       is_visible="true"
       lpeversion="1"
       nbiter_approxstrokes="3"
       parallel_offset="0.2;1"
       strokelength="70"
       strokelength_rdm="0.3;773110458"
       strokeoverlap="0.4"
       strokeoverlap_rdm="0.5;1"
       ends_tolerance="0.1;1"
       tremble_size="0.8;1"
       tremble_frequency="3"
       nbtangents="2"
       tgt_places_rdmness="0.5;1"
       tgtlength="5"
       tgtlength_rdm="0.3;1"
       tgtscale="10" /><inkscape:path-effect
       effect="sketch"
       id="path-effect25"
       is_visible="true"
       lpeversion="1"
       nbiter_approxstrokes="3"
       parallel_offset="0.2;1"
       strokelength="70"
       strokelength_rdm="0.3;1"
       strokeoverlap="0.5"
       strokeoverlap_rdm="0.5;1"
       ends_tolerance="0.1;1"
       tremble_size="0.8;1"
       tremble_frequency="3"
       nbtangents="2"
       tgt_places_rdmness="0.5;1"
       tgtlength="5"
       tgtlength_rdm="0.3;1"
       tgtscale="10" /><inkscape:path-effect
       effect="sketch"
       id="path-effect13"
       is_visible="true"
       lpeversion="1"
       nbiter_approxstrokes="3"
       parallel_offset="0.2;1"
       strokelength="70"
       strokelength_rdm="0.3;1"
       strokeoverlap="0.5"
       strokeoverlap_rdm="0.5;1"
       ends_tolerance="0.1;1"
       tremble_size="0.8;1"
       tremble_frequency="3"
       nbtangents="3"
       tgt_places_rdmness="0.5;1"
       tgtlength="5"
       tgtlength_rdm="0.3;1"
       tgtscale="10" /><inkscape:path-effect
       effect="sketch"
       id="path-effect12"
       is_visible="true"
       lpeversion="1"
       nbiter_approxstrokes="3"
       parallel_offset="0.2;1"
       strokelength="70"
       strokelength_rdm="0.3;1"
       strokeoverlap="0.5"
       strokeoverlap_rdm="0.5;1"
       ends_tolerance="0.1;1"
       tremble_size="0.8;1"
       tremble_frequency="3"
       nbtangents="2"
       tgt_places_rdmness="0.5;1"
       tgtlength="10"
       tgtlength_rdm="0.3;1"
       tgtscale="10" /><inkscape:path-effect
       effect="sketch"
       id="path-effect18"
       is_visible="true"
       lpeversion="1"
       nbiter_approxstrokes="3"
       parallel_offset="0.2;1"
       strokelength="70"
       strokelength_rdm="0.3;1"
       strokeoverlap="0.5"
       strokeoverlap_rdm="0.5;1"
       ends_tolerance="0.1;1"
       tremble_size="0.8;1"
       tremble_frequency="3"
       nbtangents="2"
       tgt_places_rdmness="0.5;1"
       tgtlength="10"
       tgtlength_rdm="0.3;1"
       tgtscale="10" /><inkscape:path-effect
       effect="sketch"
       id="path-effect10"
       is_visible="true"
       lpeversion="1"
       nbiter_approxstrokes="3"
       parallel_offset="0.2;1"
       strokelength="70"
       strokelength_rdm="0.3;1"
       strokeoverlap="0.5"
       strokeoverlap_rdm="0.5;1"
       ends_tolerance="0.1;1"
       tremble_size="0.8;1"
       tremble_frequency="3"
       nbtangents="2"
       tgt_places_rdmness="0.5;1"
       tgtlength="10"
       tgtlength_rdm="0.3;1"
       tgtscale="10" /><inkscape:path-effect
       effect="sketch"
       id="path-effect9"
       is_visible="true"
       lpeversion="1"
       nbiter_approxstrokes="3"
       parallel_offset="0.2;1"
       strokelength="70"
       strokelength_rdm="0.3;1"
       strokeoverlap="0.5"
       strokeoverlap_rdm="0.5;1"
       ends_tolerance="0.1;1"
       tremble_size="0.8;1"
       tremble_frequency="3"
       nbtangents="2"
       tgt_places_rdmness="0.5;1"
       tgtlength="10"
       tgtlength_rdm="0.3;1"
       tgtscale="10" /><inkscape:path-effect
       effect="sketch"
       id="path-effect8"
       is_visible="true"
       lpeversion="1"
       nbiter_approxstrokes="3"
       parallel_offset="0.2;1"
       strokelength="70"
       strokelength_rdm="0.3;1"
       strokeoverlap="0.5"
       strokeoverlap_rdm="0.5;1"
       ends_tolerance="0.1;1"
       tremble_size="0.8;1"
       tremble_frequency="3"
       nbtangents="2"
       tgt_places_rdmness="0.5;1"
       tgtlength="10"
       tgtlength_rdm="0.3;1"
       tgtscale="10" /><inkscape:path-effect
       effect="sketch"
       id="path-effect3"
       is_visible="true"
       lpeversion="1"
       nbiter_approxstrokes="3"
       parallel_offset="0.2;1"
       strokelength="70"
       strokelength_rdm="0.3;1"
       strokeoverlap="0.5"
       strokeoverlap_rdm="0.5;1"
       ends_tolerance="0.1;1"
       tremble_size="0.8;1"
       tremble_frequency="3"
       nbtangents="2"
       tgt_places_rdmness="0.5;1"
       tgtlength="10"
       tgtlength_rdm="0.3;1"
       tgtscale="10" /><inkscape:path-effect
       effect="sketch"
       id="path-effect2"
       is_visible="true"
       lpeversion="1"
       nbiter_approxstrokes="4"
       parallel_offset="0.7;1"
       strokelength="50"
       strokelength_rdm="0.3;1"
       strokeoverlap="0.3"
       strokeoverlap_rdm="0.3;1"
       ends_tolerance="0.1;1"
       tremble_size="0.8;1"
       tremble_frequency="3"
       nbtangents="0"
       tgt_places_rdmness="1;1"
       tgtlength="100"
       tgtlength_rdm="0.3;1"
       tgtscale="10" /><inkscape:path-effect
       effect="sketch"
       id="path-effect1"
       is_visible="true"
       lpeversion="1"
       nbiter_approxstrokes="3"
       parallel_offset="0.5;1"
       strokelength="50"
       strokelength_rdm="0.3;1"
       strokeoverlap="0.3"
       strokeoverlap_rdm="0.3;1"
       ends_tolerance="0.1;1"
       tremble_size="1;1"
       tremble_frequency="3"
       nbtangents="0"
       tgt_places_rdmness="1;1"
       tgtlength="100"
       tgtlength_rdm="0.3;1"
       tgtscale="10" /><inkscape:path-effect
       effect="sketch"
       id="path-effect11"
       is_visible="true"
       lpeversion="1"
       nbiter_approxstrokes="3"
       parallel_offset="0.5;1"
       strokelength="50"
       strokelength_rdm="0.3;1"
       strokeoverlap="0.3"
       strokeoverlap_rdm="0.3;1"
       ends_tolerance="0.1;1"
       tremble_size="1;1"
       tremble_frequency="3"
       nbtangents="0"
       tgt_places_rdmness="1;1"
       tgtlength="100"
       tgtlength_rdm="0.3;1"
       tgtscale="10" /><inkscape:path-effect
       effect="sketch"
       id="path-effect7"
       is_visible="true"
       lpeversion="1"
       nbiter_approxstrokes="3"
       parallel_offset="1;1"
       strokelength="50"
       strokelength_rdm="0.3;1"
       strokeoverlap="0.3"
       strokeoverlap_rdm="0.3;1"
       ends_tolerance="0.1;1"
       tremble_size="1.2;1"
       tremble_frequency="3"
       nbtangents="0"
       tgt_places_rdmness="1;1"
       tgtlength="100"
       tgtlength_rdm="0.3;1"
       tgtscale="10" /><rect
       x="223.77509"
       y="306.53192"
       width="415.43015"
       height="124.34706"
       id="rect6" /><inkscape:path-effect
       effect="sketch"
       id="path-effect6"
       is_visible="true"
       lpeversion="1"
       nbiter_approxstrokes="3"
       parallel_offset="1;1"
       strokelength="50"
       strokelength_rdm="0.3;1"
       strokeoverlap="0.3"
       strokeoverlap_rdm="0.3;1"
       ends_tolerance="0.1;1"
       tremble_size="1.2;1"
       tremble_frequency="3"
       nbtangents="0"
       tgt_places_rdmness="1;1"
       tgtlength="100"
       tgtlength_rdm="0.3;1"
       tgtscale="10" /><inkscape:path-effect
       effect="sketch"
       id="path-effect5"
       is_visible="true"
       lpeversion="1"
       nbiter_approxstrokes="3"
       parallel_offset="1;1"
       strokelength="50"
       strokelength_rdm="0.3;1"
       strokeoverlap="0.3"
       strokeoverlap_rdm="0.3;1"
       ends_tolerance="0.1;1"
       tremble_size="1.2;1"
       tremble_frequency="3"
       nbtangents="0"
       tgt_places_rdmness="1;1"
       tgtlength="100"
       tgtlength_rdm="0.3;1"
       tgtscale="10" /></defs><g
     inkscape:label="Layer 1"
     inkscape:groupmode="layer"
     id="layer1"><g
       id="g6"><g
         id="g9"
         transform="translate(28.418657,-43.5)"><g
           id="g10"><g
             id="g1"
             transform="matrix(1.0406646,0,0,1.0406646,-0.14223599,-7.5308883)"><path
               id="path23"
               style="fill:#e6e6e6;stroke:none;stroke-width:0.25424461;stroke-linecap:round;stroke-linejoin:round;stroke-dasharray:none"
               d="m 9.7660833,85.701329 c -0.5511623,0.87222 0.2650357,10.803517 -0.7690798,11.015125 -2.6077305,0.533618 -9.13211482,0.312423 -10.6588787,0 -1.0341154,-0.211608 -0.3121841,-9.623255 -0.8539591,-10.501337 z"
               sodipodi:nodetypes="csscc" /><path
               id="path24"
               style="fill:#b3b3b3;stroke:none;stroke-width:0.25424461;stroke-linecap:round;stroke-linejoin:round;stroke-dasharray:none"
               d="m -2.5159111,86.215314 c 0.5417744,0.878081 -0.1800316,10.289661 0.8540828,10.501269 1.52676234,0.312422 8.05106,0.533617 10.6587876,0 0.285699,-0.05847 0.4340582,-0.831909 0.5145277,-1.921373 -3.055319,0.248113 -7.7755962,0.05324 -9.04538142,-0.206558 -0.76373982,-0.156283 -0.57050903,-5.324538 -0.63505527,-8.373338 z" /><path
               id="path26"
               style="fill:#ffeeaa;stroke:#000000;stroke-width:0.25424461;stroke-linecap:round;stroke-linejoin:round;stroke-dasharray:none"
               d="m 19.254734,68.026764 c 0,6.887319 -5.192749,10.692867 -9.7022178,17.829148 -12.3667978,0 0,0 -12.3667978,0 -4.403071,-7.136281 -9.7022174,-10.940564 -9.7022174,-17.829148 0,-8.773383 7.1122327,-15.885617 15.8856162,-15.885617 8.7733838,0 15.8856168,7.112233 15.8856168,15.885617 z"
               sodipodi:nodetypes="sccsss" /><g
               id="g26"
               inkscape:path-effect="#path-effect26"
               style="stroke-width:0.31612306;stroke-linecap:round;stroke-linejoin:round;stroke-dasharray:none"
               transform="matrix(0.80425836,0,0,0.80425836,4.9989209,11.815387)"><path
                 id="path1"
                 style="fill:none;stroke:#000000;stroke-width:0.31612306;stroke-linecap:round;stroke-linejoin:round;stroke-dasharray:none"
                 d="m 17.386042,75.129564 c -0.605272,2.242203 -1.753685,4.29978 -3.202753,6.384634 -2.334459,3.358715 -5.4754365,6.819789 -8.400166,11.271021 -0.8366199,0.0023 -1.5758436,0.0028 -2.2431,0.002 -3e-7,0 -6e-7,0 -9e-7,0 -5.3121985,-0.0063 -5.564956,-0.02617 -5.5792572,-0.02629 -0.00157,-1.3e-5 -3.9e-5,-2.6e-5 -0.00161,-3.9e-5 -0.01609,-1.34e-4 -0.3518174,0.03445 -7.7775248,-0.105162 -1.9984146,-3.231372 -4.1355936,-5.934424 -6.1268586,-8.512834 -0.657235,-0.851028 -1.279801,-1.673466 -1.857679,-2.482306 m 7.8061074,10.415579 c 0.00232,2.7e-5 -0.2446294,-0.0028 -0.2423094,-0.0028 -2.885219,-4.498634 -5.82973,-7.97921 -8.090736,-11.467664 -1.783474,-2.751679 -3.134525,-5.510738 -3.60565,-8.779969 -0.125877,-0.873487 -0.188795,-1.769697 -0.179395,-2.698285 0.05674,-5.605674 2.2811,-10.31125 5.922604,-13.671881 1.250231,-1.153799 2.666808,-2.147535 4.219419,-2.96176 2.967051,-1.55599 6.3555978,-2.475073 9.9615829,-2.457337 2.21671169,0.0109 4.3465687,0.375201 6.347554,1.053664 M -9.2381789,51.29067 c 2.0915525,-0.831105 4.4135296,-1.291308 6.8900186,-1.318221 5.6009404,-0.06087 10.9080112,2.09863 14.9374613,5.510675 0.212108,0.179608 0.420695,0.362691 0.625626,0.54911 3.686984,3.353929 5.462891,8.233627 5.048004,13.75632 -0.251106,3.342556 -1.375548,6.195375 -2.962082,8.94876 -0.589009,1.022207 -1.220965,1.994998 -1.880023,2.940817 -1.503725,2.158005 -3.143643,4.169318 -4.7304462,6.296091 M 15.743067,76.051904 c -0.707277,1.573311 -1.605479,3.058655 -2.618575,4.550762 -2.270978,3.344738 -5.1022714,6.705914 -7.5791281,11.056547 -1.6393835,-0.02862 -2.9986014,-0.0565 -3.9397159,-0.07672 -2e-7,0 -4e-7,0 -7e-7,0 -3.0329657,-0.06516 -3.2794396,-0.04061 -3.2910311,-0.04065 -0.0015,-6e-6 1.076e-4,-1.2e-5 -0.00139,-1.8e-5 -0.00767,-3.1e-5 -0.089841,-0.0024 -1.0677947,-0.0017 -0.7775584,5.55e-4 -3.05362,0.0036 -6.5520005,0.08141 -2.4184344,-3.748382 -5.1022284,-6.65883 -7.2219094,-9.463062 -0.323006,-0.427321 -0.638577,-0.853492 -0.9442,-1.280366 -0.886823,-1.238653 -1.688578,-2.481367 -2.348435,-3.77887 m 11.7042201,15.588095 c -0.3227791,0.0042 -0.6627905,0.0079 -1.0197989,0.01087 -2.6625652,-4.393852 -5.7530232,-7.921725 -8.1613702,-11.445171 -1.738639,-2.543655 -3.126877,-5.087529 -3.788814,-8.004656 -0.25533,-1.125225 -0.400299,-2.291176 -0.415244,-3.521958 -0.06828,-5.622661 2.147751,-10.512683 5.656461,-14.186884 1.021662,-1.06985 2.153014,-2.036724 3.370907,-2.889979 2.613735,-1.831179 5.7540116,-2.889399 9.1815775,-3.01977 m -13.9062455,8.928337 c 0.572076,-0.703471 1.184486,-1.371494 1.833943,-1.999188 3.674578,-3.551441 8.5320775,-5.808057 13.934403,-5.870322 1.73629698,-0.02001 3.4241879,0.187792 5.0428425,0.597378 3.4182301,0.864953 6.4229305,2.614424 8.7491835,4.958504 2.879513,2.901579 4.726438,6.724493 5.005823,10.891565 0.05294,0.78956 0.06451,1.604026 0.02992,2.438671 -0.0284,0.685293 -0.09344,1.348649 -0.19369,1.995408 M 14.330506,59.327039 c 1.798063,2.946522 2.826109,6.445128 2.892507,10.287039 0.07855,4.545328 -1.454875,8.169483 -3.57866,12.057224 -0.178685,0.327096 -0.361416,0.655887 -0.547624,0.987233 -2.099461,3.73588 -4.6503797,6.598469 -7.3027373,10.266866 -2.7048756,-0.28811 -6.53856618,-0.831106 -6.56692111,-0.835015 -0.62755939,-0.08649 -0.45981339,-0.06318 -1.08737279,-0.149674 -0.00153,-2.1e-4 4.47e-5,-4.2e-4 -0.00148,-6.29e-4 -0.011016,-0.0015 -0.19906,-0.04156 -2.77591,-0.370086 -1e-7,0 -3e-7,0 -5e-7,0 -0.9129506,-0.116395 -2.2232168,-0.248432 -3.9258589,-0.301312 M 16.726569,76.020426 c -0.685713,1.761396 -1.681502,3.423915 -2.871618,5.106087 -2.367767,3.346725 -5.5079458,6.787103 -8.550934,11.240658 -1.5211823,0.0047 -2.7214821,0.0055 -3.7374315,0.0044 -2e-7,-10e-7 -5e-7,-10e-7 -7e-7,-10e-7 -4.0936381,-0.0047 -4.2515463,-0.01674 -4.2645281,-0.01683 -0.00158,-1.1e-5 -5.19e-5,-2.2e-5 -0.00163,-3.3e-5 -0.016156,-1.11e-4 -0.4823,0.03855 -7.6388229,-0.09779 -2.1699,-3.763708 -4.35269,-6.679188 -6.406741,-9.657456 -0.453255,-0.657196 -0.889902,-1.297372 -1.305073,-1.931034 -1.267366,-1.934341 -2.32368,-3.792672 -2.990527,-5.792713 m 6.402472,10.240295 c -0.949816,-1.243529 -1.865582,-2.460742 -2.69734,-3.689266 -2.313527,-3.417125 -3.976326,-6.910004 -3.988578,-11.46908 -0.0068,-2.521495 0.403112,-4.969382 1.16818,-7.268861 1.00164,-3.010514 2.573846,-5.535208 4.561878,-7.529638 3.334171,-3.344899 7.8130194,-5.181809 12.7603388,-5.33112 0.2675781,-0.0081 0.5374289,-0.01029 0.8094101,-0.0065 4.0389318,0.05616 7.9536655,1.42658 11.2321556,3.770049 M -11.240753,51.916103 c 2.5729815,-1.19746 5.4816065,-1.890582 8.5959974,-1.933448 5.2785299,-0.07265 10.1989695,1.733962 14.0972456,4.76054 0.253045,0.196461 0.498755,0.399215 0.737049,0.608003 3.904879,3.421376 5.831167,8.47117 5.388594,14.074565 -0.201748,2.554321 -0.943206,4.784502 -2.025136,6.869584 -0.78316,1.509294 -1.689821,2.925087 -2.670647,4.338839 -0.868416,1.251725 -1.800359,2.509069 -2.733418,3.79749 m -27.716768,-2.78458 -3.89936,-7.034511 M 5.5143557,51.280914 11.572857,55.126222"
                 sodipodi:nodetypes="sccsss"
                 inkscape:original-d="m 17.725415,69.892189 c 0,8.563565 -6.456569,13.295313 -12.0635587,22.168433 -15.3766481,0 0,0 -15.3766481,0 C -15.189489,83.187502 -21.77835,78.457327 -21.77835,69.892189 c 0,-10.908663 8.843219,-19.751883 19.7518822,-19.751883 10.9086637,0 19.7518828,8.843219 19.7518828,19.751883 z" /><path
                 style="fill:none;stroke:#000000;stroke-width:0.31612306;stroke-linecap:round;stroke-linejoin:round;stroke-dasharray:none"
                 d="m -7.7840897,95.651485 c 2.8677719,-0.02285 5.7109956,-0.05157 8.53982368,-0.09773 M -3.7484412,94.363728 c 0.6057621,-0.0208 1.2136061,-0.03682 1.8234839,-0.04861 m -0.5295171,1.655078 c 1.48665919,-0.01794 2.97385682,-0.04733 4.4611105,-0.08971 m -7.0495183,-0.786737 h 7.4570313 m -9.6968181,0 h 9.5078125"
                 id="path4"
                 inkscape:original-d="M -8.5749057,95.093753 H 4.6542617" /><path
                 style="fill:none;stroke:#000000;stroke-width:0.31612306;stroke-linecap:round;stroke-linejoin:round;stroke-dasharray:none"
                 d="m -6.8085253,98.623889 c 2.2932669,-0.01677 4.6172516,-0.02501 6.96289525,-0.02919 M -5.8941363,96.907068 c 2.4061739,0.06948 4.7809505,0.130431 7.1347775,0.20459 M -1.881187,97.9802 c 0.7088225,-7.53e-4 1.41765248,2.5e-4 2.12641379,0.0028 M -7.8005728,97.739586 h 8.47656246 m -2.95043916,0 h 7.65625"
                 id="path5"
                 inkscape:original-d="M -8.5749058,97.739586 H 4.6542616" /><path
                 style="fill:none;stroke:#000000;stroke-width:0.31612306;stroke-linecap:round;stroke-linejoin:round;stroke-dasharray:none"
                 d="m -6.4395505,100.77115 c 3.5880603,-0.0732 7.15677587,-0.0928 10.7320943,-0.0977 m -11.7496352,0.26995 c 2.7963665,0.0376 5.6308015,0.0418 8.4730587,0.0248 m -7.6204632,-0.0498 c 3.2148528,0.0437 6.46283646,-0.006 9.7443775,-0.13162 m -8.2144615,-0.40133 h 7.46875 m -2.95694961,0 H 6.460658"
                 id="path6"
                 inkscape:original-d="M -8.5749058,100.38542 H 4.6542616" /><path
                 style="fill:none;stroke:#000000;stroke-width:0.31612306;stroke-linecap:round;stroke-linejoin:round;stroke-dasharray:none"
                 d="m -8.8679244,102.5576 c 3.7870291,-0.0852 7.6580425,-0.0429 11.5676991,0.0653 m -11.1895125,0.82746 c 3.5306382,0.10861 7.1275867,0.1331 10.7693523,0.1381 m -3.3223168,-0.3196 c 1.20998567,0.007 2.4154859,0.0131 3.6177517,0.0186 m -12.3725706,-0.25619 h 9.21484378 m -5.59057598,0 h 9.0976563"
                 id="path7"
                 inkscape:original-d="M -8.5749058,103.03126 H 4.6542616" /><path
                 style="fill:none;stroke:#000000;stroke-width:0.31612306;stroke-linecap:round;stroke-linejoin:round;stroke-dasharray:none"
                 d="m -6.8424913,83.945641 c -0.2525064,-1.288316 -0.51958,-2.569293 -0.798999,-3.843509 M -6.59354,88.869278 C -7.253256,85.864022 -7.8822159,82.88285 -8.498173,79.919626 m 2.2020413,5.433261 c -0.4422344,-2.450871 -0.9338825,-4.881833 -1.4540819,-7.285685 m 1.4936673,10.175483 -1.6890951,-8.043308 m 1.4387892,6.851375 -1.8504583,-8.811704"
                 id="path9"
                 inkscape:original-d="M -5.9290724,89.802084 -8.7071973,76.572921" /><path
                 style="fill:none;stroke:#000000;stroke-width:0.31612306;stroke-linecap:round;stroke-linejoin:round;stroke-dasharray:none"
                 d="m 1.5209253,89.198718 c 0.5921547,-3.040187 1.233784,-6.111615 1.9093363,-9.1941 M 1.8754717,87.352589 C 2.1575932,85.64194 2.4595664,83.954182 2.7758796,82.282911 m -0.2350211,7.12982 C 3.4171164,85.405965 4.0878827,81.389129 4.6101748,77.346869 m -2.3672519,11.28274 1.6394087,-8.197041 m -0.4347087,2.173543 1.4417604,-7.2088"
                 id="path10"
                 inkscape:original-d="M 2.0084279,89.802084 4.6542616,76.572919" /><path
                 id="path14"
                 style="fill:none;stroke:#000000;stroke-width:0.31612306;stroke-linecap:round;stroke-linejoin:round;stroke-dasharray:none"
                 d="m 5.5530324,98.83764 c 0.00422,0.203556 0.00806,0.407179 0.0114,0.61043 0.025772,1.56809 0.020931,3.09529 -0.070899,4.25638 -0.045798,0.57907 -0.1131497,1.06463 -0.2089166,1.41362 -0.095802,0.34913 -0.2200467,0.56154 -0.3793976,0.59507 -1.6109749,0.33904 -4.4202537,0.43991 -7.0779057,0.40996 -1.3235775,-0.0149 -2.6079828,-0.0623 -3.6711399,-0.12877 -1.0647258,-0.0666 -1.9143044,-0.15263 -2.3802051,-0.24719 -0.1578949,-0.032 -0.2808467,-0.24258 -0.3737725,-0.58775 -0.092924,-0.34516 -0.1562092,-0.82509 -0.196459,-1.39631 -0.019021,-0.26995 -0.032895,-0.56026 -0.042327,-0.8664 -0.029637,-0.96202 -0.033111,-2.18295 -0.0407,-3.350289 -0.010353,-1.592413 -0.028563,-3.146772 -0.09689,-4.474108 -0.033395,-0.64874 -0.077934,-1.218354 -0.1365875,-1.661367 -0.058639,-0.442905 -0.131374,-0.75972 -0.222194,-0.903306 4.1857235,-0.204438 8.2205437,-0.550637 12.2114761,-1.003238 0.6870465,-0.07792 1.3891839,-0.138046 2.1045576,-0.182571 -0.093166,0.125451 -0.1691702,0.411229 -0.2277257,0.816233 -0.058853,0.407063 -0.1000215,0.933477 -0.1244099,1.5512 -0.05056,1.280622 -0.025044,2.773071 0.020147,4.434462 0.043505,1.599424 0.1015738,3.243284 0.069118,4.471324 -0.01638,0.61976 -0.055591,1.14058 -0.1301135,1.51823 -0.074813,0.37911 -0.1838326,0.60605 -0.3345324,0.65333 -0.059441,0.0186 -0.1206453,0.0371 -0.1835228,0.0554 m 0.8721358,-9.64977 c -0.063963,1.28859 -0.072636,2.751197 -0.072909,4.285721 -2.715e-4,1.524579 0.00786,3.063959 -0.058293,4.177559 -0.033639,0.56624 -0.086832,1.03923 -0.1712817,1.37936 -0.084311,0.33958 -0.2002882,0.54659 -0.3543154,0.57586 -1.5637343,0.29716 -4.20771149,0.30836 -6.6856179,0.17119 -1.2352036,-0.0684 -2.4189437,-0.17234 -3.4058931,-0.28949 -0.6477668,-0.0769 -1.2096357,-0.15935 -1.6406537,-0.24059 -0.2248401,-0.0424 -0.4159551,-0.0837 -0.565947,-0.12377 -0.1500843,-0.0401 -0.2584356,-0.25854 -0.3359325,-0.62021 -0.077215,-0.36037 -0.1234776,-0.85959 -0.1555789,-1.45107 -0.064201,-1.18291 -0.079088,-2.73204 -0.1301309,-4.291549 -0.051973,-1.58795 -0.1318795,-3.103114 -0.2578424,-4.381863 -0.061534,-0.624677 -0.132375,-1.170936 -0.2115868,-1.593201 -0.079157,-0.421974 -0.167328,-0.724275 -0.265727,-0.859052 2.8605831,0.01708 5.6283138,0.03753 8.44136793,-0.0083 1.76217596,-0.02868 3.64869567,-0.0279 5.61871947,-0.003 -0.085866,0.137377 -0.1471104,0.443224 -0.1860033,0.874436 -0.039025,0.432679 -0.05527,0.987514 -0.052161,1.630067 0.0052,1.074318 0.062749,2.296614 0.1394719,3.630478 m 1.3463746,-4.154585 c -0.025977,0.343457 -0.044779,0.739455 -0.058585,1.17408 -0.040261,1.267516 -0.037226,2.811271 -0.049378,4.373443 -0.012032,1.546678 -0.039109,3.071308 -0.1433068,4.222418 -0.052148,0.57609 -0.1236441,1.05944 -0.222293,1.40712 -0.098644,0.34766 -0.2244117,0.55946 -0.3847441,0.59244 -1.616286,0.33243 -4.44524465,0.43125 -7.1064464,0.39738 -1.3314342,-0.0169 -2.6208638,-0.0671 -3.6978286,-0.13754 -0.1789609,-0.0117 -0.3520119,-0.024 -0.51836,-0.0367 0,0 -2e-7,0 -2e-7,0 -0.8342809,-0.064 -1.5008466,-0.14267 -1.8971224,-0.22548 -0.1609948,-0.0336 -0.2879301,-0.24621 -0.3887257,-0.5958 -0.1007776,-0.34953 -0.1753811,-0.83596 -0.2316464,-1.41692 -0.1121779,-1.15829 -0.1523066,-2.70614 -0.1784305,-4.27938 -0.02637,-1.588074 -0.038302,-3.176202 -0.089314,-4.47901 -0.025268,-0.645313 -0.059894,-1.210059 -0.1099231,-1.648824 -0.050029,-0.438764 -0.1153394,-0.751323 -0.2025649,-0.893298 2.6717244,-0.09341 5.330244,-0.212421 7.9771115,-0.357861 2.33532263,-0.128321 4.7044241,-0.179132 7.0878689,-0.188817 -0.086885,0.134836 -0.1500418,0.435511 -0.1960742,0.859854 -0.04608,0.424777 -0.074944,0.972724 -0.093561,1.604035 -0.037625,1.275877 -0.032618,2.839782 -0.048342,4.425531 -0.01564,1.57719 -0.051894,3.11173 -0.1688235,4.28392 -0.058191,0.58335 -0.1359793,1.07171 -0.2397197,1.42277 -0.088881,0.30078 -0.1966126,0.50057 -0.3280022,0.57303 m -9.0427536,0.80054 -7.817195,-1.15694 m 3.5130947,3.43733 -1.0673499,-9.10563"
                 sodipodi:nodetypes="csscc"
                 inkscape:original-d="m 5.6618562,92.060622 c -0.685305,1.084503 0.224003,12.794058 -1.061797,13.057168 -3.2424036,0.66349 -11.3547036,0.38846 -13.2530536,0 -1.2858001,-0.26311 -0.388164,-11.965377 -1.061797,-13.057168 z" /></g><path
               id="path21"
               style="fill:#ffffff;stroke:none;stroke-width:0.25424461;stroke-linecap:round;stroke-linejoin:round;stroke-dasharray:none"
               d="m 2.628237,54.798247 c 5.0238276,0.215856 9.793457,3.214263 12.197246,7.625615 2.016538,3.664754 1.295475,8.324616 -0.542738,12.172144 -0.171301,0.36991 0.05767,-0.661192 0.02828,-0.918572 C 14.672585,67.977899 13.142471,62.220027 8.4564332,58.962091 4.8287405,56.352703 0.13832245,56.588735 -4.2566548,57.365394 -2.1101771,56.384883 0.27321025,54.677296 2.628237,54.798247 Z"
               sodipodi:nodetypes="ccccccc" /><path
               id="path11"
               style="color:#000000;fill:#000000;stroke-linecap:round;stroke-linejoin:round;stroke-width:0.25424461;stroke-dasharray:none"
               d="m -17.869158,54.497243 c 0.890032,0.645504 1.771791,1.296694 2.647867,1.95136 0.04163,-0.07974 0.08049,-0.161092 0.123019,-0.240179 -2.584249,-1.94158 -5.216128,-3.854486 -7.82909,-5.795538 -0.041,-0.03046 -0.082,-0.06092 -0.122988,-0.09139 -0.0286,-0.02114 -0.06443,-0.03011 -0.09963,-0.02493 -2.96e-4,-4.3e-5 -5.89e-4,-8.8e-5 -8.8e-4,-1.34e-4 -0.03521,0.0051 -0.06694,0.02375 -0.08823,0.05204 -0.04481,0.05823 -0.03375,0.141268 0.0241,0.185194 1.041889,0.787266 2.087421,1.572253 3.133491,2.354685 m 0.124202,-0.354289 c 1.606276,1.174258 3.179011,2.357276 4.733096,3.541479 0.04025,-0.07973 0.07772,-0.161103 0.118869,-0.240226 -1.912101,-1.410417 -3.849412,-2.819655 -5.787191,-4.240298 -0.21668,-0.158855 -0.432501,-0.317735 -0.647535,-0.476655 m 5.940969,4.981475 c 0.0594,0.04453 0.118763,0.08904 0.178105,0.133531 0.04275,-0.07871 0.08273,-0.159096 0.126379,-0.237257 -2.583971,-1.938242 -5.219588,-3.909586 -7.826923,-5.859756 -0.0281,-0.02091 -0.06346,-0.02965 -0.09817,-0.02422 1.71e-4,1.86e-4 3.45e-4,3.73e-4 5.22e-4,5.64e-4 -0.03471,0.0053 -0.06597,0.02425 -0.08676,0.05279 -0.04378,0.05877 -0.03184,0.142271 0.02704,0.186769 0.643472,0.483897 1.288868,0.969217 1.937341,1.456743 0.549251,0.412931 1.095121,0.822922 1.638223,1.230506 m 0.286098,-0.113322 c 1.431867,1.113981 2.870522,2.225906 4.303931,3.346331 0.04044,-0.07819 0.07813,-0.158005 0.119527,-0.235553 -2.034793,-1.461973 -4.080622,-2.906899 -6.168745,-4.307353 -0.648188,-0.434723 -1.28474,-0.883746 -1.912115,-1.344119 -0.02855,-0.02084 -0.06431,-0.02954 -0.09943,-0.02409 -2.17e-4,2.05e-4 -4.18e-4,3.9e-4 -6.03e-4,5.55e-4 m 6.547508,4.871247 c 0.319844,0.242574 0.640922,0.484984 0.963139,0.727231 0.04132,-0.07964 0.07996,-0.160936 0.12237,-0.23999 -2.629299,-1.970883 -5.184917,-3.952544 -7.716654,-5.945441 -0.02729,-0.02137 -0.06187,-0.03056 -0.09576,-0.0256 9.38e-4,-2.55e-4 0.0019,-5.12e-4 0.0028,-7.7e-4 -0.0339,0.0048 -0.06438,0.02331 -0.08436,0.05138 -0.0421,0.05777 -0.02875,0.140414 0.0318,0.183879 0.387128,0.276524 0.774688,0.55282 1.162535,0.828887 1.80781,1.286784 3.553896,2.601433 5.285897,3.930011 m -0.06827,0.327657 c 0.526407,0.386224 1.053366,0.773893 1.581219,1.162708 0.04256,-0.07981 0.08242,-0.161249 0.125994,-0.240415 -2.586576,-1.974975 -5.149263,-3.921909 -7.644303,-5.879134 -0.02689,-0.02098 -0.06109,-0.0298 -0.09458,-0.02446 0.0013,1.07e-4 0.0026,2.13e-4 0.004,3.18e-4 m 51.511736,1.068805 c -2.172035,1.635604 -4.311744,3.218726 -6.45504,4.781686 0.04271,0.07706 0.08231,0.155924 0.124035,0.233535 1.31746,-1.016592 2.633093,-2.04046 3.938441,-3.063993 0.548317,-0.429939 1.099922,-0.854288 1.654298,-1.274025 m 0.158538,0.06494 c 0.723633,-0.528995 1.442187,-1.059811 2.157155,-1.592071 0.05932,-0.04352 0.0719,-0.126691 0.02838,-0.185405 -0.02124,-0.02787 -0.0527,-0.04607 -0.0874,-0.0506 1.38e-4,10e-6 2.71e-4,1.8e-5 3.99e-4,2.4e-5 -0.03422,-0.0054 -0.06917,0.003 -0.09729,0.02326 -2.563237,1.931329 -5.169789,3.844625 -7.748672,5.757739 0.04275,0.07793 0.08243,0.157684 0.124257,0.236207 0.03637,-0.02756 0.07275,-0.05512 0.109127,-0.08268 0.03025,-0.02291 0.0605,-0.04583 0.09074,-0.06875 m 2.725847,-3.085783 c -1.149956,0.882997 -2.314712,1.759358 -3.48899,2.631611 0.04241,0.07825 0.08168,0.158321 0.123048,0.237139 2.275273,-1.725844 4.515039,-3.466943 6.759317,-5.204114 0.287405,-0.222464 0.576176,-0.443663 0.866187,-0.663642 0.05824,-0.04353 0.06998,-0.126656 0.02551,-0.185279 -0.0217,-0.02782 -0.05357,-0.04597 -0.08869,-0.05042 -2.6e-4,8e-5 -5.09e-4,1.7e-4 -7.48e-4,2.7e-4 -0.0346,-0.0053 -0.06991,0.0032 -0.09838,0.02359 -2.198106,1.64507 -4.331064,3.35629 -6.450584,5.115402 m 0.36097,-0.07157 c -0.399528,0.302658 -0.798494,0.605061 -1.197108,0.907475 0.042,0.0797 0.08092,0.161235 0.121976,0.241535 2.555383,-1.893305 5.124371,-3.784058 7.648244,-5.597193 0.05754,-0.0407 0.06863,-0.121457 0.02333,-0.177265 -0.0221,-0.02647 -0.05437,-0.04333 -0.08993,-0.04644 -6.7e-4,0.0014 -0.0013,0.0027 -0.002,0.0041 -0.03506,-0.004 -0.07083,0.0058 -0.09979,0.02752 -0.350739,0.274245 -0.702321,0.549917 -1.054882,0.827189 -2.302544,1.810836 -4.501213,3.441086 -6.679816,5.05505 0.04461,0.07648 0.08614,0.154775 0.129812,0.231824 0.173001,-0.131269 0.346102,-0.262601 0.519266,-0.393924 m 8.543643,14.250897 c 0.775509,-0.0078 1.555331,-0.01387 2.338489,-0.01906 0.0724,-1.91e-4 0.131505,-0.05896 0.132152,-0.132087 8.2e-5,-0.07394 -0.05969,-0.133959 -0.13332,-0.134129 -3.496108,-0.02174 -6.929841,-0.02837 -10.386449,-0.08755 -0.164887,-0.0028 -0.329816,-0.0054 -0.494779,-0.0077 -0.01999,0.08697 -0.04089,0.173573 -0.06224,0.260047 1.553919,-0.0186 3.105171,-0.01541 4.659121,-1.46e-4 m 0.193783,0.186374 c 2.148606,0.01325 4.285175,-0.0061 6.419063,-0.04964 0.07259,-0.0012 0.13182,-0.06084 0.132591,-0.135031 2.08e-4,-0.07502 -0.05949,-0.135976 -0.133043,-0.137292 -2.141195,-0.04668 -4.284471,-0.117038 -6.420438,-0.202592 -1.514541,-0.06066 -3.034509,-0.07798 -4.559242,-0.07364 m 10.22683,0.966837 c 0.258475,-9.59e-4 0.516929,-0.002 0.775331,-0.0032 0.07181,-4e-5 0.130382,-0.0587 0.130373,-0.131702 -5.82e-4,-0.07382 -0.06095,-0.13375 -0.135295,-0.133831 -3.699001,-0.01834 -7.411576,-0.0608 -11.22428,-0.155907 -0.02468,0.08586 -0.05033,0.171243 -0.07646,0.256393 0.25571,-0.0072 0.510873,-0.01459 0.765453,-0.02233 1.907068,-0.05796 3.918271,-0.07077 5.974174,-0.07402 m 0.08046,-0.01511 c 1.418942,-0.0094 2.8367,-0.0156 4.25778,-0.02142 0.07352,-1.2e-5 0.133545,-0.05863 0.135269,-0.131596 0.0012,-0.07377 -0.0577,-0.133656 -0.130272,-0.133671 -2.834999,-0.01182 -5.654266,-0.02341 -8.419336,-0.05961 -0.501826,-0.0066 -1.008644,-0.01013 -1.519664,-0.01094 m 1.506123,0.130818 c 2.844447,0.02266 5.680208,-0.01014 8.511568,-0.06705 0.07238,-0.0012 0.131432,-0.06078 0.131994,-0.134924 -4e-6,-0.07497 -0.05988,-0.135876 -0.133647,-0.137118 -1.438117,-0.02982 -2.877298,-0.06538 -4.316995,-0.102658 -1.338649,-0.03466 -2.670192,-0.04539 -3.996229,-0.0419 m -0.03505,0.566848 c -0.890416,-0.0048 -1.78099,-0.01254 -2.671677,-0.02391 -0.02073,0.08706 -0.04238,0.173639 -0.06445,0.259977 3.433428,-0.04661 6.865239,-0.147235 10.297964,-0.333403 0.245118,-0.01329 0.490336,-0.02473 0.735656,-0.03443 0.07274,-0.0026 0.132116,-0.06327 0.133065,-0.138518 3.87e-4,-0.07609 -0.05915,-0.1378 -0.132501,-0.139844 -2.806978,-0.08922 -5.600405,0.0409 -8.378463,0.20544 m -44.375225,0.17061 c -2.534643,0.0066 -5.079867,-0.0234 -7.620919,-0.09128 -0.07321,-0.0024 -0.132605,0.05535 -0.132045,0.126616 0.0011,0.07048 0.06064,0.126876 0.133584,0.124445 1.731069,-0.0577 3.464413,-0.132762 5.204591,-0.225584 1.929503,-0.10292 3.841546,-0.10289 5.745362,-0.05446 -0.0222,-0.08034 -0.04733,-0.159363 -0.06834,-0.24008 -0.0015,-0.0043 -0.0026,-0.0087 -0.0041,-0.01296 -1.68e-4,0.001 -3.38e-4,0.0021 -5.1e-4,0.0031 -1.968683,0.06739 -3.945229,0.181019 -5.919712,0.282236 m -0.307566,-0.0039 c -1.523848,0.0033 -3.045793,0.01094 -4.568746,0.02257 -0.07385,8.5e-5 -0.1338,0.06003 -0.133897,0.133889 4.69e-4,0.07304 0.05943,0.131649 0.131715,0.131862 2.744983,0.0081 5.485738,0.02921 8.204674,0.0609 0.864036,0.01007 1.733919,0.01489 2.608101,0.01594 -0.0221,-0.0824 -0.04707,-0.163611 -0.06788,-0.246659 -0.0014,-0.0052 -0.0024,-0.01054 -0.0038,-0.01574 -6.9e-5,8.9e-5 -1.32e-4,1.74e-4 -1.89e-4,2.53e-4 -3.102324,0.01548 -6.154371,-0.01268 -9.224378,-0.01845 m 6.062963,-0.129482 c -2.459906,-0.02944 -4.893466,-0.01194 -7.317777,0.01889 -0.073,4.49e-4 -0.132228,0.06071 -0.131457,0.134931 0.0013,0.07341 0.06103,0.132323 0.134189,0.132904 1.847353,0.01465 3.699389,0.03575 5.548835,0.04901 1.811821,0.01299 3.607202,0.0094 5.393143,-0.0024 m -0.626912,0.340019 c 0.0041,1.3e-5 0.0082,2.7e-5 0.01235,4.1e-5 -0.02184,-0.08222 -0.04657,-0.16327 -0.06715,-0.246172 -0.0013,-0.0051 -0.0023,-0.01042 -0.0036,-0.01557 1.1e-5,1.4e-4 2.5e-5,2.73e-4 4.3e-5,3.98e-4 -3.610572,0.02302 -7.188336,-0.04572 -10.733414,-0.165679 -0.07209,-0.0029 -0.130538,0.05447 -0.128842,0.125269 0.0022,0.07002 0.06272,0.126037 0.136805,0.123167 0.515299,-0.01996 1.031238,-0.0409 1.547815,-0.0627 3.036233,-0.128115 5.957887,-0.105779 8.855014,-0.0946 m 0.515176,13.828033 c -2.438437,1.836134 -4.88851,3.706647 -7.324854,5.601192 -0.058,0.04532 -0.06917,0.129523 -0.02453,0.189153 0.04407,0.06058 0.128076,0.07399 0.187401,0.03112 0.971972,-0.701343 1.946236,-1.399055 2.924329,-2.09376 2.929535,-2.080747 5.81925,-4.289032 8.752806,-6.457367 m 0.263641,0.09354 c 0.151206,-0.112475 0.302348,-0.22497 0.453431,-0.337483 -0.06002,-0.07866 -0.101093,-0.131555 -0.161117,-0.210214 7.5e-5,7.6e-5 1.48e-4,1.53e-4 2.19e-4,2.28e-4 -3.273878,2.471192 -6.574858,4.935064 -9.864275,7.419129 -0.720229,0.543894 -1.441637,1.084599 -2.164437,1.622719 -0.05878,0.04398 -0.07064,0.127026 -0.02681,0.185263 0.04325,0.05917 0.126545,0.07138 0.185012,0.02704 2.455814,-1.859395 4.894785,-3.748234 7.308292,-5.641902 m -3.217445,1.94701 c -1.52551,1.144302 -3.031524,2.257199 -4.5286,3.347054 -0.05811,0.04251 -0.06938,0.124318 -0.02484,0.181061 0.04397,0.05767 0.127888,0.0686 0.187113,0.02272 1.92626,-1.489656 3.865694,-3.015525 5.796633,-4.560441 2.107279,-1.686004 4.193993,-3.22568 6.279284,-4.743042 -0.05892,-0.07516 -0.103136,-0.130622 -0.162058,-0.205786 -3.8e-5,6.43e-4 -7.7e-5,0.0013 -1.16e-4,0.0019 -0.730135,0.564489 -1.460334,1.130992 -2.189784,1.694231 m -0.08938,0.0082 c -3.218399,2.464283 -6.542126,4.973381 -9.837099,7.557986 -0.05886,0.04639 -0.07076,0.131505 -0.02697,0.192226 0.04321,0.06168 0.126486,0.07602 0.184952,0.03426 0.146248,-0.104284 0.292564,-0.208414 0.438959,-0.312386 3.448541,-2.449203 6.836331,-5.172077 10.111865,-7.734613 m -4.829728,3.334738 c -1.997145,1.506808 -4.036148,2.983087 -6.088205,4.418965 -0.05924,0.04166 -0.07148,0.12274 -0.02811,0.178629 0.04278,0.05681 0.125694,0.06701 0.183697,0.02028 1.374879,-1.10601 2.744316,-2.231444 4.117723,-3.379531 2.28611,-1.911052 4.618927,-3.596665 6.955151,-5.274931 m 0.374667,0.345274 c 0.288962,-0.215425 0.576685,-0.430907 0.863224,-0.646462 -0.05197,-0.06851 -0.109497,-0.143193 -0.161465,-0.211704 9e-6,-1.1e-4 8e-6,-2.21e-4 -4e-6,-3.33e-4 -3.148732,2.347233 -6.438755,4.685024 -9.797929,6.993413 -0.164892,0.113312 -0.328721,0.226998 -0.491548,0.341042 m 41.448846,-4.96874 c 3.306079,2.593245 6.556682,4.995653 9.722714,7.349725 0.05556,0.04105 0.136418,0.02695 0.17793,-0.03461 0.04161,-0.06149 0.02797,-0.147375 -0.03305,-0.194885 -0.08058,-0.06329 -0.161207,-0.126607 -0.241879,-0.189944 C 27.42592,88.280026 25.420434,86.75877 23.450189,85.280084 M 23.3091,85.538486 c -1.933344,-1.444784 -3.810437,-2.916206 -5.655917,-4.403623 -0.04649,0.06247 -0.107618,0.143521 -0.154107,0.20599 1.579106,1.146933 3.178036,2.283792 4.784011,3.416098 0.606686,0.427748 1.200999,0.859886 1.78531,1.295254 m -5.73325,-4.230323 c 3.466773,2.624954 7.045459,5.352092 10.626374,8.007211 0.346372,0.256822 0.691314,0.514196 1.035034,0.772037 0.05903,0.04401 0.142794,0.03244 0.187753,-0.02611 0.04505,-0.05847 0.03432,-0.141789 -0.02327,-0.186231 -1.183249,-0.921668 -2.380891,-1.837844 -3.583696,-2.752235 m -0.213976,-0.264863 c -2.87207,-2.125539 -5.685036,-4.318663 -8.528009,-6.498433 -0.04443,0.05748 -0.117471,0.150739 -0.161904,0.208213 0.603089,0.461515 1.204695,0.923737 1.803938,1.387466 3.371508,2.609065 6.84532,5.207381 10.308292,7.783367 m -11.750758,-8.79213 c 3.53358,2.744979 6.960858,5.462251 10.371534,8.330376 0.393904,0.331244 0.79104,0.657018 1.190969,0.978166 0.05752,0.04592 0.140106,0.03586 0.183729,-0.02097 0.04373,-0.05678 0.03194,-0.138733 -0.02681,-0.181672 -0.90605,-0.668531 -1.798911,-1.358749 -2.683381,-2.061423 m 0.380616,-0.456535 c -3.123035,-2.393969 -6.238177,-4.776173 -9.337736,-7.140424 -0.04654,0.06221 -0.112359,0.149068 -0.158898,0.211279 0.310789,0.238866 0.62173,0.477907 0.932832,0.717131 1.524225,1.172061 3.026257,2.325794 4.513826,3.470587"
               sodipodi:nodetypes="cccccccccccccccccccccccccsccccccccccccccccc"
               inkscape:path-effect="#path-effect38"
               inkscape:original-d="m -23.211739,49.982809 c -0.0349,0.0051 -0.06634,0.02385 -0.08733,0.05219 -0.04419,0.05834 -0.03261,0.141471 0.02584,0.185518 l 7.908562,5.930905 c 0.04158,-0.07958 0.08043,-0.160803 0.12299,-0.239779 l -7.871355,-5.904033 c -0.02828,-0.0211 -0.06381,-0.03003 -0.0987,-0.0248 z m 52.953881,0.0016 c -0.03435,-0.0054 -0.06943,0.003 -0.09767,0.02325 l -7.724078,5.793446 c 0.04287,0.07843 0.08264,0.158687 0.124541,0.237711 l 7.757667,-5.81825 c 0.05895,-0.04357 0.07124,-0.126771 0.02739,-0.185518 -0.0214,-0.02788 -0.053,-0.0461 -0.08785,-0.05064 z m -7.016627,19.841685 c -0.02078,0.08822 -0.04247,0.175986 -0.06459,0.26355 H 33.69126 c 0.07266,2.89e-4 0.131958,-0.05808 0.132809,-0.130741 2.88e-4,-0.07347 -0.05934,-0.133097 -0.132809,-0.132809 z m -38.681365,0.104387 -10.839133,0.02842 c -0.07347,-2.87e-4 -0.133096,0.05934 -0.132808,0.132808 8.5e-4,0.07266 0.06014,0.130931 0.132808,0.130742 l 10.90993,-0.02842 c -0.02183,-0.08273 -0.04657,-0.164226 -0.06718,-0.24753 -0.0013,-0.0053 -0.0023,-0.01073 -0.0036,-0.01602 z m 4.686536,10.762135 -12.00392,9.002553 c -0.05845,0.04405 -0.07002,0.127177 -0.02584,0.185518 0.0436,0.05928 0.127199,0.07159 0.186035,0.02739 l 12.005471,-9.00462 c -0.05279,-0.0691 -0.109264,-0.141976 -0.161748,-0.21084 z m 29.129492,0.273368 c -0.05243,0.06866 -0.107976,0.140374 -0.160713,0.20929 l 12.07575,9.246465 c 0.05821,0.0443 0.141314,0.03296 0.185519,-0.02532 0.0443,-0.05821 0.03296,-0.141313 -0.02532,-0.185518 z" /><g
               id="g35"
               transform="matrix(0.80425836,0,0,0.80425836,4.9989209,11.815387)"
               style="stroke-width:0.31612306;stroke-dasharray:none"><g
                 id="g34"
                 style="stroke-width:0.31612306;stroke-dasharray:none"><g
                   id="g33"
                   style="stroke-width:0.31612306;stroke-dasharray:none"><g
                     id="g32"
                     style="stroke-width:0.31612306;stroke-dasharray:none"><g
                       id="g31"
                       style="stroke-width:0.31612306;stroke-linecap:round;stroke-linejoin:round;stroke-dasharray:none" /></g></g></g></g></g></g></g></g></g></svg>
