<?xml version="1.0" encoding="UTF-8" standalone="no"?>
<!-- Created with Inkscape (http://www.inkscape.org/) -->

<svg
   width="420"
   height="220"
   viewBox="0 0 111.12502 58.208343"
   version="1.1"
   id="svg1"
   inkscape:version="1.3.2 (091e20ef0f, 2023-11-25, custom)"
   sodipodi:docname="problem.svg"
   xml:space="preserve"
   xmlns:inkscape="http://www.inkscape.org/namespaces/inkscape"
   xmlns:sodipodi="http://sodipodi.sourceforge.net/DTD/sodipodi-0.dtd"
   xmlns="http://www.w3.org/2000/svg"
   xmlns:svg="http://www.w3.org/2000/svg"><sodipodi:namedview
     id="namedview1"
     pagecolor="#ffffff"
     bordercolor="#000000"
     borderopacity="0.25"
     inkscape:showpageshadow="2"
     inkscape:pageopacity="0.0"
     inkscape:pagecheckerboard="0"
     inkscape:deskcolor="#d1d1d1"
     inkscape:document-units="px"
     inkscape:zoom="0.78254404"
     inkscape:cx="77.950885"
     inkscape:cy="-14.056717"
     inkscape:window-width="1440"
     inkscape:window-height="831"
     inkscape:window-x="0"
     inkscape:window-y="0"
     inkscape:window-maximized="1"
     inkscape:current-layer="g10"
     showgrid="true"><inkscape:grid
       id="grid10"
       units="px"
       originx="0"
       originy="0"
       spacingx="1.3229168"
       spacingy="1.3229168"
       empcolor="#0099e5"
       empopacity="0.30196078"
       color="#0099e5"
       opacity="0.14901961"
       empspacing="5"
       dotted="false"
       gridanglex="30"
       gridanglez="30"
       visible="true" /></sodipodi:namedview><defs
     id="defs1"><inkscape:path-effect
       effect="sketch"
       id="path-effect13"
       is_visible="true"
       lpeversion="1"
       nbiter_approxstrokes="3"
       parallel_offset="0.2;1"
       strokelength="70"
       strokelength_rdm="0.3;1"
       strokeoverlap="0.5"
       strokeoverlap_rdm="0.5;1"
       ends_tolerance="0.1;1"
       tremble_size="0.4;1"
       tremble_frequency="3"
       nbtangents="2"
       tgt_places_rdmness="0.5;1"
       tgtlength="5"
       tgtlength_rdm="0.3;1"
       tgtscale="10" /><inkscape:path-effect
       effect="sketch"
       id="path-effect4"
       is_visible="true"
       lpeversion="1"
       nbiter_approxstrokes="3"
       parallel_offset="0.2;1"
       strokelength="70"
       strokelength_rdm="0.3;1"
       strokeoverlap="0.5"
       strokeoverlap_rdm="0.5;1"
       ends_tolerance="0.1;1"
       tremble_size="0.5;1885342585"
       tremble_frequency="3"
       nbtangents="2"
       tgt_places_rdmness="0.5;1"
       tgtlength="5"
       tgtlength_rdm="0.3;1"
       tgtscale="10" /><inkscape:path-effect
       effect="sketch"
       id="path-effect12"
       is_visible="true"
       lpeversion="1"
       nbiter_approxstrokes="3"
       parallel_offset="0.3;2139095038"
       strokelength="70"
       strokelength_rdm="0.3;1"
       strokeoverlap="0.5"
       strokeoverlap_rdm="0.5;1780345887"
       ends_tolerance="0.1;2139095038"
       tremble_size="0.5;1"
       tremble_frequency="3"
       nbtangents="2"
       tgt_places_rdmness="0.3;1897520308"
       tgtlength="4"
       tgtlength_rdm="0.3;1"
       tgtscale="10" /><inkscape:path-effect
       effect="sketch"
       id="path-effect18"
       is_visible="true"
       lpeversion="1"
       nbiter_approxstrokes="3"
       parallel_offset="0.2;1"
       strokelength="70"
       strokelength_rdm="0.3;1"
       strokeoverlap="0.5"
       strokeoverlap_rdm="0.5;1"
       ends_tolerance="0.1;1"
       tremble_size="0.8;1"
       tremble_frequency="3"
       nbtangents="2"
       tgt_places_rdmness="0.5;1"
       tgtlength="10"
       tgtlength_rdm="0.3;1"
       tgtscale="10" /><inkscape:path-effect
       effect="sketch"
       id="path-effect10"
       is_visible="true"
       lpeversion="1"
       nbiter_approxstrokes="3"
       parallel_offset="0.2;1"
       strokelength="70"
       strokelength_rdm="0.3;1"
       strokeoverlap="0.5"
       strokeoverlap_rdm="0.5;1"
       ends_tolerance="0.1;1"
       tremble_size="0.8;1"
       tremble_frequency="3"
       nbtangents="2"
       tgt_places_rdmness="0.5;1"
       tgtlength="10"
       tgtlength_rdm="0.3;1"
       tgtscale="10" /><inkscape:path-effect
       effect="sketch"
       id="path-effect9"
       is_visible="true"
       lpeversion="1"
       nbiter_approxstrokes="3"
       parallel_offset="0.2;1"
       strokelength="70"
       strokelength_rdm="0.3;1"
       strokeoverlap="0.5"
       strokeoverlap_rdm="0.5;1"
       ends_tolerance="0.1;1"
       tremble_size="0.8;1"
       tremble_frequency="3"
       nbtangents="2"
       tgt_places_rdmness="0.5;1"
       tgtlength="10"
       tgtlength_rdm="0.3;1"
       tgtscale="10" /><inkscape:path-effect
       effect="sketch"
       id="path-effect8"
       is_visible="true"
       lpeversion="1"
       nbiter_approxstrokes="3"
       parallel_offset="0.2;1"
       strokelength="70"
       strokelength_rdm="0.3;1"
       strokeoverlap="0.5"
       strokeoverlap_rdm="0.5;1"
       ends_tolerance="0.1;1"
       tremble_size="0.8;1"
       tremble_frequency="3"
       nbtangents="2"
       tgt_places_rdmness="0.5;1"
       tgtlength="10"
       tgtlength_rdm="0.3;1"
       tgtscale="10" /><inkscape:path-effect
       effect="sketch"
       id="path-effect3"
       is_visible="true"
       lpeversion="1"
       nbiter_approxstrokes="3"
       parallel_offset="0.2;1"
       strokelength="70"
       strokelength_rdm="0.3;1"
       strokeoverlap="0.5"
       strokeoverlap_rdm="0.5;1"
       ends_tolerance="0.1;1"
       tremble_size="0.8;1"
       tremble_frequency="3"
       nbtangents="2"
       tgt_places_rdmness="0.5;1"
       tgtlength="10"
       tgtlength_rdm="0.3;1"
       tgtscale="10" /><inkscape:path-effect
       effect="sketch"
       id="path-effect2"
       is_visible="true"
       lpeversion="1"
       nbiter_approxstrokes="4"
       parallel_offset="0.7;1"
       strokelength="50"
       strokelength_rdm="0.3;1"
       strokeoverlap="0.3"
       strokeoverlap_rdm="0.3;1"
       ends_tolerance="0.1;1"
       tremble_size="0.8;1"
       tremble_frequency="3"
       nbtangents="0"
       tgt_places_rdmness="1;1"
       tgtlength="100"
       tgtlength_rdm="0.3;1"
       tgtscale="10" /><inkscape:path-effect
       effect="sketch"
       id="path-effect1"
       is_visible="true"
       lpeversion="1"
       nbiter_approxstrokes="3"
       parallel_offset="0.5;1"
       strokelength="50"
       strokelength_rdm="0.3;1"
       strokeoverlap="0.3"
       strokeoverlap_rdm="0.3;1"
       ends_tolerance="0.1;1"
       tremble_size="1;1"
       tremble_frequency="3"
       nbtangents="0"
       tgt_places_rdmness="1;1"
       tgtlength="100"
       tgtlength_rdm="0.3;1"
       tgtscale="10" /><inkscape:path-effect
       effect="sketch"
       id="path-effect11"
       is_visible="true"
       lpeversion="1"
       nbiter_approxstrokes="3"
       parallel_offset="0.5;1"
       strokelength="50"
       strokelength_rdm="0.3;1"
       strokeoverlap="0.3"
       strokeoverlap_rdm="0.3;1"
       ends_tolerance="0.1;1"
       tremble_size="1;1"
       tremble_frequency="3"
       nbtangents="0"
       tgt_places_rdmness="1;1"
       tgtlength="100"
       tgtlength_rdm="0.3;1"
       tgtscale="10" /><inkscape:path-effect
       effect="sketch"
       id="path-effect7"
       is_visible="true"
       lpeversion="1"
       nbiter_approxstrokes="3"
       parallel_offset="1;1"
       strokelength="50"
       strokelength_rdm="0.3;1"
       strokeoverlap="0.3"
       strokeoverlap_rdm="0.3;1"
       ends_tolerance="0.1;1"
       tremble_size="1.2;1"
       tremble_frequency="3"
       nbtangents="0"
       tgt_places_rdmness="1;1"
       tgtlength="100"
       tgtlength_rdm="0.3;1"
       tgtscale="10" /><rect
       x="223.77509"
       y="306.53192"
       width="415.43015"
       height="124.34706"
       id="rect6" /><inkscape:path-effect
       effect="sketch"
       id="path-effect6"
       is_visible="true"
       lpeversion="1"
       nbiter_approxstrokes="3"
       parallel_offset="1;1"
       strokelength="50"
       strokelength_rdm="0.3;1"
       strokeoverlap="0.3"
       strokeoverlap_rdm="0.3;1"
       ends_tolerance="0.1;1"
       tremble_size="1.2;1"
       tremble_frequency="3"
       nbtangents="0"
       tgt_places_rdmness="1;1"
       tgtlength="100"
       tgtlength_rdm="0.3;1"
       tgtscale="10" /><inkscape:path-effect
       effect="sketch"
       id="path-effect5"
       is_visible="true"
       lpeversion="1"
       nbiter_approxstrokes="3"
       parallel_offset="1;1"
       strokelength="50"
       strokelength_rdm="0.3;1"
       strokeoverlap="0.3"
       strokeoverlap_rdm="0.3;1"
       ends_tolerance="0.1;1"
       tremble_size="1.2;1"
       tremble_frequency="3"
       nbtangents="0"
       tgt_places_rdmness="1;1"
       tgtlength="100"
       tgtlength_rdm="0.3;1"
       tgtscale="10" /></defs><g
     inkscape:label="Layer 1"
     inkscape:groupmode="layer"
     id="layer1"><g
       id="g6"><g
         id="g9"
         transform="translate(28.418657,-43.5)"><g
           id="g10"
           transform="matrix(1.1080917,0,0,1.1080917,2.7624827,-8.7600785)"><path
             id="path4"
             style="fill:#ffaaaa;stroke:none;stroke-width:0.238774;stroke-dasharray:none"
             d="M 66.419958,56.322588 54.192347,54.166529 c -0.57248,3.246694 -3.668531,5.414573 -6.915226,4.842093 -3.246693,-0.57248 -5.414572,-3.668532 -4.842092,-6.915225 L 31.148004,50.103191 29.074871,61.86051 c 3.246694,0.57248 5.414573,3.668532 4.842093,6.915225 -0.572479,3.246694 -3.668532,5.414573 -6.915225,4.842093 l -2.073132,11.757318 11.757317,2.073131 c -0.57248,3.246694 1.5954,6.342746 4.842094,6.915226 3.246694,0.572479 6.342745,-1.5954 6.915225,-4.842093 l 11.757318,2.073133 2.073131,-11.757318 c 3.246694,0.57248 6.342746,-1.595399 6.915226,-4.842093 0.572479,-3.246694 -1.5954,-6.342745 -4.842093,-6.915225 z"
             sodipodi:nodetypes="ccscccscccscccscc" /><path
             id="path2"
             style="fill:#cccccc;stroke:none;stroke-width:0.238774;stroke-dasharray:none"
             d="m -7.6301216,53.130181 c -1.6256658,0.884872 -3.1857054,3.583007 -2.7922084,6.426434 l 2.1533017,-2.537964 c 0.9103233,-1.072942 0.014038,-2.742135 0.6389067,-3.88847 z m -12.0599474,7.869279 -2.723981,0.480346 2.346837,11.766681 c 0.739408,-0.570764 2.287803,-1.413461 2.114317,-2.397137 z m 34.403495,4.782473 c -0.659068,0.508806 -1.20175,1.148512 -1.597267,1.873816 0.553066,-0.300926 1.160763,-0.523071 1.815055,-0.63844 z m -36.869115,8.09313 c -2.191328,1.192311 -3.484223,3.684742 -3.027113,6.277142 0.57248,3.24669 3.668427,5.414645 6.915117,4.842167 l 2.072949,11.757283 12.2278351,-2.155961 c -0.1178712,-0.668481 -0.1139614,-1.329292 -0.013991,-1.964288 0,0 -8.6383001,2.285602 -9.8261051,1.73251 -1.233172,-0.574217 -2.072949,-11.757283 -2.072949,-11.757283 -3.24669,0.572478 -6.342637,-1.595477 -6.915116,-4.842167 -0.244399,-1.386055 0.01417,-2.742889 0.639373,-3.889403 z m 26.6242224,11.32777 c -0.3964942,-0.01083 -0.799692,0.01798 -1.2055284,0.08954 -1.8606365,0.32808 -4.7774973,2.347581 -5.616774,3.886659 0.5530661,-0.300926 2.57474296,-1.383551 3.22903499,-1.49892 3.24669051,-0.57248 6.34263811,1.595476 6.91511601,4.842167 L 19.077579,90.532341 18.741337,88.624948 10.178121,90.13454 C 9.0736914,90.329238 7.2439925,85.27865 4.4685334,85.202833 Z"
             sodipodi:nodetypes="ccsccccsccccccsccccscscsscscccss" /><path
             id="path5"
             style="fill:none;stroke:#000000;stroke-width:0.2387739;stroke-dasharray:none"
             d="m -11.566059,95.869524 c 2.5951778,-0.4495 5.1721686,-0.881404 7.7371398,-1.293984 -0.5868812,-3.191138 1.5501547,-6.220965 4.75865211,-6.679785 2.09467039,-0.299541 4.12433319,0.575645 5.42824089,2.172591 0.6923904,0.847997 1.1826094,1.881299 1.3707067,3.033452 3.7272995,-0.576862 7.4778815,-1.301416 11.2136345,-2.041075 -0.517107,-2.876803 -1.042544,-5.762089 -1.592351,-8.600047 -0.214383,-1.10659 -0.41923,-2.214569 -0.615796,-3.324399 -2.195065,0.365434 -4.293371,-0.520991 -5.573376,-2.155081 m 7.52322,13.25506 c 0.238602,-0.04418 0.477326,-0.08829 0.716165,-0.132332 -0.730436,-3.943497 -1.430602,-7.869513 -2.135103,-11.797886 -3.258889,0.564984 -6.364938,-1.611196 -6.971735,-4.877907 -0.07972,-0.429171 -0.112424,-0.855884 -0.101928,-1.274797 0.06932,-2.766574 2.075249,-5.147097 4.911759,-5.568926 -0.665826,-3.814638 -1.290408,-7.538581 -1.912638,-11.194723 -1.060394,0.262739 -2.120609,0.530621 -3.181457,0.803168 -1.153066,0.296238 -2.3163057,0.56379 -3.4882841,0.808942 m 7.4141171,4.505751 C 13.533583,59.432466 13.140971,57.349297 12.750432,55.266294 8.7974304,56.009873 4.8515687,56.754022 0.87037408,57.551526 0.54044576,55.881301 -0.4991643,54.518469 -1.9024004,53.715533 -3.153189,52.999828 -4.670246,52.696971 -6.2110432,52.9855 c -3.2642564,0.611264 -5.4082898,3.663517 -4.7887648,6.851929 -3.083918,0.491151 -6.15398,0.963545 -9.249826,1.480918 -0.782464,0.130764 -1.566225,0.261102 -2.351023,0.39073 0.189069,1.016012 0.376382,2.030824 0.562508,3.043811 m 11.059308,-5.338797 c -3.825405,0.71092 -7.688381,1.400476 -11.52408,2.085308 0.730066,3.744588 1.485232,7.484829 2.322745,11.235414 0.03809,0.170575 0.07574,0.341133 0.112963,0.511674 -3.121256,0.57555 -5.291299,3.662872 -4.801246,6.901874 0.489477,3.235184 3.44736,5.391585 6.544593,4.797606 0.172136,1.323453 0.34467,2.646007 0.523328,3.967693 0.347001,2.567066 0.786977,5.14217 1.282498,7.718607 4.004799,-0.711839 8.138744,-1.42058 12.2691475,-2.149998 m -5.2151965,1.474903 c 1.9064169,-0.343118 3.8129369,-0.693214 5.7183258,-1.051509 -0.5847105,-3.282432 1.5705082,-6.427314 4.7933606,-7.085705 2.8036987,-0.572763 5.4903344,0.919204 6.4888064,3.359647 0.1492695,0.364842 0.2611793,0.753594 0.3304157,1.162514 C 11.582682,91.559996 15.310076,90.959136 19.013977,90.424693 18.345558,87.060223 17.656993,83.752704 16.920473,80.410948 16.828464,79.993483 16.737918,79.57395 16.64869,79.15252 13.314258,79.826787 10.194578,77.65311 9.6141988,74.379003 9.4944502,73.70346 9.4916515,73.032898 9.5907014,72.388825 m 8.9599686,17.0342 C 17.902011,85.853766 17.295404,82.337328 16.714927,78.855189 13.509426,79.479845 10.464509,77.382657 9.9622828,74.227854 9.794697,73.175137 9.9323847,72.139186 10.314148,71.20892 c 0.76205,-1.856934 2.479148,-3.33371 4.677679,-3.723401 -0.626527,-3.934161 -1.260368,-7.9767 -1.829211,-12.031292 -1.647419,0.241048 -3.2826025,0.479828 -4.8996423,0.724206 -2.1098469,0.318854 -4.3094838,0.683455 -6.5714394,1.075586 -0.011508,-0.05874 -0.023883,-0.117105 -0.037108,-0.175088 m 12.1923099,2.04496 c -0.21448,-1.405731 -0.438517,-2.800103 -0.669208,-4.185342 -3.8819052,0.683992 -7.8172566,1.44136 -11.7399088,2.221448 -0.44277938,-2.441546 -2.37391933,-4.242069 -4.7004347,-4.647212 -0.697223,-0.121416 -1.4342878,-0.119518 -2.1823894,0.0266 -3.2484614,0.63448 -5.4571491,3.744156 -4.9771251,7.017231 -3.967293,0.708064 -7.994959,1.417078 -12.055938,2.199467 -0.06543,0.01261 -0.130801,0.02518 -0.196122,0.03773 0.223269,1.829935 0.489872,3.636619 0.784516,5.427849 m 9.566231,-7.5857 c -3.219971,0.593064 -6.45036,1.174798 -9.712788,1.76155 0.585341,3.951928 1.121921,7.911493 1.569147,11.909389 -0.611886,0.113154 -1.19055,0.306191 -1.7272,0.566041 -2.48298,1.202278 -3.923888,3.789858 -3.442626,6.452071 0.585001,3.236065 3.787273,5.362919 7.133974,4.743826 0.430459,2.032766 0.857496,4.0651 1.250202,6.107251 0.156686,0.814795 0.311361,1.631918 0.46444,2.451073 m -5.19451,-8.780039 c 1.085694,0.49216 2.316607,0.675556 3.562477,0.458394 0.721316,3.921753 1.365766,7.810147 1.998205,11.68553 2.518777,-0.479398 5.032441,-0.964333 7.5590058,-1.449155 1.5007716,-0.287983 3.0135706,-0.569238 4.5362385,-0.846119 -0.5640848,-3.264627 1.6507188,-6.361969 4.96892265,-6.93605 3.30626345,-0.572016 6.46939335,1.568283 7.16705645,4.76277 0,0 1e-7,10e-7 1e-7,10e-7 0.00354,0.0162 0.00701,0.03242 0.010415,0.04867 3.8810551,-0.693789 7.6472111,-1.410832 11.3858571,-2.173392 -0.379859,-2.134808 -0.768126,-4.283527 -1.150034,-6.44992 M -9.9502815,95.519464 c 2.1063171,-0.403719 4.2130801,-0.779384 6.3153038,-1.13355 -0.6111791,-3.211099 1.5126387,-6.241934 4.6865391,-6.708664 2.5380061,-0.373222 4.9721541,1.014593 6.0649341,3.318248 0.2724909,0.574429 0.4663144,1.201178 0.5622489,1.867634 3.6559116,-0.556484 7.4237036,-1.25196 11.1973536,-1.973008 -0.566494,-3.318536 -1.128567,-6.656372 -1.755731,-9.939146 -0.124849,-0.653497 -0.246302,-1.307398 -0.364581,-1.96176 -3.264417,0.553944 -6.310851,-1.638459 -6.7756879,-4.931983 -0.2819383,-1.997636 0.4561039,-3.943629 1.8443769,-5.312056 m 6.807943,21.641299 c 0.02283,-0.0038 0.04565,-0.0077 0.06848,-0.0115 -0.6901,-3.886474 -1.359339,-7.773806 -2.007292,-11.636348 -3.209962,0.619139 -6.2648,-1.493464 -6.7740756,-4.650471 C 9.8168058,73.451363 9.8258725,72.821276 9.9332672,72.217725 10.358474,69.828092 12.273568,67.782721 14.857202,67.2973 14.15117,63.335721 13.386106,59.26973 12.62692,55.19949 11.306568,55.378278 9.9868604,55.5566 8.6701544,55.738092 6.0106221,56.104678 3.3664653,56.533449 0.72452157,56.990714 0.54259778,56.001181 0.12781305,55.115387 -0.4539841,54.378094 M 13.18538,59.922713 C 12.903046,58.121658 12.616657,56.348373 12.331063,54.598136 8.4713363,55.337182 4.615505,56.188975 0.81606728,57.10242 0.51240999,55.137807 -0.82075636,53.622004 -2.5443942,52.999792 -3.5086405,52.65171 -4.6144741,52.556886 -5.7521536,52.794757 c -3.1754886,0.663945 -5.3650484,3.677413 -4.8371794,6.804178 -3.517664,0.470093 -7.063199,0.871583 -10.533866,1.352055 -0.451706,0.06253 -0.903554,0.126799 -1.355548,0.19262 0.685282,3.799612 1.359621,7.716407 2.021114,11.633079 -1.054542,0.183902 -1.997494,0.630097 -2.773267,1.257141 m 12.279154,-14.0225 c -3.759073,0.712295 -7.533284,1.324467 -11.361277,1.877533 0.560817,3.813107 1.061454,7.560074 1.45617,11.289452 -0.03486,0.0041 -0.06961,0.0085 -0.10425,0.01319 0,0 0,0 0,0 -3.421728,0.459176 -5.560905,3.529516 -4.898534,6.781185 0.672323,3.300521 3.960426,5.567104 7.413681,5.104105 0.37068,1.586267 0.740575,3.170504 1.09568,4.743792 0.551635,2.444009 1.011362,4.849092 1.417202,7.232468 1.499439,-0.266585 2.977302,-0.541861 4.443223,-0.821466 m -11.509946,-12.23275 c 1.237116,0.861498 2.819526,1.251811 4.442256,0.956067 0.660089,3.901531 1.33496,7.862446 1.9867,11.823651 2.164835,-0.362095 4.322468,-0.724101 6.466315,-1.096282 1.8520271,-0.321521 3.7403253,-0.648261 5.658126,-0.978237 -0.5230514,-3.240645 1.7646154,-6.342118 5.18814743,-6.917154 3.01446047,-0.506327 5.92622737,1.103217 7.14894437,3.706028 0.1690981,0.359961 0.3024061,0.738944 0.395722,1.133847 1.2622271,-0.208431 2.4945552,-0.416362 3.7036312,-0.623686 m 3.012276,-24.582109 -1.396647,-7.920778 m -35.411807,13.114557 -4.410838,5.660066"
             sodipodi:nodetypes="ccscccscccscccscc"
             inkscape:path-effect="#path-effect4"
             inkscape:original-d="m -16.19451,96.751533 12.2276096,-2.156056 c -0.5724797,-3.246694 1.5953992,-6.342746 4.84209302,-6.915225 3.24669378,-0.57248 6.34274608,1.595399 6.91522458,4.842093 L 19.077444,90.532136 17.004312,78.774817 c -3.246694,0.572479 -6.342748,-1.5954 -6.915228,-4.842093 -0.5724783,-3.246694 1.595402,-6.342746 4.842095,-6.915226 L 12.858047,55.260181 1.1007276,57.333315 c -0.57247968,-3.246694 -3.6685316,-5.414573 -6.9152255,-4.842093 -3.2466936,0.572479 -5.4145711,3.668532 -4.8420921,6.915225 l -11.757317,2.073131 2.073133,11.757317 c -3.246694,0.57248 -5.414573,3.668532 -4.842093,6.915227 0.57248,3.246693 3.668532,5.414571 6.915225,4.842092 z" /><path
             id="path7"
             style="fill:#ff8080;stroke:none;stroke-width:0.238774;stroke-dasharray:none"
             d="m 31.147786,50.103069 -2.072949,11.757283 c 3.246691,0.572479 5.414646,3.668893 4.842167,6.915582 -0.115428,0.654622 -1.704893,3.137556 -2.006055,3.690843 1.539519,-0.839182 4.065651,-4.217589 4.393794,-6.078582 0.572479,-3.246689 -1.595476,-6.343103 -4.842167,-6.915582 l 1.592603,-9.033302 z m 23.04448,4.063354 c -0.115394,0.654432 -0.337415,1.262361 -0.638441,1.815521 0.725677,-0.395633 1.365305,-0.938307 1.874282,-1.597734 z m -27.190378,19.451212 -2.073416,11.757283 11.757283,2.073415 c -0.572479,3.246691 1.595476,6.342637 4.842167,6.915116 2.592399,0.45711 5.084831,-0.835785 6.277142,-3.027112 -1.146514,0.625207 -2.503349,0.883772 -3.889403,0.639373 -3.246691,-0.572479 -5.414646,-3.668425 -4.842167,-6.915116 0,0 -11.101128,-0.88841 -11.757283,-2.073415 -0.469446,-0.847811 1.649965,-9.355554 1.649965,-9.355554 -0.635152,0.100053 -1.295628,0.103913 -1.964288,-0.01399 z m 41.548058,3.193134 c -1.146328,0.624856 -3.39609,0.114024 -3.888471,0.638907 l -2.373938,2.530642 c 2.90567,0.452156 5.377537,-1.543882 6.262409,-3.169549 z M 50.830777,87.133543 c -0.983678,-0.173478 -2.038938,1.629488 -2.609703,2.368895 l 11.979713,2.09226 0.480346,-2.723981 z"
             sodipodi:nodetypes="ccscsccccccccccscscscccsccscccs" /><path
             id="path6"
             style="fill:none;stroke:#000000;stroke-width:0.238774;stroke-dasharray:none"
             d="m 62.105791,55.984194 c -2.537306,-0.484449 -5.105451,-0.948489 -7.69114,-1.402618 -0.58379,3.24779 -3.714028,5.42847 -6.99945,4.867476 -2.146482,-0.366518 -3.831692,-1.812338 -4.588989,-3.679168 -0.402198,-0.991466 -0.542469,-2.101101 -0.352379,-3.230299 -3.790643,-0.67378 -7.567398,-1.362074 -11.357808,-2.066171 -0.518216,2.789156 -1.044102,5.569436 -1.589252,8.3403 -0.212567,1.080428 -0.418161,2.166876 -0.617953,3.258177 2.179633,0.370162 3.889083,1.908955 4.60853,3.874687 M 31.682584,50.171381 c -0.244899,-0.04399 -0.489546,-0.08799 -0.733952,-0.132027 -0.742085,3.894857 -1.420529,7.782781 -2.080872,11.646377 3.271789,0.526439 5.472999,3.568746 4.92588,6.730945 -0.07181,0.415059 -0.187453,0.811348 -0.341535,1.184997 -1.020315,2.474268 -3.714497,4.026899 -6.525176,3.548402 -0.676185,3.945482 -1.35433,7.963103 -2.014391,11.963593 1.087878,0.212731 2.177128,0.424163 3.268169,0.632431 1.18588,0.226372 2.368981,0.4479 3.550224,0.665953 m -5.857462,-7.352153 c -0.39431,2.093231 -0.763079,4.191595 -1.111204,6.290842 3.963944,0.668661 7.999022,1.340365 12.073924,1.98793 -0.234503,1.697999 0.298367,3.350473 1.357168,4.604718 0.943768,1.117976 2.270297,1.937449 3.814342,2.211883 3.267767,0.580801 6.293753,-1.516301 6.741651,-4.660535 3.007491,0.656509 5.975997,1.348076 8.979128,2.047169 0.75903,0.176693 1.526167,0.343493 2.300401,0.501594 0.159981,-1.004449 0.331975,-2.023623 0.513758,-3.05489 m -12.321563,0.513828 c 3.867983,0.68955 7.812081,1.368664 11.800824,2.037546 0.738714,-3.767954 1.518511,-7.545323 2.311611,-11.331929 0.03607,-0.172213 0.07188,-0.344312 0.107454,-0.516302 3.346391,0.542987 6.461296,-1.611445 7.025607,-4.830757 0.563618,-3.215362 -1.639302,-6.265494 -4.89804,-6.778386 0.229927,-1.307557 0.464478,-2.614014 0.7079,-3.920589 0.472789,-2.537714 0.920941,-5.092373 1.350007,-7.646973 -3.986143,-0.646015 -8.01666,-1.291892 -12.071869,-1.877349 m 5.608467,0.814058 c -1.894687,-0.324801 -3.80085,-0.662412 -5.715046,-1.010581 -0.574823,3.226034 -3.694733,5.355115 -6.971027,4.716661 -2.851672,-0.555708 -4.888439,-3.027219 -5.012708,-5.858977 -0.01858,-0.423403 0.0058,-0.85377 0.07668,-1.285972 -3.793938,-0.752033 -7.565009,-1.428057 -11.339634,-2.105727 -0.625677,3.470674 -1.2544,6.939935 -1.907147,10.346125 -0.08154,0.425514 -0.162226,0.852475 -0.242095,1.280788 3.22767,0.521649 5.407924,3.640481 4.881013,6.938884 -0.108688,0.680381 -0.323655,1.316099 -0.624291,1.892529 M 31.244123,51.516175 c -0.563525,3.557045 -1.182139,7.093609 -1.817657,10.620523 3.236097,0.561126 5.382506,3.640334 4.798979,6.868201 -0.194835,1.077757 -0.669286,2.035467 -1.334635,2.811433 -1.326974,1.547587 -3.43111,2.369682 -5.61179,1.969718 -0.725147,3.885083 -1.484046,7.754222 -2.276874,11.589367 1.656279,0.263405 3.306171,0.52041 4.949662,0.769542 2.144356,0.325057 4.331045,0.68187 6.541225,1.053723 -0.01059,0.05825 -0.02026,0.116467 -0.02902,0.17463 M 25.316435,80.998806 c -0.225592,1.387294 -0.454491,2.781364 -0.684906,4.182676 3.95709,0.743658 7.902013,1.545501 11.875622,2.416183 -0.405718,2.612451 0.817032,5.147285 2.926524,6.546231 0.632177,0.41924 1.339806,0.723613 2.102254,0.884213 3.301354,0.695388 6.410915,-1.548181 6.982561,-4.936448 3.858648,0.496065 7.705028,0.86371 11.617529,1.301262 0.06303,0.007 0.126045,0.01418 0.189036,0.02138 0.339045,-1.891995 0.66017,-3.72054 0.967591,-5.503941 m -10.539492,4.123961 c 3.183178,0.529955 6.342835,1.084135 9.482827,1.647316 0.645699,-3.915362 1.261469,-7.817025 1.854549,-11.733576 0.561651,0.101949 1.11856,0.117298 1.657277,0.0553 2.499636,-0.287683 4.657437,-2.235739 5.136594,-4.922587 0.582876,-3.268453 -1.537275,-6.389273 -4.733548,-7.006767 0.396998,-2.09134 0.794107,-4.188162 1.179431,-6.29082 0.15374,-0.838936 0.306858,-1.673506 0.459656,-2.504263 m 1.834588,10.617144 c -0.824064,-0.810743 -1.89803,-1.392321 -3.13051,-1.614922 0.703689,-3.933617 1.3874,-7.934771 2.072402,-11.98188 -2.560956,-0.534386 -5.121363,-1.088334 -7.675314,-1.655851 -1.517038,-0.337104 -3.037537,-0.645707 -4.561285,-0.934005 -0.582934,3.202909 -3.699801,5.411837 -6.983246,4.899535 -3.268264,-0.509933 -5.470228,-3.511642 -4.987191,-6.717968 0,0 0,-1e-6 0,-1e-6 0.0025,-0.01627 0.005,-0.03255 0.0076,-0.04883 -3.830282,-0.639228 -7.581927,-1.267219 -11.304049,-1.866368 -0.344524,2.115512 -0.680024,4.239839 -1.0148,6.375956 m 30.165828,-1.153244 c -2.123939,-0.3686 -4.238131,-0.746401 -6.341519,-1.131831 -0.534575,3.229192 -3.576908,5.371834 -6.737266,4.754683 -2.527418,-0.493552 -4.356682,-2.606867 -4.619244,-5.127086 -0.06548,-0.628514 -0.03957,-1.279806 0.09116,-1.93554 -3.666802,-0.707915 -7.503429,-1.345709 -11.397883,-1.963244 -0.691087,3.308304 -1.425815,6.631899 -2.130754,9.938093 -0.140331,0.658159 -0.275159,1.314646 -0.405038,1.969621 3.179353,0.595626 5.377648,3.673002 4.900865,6.89238 -0.288817,1.950178 -1.491982,3.498885 -3.087705,4.27763 m 0.487779,-22.565788 c -0.02272,-0.0041 -0.04543,-0.0082 -0.06815,-0.01235 -0.673245,3.903015 -1.370638,7.798358 -2.07799,11.672974 3.232582,0.535525 5.384108,3.587857 4.792104,6.76569 -0.119447,0.641181 -0.341548,1.238055 -0.646829,1.776738 -1.207215,2.13019 -3.709267,3.386613 -6.306905,2.901889 -0.700092,3.877149 -1.394765,7.774163 -2.101106,11.616953 1.292723,0.203563 2.584166,0.40118 3.873709,0.590161 2.604665,0.381711 5.228913,0.825811 7.867132,1.303794 -0.167796,0.993678 -0.08037,1.977769 0.21518,2.88362 M 25.355001,80.213956 c -0.310756,1.761066 -0.622053,3.514229 -0.93367,5.257775 3.920927,0.628246 7.840289,1.209449 11.760477,1.725072 -0.366619,1.989248 0.394243,3.908577 1.84441,5.119284 0.811318,0.677349 1.838077,1.161817 3.006381,1.34301 3.260178,0.505623 6.367927,-1.558559 6.975934,-4.642131 3.503194,0.798516 7.021076,1.683613 10.555229,2.521645 0.459967,0.109069 0.919151,0.214635 1.377641,0.317003 0.753226,-3.721235 1.454112,-7.68352 2.161226,-11.685752 1.050912,0.162348 2.086558,0.03849 3.028128,-0.313422 m -15.935366,9.639375 c 3.742593,0.70868 7.442032,1.409651 11.124193,2.142441 0.667008,-3.834989 1.314682,-7.634374 1.97365,-11.351365 0.03214,0.0074 0.06427,0.0145 0.09638,0.02135 0,0 10e-7,0 10e-7,0 3.185021,0.679037 6.228471,-1.460376 6.815546,-4.71251 0.593452,-3.287469 -1.541456,-6.471467 -4.746017,-7.128754 0.290879,-1.574859 0.582901,-3.14556 0.874581,-4.702505 0.453108,-2.418621 0.879275,-4.809589 1.288123,-7.182993 -1.515976,-0.259141 -3.038885,-0.51125 -4.566292,-0.758882 m 6.271822,15.127443 c -0.867941,-1.281488 -2.223688,-2.220764 -3.853345,-2.516338 0.704778,-3.936386 1.405188,-7.848995 2.117287,-11.769041 -2.175017,-0.386111 -4.346396,-0.774537 -6.511346,-1.170702 -1.870257,-0.342239 -3.747964,-0.677186 -5.629594,-1.006551 -0.559635,3.253112 -3.65495,5.440017 -6.894685,4.897399 -2.846144,-0.476697 -4.857148,-2.898972 -4.893767,-5.656529 -0.0051,-0.381343 0.02692,-0.769591 0.09892,-1.160508 -1.183078,-0.199284 -2.370556,-0.403241 -3.561686,-0.610896 M 27.072881,73.214363 25.676234,81.135141 M 63.437892,80.923037 69.51858,77.11291"
             sodipodi:nodetypes="ccscccscccscccscc"
             inkscape:path-effect="#path-effect13"
             inkscape:original-d="M 66.419958,56.322588 54.192347,54.166529 c -0.57248,3.246694 -3.668531,5.414573 -6.915226,4.842093 -3.246693,-0.57248 -5.414572,-3.668532 -4.842092,-6.915225 L 31.148004,50.103191 29.074871,61.86051 c 3.246694,0.57248 5.414573,3.668532 4.842093,6.915225 -0.572479,3.246694 -3.668532,5.414573 -6.915225,4.842093 l -2.073132,11.757318 11.757317,2.073131 c -0.57248,3.246694 1.5954,6.342746 4.842094,6.915226 3.246694,0.572479 6.342745,-1.5954 6.915225,-4.842093 l 11.757318,2.073133 2.073131,-11.757318 c 3.246694,0.57248 6.342746,-1.595399 6.915226,-4.842093 0.572479,-3.246694 -1.5954,-6.342745 -4.842093,-6.915225 z" /></g></g></g></g></svg>
