<?xml version="1.0" encoding="UTF-8" standalone="no"?>
<!-- Created with Inkscape (http://www.inkscape.org/) -->

<svg
   width="220"
   height="220"
   viewBox="0 0 58.208342 58.208343"
   version="1.1"
   id="svg1"
   inkscape:version="1.3.2 (091e20ef0f, 2023-11-25, custom)"
   sodipodi:docname="projektziele.svg"
   xml:space="preserve"
   xmlns:inkscape="http://www.inkscape.org/namespaces/inkscape"
   xmlns:sodipodi="http://sodipodi.sourceforge.net/DTD/sodipodi-0.dtd"
   xmlns="http://www.w3.org/2000/svg"
   xmlns:svg="http://www.w3.org/2000/svg"><sodipodi:namedview
     id="namedview1"
     pagecolor="#ffffff"
     bordercolor="#000000"
     borderopacity="0.25"
     inkscape:showpageshadow="2"
     inkscape:pageopacity="0.0"
     inkscape:pagecheckerboard="0"
     inkscape:deskcolor="#d1d1d1"
     inkscape:document-units="px"
     inkscape:zoom="1.4142136"
     inkscape:cx="96.873629"
     inkscape:cy="96.166522"
     inkscape:window-width="1440"
     inkscape:window-height="831"
     inkscape:window-x="0"
     inkscape:window-y="0"
     inkscape:window-maximized="1"
     inkscape:current-layer="g9"
     showgrid="true"><inkscape:grid
       id="grid10"
       units="px"
       originx="0"
       originy="0"
       spacingx="1.3229168"
       spacingy="1.3229168"
       empcolor="#0099e5"
       empopacity="0.30196078"
       color="#0099e5"
       opacity="0.14901961"
       empspacing="5"
       dotted="false"
       gridanglex="30"
       gridanglez="30"
       visible="true" /></sodipodi:namedview><defs
     id="defs1"><inkscape:path-effect
       effect="sketch"
       id="path-effect25"
       is_visible="true"
       lpeversion="1"
       nbiter_approxstrokes="3"
       parallel_offset="0.2;1"
       strokelength="70"
       strokelength_rdm="0.3;1"
       strokeoverlap="0.5"
       strokeoverlap_rdm="0.5;1"
       ends_tolerance="0.1;1"
       tremble_size="0.8;1"
       tremble_frequency="3"
       nbtangents="2"
       tgt_places_rdmness="0.5;1"
       tgtlength="10"
       tgtlength_rdm="0.3;1"
       tgtscale="10" /><inkscape:path-effect
       effect="sketch"
       id="path-effect23"
       is_visible="true"
       lpeversion="1"
       nbiter_approxstrokes="3"
       parallel_offset="0.2;1"
       strokelength="70"
       strokelength_rdm="0.3;1"
       strokeoverlap="0.5"
       strokeoverlap_rdm="0.5;1"
       ends_tolerance="0.1;1"
       tremble_size="0.8;1"
       tremble_frequency="3"
       nbtangents="2"
       tgt_places_rdmness="0.5;1"
       tgtlength="7"
       tgtlength_rdm="0.3;1"
       tgtscale="10" /><inkscape:path-effect
       effect="sketch"
       id="path-effect22"
       is_visible="true"
       lpeversion="1"
       nbiter_approxstrokes="3"
       parallel_offset="0.2;1"
       strokelength="70"
       strokelength_rdm="0.3;1"
       strokeoverlap="0.5"
       strokeoverlap_rdm="0.5;1"
       ends_tolerance="0.1;1"
       tremble_size="0.8;1"
       tremble_frequency="3"
       nbtangents="2"
       tgt_places_rdmness="0.5;1"
       tgtlength="10"
       tgtlength_rdm="0.3;1"
       tgtscale="10" /><inkscape:path-effect
       effect="sketch"
       id="path-effect17"
       is_visible="true"
       lpeversion="1"
       nbiter_approxstrokes="3"
       parallel_offset="0.2;1"
       strokelength="70"
       strokelength_rdm="0.3;1"
       strokeoverlap="0.5"
       strokeoverlap_rdm="0.5;1"
       ends_tolerance="0.1;1"
       tremble_size="0.8;1"
       tremble_frequency="3"
       nbtangents="2"
       tgt_places_rdmness="0.5;1"
       tgtlength="10"
       tgtlength_rdm="0.3;1"
       tgtscale="10" /><inkscape:path-effect
       effect="sketch"
       id="path-effect15"
       is_visible="true"
       lpeversion="1"
       nbiter_approxstrokes="3"
       parallel_offset="0.2;1"
       strokelength="70"
       strokelength_rdm="0.3;1"
       strokeoverlap="0.5"
       strokeoverlap_rdm="0.5;1"
       ends_tolerance="0.1;1"
       tremble_size="0.8;1"
       tremble_frequency="3"
       nbtangents="2"
       tgt_places_rdmness="0.5;1"
       tgtlength="8"
       tgtlength_rdm="0.3;1"
       tgtscale="10" /><inkscape:path-effect
       effect="sketch"
       id="path-effect14"
       is_visible="true"
       lpeversion="1"
       nbiter_approxstrokes="3"
       parallel_offset="0.2;1"
       strokelength="70"
       strokelength_rdm="0.3;1"
       strokeoverlap="0.5"
       strokeoverlap_rdm="0.5;1"
       ends_tolerance="0.1;1"
       tremble_size="0.8;1"
       tremble_frequency="3"
       nbtangents="2"
       tgt_places_rdmness="0.5;1"
       tgtlength="10"
       tgtlength_rdm="0.3;1"
       tgtscale="10" /><inkscape:path-effect
       effect="sketch"
       id="path-effect4"
       is_visible="true"
       lpeversion="1"
       nbiter_approxstrokes="3"
       parallel_offset="0.2;1"
       strokelength="70"
       strokelength_rdm="0.3;1"
       strokeoverlap="0.5"
       strokeoverlap_rdm="0.5;1"
       ends_tolerance="0.1;1"
       tremble_size="0.8;1"
       tremble_frequency="3"
       nbtangents="2"
       tgt_places_rdmness="0.5;1"
       tgtlength="10"
       tgtlength_rdm="0.3;1"
       tgtscale="10" /><inkscape:path-effect
       effect="sketch"
       id="path-effect12"
       is_visible="true"
       lpeversion="1"
       nbiter_approxstrokes="3"
       parallel_offset="0.2;1"
       strokelength="70"
       strokelength_rdm="0.3;1"
       strokeoverlap="0.5"
       strokeoverlap_rdm="0.5;1"
       ends_tolerance="0.1;1"
       tremble_size="0.8;1"
       tremble_frequency="3"
       nbtangents="2"
       tgt_places_rdmness="0.5;1"
       tgtlength="10"
       tgtlength_rdm="0.3;1"
       tgtscale="10" /><inkscape:path-effect
       effect="sketch"
       id="path-effect18"
       is_visible="true"
       lpeversion="1"
       nbiter_approxstrokes="3"
       parallel_offset="0.2;1"
       strokelength="70"
       strokelength_rdm="0.3;1"
       strokeoverlap="0.5"
       strokeoverlap_rdm="0.5;1"
       ends_tolerance="0.1;1"
       tremble_size="0.8;1"
       tremble_frequency="3"
       nbtangents="2"
       tgt_places_rdmness="0.5;1"
       tgtlength="10"
       tgtlength_rdm="0.3;1"
       tgtscale="10" /><inkscape:path-effect
       effect="sketch"
       id="path-effect10"
       is_visible="true"
       lpeversion="1"
       nbiter_approxstrokes="3"
       parallel_offset="0.2;1"
       strokelength="70"
       strokelength_rdm="0.3;1"
       strokeoverlap="0.5"
       strokeoverlap_rdm="0.5;1"
       ends_tolerance="0.1;1"
       tremble_size="0.8;1"
       tremble_frequency="3"
       nbtangents="2"
       tgt_places_rdmness="0.5;1"
       tgtlength="10"
       tgtlength_rdm="0.3;1"
       tgtscale="10" /><inkscape:path-effect
       effect="sketch"
       id="path-effect9"
       is_visible="true"
       lpeversion="1"
       nbiter_approxstrokes="3"
       parallel_offset="0.2;1"
       strokelength="70"
       strokelength_rdm="0.3;1"
       strokeoverlap="0.5"
       strokeoverlap_rdm="0.5;1"
       ends_tolerance="0.1;1"
       tremble_size="0.8;1"
       tremble_frequency="3"
       nbtangents="2"
       tgt_places_rdmness="0.5;1"
       tgtlength="10"
       tgtlength_rdm="0.3;1"
       tgtscale="10" /><inkscape:path-effect
       effect="sketch"
       id="path-effect8"
       is_visible="true"
       lpeversion="1"
       nbiter_approxstrokes="3"
       parallel_offset="0.2;1"
       strokelength="70"
       strokelength_rdm="0.3;1"
       strokeoverlap="0.5"
       strokeoverlap_rdm="0.5;1"
       ends_tolerance="0.1;1"
       tremble_size="0.8;1"
       tremble_frequency="3"
       nbtangents="2"
       tgt_places_rdmness="0.5;1"
       tgtlength="10"
       tgtlength_rdm="0.3;1"
       tgtscale="10" /><inkscape:path-effect
       effect="sketch"
       id="path-effect3"
       is_visible="true"
       lpeversion="1"
       nbiter_approxstrokes="3"
       parallel_offset="0.2;1"
       strokelength="70"
       strokelength_rdm="0.3;1"
       strokeoverlap="0.5"
       strokeoverlap_rdm="0.5;1"
       ends_tolerance="0.1;1"
       tremble_size="0.8;1"
       tremble_frequency="3"
       nbtangents="2"
       tgt_places_rdmness="0.5;1"
       tgtlength="10"
       tgtlength_rdm="0.3;1"
       tgtscale="10" /><inkscape:path-effect
       effect="sketch"
       id="path-effect2"
       is_visible="true"
       lpeversion="1"
       nbiter_approxstrokes="4"
       parallel_offset="0.7;1"
       strokelength="50"
       strokelength_rdm="0.3;1"
       strokeoverlap="0.3"
       strokeoverlap_rdm="0.3;1"
       ends_tolerance="0.1;1"
       tremble_size="0.8;1"
       tremble_frequency="3"
       nbtangents="0"
       tgt_places_rdmness="1;1"
       tgtlength="100"
       tgtlength_rdm="0.3;1"
       tgtscale="10" /><inkscape:path-effect
       effect="sketch"
       id="path-effect1"
       is_visible="true"
       lpeversion="1"
       nbiter_approxstrokes="3"
       parallel_offset="0.5;1"
       strokelength="50"
       strokelength_rdm="0.3;1"
       strokeoverlap="0.3"
       strokeoverlap_rdm="0.3;1"
       ends_tolerance="0.1;1"
       tremble_size="1;1"
       tremble_frequency="3"
       nbtangents="0"
       tgt_places_rdmness="1;1"
       tgtlength="100"
       tgtlength_rdm="0.3;1"
       tgtscale="10" /><inkscape:path-effect
       effect="sketch"
       id="path-effect11"
       is_visible="true"
       lpeversion="1"
       nbiter_approxstrokes="3"
       parallel_offset="0.5;1"
       strokelength="50"
       strokelength_rdm="0.3;1"
       strokeoverlap="0.3"
       strokeoverlap_rdm="0.3;1"
       ends_tolerance="0.1;1"
       tremble_size="1;1"
       tremble_frequency="3"
       nbtangents="0"
       tgt_places_rdmness="1;1"
       tgtlength="100"
       tgtlength_rdm="0.3;1"
       tgtscale="10" /><inkscape:path-effect
       effect="sketch"
       id="path-effect7"
       is_visible="true"
       lpeversion="1"
       nbiter_approxstrokes="3"
       parallel_offset="1;1"
       strokelength="50"
       strokelength_rdm="0.3;1"
       strokeoverlap="0.3"
       strokeoverlap_rdm="0.3;1"
       ends_tolerance="0.1;1"
       tremble_size="1.2;1"
       tremble_frequency="3"
       nbtangents="0"
       tgt_places_rdmness="1;1"
       tgtlength="100"
       tgtlength_rdm="0.3;1"
       tgtscale="10" /><rect
       x="223.77509"
       y="306.53192"
       width="415.43015"
       height="124.34706"
       id="rect6" /><inkscape:path-effect
       effect="sketch"
       id="path-effect6"
       is_visible="true"
       lpeversion="1"
       nbiter_approxstrokes="3"
       parallel_offset="1;1"
       strokelength="50"
       strokelength_rdm="0.3;1"
       strokeoverlap="0.3"
       strokeoverlap_rdm="0.3;1"
       ends_tolerance="0.1;1"
       tremble_size="1.2;1"
       tremble_frequency="3"
       nbtangents="0"
       tgt_places_rdmness="1;1"
       tgtlength="100"
       tgtlength_rdm="0.3;1"
       tgtscale="10" /><inkscape:path-effect
       effect="sketch"
       id="path-effect5"
       is_visible="true"
       lpeversion="1"
       nbiter_approxstrokes="3"
       parallel_offset="1;1"
       strokelength="50"
       strokelength_rdm="0.3;1"
       strokeoverlap="0.3"
       strokeoverlap_rdm="0.3;1"
       ends_tolerance="0.1;1"
       tremble_size="1.2;1"
       tremble_frequency="3"
       nbtangents="0"
       tgt_places_rdmness="1;1"
       tgtlength="100"
       tgtlength_rdm="0.3;1"
       tgtscale="10" /></defs><g
     inkscape:label="Layer 1"
     inkscape:groupmode="layer"
     id="layer1"><g
       id="g6"><g
         id="g9"
         transform="translate(28.418657,-43.5)"><g
           id="g1"
           transform="matrix(1.1,0,0,1.1,3.2638755,-4.2991197)"
           style="stroke-width:0.24053034;stroke-dasharray:none"><path
             id="circle2"
             style="fill:#e6e6e6;stroke:none;stroke-width:0.24053034;stroke-dasharray:none"
             d="M -2.8672568,46.571977 A 24.05264,24.05264 0 0 0 -26.919895,70.624616 24.05264,24.05264 0 0 0 -2.8672568,94.677255 24.05264,24.05264 0 0 0 21.185381,70.624616 24.05264,24.05264 0 0 0 -2.8672568,46.571977 Z m 0,8.659095 A 15.39369,15.39369 0 0 1 12.526287,70.624616 15.39369,15.39369 0 0 1 -2.8672568,86.018159 15.39369,15.39369 0 0 1 -18.260802,70.624616 15.39369,15.39369 0 0 1 -2.8672568,55.231072 Z" /><path
             id="path2"
             style="fill:#b3b3b3;stroke:none;stroke-width:0.24053034;stroke-dasharray:none"
             d="m -19.653386,53.106511 c -2.058149,2.089932 -3.812557,4.496848 -5.01422,7.179979 -1.180336,2.506483 -1.879686,5.231913 -2.142185,7.986793 -0.258587,2.949001 0.0349,5.936753 0.846165,8.783376 0.86976,3.024477 2.328237,5.880267 4.280567,8.350886 1.724595,2.176812 3.815162,4.077877 6.180751,5.537543 2.463178,1.575542 5.230882,2.630942 8.0837081,3.246437 2.9336865,0.556688 5.9659396,0.642714 8.9085625,0.09936 2.7303527,-0.460523 5.3742902,-1.4226 7.7861395,-2.779211 1.9865779,-1.136424 3.8498589,-2.535663 5.4165089,-4.193502 0.613095,-0.823116 -0.584483,-0.286104 -0.855764,0.0608 -3.605026,2.99846 -8.1246577,4.858056 -12.7876125,5.322515 -3.7238145,0.353027 -7.5291449,-0.163551 -11.0109971,-1.538045 -3.0063514,-1.163592 -5.7373584,-2.981561 -8.0490794,-5.222929 -2.163384,-2.181568 -3.931207,-4.752805 -5.141499,-7.58026 -1.312945,-3.128519 -1.984913,-6.531014 -1.890371,-9.925414 0.09938,-4.68325 1.654318,-9.31059 4.352545,-13.135011 0.499563,-0.841561 1.426074,-1.45437 1.607094,-2.453083 -0.190104,0.08659 -0.380209,0.173177 -0.570313,0.259766 z m 18.3554694,0.273437 c -2.9401916,0.04659 -5.8659765,0.881968 -8.3424827,2.477998 -1.1432767,0.760215 -2.2794247,1.622796 -3.1273637,2.698166 -0.548288,0.788204 0.740689,0.09566 0.989932,-0.1943 3.4463314,-2.692174 8.1123925,-3.716566 12.37667149,-2.76748 3.28117771,0.701471 6.31638731,2.538356 8.44033041,5.138637 2.2155751,2.640132 3.4300561,6.061224 3.4785901,9.500119 0.0532,3.578215 -1.226638,7.109287 -3.5305214,9.849985 -0.5376583,0.910009 0.4354498,0.449623 0.7406728,-0.0073 2.4473036,-2.389898 4.0301716,-5.617186 4.4971736,-9.000405 0.364666,-2.750051 -0.01127,-5.605234 -1.115135,-8.152638 -1.107037,-2.6722 -3.009678,-4.985539 -5.3579166,-6.664773 -2.4984894,-1.748561 -5.5048506,-2.777335 -8.55876592,-2.85053 -0.1635859,-0.0072 -0.32791358,-0.02404 -0.49118508,-0.02748 z" /><path
             id="path4"
             style="fill:none;stroke:#000000;stroke-width:0.34396404;stroke-dasharray:none"
             d="m 4.374902,47.181104 c -7.5460349,0.858871 -15.04652,4.712605 -20.611045,10.39242 -5.569782,5.685181 -8.839126,12.928681 -9.742625,20.492136 0,0 0,2e-6 0,2e-6 -0.107552,0.900345 -0.167253,1.811945 -0.180395,2.730924 -0.03205,2.241244 0.212896,4.519659 0.711391,6.780182 m 1.274298,-18.899803 c -1.520048,3.755473 -2.219772,7.720124 -2.160787,11.664388 0.05442,3.638879 0.75371,7.212717 1.999511,10.543915 0,0 0,2e-6 0,2e-6 2.619528,7.004462 7.578341,13.92742 14.3728223,18.4043 1.030492,0.679 2.0880382,1.29565 3.1702095,1.85031 m -10.7636498,-7.96176 c 5.019565,5.76016 12.5830329,9.7169 21.0305665,10.7861 2.1205126,0.2684 4.1525902,0.42717 6.11375,0.4616 5.8246285,0.10225 10.8765985,-0.89817 15.5286505,-3.19448 1.470169,-0.72569 2.951799,-1.68542 4.40414,-2.8392 m -13.679777,5.38624 c 7.491235,-1.79549 14.706696,-6.22604 20.076216,-12.57501 5.234494,-6.189313 7.337308,-13.353997 7.407017,-20.72366 0.0017,-0.181981 0.0022,-0.363955 0.0015,-0.545912 -0.02566,-6.42245 -2.309336,-12.904053 -6.418117,-18.064303 m 5.204287,29.237371 c 1.03473,-3.179508 1.522411,-6.562936 1.482554,-10.016149 -0.05243,-4.542186 -1.016091,-9.133267 -2.764189,-13.482671 0,0 0,-10e-7 0,-10e-7 -3.100413,-7.714069 -8.386292,-13.490301 -15.419842,-17.651168 0,0 -3e-6,-2e-6 -3e-6,-2e-6 -3.794447,-2.244697 -7.785339,-3.524484 -11.841244,-3.929469 M 33.427369,56.760764 C 28.123011,51.303129 20.574364,47.726783 12.772203,46.821757 11.583371,46.683857 10.3828,46.606902 9.1753069,46.590146 2.477258,46.497201 -4.2441478,48.255752 -10.25019,51.467802 c -2.095503,1.120682 -3.971014,2.502292 -5.637715,4.08445 M 1.3673237,46.165883 c -7.4927605,1.543609 -14.4799937,6.09806 -19.1268827,13.134831 -4.658216,7.053925 -7.823633,13.067691 -7.779369,19.968156 0.0015,0.228389 0.0051,0.45949 0.01107,0.693148 0.03669,1.447263 0.159301,2.989456 0.373098,4.589958 m 0.989844,-13.799086 c -0.995458,3.214435 -1.547442,6.614411 -1.630707,10.053348 -0.105956,4.376144 0.548931,8.738799 1.937219,12.788428 2.495271,7.278694 8.310679,13.237794 15.3071837,16.790024 0,0 1.7e-6,0 1.7e-6,0 0.7455647,0.37853 1.5045036,0.73908 2.2761248,1.07983 m -9.3561242,-6.39869 c 5.565254,5.73484 12.7114879,8.88572 20.5143835,9.13604 1.3932844,0.0447 2.7887911,0.0514 4.1814107,0.007 6.3856718,-0.20244 12.5269798,-1.47693 17.7509588,-4.78782 4.870617,-3.08693 9.200405,-7.38204 12.229544,-12.331423 M 16.710266,113.66086 c 7.619322,-1.9726 14.558648,-6.71544 19.836169,-13.32958 4.908737,-6.151946 6.47952,-12.99122 5.879897,-20.109108 -0.04319,-0.512639 -0.09752,-1.025816 -0.162429,-1.539389 -0.705756,-5.584274 -2.000132,-11.217264 -4.458608,-16.281305 m 3.823587,27.061215 c 0.711138,-2.757409 1.059176,-5.596811 1.046274,-8.463301 -0.02278,-5.061468 -1.169825,-10.11395 -3.312159,-14.872136 -3.380541,-7.508278 -8.97501,-13.15658 -16.110803,-17.117852 0,0 -2e-6,-1e-6 -2e-6,-1e-6 C 19.953264,47.178079 16.488005,46.102879 12.965995,45.68233 M 30.714879,55.4539 C 24.878282,50.103226 17.436608,46.646765 9.5967595,45.253283 8.9823831,45.144081 8.3679591,45.066606 7.7542743,45.019434 0.57528993,44.467613 -6.3550387,48.057789 -11.92799,53.19863 c -4.246613,3.917343 -7.869883,7.831702 -10.295449,12.480296 M 3.0001599,46.19574 c -7.5739475,1.578302 -14.8332979,5.689949 -20.1316309,12.387276 0,0 -2e-6,2e-6 -2e-6,2e-6 -5.302153,6.702155 -8.082459,13.286512 -8.198774,20.915891 -0.0071,0.465495 -0.0063,0.933514 0.0026,1.40361 0.06443,3.413158 0.55351,6.907942 1.506924,10.314244 m -0.01038,-20.693424 c -1.085927,3.36721 -1.639346,6.949698 -1.61484,10.567476 0.02825,4.17071 0.824274,8.325068 2.388121,12.186465 0,0 1e-6,10e-7 1e-6,10e-7 2.944305,7.269969 8.06341,13.596449 14.9774354,17.742319 1.4101196,0.84555 2.8588743,1.57601 4.3390572,2.19068 m -12.9847876,-8.36935 c 5.416308,5.77088 12.8302095,8.97402 20.9944602,9.26946 1.5474813,0.056 3.0678831,0.0648 4.5624952,0.0108 6.3683116,-0.22999 12.1054926,-1.60175 17.1371906,-5.0562 2.297765,-1.5775 4.53189,-3.38112 6.585986,-5.40277 m -14.464424,10.53021 c 7.483932,-1.91321 14.30619,-6.75952 19.183546,-13.05083 4.414458,-5.694226 6.413634,-12.886156 6.466051,-20.337092 0.0054,-0.761614 -0.0096,-1.524016 -0.04392,-2.285906 C 43.417652,72.360273 41.491851,66.86673 38.261247,62.082071 m 3.876276,26.129133 c 0.642414,-2.580739 0.930953,-5.198277 0.872063,-7.798436 -0.114376,-5.049997 -1.53715,-9.948578 -4.091939,-14.309424 0,0 -2e-6,-3e-6 -2e-6,-3e-6 -3.912337,-6.678086 -9.032754,-13.173555 -16.01314,-17.387296 0,0 -3e-6,-2e-6 -3e-6,-2e-6 -4.537992,-2.739378 -9.627323,-3.693505 -14.7610614,-3.459798 -2.0544363,0.09353 -4.1036423,0.376389 -6.1171391,0.802558 m 8.3481545,11.976324 c 8.175386,0.459477 15.035133,5.392296 18.48534,13.140731 1.468536,3.298023 2.170601,6.688893 2.024934,10.062154 -0.191259,4.427107 -1.835301,8.647486 -4.801343,12.413149 -4.847454,6.15429 -10.868044,9.598809 -17.7538319,9.581519 -0.1885003,-4.8e-4 -0.3772764,-0.004 -0.5663132,-0.009 M 30.236122,81.57729 c -0.960207,7.685879 -5.660391,14.867292 -12.903812,18.179532 -2.810675,1.285258 -5.808243,1.973258 -8.7894506,2.034698 -4.5658061,0.094 -8.89052098,-1.28647 -12.2569382,-3.868161 C -6.3056646,95.935881 -8.71533,93.058149 -10.53139,89.660281 M 3.9249431,102.66694 c -7.5813077,-1.60508 -13.9367141,-7.432454 -16.0531951,-14.978239 -0.578639,-2.062996 -0.902739,-4.248312 -0.949249,-6.485107 -0.121415,-5.844282 1.656504,-11.679461 5.0915118,-16.370691 3.3456794,-4.569234 8.90681883,-6.612244 14.8376313,-6.459581 M -12.752695,74.217036 c 2.235462,-7.480763 9.1491415,-13.403301 17.6410309,-15.326523 1.5554747,-0.35228 3.0730377,-0.539887 4.5447293,-0.567671 6.4852578,-0.122315 11.7489758,2.861765 15.2409488,7.643654 2.869399,3.929341 5.045221,9.112925 5.471781,14.620841 0.104791,1.353417 0.102334,2.710742 -0.01713,4.05575 M 12.926347,59.346208 c 7.791662,1.269808 14.41584,6.706865 17.153303,14.182849 0.884679,2.416049 1.324593,4.94717 1.300173,7.475571 -0.05005,5.171951 -2.040335,10.090519 -5.620326,13.80151 -4.367654,4.527477 -10.387858,7.520872 -16.8738974,7.595112 -1.0117115,0.0116 -2.0253128,-0.0484 -3.0351283,-0.18209 M 30.720429,84.394468 c -1.827157,7.743719 -7.212789,14.168956 -14.718924,16.665072 -2.150498,0.71513 -4.425647,1.10967 -6.7394423,1.17593 -5.6457711,0.16159 -11.1984824,-1.63566 -15.5455859,-4.895589 -4.7618078,-3.570917 -7.0209308,-9.856778 -6.6706578,-16.334018 0.03011,-0.556571 0.07931,-1.112657 0.147258,-1.666594 M 2.8226115,101.63996 C -4.8365495,99.527058 -10.725755,93.501152 -12.50033,85.915054 c -0.397604,-1.699712 -0.608477,-3.464042 -0.62308,-5.249971 -0.04969,-6.091585 2.184838,-12.056799 6.2885568,-16.357593 3.7717023,-3.952832 9.4487714,-6.034061 15.4405476,-5.990963 2.2712876,0.01638 4.5480776,0.336998 6.7416016,0.942342 m -0.820897,-0.771684 c 7.691338,1.907192 13.327971,7.881643 14.43182,15.449073 0.2683,1.839326 0.433501,3.761537 0.445997,5.726979 0.0383,6.041018 -1.383515,12.03034 -4.927565,16.645984 -3.23502,4.213179 -8.775142,6.146529 -14.62505,5.944539 M 29.281222,87.321255 c -2.829461,7.290493 -9.34115,12.941145 -17.369346,14.288675 -1.203236,0.20197 -2.4089531,0.31276 -3.6075154,0.3321 -6.7287493,0.10842 -12.8029005,-2.669243 -16.7505389,-7.358584 -0.6369038,-0.756569 -1.2196092,-1.592111 -1.7407247,-2.493709 m 8.7533963,7.874284 C -8.8104046,96.230575 -13.261214,89.778994 -13.622494,82.593865 c -0.01909,-0.379587 -0.02709,-0.764838 -0.02394,-1.154863 0.05639,-6.972742 3.643708,-14.812192 9.6782116,-19.225266 3.36478089,-2.460687 7.5594982,-3.631772 11.931279,-3.544101 0.7145325,0.01434 1.4314018,0.06222 2.1477324,0.142768 M -10.115798,68.835885 C -6.0629909,62.412446 0.8122191,58.51145 8.1021752,58.356479 c 0.3748482,-0.008 0.7493054,-0.0059 1.1229687,0.006 0,0 1.5e-6,0 1.5e-6,0 7.6619196,0.24545 14.9860476,5.204655 18.3495646,12.526298 0.817048,1.778536 1.425981,3.652347 1.804303,5.583979 M 42.440732,90.745838 43.459006,74.692163 M 0.85427444,102.35252 -10.507116,93.584047"
             transform="matrix(0.69928921,0,0,0.69928921,-8.8972383,14.302694)"
             inkscape:original-d="M 8.6230152,46.145834 A 34.39584,34.39584 0 0 0 -25.772823,80.541672 34.39584,34.39584 0 0 0 8.6230152,114.93751 34.39584,34.39584 0 0 0 43.018853,80.541672 34.39584,34.39584 0 0 0 8.6230152,46.145834 Z m 0,12.382708 A 22.013338,22.013338 0 0 1 30.636145,80.541672 22.013338,22.013338 0 0 1 8.6230152,102.5548 22.013338,22.013338 0 0 1 -13.390115,80.541672 22.013338,22.013338 0 0 1 8.6230152,58.528542 Z"
             inkscape:path-effect="#path-effect4" /><circle
             style="fill:#ffaaaa;stroke:none;stroke-width:0.24053034;stroke-dasharray:none"
             id="path14"
             cx="-3.3298109"
             cy="70.162064"
             r="6.9382601" /><path
             id="circle3"
             style="fill:#ff8080;stroke:none;stroke-width:0.24053034;stroke-dasharray:none"
             d="m -7.428776,64.190495 c -1.6542084,1.293952 -2.740946,3.29818 -2.811751,5.407591 -0.144906,2.537558 1.2120975,5.083673 3.3828602,6.404261 2.134048,1.357379 5.0072012,1.446027 7.21043778,0.195812 C 1.4419057,75.609027 2.4314485,74.73495 2.9970053,73.620183 1.8969292,73.93532 1.0572114,74.83878 -0.10487674,75.014432 -3.168553,75.885906 -6.679026,74.137591 -7.8599129,71.184781 c -0.9676455,-2.156727 -0.5928088,-4.785327 0.8315275,-6.656395 0.2206079,-0.731668 0.4996603,-0.856765 -0.4003906,-0.337891 z" /><path
             style="fill:none;stroke:#000000;stroke-width:0.34396404;stroke-dasharray:none"
             id="circle14"
             inkscape:path-effect="#path-effect15"
             sodipodi:type="arc"
             sodipodi:cx="7.9615521"
             sodipodi:cy="79.880211"
             sodipodi:rx="9.921875"
             sodipodi:ry="9.921875"
             d="m 17.155978,85.01978 c -1.562038,3.293973 -5.020429,5.425925 -8.84763,5.44472 -4.3060605,0.02115 -8.19667314,-2.623925 -9.6577863,-6.636529 -0.377925,-1.037882 -0.5779425,-2.129986 -0.5941837,-3.231936 -0.081294,-5.515743 4.3438989,-10.024139 9.7065505,-10.174013 1.4630312,-0.04089 2.8999195,0.251853 4.1963215,0.851757 2.846067,1.317005 4.908386,4.102687 5.462428,7.379778 M 2.7787652,71.139089 c 1.387794,-0.784293 2.9642735,-1.20524 4.5810156,-1.230678 5.4521712,-0.08579 10.0146312,4.240182 10.1111222,9.468502 0.01691,0.916319 -0.107532,1.823721 -0.370042,2.69097 -1.20087,3.967296 -5.040147,6.896475 -9.3931136,7.048005 C 4.1084475,89.241183 0.80234814,87.434795 -0.85899696,84.367087 -1.4056862,83.357614 -1.7640226,82.243577 -1.9137024,81.083095 m 17.3408614,4.837952 c -1.943508,2.351127 -4.783866,3.725468 -7.724584,3.691194 -4.7970842,-0.05591 -8.69094731,-3.826068 -8.8614779,-8.946929 -0.014328,-0.430247 -0.00735,-0.860717 0.0215,-1.289235 0.37492686,-5.568704 4.4128877,-9.796247 9.4576594,-9.363292 1.9928961,0.171035 3.9159701,1.081932 5.4758641,2.612812 1.331235,1.306475 2.396751,2.890166 3.050973,4.626338 M 4.3526231,70.162883 c 0.9376662,-0.29896 1.9249442,-0.452226 2.9266445,-0.454623 5.4886564,-0.01314 10.1206064,4.382474 10.4557334,9.778753 0.0969,1.560268 -0.178994,3.094327 -0.797014,4.471184 -1.447815,3.225521 -4.82878,5.31801 -8.5653711,5.398144 -4.3382914,0.09304 -8.26844551,-2.528498 -9.5390055,-6.463615 -0.3059038,-0.947431 -0.4629027,-1.943973 -0.464426,-2.950136 -0.00804,-5.311953 4.2517137,-9.71083 9.4580412,-9.440391 0.3820248,0.01984 0.7631713,0.06535 1.1411646,0.136541 M 16.722507,86.093166 C 14.936626,88.845367 11.85777,90.442417 8.5430147,90.361992 3.7439833,90.245555 -0.44638631,86.681366 -1.4466981,81.764647 -1.5813795,81.102663 -1.6538604,80.4351 -1.6635752,79.769985 -1.7468623,74.067825 2.7036769,69.680872 8.1252057,69.5973 c 1.9391353,-0.02989 3.8259083,0.503174 5.4138973,1.504273 2.690888,1.696387 4.368093,4.809907 4.447474,8.222258 0.02343,1.007016 -0.09288,2.01571 -0.345,2.993324 M 4.9768088,71.226008 c 1.1715459,-0.420079 2.3996397,-0.634267 3.628947,-0.63074 5.5578692,0.01594 9.9086022,4.401244 9.8641932,9.821548 -0.01115,1.361381 -0.30514,2.707208 -0.859703,3.952236 -1.582818,3.553522 -5.206131,5.827016 -9.2609226,5.725231 -4.210429,-0.105693 -8.0536376,-2.743142 -9.814065,-6.772565 -0.5373984,-1.230045 -0.8271852,-2.516478 -0.8640705,-3.800021 -0.03187,-1.109031 0.1255144,-2.201046 0.4608824,-3.237257 M 0.4461883,89.010605 -3.4402508,76.742748 M 8.8410145,68.451085 18.30833,74.946393"
             transform="matrix(0.69928921,0,0,0.69928921,-8.8972384,14.302694)" /><path
             style="fill:none;stroke:#ffffff;stroke-width:0.24053034;stroke-linecap:round;stroke-linejoin:round;stroke-dasharray:none"
             d="M 21.246712,46.645071 -0.49318868,67.459853 -2.8933894,65.145476 -3.7587345,70.697711 1.8195683,69.772607 -0.49318868,67.459853 Z"
             id="path23"
             sodipodi:nodetypes="ccccccc" /><path
             style="fill:#e6e6e6;stroke:#000000;stroke-width:0.34396404;stroke-linecap:round;stroke-linejoin:round;stroke-dasharray:none"
             d="m 41.35119,48.71655 c -5.375824,5.202885 -11.296136,10.766136 -17.063573,16.138978 -4.20903,3.921059 -8.321996,7.779714 -12.519339,11.567538 -1.172889,-1.142331 -2.3523987,-2.29022 -3.5424959,-3.443852 -0.094151,0.49222 -0.1894123,0.983839 -0.2859185,1.474849 -0.4057331,2.06431 -0.7590701,4.173845 -1.0770816,6.311617 1.0440659,-0.17206 2.0964628,-0.337461 3.155236,-0.498149 m 3.568696,-6.425729 c -0.75443,0.683216 -1.5004,1.365686 -2.239373,2.04685 -1.166815,-1.125192 -2.3160986,-2.253654 -3.4536537,-3.387602 -0.4014321,2.594794 -0.7695509,5.174006 -1.1321286,7.727027 2.5153488,-0.496846 5.0355343,-1.016551 7.5379093,-1.567765 0.192908,-0.04249 0.385743,-0.08436 0.57851,-0.125628 -1.08261,-1.180857 -2.1697,-2.322289 -3.258861,-3.435035 4.399994,-4.21107 8.769059,-7.993603 13.246356,-11.967427 0.885138,-0.785605 1.764717,-1.580896 2.64058,-2.383137 m -9.891189,9.301754 c 5.450901,-5.512744 11.573522,-10.890499 17.900976,-16.53858 3.589187,-3.203819 6.617155,-6.118805 9.477787,-8.892279 -2.67636,2.544513 -5.450311,5.171556 -8.146426,7.815515 -1.479043,1.450431 -2.872234,2.796094 -4.20419,4.06611 m 6.292711,-7.363836 c -5.766355,5.38368 -10.948329,10.687244 -16.01932,15.913746 -3.260831,3.36083 -6.946454,6.909852 -10.628042,10.524023 -1.167553,-1.054384 -2.3346972,-2.102182 -3.4876544,-3.14735 -0.1897431,1.218409 -0.371544,2.43829 -0.5396309,3.657988 -0.2105225,1.527626 -0.4368837,3.044358 -0.67706,4.556394 2.6394603,-0.367838 5.2336753,-0.751054 7.7946393,-1.112917 -1.159159,-1.056671 -2.329443,-2.106197 -3.508532,-3.14147 0.59777,-0.577003 1.192677,-1.149372 1.785153,-1.715792 m 0.50609,0.26398 c -0.542423,0.543809 -1.088466,1.083576 -1.637698,1.619585 -1.128837,-1.098915 -2.271214,-2.21379 -3.4233549,-3.342156 -0.4260145,2.604203 -0.8797628,5.170087 -1.3431702,7.709472 2.6077951,-0.54887 5.2058101,-1.124572 7.8124611,-1.715065 -0.02896,-0.03039 -0.05791,-0.06079 -0.08687,-0.09119 -1.103628,-1.158769 -2.199107,-2.2908 -3.289758,-3.40586 4.449118,-4.500458 8.980161,-8.712892 13.360824,-13.320135 2.958275,-3.111284 6.074053,-5.958104 9.264207,-8.702838 M 19.212865,70.074176 c 5.872619,-5.304781 11.229647,-10.80125 16.844183,-16.270098 2.953188,-2.876556 5.83529,-5.766945 8.645925,-8.710331 -2.788672,2.451632 -5.635489,4.860147 -8.540731,7.196804 -1.821327,1.464875 -3.553458,2.99666 -5.237143,4.559206 m 8.428437,-8.528698 c -5.408851,5.432 -11.020584,11.279436 -16.22603,17.701183 -3.493757,4.310106 -7.305443,7.470129 -11.064281,10.418143 C 10.92121,75.134927 9.7840988,73.8098 8.6623682,72.491512 8.5265948,73.319031 8.3965552,74.149101 8.2746346,74.987754 8.060029,76.463958 7.8133023,78.054092 7.5415245,79.727477 7.7051471,79.698797 7.868531,79.67091 8.0316828,79.643788 m 5.2898532,-4.654809 c -0.432681,0.406042 -0.867006,0.813776 -1.302923,1.223004 -1.146309,-1.124557 -2.3036871,-2.238732 -3.4712134,-3.34617 -0.451943,2.639475 -0.9327083,5.298088 -1.4378805,7.958406 2.5657688,-0.427177 5.1068239,-0.852627 7.6276649,-1.294115 -0.157969,-0.147328 -0.316058,-0.294752 -0.474266,-0.44228 -1.025951,-0.956695 -2.024974,-1.917158 -3.003449,-2.881575 4.527238,-4.493067 9.519679,-9.075684 14.290268,-13.768149 0.620391,-0.610231 1.239537,-1.211731 1.858043,-1.805604 m -8.269116,9.335308 c 5.714623,-5.271782 11.227876,-11.108687 16.856887,-17.18889 2.941132,-3.176877 5.834252,-5.958339 8.68709,-8.643893 -2.753527,2.687644 -5.540758,5.455534 -8.355776,8.074444 -4.507069,4.193085 -8.631732,8.440298 -12.744905,12.874588 M 8.9982703,69.39173 7.2642506,80.517569 M 27.867778,60.624494 35.117859,53.670335"
             id="path22"
             sodipodi:nodetypes="ccccccc"
             inkscape:path-effect="#path-effect23"
             inkscape:original-d="M 44.341764,44.822917 11.930302,75.91146 8.497957,72.601847 7.2604941,80.541672 15.237597,79.218752 11.930302,75.91146 Z"
             transform="matrix(0.69928921,0,0,0.69928921,-8.8359189,14.37579)" /></g></g></g></g></svg>
