<?xml version="1.0" encoding="UTF-8" standalone="no"?>
<!-- Created with Inkscape (http://www.inkscape.org/) -->

<svg
   width="650"
   height="130"
   viewBox="0 0 171.97919 34.395839"
   version="1.1"
   id="svg1"
   inkscape:version="1.3.2 (091e20ef0f, 2023-11-25, custom)"
   sodipodi:docname="requirements.svg"
   xmlns:inkscape="http://www.inkscape.org/namespaces/inkscape"
   xmlns:sodipodi="http://sodipodi.sourceforge.net/DTD/sodipodi-0.dtd"
   xmlns="http://www.w3.org/2000/svg"
   xmlns:svg="http://www.w3.org/2000/svg">
  <sodipodi:namedview
     id="namedview1"
     pagecolor="#ffffff"
     bordercolor="#000000"
     borderopacity="0.25"
     inkscape:showpageshadow="2"
     inkscape:pageopacity="0.0"
     inkscape:pagecheckerboard="0"
     inkscape:deskcolor="#d1d1d1"
     inkscape:document-units="mm"
     inkscape:zoom="0.75351432"
     inkscape:cx="428.65808"
     inkscape:cy="0"
     inkscape:window-width="1440"
     inkscape:window-height="831"
     inkscape:window-x="0"
     inkscape:window-y="0"
     inkscape:window-maximized="1"
     inkscape:current-layer="layer1"
     showgrid="true">
    <inkscape:grid
       id="grid1"
       units="px"
       originx="0"
       originy="0"
       spacingx="2.6458333"
       spacingy="2.6458333"
       empcolor="#0099e5"
       empopacity="0.30196078"
       color="#0099e5"
       opacity="0.14901961"
       empspacing="5"
       dotted="false"
       gridanglex="30"
       gridanglez="30"
       visible="true" />
  </sodipodi:namedview>
  <defs
     id="defs1">
    <inkscape:path-effect
       effect="sketch"
       id="path-effect14"
       is_visible="true"
       lpeversion="1"
       nbiter_approxstrokes="3"
       parallel_offset="0.2;1"
       strokelength="70"
       strokelength_rdm="0.3;1"
       strokeoverlap="0.5"
       strokeoverlap_rdm="0.5;1"
       ends_tolerance="0.1;1"
       tremble_size="0.8;1"
       tremble_frequency="3"
       nbtangents="2"
       tgt_places_rdmness="0.5;1"
       tgtlength="5"
       tgtlength_rdm="0.3;1"
       tgtscale="10" />
    <inkscape:path-effect
       effect="sketch"
       id="path-effect13"
       is_visible="true"
       lpeversion="1"
       nbiter_approxstrokes="3"
       parallel_offset="0.2;1"
       strokelength="70"
       strokelength_rdm="0.3;1"
       strokeoverlap="0.5"
       strokeoverlap_rdm="0.5;1"
       ends_tolerance="0;1"
       tremble_size="0.8;1"
       tremble_frequency="3"
       nbtangents="2"
       tgt_places_rdmness="0.5;1"
       tgtlength="5"
       tgtlength_rdm="0.3;1"
       tgtscale="10" />
    <inkscape:path-effect
       effect="sketch"
       id="path-effect12"
       is_visible="true"
       lpeversion="1"
       nbiter_approxstrokes="3"
       parallel_offset="0.2;1"
       strokelength="70"
       strokelength_rdm="0.3;1"
       strokeoverlap="0.5"
       strokeoverlap_rdm="0.5;1"
       ends_tolerance="0.1;1"
       tremble_size="0.8;1"
       tremble_frequency="3"
       nbtangents="2"
       tgt_places_rdmness="0.5;1"
       tgtlength="5"
       tgtlength_rdm="0.3;1"
       tgtscale="10" />
    <inkscape:path-effect
       effect="sketch"
       id="path-effect22"
       is_visible="true"
       lpeversion="1"
       nbiter_approxstrokes="3"
       parallel_offset="0.2;1"
       strokelength="70"
       strokelength_rdm="0.3;1"
       strokeoverlap="0.5"
       strokeoverlap_rdm="0.5;1"
       ends_tolerance="0.1;1"
       tremble_size="0.8;1"
       tremble_frequency="3"
       nbtangents="2"
       tgt_places_rdmness="0.5;1"
       tgtlength="10"
       tgtlength_rdm="0.3;1"
       tgtscale="10" />
    <inkscape:path-effect
       effect="sketch"
       id="path-effect19"
       is_visible="true"
       lpeversion="1"
       nbiter_approxstrokes="3"
       parallel_offset="0.2;1"
       strokelength="70"
       strokelength_rdm="0.3;1"
       strokeoverlap="0.5"
       strokeoverlap_rdm="0.5;1"
       ends_tolerance="0.1;1"
       tremble_size="0.8;1"
       tremble_frequency="3"
       nbtangents="2"
       tgt_places_rdmness="0.5;1"
       tgtlength="10"
       tgtlength_rdm="0.3;1"
       tgtscale="10" />
    <inkscape:path-effect
       effect="sketch"
       id="path-effect21"
       is_visible="true"
       lpeversion="1"
       nbiter_approxstrokes="3"
       parallel_offset="0.2;1"
       strokelength="70"
       strokelength_rdm="0.3;1"
       strokeoverlap="0.5"
       strokeoverlap_rdm="0.5;1"
       ends_tolerance="0.1;1"
       tremble_size="0.8;1"
       tremble_frequency="3"
       nbtangents="2"
       tgt_places_rdmness="0.5;1"
       tgtlength="10"
       tgtlength_rdm="0.3;1"
       tgtscale="10" />
    <inkscape:path-effect
       effect="sketch"
       id="path-effect9"
       is_visible="true"
       lpeversion="1"
       nbiter_approxstrokes="3"
       parallel_offset="0.2;1"
       strokelength="70"
       strokelength_rdm="0.3;1"
       strokeoverlap="0.5"
       strokeoverlap_rdm="0.5;1"
       ends_tolerance="0.1;1"
       tremble_size="0.8;1"
       tremble_frequency="3"
       nbtangents="2"
       tgt_places_rdmness="0.5;1"
       tgtlength="10"
       tgtlength_rdm="0.3;1"
       tgtscale="10" />
    <inkscape:path-effect
       effect="sketch"
       id="path-effect8"
       is_visible="true"
       lpeversion="1"
       nbiter_approxstrokes="3"
       parallel_offset="0.2;1"
       strokelength="70"
       strokelength_rdm="0.3;1"
       strokeoverlap="0.5"
       strokeoverlap_rdm="0.5;1"
       ends_tolerance="0.1;1"
       tremble_size="0.8;1"
       tremble_frequency="3"
       nbtangents="2"
       tgt_places_rdmness="0.5;1"
       tgtlength="10"
       tgtlength_rdm="0.3;1"
       tgtscale="10" />
    <inkscape:path-effect
       effect="sketch"
       id="path-effect20"
       is_visible="true"
       lpeversion="1"
       nbiter_approxstrokes="3"
       parallel_offset="0.2;1"
       strokelength="70"
       strokelength_rdm="0.3;1"
       strokeoverlap="0.5"
       strokeoverlap_rdm="0.5;1"
       ends_tolerance="0.1;1"
       tremble_size="0.8;1"
       tremble_frequency="3"
       nbtangents="2"
       tgt_places_rdmness="0.5;1"
       tgtlength="10"
       tgtlength_rdm="0.3;1"
       tgtscale="10" />
    <inkscape:path-effect
       effect="sketch"
       id="path-effect4"
       is_visible="true"
       lpeversion="1"
       nbiter_approxstrokes="3"
       parallel_offset="0.2;1"
       strokelength="70"
       strokelength_rdm="0.3;1"
       strokeoverlap="0.5"
       strokeoverlap_rdm="0.5;1"
       ends_tolerance="0.1;1"
       tremble_size="0.8;1"
       tremble_frequency="3"
       nbtangents="2"
       tgt_places_rdmness="0.5;1"
       tgtlength="10"
       tgtlength_rdm="0.3;1"
       tgtscale="10" />
    <inkscape:path-effect
       effect="sketch"
       id="path-effect3"
       is_visible="true"
       lpeversion="1"
       nbiter_approxstrokes="3"
       parallel_offset="0.2;1"
       strokelength="70"
       strokelength_rdm="0.3;1"
       strokeoverlap="0.5"
       strokeoverlap_rdm="0.5;1"
       ends_tolerance="0.1;1"
       tremble_size="0.8;1"
       tremble_frequency="3"
       nbtangents="2"
       tgt_places_rdmness="0.5;1"
       tgtlength="10"
       tgtlength_rdm="0.3;1"
       tgtscale="10" />
    <inkscape:path-effect
       effect="sketch"
       id="path-effect2"
       is_visible="true"
       lpeversion="1"
       nbiter_approxstrokes="4"
       parallel_offset="0.4;1"
       strokelength="50"
       strokelength_rdm="0.3;1"
       strokeoverlap="0.3"
       strokeoverlap_rdm="0.3;1"
       ends_tolerance="0.1;1"
       tremble_size="0.8;1"
       tremble_frequency="3"
       nbtangents="0"
       tgt_places_rdmness="1;1"
       tgtlength="100"
       tgtlength_rdm="0.3;1"
       tgtscale="10" />
    <inkscape:path-effect
       effect="sketch"
       id="path-effect1"
       is_visible="true"
       lpeversion="1"
       nbiter_approxstrokes="4"
       parallel_offset="0.5;1"
       strokelength="50"
       strokelength_rdm="0.3;1"
       strokeoverlap="0.3"
       strokeoverlap_rdm="0.3;1"
       ends_tolerance="0.1;1"
       tremble_size="0.8;1"
       tremble_frequency="3"
       nbtangents="0"
       tgt_places_rdmness="1;1"
       tgtlength="56.859206"
       tgtlength_rdm="0.3;1"
       tgtscale="10" />
    <inkscape:path-effect
       effect="sketch"
       id="path-effect11"
       is_visible="true"
       lpeversion="1"
       nbiter_approxstrokes="4"
       parallel_offset="0.7;1"
       strokelength="50"
       strokelength_rdm="0.3;1"
       strokeoverlap="0.3"
       strokeoverlap_rdm="0.3;1"
       ends_tolerance="0.1;1"
       tremble_size="0.8;1"
       tremble_frequency="3"
       nbtangents="0"
       tgt_places_rdmness="1;1"
       tgtlength="100"
       tgtlength_rdm="0.3;1"
       tgtscale="10" />
    <inkscape:path-effect
       effect="sketch"
       id="path-effect7"
       is_visible="true"
       lpeversion="1"
       nbiter_approxstrokes="3"
       parallel_offset="1;1"
       strokelength="50"
       strokelength_rdm="0.3;1"
       strokeoverlap="0.3"
       strokeoverlap_rdm="0.3;1"
       ends_tolerance="0.1;1"
       tremble_size="1.2;1"
       tremble_frequency="3"
       nbtangents="0"
       tgt_places_rdmness="1;1"
       tgtlength="100"
       tgtlength_rdm="0.3;1"
       tgtscale="10" />
    <rect
       x="223.77509"
       y="306.53192"
       width="415.43015"
       height="124.34706"
       id="rect6" />
    <inkscape:path-effect
       effect="sketch"
       id="path-effect6"
       is_visible="true"
       lpeversion="1"
       nbiter_approxstrokes="3"
       parallel_offset="1;1"
       strokelength="50"
       strokelength_rdm="0.3;1"
       strokeoverlap="0.3"
       strokeoverlap_rdm="0.3;1"
       ends_tolerance="0.1;1"
       tremble_size="1.2;1"
       tremble_frequency="3"
       nbtangents="0"
       tgt_places_rdmness="1;1"
       tgtlength="100"
       tgtlength_rdm="0.3;1"
       tgtscale="10" />
    <inkscape:path-effect
       effect="sketch"
       id="path-effect5"
       is_visible="true"
       lpeversion="1"
       nbiter_approxstrokes="3"
       parallel_offset="1;1"
       strokelength="50"
       strokelength_rdm="0.3;1"
       strokeoverlap="0.3"
       strokeoverlap_rdm="0.3;1"
       ends_tolerance="0.1;1"
       tremble_size="1.2;1"
       tremble_frequency="3"
       nbtangents="0"
       tgt_places_rdmness="1;1"
       tgtlength="100"
       tgtlength_rdm="0.3;1"
       tgtscale="10" />
  </defs>
  <g
     inkscape:label="Layer 1"
     inkscape:groupmode="layer"
     id="layer1">
    <path
       id="path3"
       style="fill:#cccccc;stroke:none;stroke-width:0.242103;stroke-dasharray:none"
       d="m 110.19128,8.1284228 c -1.31341,0 -2.37121,1.0573251 -2.37121,2.3707322 V 29.46549 c 0,1.313406 1.0578,2.370732 2.37121,2.370732 h 18.96586 c 1.3134,0 2.37074,-1.057326 2.37074,-2.370732 v -0.09637 c 0,0 -15.93308,0.73363 -18.8695,0 -1.08435,-0.270913 -2.10553,-1.28508 -2.3712,-2.370731 -0.58712,-2.399166 0,-18.8699642 0,-18.8699642 z"
       sodipodi:nodetypes="sssssscsscs" />
    <path
       id="path6"
       style="fill:#cccccc;stroke:none;stroke-width:0.242103;stroke-dasharray:none"
       d="m 74.629347,8.1284228 c -1.313407,0 -2.370732,1.0573251 -2.370732,2.3707322 V 29.46549 c 0,1.313406 1.057325,2.370732 2.370732,2.370732 h 18.966334 c 1.313409,0 2.370731,-1.057326 2.370731,-2.370732 v -0.09637 c 0,0 -14.911047,0.730042 -18.869963,0 -1.099043,-0.202668 -2.024132,-1.308262 -2.370731,-2.370731 -1.071661,-3.285083 0,-18.8699642 0,-18.8699642 z"
       sodipodi:nodetypes="sssssscsscs" />
    <path
       id="path2"
       style="fill:#cccccc;stroke:none;stroke-width:0.242103;stroke-dasharray:none"
       d="m 39.067889,8.1284228 c -1.313406,0 -2.371213,1.0573251 -2.371213,2.3707322 V 29.46549 c 0,1.313406 1.057807,2.370732 2.371213,2.370732 h 18.965854 c 1.313407,0 2.370731,-1.057326 2.370731,-2.370732 v -0.09637 c 0,0 -15.338414,0.693461 -18.869481,0 -1.096738,-0.215387 -2.143584,-1.276469 -2.371214,-2.370731 -0.499078,-2.399166 0,-18.8699642 0,-18.8699642 z"
       sodipodi:nodetypes="sssssscsscs" />
    <path
       id="path1"
       style="fill:#cccccc;stroke:none;stroke-width:0.242103;stroke-dasharray:none"
       d="m 3.5059504,8.1284228 c -1.3134066,0 -2.3707317,1.0573251 -2.3707317,2.3707322 V 29.46549 c 0,1.313406 1.0573251,2.370732 2.3707317,2.370732 H 22.472286 c 1.313406,0 2.370732,-1.057326 2.370732,-2.370732 v -0.09637 c 0,0 -16.7760293,0.674666 -18.8699647,0 -1.0637226,-0.342731 -2.1481193,-1.275554 -2.3707317,-2.370731 -0.4876689,-2.399166 0,-18.8699642 0,-18.8699642 z"
       sodipodi:nodetypes="sssssscsscs" />
    <rect
       style="fill:#ffaaaa;stroke:none;stroke-width:0.242103;stroke-dasharray:none"
       id="rect10"
       width="23.707794"
       height="23.707794"
       x="143.20045"
       y="8.1284666"
       ry="2.3707724" />
    <path
       id="rect3"
       style="fill:#ff8080;stroke:none;stroke-width:0.242103;stroke-dasharray:none"
       d="m 145.57127,8.1284742 c -1.31341,0 -2.35699,1.0574453 -2.37077,2.3707788 -0.0673,6.416013 -1.03786,14.092233 0,18.966239 0.27354,1.284606 1.05736,2.370779 2.37077,2.370779 h 18.96625 c 1.3134,0 2.37077,-1.057373 2.37077,-2.370779 0,0 -15.74299,0.7149 -18.96624,0 -1.09107,-0.241996 -2.26678,-1.258033 -2.37078,-2.370779 -0.37124,-3.972403 0,-18.9662388 0,-18.9662388 z"
       sodipodi:nodetypes="csssscssc" />
    <g
       id="g11"
       inkscape:path-effect="#path-effect12"
       style="stroke-width:0.270191;stroke-dasharray:none"
       transform="matrix(0.89604274,0,0,0.89604274,-10.718685,-27.433223)">
      <path
         style="fill:none;stroke:#000000;stroke-width:0.270191;stroke-dasharray:none"
         id="rect1"
         width="26.458328"
         height="26.458328"
         x="13.229164"
         y="39.687492"
         ry="2.6458251"
         sodipodi:type="rect"
         d="m 20.746485,40.420075 c 5.700542,-0.127246 11.125261,-0.07194 16.52559,-0.03266 1.430584,0.0104 2.579494,1.198146 2.545183,2.669204 -0.02001,0.857735 -0.03909,1.713901 -0.05633,2.567765 -0.125031,6.193687 -0.135323,12.312841 -0.266412,18.346459 -0.03098,1.425814 -1.243016,2.569448 -2.754487,2.520803 -0.196891,-0.0063 -0.393946,-0.01276 -0.591173,-0.01926 -3.322421,-0.109561 -6.5292,-0.119305 -9.676308,-0.08494 m 12.697458,-7.465197 c -0.04544,1.513032 -0.0712,3.024328 -0.08249,4.531908 -0.0108,1.442826 -1.188013,2.601895 -2.644702,2.57137 -4.823222,-0.10107 -9.547943,-0.257598 -14.33976,-0.532831 -2.168853,-0.124576 -4.347209,-0.168123 -6.528309,-0.160742 -1.454239,0.0049 -2.625673,-1.15264 -2.614642,-2.578664 0.03156,-4.079387 0.06863,-8.042546 0.158118,-12.098334 0.02542,-1.152247 0.04529,-2.314181 0.06143,-3.483064 m -0.297576,13.393133 c -0.125407,-6.205177 0.163027,-12.327188 0.639526,-18.562037 0.114516,-1.498402 1.399958,-2.70937 2.997023,-2.755927 0.311718,-0.0091 0.623735,-0.01852 0.936029,-0.02832 7.393767,-0.231982 13.465056,0.216654 19.638655,0.813003 0.97958,0.09462 1.816559,0.812509 2.153749,1.820063 0.123454,0.368891 0.182164,0.771929 0.158416,1.192653 -0.08878,1.572745 -0.12643,3.082983 -0.125345,4.545366 M 21.814732,39.44062 c 4.761613,0.0013 9.751489,-0.02878 14.85406,-0.08936 1.540208,-0.01829 2.789121,1.143986 2.879204,2.586531 0.09397,1.504777 0.195835,3.00655 0.301996,4.505341 0.383619,5.415952 0.248165,11.061863 0.172881,16.771533 -0.01997,1.514784 -1.212933,2.738871 -2.681979,2.793269 -0.866666,0.03209 -1.728294,0.06472 -2.582661,0.09726 -6.111954,0.232757 -12.49751,0.27734 -19.011386,0.578711 -0.486101,0.02249 -0.943269,-0.07218 -1.344169,-0.254988 M 40.248614,60.23174 c 0.02394,1.314949 0.03763,2.618449 0.04311,3.911844 0.0062,1.459022 -1.178005,2.625313 -2.653796,2.597149 -5.127855,-0.09786 -10.347963,-0.328926 -15.536303,-0.6121 -2.003663,-0.109358 -3.993683,-0.173954 -5.977256,-0.214943 -1.478934,-0.03056 -2.667389,-1.224456 -2.676648,-2.704743 -0.02794,-4.46692 -0.04893,-8.889794 -0.145122,-13.510111 -0.05715,-2.74516 -0.05333,-5.387941 -0.0086,-7.967452 0.02493,-1.436194 1.237293,-2.578541 2.747834,-2.519514 0.217148,0.0085 0.43449,0.01724 0.652017,0.02626 m -2.90814,21.054123 c 0.1948,-5.724413 0.104458,-11.554837 0.04693,-17.401076 -0.01458,-1.482177 1.154662,-2.676812 2.614488,-2.693811 0.604167,-0.007 1.209535,-0.01401 1.81647,-0.02081 6.45213,-0.07232 12.727469,-0.179038 18.82452,-0.473765 1.330625,-0.06432 2.403638,0.962129 2.400133,2.266352 -1.44e-4,0.0535 -0.002,0.107524 -0.0057,0.162004 -0.144463,2.125779 -0.205062,4.314337 -0.219588,6.532147 M 21.102693,39.078182 c 5.209476,0.03288 10.332409,0.242961 15.538514,0.674521 1.503713,0.124651 2.719295,1.425348 2.773072,3.049699 0.04814,1.454014 0.104903,2.923587 0.173213,4.40948 0.299447,6.513573 0.213502,11.633026 0.237012,16.610329 0.006,1.269916 -1.163776,2.277645 -2.602737,2.08287 -0.634729,-0.08592 -1.266558,-0.169806 -1.894784,-0.249885 -1.821692,-0.23221 -3.682081,-0.327163 -5.571819,-0.32543 M 39.77347,60.439874 c 0.0045,1.108724 0.0032,2.223392 -0.0035,3.342696 -0.0087,1.452738 -1.204206,2.626948 -2.694462,2.625438 -5.349362,-0.0054 -10.807744,0.0548 -16.341739,0.04875 -1.891419,-0.0021 -3.73517,-0.0108 -5.546276,-0.02665 -1.475296,-0.01291 -2.649053,-1.208031 -2.626613,-2.695394 0.07036,-4.663586 0.278334,-9.375891 0.372938,-14.144329 0.01721,-0.867469 0.03318,-1.726206 0.0485,-2.577317 m 0.670382,13.147727 c 0.07694,-5.673091 0.04356,-11.655788 0.02846,-17.817588 -0.0039,-1.570624 1.174032,-2.845787 2.639888,-2.969587 0.633928,-0.05354 1.268453,-0.108869 1.903748,-0.165816 6.436907,-0.576998 12.753822,-0.165766 18.981288,0.05034 1.391687,0.04829 2.513297,1.211851 2.509559,2.654894 0,0 0,0 0,0 -7.9e-5,0.03045 -6.49e-4,0.06103 -0.0017,0.09173 -0.208788,5.994029 -0.04091,12.042308 0.138345,18.275767 m -0.164807,-1.589727 v 8.042969 M 13.229164,57.39303 v -7.175781" />
      <path
         style="fill:none;stroke:#000000;stroke-width:0.270191;stroke-dasharray:none"
         id="rect2"
         width="26.458328"
         height="26.458328"
         x="52.916656"
         y="39.687492"
         ry="2.6458251"
         sodipodi:type="rect"
         d="m 55.948557,39.568804 c 6.697922,0.04093 13.581738,-0.09362 20.713762,-0.311017 1.252575,-0.03818 2.31971,0.681123 2.759126,1.69273 0.110047,0.253346 0.178393,0.526018 0.198058,0.810637 0.472701,6.841561 -0.283867,14.192966 -0.858713,21.426064 -0.03724,0.468565 -0.186191,0.907893 -0.421528,1.292017 -0.519258,0.847546 -1.441891,1.421017 -2.484627,1.430313 -4.883767,0.04354 -9.285424,-0.06036 -13.610119,-0.192887 M 79.017263,55.344754 c 0.02639,2.880967 0.02697,5.753842 0.01277,8.608477 -0.0072,1.440177 -1.196575,2.596131 -2.675061,2.561107 -3.514845,-0.08326 -7.043383,-0.199745 -10.566574,-0.366955 -3.611941,-0.171422 -7.197995,-0.23645 -10.782867,-0.302207 -1.471271,-0.02699 -2.655549,-1.229725 -2.66212,-2.728981 -0.01265,-2.885001 -0.03053,-5.796372 -0.06582,-8.786832 -0.04536,-3.84411 -0.01808,-7.456809 0.05349,-10.982084 m -0.159546,21.529265 c -0.09475,-0.277196 -0.145984,-0.575601 -0.145468,-0.887191 0.01186,-7.161675 0.0082,-14.575104 0.01568,-22.446909 4.66e-4,-0.49064 0.107166,-0.954466 0.295967,-1.369294 0.440003,-0.966759 1.329962,-1.625793 2.360795,-1.679163 6.849402,-0.354619 13.79769,0.874546 20.867806,1.751318 0.251436,0.03118 0.502433,0.0604 0.753018,0.08776 1.514749,0.165349 2.725587,1.423022 2.752554,2.948866 0.07016,3.969776 0.07532,7.602845 0.119764,11.25729 M 59.39872,39.226849 c 5.988328,0.172932 11.766481,0.308317 17.531117,0.706571 1.439322,0.09944 2.59639,1.375465 2.571069,2.975866 -0.0089,0.565129 -0.01763,1.132852 -0.02592,1.703377 -0.104773,7.206548 0.03897,13.210959 0.212236,19.430751 0.03493,1.254014 -0.886628,2.290973 -2.10828,2.462065 -0.138289,0.01937 -0.280605,0.02762 -0.426005,0.02379 -3.713899,-0.09761 -7.55812,-0.06152 -11.457867,0.02985 m 13.928452,-8.097941 c 0.01875,1.854091 0.03264,3.724532 0.04514,5.604602 0.0097,1.455716 -1.162999,2.632045 -2.619255,2.630103 -4.465918,-0.006 -8.925428,0.01464 -13.332245,-0.02819 -2.510101,-0.0244 -5.046744,-0.02281 -7.593162,-0.0034 -1.45795,0.01112 -2.633797,-1.154373 -2.629028,-2.599868 0.01246,-3.776736 0.02336,-7.523397 0.08888,-11.267266 0.02739,-1.564942 0.03848,-3.147406 0.03676,-4.742844 m -1.197696,14.044401 c -0.0016,-6.326729 0.130948,-13.036681 0.395279,-19.956167 0.05937,-1.554189 1.253954,-2.821735 2.754631,-2.993052 0,0 10e-7,0 10e-7,0 0.02691,-0.0031 0.05391,-0.0058 0.08099,-0.0081 7.40169,-0.637357 13.977318,-0.189472 20.601009,-0.242395 0.691815,-0.0055 1.31509,0.28214 1.754094,0.748591 0.43454,0.461709 0.694614,1.108235 0.667726,1.828872 -0.081,2.17097 -0.09064,4.381706 -0.05989,6.619783 M 61.070306,40.259673 c 5.186536,0.159543 10.513971,0.132578 15.918611,0.134043 1.514513,4.11e-4 2.73924,1.182788 2.797619,2.656973 0.04604,1.162597 0.09502,2.329358 0.146261,3.502599 0.261599,5.98993 0.162787,11.728667 0.154003,17.370614 -0.0022,1.401146 -1.179078,2.523271 -2.631264,2.449946 -0.486748,-0.02458 -0.972136,-0.04957 -1.455904,-0.0749 -5.746511,-0.300864 -11.645347,-0.122909 -17.534819,0.02501 M 79.406371,58.81284 c 0.02035,1.494432 0.02351,2.997101 0.01181,4.507875 -0.01148,1.481825 -1.213888,2.680081 -2.714858,2.709945 -5.014996,0.09978 -10.166127,0.285037 -15.371995,0.551098 -2.300794,0.117589 -4.519968,0.138317 -6.689507,0.08951 -1.468735,-0.03304 -2.635959,-1.269425 -2.606541,-2.818199 0.08504,-4.476846 0.281482,-9.152624 0.35013,-13.822968 0.04588,-3.121493 0.06085,-6.020504 0.06282,-8.813428 0.001,-1.446208 1.178798,-2.590439 2.641475,-2.533557 2.932742,0.114053 5.860945,0.281104 8.804773,0.370247 M 75.51132,66.145821 h -7.457031 m 11.320696,-7.593864 v 9.507812" />
      <path
         style="fill:none;stroke:#000000;stroke-width:0.270191;stroke-dasharray:none"
         id="rect4"
         width="26.458328"
         height="26.458328"
         x="132.29164"
         y="39.687492"
         ry="2.6458251"
         sodipodi:type="rect"
         d="m 141.44724,39.164111 c 5.2391,0.02873 10.26581,0.148895 15.2733,0.399699 1.44295,0.07227 2.60237,1.321353 2.58064,2.880768 -0.0193,1.384579 -0.0364,2.778409 -0.0481,4.182147 -0.0516,6.206366 -0.24627,11.794482 -0.66764,17.505279 -0.10744,1.456152 -1.39029,2.631277 -2.99101,2.646242 -0.69677,0.0065 -1.39657,0.01672 -2.09951,0.03164 -7.07756,0.150157 -12.95138,0.05453 -18.97332,0.02186 -0.89641,-0.0049 -1.67947,-0.508395 -2.09939,-1.263791 m 26.01965,-8.185681 c -0.05,1.660102 -0.0774,3.345533 -0.0894,5.048438 -0.0103,1.456819 -1.18884,2.637708 -2.64856,2.64743 -4.6512,0.03098 -9.23103,0.144587 -13.88453,0.181749 -2.37176,0.01894 -4.71593,0.04535 -7.02986,0.08463 -1.42267,0.02415 -2.55986,-1.131253 -2.49574,-2.563108 0.17534,-3.915151 0.44073,-7.784922 0.8088,-11.583537 0.27962,-2.885739 0.26931,-5.916307 0.097,-9.017431 -0.0345,-0.620246 0.13125,-1.19287 0.4323,-1.653822 m -1.33527,20.91637 c 0.15168,-6.08889 0.12516,-12.270941 0.2076,-18.411588 0.0196,-1.460131 1.22158,-2.634253 2.72127,-2.622876 0.23048,0.0017 0.46119,0.0036 0.69215,0.0055 7.00669,0.05905 13.44187,-0.295052 19.71339,-0.927424 0.92544,-0.09331 1.7215,0.376494 2.08634,1.103543 0.16605,0.330909 0.24832,0.721952 0.21863,1.14489 -0.32687,4.657196 -0.0244,10.056255 0.34906,15.540368 M 141.44979,40.143868 c 4.61004,0.05949 9.50627,-0.01793 14.54445,-0.167213 1.55909,-0.0462 2.82588,1.089126 2.93985,2.498051 0.12807,1.583232 0.2682,3.160078 0.41432,4.733269 0.47954,5.162897 0.0888,10.636521 -0.47466,16.069032 -0.15266,1.471848 -1.47203,2.656098 -3.10142,2.65083 -1.09407,-0.0035 -2.18794,-0.01142 -3.2774,-0.02577 -6.72389,-0.08855 -12.27101,0.102475 -17.83039,0.416209 -0.40511,0.02286 -0.78633,-0.06244 -1.11782,-0.230448 m 25.96723,-5.495007 c -0.01,1.144604 -0.0166,2.289735 -0.0211,3.43526 -0.006,1.465058 -1.18717,2.644913 -2.65298,2.645101 -5.24102,6.74e-4 -10.4492,0.0062 -15.68539,0.0039 -1.81143,-8.07e-4 -3.62999,-0.01229 -5.45522,-0.03471 -1.47572,-0.01812 -2.66676,-1.21969 -2.68429,-2.716465 -0.0548,-4.677163 -0.14989,-9.425098 -0.27798,-14.247667 -0.0693,-2.609775 -0.1027,-5.137133 -0.12148,-7.621974 -0.0111,-1.469022 1.1642,-2.641646 2.62431,-2.625249 3.43991,0.03863 6.88503,0.116473 10.2777,0.12554 m -8.22162,-0.405076 c 6.25187,-0.05168 12.85378,0.0064 19.40443,0.06129 1.43143,0.01199 2.59441,1.111941 2.69593,2.5086 0.004,0.05654 0.006,0.113591 0.007,0.171088 0.0694,7.112308 -0.14859,14.43965 -0.4705,22.107785 -0.0321,0.764051 -0.33384,1.460487 -0.80952,1.995882 -0.51589,0.580653 -1.22734,0.95425 -2.01015,0.999204 -5.98372,0.34362 -11.48247,-0.1308 -16.97184,-0.482327 m 19.64624,-11.731205 c 0.005,2.863134 0.0161,5.735646 0.0344,8.617786 0.009,1.475397 -1.16105,2.664989 -2.61368,2.679138 -3.49219,0.03401 -6.97134,0.08279 -10.43339,0.14679 -3.4688,0.06412 -7.03762,0.05167 -10.66849,0.0027 -1.50809,-0.02033 -2.73043,-1.22298 -2.78956,-2.717922 -0.11544,-2.918201 -0.26181,-5.85002 -0.41892,-8.774149 -0.23043,-4.288768 -0.12516,-8.476984 0.11397,-12.644722 0.0835,-1.456186 1.34689,-2.626042 2.91943,-2.614768 2.21322,0.01587 4.44267,0.03029 6.66436,0.03374 m 17.15432,11.643014 v 8.476562 m -26.45833,6.115311 v -7.65625" />
      <path
         style="fill:none;stroke:#000000;stroke-width:0.270191;stroke-dasharray:none"
         id="rect5"
         width="26.458328"
         height="26.458328"
         x="171.97914"
         y="39.687492"
         ry="2.6458251"
         sodipodi:type="rect"
         d="m 177.22116,38.970249 c 6.35167,-0.03572 12.3921,-0.04969 18.11744,-0.115744 1.31906,-0.01522 2.36627,1.149542 2.18951,2.594385 -0.004,0.03402 -0.008,0.06804 -0.0125,0.102054 -0.85028,6.918226 0.21626,14.266446 1.11251,21.798155 0.10224,0.859191 -0.16053,1.63231 -0.63172,2.173786 -0.39056,0.448829 -0.93562,0.729881 -1.54767,0.761838 -4.37549,0.228464 -9.44287,-0.04909 -14.57037,-0.42129 M 198.40765,55.157 c -0.0339,2.470525 -0.0539,4.985313 -0.0712,7.524197 -0.01,1.468891 -1.19759,2.658103 -2.67364,2.672969 -3.88167,0.0391 -7.77139,0.108429 -11.70876,0.136967 -3.2695,0.0237 -6.45896,0.083 -9.60357,0.189426 -1.4392,0.04871 -2.59093,-1.081633 -2.55038,-2.480096 0.0882,-3.041767 0.20585,-6.031744 0.31806,-8.958515 0.038,-0.992399 0.0671,-2.014936 0.0893,-3.062384 m -0.62799,12.151316 c -0.006,-0.06593 -0.0106,-0.132467 -0.0124,-0.199521 -0.19452,-7.261088 0.008,-13.813682 0.11603,-20.200441 0.0106,-0.625649 0.28144,-1.190972 0.71988,-1.598498 0.49192,-0.457229 1.19259,-0.731042 1.97096,-0.684907 7.07481,0.419334 13.88594,-0.394356 20.64466,-0.735021 0.009,-4.7e-4 0.0187,-9.4e-4 0.028,-0.0014 1.40929,-0.07063 2.56121,1.076284 2.55375,2.516206 -0.0176,3.40473 0.10077,6.928794 0.27189,10.472058 m -19.22851,-13.14629 c 5.68215,-0.03341 11.27192,-0.06631 16.78733,-0.14831 1.42529,-0.02119 2.56843,1.13815 2.51931,2.57615 -0.0241,0.704312 -0.0492,1.407643 -0.0755,2.10989 -0.2318,6.197408 -0.1398,12.68528 -0.17892,19.18128 -0.009,1.502312 -1.20293,2.713735 -2.69508,2.748083 -0.0551,0.0013 -0.11026,0.0025 -0.16542,0.0038 -1.96676,0.04496 -3.90953,0.08117 -5.83511,0.116764 m 9.03686,-8.050039 c -0.0298,1.663422 -0.0319,3.358661 -0.0104,5.077888 0.0183,1.468779 -1.13115,2.662431 -2.55026,2.692558 -4.51676,0.09589 -8.88517,0.322431 -13.19064,0.522204 -2.19846,0.102007 -4.50381,0.126019 -6.86346,0.100954 -1.45176,-0.01542 -2.63415,-1.224903 -2.64649,-2.733592 -0.0338,-4.128174 -0.13459,-8.347415 -0.0531,-12.520597 0.062,-3.175658 0.002,-6.210278 -0.15107,-9.161976 -0.0542,-1.04388 0.52626,-1.92812 1.37736,-2.292754 m -2.63543,21.554096 c 0.14422,-6.144215 0.28765,-12.457279 0.70962,-18.854041 0.1,-1.515409 1.3776,-2.740153 2.97444,-2.797215 0.2175,-0.0078 0.43536,-0.01561 0.65358,-0.02352 7.50204,-0.271717 13.71707,-0.204969 20.15759,-0.429589 0.92122,-0.03213 1.72406,0.461352 2.13779,1.207186 0.2051,0.369757 0.31461,0.806839 0.29498,1.278145 -0.28516,6.845505 -0.20277,14.526311 -0.58826,22.25196 -0.004,0.07686 -0.0104,0.153013 -0.0196,0.228361 M 176.75883,40.35937 c 6.3849,0.0015 12.58816,-0.123152 18.81311,-0.37104 1.453,-0.05786 2.6227,1.067766 2.61421,2.463724 -6.2e-4,0.10227 -0.001,0.204504 -0.002,0.306703 -0.0376,6.60927 0.0356,13.734489 0.13298,20.572471 0.0123,0.866673 -0.40229,1.627554 -1.04833,2.085602 -0.42921,0.304315 -0.96103,0.479577 -1.53811,0.468321 -2.99933,-0.0585 -6.00485,-0.05294 -8.99532,-0.02183 M 198.0451,55.815599 c -0.0422,2.279739 -0.059,4.566395 -0.0614,6.858311 -0.002,1.469491 -1.17753,2.653987 -2.63669,2.661189 -4.0819,0.02015 -8.13883,0.05399 -12.23416,0.09197 -2.94915,0.02735 -5.89129,0.07807 -8.82375,0.163681 -1.45494,0.04248 -2.62452,-1.094296 -2.60912,-2.501048 0.0361,-3.29706 0.087,-6.539535 0.15692,-9.70926 0.0736,-3.335714 0.10671,-6.90867 0.14831,-10.535051 0.002,-0.175073 0.0207,-0.346198 0.0547,-0.511844 m -0.5281,20.026812 c -0.0466,-6.721815 0.28514,-13.304608 0.89459,-19.698714 0.0994,-1.042655 0.85601,-1.92589 1.91204,-2.264789 0.35242,-0.113098 0.73421,-0.167614 1.13205,-0.149068 7.65008,0.356612 14.04934,0.05141 20.98761,0.142364 0.3766,0.0049 0.73556,0.09133 1.0607,0.243349 0.91927,0.429806 1.55576,1.370826 1.54663,2.465462 -0.0404,4.846827 -0.091,9.610804 -0.19628,14.395776 m -4.0717,8.65108 h -7.46875 M 171.97914,54.744754 v -7.023438" />
      <path
         style="fill:none;stroke:#000000;stroke-width:0.270191;stroke-dasharray:none"
         id="rect11"
         width="26.458328"
         height="26.458328"
         x="92.604149"
         y="39.687492"
         ry="2.6458251"
         sodipodi:type="rect"
         d="m 99.811239,40.155953 c 5.910651,-0.16685 11.461591,-0.03779 16.875441,0.11183 1.37306,0.03795 2.46831,1.251016 2.36215,2.753233 -0.0441,0.623869 -0.0891,1.247233 -0.13479,1.869772 -0.48382,6.592948 -0.0923,12.911494 0.17309,19.251367 0.058,1.386964 -0.99065,2.513399 -2.34073,2.579861 -0.0533,0.0026 -0.10713,0.0036 -0.16133,0.0029 -6.16605,-0.08343 -12.46041,-0.134676 -18.548404,-0.318324 M 118.42511,56.45525 c 0.0294,2.173067 0.0419,4.339383 0.0441,6.502301 0.002,1.468197 -1.18144,2.649163 -2.6523,2.649659 -4.24473,0.0014 -8.51176,-0.0019 -12.74984,0.01517 -2.8326,0.01142 -5.610808,0.02373 -8.336631,0.04134 -1.412113,0.0091 -2.538712,-1.16198 -2.460074,-2.615579 0.191234,-3.534922 0.464242,-7.057992 0.815004,-10.560383 0.343435,-3.429228 0.325189,-6.932935 0.151826,-10.475011 -0.07283,-1.48804 1.021858,-2.691019 2.378823,-2.723113 0.207669,-0.0049 0.415035,-0.0099 0.622153,-0.01502 m -3.656243,22.953091 c -0.212441,-6.840297 0.151022,-13.561632 0.609224,-20.396287 0.07491,-1.11736 0.808916,-2.073419 1.83579,-2.493708 0.339354,-0.138895 0.708223,-0.217383 1.093148,-0.221647 7.45617,-0.08259 13.96154,0.42302 20.74616,1.171644 0.37091,0.04093 0.72333,0.162154 1.041,0.348832 0.88994,0.522974 1.50771,1.523128 1.49219,2.661151 -0.0716,5.25086 0.0734,9.871136 0.22704,14.534635 M 101.9843,39.658131 c 4.91933,0.162951 9.81942,0.101905 14.60971,0.01854 1.40554,-0.02446 2.52776,1.133332 2.44759,2.575582 -0.0762,1.370232 -0.16283,2.743078 -0.26194,4.122908 -0.403,5.611058 -0.0362,11.20255 0.45545,16.697125 0.1272,1.421454 -0.93867,2.560693 -2.27174,2.50361 -0.66243,-0.02837 -1.32541,-0.05865 -1.99031,-0.09101 -1.03721,-0.05049 -2.11241,-0.08118 -3.21919,-0.09528 m 7.02864,-4.609682 c -0.0321,1.113256 -0.0534,2.225704 -0.0661,3.336113 -0.0163,1.436457 -1.19693,2.590343 -2.65655,2.552646 -5.22884,-0.135041 -10.32276,-0.346436 -15.48334,-0.757229 -1.767481,-0.140696 -3.550668,-0.212603 -5.344424,-0.238395 -1.461288,-0.02101 -2.64214,-1.191265 -2.647833,-2.633719 -0.0178,-4.510455 -0.07865,-8.834462 -0.09735,-13.348347 -0.01003,-2.422339 -0.02196,-4.871608 -0.03851,-7.335157 -0.0098,-1.465902 1.160491,-2.649447 2.613018,-2.656349 3.54259,-0.01683 7.07221,-0.04875 10.5805,-0.05711 m -5.880132,0.09526 c 5.448892,0.07108 11.044252,0.05177 16.823102,0.0444 1.56307,-0.002 2.83257,1.17716 2.95444,2.64422 0.0802,0.965171 0.16645,1.931545 0.25903,2.899698 0.58487,6.116266 0.0751,12.175898 -0.44794,18.221078 -0.12586,1.454614 -1.41197,2.624728 -2.99225,2.612555 -0.32353,-0.0025 -0.64649,-0.005 -0.96875,-0.0075 -7.2517,-0.05649 -13.43855,-0.03738 -19.679518,-0.07733 -0.06405,-4.1e-4 -0.127522,-0.0035 -0.190303,-0.0091 m 24.088091,-8.452596 c -0.0103,1.914321 -0.0319,3.815808 -0.0669,5.704819 -0.0268,1.44681 -1.23633,2.606469 -2.74375,2.574524 -4.60516,-0.09759 -9.29178,-0.262053 -14.08634,-0.488789 -2.764172,-0.130718 -5.422272,-0.172023 -8.035086,-0.166548 -1.483378,0.0031 -2.66779,-1.160819 -2.668663,-2.603105 -0.0023,-3.747235 0.02302,-7.442377 -0.12007,-11.222854 -0.05704,-1.507067 -0.07881,-3.007395 -0.07189,-4.499681 m 0.949847,14.765788 c -0.108461,-6.527043 0.03589,-12.739004 0.205941,-18.808072 0.03723,-1.328658 1.162918,-2.400278 2.588903,-2.392362 0.05556,3.08e-4 0.111545,0.0022 0.167924,0.0057 7.236684,0.449705 14.080684,-0.143675 20.984684,-0.622504 0.68995,-0.04785 1.31622,0.182793 1.77674,0.588122 0.49679,0.43725 0.8016,1.086517 0.78763,1.81967 -0.0821,4.305426 -0.15837,8.971286 -0.31615,13.716907 m 0.10189,-17.665229 v 9.214844 m -0.6691,18.611519 h -9.09766" />
    </g>
    <path
       style="fill:none;stroke:#ffffff;stroke-width:4.57003;stroke-linecap:round;stroke-linejoin:round;stroke-dasharray:none"
       d="m 148.9899,15.240806 6.06448,9.483117 12.90175,-21.5943127"
       id="path11"
       sodipodi:nodetypes="ccc" />
    <path
       style="fill:none;stroke:#000000;stroke-width:0.270191;stroke-dasharray:none"
       d="m 100.84669,48.357658 c 2.3825,3.431455 4.60733,6.967975 6.78299,10.522657 1.77093,-3.056214 3.50577,-6.0991 5.27273,-9.183284 2.84264,-4.961784 5.78539,-9.986484 8.63802,-15.084416 m -20.7844,13.196683 c 2.36562,3.463898 4.54065,6.979636 6.62336,10.492675 1.6913,-3.091885 3.31484,-6.185751 4.93239,-9.31588 2.60228,-5.035698 5.75943,-10.076202 8.88803,-15.248873 m -20.90467,13.869335 c 2.38705,3.624089 4.66008,7.172424 6.9361,10.728453 1.8569,-3.05506 3.716,-6.104474 5.65085,-9.09579 3.11276,-4.812379 5.92292,-9.899618 8.68798,-15.024041 m -13.36289,22.491 4.12518,-6.904511 m 4.31993,-7.230483 3.6804,-6.160071"
       id="path5"
       sodipodi:nodetypes="ccc"
       inkscape:path-effect="#path-effect13"
       inkscape:original-d="m 100.54165,47.624991 6.76806,10.583331 14.3986,-24.099645"
       transform="matrix(0.89604274,0,0,0.89604274,58.900277,-27.433223)" />
  </g>
</svg>
