<?xml version="1.0" encoding="UTF-8" standalone="no"?>
<!-- Created with Inkscape (http://www.inkscape.org/) -->

<svg
   width="420"
   height="220"
   viewBox="0 0 111.12502 58.208343"
   version="1.1"
   id="svg1"
   inkscape:version="1.3.2 (091e20ef0f, 2023-11-25, custom)"
   sodipodi:docname="solution-3.svg"
   xml:space="preserve"
   xmlns:inkscape="http://www.inkscape.org/namespaces/inkscape"
   xmlns:sodipodi="http://sodipodi.sourceforge.net/DTD/sodipodi-0.dtd"
   xmlns="http://www.w3.org/2000/svg"
   xmlns:svg="http://www.w3.org/2000/svg"><sodipodi:namedview
     id="namedview1"
     pagecolor="#ffffff"
     bordercolor="#000000"
     borderopacity="0.25"
     inkscape:showpageshadow="2"
     inkscape:pageopacity="0.0"
     inkscape:pagecheckerboard="0"
     inkscape:deskcolor="#d1d1d1"
     inkscape:document-units="px"
     inkscape:zoom="2.6909091"
     inkscape:cx="356.38513"
     inkscape:cy="106.28378"
     inkscape:window-width="1440"
     inkscape:window-height="831"
     inkscape:window-x="0"
     inkscape:window-y="0"
     inkscape:window-maximized="1"
     inkscape:current-layer="g10"
     showgrid="true"><inkscape:grid
       id="grid10"
       units="px"
       originx="0"
       originy="0"
       spacingx="1.3229168"
       spacingy="1.3229168"
       empcolor="#0099e5"
       empopacity="0.30196078"
       color="#0099e5"
       opacity="0.14901961"
       empspacing="5"
       dotted="false"
       gridanglex="30"
       gridanglez="30"
       visible="true" /></sodipodi:namedview><defs
     id="defs1"><inkscape:path-effect
       effect="sketch"
       id="path-effect14"
       is_visible="true"
       lpeversion="1"
       nbiter_approxstrokes="3"
       parallel_offset="0.2;1"
       strokelength="70"
       strokelength_rdm="0.3;1"
       strokeoverlap="0.5"
       strokeoverlap_rdm="0.5;1"
       ends_tolerance="0.1;1"
       tremble_size="0.4;986690829"
       tremble_frequency="3"
       nbtangents="2"
       tgt_places_rdmness="0.5;331037606"
       tgtlength="5"
       tgtlength_rdm="0.3;1"
       tgtscale="10" /><inkscape:path-effect
       effect="sketch"
       id="path-effect13"
       is_visible="true"
       lpeversion="1"
       nbiter_approxstrokes="3"
       parallel_offset="0.2;1"
       strokelength="70"
       strokelength_rdm="0.3;1"
       strokeoverlap="0.5"
       strokeoverlap_rdm="0.5;1"
       ends_tolerance="0.1;1"
       tremble_size="0.4;1466626147"
       tremble_frequency="3"
       nbtangents="2"
       tgt_places_rdmness="0.5;1"
       tgtlength="5"
       tgtlength_rdm="0.3;1"
       tgtscale="10" /><inkscape:path-effect
       effect="sketch"
       id="path-effect12"
       is_visible="true"
       lpeversion="1"
       nbiter_approxstrokes="3"
       parallel_offset="0.3;2139095038"
       strokelength="70"
       strokelength_rdm="0.3;1"
       strokeoverlap="0.5"
       strokeoverlap_rdm="0.5;1780345887"
       ends_tolerance="0.1;2139095038"
       tremble_size="0.5;1"
       tremble_frequency="3"
       nbtangents="2"
       tgt_places_rdmness="0.3;1897520308"
       tgtlength="4"
       tgtlength_rdm="0.3;1"
       tgtscale="10" /><inkscape:path-effect
       effect="sketch"
       id="path-effect18"
       is_visible="true"
       lpeversion="1"
       nbiter_approxstrokes="3"
       parallel_offset="0.2;1"
       strokelength="70"
       strokelength_rdm="0.3;1"
       strokeoverlap="0.5"
       strokeoverlap_rdm="0.5;1"
       ends_tolerance="0.1;1"
       tremble_size="0.8;1"
       tremble_frequency="3"
       nbtangents="2"
       tgt_places_rdmness="0.5;1"
       tgtlength="10"
       tgtlength_rdm="0.3;1"
       tgtscale="10" /><inkscape:path-effect
       effect="sketch"
       id="path-effect10"
       is_visible="true"
       lpeversion="1"
       nbiter_approxstrokes="3"
       parallel_offset="0.2;1"
       strokelength="70"
       strokelength_rdm="0.3;1"
       strokeoverlap="0.5"
       strokeoverlap_rdm="0.5;1"
       ends_tolerance="0.1;1"
       tremble_size="0.8;1"
       tremble_frequency="3"
       nbtangents="2"
       tgt_places_rdmness="0.5;1"
       tgtlength="10"
       tgtlength_rdm="0.3;1"
       tgtscale="10" /><inkscape:path-effect
       effect="sketch"
       id="path-effect9"
       is_visible="true"
       lpeversion="1"
       nbiter_approxstrokes="3"
       parallel_offset="0.2;1"
       strokelength="70"
       strokelength_rdm="0.3;1"
       strokeoverlap="0.5"
       strokeoverlap_rdm="0.5;1"
       ends_tolerance="0.1;1"
       tremble_size="0.8;1"
       tremble_frequency="3"
       nbtangents="2"
       tgt_places_rdmness="0.5;1"
       tgtlength="10"
       tgtlength_rdm="0.3;1"
       tgtscale="10" /><inkscape:path-effect
       effect="sketch"
       id="path-effect8"
       is_visible="true"
       lpeversion="1"
       nbiter_approxstrokes="3"
       parallel_offset="0.2;1"
       strokelength="70"
       strokelength_rdm="0.3;1"
       strokeoverlap="0.5"
       strokeoverlap_rdm="0.5;1"
       ends_tolerance="0.1;1"
       tremble_size="0.8;1"
       tremble_frequency="3"
       nbtangents="2"
       tgt_places_rdmness="0.5;1"
       tgtlength="10"
       tgtlength_rdm="0.3;1"
       tgtscale="10" /><inkscape:path-effect
       effect="sketch"
       id="path-effect3"
       is_visible="true"
       lpeversion="1"
       nbiter_approxstrokes="3"
       parallel_offset="0.2;1"
       strokelength="70"
       strokelength_rdm="0.3;1"
       strokeoverlap="0.5"
       strokeoverlap_rdm="0.5;1"
       ends_tolerance="0.1;1"
       tremble_size="0.8;1"
       tremble_frequency="3"
       nbtangents="2"
       tgt_places_rdmness="0.5;1"
       tgtlength="10"
       tgtlength_rdm="0.3;1"
       tgtscale="10" /><inkscape:path-effect
       effect="sketch"
       id="path-effect2"
       is_visible="true"
       lpeversion="1"
       nbiter_approxstrokes="4"
       parallel_offset="0.7;1"
       strokelength="50"
       strokelength_rdm="0.3;1"
       strokeoverlap="0.3"
       strokeoverlap_rdm="0.3;1"
       ends_tolerance="0.1;1"
       tremble_size="0.8;1"
       tremble_frequency="3"
       nbtangents="0"
       tgt_places_rdmness="1;1"
       tgtlength="100"
       tgtlength_rdm="0.3;1"
       tgtscale="10" /><inkscape:path-effect
       effect="sketch"
       id="path-effect1"
       is_visible="true"
       lpeversion="1"
       nbiter_approxstrokes="3"
       parallel_offset="0.5;1"
       strokelength="50"
       strokelength_rdm="0.3;1"
       strokeoverlap="0.3"
       strokeoverlap_rdm="0.3;1"
       ends_tolerance="0.1;1"
       tremble_size="1;1"
       tremble_frequency="3"
       nbtangents="0"
       tgt_places_rdmness="1;1"
       tgtlength="100"
       tgtlength_rdm="0.3;1"
       tgtscale="10" /><inkscape:path-effect
       effect="sketch"
       id="path-effect11"
       is_visible="true"
       lpeversion="1"
       nbiter_approxstrokes="3"
       parallel_offset="0.5;1"
       strokelength="50"
       strokelength_rdm="0.3;1"
       strokeoverlap="0.3"
       strokeoverlap_rdm="0.3;1"
       ends_tolerance="0.1;1"
       tremble_size="1;1"
       tremble_frequency="3"
       nbtangents="0"
       tgt_places_rdmness="1;1"
       tgtlength="100"
       tgtlength_rdm="0.3;1"
       tgtscale="10" /><inkscape:path-effect
       effect="sketch"
       id="path-effect7"
       is_visible="true"
       lpeversion="1"
       nbiter_approxstrokes="3"
       parallel_offset="1;1"
       strokelength="50"
       strokelength_rdm="0.3;1"
       strokeoverlap="0.3"
       strokeoverlap_rdm="0.3;1"
       ends_tolerance="0.1;1"
       tremble_size="1.2;1"
       tremble_frequency="3"
       nbtangents="0"
       tgt_places_rdmness="1;1"
       tgtlength="100"
       tgtlength_rdm="0.3;1"
       tgtscale="10" /><rect
       x="223.77509"
       y="306.53192"
       width="415.43015"
       height="124.34706"
       id="rect6" /><inkscape:path-effect
       effect="sketch"
       id="path-effect6"
       is_visible="true"
       lpeversion="1"
       nbiter_approxstrokes="3"
       parallel_offset="1;1"
       strokelength="50"
       strokelength_rdm="0.3;1"
       strokeoverlap="0.3"
       strokeoverlap_rdm="0.3;1"
       ends_tolerance="0.1;1"
       tremble_size="1.2;1"
       tremble_frequency="3"
       nbtangents="0"
       tgt_places_rdmness="1;1"
       tgtlength="100"
       tgtlength_rdm="0.3;1"
       tgtscale="10" /><inkscape:path-effect
       effect="sketch"
       id="path-effect5"
       is_visible="true"
       lpeversion="1"
       nbiter_approxstrokes="3"
       parallel_offset="1;1"
       strokelength="50"
       strokelength_rdm="0.3;1"
       strokeoverlap="0.3"
       strokeoverlap_rdm="0.3;1"
       ends_tolerance="0.1;1"
       tremble_size="1.2;1"
       tremble_frequency="3"
       nbtangents="0"
       tgt_places_rdmness="1;1"
       tgtlength="100"
       tgtlength_rdm="0.3;1"
       tgtscale="10" /></defs><g
     inkscape:label="Layer 1"
     inkscape:groupmode="layer"
     id="layer1"><g
       id="g6"><g
         id="g9"
         transform="translate(28.418657,-43.5)"><g
           id="g10"
           transform="matrix(1.1080917,0,0,1.1080917,2.7624827,-8.7600785)"><path
             id="path7"
             style="fill:#cccccc;stroke:none;stroke-width:0.238774;stroke-dasharray:none"
             d="M 4.8215643,53.858162 C 3.6629942,54.490446 1.7072402,56.713188 1.864479,58.890927 L 4.0949828,56.713189 C 4.8350889,55.990591 4.35866,54.706367 4.8215643,53.858162 Z m -15.0530153,5.242766 0.06164,11.911485 c 0.7316114,-0.319906 2.3260997,-1.510958 2.3260997,-2.360529 v -9.550956 z m 35.816085,10.050889 c -1.216677,0.532005 -2.222742,1.455817 -2.855027,2.614387 0.848205,-0.462904 1.820665,-0.726581 2.855027,-0.726581 z m -38.671112,2.614387 c -1.855242,1.012491 -3.114321,2.980352 -3.114321,5.242766 0,3.296776 2.672572,5.969348 5.969348,5.969348 V 94.917013 H 2.1847916 c 0,-0.849571 0.1800274,-1.656127 0.4999329,-2.387739 0,0 -9.2555628,0.999851 -10.5284368,0 -1.3500865,-1.060502 -2.4e-6,-11.20308 -2.4e-6,-11.20308 -3e-7,-1.344486 -5.9693453,-3.408187 -5.9693453,-6.704963 0,-1.034362 0.263677,-2.006821 0.726582,-2.855027 z m 23.628356,14.793722 c -2.2624141,0 -5.4344088,2.007113 -6.446899,3.862355 0.8482051,-0.462904 3.0247982,-1.474616 4.0591602,-1.474616 3.2967768,0 5.9693478,2.672572 5.9693478,5.969348 h 11.461147 v -2.387739 l -8.357092,-5e-6 c -0.951228,0 -3.388886,-5.969343 -6.685664,-5.969343 z"
             sodipodi:nodetypes="ccscccscccccccsccccssscscscccss" /><path
             id="path5"
             style="fill:none;stroke:#000000;stroke-width:0.238774;stroke-dasharray:none"
             d="m -5.6697005,94.809264 c 2.597672,0.01717 5.20268578,0.03468 7.8086943,0.05813 -0.01331,-3.265766 2.649419,-5.907794 5.9249052,-5.850198 2.139085,0.03761 4.009237,1.219419 5.0352,2.981711 0.544891,0.935957 0.859109,2.024144 0.857484,3.181308 3.814954,0.04504 7.69556,0.0038 11.609211,-0.0513 2.094453,-2.065829 4.207465,-4.139419 6.325312,-6.190259 2.377887,-2.302654 4.662625,-4.582136 6.908087,-6.853377 M 24.863756,94.588791 c 0.245382,-0.0023 0.490865,-0.0044 0.73645,-0.0063 5.342548,-5.38239 10.781511,-10.565823 16.355255,-15.750354 0.675465,-0.628297 1.341669,-1.262436 1.99987,-1.90173 -4.756796,-4.809955 -9.966597,-9.911741 -15.093362,-15.013055 -0.889596,-0.88518 -1.763767,-1.752045 -2.625839,-2.603606 m 9.362642,9.867128 c -3.435987,-3.361364 -6.795396,-6.793487 -10.111444,-10.246483 -2.902846,-0.029 -5.789338,-0.06587 -8.66717,-0.09906 -0.993944,-0.01146 -1.995401,-0.01859 -3.002934,-0.02197 0.0454,-3.304801 -2.645597,-5.957177 -5.969619,-5.911677 -3.3274168,0.04555 -6.0431313,2.774998 -6.0641307,6.137368 -0.5072631,0.0102 -1.01386603,0.02044 -1.51963637,0.03065 -1.85381803,0.03743 -3.71297643,0.05581 -5.57855063,0.06145 M 6.3970512,53.129882 c -2.6654006,0.592956 -4.6262858,2.972781 -4.6047766,5.841463 -3.949183,0.07222 -7.8492465,0.219882 -11.7437014,0.407351 0.024249,1.187243 0.048952,2.377716 0.073105,3.570598 0.06062,2.993944 0.066712,5.873229 0.042915,8.697453 -3.3265655,-0.02494 -6.0540485,2.560174 -6.1233075,5.778134 -0.0401,1.863306 0.820124,3.525657 2.182889,4.597292 0.989173,0.777854 2.247937,1.23947 3.622022,1.231289 -0.0352,3.956081 -0.02052,7.941057 -0.01381,11.918722 1.335289,-6.36e-4 2.6696833,-0.0021 4.0010092,-0.0057 M -14.51602,72.192598 c -1.298314,1.099613 -2.124403,2.752783 -2.117782,4.60298 0.01185,3.30961 2.683872,5.995107 5.984876,6.020376 0.0034,2.92679 0.0092,5.860835 0.02842,8.805639 0.0071,1.089942 0.01615,2.174659 0.02754,3.255017 4.1826048,0.02049 8.3999994,-0.02361 12.6752853,-0.08286 0.089697,-2.757767 2.0090076,-5.092923 4.6311919,-5.850127 0.5570165,-0.160849 1.1402497,-0.249017 1.7388053,-0.253427 3.4070205,-0.0251 6.0690555,2.681763 5.9950255,6.043472 0.526205,0.01139 1.050858,0.0238 1.574367,0.03712 m -19.3444543,0.353859 c 1.9428548,-0.03327 3.87895287,-0.05839 5.8084421,-0.08163 -0.021409,-3.337153 2.6159691,-6.036311 5.8577094,-6.092965 2.8182868,-0.04925 5.1589828,1.914357 5.6614718,4.515273 0.07509,0.388669 0.11067,0.793569 0.102208,1.210163 3.744991,-0.108562 7.599199,-0.10544 11.490328,-0.08826 2.566991,-2.485579 5.16564,-4.959106 7.738544,-7.498102 1.681771,-1.659606 3.332574,-3.307751 4.964694,-4.951029 M 26.729005,93.99123 c 5.502397,-5.62615 10.80679,-10.872946 15.935826,-16.120051 0.171932,-0.17589 0.344743,-0.352312 0.51839,-0.529237 -5.622115,-5.103325 -10.548249,-10.625459 -15.780622,-15.882423 -0.643686,-0.646711 -1.289006,-1.294725 -1.935532,-1.943741 -0.942519,0.005 -1.88631,0.009 -2.830911,0.01223 m 11.620862,7.945184 c -2.8482,-2.900027 -5.765284,-5.758912 -8.715173,-8.585743 -3.740835,0.0572 -7.508364,0.140478 -11.276108,0.243172 -0.298941,0.0081 -0.597167,0.01579 -0.894705,0.02295 -0.05641,-3.219626 -2.697814,-5.87087 -5.9270918,-5.860172 -3.2193612,0.01067 -5.790037,2.679917 -5.6554033,6.004406 -1.18275626,0.01072 -2.36365546,0.02601 -3.5447444,0.04844 -0.8005266,0.0152 -1.6088726,0.02502 -2.4238129,0.02997 M 4.0873221,53.45278 c -1.7495554,1.052851 -2.9191412,2.971116 -2.9116702,5.162373 -3.9659466,0.01412 -7.9187898,0.02376 -11.8586329,0.04829 0.01731,1.745489 0.0371,3.493809 0.05935,5.246566 0.02879,2.268008 0.03728,4.53792 0.0327,6.815652 -3.305176,0.04844 -6.005424,2.777015 -6.045018,6.168545 -0.03069,2.629202 1.542409,4.893094 3.770166,5.861087 0.648326,0.281707 1.35506,0.444744 2.096362,0.465966 -0.0094,4.093222 0.07524,7.987356 0.219568,11.832777 1.2957646,-0.04215 2.5974188,-0.08911 3.9038946,-0.136211 M -15.728281,73.747068 c -0.451252,0.850938 -0.703934,1.827267 -0.694722,2.867267 0.02954,3.334226 2.734684,6.05352 6.088302,6.147951 0.06474,3.765493 0.156338,7.576443 0.293879,11.447816 0.01199,0.337336 0.02279,0.672948 0.03248,1.006929 4.2644445,0.194776 8.3405658,0.114903 12.3598715,-0.03762 -0.095136,-3.418061 2.4646463,-6.235114 5.658131,-6.352245 0.1898886,-0.007 0.3777384,-0.0042 0.5631037,0.0078 2.9358808,0.190334 5.2774858,2.721705 5.2874978,5.826171 2.752465,0.0071 5.531588,0.04224 8.306376,0.07074 m -26.4284718,0.321168 c 2.1565155,0.01992 4.31589003,0.02246 6.4770125,0.01228 4.196e-4,-3.314466 2.6769992,-6.022536 5.9781503,-6.079519 2.642383,-0.04561 4.884798,1.618593 5.675501,3.940317 0.197167,0.578938 0.303721,1.200679 0.303299,1.848624 3.817933,-0.05823 7.618883,-0.05685 11.404892,-0.05397 2.316941,-2.344303 4.622606,-4.687472 6.918334,-7.067601 2.507381,-2.599562 5.09446,-5.165847 7.724432,-7.722296 M 25.545665,94.293566 C 31.152202,88.754607 36.58104,83.277197 42.162607,77.735903 42.496942,77.403981 42.830697,77.072237 43.163928,76.740646 38.055356,71.534099 32.81745,66.364996 27.664198,61.127368 26.867934,60.318067 26.074644,59.51389 25.284483,58.71416 c -3.948728,-0.0029 -7.858645,0.04946 -11.722968,0.127488 0.01025,-0.346854 -0.01014,-0.686457 -0.05857,-1.016267 m 21.449097,10.944628 c -3.196649,-3.150477 -6.312559,-6.315147 -9.407158,-9.509118 -3.310404,-0.04442 -6.608707,-0.105485 -9.920335,-0.189649 -0.633117,-0.01609 -1.267767,-0.02906 -1.903838,-0.03924 0.01358,-3.34417 -2.681478,-6.004576 -6.0193001,-5.956811 -3.3422811,0.04783 -6.0696275,2.789037 -6.1429324,6.151702 -0.90668925,0.01799 -1.81395795,0.03514 -2.7214998,0.0506 -3.1643586,0.05389 -6.2764638,0.07834 -9.3701127,0.09922 -2.91e-4,0.866192 8.46e-4,1.732108 0.0027,2.598304 M 5.2822237,53.670085 c -2.0209273,0.924722 -3.4135873,2.977167 -3.4023387,5.375077 -3.9607629,0.02809 -7.9010732,0.119768 -11.8240922,0.230241 0.022009,1.591953 0.046637,3.186753 0.073698,4.78176 0.042465,2.502879 0.03973,4.960429 0.00428,7.393594 -3.349409,0.0035 -6.107628,2.638612 -6.241948,5.902734 -0.09594,2.331474 1.169733,4.348762 3.043442,5.316347 0.748352,0.386451 1.604967,0.601932 2.520612,0.598424 -0.01856,0.693882 -0.03168,1.387122 -0.04016,2.079692 m -4.805886,-11.282608 c -0.439377,0.828188 -0.686575,1.776143 -0.682452,2.785069 0.01348,3.300345 2.706421,5.995657 6.038423,6.04429 0.040629,3.73427 0.0989,7.494014 0.1808821,11.26569 0.00667,0.307068 0.012458,0.613467 0.017381,0.919232 4.2067546,0.08514 8.2492577,0.0491 12.2065821,-0.0204 -0.1445138,-3.352143 2.3608436,-6.090546 5.4465464,-6.14632 0.202025,-0.0037 0.4014784,0.0043 0.5977574,0.02324 2.7778926,0.268194 5.0578406,2.741798 5.1165506,5.76386 M 37.427829,70.944127 31.740592,65.256888 m -41.873581,4.784425 -6.199712,3.613226"
             sodipodi:nodetypes="ccscccccscccscc"
             inkscape:path-effect="#path-effect13"
             inkscape:original-d="m -10.231447,94.917011 12.4162367,10e-7 c 0,-3.296779 2.6725677,-5.969347 5.969347,-5.969347 3.2967803,0 5.9693483,2.672568 5.9693483,5.969347 l 11.461149,-10e-7 17.908034,-17.908044 -17.908034,-17.908038 -11.938697,10e-7 c 0,-3.296779 -2.672569,-5.969347 -5.9693484,-5.969347 -3.2967792,0 -5.9693466,2.672568 -5.9693466,5.969347 l -11.938689,-10e-7 10e-7,11.938693 c -3.296779,0 -5.969347,2.672568 -5.969347,5.969348 0,3.296779 2.672568,5.969346 5.969347,5.969346 z" /><path
             id="path8"
             style="fill:#87cdde;stroke:none;stroke-width:0.2387739;stroke-dasharray:none"
             d="m 25.584633,94.917011 12.416242,10e-7 c 0,-3.296779 2.672567,-5.969347 5.969347,-5.969347 3.296779,0 5.969347,2.672568 5.969347,5.969347 l 11.461145,-10e-7 V 82.978316 c -3.296779,0 -5.969347,-2.672568 -5.969347,-5.969347 0,-3.296779 2.672568,-5.969347 5.969347,-5.969347 V 59.100929 l -11.938693,10e-7 c 0,-3.296779 -2.672568,-5.969347 -5.969348,-5.969347 -3.296779,0 -5.969346,2.672568 -5.969346,5.969347 l -11.938694,-10e-7 1e-6,11.938693 c -3.296779,0 -5.969347,2.672568 -5.969347,5.969348 0,3.296779 2.672568,5.969346 5.969347,5.969346 z"
             sodipodi:nodetypes="ccscccscccscccscc" /><path
             id="path9"
             style="fill:#37abc8;stroke:none;stroke-width:0.238774;stroke-dasharray:none"
             d="m 40.63765,53.858162 c -1.15857,0.632284 -3.114329,2.855026 -3.114329,5.242764 l 2.387747,-2.387737 c 0.731406,-0.731403 0.263677,-2.006822 0.726582,-2.855027 z m -15.053016,5.242766 -0.104407,12.068477 c 0.731612,-0.319906 2.492146,-1.66795 2.492146,-2.517521 v -9.550956 z m 35.816085,10.050889 c -1.216676,0.532005 -2.222742,1.455817 -2.855027,2.614387 0.848205,-0.462904 1.820665,-0.726581 2.855027,-0.726581 z m -38.671112,2.614387 c -1.855242,1.012491 -3.114321,2.980352 -3.114321,5.242766 0,3.296776 2.672572,5.969348 5.969348,5.969348 v 11.938695 h 12.416243 c 0,-0.849571 0.180027,-1.656127 0.499933,-2.387739 0,0 -9.334572,1.193863 -10.528437,0 -1.193876,-1.193874 -7e-6,-10.744829 -7e-6,-10.744829 0,-1.193873 -5.969341,-3.866438 -5.969341,-7.163214 0,-1.034362 0.263678,-2.006821 0.726582,-2.855027 z m 23.628356,14.793722 c -2.262414,0 -5.481463,1.580788 -6.658828,4.030648 0.848206,-0.462904 3.236727,-1.642909 4.271089,-1.642909 3.296776,0 5.969348,2.672572 5.969348,5.969348 h 11.461147 v -2.387739 l -8.357096,-5e-6 c -1.231076,-10e-7 -3.388884,-5.969343 -6.68566,-5.969343 z"
             sodipodi:nodetypes="ccscccscccccccsccccssscscscccss" /><path
             id="path6"
             style="fill:none;stroke:#000000;stroke-width:0.2387739;stroke-dasharray:none"
             d="m 30.327603,94.837313 c 2.590688,-0.0028 5.197612,-0.003 7.812228,-0.0017 -0.0025,-3.294974 2.678984,-5.964233 5.980677,-5.959924 2.156688,0.0028 4.045291,1.145606 5.091548,2.857559 0.555533,0.908999 0.873055,1.981647 0.866076,3.132679 3.79706,0.02579 7.565058,0.08907 11.299158,0.192981 -0.06466,-2.785279 -0.148364,-5.547741 -0.253139,-8.286069 -0.04085,-1.067742 -0.0678,-2.153027 -0.08336,-3.252842 -2.252574,0.03303 -4.184065,-1.208609 -5.175571,-3.061739 m 4.617783,14.505664 c 0.246494,0.0016 0.492949,0.003 0.73937,0.004 0.02331,-3.962415 0.0376,-8.000286 0.06282,-12.092459 -3.274668,-0.09325 -5.925299,-2.878191 -5.880039,-6.324982 0.0059,-0.453119 0.05817,-0.895421 0.152071,-1.322396 0.621032,-2.823882 3.032408,-4.875271 5.911238,-4.864143 0.02092,-3.964102 0.0288,-7.826149 0.07119,-11.736923 -1.084321,0.01895 -2.166024,0.0342 -3.244115,0.0426 -1.171806,0.0091 -2.352841,0.02023 -3.541761,0.03392 m 6.253089,7.110275 c -0.02089,-2.129839 -0.01969,-4.270381 -0.0011,-6.418334 -3.944986,-0.0076 -7.829914,-0.04068 -11.684588,-0.07826 0.0547,-1.759529 -0.637369,-3.344529 -1.770104,-4.451014 -1.009543,-0.986147 -2.393819,-1.589421 -3.934656,-1.597165 -3.269962,-0.01644 -5.994745,2.653294 -6.080188,5.943149 -3.259002,-0.0067 -6.544612,-0.01594 -9.799205,-0.04256 -0.822586,-0.0067 -1.639631,-0.01137 -2.451759,-0.01413 -0.01202,1.041028 -0.01571,2.085235 -0.01246,3.132165 M 37.629132,59.5853 c -4.012567,-0.0022 -7.984401,-0.05981 -11.949671,-0.174336 0.0026,3.696585 0.01127,7.340775 -0.0042,10.931187 -7.04e-4,0.16329 -0.0013,0.327139 -0.0018,0.491531 -3.303798,-0.165977 -5.959641,2.543342 -5.911886,5.942487 0.04803,3.41874 2.785155,6.270867 6.171954,6.488493 0.03784,1.441895 0.07902,2.884662 0.123009,4.321309 0.08544,2.790349 0.09449,5.461154 0.05652,8.068133 3.947774,-0.03055 7.786247,-0.20949 11.619576,-0.3393 m -5.978482,-0.361958 c 1.915394,-0.01998 3.855585,-0.02632 5.815614,-0.02283 0.03042,-3.288986 2.780126,-5.934779 6.189438,-5.891842 2.970324,0.03741 5.476345,2.09962 6.182091,4.836525 0.105502,0.409142 0.168304,0.832701 0.183964,1.266077 3.95992,0.0412 7.735307,0.0184 11.457042,-0.02876 -0.09134,-3.581297 -0.228693,-7.183482 -0.308125,-10.775086 -0.0099,-0.448678 -0.01832,-0.896335 -0.02528,-1.343037 -3.342676,-0.0355 -5.999547,-2.690462 -5.936176,-5.950426 0.01304,-0.670597 0.140699,-1.313986 0.36483,-1.912264 m 5.91391,18.399155 c 0.03462,-3.553491 0.04961,-7.133117 0.0679,-10.713407 -3.278898,0.01246 -5.937018,-2.650082 -5.899073,-5.918646 0.01267,-1.091139 0.324704,-2.111296 0.860698,-2.983398 1.069426,-1.740032 2.990259,-2.914023 5.163994,-2.912786 -0.04284,-3.977323 -0.174766,-7.991277 -0.347176,-12.000823 -1.80148,-0.01301 -3.610582,-0.02519 -5.423337,-0.03318 -2.365204,-0.01043 -4.658343,-0.0089 -6.907617,0.0019 9.6e-5,-0.05938 -6.53e-4,-0.118559 -0.0022,-0.177512 m 12.292866,4.573651 c -0.01897,-1.42792 -0.03239,-2.847042 -0.04212,-4.259669 -4.007164,-0.02423 -7.984761,0.0037 -11.9753,0.03136 -0.007,-2.519081 -1.600166,-4.670488 -3.856199,-5.529945 -0.676321,-0.25765 -1.41021,-0.398519 -2.176818,-0.397455 -3.323618,0.0046 -6.007521,2.676817 -6.024461,5.972711 -3.936589,-0.0014 -7.877835,-0.0048 -11.854876,-0.0041 -0.06407,1.1e-5 -0.128117,2.5e-5 -0.19213,4.2e-5 -0.02626,1.81226 -0.02728,3.627148 -0.0076,5.444714 m 10.051641,-5.861968 c -3.276664,-0.0082 -6.520618,0.007 -9.758326,0.04081 -0.01475,4.021239 -0.01999,8.070773 -0.06542,12.139671 -0.591625,0.01313 -1.164217,0.110374 -1.706527,0.28045 -2.511556,0.787658 -4.317066,3.094607 -4.274532,5.801896 0.05166,3.288217 2.816612,5.92391 6.2401,5.881987 0.08313,2.068123 0.178113,4.13684 0.278231,6.216982 0.03995,0.829953 0.07116,1.660562 0.09503,2.491617 m -4.22667,-10.219237 c 0.953571,0.665507 2.110927,1.058587 3.358741,1.067549 -0.02451,4.007971 -0.04852,8.044854 -0.09219,12.119217 2.567969,0.06185 5.127572,0.139655 7.673212,0.235793 1.512102,0.05711 3.0407,0.09335 4.582221,0.115439 -0.0016,-3.252861 2.722638,-5.93716 6.094222,-5.953861 3.359511,-0.01664 6.109708,2.612572 6.232663,5.919808 0,0 0,0 0,0 6.24e-4,0.01679 0.0012,0.03359 0.0017,0.05041 3.931547,0.04172 7.728813,0.03789 11.47296,0.01867 -0.04215,-2.1227 -0.100528,-4.250102 -0.161431,-6.37711 m -29.479455,6.265753 c 2.179635,0.01097 4.351256,0.01425 6.51927,0.01235 0.01093,-3.30043 2.685176,-5.984725 5.991132,-6.002324 2.646284,-0.01409 4.894949,1.683832 5.704532,4.044331 0.201882,0.588624 0.313379,1.218719 0.318397,1.873961 3.849517,-0.01599 7.692083,-0.01952 11.551228,-0.02504 0.03368,-3.323673 0.07986,-6.648842 0.153991,-9.984972 0.01476,-0.664118 0.02687,-1.326626 0.03668,-1.987594 -3.251713,-0.0014 -5.927176,-2.640723 -5.951962,-5.87762 -0.01502,-1.96138 0.947923,-3.686524 2.437973,-4.716593 m 2.821945,22.852621 c 0.02339,2.57e-4 0.04677,5.11e-4 0.07015,7.62e-4 0.03618,-3.936485 0.06779,-7.959686 0.122642,-12.034084 -3.249104,-0.07851 -5.873422,-2.849131 -5.783587,-6.270381 0.01815,-0.691158 0.145775,-1.356566 0.366379,-1.979713 0.870856,-2.459942 3.127913,-4.185399 5.751787,-4.149143 -0.01249,-3.924748 -0.103936,-7.716129 -0.176658,-11.499074 -1.341889,0.06511 -2.681725,0.131143 -4.015961,0.193566 -2.694938,0.126084 -5.387675,0.154371 -8.089854,0.129067 -0.01523,-1.012627 -0.278293,-1.974008 -0.732527,-2.824318 m 12.5446,8.005519 c 0.008,-1.808943 0.0167,-3.625845 0.02751,-5.452264 -3.95566,-0.06004 -7.901233,-0.166636 -11.822966,-0.336648 0.03072,-2.204575 -1.034805,-4.160196 -2.650931,-5.338323 -0.903332,-0.658512 -1.992804,-1.045836 -3.171055,-1.06854 -3.292735,-0.06345 -6.018844,2.714801 -6.129779,6.175611 -3.640192,0.188591 -7.332791,0.464134 -11.031527,0.697396 -0.481389,0.03036 -0.959521,0.05644 -1.434639,0.07854 -0.146104,4.171554 -0.06486,8.044025 0.08591,11.824423 -1.02259,-0.05319 -1.977779,0.168132 -2.798383,0.597024 M 36.802055,59.32763 c -3.737912,0.05182 -7.50991,0.05976 -11.298337,0.06067 -0.02792,3.980523 -0.07422,7.953169 -0.118,11.961541 -0.03327,2.38e-4 -0.06647,7.45e-4 -0.09961,0.0015 0,0 0,0 0,0 -3.283578,0.07656 -5.899523,2.731735 -5.865982,5.995373 0.03387,3.295339 2.758449,5.960008 6.124547,5.956017 0.03277,1.556625 0.06762,3.114342 0.102463,4.67454 0.05412,2.423676 0.07415,4.83917 0.07563,7.247329 1.532865,-0.0082 3.058301,-0.01926 4.580245,-0.03307 M 21.022379,81.01523 c 1.068017,1.104617 2.565222,1.78837 4.228353,1.790044 0.0067,3.983577 0.06212,7.942741 0.138822,11.898366 2.263299,-0.01336 4.533227,-0.02782 6.805017,-0.03975 1.962555,-0.01031 3.901395,-0.0074 5.824528,0.0069 0.0084,-3.269263 2.64635,-5.896692 5.902749,-5.816315 2.858891,0.07057 5.23459,2.211667 5.75462,5.045453 0.07193,0.391965 0.108469,0.795361 0.105942,1.206582 1.201219,0.03227 2.406443,0.04944 3.614918,0.05457 M 63.94321,83.740695 56.113934,81.899018 m -30.529301,-18.392157 1e-6,7.175782"
             sodipodi:nodetypes="ccscccscccscccscc"
             inkscape:path-effect="#path-effect14"
             inkscape:original-d="m 25.584633,94.917011 12.416242,10e-7 c 0,-3.296779 2.672567,-5.969347 5.969347,-5.969347 3.296779,0 5.969347,2.672568 5.969347,5.969347 l 11.461145,-10e-7 V 82.978316 c -3.296779,0 -5.969347,-2.672568 -5.969347,-5.969347 0,-3.296779 2.672568,-5.969347 5.969347,-5.969347 V 59.100929 l -11.938693,10e-7 c 0,-3.296779 -2.672568,-5.969347 -5.969348,-5.969347 -3.296779,0 -5.969346,2.672568 -5.969346,5.969347 l -11.938694,-10e-7 1e-6,11.938693 c -3.296779,0 -5.969347,2.672568 -5.969347,5.969348 0,3.296779 2.672568,5.969346 5.969347,5.969346 z" /></g></g></g></g></svg>
