<?xml version="1.0" encoding="UTF-8" standalone="no"?>
<!-- Created with Inkscape (http://www.inkscape.org/) -->

<svg
   width="800"
   height="240"
   viewBox="0 0 211.66667 63.499998"
   version="1.1"
   id="svg1"
   inkscape:version="1.3.2 (091e20ef0f, 2023-11-25, custom)"
   sodipodi:docname="titel.svg"
   xmlns:inkscape="http://www.inkscape.org/namespaces/inkscape"
   xmlns:sodipodi="http://sodipodi.sourceforge.net/DTD/sodipodi-0.dtd"
   xmlns="http://www.w3.org/2000/svg"
   xmlns:svg="http://www.w3.org/2000/svg">
  <sodipodi:namedview
     id="namedview1"
     pagecolor="#ffffff"
     bordercolor="#000000"
     borderopacity="0.25"
     inkscape:showpageshadow="2"
     inkscape:pageopacity="0.0"
     inkscape:pagecheckerboard="0"
     inkscape:deskcolor="#d1d1d1"
     inkscape:document-units="mm"
     inkscape:zoom="0.57461891"
     inkscape:cx="541.22828"
     inkscape:cy="262.78286"
     inkscape:window-width="1440"
     inkscape:window-height="831"
     inkscape:window-x="0"
     inkscape:window-y="0"
     inkscape:window-maximized="1"
     inkscape:current-layer="g9" />
  <defs
     id="defs1">
    <inkscape:path-effect
       effect="sketch"
       id="path-effect27"
       is_visible="true"
       lpeversion="1"
       nbiter_approxstrokes="3"
       parallel_offset="0.2;1"
       strokelength="70"
       strokelength_rdm="0.3;1"
       strokeoverlap="0.5"
       strokeoverlap_rdm="0.5;1"
       ends_tolerance="0.1;1"
       tremble_size="0.8;1"
       tremble_frequency="3"
       nbtangents="2"
       tgt_places_rdmness="0.5;1"
       tgtlength="10"
       tgtlength_rdm="0.3;1"
       tgtscale="10" />
    <inkscape:path-effect
       effect="sketch"
       id="path-effect25"
       is_visible="true"
       lpeversion="1"
       nbiter_approxstrokes="3"
       parallel_offset="0.2;1"
       strokelength="70"
       strokelength_rdm="0.3;1"
       strokeoverlap="0.5"
       strokeoverlap_rdm="0.5;1"
       ends_tolerance="0.1;1"
       tremble_size="0.8;1"
       tremble_frequency="3"
       nbtangents="2"
       tgt_places_rdmness="0.5;1"
       tgtlength="10"
       tgtlength_rdm="0.3;1"
       tgtscale="10" />
    <inkscape:path-effect
       effect="sketch"
       id="path-effect23"
       is_visible="true"
       lpeversion="1"
       nbiter_approxstrokes="3"
       parallel_offset="0.2;1"
       strokelength="70"
       strokelength_rdm="0.3;1"
       strokeoverlap="0.5"
       strokeoverlap_rdm="0.5;1"
       ends_tolerance="0.1;1"
       tremble_size="0.8;1"
       tremble_frequency="3"
       nbtangents="2"
       tgt_places_rdmness="0.5;1"
       tgtlength="10"
       tgtlength_rdm="0.3;1"
       tgtscale="10" />
    <inkscape:path-effect
       effect="sketch"
       id="path-effect22"
       is_visible="true"
       lpeversion="1"
       nbiter_approxstrokes="3"
       parallel_offset="0.2;1"
       strokelength="70"
       strokelength_rdm="0.3;1"
       strokeoverlap="0.5"
       strokeoverlap_rdm="0.5;1"
       ends_tolerance="0.1;1"
       tremble_size="0.8;1"
       tremble_frequency="3"
       nbtangents="2"
       tgt_places_rdmness="0.5;1"
       tgtlength="10"
       tgtlength_rdm="0.3;1"
       tgtscale="10" />
    <inkscape:path-effect
       effect="sketch"
       id="path-effect21"
       is_visible="true"
       lpeversion="1"
       nbiter_approxstrokes="3"
       parallel_offset="0.2;1"
       strokelength="70"
       strokelength_rdm="0.3;1"
       strokeoverlap="0.5"
       strokeoverlap_rdm="0.5;1"
       ends_tolerance="0.1;1"
       tremble_size="0.8;1"
       tremble_frequency="3"
       nbtangents="2"
       tgt_places_rdmness="0.5;1"
       tgtlength="5"
       tgtlength_rdm="0.3;1"
       tgtscale="10" />
    <inkscape:path-effect
       effect="sketch"
       id="path-effect2"
       is_visible="true"
       lpeversion="1"
       nbiter_approxstrokes="3"
       parallel_offset="0.2;1"
       strokelength="70"
       strokelength_rdm="0.3;1"
       strokeoverlap="0.5"
       strokeoverlap_rdm="0.5;1"
       ends_tolerance="0.1;1"
       tremble_size="0.8;1"
       tremble_frequency="3"
       nbtangents="2"
       tgt_places_rdmness="0.5;1"
       tgtlength="10"
       tgtlength_rdm="0.3;1"
       tgtscale="10" />
    <inkscape:path-effect
       effect="sketch"
       id="path-effect20"
       is_visible="true"
       lpeversion="1"
       nbiter_approxstrokes="3"
       parallel_offset="0.2;1"
       strokelength="70"
       strokelength_rdm="0.3;1"
       strokeoverlap="0.5"
       strokeoverlap_rdm="0.5;1"
       ends_tolerance="0.1;1"
       tremble_size="0.8;1"
       tremble_frequency="3"
       nbtangents="2"
       tgt_places_rdmness="0.5;1"
       tgtlength="10"
       tgtlength_rdm="0.3;1"
       tgtscale="10" />
    <inkscape:path-effect
       effect="sketch"
       id="path-effect19"
       is_visible="true"
       lpeversion="1"
       nbiter_approxstrokes="3"
       parallel_offset="0.2;1"
       strokelength="70"
       strokelength_rdm="0.3;1"
       strokeoverlap="0.5"
       strokeoverlap_rdm="0.5;1"
       ends_tolerance="0.1;1"
       tremble_size="0.8;1"
       tremble_frequency="3"
       nbtangents="2"
       tgt_places_rdmness="0.5;1"
       tgtlength="10"
       tgtlength_rdm="0.3;1"
       tgtscale="10" />
    <inkscape:path-effect
       effect="sketch"
       id="path-effect18"
       is_visible="true"
       lpeversion="1"
       nbiter_approxstrokes="3"
       parallel_offset="0.2;1"
       strokelength="70"
       strokelength_rdm="0.3;1"
       strokeoverlap="0.5"
       strokeoverlap_rdm="0.5;1"
       ends_tolerance="0.1;1"
       tremble_size="0.8;1"
       tremble_frequency="3"
       nbtangents="2"
       tgt_places_rdmness="0.5;1"
       tgtlength="10"
       tgtlength_rdm="0.3;1"
       tgtscale="10" />
    <inkscape:path-effect
       effect="sketch"
       id="path-effect17"
       is_visible="true"
       lpeversion="1"
       nbiter_approxstrokes="3"
       parallel_offset="0.2;1"
       strokelength="70"
       strokelength_rdm="0.3;1"
       strokeoverlap="0.5"
       strokeoverlap_rdm="0.5;1"
       ends_tolerance="0.1;1"
       tremble_size="0.8;1"
       tremble_frequency="3"
       nbtangents="2"
       tgt_places_rdmness="0.5;1"
       tgtlength="10"
       tgtlength_rdm="0.3;1"
       tgtscale="10" />
    <inkscape:path-effect
       effect="sketch"
       id="path-effect1"
       is_visible="true"
       lpeversion="1"
       nbiter_approxstrokes="3"
       parallel_offset="0.2;1"
       strokelength="70"
       strokelength_rdm="0.3;1"
       strokeoverlap="0.5"
       strokeoverlap_rdm="0.5;1"
       ends_tolerance="0.1;1"
       tremble_size="0.8;1"
       tremble_frequency="3"
       nbtangents="2"
       tgt_places_rdmness="0.5;1"
       tgtlength="10"
       tgtlength_rdm="0.3;1"
       tgtscale="10" />
    <inkscape:path-effect
       effect="sketch"
       id="path-effect11"
       is_visible="true"
       lpeversion="1"
       nbiter_approxstrokes="4"
       parallel_offset="0.7;1"
       strokelength="50"
       strokelength_rdm="0.3;1"
       strokeoverlap="0.3"
       strokeoverlap_rdm="0.3;1"
       ends_tolerance="0.1;1"
       tremble_size="0.8;1"
       tremble_frequency="3"
       nbtangents="0"
       tgt_places_rdmness="1;1"
       tgtlength="100"
       tgtlength_rdm="0.3;1"
       tgtscale="10" />
    <inkscape:path-effect
       effect="sketch"
       id="path-effect7"
       is_visible="true"
       lpeversion="1"
       nbiter_approxstrokes="3"
       parallel_offset="1;1"
       strokelength="50"
       strokelength_rdm="0.3;1"
       strokeoverlap="0.3"
       strokeoverlap_rdm="0.3;1"
       ends_tolerance="0.1;1"
       tremble_size="1.2;1"
       tremble_frequency="3"
       nbtangents="0"
       tgt_places_rdmness="1;1"
       tgtlength="100"
       tgtlength_rdm="0.3;1"
       tgtscale="10" />
    <rect
       x="223.77509"
       y="306.53192"
       width="415.43015"
       height="124.34706"
       id="rect6" />
    <inkscape:path-effect
       effect="sketch"
       id="path-effect6"
       is_visible="true"
       lpeversion="1"
       nbiter_approxstrokes="3"
       parallel_offset="1;1"
       strokelength="50"
       strokelength_rdm="0.3;1"
       strokeoverlap="0.3"
       strokeoverlap_rdm="0.3;1"
       ends_tolerance="0.1;1"
       tremble_size="1.2;1"
       tremble_frequency="3"
       nbtangents="0"
       tgt_places_rdmness="1;1"
       tgtlength="100"
       tgtlength_rdm="0.3;1"
       tgtscale="10" />
    <inkscape:path-effect
       effect="sketch"
       id="path-effect5"
       is_visible="true"
       lpeversion="1"
       nbiter_approxstrokes="3"
       parallel_offset="1;1"
       strokelength="50"
       strokelength_rdm="0.3;1"
       strokeoverlap="0.3"
       strokeoverlap_rdm="0.3;1"
       ends_tolerance="0.1;1"
       tremble_size="1.2;1"
       tremble_frequency="3"
       nbtangents="0"
       tgt_places_rdmness="1;1"
       tgtlength="100"
       tgtlength_rdm="0.3;1"
       tgtscale="10" />
  </defs>
  <g
     inkscape:label="Layer 1"
     inkscape:groupmode="layer"
     id="layer1">
    <g
       id="g6">
      <g
         id="g9"
         transform="translate(28.418657,-43.5)">
        <path
           d="m 169.12229,73.031999 c -0.0162,-4.583019 -0.94266,-9.390363 -3.31143,-12.869396 -1.36166,-2.024691 -3.47983,-3.359257 -5.55362,-2.785858 -2.45796,0.648342 -4.24708,3.369081 -5.29979,6.214109 -1.09429,2.973615 -1.58766,6.307166 -1.55197,9.600953 0.27229,1.142176 1.26455,1.543989 2.03258,1.926685 2.75116,1.091124 5.6808,1.189085 8.52445,0.827434 1.60657,-0.289322 3.32821,-0.577069 4.68262,-1.846535 0.24512,-0.263672 0.47743,-0.627964 0.47716,-1.067392 z"
           id="path19"
           style="fill:#ffaaaa;stroke:none;stroke-width:0.264583;stroke-dasharray:none;stroke-opacity:1" />
        <path
           id="path18"
           style="fill:#ff8080;stroke:none;stroke-width:0.264583;stroke-dasharray:none;stroke-opacity:1"
           d="m 159.1332,57.842794 c -1.88461,1.059188 -3.29133,3.357167 -4.17597,5.747969 -1.09429,2.973612 -1.58753,6.307181 -1.55184,9.600965 0.27229,1.142175 1.2644,1.544318 2.03243,1.927014 2.75116,1.091123 5.6809,1.18899 8.52455,0.82734 1.60656,-0.289322 3.3285,-0.577451 4.68291,-1.846916 0.24512,-0.263672 0.47725,-0.627691 0.47698,-1.067118 -3.7e-4,-0.104301 -0.004,-0.209162 -0.005,-0.313676 -0.8229,0.282737 -1.68111,0.432804 -2.50889,0.581876 -2.84365,0.361651 -5.77339,0.263783 -8.52455,-0.827339 -0.76803,-0.382696 -1.76014,-0.78484 -2.03243,-1.927015 -0.0357,-3.293783 0.45755,-6.627352 1.55184,-9.600964 0.40299,-1.089093 0.91512,-2.158752 1.53014,-3.102136 z" />
        <path
           id="path14"
           style="fill:#cccccc;stroke:none;stroke-width:0.264583;stroke-dasharray:none;stroke-opacity:1"
           d="m 151.9109,53.989282 -9.35188,16.197978 9.35188,16.197977 h 18.70429 l 1.52755,-2.645833 c 0,0 -15.57848,1.241107 -17.586,0 -1.84678,-1.141728 -9.6399,-14.281333 -9.37762,-16.329704 0.3112,-2.4304 7.5794,-13.600484 7.5794,-13.600484 z"
           sodipodi:nodetypes="cccccsscc" />
        <path
           id="path13"
           style="fill:#cccccc;stroke:none;stroke-width:0.264583;stroke-dasharray:none;stroke-opacity:1"
           d="m 123.95964,70.171241 -9.3524,16.198493 9.3524,16.197976 h 18.70377 l 1.52755,-2.645831 c 0,0 -15.31422,0.763841 -18.003,-0.418857 -2.68277,-1.180057 -8.63422,-11.981328 -8.50923,-14.702395 0.11949,-2.601195 7.39919,-14.629386 7.39919,-14.629386 z"
           sodipodi:nodetypes="cccccsscc" />
        <path
           id="path12"
           style="fill:#cccccc;stroke:none;stroke-width:0.264583;stroke-dasharray:none;stroke-opacity:1"
           d="m 96.007857,53.988765 -9.351884,16.198495 9.351884,16.197978 h 18.704283 l 1.52756,-2.645834 c 0,0 -15.17935,0.56338 -17.957701,-1.359264 -2.656431,-1.838275 -9.117404,-12.378094 -8.869226,-14.546511 0.244931,-2.140047 7.713362,-13.844864 7.713362,-13.844864 z"
           sodipodi:nodetypes="cccccsscc" />
        <path
           id="path11"
           style="fill:#cccccc;stroke:none;stroke-width:0.264583;stroke-dasharray:none;stroke-opacity:1"
           d="m 68.056591,70.171241 -9.351884,16.198493 9.351884,16.197976 h 18.703768 l 1.527555,-2.645831 c 0,0 -15.674187,1.633081 -18.446515,-0.840677 -2.317972,-2.06833 -8.027644,-12.688604 -7.805185,-14.705649 0.172457,-1.563675 7.138655,-14.204312 7.138655,-14.204312 z"
           sodipodi:nodetypes="cccccsscc" />
        <path
           id="path10"
           style="fill:#cccccc;stroke:none;stroke-width:0.264583;stroke-dasharray:none;stroke-opacity:1"
           d="m 40.104809,53.988765 -9.351884,16.198495 9.351884,16.197978 h 18.704285 l 1.527555,-2.645834 c 0,0 -15.3719,0.543154 -18.179313,-1.318883 -2.460369,-1.631859 -8.864872,-11.001096 -8.822653,-13.355697 0.0393,-2.191971 7.888404,-15.076059 7.888404,-15.076059 z"
           sodipodi:nodetypes="cccccsscc" />
        <path
           id="path9"
           style="fill:#cccccc;stroke:none;stroke-width:0.264583;stroke-dasharray:none;stroke-opacity:1"
           d="M 12.153543,70.171241 2.8016594,86.369734 12.153543,102.56771 h 18.704285 l 1.527556,-2.645831 c 0,0 -15.783212,1.277991 -18.482569,-0.701425 C 11.197487,97.236668 5.4782765,87.81562 5.7836688,85.468567 6.2654238,81.766104 13.271821,70.171241 13.271821,70.171241 Z"
           sodipodi:nodetypes="cccccsscc" />
        <path
           id="path8"
           style="fill:#cccccc;stroke:none;stroke-width:0.264583;stroke-dasharray:none;stroke-opacity:1"
           d="m -15.797722,53.988765 -9.351884,16.198495 9.351884,16.197978 H 2.9065626 l 1.5275551,-2.645834 c 0,0 -16.4958657,1.077107 -18.6877257,-0.891868 -2.356686,-2.11704 -8.115758,-11.785793 -8.251199,-13.622371 -0.207421,-2.812627 7.825363,-15.2364 7.825363,-15.2364 z"
           sodipodi:nodetypes="cccccsscc" />
        <path
           d="m 102.33922,77.026217 c -0.2441,0 -0.43589,-0.07849 -0.57538,-0.23538 -0.13948,-0.156926 -0.20922,-0.339993 -0.20922,-0.549222 V 64.524894 c 0,-0.209229 0.0698,-0.392297 0.20922,-0.549222 0.15693,-0.156917 0.34872,-0.23538 0.57538,-0.23538 0.22667,0 0.40974,0.07849 0.54923,0.23538 0.15692,0.156925 0.23537,0.339993 0.23537,0.549222 v 3.923011 l -0.39229,0.07849 c 0.0522,-0.610245 0.20051,-1.21178 0.4446,-1.804585 0.26153,-0.610244 0.61025,-1.168187 1.04614,-1.673818 0.43588,-0.505631 0.95024,-0.915368 1.54305,-1.22921 0.61024,-0.313844 1.29023,-0.47076 2.03997,-0.47076 0.31383,0 0.61896,0.06978 0.91536,0.209228 0.2964,0.122046 0.44461,0.331274 0.44461,0.627677 0,0.26154 -0.0698,0.462048 -0.20923,0.601534 -0.13948,0.139486 -0.30512,0.209219 -0.49692,0.209219 -0.15691,0 -0.33127,-0.04355 -0.52306,-0.130765 -0.17436,-0.0872 -0.40973,-0.130766 -0.70614,-0.130766 -0.4882,0 -0.9764,0.148206 -1.46459,0.444608 -0.4882,0.278971 -0.93281,0.662557 -1.33382,1.150748 -0.40102,0.488199 -0.72358,1.037422 -0.96769,1.647667 -0.22665,0.592805 -0.33999,1.194339 -0.33999,1.804584 v 6.459885 c 0,0.209229 -0.0785,0.392297 -0.23537,0.549223 -0.15692,0.156917 -0.34,0.23538 -0.54923,0.23538 z"
           style="font-size:106.667px;font-family:Quicksand;-inkscape-font-specification:'Quicksand, Normal';white-space:pre;fill:#1a1a1a;stroke-width:0.264583;stroke-dasharray:none;stroke:#000000"
           id="path1-3" />
        <path
           d="m 78.206109,94.35945 c 0,0.209228 -0.07849,0.392299 -0.235392,0.549225 -0.156913,0.156913 -0.33999,0.235379 -0.549212,0.235379 -0.226669,0 -0.418457,-0.07849 -0.575383,-0.235379 -0.139479,-0.156926 -0.209221,-0.339997 -0.209221,-0.549225 V 82.328887 c 0,-0.20922 0.06978,-0.392297 0.209221,-0.549213 0.156926,-0.156926 0.348714,-0.23538 0.575383,-0.23538 0.226662,0 0.409726,0.07849 0.549212,0.23538 0.156926,0.156916 0.235392,0.339993 0.235392,0.549213 z M 77.421505,79.792012 c -0.366154,0 -0.645119,-0.07849 -0.836913,-0.23538 -0.17436,-0.174356 -0.261531,-0.418457 -0.261531,-0.73229 v -0.26154 c 0,-0.313843 0.09589,-0.549223 0.287682,-0.70614 0.209228,-0.174356 0.488199,-0.261531 0.836913,-0.261531 0.331273,0 0.584093,0.0872 0.758453,0.261531 0.191788,0.156917 0.287682,0.392297 0.287682,0.70614 v 0.26154 c 0,0.313833 -0.09589,0.557934 -0.287682,0.73229 -0.17436,0.156927 -0.435897,0.23538 -0.784604,0.23538 z"
           style="font-size:106.667px;font-family:Quicksand;-inkscape-font-specification:'Quicksand, Normal';white-space:pre;fill:#1a1a1a;stroke-width:0.264583;stroke-dasharray:none;stroke:#000000"
           id="path1-8" />
        <path
           d="m 49.561667,60.968065 c 1.185619,0 2.231752,0.296403 3.138408,0.889217 0.924079,0.575373 1.656379,1.377406 2.196881,2.406108 0.540502,1.011263 0.810753,2.179451 0.810753,3.504554 0,1.325105 -0.270251,2.502004 -0.810753,3.530706 -0.540502,1.028702 -1.272802,1.839455 -2.196881,2.432269 -0.924087,0.592805 -1.96151,0.889207 -3.112257,0.889207 -0.610245,0 -1.194339,-0.0872 -1.752272,-0.261531 -0.540503,-0.191788 -1.037423,-0.444608 -1.490741,-0.758451 -0.453329,-0.313841 -0.854346,-0.679987 -1.20306,-1.098434 -0.348714,-0.435898 -0.627686,-0.906657 -0.836914,-1.412289 L 44.7756,70.749427 v 8.133704 c 0,0.209228 -0.07849,0.392306 -0.23538,0.549223 -0.139486,0.156917 -0.322563,0.235379 -0.549222,0.235379 -0.226669,0 -0.418457,-0.07849 -0.575374,-0.235379 -0.139486,-0.156917 -0.209228,-0.339995 -0.209228,-0.549223 v -17.05201 c 0,-0.22666 0.06978,-0.418448 0.209228,-0.575374 0.139485,-0.156917 0.331274,-0.23538 0.575374,-0.23538 0.226659,0 0.409736,0.07849 0.549222,0.23538 0.156917,0.156926 0.23538,0.348714 0.23538,0.575374 v 2.824566 l -0.366155,-0.209219 c 0.174357,-0.540512 0.427178,-1.019982 0.758452,-1.438439 0.348713,-0.435888 0.74973,-0.802043 1.203059,-1.098445 0.453319,-0.313843 0.950239,-0.549223 1.490741,-0.706139 0.540502,-0.156926 1.107155,-0.23538 1.69997,-0.23538 z m -0.130766,1.46459 c -0.941519,0 -1.769712,0.235381 -2.484572,0.706139 -0.714859,0.453319 -1.281513,1.081005 -1.69997,1.883038 -0.401017,0.784602 -0.601524,1.699979 -0.601524,2.746112 0,1.028702 0.200507,1.952781 0.601524,2.772255 0.418457,0.819473 0.985111,1.46459 1.69997,1.935349 0.71486,0.453329 1.543053,0.679988 2.484572,0.679988 0.924088,0 1.734842,-0.226659 2.432261,-0.679988 0.714859,-0.470759 1.281522,-1.115876 1.699969,-1.935349 0.418457,-0.819474 0.627686,-1.743553 0.627686,-2.772255 0,-1.028702 -0.209229,-1.944069 -0.627686,-2.746112 -0.418447,-0.802033 -0.98511,-1.429719 -1.699969,-1.883038 -0.697419,-0.470759 -1.508173,-0.706139 -2.432261,-0.706139 z"
           style="font-size:106.667px;font-family:Quicksand;-inkscape-font-specification:'Quicksand, Normal';white-space:pre;fill:#000000;stroke-width:0.264583;stroke-dasharray:none;stroke:#000000"
           id="path1-6" />
        <path
           id="path1-1"
           style="font-size:106.667px;font-family:Quicksand;-inkscape-font-specification:'Quicksand, Normal';white-space:pre;fill:#1a1a1a;stroke-width:0.264583;stroke-dasharray:none;stroke:#000000"
           d="M -6.4324021 63.347884 C -7.4785361 63.347884 -8.4726106 63.635507 -9.4141323 64.210881 C -10.338218 64.768822 -11.096636 65.57132 -11.689446 66.617452 C -12.26482 67.663584 -12.552442 68.927449 -12.552442 70.409469 C -12.552442 71.786883 -12.26482 72.989859 -11.689446 74.018551 C -11.114071 75.047252 -10.312089 75.849233 -9.2833909 76.424605 C -8.2546926 76.999979 -7.0690418 77.287602 -5.7265021 77.287602 C -4.7326742 77.287602 -3.817324 77.060867 -2.9804164 76.60754 C -2.1435098 76.13678 -1.4632984 75.587781 -0.94023089 74.960095 C -0.76587158 74.803178 -0.67874815 74.620003 -0.67874815 74.410775 C -0.67874815 74.236418 -0.74855431 74.079478 -0.8880377 73.940002 C -1.010087 73.800555 -1.1580997 73.730713 -1.332455 73.730713 C -1.5242464 73.730713 -1.7163392 73.809432 -1.9081305 73.966357 C -2.1522286 74.2802 -2.4571744 74.585144 -2.8233201 74.881547 C -3.1894677 75.160518 -3.6166991 75.387252 -4.1048956 75.561609 C -4.5930912 75.73594 -5.1426116 75.823092 -5.752857 75.823092 C -6.851298 75.823092 -7.8012938 75.579027 -8.603329 75.090837 C -9.3879295 74.602637 -9.989416 73.940265 -10.40787 73.103361 C -10.822776 72.273553 -11.031704 71.349277 -11.035222 70.33092 L -1.1495204 70.33092 C -0.94029439 70.33092 -0.75712002 70.261117 -0.60019997 70.121631 C -0.44327859 69.964705 -0.3561512 69.781538 -0.33871722 69.57231 C -0.37358724 68.561049 -0.56568056 67.671943 -0.91439268 66.904773 C -1.2456681 66.137613 -1.6986237 65.492561 -2.2739996 64.969491 C -2.8319372 64.428988 -3.4775053 64.027994 -4.2097988 63.766463 C -4.9246583 63.487492 -5.6652364 63.347884 -6.4324021 63.347884 z M -6.4324021 64.865104 C -5.7349792 64.865104 -5.0636875 65.013119 -4.4185716 65.309521 C -3.7734548 65.605932 -3.2244511 66.04208 -2.7711269 66.617452 C -2.3178017 67.192825 -2.0564216 67.889841 -1.9866786 68.709314 L -1.9866786 68.918604 L -10.916366 68.918604 C -10.846878 68.541408 -10.748223 68.192141 -10.61716 67.872673 C -10.338191 67.175245 -9.980764 66.608405 -9.5448736 66.172518 C -9.0915494 65.719189 -8.5945122 65.388009 -8.0540086 65.17878 C -7.4960712 64.969552 -6.9554691 64.865104 -6.4324021 64.865104 z " />
        <path
           d="m 17.648068,79.635095 c 1.081008,0 2.005094,0.287683 2.772261,0.863056 0.767163,0.557943 1.290231,1.394848 1.569202,2.510736 l -0.366147,0.104611 0.15692,-0.470769 c 0.226663,-0.523062 0.601527,-1.011261 1.124595,-1.46459 0.540503,-0.470759 1.150749,-0.845625 1.830737,-1.124596 0.679987,-0.278962 1.368693,-0.418448 2.066116,-0.418448 1.098444,0 1.97894,0.23538 2.641493,0.70614 0.679987,0.470759 1.168185,1.107165 1.464588,1.909198 0.313843,0.784605 0.470763,1.673807 0.470763,2.66764 v 7.401416 c 0,0.209228 -0.07846,0.392292 -0.23538,0.549218 -0.139485,0.15692 -0.322559,0.23538 -0.549222,0.23538 -0.226663,0 -0.418454,-0.07849 -0.575373,-0.23538 -0.139485,-0.156926 -0.209229,-0.33999 -0.209229,-0.549218 v -7.32295 c 0,-0.714862 -0.11333,-1.368691 -0.339994,-1.961501 -0.226663,-0.592817 -0.584091,-1.063577 -1.072289,-1.41229 -0.488194,-0.348715 -1.14203,-0.523063 -1.961502,-0.523063 -0.71486,0 -1.403567,0.174348 -2.066119,0.523063 -0.645118,0.348713 -1.176902,0.819473 -1.595355,1.41229 -0.401018,0.59281 -0.601528,1.246639 -0.601528,1.961501 v 7.32295 c 0,0.209228 -0.07846,0.392292 -0.235382,0.549218 -0.139484,0.15692 -0.322556,0.23538 -0.549219,0.23538 -0.226664,0 -0.418457,-0.07849 -0.575376,-0.23538 -0.139485,-0.156926 -0.209226,-0.33999 -0.209226,-0.549218 v -7.401416 c 0,-0.714849 -0.104614,-1.359974 -0.313842,-1.93535 -0.209225,-0.575373 -0.54922,-1.028702 -1.019981,-1.359975 -0.470762,-0.348715 -1.10716,-0.523063 -1.909197,-0.523063 -0.71486,0 -1.394847,0.174348 -2.039965,0.523063 -0.627682,0.331273 -1.142029,0.784602 -1.543048,1.359975 -0.383584,0.575376 -0.575377,1.220501 -0.575377,1.93535 v 7.401416 c 0,0.209228 -0.07846,0.392292 -0.23538,0.549218 -0.156919,0.15692 -0.339993,0.23538 -0.549221,0.23538 -0.244096,0 -0.435889,-0.07849 -0.575374,-0.23538 -0.139484,-0.156926 -0.209227,-0.33999 -0.209227,-0.549218 V 80.602766 c 0,-0.209229 0.06974,-0.392297 0.209227,-0.549223 0.156921,-0.156916 0.34871,-0.23538 0.575374,-0.23538 0.226663,0 0.409737,0.07849 0.549221,0.23538 0.156921,0.156926 0.23538,0.339994 0.23538,0.549223 v 2.432272 l -0.706139,0.967668 c 0.0523,-0.52306 0.217945,-1.046134 0.496914,-1.569196 0.296405,-0.523071 0.679987,-0.99383 1.15075,-1.412288 0.470761,-0.418456 1.002545,-0.74973 1.595354,-0.99383 0.610246,-0.261531 1.246644,-0.392297 1.909197,-0.392297 z"
           style="font-size:106.667px;font-family:Quicksand;-inkscape-font-specification:'Quicksand, Normal';white-space:pre;fill:#1a1a1a;stroke-width:0.264583;stroke-dasharray:none;stroke:#000000"
           id="path1-7" />
        <path
           style="font-size:106.667px;font-family:Quicksand;-inkscape-font-specification:'Quicksand, Normal';white-space:pre;fill:#1a1a1a;stroke-width:0.264583;stroke-dasharray:none;stroke:#000000"
           d="m 134.03067,93.339466 c -1.34254,0 -2.52815,-0.287688 -3.55686,-0.863064 -1.0287,-0.57537 -1.83073,-1.377408 -2.40611,-2.406109 -0.57537,-1.0287 -0.86306,-2.231748 -0.86306,-3.609169 0,-1.482019 0.28769,-2.746099 0.86306,-3.792234 0.59281,-1.046133 1.35126,-1.848176 2.27535,-2.406118 0.94152,-0.575374 1.93535,-0.863057 2.98149,-0.863057 0.76717,0 1.50817,0.139486 2.22303,0.418458 0.73229,0.261531 1.37741,0.662547 1.93535,1.203049 0.57538,0.523072 1.0287,1.168188 1.35998,1.93535 0.34871,0.76717 0.5405,1.656379 0.57537,2.667652 -0.0174,0.209228 -0.10461,0.392292 -0.26153,0.549218 -0.15692,0.139486 -0.33999,0.209222 -0.54922,0.209222 h -10.48751 l -0.31384,-1.412283 h 10.30443 l -0.34,0.313846 v -0.523074 c -0.0698,-0.819472 -0.33127,-1.516887 -0.7846,-2.092263 -0.45332,-0.575374 -1.00254,-1.011271 -1.64765,-1.307673 -0.64512,-0.296403 -1.31639,-0.444609 -2.01381,-0.444609 -0.52307,0 -1.06358,0.104614 -1.62152,0.313843 -0.5405,0.209229 -1.03741,0.540502 -1.49074,0.993831 -0.4359,0.435888 -0.79332,1.002544 -1.07229,1.699971 -0.27897,0.679987 -0.41844,1.490743 -0.41844,2.43226 0,1.028701 0.20921,1.961508 0.62767,2.798414 0.41845,0.836907 1.01998,1.499459 1.80459,1.987659 0.80203,0.488192 1.75228,0.732295 2.85071,0.732295 0.61025,0 1.15947,-0.0872 1.64767,-0.261537 0.48819,-0.174353 0.91537,-0.401022 1.28151,-0.679986 0.36615,-0.296412 0.67127,-0.601534 0.91537,-0.915367 0.1918,-0.156926 0.38358,-0.235386 0.57537,-0.235386 0.17436,0 0.32256,0.06978 0.44461,0.209229 0.13948,0.139485 0.20923,0.296411 0.20923,0.470758 0,0.209229 -0.0872,0.392306 -0.26153,0.549219 -0.52307,0.627684 -1.20306,1.17691 -2.03996,1.647668 -0.83692,0.453318 -1.75229,0.679987 -2.74612,0.679987 z"
           id="text6"
           aria-label="empire"
           sodipodi:nodetypes="ssssccscccccscccccssscscsscssccscsccs" />
        <g
           id="g20"
           inkscape:path-effect="#path-effect21"
           style="fill:none">
          <path
             sodipodi:type="star"
             style="fill:none;stroke:#000000;stroke-width:0.285514;stroke-dasharray:none;stroke-opacity:1"
             id="path5"
             inkscape:flatsided="true"
             sodipodi:sides="6"
             sodipodi:cx="32.976261"
             sodipodi:cy="42.684734"
             sodipodi:r1="20.183598"
             sodipodi:r2="17.479507"
             sodipodi:arg1="2.0943951"
             sodipodi:arg2="2.6179939"
             inkscape:rounded="0"
             inkscape:randomized="0"
             transform="matrix(0.92669184,0,0,0.92669184,74.801108,30.631538)"
             d="m 20.749704,56.68722 c -2.389026,-4.520924 -4.993933,-8.898969 -7.647124,-13.266502 1.580259,-2.837819 3.140133,-5.671199 4.725598,-8.536451 1.642809,-2.968886 3.318033,-5.95883 4.991625,-8.97142 4.913848,-0.06907 9.824258,-0.185863 14.627116,-0.355225 1.699574,-0.05993 3.431214,-0.09218 5.187054,-0.10459 0.852673,1.469283 1.728243,2.957346 2.619468,4.456984 M 27.17211,25.22196 c 4.960789,-0.06028 10.124824,-0.138495 15.326268,-0.297986 1.695479,2.735694 3.406327,5.437996 5.088873,8.090228 1.771869,2.793031 3.522039,5.771082 5.272959,8.834173 -2.434606,4.38673 -4.867675,8.947879 -7.233278,13.389784 -0.615319,1.155388 -1.236638,2.300322 -1.861966,3.437757 m 6.851395,-12.315547 c -2.749494,4.485199 -5.211669,9.028139 -7.512257,13.519668 -2.907321,-0.04867 -5.758708,-0.115136 -8.579767,-0.221626 -3.286518,-0.124061 -6.92353,-0.06774 -10.723902,0.09898 -2.623777,-3.913547 -5.531473,-7.635235 -8.294306,-11.32544 -1.131762,-1.51165 -2.174431,-3.132024 -3.153058,-4.831487 0.01926,-0.03352 0.03855,-0.06707 0.05786,-0.100654 m 6.216271,10.239506 c -2.265981,-3.772531 -4.361841,-7.568385 -6.359159,-11.3871 2.183864,-3.533516 4.4521,-7.086606 6.748,-10.658904 1.535065,-2.388481 2.95566,-4.72625 4.319531,-7.029874 5.730901,0.06562 11.208465,0.283735 16.977728,0.497953 1.043697,0.03875 2.080365,0.07267 3.11058,0.103522 3.060704,5.489264 5.893391,10.870031 8.619018,16.512772 M 29.08959,25.881493 c 4.950978,0.06228 9.768677,-0.02419 14.545888,-0.198756 1.703019,2.928765 3.384713,5.811134 5.08055,8.670302 1.537988,2.593034 3.109479,5.295983 4.687814,8.030485 -2.631609,4.438233 -5.245189,8.959586 -7.954724,13.229019 -0.800622,1.261546 -1.582003,2.5554 -2.34756,3.874888 -3.022843,-0.01866 -5.984145,0.06237 -8.91011,0.191898 M 51.072409,48.00335 c -2.301608,4.323359 -4.795799,8.575119 -7.312681,12.803473 -3.487906,-0.03232 -6.986921,-0.0761 -10.438844,-0.114829 -3.2726,-0.03672 -6.587431,-0.08165 -9.944662,-0.152069 -2.689182,-4.543125 -5.481995,-9.148532 -8.379083,-13.882186 -0.91066,-1.48796 -1.781298,-2.945897 -2.623704,-4.384272 0.422256,-0.792251 0.853078,-1.578568 1.290494,-2.360698 m 5.257148,14.048721 c -2.177505,-3.948349 -4.420644,-7.762302 -6.621514,-11.413716 1.977213,-3.017441 3.983292,-5.923884 6.079128,-8.70345 1.618773,-2.146869 3.144531,-4.630217 4.633755,-7.307138 5.504497,-0.256702 10.882243,-1.185009 16.498266,-1.861397 1.302639,-0.156888 2.588908,-0.255715 3.861283,-0.307225 0.38161,0.624353 0.758266,1.265581 1.130494,1.921394 M 29.122158,25.560792 c 4.698221,-0.0876 9.304699,-0.0807 13.839652,-0.05915 1.740308,3.229954 3.435662,6.469121 5.096138,9.677724 1.35078,2.610165 2.826125,5.202903 4.364942,7.77641 -2.634409,4.583497 -5.067477,9.10599 -7.644343,13.557283 -0.432386,0.746907 -0.866116,1.503236 -1.300536,2.267795 m 7.406887,-10.75525 C 48.497248,52.34411 46.035273,56.454032 43.567429,60.424839 40.074117,60.227247 36.577848,59.959553 33.10311,59.646608 29.865852,59.355052 26.600203,59.29732 23.309547,59.342305 20.662899,54.955249 17.953305,50.826738 15.19428,46.433199 14.347667,45.085032 13.526041,43.740402 12.723438,42.401447 15.104385,38.29913 17.663905,34.25008 20.230472,30.315777 m 12.584811,-5.110551 8.679227,0 m 3.947268,34.959017 -7.743439,0" />
          <path
             sodipodi:type="star"
             style="fill:none;stroke:#000000;stroke-width:0.285514;stroke-dasharray:none;stroke-opacity:1"
             id="path1"
             inkscape:flatsided="true"
             sodipodi:sides="6"
             sodipodi:cx="32.976261"
             sodipodi:cy="42.684734"
             sodipodi:r1="20.183598"
             sodipodi:r2="17.479507"
             sodipodi:arg1="2.0943951"
             sodipodi:arg2="2.6179939"
             inkscape:rounded="0"
             inkscape:randomized="0"
             transform="matrix(0.92669184,0,0,0.92669184,18.898221,30.631538)"
             d="m 21.441986,58.962817 c -3.133511,-5.429983 -6.112743,-11.005603 -8.892343,-16.659443 1.16148,-1.857587 2.34451,-3.723618 3.550698,-5.595701 2.705206,-4.198658 4.892018,-8.181611 6.908003,-12.103593 3.490288,0.08661 6.870221,0.212603 10.320263,0.297647 2.756356,0.06794 5.721307,0.07247 8.806987,0.03936 1.670938,2.681676 3.474924,5.321862 5.310312,7.950367 M 22.89889,25.807079 c 6.654305,-0.05303 13.185299,-0.144728 19.703863,-0.377087 0.876899,1.491332 1.752878,2.97224 2.630172,4.440667 2.410762,4.035171 4.867281,8.258402 7.313669,12.427356 -1.744169,2.924453 -3.493324,5.822197 -5.266755,8.609583 -1.674685,2.632182 -3.294674,5.438622 -4.877797,8.328747 -0.634029,0.01188 -1.266626,0.02702 -1.897928,0.04471 M 52.05221,43.476824 c -3.303213,5.662696 -6.62005,11.126435 -9.9315,16.243901 -1.757088,-0.16581 -3.513797,-0.355963 -5.269773,-0.573204 -4.963392,-0.614046 -9.879631,-0.312087 -14.741071,0.260619 -1.63714,-2.570229 -3.248276,-5.011983 -4.830909,-7.536181 -1.527661,-2.436521 -3.130828,-5.210678 -4.751907,-8.124718 1.316415,-2.278774 2.621876,-4.643089 3.943925,-6.99838 m 4.799204,19.596227 c -2.615351,-4.558628 -5.39851,-9.147234 -8.214417,-13.5595 1.420863,-2.380755 2.832191,-4.710171 4.255203,-6.955835 1.833105,-2.892836 3.743502,-6.159553 5.694626,-9.563469 4.67515,-0.150475 9.410514,-0.503796 14.140359,-0.634473 2.17974,-0.06022 4.321107,-0.08106 6.435235,-0.07418 1.063273,1.863081 2.098769,3.754423 3.117952,5.662004 M 26.82684,25.896307 c 5.55763,-0.113335 11.077265,-0.09863 16.631835,-0.09766 1.470135,2.500137 2.94988,4.996496 4.449757,7.468622 1.996258,3.290272 3.937147,6.634751 5.871301,10.009817 -2.259902,3.998823 -4.529257,8.040583 -6.727176,12.085996 -0.834501,1.535953 -1.686582,3.052998 -2.552499,4.556042 M 50.962555,46.13271 c -2.810485,4.941908 -5.525619,9.611339 -8.146731,14.108536 -2.678526,-0.181674 -5.334176,-0.405254 -7.967108,-0.65871 -3.759123,-0.361866 -7.759905,-0.405786 -11.869968,-0.371954 -2.390286,-3.804141 -4.917966,-7.510528 -7.39642,-11.457772 -1.280119,-2.038746 -2.478493,-4.033467 -3.625295,-5.996272 0.411363,-0.70541 0.829387,-1.406698 1.252671,-2.104426 m 6.766078,16.018746 C 17.55351,51.69312 15.239319,47.572314 12.992016,43.447451 c 1.915792,-3.144094 3.870445,-6.290545 5.845717,-9.377791 1.686968,-2.636643 3.281783,-5.337513 4.840507,-8.083394 5.309606,-0.105858 10.513899,-0.343056 15.892329,-0.615802 1.456805,-0.07388 2.905098,-0.120999 4.346937,-0.147838 2.460751,4.124481 4.847112,8.482713 7.239501,12.821603 M 27.880583,24.987713 c 5.142834,-0.0026 10.10226,0.08272 14.956213,0.251463 1.514184,2.981737 2.983325,5.999105 4.429173,9.050859 1.487933,3.14058 3.164175,6.057689 4.920826,8.843511 -2.416635,4.066545 -4.661935,7.853344 -7.071517,11.647129 -0.84514,1.330637 -1.701224,2.740033 -2.564618,4.204589 -5.936468,-0.165379 -11.958326,0.313608 -17.920439,0.494686 M 52.312648,44.715205 c -2.692921,4.993778 -5.635494,10.095025 -8.590739,15.351848 -2.702662,0.137185 -5.408056,0.307922 -8.092449,0.51703 -4.103871,0.319681 -8.273938,0.353098 -12.535612,0.324975 -2.369509,-3.776075 -4.842632,-7.621756 -7.449939,-11.266719 -1.4479,-2.024136 -2.739536,-4.080179 -3.935775,-6.154227 2.757511,-4.742587 6.013818,-9.579321 9.041169,-14.343999 m 23.263604,-2.302363 4.023469,6.968852 m -15.301875,-8.605376 10.25995,0" />
          <path
             sodipodi:type="star"
             style="fill:none;stroke:#000000;stroke-width:0.285514;stroke-dasharray:none;stroke-opacity:1"
             id="path2"
             inkscape:flatsided="true"
             sodipodi:sides="6"
             sodipodi:cx="32.976261"
             sodipodi:cy="42.684734"
             sodipodi:r1="20.183598"
             sodipodi:r2="17.479507"
             sodipodi:arg1="2.0943951"
             sodipodi:arg2="2.6179939"
             inkscape:rounded="0"
             inkscape:randomized="0"
             transform="matrix(0.92669184,0,0,0.92669184,46.849592,46.813996)"
             d="m 19.365192,53.593768 c -2.435834,-4.133074 -4.720972,-8.096966 -6.974444,-12.02222 1.932703,-3.228418 3.886827,-6.430698 5.796148,-9.679472 1.483505,-2.524232 3.006012,-5.037912 4.571804,-7.532296 5.62721,0.09866 11.403058,0.263575 17.354795,0.550378 1.393736,0.06716 2.740285,0.11075 4.047729,0.135462 1.3813,2.33304 2.595977,4.585644 3.715126,6.799104 M 29.152731,25.87474 c 4.754421,0.05586 9.415229,0.06277 14.087678,0.07007 1.900663,3.252836 3.808925,6.505922 5.780305,9.785272 1.566183,2.605313 3.031651,5.137818 4.425449,7.607121 -2.880838,4.48861 -5.998492,8.768382 -9.178506,12.897009 -0.771406,1.00152 -1.500241,2.053219 -2.194963,3.145143 -4.737891,-0.159657 -9.056507,0.175099 -13.320312,0.575504 M 49.92595,47.969036 c -2.576064,4.290509 -4.870662,8.446381 -7.019231,12.528671 -3.295489,-0.10549 -6.515713,-0.248905 -9.710785,-0.407653 -2.936192,-0.145885 -6.158665,-0.189559 -9.540721,-0.194919 -2.842634,-4.48696 -6.096361,-8.875225 -9.23734,-13.428991 -0.945549,-1.370849 -1.819416,-2.724668 -2.638809,-4.063728 2.5828,-4.690713 5.834041,-9.200313 9.014024,-13.626378 m -0.831635,25.470739 c -2.150982,-3.66858 -4.264423,-7.330508 -6.367766,-10.991532 2.091198,-3.600688 4.192163,-7.200501 6.276786,-10.804911 1.286886,-2.225087 2.560523,-4.470021 3.822022,-6.73539 5.77404,-0.09396 11.485624,-0.293066 17.147711,-0.60414 0.877539,-0.04821 1.759498,-0.08628 2.644994,-0.115867 3.234989,5.606021 6.66633,11.683203 9.927461,17.545335 -0.136227,0.230355 -0.272717,0.460378 -0.409492,0.690027 M 28.825399,24.626805 c 4.789023,-0.03958 9.768392,-0.01947 14.7832,0.01671 1.780822,3.015348 3.578978,6.038551 5.34148,9.054683 1.671966,2.861201 3.28627,5.765141 4.858658,8.722623 -2.660842,4.621257 -5.424026,9.373243 -8.22947,14.297175 -0.882596,1.549075 -1.726761,3.032112 -2.541098,4.466131 -5.490323,0.134468 -10.637771,-0.294517 -15.7776,-0.623661 M 51.236665,45.949351 c -2.699189,4.691361 -5.380551,9.413839 -8.031408,14.168877 -2.938635,0.03414 -5.8681,0.07806 -8.786309,0.132006 -3.690744,0.06823 -7.486415,0.05611 -11.347734,0.0051 C 20.624729,56.177634 18.078297,52.040724 15.505705,47.922531 14.344818,46.06419 13.261287,44.229019 12.233619,42.408492 15.366095,37.050226 18.982495,31.818814 22.534844,26.496861 M 22.425363,57.67807 c -3.036359,-5.289888 -6.335866,-10.561392 -9.901394,-15.869761 0.957223,-2.029825 1.875549,-4.06504 2.754817,-6.108735 1.669883,-3.881327 4.03969,-7.605643 6.666101,-11.225307 4.368165,0.178275 8.946206,0.442145 13.406203,0.752878 3.06828,0.213771 5.896549,0.254086 8.589481,0.189104 1.474211,2.575831 2.780102,5.020703 4.062855,7.429154 M 24.158077,24.404058 c 6.208416,-0.156464 12.49644,-0.05988 18.716092,0.02438 1.024121,1.844012 2.04065,3.686656 3.044112,5.518114 2.216189,4.044854 4.587627,8.15877 7.022812,12.371723 -1.7838,3.422441 -3.525531,6.910239 -5.274247,10.479465 -0.54268,1.107638 -1.095077,2.182754 -1.654848,3.23099 m 6.335353,-13.088043 c -3.424664,5.410001 -6.535523,11.377462 -9.659525,17.541591 -1.876788,0.163232 -3.75472,0.343573 -5.642183,0.531765 -4.758227,0.474424 -9.640174,0.337998 -14.587867,0.0589 -1.884971,-3.30409 -3.806174,-6.686805 -5.739891,-9.956606 -1.704372,-2.881994 -3.278252,-5.641102 -4.775738,-8.342365 1.095735,-1.789102 2.22498,-3.552829 3.37202,-5.310078 m 8.515687,-12.258668 9.147121,0 m 16.256357,24.280452 -4.130958,7.155029" />
          <path
             sodipodi:type="star"
             style="fill:none;stroke:#000000;stroke-width:0.285514;stroke-dasharray:none;stroke-opacity:1"
             id="path3"
             inkscape:flatsided="true"
             sodipodi:sides="6"
             sodipodi:cx="32.976261"
             sodipodi:cy="42.684734"
             sodipodi:r1="20.183598"
             sodipodi:r2="17.479507"
             sodipodi:arg1="2.0943951"
             sodipodi:arg2="2.6179939"
             inkscape:rounded="0"
             inkscape:randomized="0"
             transform="matrix(0.92669184,0,0,0.92669184,-9.0531396,46.813996)"
             d="m 21.600041,58.267269 c -2.972565,-5.205776 -6.04005,-10.411021 -9.184377,-15.665489 1.145033,-2.128873 2.277452,-4.265827 3.398461,-6.41417 1.996842,-3.826824 4.132398,-7.529215 6.283878,-11.183381 4.081353,0.07341 8.177011,0.190138 12.182411,0.285302 2.042034,0.04852 4.109949,0.08759 6.196427,0.126002 m -15.99492,-0.271347 c 5.946456,-0.190834 12.212003,-0.01567 18.637095,0.231452 1.313378,2.120265 2.650571,4.251272 4.002378,6.376062 2.538135,3.989477 4.740679,7.73407 6.889205,11.388661 -2.043917,3.33272 -4.132755,6.590594 -6.052978,9.891077 -1.306933,2.24636 -2.704033,4.597097 -4.173838,7.016592 -1.724519,0.03646 -3.475996,0.09842 -5.250487,0.177821 M 51.519389,44.962026 c -2.914001,5.337961 -5.828717,10.523266 -8.512986,15.62638 -2.137947,-0.07106 -4.243931,-0.153527 -6.306014,-0.24375 -4.031958,-0.176411 -8.566642,-0.220611 -13.248596,-0.280622 -2.175112,-3.466792 -4.465706,-6.945983 -6.624955,-10.540355 -1.526208,-2.540588 -2.991356,-4.952953 -4.439619,-7.278892 2.594921,-4.511416 5.253363,-8.697694 7.65297,-12.86383 m 0.396174,27.624062 c -2.529667,-4.530462 -5.176167,-9.142134 -7.838531,-13.833494 1.550601,-2.830016 3.095428,-5.68903 4.656648,-8.576709 1.766263,-3.266933 3.559669,-6.407555 5.370107,-9.515522 4.855357,-0.02052 9.741763,0.01849 14.634332,-0.113495 1.93399,-0.05217 3.864307,-0.07846 5.795446,-0.087 1.01407,1.702477 2.029023,3.424025 3.049871,5.155574 M 26.838698,24.314931 c 5.171445,-0.01548 10.467844,0.0031 15.773853,0.03827 1.582534,2.723544 3.16844,5.452924 4.733745,8.184522 1.809192,3.157201 3.62807,6.346697 5.460816,9.586505 -2.354233,4.298722 -4.684052,8.686021 -6.979692,13.203983 -0.931428,1.83311 -1.873667,3.60288 -2.82021,5.333721 -2.119829,0.05432 -4.244918,0.06107 -6.36648,0.05322 M 50.533373,46.146502 c -2.693218,4.616975 -5.168717,9.313961 -7.468764,14.111833 -2.870032,0.113873 -5.681238,0.261571 -8.441824,0.447147 -3.276542,0.220261 -6.885797,0.2631 -10.614717,0.254452 -2.471444,-4.117602 -5.144676,-8.322026 -7.553177,-12.337511 -1.008905,-1.68206 -2.017918,-3.380799 -3.029763,-5.089879 2.102555,-3.687874 4.191924,-7.423895 6.240747,-11.144371 m 2.755521,26.109434 C 19.609216,53.225062 16.450599,48.2375 13.148111,43.284399 c 1.097664,-2.099722 2.169473,-4.193251 3.230859,-6.299672 1.797638,-3.567583 3.944538,-7.24465 6.197715,-10.959454 4.298724,-0.05052 8.700367,-0.137583 12.973366,-0.192816 2.632888,-0.03403 5.245816,-0.06295 7.857896,-0.09616 2.242783,3.691099 4.483152,7.370007 6.812835,10.991612 M 23.386435,24.593239 c 6.417616,0.04064 12.699712,0.02749 18.993937,0.03316 1.017044,1.784278 2.035369,3.570545 3.060049,5.361295 2.324837,4.06293 4.78724,8.128127 7.379455,12.212622 -1.65647,3.256769 -3.230411,6.525807 -4.725754,9.815746 -1.206635,2.654747 -2.661592,5.258357 -4.251748,7.830608 -2.573652,-0.02473 -5.240947,-0.07119 -7.936675,-0.127962 M 52.809531,42.900859 c -3.46036,5.540525 -6.422694,11.183926 -9.259493,16.750383 -1.758429,-0.02067 -3.506399,-0.04775 -5.252867,-0.08557 -4.506254,-0.09757 -9.455409,0.06979 -14.504639,0.405889 -1.918785,-2.823831 -3.891047,-5.557498 -5.782871,-8.23858 -1.699202,-2.4081 -3.300686,-5.105907 -4.850864,-7.943052 1.690635,-2.936715 3.436239,-6.02272 5.185341,-9.091248 m 25.547344,-8.067248 4.029792,6.979804 m -5.636539,26.553003 -7.579043,0" />
          <path
             sodipodi:type="star"
             style="fill:none;stroke:#000000;stroke-width:0.285514;stroke-dasharray:none;stroke-opacity:1"
             id="path4"
             inkscape:flatsided="true"
             sodipodi:sides="6"
             sodipodi:cx="32.976261"
             sodipodi:cy="42.684734"
             sodipodi:r1="20.183598"
             sodipodi:r2="17.479507"
             sodipodi:arg1="2.0943951"
             sodipodi:arg2="2.6179939"
             inkscape:rounded="0"
             inkscape:randomized="0"
             transform="matrix(0.92669184,0,0,0.92669184,-37.0045,30.631538)"
             d="m 21.417332,56.554951 c -2.757145,-4.459429 -5.534746,-9.157003 -8.42837,-13.879895 1.395396,-2.682017 2.753377,-5.372199 4.056441,-8.03157 1.582078,-3.228799 3.466905,-6.465294 5.501372,-9.727851 4.945859,-0.08616 10.134978,-0.214677 15.250011,-0.423631 1.333717,-0.05448 2.626452,-0.0876 3.885092,-0.102824 m -15.501283,1.547631 c 5.371789,-0.0948 10.980995,-0.207415 16.626127,-0.460851 1.49089,2.346555 2.991402,4.655396 4.473609,6.909477 2.003304,3.046546 3.939455,6.387274 5.852155,9.829152 -2.287363,4.028763 -4.606856,8.19611 -6.88839,12.192472 -1.109797,1.943934 -2.220994,3.867943 -3.335263,5.779777 -5.846874,0.01356 -11.71516,-0.0577 -17.635651,-0.07129 M 52.062415,43.924242 c -3.107034,5.513552 -6.032604,10.915123 -8.727574,16.340544 -1.968995,-0.002 -3.911694,-0.0013 -5.826203,0.0074 -4.16737,0.01886 -8.915738,0.0077 -13.842588,-0.01791 -2.151533,-3.297194 -4.423258,-6.604057 -6.592738,-9.911912 -1.688775,-2.574912 -3.190033,-5.136509 -4.583375,-7.694371 2.3282,-3.838425 4.899418,-7.668442 7.444664,-11.522427 m 0.203927,23.103312 c -2.276717,-3.897913 -4.611587,-7.861797 -7.027809,-11.887625 1.80106,-3.471324 3.541635,-6.988704 5.206851,-10.549561 1.218915,-2.606499 2.557203,-5.11237 3.945003,-7.566614 5.483519,0.01601 11.155653,0.228684 16.496979,0.273701 1.133964,0.0096 2.287584,0.02287 3.458219,0.04046 0.227736,0.406466 0.458082,0.813587 0.690878,1.221396 M 29.351928,25.221946 c 4.551932,-0.06053 9.224847,0.02972 13.946367,0.215872 1.954214,3.407062 3.940478,6.877365 5.920036,10.381527 1.562905,2.766615 3.060831,5.36068 4.522722,7.856217 -2.753051,4.560805 -5.626458,8.792522 -8.443527,13.147 -0.676689,1.04599 -1.351817,2.123996 -2.027246,3.228026 -4.36906,-0.08059 -8.741384,0.120943 -13.183422,0.390724 M 50.706645,48.252804 c -2.54756,4.291579 -4.968908,8.336649 -7.3999,12.24819 C 39.724071,60.305525 36.136117,60.036947 32.487844,59.74103 29.256438,59.478926 26.078376,59.439911 22.92337,59.512626 20.315323,55.101164 17.7705,50.996081 15.151366,46.691703 14.403154,45.462065 13.649609,44.209321 12.890719,42.93971 15.591463,38.280991 18.220234,33.395149 20.7764,28.590338 m -0.665903,27.2744 c -2.413066,-4.365595 -4.795623,-8.704094 -7.07032,-13.081865 1.855046,-3.016079 3.761288,-6.050799 5.744022,-9.125864 1.915211,-2.970341 3.569271,-5.868737 5.084776,-8.745801 4.876053,-0.02197 9.423935,0.0066 14.09052,-0.09884 1.504775,-0.03399 3.071805,-0.04618 4.685527,-0.04042 0.285019,0.512381 0.576064,1.027077 0.872411,1.543911 M 27.751317,25.30617 c 5.01775,-0.103701 10.175378,-0.08455 15.454221,-0.05309 1.837894,2.924747 3.729513,5.854946 5.669351,8.757974 1.952461,2.921921 3.665857,5.839528 5.269758,8.752264 -2.633297,4.331087 -5.508687,8.651404 -8.200181,12.959117 -0.916962,1.467591 -1.802019,2.939987 -2.662829,4.415585 -0.788385,-0.0023 -1.571649,-0.0039 -2.350536,-0.005 M 51.386463,46.658633 c -2.519719,4.512565 -5.191947,8.927111 -7.988717,13.358942 -3.465375,0.0165 -6.983183,0.04028 -10.545783,0.102829 -3.697585,0.06492 -7.157764,0.131632 -10.516012,0.23294 -2.384394,-4.154342 -4.554634,-8.235998 -6.923279,-12.145065 -0.669368,-1.104685 -1.345913,-2.252883 -2.026953,-3.435373 m 2.321682,-7.136645 4.971903,-8.611589 m 21.471841,-5.407588 4.908674,8.502072" />
          <path
             sodipodi:type="star"
             style="fill:none;stroke:#000000;stroke-width:0.285514;stroke-dasharray:none;stroke-opacity:1"
             id="path6"
             inkscape:flatsided="true"
             sodipodi:sides="6"
             sodipodi:cx="32.976261"
             sodipodi:cy="42.684734"
             sodipodi:r1="20.183598"
             sodipodi:r2="17.479507"
             sodipodi:arg1="2.0943951"
             sodipodi:arg2="2.6179939"
             inkscape:rounded="0"
             inkscape:randomized="0"
             transform="matrix(0.92669184,0,0,0.92669184,102.75263,46.813996)"
             d="m 21.364803,58.516693 c -3.016171,-5.260451 -5.869476,-10.511734 -8.558347,-15.816197 1.30753,-2.076177 2.64025,-4.160502 3.998256,-6.256712 2.51345,-3.87975 4.605551,-7.70976 6.54569,-11.570601 3.800469,-0.07199 7.47189,-0.170166 11.22508,-0.357574 2.520106,-0.125836 5.162364,-0.133506 7.870081,-0.06176 1.421129,2.527561 2.914116,5.142304 4.413752,7.799657 M 23.864794,26.200311 c 6.055053,0.162747 12.480019,0.03476 19.016615,-0.118224 1.201851,1.831515 2.417405,3.659962 3.635554,5.496769 2.546896,3.840383 4.841576,7.653002 7.122732,11.3506 -1.916245,3.121416 -3.842128,6.160864 -5.634057,9.065852 -1.346035,2.182127 -2.780966,4.598789 -4.269957,7.137274 -5.238883,0.07004 -10.650364,0.529022 -16.035702,0.73394 M 53.202266,41.99135 c 0.12211,0.210291 0.244057,0.420147 0.36585,0.629582 -3.27216,5.942423 -6.668591,11.545404 -9.991545,17.086327 C 42.16077,59.646794 40.748262,59.583547 39.340926,59.52015 34.101354,59.284122 28.719704,59.339854 23.271457,59.405082 21.64223,56.76735 19.9904,54.132842 18.330892,51.445744 16.376761,48.281589 14.574077,45.224099 12.847608,42.26516 c 1.33753,-2.070205 2.712368,-4.092169 4.098746,-6.068669 m 5.045423,23.550443 c -3.407244,-5.496728 -6.547033,-11.23168 -9.705829,-16.9613 0.970641,-1.663689 1.93968,-3.326929 2.900103,-4.983757 2.462305,-4.24773 4.83539,-8.470748 7.162861,-12.724335 3.485109,-0.04552 6.945636,-0.107515 10.398832,-0.207851 3.085608,-0.08966 6.246633,-0.127687 9.444916,-0.152444 2.619554,4.43087 5.337632,8.896843 7.990126,13.233004 M 21.465235,27.606315 c 0.324271,-0.519163 0.646792,-1.042496 0.967798,-1.569703 6.845418,0.10865 13.512707,-0.238446 20.302808,-0.663534 0.530262,0.835968 1.063465,1.670067 1.600726,2.503699 2.934131,4.55269 5.769239,9.627469 8.627664,14.715372 -1.346029,2.421509 -2.686777,4.84599 -4.009054,7.218574 -1.964723,3.525335 -3.92971,7.058704 -5.863936,10.628152 -2.757909,0.06068 -5.500783,0.138999 -8.218022,0.244531 M 52.145746,39.611184 c 0.558039,0.921089 1.108022,1.839016 1.651604,2.754506 -3.231994,5.88767 -6.728686,11.674578 -10.049511,17.55395 -0.611517,0.0048 -1.221561,0.01045 -1.829797,0.01698 -6.04066,0.06487 -12.268331,0.13309 -18.568337,0.310346 -1.210323,-1.908965 -2.430716,-3.80275 -3.655223,-5.675864 -2.387758,-3.652529 -4.687643,-7.629301 -7.037532,-11.764009 1.069387,-2.108208 2.125774,-4.257477 3.150884,-6.425759 m 7.599637,24.002902 C 20.095463,54.877646 16.725697,48.777361 13.237045,42.406582 c 0.856341,-1.775914 1.703444,-3.572848 2.539985,-5.3838 2.240901,-4.851122 4.692446,-8.935124 7.142672,-12.875503 3.494534,0.215607 6.988396,0.50427 10.40469,0.639793 3.161893,0.125431 6.358102,0.180602 9.557086,0.221726 0.663596,1.191955 1.327681,2.381439 1.989926,3.572599 m -21.174822,-2.84035 c 6.486674,-0.221892 13.254867,-0.125105 20.016585,-0.12599 0.908775,1.517017 1.817099,3.027229 2.719675,4.522979 2.563474,4.24819 4.95089,8.55771 7.241149,12.865597 -1.844342,2.95841 -3.734504,5.91605 -5.644932,8.852528 -1.850912,2.844997 -3.524554,5.698474 -5.112924,8.549976 -1.16695,-0.0056 -2.322862,-0.01152 -3.472023,-0.01815 M 52.099287,43.771634 c -3.156131,5.919989 -6.362469,11.661219 -9.233091,17.43567 -1.560902,-0.0086 -3.100691,-0.01513 -4.613282,-0.01622 -4.537481,-0.0033 -9.770563,-0.10425 -15.148274,-0.306352 -1.893787,-3.032863 -3.85122,-6.110225 -5.71146,-9.233083 -1.649139,-2.768477 -3.202545,-5.381688 -4.721773,-7.914628 m 16.501135,-18.531792 8.868913,0 m 5.081088,0.09437 4.858091,8.41446" />
          <path
             sodipodi:type="star"
             style="fill:none;stroke:#000000;stroke-width:0.285514;stroke-dasharray:none;stroke-opacity:1"
             id="path7"
             inkscape:flatsided="true"
             sodipodi:sides="6"
             sodipodi:cx="32.976261"
             sodipodi:cy="42.684734"
             sodipodi:r1="20.183598"
             sodipodi:r2="17.479507"
             sodipodi:arg1="2.0943951"
             sodipodi:arg2="2.6179939"
             inkscape:rounded="0"
             inkscape:randomized="0"
             transform="matrix(0.92669184,0,0,0.92669184,130.70415,30.631554)"
             d="m 20.975428,57.00848 c -2.766311,-4.486982 -5.479046,-9.034558 -8.312191,-13.593075 1.447578,-2.74988 2.851338,-5.503742 4.173089,-8.250685 1.495343,-3.107714 3.314501,-6.230971 5.3005,-9.377143 5.092398,-0.0721 10.48895,-0.185983 15.803279,-0.359785 2.100709,-0.0687 4.09668,-0.105571 6.01801,-0.121348 2.997609,5.061131 5.279924,10.324387 7.739908,15.471063 M 25.679171,25.614843 c 5.937332,-0.05849 11.706268,-0.01445 17.341949,0.04977 1.121423,2.17089 2.219493,4.345316 3.296787,6.517238 1.850338,3.730445 4.006081,7.310696 6.255726,10.777752 -1.950118,3.376302 -3.811184,6.645256 -5.778524,9.841032 -1.229084,1.996544 -2.470378,4.161257 -3.705669,6.424332 -1.006393,0.009 -2.011834,0.03363 -3.015177,0.06941 m 12.24684,-15.18551 c -2.990455,5.065696 -5.950392,10.362381 -8.906364,15.763142 -2.440332,0.10464 -4.879993,0.226922 -7.320834,0.357988 -4.27097,0.229338 -8.65452,0.167581 -13.142096,-0.0066 -2.254164,-3.728233 -4.60429,-7.560132 -7.042798,-11.337356 -1.551393,-2.40309 -2.92219,-4.716894 -4.182959,-6.981946 0.610057,-1.019616 1.242409,-2.029353 1.890621,-3.032908 m 7.608267,18.913368 c -3.137012,-5.303339 -5.994062,-10.207324 -8.847877,-14.999038 1.284803,-2.019935 2.570181,-4.01992 3.835404,-6.021459 2.156345,-3.411262 4.358353,-7.158945 6.635095,-11.044106 4.306516,-0.2088 8.684728,-0.549493 13.161953,-0.835137 2.775861,-0.177098 5.425872,-0.227317 8.007157,-0.20029 0.256561,0.447526 0.51042,0.898089 0.762021,1.351303 m -20.208659,-0.5354 c 5.783534,0.101305 11.806532,-0.102163 17.849029,-0.454364 1.275457,1.983107 2.554265,3.940659 3.820757,5.883769 2.199395,3.374414 4.407924,7.145357 6.674168,11.062301 -1.934776,3.783243 -3.81571,7.70269 -5.599031,11.532599 -1.126214,2.418689 -2.393904,4.709898 -3.751995,6.921126 -3.204277,-0.05309 -6.539717,-0.222226 -9.917063,-0.424389 M 53.18988,43.874676 c -3.033234,5.440464 -6.129579,10.823311 -9.229753,16.344185 -2.254173,0.07262 -4.508857,0.163644 -6.761165,0.282603 -4.500081,0.237678 -9.043411,0.13841 -13.642313,-0.09496 -2.055069,-3.589045 -4.152384,-7.280033 -6.300111,-10.938523 -1.548471,-2.637702 -3.02413,-5.145776 -4.474183,-7.590543 1.232718,-2.202209 2.486213,-4.35305 3.725982,-6.500999 m 4.879896,24.236192 c -3.236396,-5.222063 -6.093281,-11.037496 -8.741794,-17.099015 1.226109,-2.054739 2.476161,-4.137756 3.743491,-6.235522 2.747175,-4.547303 5.000373,-8.44952 7.160602,-12.21359 3.672432,0.183594 7.281893,0.460761 11.051928,0.548901 2.923986,0.06836 5.809055,0.105132 8.65028,0.135435 1.969272,3.696911 3.848193,7.380494 5.622186,11.125059 M 23.182694,25.738355 c 0.01986,-0.03512 0.03972,-0.07026 0.05959,-0.105416 6.579207,0.137065 13.225703,-0.119742 19.647905,-0.489158 0.736411,1.314029 1.459816,2.621529 2.166146,3.926426 2.227016,4.114265 4.847412,8.761613 7.500125,13.596664 -1.579068,3.109766 -3.144768,6.297178 -4.793164,9.470346 -1.222429,2.353179 -2.448982,4.519117 -3.680426,6.558953 m 8.801826,-17.071934 c 0.04584,0.08434 0.09177,0.168729 0.137774,0.253158 -3.527093,5.874053 -6.666151,11.953362 -9.754481,18.316877 -1.500789,0.124909 -2.998834,0.265193 -4.498379,0.421848 -4.947368,0.516841 -10.179077,0.350727 -15.451258,0.08894 -1.683367,-2.961118 -3.382575,-5.959685 -5.037907,-8.851889 -0.840245,-1.46808 -1.664136,-2.925396 -2.47414,-4.37747 m 10.452042,-22.270471 9.020663,0 m 10.797278,29.74861 -3.966563,6.870288" />
        </g>
        <path
           d="m 169.09535,69.214057 c -0.35849,-3.128415 -1.29359,-6.07104 -2.90986,-8.396696 -1.38625,-2.019138 -3.55379,-3.336126 -5.6728,-2.748339 -2.32736,0.616655 -4.09865,3.007981 -5.2311,5.607679 -0.0924,0.212048 -0.18042,0.425533 -0.26412,0.639628 -1.15445,2.968344 -1.68083,6.273036 -1.68258,9.517417 0.25925,1.125631 1.24169,1.510831 1.99728,1.876388 2.7132,1.034298 5.59154,1.059089 8.35096,0.605302 0.40723,-0.08931 0.8214,-0.17919 1.23373,-0.287035 1.16562,-0.304861 2.34114,-0.734562 3.33095,-1.689053 0.24226,-0.268006 0.4727,-0.636478 0.47207,-1.078546 -0.007,-1.541503 -0.0953,-3.095197 -0.29164,-4.602259 m -0.5249,-2.150438 c -0.59676,-2.353952 -1.46209,-4.568812 -2.69916,-6.429582 -1.36067,-2.071923 -3.44301,-3.452267 -5.48665,-2.941323 -2.41809,0.57346 -4.1442,3.193586 -5.14679,5.873257 -0.14592,0.392262 -0.28051,0.790465 -0.4041,1.193473 -0.76092,2.481179 -1.09909,5.313531 -1.04734,8.191542 0.28062,1.158517 1.27911,1.584947 2.05427,1.993378 2.77277,1.17844 5.72993,1.411328 8.61722,1.16713 1.08081,-0.147346 2.21075,-0.294076 3.25986,-0.732111 0.53647,-0.223995 1.04844,-0.524331 1.51781,-0.938385 0.25151,-0.254862 0.48993,-0.609019 0.49609,-1.039932 0.002,-0.190548 0.003,-0.381685 0.001,-0.573292 m -11.81523,3.426223 c 2.05337,0.419854 4.21723,0.378891 6.37542,0.08651 1.64633,-0.308317 3.4233,-0.612822 4.87026,-1.904927 0.26401,-0.269014 0.51632,-0.636843 0.54059,-1.082836 0.18609,-3.609738 -0.0802,-7.377218 -1.12971,-10.597417 -0.30079,-0.92289 -0.6964,-1.783029 -1.18528,-2.564976 -1.25828,-2.0388 -3.4325,-3.321268 -5.58891,-2.660348 -2.556,0.75206 -4.58915,3.656745 -5.91537,6.760707 -0.76153,1.79025 -1.34804,3.711661 -1.74082,5.679901 -0.31658,1.586344 -0.46776,3.13217 -0.47152,4.620574 0.093,0.419155 0.28525,0.737508 0.52838,0.989411 m 14.3735,-8.13748 c -0.56352,-2.564249 -1.43027,-4.992088 -2.7301,-6.994953 -1.30742,-2.040223 -3.34375,-3.394527 -5.31242,-2.847212 -2.33377,0.617525 -3.94664,3.294416 -4.79145,6.080652 -0.0625,0.20746 -0.12177,0.416665 -0.17789,0.627478 -0.72944,2.739978 -1.09552,5.856131 -1.0689,8.958849 0.26923,1.159284 1.2537,1.583777 2.01095,1.987126 2.71552,1.163307 5.58751,1.361265 8.4246,1.105936 0.85444,-0.121936 1.74457,-0.241455 2.60448,-0.509419 0.75451,-0.235116 1.47385,-0.587279 2.10832,-1.15405 0.24563,-0.25257 0.47765,-0.605026 0.47571,-1.031958 -0.0336,-4.456636 -1.11889,-9.174816 -3.69433,-12.47541 -0.58245,-0.755363 -1.28422,-1.399692 -2.05364,-1.859859 m -3.10621,-4.895659 -8.49996,13.656795 m 2.33395,8.764664 14.34745,-0.343393"
           id="path1-9"
           style="fill:none;stroke:#000000;stroke-width:0.264583;stroke-dasharray:none;stroke-opacity:1"
           inkscape:path-effect="#path-effect22"
           inkscape:original-d="m 169.12229,73.031999 c -0.0162,-4.583019 -0.94266,-9.390363 -3.31143,-12.869396 -1.36166,-2.024691 -3.47983,-3.359257 -5.55362,-2.785858 -2.45796,0.648342 -4.24708,3.369081 -5.29979,6.214109 -1.09429,2.973615 -1.58766,6.307166 -1.55197,9.600953 0.27229,1.142176 1.26455,1.543989 2.03258,1.926685 2.75116,1.091124 5.6808,1.189085 8.52445,0.827434 1.60657,-0.289322 3.32821,-0.577069 4.68262,-1.846535 0.24512,-0.263672 0.47743,-0.627964 0.47716,-1.067392 z" />
        <path
           id="circle1"
           style="fill:#f9f9f9;stroke:none;stroke-width:0.264583;stroke-dasharray:none"
           d="m 167.89296,53.989037 a 6.6299787,6.6299787 0 0 1 -6.62997,6.629978 6.6299787,6.6299787 0 0 1 -6.62998,-6.629978 6.6299787,6.6299787 0 0 1 6.62998,-6.629979 6.6299787,6.6299787 0 0 1 6.62997,6.629979 z" />
        <path
           id="path15"
           style="fill:#ffaaaa;stroke:none;stroke-width:0.264583;stroke-dasharray:none"
           d="m 167.89296,53.989037 a 6.6299787,6.6299787 0 0 1 -6.62997,6.629978 6.6299787,6.6299787 0 0 1 -6.62998,-6.629978 6.6299787,6.6299787 0 0 1 6.62998,-6.629979 6.6299787,6.6299787 0 0 1 6.62997,6.629979 z" />
        <path
           id="path16"
           style="fill:#ff8080;stroke:none;stroke-width:0.264583;stroke-dasharray:none"
           d="m 158.10071,48.180851 a 6.6299787,6.6299787 0 0 0 -3.46749,5.808431 6.6299787,6.6299787 0 0 0 6.62957,6.62957 6.6299787,6.6299787 0 0 0 5.80791,-3.467489 6.6299787,6.6299787 0 0 1 -3.16208,0.821655 6.6299787,6.6299787 0 0 1 -6.62957,-6.629569 6.6299787,6.6299787 0 0 1 0.82166,-3.162598 z" />
        <path
           id="path17"
           style="fill:none;stroke:#000000;stroke-width:0.264583;stroke-dasharray:none"
           d="m 166.68652,58.935536 c -1.20005,1.484817 -3.05399,2.349196 -5.03359,2.340867 -3.6637,-0.01542 -6.69404,-2.952406 -6.78142,-6.589863 -0.0575,-2.393954 1.19257,-4.600222 3.25286,-5.770883 0.96043,-0.545718 2.04706,-0.834963 3.15425,-0.841172 3.60789,-0.02023 6.553,2.907048 6.50323,6.49855 -0.0452,3.265793 -2.57695,6.006626 -5.99295,6.318316 -0.29012,0.02647 -0.58133,0.03572 -0.87201,0.02759 -3.12301,-0.0874 -5.76684,-2.159763 -6.43975,-5.085547 m 9.88417,3.728354 c -1.11405,0.684938 -2.3939,1.041641 -3.69138,1.022931 -3.69529,-0.05329 -6.62813,-3.084246 -6.56439,-6.857073 0.055,-3.25431 2.33717,-6.081933 5.46941,-6.888765 0.44067,-0.113513 0.88878,-0.179832 1.33763,-0.198623 3.70408,-0.155064 6.69044,2.869173 6.7189,6.631036 0.0286,3.776894 -2.90934,6.907856 -6.50317,7.041399 -0.3844,0.01428 -0.76764,-0.0068 -1.14502,-0.06309 -1.15411,-0.172012 -2.23513,-0.67031 -3.12278,-1.434583 m 8.20267,0.271576 c -1.20754,0.917896 -2.67557,1.412092 -4.16829,1.393822 -3.61306,-0.04422 -6.45389,-3.038874 -6.21479,-6.758041 0.18999,-2.955385 2.30428,-5.579825 5.34833,-6.53679 0.69478,-0.21842 1.40258,-0.334079 2.10293,-0.344264 3.84402,-0.0559 6.71969,3.029586 6.47196,6.894 -0.24901,3.884375 -3.54544,7.116763 -7.50195,7.454474 -0.18694,0.01596 -0.37361,0.02519 -0.55963,0.02774 -2.01286,0.0275 -3.79651,-0.841781 -4.93759,-2.333249 m 1.06277,2.550088 -3.44866,-10.886 m 7.08744,-5.256406 9.41615,6.460213"
           inkscape:path-effect="#path-effect23"
           inkscape:original-d="m 167.89296,53.989037 a 6.6299787,6.6299787 0 0 1 -6.62997,6.629978 6.6299787,6.6299787 0 0 1 -6.62998,-6.629978 6.6299787,6.6299787 0 0 1 6.62998,-6.629979 6.6299787,6.6299787 0 0 1 6.62997,6.629979 z" />
      </g>
    </g>
  </g>
</svg>
