<svg height="60" width="60" xmlns="http://www.w3.org/2000/svg">
    <g stroke="#000" stroke-width="1">
        <path
            d="m 23.8614 1.21128 L 23.8614 20.505 C 23.8623 21.4596 23.6405 22.4013 23.2138 23.2551 L 7.65537 54.3382 C 6.62244 56.3879 8.12253 58.8047 10.4178 58.7887 L 49.5823 58.7887 C 51.8775 58.8046 53.3776 56.3879 52.3447 54.3382 L 36.7863 23.2551 C 36.3595 22.4013 36.1378 21.4596 36.1387 20.505 L 36.1387 1.21128"
            fill="#fff"
            vector-effect="non-scaling-stroke"/>
        <path
            d="m 21.1248 1.21128 L 38.8752 1.21128"
            vector-effect="non-scaling-stroke"/>
        <path
            d="m 17.6517 35.7135 L 42.3484 35.7135"
            vector-effect="non-scaling-stroke"/>
        <path
            d="m 17.5761 34.5232 L 7.65554 54.3383 C 6.62261 56.388 8.12409 58.8031 10.4193 58.7871 L 49.5807 58.7871 C 51.876 58.803 53.3774 56.388 52.3445 54.3383 L 42.424 34.5232 Z"
            fill="#cae"
            vector-effect="non-scaling-stroke"/>
    </g>
</svg>
