<svg height="60" width="60" xmlns="http://www.w3.org/2000/svg">
    <g stroke="#000" stroke-width="1">
        <path
            d="m 30,55.6738 c 4.4729,-0.1523 8.1968,3.6657 12.6977,2.896 4.5216,-1.4673 7.0347,-5.9705 9.2117,-9.8935 3.8717,-7.7779 6.5236,-16.328 6.8084,-25.0517 C 58.8872,12.8554 46.1239,6.89174 37.28,11.4982 34.4961,12.2738 32.0485,15.2949 29.4355,15.3115 24.3402,11.9227 18.3451,8.65391 11.998,10.2994 2.69691,12.228 -0.164468,22.5637 2.00186,30.6637 c 1.64735,8.2566 4.43265,16.499 9.43344,23.3548 2.0412,2.7818 5.4102,5.6488 9.1015,4.4184 3.1715,-0.859 6.0838,-2.7821 9.4632,-2.7631 z"
            fill="#f88"
            vector-effect="non-scaling-stroke"/>
        <path
            d="m 24.2564,1.28208 C 28.674,3.79971 29.7214,9.39721 29.967,14.0758 29.9894,14.5972 30,15.1191 30,15.641"
            fill="none"
            vector-effect="non-scaling-stroke"/>
    </g>
</svg>
