<?xml version="1.0" encoding="UTF-8" standalone="no"?>
<!-- Created with Inkscape (http://www.inkscape.org/) -->

<svg
   width="800"
   height="240"
   viewBox="0 0 211.66667 63.499998"
   version="1.1"
   id="svg1"
   inkscape:version="1.3.2 (091e20ef0f, 2023-11-25, custom)"
   sodipodi:docname="title.svg"
   xmlns:inkscape="http://www.inkscape.org/namespaces/inkscape"
   xmlns:sodipodi="http://sodipodi.sourceforge.net/DTD/sodipodi-0.dtd"
   xmlns="http://www.w3.org/2000/svg"
   xmlns:svg="http://www.w3.org/2000/svg">
  <sodipodi:namedview
     id="namedview1"
     pagecolor="#ffffff"
     bordercolor="#000000"
     borderopacity="0.25"
     inkscape:showpageshadow="2"
     inkscape:pageopacity="0.0"
     inkscape:pagecheckerboard="0"
     inkscape:deskcolor="#d1d1d1"
     inkscape:document-units="mm"
     inkscape:zoom="0.48727587"
     inkscape:cx="331.43443"
     inkscape:cy="-287.31158"
     inkscape:window-width="1440"
     inkscape:window-height="831"
     inkscape:window-x="0"
     inkscape:window-y="0"
     inkscape:window-maximized="1"
     inkscape:current-layer="g9" />
  <defs
     id="defs1">
    <inkscape:path-effect
       effect="sketch"
       id="path-effect27"
       is_visible="true"
       lpeversion="1"
       nbiter_approxstrokes="3"
       parallel_offset="0.2;1"
       strokelength="70"
       strokelength_rdm="0.3;1"
       strokeoverlap="0.5"
       strokeoverlap_rdm="0.5;1"
       ends_tolerance="0.1;1"
       tremble_size="0.8;1"
       tremble_frequency="3"
       nbtangents="2"
       tgt_places_rdmness="0.5;1"
       tgtlength="10"
       tgtlength_rdm="0.3;1"
       tgtscale="10" />
    <inkscape:path-effect
       effect="sketch"
       id="path-effect25"
       is_visible="true"
       lpeversion="1"
       nbiter_approxstrokes="3"
       parallel_offset="0.2;1"
       strokelength="70"
       strokelength_rdm="0.3;1"
       strokeoverlap="0.5"
       strokeoverlap_rdm="0.5;1"
       ends_tolerance="0.1;1"
       tremble_size="0.8;1"
       tremble_frequency="3"
       nbtangents="2"
       tgt_places_rdmness="0.5;1"
       tgtlength="10"
       tgtlength_rdm="0.3;1"
       tgtscale="10" />
    <inkscape:path-effect
       effect="sketch"
       id="path-effect23"
       is_visible="true"
       lpeversion="1"
       nbiter_approxstrokes="3"
       parallel_offset="0.2;1"
       strokelength="70"
       strokelength_rdm="0.3;1"
       strokeoverlap="0.5"
       strokeoverlap_rdm="0.5;1"
       ends_tolerance="0.1;1"
       tremble_size="0.8;1"
       tremble_frequency="3"
       nbtangents="2"
       tgt_places_rdmness="0.5;1"
       tgtlength="10"
       tgtlength_rdm="0.3;1"
       tgtscale="10" />
    <inkscape:path-effect
       effect="sketch"
       id="path-effect22"
       is_visible="true"
       lpeversion="1"
       nbiter_approxstrokes="3"
       parallel_offset="0.2;1"
       strokelength="70"
       strokelength_rdm="0.3;1"
       strokeoverlap="0.5"
       strokeoverlap_rdm="0.5;1"
       ends_tolerance="0.1;1"
       tremble_size="0.8;1"
       tremble_frequency="3"
       nbtangents="2"
       tgt_places_rdmness="0.5;1"
       tgtlength="10"
       tgtlength_rdm="0.3;1"
       tgtscale="10" />
    <inkscape:path-effect
       effect="sketch"
       id="path-effect21"
       is_visible="true"
       lpeversion="1"
       nbiter_approxstrokes="3"
       parallel_offset="0.2;1"
       strokelength="70"
       strokelength_rdm="0.3;1"
       strokeoverlap="0.5"
       strokeoverlap_rdm="0.5;1"
       ends_tolerance="0.1;1"
       tremble_size="0.8;1"
       tremble_frequency="3"
       nbtangents="2"
       tgt_places_rdmness="0.5;1"
       tgtlength="5"
       tgtlength_rdm="0.3;1"
       tgtscale="10" />
    <inkscape:path-effect
       effect="sketch"
       id="path-effect2"
       is_visible="true"
       lpeversion="1"
       nbiter_approxstrokes="3"
       parallel_offset="0.2;1"
       strokelength="70"
       strokelength_rdm="0.3;1"
       strokeoverlap="0.5"
       strokeoverlap_rdm="0.5;1"
       ends_tolerance="0.1;1"
       tremble_size="0.8;1"
       tremble_frequency="3"
       nbtangents="2"
       tgt_places_rdmness="0.5;1"
       tgtlength="10"
       tgtlength_rdm="0.3;1"
       tgtscale="10" />
    <inkscape:path-effect
       effect="sketch"
       id="path-effect20"
       is_visible="true"
       lpeversion="1"
       nbiter_approxstrokes="3"
       parallel_offset="0.2;1"
       strokelength="70"
       strokelength_rdm="0.3;1"
       strokeoverlap="0.5"
       strokeoverlap_rdm="0.5;1"
       ends_tolerance="0.1;1"
       tremble_size="0.8;1"
       tremble_frequency="3"
       nbtangents="2"
       tgt_places_rdmness="0.5;1"
       tgtlength="10"
       tgtlength_rdm="0.3;1"
       tgtscale="10" />
    <inkscape:path-effect
       effect="sketch"
       id="path-effect19"
       is_visible="true"
       lpeversion="1"
       nbiter_approxstrokes="3"
       parallel_offset="0.2;1"
       strokelength="70"
       strokelength_rdm="0.3;1"
       strokeoverlap="0.5"
       strokeoverlap_rdm="0.5;1"
       ends_tolerance="0.1;1"
       tremble_size="0.8;1"
       tremble_frequency="3"
       nbtangents="2"
       tgt_places_rdmness="0.5;1"
       tgtlength="10"
       tgtlength_rdm="0.3;1"
       tgtscale="10" />
    <inkscape:path-effect
       effect="sketch"
       id="path-effect18"
       is_visible="true"
       lpeversion="1"
       nbiter_approxstrokes="3"
       parallel_offset="0.2;1"
       strokelength="70"
       strokelength_rdm="0.3;1"
       strokeoverlap="0.5"
       strokeoverlap_rdm="0.5;1"
       ends_tolerance="0.1;1"
       tremble_size="0.8;1"
       tremble_frequency="3"
       nbtangents="2"
       tgt_places_rdmness="0.5;1"
       tgtlength="10"
       tgtlength_rdm="0.3;1"
       tgtscale="10" />
    <inkscape:path-effect
       effect="sketch"
       id="path-effect17"
       is_visible="true"
       lpeversion="1"
       nbiter_approxstrokes="3"
       parallel_offset="0.2;1"
       strokelength="70"
       strokelength_rdm="0.3;1"
       strokeoverlap="0.5"
       strokeoverlap_rdm="0.5;1"
       ends_tolerance="0.1;1"
       tremble_size="0.8;1"
       tremble_frequency="3"
       nbtangents="2"
       tgt_places_rdmness="0.5;1"
       tgtlength="10"
       tgtlength_rdm="0.3;1"
       tgtscale="10" />
    <inkscape:path-effect
       effect="sketch"
       id="path-effect1"
       is_visible="true"
       lpeversion="1"
       nbiter_approxstrokes="3"
       parallel_offset="0.2;1"
       strokelength="70"
       strokelength_rdm="0.3;1"
       strokeoverlap="0.5"
       strokeoverlap_rdm="0.5;1"
       ends_tolerance="0.1;1"
       tremble_size="0.8;1"
       tremble_frequency="3"
       nbtangents="2"
       tgt_places_rdmness="0.5;1"
       tgtlength="10"
       tgtlength_rdm="0.3;1"
       tgtscale="10" />
    <inkscape:path-effect
       effect="sketch"
       id="path-effect11"
       is_visible="true"
       lpeversion="1"
       nbiter_approxstrokes="4"
       parallel_offset="0.7;1"
       strokelength="50"
       strokelength_rdm="0.3;1"
       strokeoverlap="0.3"
       strokeoverlap_rdm="0.3;1"
       ends_tolerance="0.1;1"
       tremble_size="0.8;1"
       tremble_frequency="3"
       nbtangents="0"
       tgt_places_rdmness="1;1"
       tgtlength="100"
       tgtlength_rdm="0.3;1"
       tgtscale="10" />
    <inkscape:path-effect
       effect="sketch"
       id="path-effect7"
       is_visible="true"
       lpeversion="1"
       nbiter_approxstrokes="3"
       parallel_offset="1;1"
       strokelength="50"
       strokelength_rdm="0.3;1"
       strokeoverlap="0.3"
       strokeoverlap_rdm="0.3;1"
       ends_tolerance="0.1;1"
       tremble_size="1.2;1"
       tremble_frequency="3"
       nbtangents="0"
       tgt_places_rdmness="1;1"
       tgtlength="100"
       tgtlength_rdm="0.3;1"
       tgtscale="10" />
    <rect
       x="223.77509"
       y="306.53192"
       width="415.43015"
       height="124.34706"
       id="rect6" />
    <inkscape:path-effect
       effect="sketch"
       id="path-effect6"
       is_visible="true"
       lpeversion="1"
       nbiter_approxstrokes="3"
       parallel_offset="1;1"
       strokelength="50"
       strokelength_rdm="0.3;1"
       strokeoverlap="0.3"
       strokeoverlap_rdm="0.3;1"
       ends_tolerance="0.1;1"
       tremble_size="1.2;1"
       tremble_frequency="3"
       nbtangents="0"
       tgt_places_rdmness="1;1"
       tgtlength="100"
       tgtlength_rdm="0.3;1"
       tgtscale="10" />
    <inkscape:path-effect
       effect="sketch"
       id="path-effect5"
       is_visible="true"
       lpeversion="1"
       nbiter_approxstrokes="3"
       parallel_offset="1;1"
       strokelength="50"
       strokelength_rdm="0.3;1"
       strokeoverlap="0.3"
       strokeoverlap_rdm="0.3;1"
       ends_tolerance="0.1;1"
       tremble_size="1.2;1"
       tremble_frequency="3"
       nbtangents="0"
       tgt_places_rdmness="1;1"
       tgtlength="100"
       tgtlength_rdm="0.3;1"
       tgtscale="10" />
  </defs>
  <g
     inkscape:label="Layer 1"
     inkscape:groupmode="layer"
     id="layer1">
    <g
       id="g6">
      <g
         id="g9"
         transform="translate(28.418657,-43.5)">
        <path
           sodipodi:type="star"
           style="fill:#ffffff;stroke:none;stroke-width:0.285514;stroke-dasharray:none;stroke-opacity:1"
           id="path26"
           inkscape:flatsided="true"
           sodipodi:sides="6"
           sodipodi:cx="32.976261"
           sodipodi:cy="42.684734"
           sodipodi:r1="20.183598"
           sodipodi:r2="17.479507"
           sodipodi:arg1="2.0943951"
           sodipodi:arg2="2.6179939"
           inkscape:rounded="0"
           inkscape:randomized="0"
           transform="matrix(0.92669184,0,0,0.92669184,130.70415,30.631554)"
           d="M 22.884462,60.164243 12.792664,42.684734 22.884462,25.205226 l 20.183598,0 10.091799,17.479508 -10.091799,17.479509 z" />
        <path
           sodipodi:type="star"
           style="fill:#ffffff;stroke:none;stroke-width:0.285514;stroke-dasharray:none;stroke-opacity:1"
           id="path25"
           inkscape:flatsided="true"
           sodipodi:sides="6"
           sodipodi:cx="32.976261"
           sodipodi:cy="42.684734"
           sodipodi:r1="20.183598"
           sodipodi:r2="17.479507"
           sodipodi:arg1="2.0943951"
           sodipodi:arg2="2.6179939"
           inkscape:rounded="0"
           inkscape:randomized="0"
           transform="matrix(0.92669184,0,0,0.92669184,102.75263,46.813996)"
           d="M 22.884462,60.164243 12.792664,42.684734 22.884462,25.205226 l 20.183598,0 10.091799,17.479508 -10.091799,17.479509 z" />
        <path
           sodipodi:type="star"
           style="fill:#ffffff;stroke:none;stroke-width:0.285514;stroke-dasharray:none;stroke-opacity:1"
           id="path24"
           inkscape:flatsided="true"
           sodipodi:sides="6"
           sodipodi:cx="32.976261"
           sodipodi:cy="42.684734"
           sodipodi:r1="20.183598"
           sodipodi:r2="17.479507"
           sodipodi:arg1="2.0943951"
           sodipodi:arg2="2.6179939"
           inkscape:rounded="0"
           inkscape:randomized="0"
           transform="matrix(0.92669184,0,0,0.92669184,74.801108,30.631538)"
           d="M 22.884462,60.164243 12.792664,42.684734 22.884462,25.205226 l 20.183598,0 10.091799,17.479508 -10.091799,17.479509 z" />
        <path
           sodipodi:type="star"
           style="fill:#ffffff;stroke:none;stroke-width:0.285514;stroke-dasharray:none;stroke-opacity:1"
           id="path23"
           inkscape:flatsided="true"
           sodipodi:sides="6"
           sodipodi:cx="32.976261"
           sodipodi:cy="42.684734"
           sodipodi:r1="20.183598"
           sodipodi:r2="17.479507"
           sodipodi:arg1="2.0943951"
           sodipodi:arg2="2.6179939"
           inkscape:rounded="0"
           inkscape:randomized="0"
           transform="matrix(0.92669184,0,0,0.92669184,46.849592,46.813996)"
           d="M 22.884462,60.164243 12.792664,42.684734 22.884462,25.205226 l 20.183598,0 10.091799,17.479508 -10.091799,17.479509 z" />
        <path
           sodipodi:type="star"
           style="fill:#ffffff;stroke:none;stroke-width:0.285514;stroke-dasharray:none;stroke-opacity:1"
           id="path22"
           inkscape:flatsided="true"
           sodipodi:sides="6"
           sodipodi:cx="32.976261"
           sodipodi:cy="42.684734"
           sodipodi:r1="20.183598"
           sodipodi:r2="17.479507"
           sodipodi:arg1="2.0943951"
           sodipodi:arg2="2.6179939"
           inkscape:rounded="0"
           inkscape:randomized="0"
           transform="matrix(0.92669184,0,0,0.92669184,18.898221,30.631538)"
           d="M 22.884462,60.164243 12.792664,42.684734 22.884462,25.205226 l 20.183598,0 10.091799,17.479508 -10.091799,17.479509 z" />
        <path
           sodipodi:type="star"
           style="fill:#ffffff;stroke:none;stroke-width:0.285514;stroke-dasharray:none;stroke-opacity:1"
           id="path21"
           inkscape:flatsided="true"
           sodipodi:sides="6"
           sodipodi:cx="32.976261"
           sodipodi:cy="42.684734"
           sodipodi:r1="20.183598"
           sodipodi:r2="17.479507"
           sodipodi:arg1="2.0943951"
           sodipodi:arg2="2.6179939"
           inkscape:rounded="0"
           inkscape:randomized="0"
           transform="matrix(0.92669184,0,0,0.92669184,-9.0531396,46.813996)"
           d="M 22.884462,60.164243 12.792664,42.684734 22.884462,25.205226 l 20.183598,0 10.091799,17.479508 -10.091799,17.479509 z" />
        <path
           sodipodi:type="star"
           style="fill:#ffffff;stroke:none;stroke-width:0.285514;stroke-dasharray:none;stroke-opacity:1"
           id="path20"
           inkscape:flatsided="true"
           sodipodi:sides="6"
           sodipodi:cx="32.976261"
           sodipodi:cy="42.684734"
           sodipodi:r1="20.183598"
           sodipodi:r2="17.479507"
           sodipodi:arg1="2.0943951"
           sodipodi:arg2="2.6179939"
           inkscape:rounded="0"
           inkscape:randomized="0"
           transform="matrix(0.92669184,0,0,0.92669184,-37.0045,30.631538)"
           d="M 22.884462,60.164243 12.792664,42.684734 22.884462,25.205226 l 20.183598,0 10.091799,17.479508 -10.091799,17.479509 z" />
        <path
           d="m 169.12229,73.031999 c -0.0162,-4.583019 -0.94266,-9.390363 -3.31143,-12.869396 -1.36166,-2.024691 -3.47983,-3.359257 -5.55362,-2.785858 -2.45796,0.648342 -4.24708,3.369081 -5.29979,6.214109 -1.09429,2.973615 -1.58766,6.307166 -1.55197,9.600953 0.27229,1.142176 1.26455,1.543989 2.03258,1.926685 2.75116,1.091124 5.6808,1.189085 8.52445,0.827434 1.60657,-0.289322 3.32821,-0.577069 4.68262,-1.846535 0.24512,-0.263672 0.47743,-0.627964 0.47716,-1.067392 z"
           id="path19"
           style="fill:#ff8080;stroke:none;stroke-width:0.264583;stroke-dasharray:none;stroke-opacity:1" />
        <path
           id="path18"
           style="fill:#ff5555;stroke:none;stroke-width:0.264583;stroke-dasharray:none;stroke-opacity:1"
           d="m 159.1332,57.842794 c -1.88461,1.059188 -3.29133,3.357167 -4.17597,5.747969 -1.09429,2.973612 -1.58753,6.307181 -1.55184,9.600965 0.27229,1.142175 1.2644,1.544318 2.03243,1.927014 2.75116,1.091123 5.6809,1.18899 8.52455,0.82734 1.60656,-0.289322 3.3285,-0.577451 4.68291,-1.846916 0.24512,-0.263672 0.47725,-0.627691 0.47698,-1.067118 -3.7e-4,-0.104301 -0.004,-0.209162 -0.005,-0.313676 -0.8229,0.282737 -1.68111,0.432804 -2.50889,0.581876 -2.84365,0.361651 -5.77339,0.263783 -8.52455,-0.827339 -0.76803,-0.382696 -1.76014,-0.78484 -2.03243,-1.927015 -0.0357,-3.293783 0.45755,-6.627352 1.55184,-9.600964 0.40299,-1.089093 0.91512,-2.158752 1.53014,-3.102136 z" />
        <path
           id="path11"
           style="fill:#cccccc;stroke:none;stroke-width:0.264583;stroke-dasharray:none;stroke-opacity:1"
           d="m 40.04669,53.985662 -9.351884,16.198493 9.351884,16.19797 h 18.703768 l 1.527554,-2.645827 c 0,0 -15.674186,1.633077 -18.446514,-0.84068 -2.317972,-2.06833 -8.027644,-12.688599 -7.805185,-14.705644 0.172457,-1.563675 7.138655,-14.204312 7.138655,-14.204312 z"
           sodipodi:nodetypes="cccccsscc" />
        <path
           d="m 102.33922,77.026217 c -0.2441,0 -0.43589,-0.07849 -0.57538,-0.23538 -0.13948,-0.156926 -0.20922,-0.339993 -0.20922,-0.549222 V 64.524894 c 0,-0.209229 0.0698,-0.392297 0.20922,-0.549222 0.15693,-0.156917 0.34872,-0.23538 0.57538,-0.23538 0.22667,0 0.40974,0.07849 0.54923,0.23538 0.15692,0.156925 0.23537,0.339993 0.23537,0.549222 v 3.923011 l -0.39229,0.07849 c 0.0522,-0.610245 0.20051,-1.21178 0.4446,-1.804585 0.26153,-0.610244 0.61025,-1.168187 1.04614,-1.673818 0.43588,-0.505631 0.95024,-0.915368 1.54305,-1.22921 0.61024,-0.313844 1.29023,-0.47076 2.03997,-0.47076 0.31383,0 0.61896,0.06978 0.91536,0.209228 0.2964,0.122046 0.44461,0.331274 0.44461,0.627677 0,0.26154 -0.0698,0.462048 -0.20923,0.601534 -0.13948,0.139486 -0.30512,0.209219 -0.49692,0.209219 -0.15691,0 -0.33127,-0.04355 -0.52306,-0.130765 -0.17436,-0.0872 -0.40973,-0.130766 -0.70614,-0.130766 -0.4882,0 -0.9764,0.148206 -1.46459,0.444608 -0.4882,0.278971 -0.93281,0.662557 -1.33382,1.150748 -0.40102,0.488199 -0.72358,1.037422 -0.96769,1.647667 -0.22665,0.592805 -0.33999,1.194339 -0.33999,1.804584 v 6.459885 c 0,0.209229 -0.0785,0.392297 -0.23537,0.549223 -0.15692,0.156917 -0.34,0.23538 -0.54923,0.23538 z"
           style="font-size:106.667px;font-family:Quicksand;-inkscape-font-specification:'Quicksand, Normal';white-space:pre;fill:#1a1a1a;stroke-width:0.264583;stroke-dasharray:none;stroke:#000000"
           id="path1-3" />
        <path
           d="m 78.206109,94.35945 c 0,0.209228 -0.07849,0.392299 -0.235392,0.549225 -0.156913,0.156913 -0.33999,0.235379 -0.549212,0.235379 -0.226669,0 -0.418457,-0.07849 -0.575383,-0.235379 -0.139479,-0.156926 -0.209221,-0.339997 -0.209221,-0.549225 V 82.328887 c 0,-0.20922 0.06978,-0.392297 0.209221,-0.549213 0.156926,-0.156926 0.348714,-0.23538 0.575383,-0.23538 0.226662,0 0.409726,0.07849 0.549212,0.23538 0.156926,0.156916 0.235392,0.339993 0.235392,0.549213 z M 77.421505,79.792012 c -0.366154,0 -0.645119,-0.07849 -0.836913,-0.23538 -0.17436,-0.174356 -0.261531,-0.418457 -0.261531,-0.73229 v -0.26154 c 0,-0.313843 0.09589,-0.549223 0.287682,-0.70614 0.209228,-0.174356 0.488199,-0.261531 0.836913,-0.261531 0.331273,0 0.584093,0.0872 0.758453,0.261531 0.191788,0.156917 0.287682,0.392297 0.287682,0.70614 v 0.26154 c 0,0.313833 -0.09589,0.557934 -0.287682,0.73229 -0.17436,0.156927 -0.435897,0.23538 -0.784604,0.23538 z"
           style="font-size:106.667px;font-family:Quicksand;-inkscape-font-specification:'Quicksand, Normal';white-space:pre;fill:#1a1a1a;stroke-width:0.264583;stroke-dasharray:none;stroke:#000000"
           id="path1-8" />
        <path
           d="m 49.561667,60.968065 c 1.185619,0 2.231752,0.296403 3.138408,0.889217 0.924079,0.575373 1.656379,1.377406 2.196881,2.406108 0.540502,1.011263 0.810753,2.179451 0.810753,3.504554 0,1.325105 -0.270251,2.502004 -0.810753,3.530706 -0.540502,1.028702 -1.272802,1.839455 -2.196881,2.432269 -0.924087,0.592805 -1.96151,0.889207 -3.112257,0.889207 -0.610245,0 -1.194339,-0.0872 -1.752272,-0.261531 -0.540503,-0.191788 -1.037423,-0.444608 -1.490741,-0.758451 -0.453329,-0.313841 -0.854346,-0.679987 -1.20306,-1.098434 -0.348714,-0.435898 -0.627686,-0.906657 -0.836914,-1.412289 L 44.7756,70.749427 v 8.133704 c 0,0.209228 -0.07849,0.392306 -0.23538,0.549223 -0.139486,0.156917 -0.322563,0.235379 -0.549222,0.235379 -0.226669,0 -0.418457,-0.07849 -0.575374,-0.235379 -0.139486,-0.156917 -0.209228,-0.339995 -0.209228,-0.549223 v -17.05201 c 0,-0.22666 0.06978,-0.418448 0.209228,-0.575374 0.139485,-0.156917 0.331274,-0.23538 0.575374,-0.23538 0.226659,0 0.409736,0.07849 0.549222,0.23538 0.156917,0.156926 0.23538,0.348714 0.23538,0.575374 v 2.824566 l -0.366155,-0.209219 c 0.174357,-0.540512 0.427178,-1.019982 0.758452,-1.438439 0.348713,-0.435888 0.74973,-0.802043 1.203059,-1.098445 0.453319,-0.313843 0.950239,-0.549223 1.490741,-0.706139 0.540502,-0.156926 1.107155,-0.23538 1.69997,-0.23538 z m -0.130766,1.46459 c -0.941519,0 -1.769712,0.235381 -2.484572,0.706139 -0.714859,0.453319 -1.281513,1.081005 -1.69997,1.883038 -0.401017,0.784602 -0.601524,1.699979 -0.601524,2.746112 0,1.028702 0.200507,1.952781 0.601524,2.772255 0.418457,0.819473 0.985111,1.46459 1.69997,1.935349 0.71486,0.453329 1.543053,0.679988 2.484572,0.679988 0.924088,0 1.734842,-0.226659 2.432261,-0.679988 0.714859,-0.470759 1.281522,-1.115876 1.699969,-1.935349 0.418457,-0.819474 0.627686,-1.743553 0.627686,-2.772255 0,-1.028702 -0.209229,-1.944069 -0.627686,-2.746112 -0.418447,-0.802033 -0.98511,-1.429719 -1.699969,-1.883038 -0.697419,-0.470759 -1.508173,-0.706139 -2.432261,-0.706139 z"
           style="font-size:106.667px;font-family:Quicksand;-inkscape-font-specification:'Quicksand, Normal';white-space:pre;fill:#000000;stroke-width:0.264583;stroke-dasharray:none;stroke:#000000"
           id="path1-6" />
        <path
           id="path1-1"
           style="font-size:106.667px;font-family:Quicksand;-inkscape-font-specification:'Quicksand, Normal';white-space:pre;fill:#1a1a1a;stroke-width:0.264583;stroke-dasharray:none;stroke:#000000"
           d="M -6.4324021 63.347884 C -7.4785361 63.347884 -8.4726106 63.635507 -9.4141323 64.210881 C -10.338218 64.768822 -11.096636 65.57132 -11.689446 66.617452 C -12.26482 67.663584 -12.552442 68.927449 -12.552442 70.409469 C -12.552442 71.786883 -12.26482 72.989859 -11.689446 74.018551 C -11.114071 75.047252 -10.312089 75.849233 -9.2833909 76.424605 C -8.2546926 76.999979 -7.0690418 77.287602 -5.7265021 77.287602 C -4.7326742 77.287602 -3.817324 77.060867 -2.9804164 76.60754 C -2.1435098 76.13678 -1.4632984 75.587781 -0.94023089 74.960095 C -0.76587158 74.803178 -0.67874815 74.620003 -0.67874815 74.410775 C -0.67874815 74.236418 -0.74855431 74.079478 -0.8880377 73.940002 C -1.010087 73.800555 -1.1580997 73.730713 -1.332455 73.730713 C -1.5242464 73.730713 -1.7163392 73.809432 -1.9081305 73.966357 C -2.1522286 74.2802 -2.4571744 74.585144 -2.8233201 74.881547 C -3.1894677 75.160518 -3.6166991 75.387252 -4.1048956 75.561609 C -4.5930912 75.73594 -5.1426116 75.823092 -5.752857 75.823092 C -6.851298 75.823092 -7.8012938 75.579027 -8.603329 75.090837 C -9.3879295 74.602637 -9.989416 73.940265 -10.40787 73.103361 C -10.822776 72.273553 -11.031704 71.349277 -11.035222 70.33092 L -1.1495204 70.33092 C -0.94029439 70.33092 -0.75712002 70.261117 -0.60019997 70.121631 C -0.44327859 69.964705 -0.3561512 69.781538 -0.33871722 69.57231 C -0.37358724 68.561049 -0.56568056 67.671943 -0.91439268 66.904773 C -1.2456681 66.137613 -1.6986237 65.492561 -2.2739996 64.969491 C -2.8319372 64.428988 -3.4775053 64.027994 -4.2097988 63.766463 C -4.9246583 63.487492 -5.6652364 63.347884 -6.4324021 63.347884 z M -6.4324021 64.865104 C -5.7349792 64.865104 -5.0636875 65.013119 -4.4185716 65.309521 C -3.7734548 65.605932 -3.2244511 66.04208 -2.7711269 66.617452 C -2.3178017 67.192825 -2.0564216 67.889841 -1.9866786 68.709314 L -1.9866786 68.918604 L -10.916366 68.918604 C -10.846878 68.541408 -10.748223 68.192141 -10.61716 67.872673 C -10.338191 67.175245 -9.980764 66.608405 -9.5448736 66.172518 C -9.0915494 65.719189 -8.5945122 65.388009 -8.0540086 65.17878 C -7.4960712 64.969552 -6.9554691 64.865104 -6.4324021 64.865104 z " />
        <path
           d="m 17.648068,79.635095 c 1.081008,0 2.005094,0.287683 2.772261,0.863056 0.767163,0.557943 1.290231,1.394848 1.569202,2.510736 l -0.366147,0.104611 0.15692,-0.470769 c 0.226663,-0.523062 0.601527,-1.011261 1.124595,-1.46459 0.540503,-0.470759 1.150749,-0.845625 1.830737,-1.124596 0.679987,-0.278962 1.368693,-0.418448 2.066116,-0.418448 1.098444,0 1.97894,0.23538 2.641493,0.70614 0.679987,0.470759 1.168185,1.107165 1.464588,1.909198 0.313843,0.784605 0.470763,1.673807 0.470763,2.66764 v 7.401416 c 0,0.209228 -0.07846,0.392292 -0.23538,0.549218 -0.139485,0.15692 -0.322559,0.23538 -0.549222,0.23538 -0.226663,0 -0.418454,-0.07849 -0.575373,-0.23538 -0.139485,-0.156926 -0.209229,-0.33999 -0.209229,-0.549218 v -7.32295 c 0,-0.714862 -0.11333,-1.368691 -0.339994,-1.961501 -0.226663,-0.592817 -0.584091,-1.063577 -1.072289,-1.41229 -0.488194,-0.348715 -1.14203,-0.523063 -1.961502,-0.523063 -0.71486,0 -1.403567,0.174348 -2.066119,0.523063 -0.645118,0.348713 -1.176902,0.819473 -1.595355,1.41229 -0.401018,0.59281 -0.601528,1.246639 -0.601528,1.961501 v 7.32295 c 0,0.209228 -0.07846,0.392292 -0.235382,0.549218 -0.139484,0.15692 -0.322556,0.23538 -0.549219,0.23538 -0.226664,0 -0.418457,-0.07849 -0.575376,-0.23538 -0.139485,-0.156926 -0.209226,-0.33999 -0.209226,-0.549218 v -7.401416 c 0,-0.714849 -0.104614,-1.359974 -0.313842,-1.93535 -0.209225,-0.575373 -0.54922,-1.028702 -1.019981,-1.359975 -0.470762,-0.348715 -1.10716,-0.523063 -1.909197,-0.523063 -0.71486,0 -1.394847,0.174348 -2.039965,0.523063 -0.627682,0.331273 -1.142029,0.784602 -1.543048,1.359975 -0.383584,0.575376 -0.575377,1.220501 -0.575377,1.93535 v 7.401416 c 0,0.209228 -0.07846,0.392292 -0.23538,0.549218 -0.156919,0.15692 -0.339993,0.23538 -0.549221,0.23538 -0.244096,0 -0.435889,-0.07849 -0.575374,-0.23538 -0.139484,-0.156926 -0.209227,-0.33999 -0.209227,-0.549218 V 80.602766 c 0,-0.209229 0.06974,-0.392297 0.209227,-0.549223 0.156921,-0.156916 0.34871,-0.23538 0.575374,-0.23538 0.226663,0 0.409737,0.07849 0.549221,0.23538 0.156921,0.156926 0.23538,0.339994 0.23538,0.549223 v 2.432272 l -0.706139,0.967668 c 0.0523,-0.52306 0.217945,-1.046134 0.496914,-1.569196 0.296405,-0.523071 0.679987,-0.99383 1.15075,-1.412288 0.470761,-0.418456 1.002545,-0.74973 1.595354,-0.99383 0.610246,-0.261531 1.246644,-0.392297 1.909197,-0.392297 z"
           style="font-size:106.667px;font-family:Quicksand;-inkscape-font-specification:'Quicksand, Normal';white-space:pre;fill:#1a1a1a;stroke-width:0.264583;stroke-dasharray:none;stroke:#000000"
           id="path1-7" />
        <path
           style="font-size:106.667px;font-family:Quicksand;-inkscape-font-specification:'Quicksand, Normal';white-space:pre;fill:#1a1a1a;stroke-width:0.264583;stroke-dasharray:none;stroke:#000000"
           d="m 134.03067,93.339466 c -1.34254,0 -2.52815,-0.287688 -3.55686,-0.863064 -1.0287,-0.57537 -1.83073,-1.377408 -2.40611,-2.406109 -0.57537,-1.0287 -0.86306,-2.231748 -0.86306,-3.609169 0,-1.482019 0.28769,-2.746099 0.86306,-3.792234 0.59281,-1.046133 1.35126,-1.848176 2.27535,-2.406118 0.94152,-0.575374 1.93535,-0.863057 2.98149,-0.863057 0.76717,0 1.50817,0.139486 2.22303,0.418458 0.73229,0.261531 1.37741,0.662547 1.93535,1.203049 0.57538,0.523072 1.0287,1.168188 1.35998,1.93535 0.34871,0.76717 0.5405,1.656379 0.57537,2.667652 -0.0174,0.209228 -0.10461,0.392292 -0.26153,0.549218 -0.15692,0.139486 -0.33999,0.209222 -0.54922,0.209222 h -10.48751 l -0.31384,-1.412283 h 10.30443 l -0.34,0.313846 v -0.523074 c -0.0698,-0.819472 -0.33127,-1.516887 -0.7846,-2.092263 -0.45332,-0.575374 -1.00254,-1.011271 -1.64765,-1.307673 -0.64512,-0.296403 -1.31639,-0.444609 -2.01381,-0.444609 -0.52307,0 -1.06358,0.104614 -1.62152,0.313843 -0.5405,0.209229 -1.03741,0.540502 -1.49074,0.993831 -0.4359,0.435888 -0.79332,1.002544 -1.07229,1.699971 -0.27897,0.679987 -0.41844,1.490743 -0.41844,2.43226 0,1.028701 0.20921,1.961508 0.62767,2.798414 0.41845,0.836907 1.01998,1.499459 1.80459,1.987659 0.80203,0.488192 1.75228,0.732295 2.85071,0.732295 0.61025,0 1.15947,-0.0872 1.64767,-0.261537 0.48819,-0.174353 0.91537,-0.401022 1.28151,-0.679986 0.36615,-0.296412 0.67127,-0.601534 0.91537,-0.915367 0.1918,-0.156926 0.38358,-0.235386 0.57537,-0.235386 0.17436,0 0.32256,0.06978 0.44461,0.209229 0.13948,0.139485 0.20923,0.296411 0.20923,0.470758 0,0.209229 -0.0872,0.392306 -0.26153,0.549219 -0.52307,0.627684 -1.20306,1.17691 -2.03996,1.647668 -0.83692,0.453318 -1.75229,0.679987 -2.74612,0.679987 z"
           id="text6"
           aria-label="empire"
           sodipodi:nodetypes="ssssccscccccscccccssscscsscssccscsccs" />
        <path
           id="path9"
           style="fill:#cccccc;stroke:none;stroke-width:0.264583;stroke-dasharray:none;stroke-opacity:1"
           d="m 95.949577,53.985665 -9.351884,16.198493 9.351884,16.197967 h 18.703773 l 1.52755,-2.64582 c 0,0 -15.67419,1.63307 -18.446515,-0.840684 -2.317972,-2.06833 -8.027644,-12.688599 -7.805185,-14.705644 0.172457,-1.563675 7.138655,-14.204312 7.138655,-14.204312 z"
           sodipodi:nodetypes="cccccsscc" />
        <path
           sodipodi:type="star"
           style="fill:none;stroke:#000000;stroke-width:0.856541;stroke-dasharray:none;stroke-opacity:1"
           id="path5"
           inkscape:flatsided="true"
           sodipodi:sides="6"
           sodipodi:cx="32.976261"
           sodipodi:cy="42.684734"
           sodipodi:r1="20.183598"
           sodipodi:r2="17.479507"
           sodipodi:arg1="2.0943951"
           sodipodi:arg2="2.6179939"
           inkscape:rounded="0"
           inkscape:randomized="0"
           transform="matrix(0.92669184,0,0,0.92669184,74.801108,30.631538)"
           d="M 22.884462,60.164243 12.792664,42.684734 22.884462,25.205226 l 20.183598,0 10.091799,17.479508 -10.091799,17.479509 z" />
        <path
           sodipodi:type="star"
           style="fill:none;stroke:#000000;stroke-width:0.856541;stroke-dasharray:none;stroke-opacity:1"
           id="path1"
           inkscape:flatsided="true"
           sodipodi:sides="6"
           sodipodi:cx="32.976261"
           sodipodi:cy="42.684734"
           sodipodi:r1="20.183598"
           sodipodi:r2="17.479507"
           sodipodi:arg1="2.0943951"
           sodipodi:arg2="2.6179939"
           inkscape:rounded="0"
           inkscape:randomized="0"
           transform="matrix(0.92669184,0,0,0.92669184,18.898221,30.631538)"
           d="M 22.884462,60.164243 12.792664,42.684734 22.884462,25.205226 l 20.183598,0 10.091799,17.479508 -10.091799,17.479509 z" />
        <path
           id="path8"
           style="fill:#cccccc;stroke:none;stroke-width:0.264583;stroke-dasharray:none;stroke-opacity:1"
           d="m 67.99806,70.16812 -9.351884,16.198493 9.351884,16.197967 h 18.703768 l 1.527554,-2.64582 c 0,0 -15.674186,1.63307 -18.446514,-0.840684 C 67.464896,97.009746 61.755224,86.389477 61.977683,84.372432 62.15014,82.808757 69.116338,70.16812 69.116338,70.16812 Z"
           sodipodi:nodetypes="cccccsscc" />
        <path
           sodipodi:type="star"
           style="fill:none;stroke:#000000;stroke-width:0.856541;stroke-dasharray:none;stroke-opacity:1"
           id="path2"
           inkscape:flatsided="true"
           sodipodi:sides="6"
           sodipodi:cx="32.976261"
           sodipodi:cy="42.684734"
           sodipodi:r1="20.183598"
           sodipodi:r2="17.479507"
           sodipodi:arg1="2.0943951"
           sodipodi:arg2="2.6179939"
           inkscape:rounded="0"
           inkscape:randomized="0"
           transform="matrix(0.92669184,0,0,0.92669184,46.849591,46.813996)"
           d="M 22.884462,60.164243 12.792664,42.684734 22.884462,25.205226 l 20.183598,0 10.091799,17.479508 -10.091799,17.479509 z" />
        <path
           id="path13"
           style="fill:#cccccc;stroke:none;stroke-width:0.264583;stroke-dasharray:none;stroke-opacity:1"
           d="M 12.09533,70.16812 2.7434458,86.366613 12.09533,102.56458 h 18.703768 l 1.527554,-2.64582 c 0,0 -15.674186,1.63307 -18.446514,-0.840684 C 11.562166,97.009746 5.8524938,86.389477 6.0749528,84.372432 6.2474098,82.808757 13.213608,70.16812 13.213608,70.16812 Z"
           sodipodi:nodetypes="cccccsscc" />
        <path
           sodipodi:type="star"
           style="fill:none;stroke:#000000;stroke-width:0.856541;stroke-dasharray:none;stroke-opacity:1"
           id="path3"
           inkscape:flatsided="true"
           sodipodi:sides="6"
           sodipodi:cx="32.976261"
           sodipodi:cy="42.684734"
           sodipodi:r1="20.183598"
           sodipodi:r2="17.479507"
           sodipodi:arg1="2.0943951"
           sodipodi:arg2="2.6179939"
           inkscape:rounded="0"
           inkscape:randomized="0"
           transform="matrix(0.92669184,0,0,0.92669184,-9.0531396,46.813996)"
           d="M 22.884462,60.164243 12.792664,42.684734 22.884462,25.205226 l 20.183598,0 10.091799,17.479508 -10.091799,17.479509 z" />
        <path
           id="path14"
           style="fill:#cccccc;stroke:none;stroke-width:0.264583;stroke-dasharray:none;stroke-opacity:1"
           d="m -15.85603,53.985665 -9.351885,16.198493 9.351885,16.197967 H 2.8477376 l 1.527554,-2.64582 c 0,0 -15.6741856,1.63307 -18.4465136,-0.840684 -2.317972,-2.06833 -8.027645,-12.688599 -7.805186,-14.705644 0.172457,-1.563675 7.138656,-14.204312 7.138656,-14.204312 z"
           sodipodi:nodetypes="cccccsscc" />
        <path
           sodipodi:type="star"
           style="fill:none;stroke:#000000;stroke-width:0.856541;stroke-dasharray:none;stroke-opacity:1"
           id="path4"
           inkscape:flatsided="true"
           sodipodi:sides="6"
           sodipodi:cx="32.976261"
           sodipodi:cy="42.684734"
           sodipodi:r1="20.183598"
           sodipodi:r2="17.479507"
           sodipodi:arg1="2.0943951"
           sodipodi:arg2="2.6179939"
           inkscape:rounded="0"
           inkscape:randomized="0"
           transform="matrix(0.92669184,0,0,0.92669184,-37.0045,30.631538)"
           d="M 22.884462,60.164243 12.792664,42.684734 22.884462,25.205226 l 20.183598,0 10.091799,17.479508 -10.091799,17.479509 z" />
        <path
           id="path10"
           style="fill:#cccccc;stroke:none;stroke-width:0.264583;stroke-dasharray:none;stroke-opacity:1"
           d="m 123.9011,70.168123 -9.35188,16.198493 9.35188,16.197964 h 18.70377 l 1.52755,-2.64582 c 0,0 -15.67419,1.63307 -18.44651,-0.840681 -2.31797,-2.06833 -8.02765,-12.688599 -7.80519,-14.705644 0.17246,-1.563675 7.13866,-14.204312 7.13866,-14.204312 z"
           sodipodi:nodetypes="cccccsscc" />
        <path
           sodipodi:type="star"
           style="fill:none;stroke:#000000;stroke-width:0.856541;stroke-dasharray:none;stroke-opacity:1"
           id="path6"
           inkscape:flatsided="true"
           sodipodi:sides="6"
           sodipodi:cx="32.976261"
           sodipodi:cy="42.684734"
           sodipodi:r1="20.183598"
           sodipodi:r2="17.479507"
           sodipodi:arg1="2.0943951"
           sodipodi:arg2="2.6179939"
           inkscape:rounded="0"
           inkscape:randomized="0"
           transform="matrix(0.92669184,0,0,0.92669184,102.75263,46.813996)"
           d="M 22.884462,60.164243 12.792664,42.684734 22.884462,25.205226 l 20.183598,0 10.091799,17.479508 -10.091799,17.479509 z" />
        <path
           id="path12"
           style="fill:#cccccc;stroke:none;stroke-width:0.264583;stroke-dasharray:none;stroke-opacity:1"
           d="m 151.85262,53.985684 -9.35188,16.198493 9.35188,16.197964 h 18.70377 l 1.52755,-2.64582 c 0,0 -15.67419,1.63307 -18.44651,-0.840681 -2.31797,-2.06833 -8.02765,-12.688599 -7.80519,-14.705644 0.17246,-1.563675 7.13866,-14.204312 7.13866,-14.204312 z"
           sodipodi:nodetypes="cccccsscc" />
        <path
           sodipodi:type="star"
           style="fill:none;stroke:#000000;stroke-width:0.856541;stroke-dasharray:none;stroke-opacity:1"
           id="path7"
           inkscape:flatsided="true"
           sodipodi:sides="6"
           sodipodi:cx="32.976261"
           sodipodi:cy="42.684734"
           sodipodi:r1="20.183598"
           sodipodi:r2="17.479507"
           sodipodi:arg1="2.0943951"
           sodipodi:arg2="2.6179939"
           inkscape:rounded="0"
           inkscape:randomized="0"
           transform="matrix(0.92669184,0,0,0.92669184,130.70415,30.631554)"
           d="M 22.884462,60.164243 12.792664,42.684734 22.884462,25.205226 l 20.183598,0 10.091799,17.479508 -10.091799,17.479509 z" />
        <path
           d="m 169.12229,73.031999 c -0.0162,-4.583019 -0.94266,-9.390363 -3.31143,-12.869396 -1.36166,-2.024691 -3.47983,-3.359257 -5.55362,-2.785858 -2.45796,0.648342 -4.24708,3.369081 -5.29979,6.214109 -1.09429,2.973615 -1.58766,6.307166 -1.55197,9.600953 0.27229,1.142176 1.26455,1.543989 2.03258,1.926685 2.75116,1.091124 5.6808,1.189085 8.52445,0.827434 1.60657,-0.289322 3.32821,-0.577069 4.68262,-1.846535 0.24512,-0.263672 0.47743,-0.627964 0.47716,-1.067392 z"
           id="path1-9"
           style="fill:none;stroke:#000000;stroke-width:0.79375;stroke-dasharray:none;stroke-opacity:1" />
        <path
           id="circle1"
           style="fill:#f9f9f9;stroke:none;stroke-width:0.264583;stroke-dasharray:none"
           d="m 167.89296,53.989037 a 6.6299787,6.6299787 0 0 1 -6.62997,6.629978 6.6299787,6.6299787 0 0 1 -6.62998,-6.629978 6.6299787,6.6299787 0 0 1 6.62998,-6.629979 6.6299787,6.6299787 0 0 1 6.62997,6.629979 z" />
        <path
           id="path15"
           style="fill:#ff8080;stroke:none;stroke-width:0.264583;stroke-dasharray:none"
           d="m 167.89296,53.989037 a 6.6299787,6.6299787 0 0 1 -6.62997,6.629978 6.6299787,6.6299787 0 0 1 -6.62998,-6.629978 6.6299787,6.6299787 0 0 1 6.62998,-6.629979 6.6299787,6.6299787 0 0 1 6.62997,6.629979 z" />
        <path
           id="path16"
           style="fill:#ff5555;stroke:none;stroke-width:0.264583;stroke-dasharray:none"
           d="m 158.10071,48.180851 a 6.6299787,6.6299787 0 0 0 -3.46749,5.808431 6.6299787,6.6299787 0 0 0 6.62957,6.62957 6.6299787,6.6299787 0 0 0 5.80791,-3.467489 6.6299787,6.6299787 0 0 1 -3.16208,0.821655 6.6299787,6.6299787 0 0 1 -6.62957,-6.629569 6.6299787,6.6299787 0 0 1 0.82166,-3.162598 z" />
        <path
           id="path17"
           style="fill:none;stroke:#000000;stroke-width:0.79375;stroke-dasharray:none"
           d="m 167.89296,53.989037 a 6.6299787,6.6299787 0 0 1 -6.62997,6.629978 6.6299787,6.6299787 0 0 1 -6.62998,-6.629978 6.6299787,6.6299787 0 0 1 6.62998,-6.629979 6.6299787,6.6299787 0 0 1 6.62997,6.629979 z" />
      </g>
    </g>
  </g>
</svg>
