<?xml version="1.0" encoding="UTF-8" standalone="no"?>
<!-- Created with Inkscape (http://www.inkscape.org/) -->

<svg
   width="297mm"
   height="420mm"
   viewBox="0 0 297.00001 419.99999"
   version="1.1"
   id="svg1"
   inkscape:version="1.3.2 (091e20ef0f, 2023-11-25, custom)"
   sodipodi:docname="print-00.svg"
   xmlns:inkscape="http://www.inkscape.org/namespaces/inkscape"
   xmlns:sodipodi="http://sodipodi.sourceforge.net/DTD/sodipodi-0.dtd"
   xmlns="http://www.w3.org/2000/svg"
   xmlns:svg="http://www.w3.org/2000/svg">
  <sodipodi:namedview
     id="namedview1"
     pagecolor="#ffffff"
     bordercolor="#000000"
     borderopacity="0.25"
     inkscape:showpageshadow="2"
     inkscape:pageopacity="0.0"
     inkscape:pagecheckerboard="0"
     inkscape:deskcolor="#d1d1d1"
     inkscape:document-units="px"
     inkscape:zoom="0.23864984"
     inkscape:cx="209.51198"
     inkscape:cy="888.33079"
     inkscape:window-width="1440"
     inkscape:window-height="831"
     inkscape:window-x="0"
     inkscape:window-y="0"
     inkscape:window-maximized="1"
     inkscape:current-layer="layer1"
     showgrid="true">
    <inkscape:grid
       id="grid1"
       units="px"
       originx="0"
       originy="0"
       spacingx="2.6458333"
       spacingy="2.6458333"
       empcolor="#0099e5"
       empopacity="0.30196078"
       color="#0099e5"
       opacity="0.14901961"
       empspacing="5"
       dotted="false"
       gridanglex="30"
       gridanglez="30"
       visible="true" />
  </sodipodi:namedview>
  <defs
     id="defs1">
    <inkscape:path-effect
       effect="sketch"
       id="path-effect32"
       is_visible="true"
       lpeversion="1"
       nbiter_approxstrokes="3"
       parallel_offset="0.2;1"
       strokelength="70"
       strokelength_rdm="0.3;1"
       strokeoverlap="0.5"
       strokeoverlap_rdm="0.5;1"
       ends_tolerance="0.1;1"
       tremble_size="0.8;1"
       tremble_frequency="3"
       nbtangents="2"
       tgt_places_rdmness="0.5;1"
       tgtlength="10"
       tgtlength_rdm="0.3;1"
       tgtscale="10" />
    <inkscape:path-effect
       effect="sketch"
       id="path-effect28"
       is_visible="true"
       lpeversion="1"
       nbiter_approxstrokes="3"
       parallel_offset="0.2;1"
       strokelength="70"
       strokelength_rdm="0.3;1"
       strokeoverlap="0.5"
       strokeoverlap_rdm="0.5;1"
       ends_tolerance="0.1;1"
       tremble_size="0.8;1"
       tremble_frequency="3"
       nbtangents="2"
       tgt_places_rdmness="0.5;1"
       tgtlength="10"
       tgtlength_rdm="0.3;1"
       tgtscale="10" />
    <inkscape:path-effect
       effect="sketch"
       id="path-effect27"
       is_visible="true"
       lpeversion="1"
       nbiter_approxstrokes="3"
       parallel_offset="0.2;1"
       strokelength="70"
       strokelength_rdm="0.3;1"
       strokeoverlap="0.5"
       strokeoverlap_rdm="0.5;1"
       ends_tolerance="0.1;1"
       tremble_size="0.8;1"
       tremble_frequency="3"
       nbtangents="2"
       tgt_places_rdmness="0.5;1"
       tgtlength="10"
       tgtlength_rdm="0.3;1"
       tgtscale="10" />
    <inkscape:path-effect
       effect="sketch"
       id="path-effect25"
       is_visible="true"
       lpeversion="1"
       nbiter_approxstrokes="3"
       parallel_offset="0.2;1"
       strokelength="70"
       strokelength_rdm="0.3;1"
       strokeoverlap="0.5"
       strokeoverlap_rdm="0.5;1"
       ends_tolerance="0.1;1"
       tremble_size="0.8;1"
       tremble_frequency="3"
       nbtangents="2"
       tgt_places_rdmness="0.5;1"
       tgtlength="10"
       tgtlength_rdm="0.3;1"
       tgtscale="10" />
    <inkscape:path-effect
       effect="sketch"
       id="path-effect24"
       is_visible="true"
       lpeversion="1"
       nbiter_approxstrokes="3"
       parallel_offset="0.2;1"
       strokelength="70"
       strokelength_rdm="0.3;1"
       strokeoverlap="0.5"
       strokeoverlap_rdm="0.5;1"
       ends_tolerance="0.1;1"
       tremble_size="0.8;1"
       tremble_frequency="3"
       nbtangents="2"
       tgt_places_rdmness="0.5;1"
       tgtlength="10"
       tgtlength_rdm="0.3;1"
       tgtscale="10" />
    <inkscape:path-effect
       effect="sketch"
       id="path-effect22"
       is_visible="true"
       lpeversion="1"
       nbiter_approxstrokes="3"
       parallel_offset="0.2;1"
       strokelength="70"
       strokelength_rdm="0.3;1"
       strokeoverlap="0.5"
       strokeoverlap_rdm="0.5;1"
       ends_tolerance="0.1;1"
       tremble_size="0.8;1"
       tremble_frequency="3"
       nbtangents="2"
       tgt_places_rdmness="0.5;1"
       tgtlength="10"
       tgtlength_rdm="0.3;1"
       tgtscale="10" />
    <inkscape:path-effect
       effect="sketch"
       id="path-effect18"
       is_visible="true"
       lpeversion="1"
       nbiter_approxstrokes="3"
       parallel_offset="0.2;1"
       strokelength="70"
       strokelength_rdm="0.3;1"
       strokeoverlap="0.5"
       strokeoverlap_rdm="0.5;1"
       ends_tolerance="0.1;1"
       tremble_size="0.8;1"
       tremble_frequency="3"
       nbtangents="2"
       tgt_places_rdmness="0.5;1"
       tgtlength="10"
       tgtlength_rdm="0.3;1"
       tgtscale="10" />
    <inkscape:path-effect
       effect="sketch"
       id="path-effect15"
       is_visible="true"
       lpeversion="1"
       nbiter_approxstrokes="3"
       parallel_offset="0.2;1"
       strokelength="70"
       strokelength_rdm="0.3;1"
       strokeoverlap="0.5"
       strokeoverlap_rdm="0.5;1"
       ends_tolerance="0.1;1"
       tremble_size="0.8;1"
       tremble_frequency="3"
       nbtangents="2"
       tgt_places_rdmness="0.5;1"
       tgtlength="10"
       tgtlength_rdm="0.3;1"
       tgtscale="10" />
    <inkscape:path-effect
       effect="sketch"
       id="path-effect13"
       is_visible="true"
       lpeversion="1"
       nbiter_approxstrokes="3"
       parallel_offset="0.2;1"
       strokelength="70"
       strokelength_rdm="0.3;1"
       strokeoverlap="0.5"
       strokeoverlap_rdm="0.5;1"
       ends_tolerance="0.1;1"
       tremble_size="0.8;1"
       tremble_frequency="3"
       nbtangents="2"
       tgt_places_rdmness="0.5;1"
       tgtlength="10"
       tgtlength_rdm="0.3;1"
       tgtscale="10" />
    <inkscape:path-effect
       effect="sketch"
       id="path-effect12"
       is_visible="true"
       lpeversion="1"
       nbiter_approxstrokes="3"
       parallel_offset="0.2;1"
       strokelength="70"
       strokelength_rdm="0.3;1"
       strokeoverlap="0.5"
       strokeoverlap_rdm="0.5;1"
       ends_tolerance="0.1;1"
       tremble_size="0.8;1"
       tremble_frequency="3"
       nbtangents="2"
       tgt_places_rdmness="0.5;1"
       tgtlength="10"
       tgtlength_rdm="0.3;1"
       tgtscale="10" />
    <inkscape:path-effect
       effect="sketch"
       id="path-effect10"
       is_visible="true"
       lpeversion="1"
       nbiter_approxstrokes="3"
       parallel_offset="0.2;1"
       strokelength="70"
       strokelength_rdm="0.3;1"
       strokeoverlap="0.5"
       strokeoverlap_rdm="0.5;1"
       ends_tolerance="0.1;1"
       tremble_size="0.8;1"
       tremble_frequency="3"
       nbtangents="2"
       tgt_places_rdmness="0.5;1"
       tgtlength="10"
       tgtlength_rdm="0.3;1"
       tgtscale="10" />
    <rect
       x="49.999996"
       y="350"
       width="399.99997"
       height="148.66698"
       id="rect1" />
    <inkscape:path-effect
       effect="sketch"
       id="path-effect21"
       is_visible="true"
       lpeversion="1"
       nbiter_approxstrokes="3"
       parallel_offset="0.2;1"
       strokelength="70"
       strokelength_rdm="0.3;1"
       strokeoverlap="0.5"
       strokeoverlap_rdm="0.5;1"
       ends_tolerance="0.1;1"
       tremble_size="0.8;1"
       tremble_frequency="3"
       nbtangents="2"
       tgt_places_rdmness="0.5;1"
       tgtlength="10"
       tgtlength_rdm="0.3;1"
       tgtscale="10" />
    <inkscape:path-effect
       effect="sketch"
       id="path-effect9"
       is_visible="true"
       lpeversion="1"
       nbiter_approxstrokes="3"
       parallel_offset="0.2;1"
       strokelength="70"
       strokelength_rdm="0.3;1"
       strokeoverlap="0.5"
       strokeoverlap_rdm="0.5;1"
       ends_tolerance="0.1;1"
       tremble_size="0.8;1"
       tremble_frequency="3"
       nbtangents="2"
       tgt_places_rdmness="0.5;1"
       tgtlength="10"
       tgtlength_rdm="0.3;1"
       tgtscale="10" />
    <inkscape:path-effect
       effect="sketch"
       id="path-effect8"
       is_visible="true"
       lpeversion="1"
       nbiter_approxstrokes="3"
       parallel_offset="0.2;1"
       strokelength="70"
       strokelength_rdm="0.3;1"
       strokeoverlap="0.5"
       strokeoverlap_rdm="0.5;1"
       ends_tolerance="0.1;1"
       tremble_size="0.8;1"
       tremble_frequency="3"
       nbtangents="2"
       tgt_places_rdmness="0.5;1"
       tgtlength="10"
       tgtlength_rdm="0.3;1"
       tgtscale="10" />
    <inkscape:path-effect
       effect="sketch"
       id="path-effect20"
       is_visible="true"
       lpeversion="1"
       nbiter_approxstrokes="3"
       parallel_offset="0.2;1"
       strokelength="70"
       strokelength_rdm="0.3;1"
       strokeoverlap="0.5"
       strokeoverlap_rdm="0.5;1"
       ends_tolerance="0.1;1"
       tremble_size="0.8;1"
       tremble_frequency="3"
       nbtangents="2"
       tgt_places_rdmness="0.5;1"
       tgtlength="10"
       tgtlength_rdm="0.3;1"
       tgtscale="10" />
    <inkscape:path-effect
       effect="sketch"
       id="path-effect4"
       is_visible="true"
       lpeversion="1"
       nbiter_approxstrokes="3"
       parallel_offset="0.2;1"
       strokelength="70"
       strokelength_rdm="0.3;1"
       strokeoverlap="0.5"
       strokeoverlap_rdm="0.5;1"
       ends_tolerance="0.1;1"
       tremble_size="0.8;1"
       tremble_frequency="3"
       nbtangents="2"
       tgt_places_rdmness="0.5;1"
       tgtlength="10"
       tgtlength_rdm="0.3;1"
       tgtscale="10" />
    <inkscape:path-effect
       effect="sketch"
       id="path-effect3"
       is_visible="true"
       lpeversion="1"
       nbiter_approxstrokes="3"
       parallel_offset="0.2;1"
       strokelength="70"
       strokelength_rdm="0.3;1"
       strokeoverlap="0.5"
       strokeoverlap_rdm="0.5;1"
       ends_tolerance="0.1;1"
       tremble_size="0.8;1"
       tremble_frequency="3"
       nbtangents="2"
       tgt_places_rdmness="0.5;1"
       tgtlength="10"
       tgtlength_rdm="0.3;1"
       tgtscale="10" />
    <inkscape:path-effect
       effect="sketch"
       id="path-effect2"
       is_visible="true"
       lpeversion="1"
       nbiter_approxstrokes="4"
       parallel_offset="0.4;1"
       strokelength="50"
       strokelength_rdm="0.3;1"
       strokeoverlap="0.3"
       strokeoverlap_rdm="0.3;1"
       ends_tolerance="0.1;1"
       tremble_size="0.8;1"
       tremble_frequency="3"
       nbtangents="0"
       tgt_places_rdmness="1;1"
       tgtlength="100"
       tgtlength_rdm="0.3;1"
       tgtscale="10" />
    <inkscape:path-effect
       effect="sketch"
       id="path-effect1"
       is_visible="true"
       lpeversion="1"
       nbiter_approxstrokes="4"
       parallel_offset="0.5;1"
       strokelength="50"
       strokelength_rdm="0.3;1"
       strokeoverlap="0.3"
       strokeoverlap_rdm="0.3;1"
       ends_tolerance="0.1;1"
       tremble_size="0.8;1"
       tremble_frequency="3"
       nbtangents="0"
       tgt_places_rdmness="1;1"
       tgtlength="56.859206"
       tgtlength_rdm="0.3;1"
       tgtscale="10" />
    <inkscape:path-effect
       effect="sketch"
       id="path-effect11"
       is_visible="true"
       lpeversion="1"
       nbiter_approxstrokes="4"
       parallel_offset="0.7;1"
       strokelength="50"
       strokelength_rdm="0.3;1"
       strokeoverlap="0.3"
       strokeoverlap_rdm="0.3;1"
       ends_tolerance="0.1;1"
       tremble_size="0.8;1"
       tremble_frequency="3"
       nbtangents="0"
       tgt_places_rdmness="1;1"
       tgtlength="100"
       tgtlength_rdm="0.3;1"
       tgtscale="10" />
    <inkscape:path-effect
       effect="sketch"
       id="path-effect7"
       is_visible="true"
       lpeversion="1"
       nbiter_approxstrokes="3"
       parallel_offset="1;1"
       strokelength="50"
       strokelength_rdm="0.3;1"
       strokeoverlap="0.3"
       strokeoverlap_rdm="0.3;1"
       ends_tolerance="0.1;1"
       tremble_size="1.2;1"
       tremble_frequency="3"
       nbtangents="0"
       tgt_places_rdmness="1;1"
       tgtlength="100"
       tgtlength_rdm="0.3;1"
       tgtscale="10" />
    <rect
       x="223.77509"
       y="306.53192"
       width="415.43015"
       height="124.34706"
       id="rect6" />
    <inkscape:path-effect
       effect="sketch"
       id="path-effect6"
       is_visible="true"
       lpeversion="1"
       nbiter_approxstrokes="3"
       parallel_offset="1;1"
       strokelength="50"
       strokelength_rdm="0.3;1"
       strokeoverlap="0.3"
       strokeoverlap_rdm="0.3;1"
       ends_tolerance="0.1;1"
       tremble_size="1.2;1"
       tremble_frequency="3"
       nbtangents="0"
       tgt_places_rdmness="1;1"
       tgtlength="100"
       tgtlength_rdm="0.3;1"
       tgtscale="10" />
    <inkscape:path-effect
       effect="sketch"
       id="path-effect5"
       is_visible="true"
       lpeversion="1"
       nbiter_approxstrokes="3"
       parallel_offset="1;1"
       strokelength="50"
       strokelength_rdm="0.3;1"
       strokeoverlap="0.3"
       strokeoverlap_rdm="0.3;1"
       ends_tolerance="0.1;1"
       tremble_size="1.2;1"
       tremble_frequency="3"
       nbtangents="0"
       tgt_places_rdmness="1;1"
       tgtlength="100"
       tgtlength_rdm="0.3;1"
       tgtscale="10" />
    <inkscape:path-effect
       effect="sketch"
       id="path-effect12-0"
       is_visible="true"
       lpeversion="1"
       nbiter_approxstrokes="3"
       parallel_offset="0.2;1"
       strokelength="70"
       strokelength_rdm="0.3;1"
       strokeoverlap="0.5"
       strokeoverlap_rdm="0.5;1"
       ends_tolerance="0.1;1"
       tremble_size="0.8;1"
       tremble_frequency="3"
       nbtangents="2"
       tgt_places_rdmness="0.5;1"
       tgtlength="10"
       tgtlength_rdm="0.3;1"
       tgtscale="10" />
    <inkscape:path-effect
       effect="sketch"
       id="path-effect28-7"
       is_visible="true"
       lpeversion="1"
       nbiter_approxstrokes="3"
       parallel_offset="0.2;1"
       strokelength="70"
       strokelength_rdm="0.3;1"
       strokeoverlap="0.5"
       strokeoverlap_rdm="0.5;1"
       ends_tolerance="0.1;1"
       tremble_size="0.8;1"
       tremble_frequency="3"
       nbtangents="2"
       tgt_places_rdmness="0.5;1"
       tgtlength="10"
       tgtlength_rdm="0.3;1"
       tgtscale="10" />
  </defs>
  <g
     inkscape:label="Layer 1"
     inkscape:groupmode="layer"
     id="layer1">
    <g
       id="g3"
       style="stroke-width:1.05833334;stroke-dasharray:none" />
    <g
       id="g2"
       transform="matrix(0.8,0,0,0.8,95.296143,-92.09403)"
       style="stroke-width:1.32292;stroke-dasharray:none">
      <g
         id="g1"
         transform="translate(0,-144.34715)"
         style="stroke-width:1.32292;stroke-dasharray:none">
        <rect
           style="fill:#ffaaaa;stroke:none;stroke-width:1.32292;stroke-dasharray:none;stroke-opacity:1"
           id="path22"
           width="126.99999"
           height="58.737362"
           x="2.6458333"
           y="467.51889"
           ry="13.758205"
           sodipodi:type="rect" />
        <path
           id="rect24"
           style="fill:#ff8080;fill-opacity:1;stroke:none;stroke-width:1.32292;stroke-dasharray:none;stroke-opacity:1"
           d="m 9.6846803,469.26594 c -4.2041929,2.34897 -7.0388469,6.83436 -7.0388469,12.01116 v 31.22082 c 0,7.62204 6.1362952,13.75833 13.7583336,13.75833 H 115.8875 c 5.17679,0 9.66218,-2.83465 12.01115,-7.03884 -1.98585,1.10954 -4.27423,1.74719 -6.71948,1.74719 H 21.695834 c -7.622039,0 -13.7583339,-6.1363 -13.7583339,-13.75834 v -31.22083 c 0,-2.44525 0.637643,-4.73364 1.7471802,-6.71949 z" />
        <path
           style="fill:none;stroke:#000000;stroke-width:1.32292;stroke-dasharray:none;stroke-opacity:1"
           id="rect15"
           width="126.99999"
           height="58.737373"
           x="2.6458333"
           y="467.51886"
           ry="13.758205"
           sodipodi:type="rect"
           inkscape:path-effect="#path-effect25"
           d="m 21.275535,468.25144 c 8.009293,-0.17878 15.474099,0.003 23.091781,-0.006 7.620947,-0.009 15.422417,-0.13492 22.93958,-0.4 l 3e-6,0 c 3.106988,-0.10956 6.329619,-0.1193 9.611921,-0.0849 m -19.133503,-0.22612 c 7.543728,-0.0917 15.594629,-0.22809 23.47363,-0.66864 l 3e-6,0 c 7.882378,-0.44073 15.645821,0.13274 23.58958,0.3875 1.21669,0.039 2.42782,0.0684 3.63523,0.0907 m -13.590986,0.0997 c 6.741146,-0.11604 14.008736,-0.12629 21.478836,-0.31195 0.98798,-0.0246 1.95645,0.0359 2.89718,0.173 6.89992,1.00552 11.14464,6.95295 10.54933,14.19896 -0.13024,1.58528 -0.26016,3.17911 -0.37542,4.77612 -0.14572,2.01905 -0.20559,3.93333 -0.20423,5.77197 m -1.17156,-16.01815 c 0.56687,1.54838 0.88793,3.22894 0.90558,4.98637 0.0607,6.04494 0.41442,12.04144 0.83584,17.99096 0.30101,4.24976 0.28243,8.64112 0.22409,13.09377 -0.0489,3.73163 -1.51318,7.15955 -3.75603,9.7389 -2.4634,2.833 -6.08888,4.57959 -10.20454,4.6881 -2.95884,0.078 -5.95738,0.17373 -8.9812,0.3313 m 23.1163,-14.06346 c 0.002,0.10977 0.004,0.21946 0.006,0.32907 0.13015,7.68242 -6.20672,13.59371 -13.96818,13.18547 -0.46704,-0.0246 -0.93392,-0.0496 -1.40053,-0.0751 l -1e-5,0 c -7.92818,-0.43272 -15.642756,-0.16461 -23.589576,-0.50625 l -2e-6,0 c -4.318281,-0.18565 -8.479058,-0.10684 -12.565461,0.0741 m 22.504429,1.06352 c -7.512502,0.0769 -15.540592,-0.0379 -23.311173,-0.12509 l -3e-6,0 c -7.773912,-0.0872 -15.80498,-0.22448 -24.095831,-0.68125 -2.464899,-0.1358 -4.840604,-0.20469 -7.16786,-0.24282 m 16.047882,-0.17431 c -7.572621,0.0503 -15.348126,0.51611 -22.717343,1.55619 l -2e-6,0 c -7.372375,1.04053 -15.451124,-0.47419 -23.008331,-1.4375 -0.100954,-0.0129 -0.202026,-0.0253 -0.303216,-0.0374 -1.794778,-0.21341 -3.521164,-0.64311 -5.139672,-1.29104 m 14.791831,2.14851 c -3.253529,-0.0611 -6.555299,-0.0726 -9.8973,-0.066 -4.902496,0.01 -9.279198,-2.36877 -11.9749736,-6.06631 -1.5935865,-2.18576 -2.4809858,-4.83234 -2.4571625,-7.70044 0.042716,-5.14266 0.2857251,-10.34386 0.3902749,-15.61362 0.01721,-0.86747 0.033176,-1.7262 0.048501,-2.57731 m 0.6703826,13.14772 c 0.1039493,-7.66456 0.00653,-15.89424 0.024866,-24.36722 0.002,-0.92462 0.00191,-1.83199 -2.091e-4,-2.72484 -0.018253,-7.69831 5.5220412,-13.06504 12.5034183,-13.40378 0.266621,-0.0129 0.536262,-0.0176 0.808669,-0.0138 5.49986,0.0766 11.331311,0.208 17.1732,0.50936 M 22.23152,467.40017 c 7.803815,0.0477 15.859978,-0.14283 24.267046,-0.42506 8.410672,-0.28235 15.258401,0.0856 22.433333,0.2625 5.235731,0.12906 11.283638,0.0112 17.442488,-0.14791 m -27.107622,0.98689 c 7.845089,-0.0625 15.505228,-0.18303 23.191993,-0.55617 l 3e-6,0 c 7.690058,-0.37329 15.502873,-0.24206 23.183329,-0.7125 l 0,0 c 3.16209,-0.19368 6.38086,-0.20677 9.63677,-0.13854 0.43423,0.009 0.86443,0.0388 1.28959,0.088 m -20.530712,1.2629 c 6.331072,-0.0764 12.648792,-0.34772 18.972322,-0.96248 1.50206,-0.14602 2.9463,-0.0678 4.2984,0.19713 5.51907,1.08132 9.53749,6.85023 9.70411,13.75573 0.0554,2.29667 0.12099,4.61302 0.19732,6.89825 0.20572,6.15912 0.18925,11.32467 0.25261,16.53365 m -0.0594,-27.415 c 0.36652,1.23953 0.56526,2.54635 0.5732,3.89963 0.0392,6.6844 -0.12639,13.40296 -0.23048,20.56257 -0.0627,4.31161 -0.0364,8.19291 0.0319,11.94748 0.0715,3.92767 -1.59158,7.32338 -4.31163,9.73311 -2.34199,2.07479 -5.55744,3.39342 -9.15259,3.45977 -0.62264,0.0115 -1.24703,0.0247 -1.87284,0.0394 m 15.28172,-11.34024 c -0.97787,6.4392 -6.64123,11.49317 -13.42585,11.47224 -1.28159,-0.004 -2.55989,-0.011 -3.83378,-0.0234 l 0,0 c -7.62495,-0.0741 -15.494819,0.0916 -23.139585,0.26875 -1.574037,0.0365 -3.164366,0.0554 -4.767515,0.0614 m 13.175183,-0.32847 c -7.776358,0.10572 -15.355686,-0.3516 -22.742081,-1.06264 l -3e-6,0 c -7.389561,-0.71134 -15.786829,-0.0969 -24.02083,-0.28125 -3.0559,-0.0684 -5.971815,-0.0615 -8.817983,-0.007 m 18.785853,1.39979 c -7.842898,0.23705 -15.374762,0.0624 -22.804495,0.18095 -6.743609,0.10762 -14.002778,-0.14408 -21.006854,-0.49094 -0.728117,-0.0361 -1.439851,-0.1293 -2.130406,-0.27543 -5.8732688,-1.24286 -10.593652,-5.77414 -11.4847003,-11.6311 m 20.8812893,11.44278 c -2.615651,-0.001 -5.285362,0.0232 -7.996177,0.0729 -5.579213,0.10233 -10.5224057,-2.8462 -13.0803662,-7.14765 -1.0181759,-1.71216 -1.577373,-3.73686 -1.5879931,-5.95152 -0.027849,-5.80754 0.2960775,-12.10357 0.3884766,-18.38975 0.076534,-5.20682 0.067044,-9.7946 0.054738,-14.30355 -0.00665,-2.43757 0.6730768,-4.69669 1.8758039,-6.66804 M 3.249258,505.96823 c 0.2328078,-7.73053 -0.030506,-15.24749 -0.1002997,-22.41089 -0.00566,-0.58085 -0.013035,-1.16913 -0.022236,-1.76386 -0.1105789,-7.14712 5.6001898,-13.68897 12.3976639,-13.60938 0,0 1e-6,0 1e-6,0 0.05458,6.4e-4 0.109352,0.002 0.16432,0.003 6.535568,0.1645 14.593014,0.0187 22.219404,0.008 m -15.878483,-1.6505 c 7.547857,-0.24736 15.559543,0.026 23.367375,0.0878 l 2e-6,0 c 7.811179,0.0618 15.916566,0.2033 24.408332,0.6125 3.957617,0.19071 7.504651,0.17632 10.856612,0.082 m -21.013863,0.81188 c 7.965786,0.0936 15.648003,0.0389 23.623087,0.10613 7.978503,0.0672 15.215971,-0.40122 22.314577,-1.20625 l 10e-6,0 c 2.91686,-0.33079 6.10571,-0.34099 9.42467,-0.19753 2.47973,0.10718 4.88292,0.8944 6.99871,2.14877 m -26.067447,-1.01517 c 6.325387,0.0816 13.189567,-0.0945 20.219927,-0.36036 1.4115,-0.0534 2.78224,0.0715 4.0876,0.35213 6.28034,1.35 10.03882,6.77277 9.35027,13.09283 -0.20091,1.84417 -0.41389,3.67959 -0.61148,5.4924 -0.69768,6.40123 -0.0484,13.12244 0.49169,19.97158 m 0.0307,-29.63575 c 0.56734,1.52432 0.87719,3.18145 0.87346,4.91648 -0.0131,6.09646 0.0316,12.20234 0.0385,18.29756 0.005,4.30714 -0.0306,8.55397 -0.1001,12.73728 -0.0591,3.55642 -1.55505,6.7372 -3.96899,9.01703 -2.60894,2.464 -6.18801,4.09842 -10.16198,4.13932 -3.59028,0.037 -7.17272,0.12016 -10.81148,0.12955 m 24.79225,-14.97209 c -0.008,0.26744 -0.0155,0.53507 -0.0224,0.80289 -0.19459,7.5777 -6.0763,13.79075 -13.62064,13.85108 -0.2929,0.002 -0.58605,0.005 -0.87948,0.007 l 0,0 c -7.69624,0.0588 -15.743369,0.3776 -23.895831,1.125 l -2e-6,0 c -6.866213,0.62947 -13.045946,0.0793 -19.21384,-0.31564 m 29.750713,-0.49374 c -7.759833,-0.002 -15.480068,0.0651 -23.117101,0.20625 l -4e-6,0 c -7.640306,0.14124 -15.765838,-0.0891 -23.97083,-0.2625 -8.06428,-0.17047 -15.013926,-0.007 -22.070113,0.006 m 34.476436,-0.54015 c -7.776926,-0.0437 -16.019858,-0.0548 -24.73583,-0.16869 l -3e-6,0 c -8.719709,-0.1139 -15.087122,0.29989 -21.939581,0.90625 -1.191641,0.10544 -2.446297,0.16534 -3.749341,0.18923 -4.113965,0.0754 -8.2131039,-2.11505 -11.0401348,-5.43894 m 24.1585578,4.48696 c -4.704926,-0.11545 -9.363087,-0.0822 -14.043695,-0.0245 -3.326515,0.041 -6.3824849,-1.05959 -8.8136155,-2.95959 -3.1822678,-2.48703 -5.1240398,-6.25365 -5.0184428,-10.39876 0.090366,-3.54723 0.2278274,-7.02723 0.3579931,-10.42219 0.038049,-0.9924 0.067094,-2.01494 0.089305,-3.06238 m -0.6349035,12.15148 c -0.2224028,-8.01527 0.042827,-15.16427 0.1377864,-22.17303 0.02671,-1.97138 0.025906,-4.07861 0.0039,-6.27068 -0.060068,-5.98477 3.4826964,-11.57227 8.5255521,-13.77306 1.415821,-0.61789 2.986908,-0.95808 4.658755,-0.97731 3.237525,-0.0372 6.589554,0.0245 9.987782,0.10299 m 105.973063,41.74736 -5.2907,15.19098 M 3.0953051,520.4961 2.2457177,506.16971" />
      </g>
      <path
         style="fill:#ffffff;stroke:none;stroke-width:1.32292;stroke-dasharray:none"
         d="m 74.083324,280.15633 26.458336,13.22917 v 18.52083 L 74.083324,298.67717 Z"
         id="path30"
         sodipodi:nodetypes="ccccc" />
      <circle
         id="circle28"
         style="fill:#ffffff;stroke:none;stroke-width:1.32292;stroke-dasharray:none"
         cx="55.5625"
         cy="352.00089"
         r="18.520826" />
      <path
         id="circle29"
         style="fill:#cccccc;fill-opacity:1;stroke:none;stroke-width:1.32292;stroke-dasharray:none"
         d="m 45.391542,336.53843 a 18.520826,18.520826 0 0 0 -8.349878,15.46262 18.520826,18.520826 0 0 0 18.520834,18.52083 18.520826,18.520826 0 0 0 15.462622,-8.35039 18.520826,18.520826 0 0 1 -10.170956,3.05873 18.520826,18.520826 0 0 1 -18.520833,-18.52084 18.520826,18.520826 0 0 1 3.058211,-10.17095 z" />
      <path
         id="path31"
         style="fill:#cccccc;fill-opacity:1;stroke:none;stroke-width:1.32292;stroke-dasharray:none"
         d="m 74.083331,280.15634 v 18.52083 l 26.458329,13.22917 v -8.59896 c 0,0 -16.986482,-3.34578 -21.166662,-9.92188 -1.774209,-2.79112 0,-9.92187 0,-9.92187 z"
         sodipodi:nodetypes="ccccacc" />
      <g
         id="g32"
         inkscape:path-effect="#path-effect32"
         transform="translate(2.2222225e-8,62.2368)"
         style="stroke-width:1.32292;stroke-dasharray:none">
        <path
           id="circle11"
           style="fill:none;stroke:#000000;stroke-width:1.32292;stroke-dasharray:none"
           d="m 73.828202,295.01706 c -1.721007,7.61885 -8.815712,13.44348 -16.990503,13.9554 -0.408142,0.0256 -0.816544,0.0378 -1.224636,0.0367 -7.741396,-0.0205 -14.555212,-4.79402 -17.598629,-12.11959 -0.932088,-2.24356 -1.388386,-4.57814 -1.366617,-6.90112 0.0084,-0.89295 0.08735,-1.78022 0.235258,-2.65578 m 6.351976,16.71385 c -4.410058,-3.58016 -6.787355,-8.90127 -6.683502,-14.61274 0.04433,-2.438 0.539555,-4.87349 1.443864,-7.19193 2.903997,-7.44519 9.719494,-11.58672 17.430448,-11.30875 0.434135,0.0156 0.868625,0.0453 1.302779,0.0886 1.214856,0.12126 2.4132,0.34738 3.580942,0.67855 m -13.246431,1.35851 c 2.479353,-1.29152 5.298928,-1.96776 8.22063,-1.99918 5.205688,-0.056 10.375968,1.93031 14.33193,5.37897 3.762309,3.27985 5.419028,8.07941 5.04528,13.18695 -0.238867,3.26428 -1.296082,6.53874 -2.982488,9.51558 -1.021211,1.80263 -2.195551,3.35957 -3.511593,4.65125 m 4.10614,-7.82336 c -2.849377,7.25246 -9.374023,12.00337 -16.604597,11.8539 -0.254923,-0.005 -0.509657,-0.0167 -0.764015,-0.0343 0,0 -2e-6,0 -2e-6,0 -7.498933,-0.5184 -14.873115,-5.70961 -16.895796,-13.18516 0,0 -10e-7,0 -10e-7,0 -0.41357,-1.5285 -0.632149,-3.12085 -0.647315,-4.72585 -0.04652,-4.92247 1.823008,-9.6729 5.201168,-12.89201 m 1.221767,27.21683 c -3.838672,-3.44882 -6.152637,-8.58625 -6.25497,-14.07581 -0.05023,-2.6946 0.434472,-5.38284 1.434153,-7.89226 2.826822,-7.09596 9.515299,-11.20684 16.710723,-11.44003 0.647715,-0.021 1.293517,-0.0104 1.934422,0.0309 4.149808,0.26703 8.176565,2.25614 11.314523,5.47096 m -20.081794,-2.94889 c 2.384977,-0.9584 4.890544,-1.4602 7.396205,-1.46776 5.371272,-0.0162 10.353765,2.23728 13.874654,6.22645 2.92817,3.31762 4.463115,7.57069 4.29729,11.90092 -0.125629,3.28059 -1.223743,6.46504 -3.198363,9.15884 -1.355233,1.84882 -2.979026,3.51867 -4.839102,4.88811 m 6.062922,-9.06633 c -2.317053,7.66231 -9.392437,13.16051 -16.98094,14.22238 -0.05204,0.007 -0.104062,0.0143 -0.156061,0.0212 0,0 -1e-6,0 -1e-6,0 -7.615409,1.00348 -15.044207,-5.83757 -17.192689,-14.44775 0,0 -1e-6,-1e-5 -1e-6,-1e-5 -0.502987,-2.01575 -0.771036,-3.9666 -0.785556,-5.83529 0,1e-5 -2.11e-4,-0.03 -2.11e-4,-0.03 m 5.617452,14.64547 c -3.690413,-3.59736 -5.880755,-8.43805 -6.062733,-13.51439 -0.09839,-2.74456 0.395208,-5.45228 1.438009,-7.94563 2.701291,-6.4588 9.569215,-10.65901 16.894333,-10.89811 0.850488,-0.0278 1.697783,-0.002 2.534967,0.0774 0.845799,0.08 1.681941,0.2248 2.503197,0.43199 m -11.461376,1.55072 c 2.313447,-0.92762 4.773197,-1.44485 7.251015,-1.5137 5.402445,-0.15011 10.474853,1.84088 14.010852,5.4471 2.904055,2.96173 4.452083,7.32784 4.359243,11.90957 -0.07146,3.5266 -1.110774,7.03774 -3.012251,9.98941 -3.387372,5.25823 -8.701943,8.66926 -14.586569,9.34628 M 40.335509,303.02491 35.47746,287.69009 m 24.645788,-17.25763 11.834145,8.11913"
           sodipodi:type="arc"
           sodipodi:cx="55.5625"
           sodipodi:cy="289.7641"
           sodipodi:rx="18.520826"
           sodipodi:ry="18.520826" />
        <path
           style="fill:none;stroke:#000000;stroke-width:1.32292;stroke-dasharray:none"
           d="m 73.320865,293.38147 c 0.02937,-7.72675 0.311088,-15.69172 0.943711,-23.74839 0.632895,-8.06013 -0.297155,-15.46992 -0.900001,-23.07083 -0.439912,-5.54658 -0.06765,-11.34008 0.415561,-17.17484 m -0.05453,28.03998 c 0.07064,-7.83697 -0.04366,-15.73192 -0.131342,-23.8795 -0.05875,-5.45894 -0.06243,-10.69158 -0.08769,-16.03021 2.285188,1.08486 4.56513,2.14394 6.830632,3.13738 3.196817,1.40184 6.466271,3.03509 9.780014,4.75576 m -16.926058,-5.34514 c 0.001,-0.55486 0.002,-1.11119 0.0028,-1.66909 6.474367,3.10436 12.933448,5.93693 19.405892,8.27573 2.359455,0.85258 4.733207,1.98289 7.122581,3.27902 0.06492,5.37408 0.189393,11.38036 0.383301,17.18581 0.0388,1.16262 0.0697,2.28984 0.0948,3.38862 -3.851904,-1.68438 -7.812518,-3.89381 -11.720598,-6.07467 m 12.343208,-8.24364 c 0.0869,4.46147 0.0592,8.90248 -0.004,13.44388 -3.127471,-1.37388 -6.277271,-2.68449 -9.409807,-3.87134 -5.844926,-2.21453 -11.450238,-5.58812 -17.023267,-8.77876 0.03575,1.29037 0.07295,2.58893 0.109628,3.90837 0.10677,3.84082 0.0699,7.82908 -0.02685,11.87695 m 4.625486,-13.32447 c -1.569958,-0.83032 -3.14418,-1.64627 -4.719818,-2.45338 0.0402,5.95441 0.06423,12.00976 0.182123,17.95212 l 0,1e-5 c 0.152834,7.70366 0.06074,15.64712 0.193752,23.60208 l 0,0 c 0.02739,1.6379 0.03848,3.25829 0.03676,4.8657 m -1.197697,-14.70136 c -0.0019,7.88016 0.193204,15.19729 0.581254,22.2607 0.05194,0.94539 0.08584,1.91451 0.104508,2.90228 0.120871,-7.07905 -0.39682,-13.37658 -0.792009,-20.2735 -0.169319,-2.95501 -0.198655,-5.83463 -0.158243,-8.66704 m 0.797218,26.71639 c -0.06845,-7.5374 0.174126,-15.48652 0.518837,-23.14239 0.34486,-7.65915 0.06338,-15.75484 0.1875,-23.93333 0.09319,-6.14057 0.03406,-11.80232 -0.0157,-17.49411 m -0.698221,27.25851 c 0.105805,-7.77842 -0.253072,-15.33413 -0.750137,-22.68583 -0.283737,-4.19652 -0.223747,-8.80094 -0.09645,-13.57711 3.083151,1.23903 6.204425,2.38077 9.245987,3.52591 5.937944,2.23561 11.711358,5.6552 17.540329,8.82986 -3e-4,0.65678 -8e-5,1.31125 8.6e-4,1.96213 M 74.686749,218.44642 c 0.01048,-0.34811 0.01996,-0.69579 0.02849,-1.04303 6.821533,3.38085 13.218942,6.96222 19.792833,10.86602 2.157033,1.28092 4.288442,2.45102 6.387873,3.56654 -0.17427,5.39885 -0.50232,10.53522 -1.051165,16.00188 -0.08548,0.85139 -0.150731,1.69864 -0.198704,2.54244 -6.173698,-2.80732 -11.297544,-5.82467 -16.765702,-8.73366 m 17.353181,-6.66157 c -0.13321,4.42483 -0.10612,9.02961 -0.0544,13.66558 -2.829655,-1.38688 -5.647191,-2.75843 -8.499355,-4.16591 -5.924936,-2.92383 -11.634394,-5.78936 -17.070605,-8.47866 0.08716,1.16998 0.182086,2.34496 0.285042,3.5255 0.332756,3.81557 0.254929,7.42604 -0.01797,10.95657 m 4.56657,-10.75002 c -1.735754,-0.86841 -3.490191,-1.74659 -5.253563,-2.62997 0.06225,5.80513 0.04957,11.56665 0.198714,17.39551 0.200727,7.84501 -0.339582,15.15433 -1.018748,22.12708 l 0,0 c -0.478891,4.9166 -0.156841,10.77724 0.24911,16.73836 m 0.03186,-25.72733 c -0.213831,7.872 0.342117,15.37578 1.031526,22.7982 0.122373,1.31752 0.188072,2.65527 0.208688,4.0074 0.09558,-6.52695 -0.777796,-12.74466 -1.464938,-19.23574 -0.697687,-6.59068 -0.04844,-12.86138 0.491688,-19.00415 m 0.930102,33.50363 c -0.06652,-7.78484 0.0038,-15.54542 0.01258,-23.32332 0.0088,-7.78124 -0.113635,-15.75895 -0.33125,-23.95208 l -10e-7,-1e-5 c -0.204703,-7.70697 -0.09607,-14.69519 -0.223025,-21.99224 m 0.303976,32.7587 c -0.232797,-7.83678 0.04379,-15.5138 0.125299,-23.2295 0.04367,-4.13363 -0.01329,-8.19268 -0.133173,-12.15127 3.127301,1.79476 6.207267,3.6651 9.264509,5.62789 5.287188,3.39445 11.19884,5.71586 17.149637,8.12227 0.0176,0.28409 0.0352,0.56838 0.0529,0.85299 M 74.344111,217.9046 c 6.968285,3.47481 13.976168,7.01875 21.067254,10.63676 1.826747,0.93205 3.62132,1.83946 5.390645,2.72954 -0.0635,5.75888 -0.33689,11.37375 -0.6541,17.01996 -0.0219,0.38973 -0.0408,0.78037 -0.0568,1.17184 -6.771768,-3.37023 -12.599331,-6.4632 -18.522615,-9.69148 m 19.463755,-3.53675 c -0.001,4.21544 -0.14126,8.44056 -0.42088,12.65344 -3.395122,-1.603 -6.887397,-3.2145 -10.477482,-4.84725 -6.423514,-2.92136 -11.291284,-5.49374 -16.129403,-7.89736 0.188158,1.55014 0.377879,3.10917 0.550684,4.67492 0.639445,5.79389 0.283771,10.86859 -0.149039,15.82188 m 4.578534,-18.47657 c -1.668316,-0.86756 -3.329306,-1.71183 -4.987261,-2.54051 -0.04595,5.91469 -0.06023,11.99211 -0.187546,17.97276 l 0,0 c -0.166797,7.83536 0.138962,15.88093 0.412502,24.30208 0.03805,1.17139 0.06709,2.31263 0.0893,3.42897 m -0.634904,-13.87181 c -0.222402,7.53362 0.04283,15.9335 0.137788,24.47364 0.01428,1.28433 0.0207,2.52983 0.02021,3.74429 -0.0027,-6.35266 -0.225917,-13.69692 -0.495213,-20.62504 -0.197851,-5.09009 -0.06154,-9.8655 0.178632,-14.60308 m 27.023452,-26.37129 v 14.91407 m -16.67559,-26.17671 17.00809,8.50405"
           id="path28"
           sodipodi:nodetypes="cccccc"
           inkscape:original-d="m 74.083327,294.6487 -3e-6,-76.72917 26.458336,13.22917 v 18.52083 L 74.083324,236.44037 Z" />
      </g>
      <g
         id="g4"
         style="stroke-width:1.32292;stroke-dasharray:none">
        <text
           xml:space="preserve"
           style="font-style:normal;font-variant:normal;font-weight:normal;font-stretch:normal;font-size:21.1667px;font-family:Quicksand;-inkscape-font-specification:'Quicksand, Normal';font-variant-ligatures:normal;font-variant-caps:normal;font-variant-numeric:normal;font-variant-east-asian:normal;fill:#1a1a1a;stroke:none;stroke-width:1.32292;stroke-dasharray:none"
           x="65.923584"
           y="428.0939"
           id="text1"><tspan
             sodipodi:role="line"
             style="font-style:normal;font-variant:normal;font-weight:bold;font-stretch:normal;font-size:17.6389px;font-family:Sans;-inkscape-font-specification:'Sans, Bold';font-variant-ligatures:normal;font-variant-caps:normal;font-variant-numeric:normal;font-variant-east-asian:normal;text-align:center;text-anchor:middle;stroke:none;stroke-width:1.32292;stroke-dasharray:none"
             x="65.923584"
             y="428.0939"
             id="tspan3">Musik</tspan><tspan
             sodipodi:role="line"
             style="font-style:normal;font-variant:normal;font-weight:normal;font-stretch:normal;font-size:17.6389px;font-family:Sans;-inkscape-font-specification:'Sans, Normal';font-variant-ligatures:normal;font-variant-caps:normal;font-variant-numeric:normal;font-variant-east-asian:normal;text-align:center;text-anchor:middle;stroke:none;stroke-width:1.32292;stroke-dasharray:none"
             x="65.923584"
             y="454.55228"
             id="tspan13">~ $21 Mia</tspan></text>
        <path
           style="fill:none;stroke:#000000;stroke-width:1.32292;stroke-dasharray:none;stroke-opacity:1"
           id="path25"
           width="126.99999"
           height="79.110413"
           x="2.6458333"
           y="2.9104168"
           ry="13.758205"
           sodipodi:type="rect"
           inkscape:path-effect="#path-effect28-7"
           d="m 21.275535,3.6429992 c 8.009293,-0.1787808 15.474099,0.0028 23.091781,-0.00602 7.620947,-0.00883 15.422417,-0.1349239 22.93958,-0.3999999 l 3e-6,-1e-7 c 3.106988,-0.109561 6.329619,-0.1193055 9.611921,-0.084937 M 57.785317,2.925924 c 7.543728,-0.091666 15.594629,-0.2280872 23.47363,-0.6686322 l 3e-6,10e-8 c 7.882378,-0.4407338 15.645821,0.1327321 23.58958,0.3874999 1.21669,0.039021 2.42782,0.068354 3.63523,0.090739 M 94.892774,2.8352482 C 101.63392,2.719207 108.90151,2.708961 116.37161,2.5232929 c 0.98798,-0.024556 1.95645,0.03591 2.89718,0.173002 6.89992,1.0055184 11.14464,6.9529516 10.54933,14.1989601 -0.13024,1.585282 -0.26016,3.179108 -0.37542,4.77612 -0.14572,2.01905 -0.20559,3.933332 -0.20423,5.771968 m -1.17156,-16.018144 c 0.56687,1.548374 0.88793,3.228939 0.90558,4.986364 0.0607,6.044943 0.41442,12.041446 0.83584,17.990962 l 0,2e-6 c 0.53991,7.622546 0.0516,15.700605 0.15,23.770831 0.0424,3.475492 0.005,6.895888 -0.0902,10.331684 -0.098,3.550639 -1.51344,6.809566 -3.78596,9.397534 m 4.1248,-29.711443 c 0.12723,6.987788 -0.0352,13.652234 -0.17848,20.19532 -0.0185,0.846683 -0.12052,1.672056 -0.29806,2.468771 -1.33859,6.007171 -6.88255,10.916553 -13.69634,10.777821 -1.46276,-0.02978 -2.93067,-0.0722 -4.4066,-0.135653 -4.31828,-0.185647 -8.47906,-0.106831 -12.56546,0.07407 m 22.38893,0.13086 c -1.4941,0.618832 -3.14904,0.957167 -4.90056,0.95791 -6.01025,0.0025 -12.23109,-0.08231 -18.295114,-0.150342 l -3e-6,0 c -7.773912,-0.08722 -15.804979,-0.22448 -24.09583,-0.68125 -2.4649,-0.135799 -4.840604,-0.204689 -7.167861,-0.242818 m 16.047883,-0.174305 c -7.572622,0.05034 -15.348127,0.516104 -22.717343,1.556185 l -3e-6,0 c -7.372375,1.040527 -15.451124,-0.474187 -23.008331,-1.4375 -1.821691,-0.232209 -3.682081,-0.327162 -5.571818,-0.325429 m 14.920761,1.145555 c -7.743442,-0.14553 -15.76014,-0.0096 -23.942123,-0.01856 -2.402806,-0.0026 -4.728683,-0.01601 -7.008432,-0.04107 C 9.8834898,82.226625 5.174348,78.487991 3.2899757,73.160228 3.0064683,72.358656 2.7891147,71.531143 2.6456963,70.68417 M 10.471227,81.04176 C 6.1319406,78.823577 3.1207559,74.079921 3.1043891,68.421928 c -0.0085,-2.940071 -0.016646,-5.925492 -0.010118,-8.941744 0.018346,-8.476613 -0.139325,-15.503585 -0.41875,-23.183331 l 0,-3e-6 C 2.4617937,30.422752 2.6304717,24.602783 2.8106401,18.96989 M 1.8833709,46.692092 C 1.9127414,38.96534 2.1944596,31.000373 2.8270833,22.943698 3.0120375,20.588243 3.063514,18.288327 3.0286857,16.022952 2.9389234,10.184445 5.9787348,5.4237443 10.689591,3.5575503 12.108435,2.9954789 13.73057,2.6844036 15.489716,2.6842085 19.45101,2.6837689 23.707028,2.5926205 28.017386,2.4812575 M 22.636261,3.468149 C 30.48135,3.405626 38.141488,3.2851143 45.828253,2.9119793 l 2e-6,0 c 7.69006,-0.3732948 15.502876,-0.2420611 23.183332,-0.7125 3.579504,-0.2192497 7.231644,-0.2070874 10.928074,-0.1075016 M 59.407234,3.4118586 c 7.789004,-0.093963 15.5578,-0.4830281 23.342064,-1.4436293 7.7876,-0.9610129 15.699834,0.4991075 23.770832,1.4999997 l 0,3e-7 c 3.08942,0.3831223 6.11271,0.4704989 9.1189,0.4305363 2.62416,-0.034884 5.05094,0.5509248 7.15028,1.6828387 M 97.326287,2.4497739 c 6.406853,0.1850174 12.573123,0.3270578 18.739653,0.7940266 1.5132,0.1145889 2.96712,0.4951625 4.32507,1.107549 5.36459,2.4192389 9.35188,7.2114885 9.50345,12.9882865 0.0512,1.952575 0.10814,3.908825 0.16387,5.913283 0.10677,3.840822 0.0699,7.829081 -0.0269,11.876947 m -0.50379,-21.00232 c 0.25023,0.998995 0.38612,2.047133 0.39444,3.129847 0.0509,6.624322 0.0654,13.406084 0.19714,20.046751 0.15284,7.703668 0.0607,15.64712 0.19375,23.60208 l 0,3e-6 c 0.0274,1.637905 0.0385,3.258289 0.0368,4.865697 m -1.1977,-14.701357 c -0.001,5.985513 0.11077,11.646185 0.33487,17.117567 0.0736,1.798007 -0.24217,3.486638 -0.87013,4.991447 -1.8408,4.411238 -6.89276,7.945715 -12.88799,8.024252 -2.57776,0.03377 -5.17558,0.0545 -7.75734,-0.0033 -3.0559,-0.06843 -5.97181,-0.06146 -8.81798,-0.0073 m 18.77896,1.255899 c -0.66034,0.114982 -1.33373,0.181501 -2.01677,0.196514 -7.11845,0.156456 -13.99227,0.01998 -20.780832,0.12832 l -3e-6,0 c -7.432917,0.118627 -15.492177,-0.199286 -23.14583,-0.6 -5.746511,-0.300863 -11.645346,-0.122908 -17.534819,0.02501 m 26.939981,-0.379699 c -7.668639,-0.004 -15.80196,0.214765 -24.07347,0.637505 l -3e-6,0 c -8.275055,0.42292 -15.494307,-0.407106 -23.14583,-1.21875 -6.001668,-0.636634 -12.147364,-0.236826 -18.256827,0.0291 -1.078271,0.04693 -2.125352,-0.03407 -3.128145,-0.234584 m 33.589784,0.464912 c -7.541636,0.04391 -15.579394,0.301398 -23.423633,0.912444 -2.034401,0.158475 -4.086356,0.241036 -6.159469,0.279564 C 10.48712,82.806713 5.0001926,78.57092 2.6194551,73.197044 2.0391598,71.887183 1.7141086,70.473136 1.6710128,68.994301 1.5014334,63.175184 2.0837128,57.208717 2.3838861,51.331031 M 10.218893,79.740995 C 5.4053033,77.381842 2.2377174,72.704563 2.3052408,67.271577 c 0.031678,-2.548831 0.06541,-5.094075 0.07653,-7.662785 0.033402,-7.715932 0.361012,-15.352256 1.0749998,-22.720831 l 2e-7,-2e-6 C 3.7895274,33.453808 3.7116999,29.814552 3.4387994,26.095362 M 2.650767,47.133076 C 2.8421083,39.452214 2.7498808,31.623109 2.9505208,23.915872 3.0066153,21.7611 3.0048373,19.56449 2.9583292,17.330391 2.8303484,11.182604 6.1668846,5.7597138 10.973417,3.2544061 12.306227,2.5597057 13.821338,2.1802926 15.457384,2.153826 19.286807,2.0918766 23.412175,2.3789786 27.579542,2.7163841 M 21.904644,3.3667925 C 29.465258,3.4643514 37.79565,3.1936885 46.259503,2.8416668 54.726984,2.4894943 61.394166,2.7800902 68.336584,2.6666669 l 3e-6,-1e-7 C 74.134855,2.5719362 81.280056,2.7971973 88.31614,3.1503759 M 59.209906,3.4416535 c 7.707923,-0.010391 15.552719,0.00347 23.335919,1.33e-5 C 90.33236,3.438206 97.987744,3.2382705 105.54791,2.822917 l 0,-2e-7 c 3.49442,-0.1919828 7.0645,-0.2104236 10.6451,-0.1772367 3.92102,0.036342 7.46103,1.7641527 9.89949,4.4061903 M 94.413884,2.3743991 c 7.113746,-0.058799 14.680706,0.024551 22.109666,0.083495 0.45167,0.00358 0.89769,0.028033 1.33702,0.072394 7.0543,0.7122978 12.32996,6.8140143 12.0145,14.5511491 -0.0446,1.0936 -0.0915,2.194066 -0.14018,3.301767 -0.31557,7.180115 0.0553,13.180628 0.43809,19.336293 M 127.67209,9.3565009 c 1.28137,2.0884681 2.0242,4.5534771 2.03941,7.2055251 0.0303,5.284823 0.0852,10.601968 0.17808,15.952968 l 0,3e-6 c 0.13747,7.919018 -0.21029,15.466497 -0.6375,23.07083 -0.22876,4.07179 -0.12668,8.242674 0.10876,12.434312 0.20799,3.702933 -0.93219,7.064088 -3.00622,9.535296 m 3.78183,-34.025989 c -0.002,7.730741 -0.47097,15.494039 -1.4125,23.154639 -0.028,0.227487 -0.0539,0.455438 -0.0777,0.683845 -0.39726,3.798385 -1.76499,7.264165 -3.96088,9.922352 -2.17794,2.636458 -5.10854,4.384111 -8.44922,4.672788 -0.29672,0.02564 -0.59413,0.05167 -0.89246,0.07807 -4.73541,0.419024 -10.46595,0.118871 -16.273621,-0.3027 m 25.047421,-3.199676 c -2.33623,1.650705 -5.21388,2.652151 -8.33921,2.6678 -4.85461,0.02431 -9.70623,0.123871 -14.63246,0.159576 l 0,0 c -7.944572,0.05758 -15.41659,0.325379 -22.920827,0.96875 l -2e-6,0 c -1.043843,0.08949 -2.096691,0.148848 -3.156373,0.183293 m 12.376743,-0.860166 c -7.996847,-0.24082 -15.506062,0.384618 -23.185547,1.15031 l -3e-6,0 C 56.577005,83.57435 48.546166,82.621884 40.451451,82.245829 35.39827,82.011075 30.679247,82.090997 26.064094,82.208739 M 50.705771,82.086396 C 42.947838,82.040583 35.016224,81.995744 26.957417,81.823954 23.116597,81.74208 19.386465,81.759496 15.6761,81.819776 11.351855,81.890029 7.5275103,80.036362 4.9318364,77.035739 3.6907098,75.600985 2.7748032,73.900345 2.2718186,72.035813 M 13.277724,81.696474 C 6.8816882,80.240728 2.3721788,74.919235 2.826479,68.507069 2.9268739,67.090057 3.0363159,65.675371 3.1520833,64.257994 l 0,-2e-6 c 0.608095,-7.445106 0.079379,-15.719752 0.2374999,-23.82083 l 10e-8,-2e-6 c 0.082587,-4.231222 -0.05112,-8.212062 -0.333729,-12.079991 M 1.9804413,50.536526 C 2.1616124,42.818079 2.3415357,34.833176 3.0739583,26.750621 3.385313,23.314705 3.3976154,19.957436 3.2802772,16.608268 3.1114287,11.788847 5.0991167,7.580478 8.5379615,4.9031731 10.609724,3.2902072 13.205102,2.4179977 16.019345,2.5179361 20.780638,2.6870177 25.588633,3.1310604 30.171254,3.59264 M 130.91471,62.996096 127.8783,78.792855 M 2.6458333,62.18772 V 47.836157"
           transform="translate(-0.12943604,392.66621)" />
      </g>
    </g>
  </g>
</svg>
