<?xml version="1.0" encoding="UTF-8" standalone="no"?>
<svg
   height="80"
   width="320"
   version="1.1"
   id="svg1"
   sodipodi:docname="application.svg"
   inkscape:version="1.3.2 (091e20ef0f, 2023-11-25, custom)"
   xmlns:inkscape="http://www.inkscape.org/namespaces/inkscape"
   xmlns:sodipodi="http://sodipodi.sourceforge.net/DTD/sodipodi-0.dtd"
   xmlns="http://www.w3.org/2000/svg"
   xmlns:svg="http://www.w3.org/2000/svg">
  <defs
     id="defs1">
    <inkscape:path-effect
       effect="sketch"
       id="path-effect10"
       is_visible="true"
       lpeversion="1"
       nbiter_approxstrokes="3"
       parallel_offset="0.2;1"
       strokelength="70"
       strokelength_rdm="0.3;1"
       strokeoverlap="0.5"
       strokeoverlap_rdm="0.5;1"
       ends_tolerance="0.1;1"
       tremble_size="0.8;1"
       tremble_frequency="3"
       nbtangents="2"
       tgt_places_rdmness="0.5;1"
       tgtlength="5"
       tgtlength_rdm="0.3;1"
       tgtscale="10" />
    <inkscape:path-effect
       effect="sketch"
       id="path-effect9"
       is_visible="true"
       lpeversion="1"
       nbiter_approxstrokes="3"
       parallel_offset="0.2;1"
       strokelength="70"
       strokelength_rdm="0.3;1"
       strokeoverlap="0.5"
       strokeoverlap_rdm="0.5;1"
       ends_tolerance="0.1;1"
       tremble_size="0.8;1"
       tremble_frequency="3"
       nbtangents="2"
       tgt_places_rdmness="0.5;1"
       tgtlength="5"
       tgtlength_rdm="0.3;1"
       tgtscale="10" />
    <inkscape:path-effect
       effect="sketch"
       id="path-effect8"
       is_visible="true"
       lpeversion="1"
       nbiter_approxstrokes="3"
       parallel_offset="0.2;1"
       strokelength="70"
       strokelength_rdm="0.3;1"
       strokeoverlap="0.5"
       strokeoverlap_rdm="0.5;1"
       ends_tolerance="0.1;1"
       tremble_size="0.8;1"
       tremble_frequency="3"
       nbtangents="2"
       tgt_places_rdmness="0.5;1"
       tgtlength="5"
       tgtlength_rdm="0.3;1"
       tgtscale="10" />
    <inkscape:path-effect
       effect="sketch"
       id="path-effect4"
       is_visible="true"
       lpeversion="1"
       nbiter_approxstrokes="3"
       parallel_offset="0.2;1"
       strokelength="70"
       strokelength_rdm="0.3;1"
       strokeoverlap="0.5"
       strokeoverlap_rdm="0.5;1"
       ends_tolerance="0.1;1"
       tremble_size="0.8;1"
       tremble_frequency="3"
       nbtangents="2"
       tgt_places_rdmness="0.5;1"
       tgtlength="5"
       tgtlength_rdm="0.3;1"
       tgtscale="10" />
    <inkscape:path-effect
       effect="sketch"
       id="path-effect3"
       is_visible="true"
       lpeversion="1"
       nbiter_approxstrokes="3"
       parallel_offset="2;1"
       strokelength="70"
       strokelength_rdm="0.3;1"
       strokeoverlap="0.5"
       strokeoverlap_rdm="0.5;1"
       ends_tolerance="0.1;1"
       tremble_size="0.8;1"
       tremble_frequency="3"
       nbtangents="2"
       tgt_places_rdmness="0.5;1"
       tgtlength="5"
       tgtlength_rdm="0.3;1"
       tgtscale="10" />
    <inkscape:path-effect
       effect="sketch"
       id="path-effect2"
       is_visible="true"
       lpeversion="1"
       nbiter_approxstrokes="3"
       parallel_offset="2;1"
       strokelength="70"
       strokelength_rdm="0.3;1"
       strokeoverlap="0.5"
       strokeoverlap_rdm="0.5;1"
       ends_tolerance="0.1;1"
       tremble_size="0.8;1"
       tremble_frequency="3"
       nbtangents="2"
       tgt_places_rdmness="0.5;1"
       tgtlength="5"
       tgtlength_rdm="0.3;1"
       tgtscale="10" />
    <inkscape:path-effect
       effect="sketch"
       id="path-effect6"
       is_visible="true"
       lpeversion="1"
       nbiter_approxstrokes="3"
       parallel_offset="0.2;1"
       strokelength="70"
       strokelength_rdm="0.3;1"
       strokeoverlap="0.5"
       strokeoverlap_rdm="0.5;1"
       ends_tolerance="0.1;1"
       tremble_size="0.8;1"
       tremble_frequency="3"
       nbtangents="2"
       tgt_places_rdmness="0.5;1"
       tgtlength="5"
       tgtlength_rdm="0.3;1"
       tgtscale="10" />
    <inkscape:path-effect
       effect="sketch"
       id="path-effect5"
       is_visible="true"
       lpeversion="1"
       nbiter_approxstrokes="3"
       parallel_offset="0.2;1"
       strokelength="70"
       strokelength_rdm="0.3;1"
       strokeoverlap="0.5"
       strokeoverlap_rdm="0.5;1"
       ends_tolerance="0.1;1"
       tremble_size="0.8;1"
       tremble_frequency="3"
       nbtangents="2"
       tgt_places_rdmness="0.5;1"
       tgtlength="5"
       tgtlength_rdm="0.3;1"
       tgtscale="10" />
    <inkscape:path-effect
       effect="sketch"
       id="path-effect1"
       is_visible="true"
       lpeversion="1"
       nbiter_approxstrokes="3"
       parallel_offset="0.2;1"
       strokelength="70"
       strokelength_rdm="0.3;1"
       strokeoverlap="0.5"
       strokeoverlap_rdm="0.5;1"
       ends_tolerance="0.1;1"
       tremble_size="0.8;1"
       tremble_frequency="3"
       nbtangents="2"
       tgt_places_rdmness="0.5;1"
       tgtlength="5"
       tgtlength_rdm="0.3;1"
       tgtscale="10" />
    <inkscape:path-effect
       effect="sketch"
       id="path-effect7"
       is_visible="true"
       lpeversion="1"
       nbiter_approxstrokes="3"
       parallel_offset="0.2;1"
       strokelength="70"
       strokelength_rdm="0.3;1"
       strokeoverlap="0.5"
       strokeoverlap_rdm="0.5;1"
       ends_tolerance="0.1;1"
       tremble_size="0.8;1"
       tremble_frequency="3"
       nbtangents="2"
       tgt_places_rdmness="0.5;1"
       tgtlength="5"
       tgtlength_rdm="0.3;1"
       tgtscale="10" />
  </defs>
  <sodipodi:namedview
     id="namedview1"
     pagecolor="#ffffff"
     bordercolor="#000000"
     borderopacity="0.25"
     inkscape:showpageshadow="2"
     inkscape:pageopacity="0.0"
     inkscape:pagecheckerboard="0"
     inkscape:deskcolor="#d1d1d1"
     inkscape:zoom="4.0000001"
     inkscape:cx="169"
     inkscape:cy="46.749999"
     inkscape:window-width="1440"
     inkscape:window-height="831"
     inkscape:window-x="0"
     inkscape:window-y="0"
     inkscape:window-maximized="1"
     inkscape:current-layer="svg1"
     showgrid="true">
    <inkscape:grid
       id="grid1"
       units="px"
       originx="0"
       originy="0"
       spacingx="1"
       spacingy="1"
       empcolor="#0099e5"
       empopacity="0.30196078"
       color="#0099e5"
       opacity="0.14901961"
       empspacing="5"
       dotted="false"
       gridanglex="30"
       gridanglez="30"
       visible="true" />
  </sodipodi:namedview>
  <g
     id="g1">
    <path
       id="rect4"
       style="fill:#cccccc;stroke:none;stroke-linecap:round;stroke-linejoin:round"
       d="m 20.25,10.25 c -5.539994,0 -10,4.460006 -10,10 v 39.5 c 0,5.539994 4.460006,10 10,10 h 279.5 c 5.53999,0 10,-4.460006 10,-10 0,0 -184.75,5.25 -279.5,0 -5.531509,-0.306495 -8.850428,-4.580589 -10,-10 -5.25,-24.75 0,-39.5 0,-39.5 z"
       sodipodi:nodetypes="csssscssc" />
    <path
       style="fill:none;stroke:#000000;stroke-linecap:round;stroke-linejoin:round"
       id="rect3"
       width="299.75"
       height="59.75"
       x="10.25"
       y="10.25"
       rx="10"
       ry="10"
       sodipodi:type="rect"
       inkscape:path-effect="#path-effect10"
       d="m 25.121496,10.982582 c 8.009293,-0.17878 15.474099,0.0028 23.091781,-0.006 7.620947,-0.0088 15.422417,-0.134923 22.939581,-0.399999 l 2e-6,-1e-6 c 3.106989,-0.109561 6.32962,-0.119305 9.611921,-0.08494 M 61.631278,10.265507 c 7.543729,-0.09167 15.594629,-0.228087 23.47363,-0.668632 l 3e-6,0 c 7.882379,-0.4407338 15.645819,0.1327322 23.589579,0.3875 1.21669,0.039021 2.42782,0.068355 3.63524,0.090739 m -13.590995,0.09972 C 106.35341,10.043753 114.6398,10.047665 123.13102,9.78125 l 10e-6,10e-8 c 8.49486,-0.2665294 15.24403,0.3653729 22.40833,1.0874999 1.70179,0.171533 3.48944,0.238298 5.33832,0.229415 m -15.28071,-1.095037 c 7.61877,0.002 15.82191,-0.076089 24.13604,-0.231253 l 0,1e-7 c 8.31769,-0.1552306 15.60718,0.1450509 23.48333,0.4374999 6.71656,0.249392 13.11902,0.282752 19.38608,0.647428 m -29.787,0.01989 c 7.91782,0.09961 15.4678,-0.211352 23.0919,-0.643878 l 0,-1e-6 c 7.62737,-0.4327111 15.46835,-0.164608 23.07708,-0.5062494 l 0,-10e-8 c 4.13457,-0.1856472 8.42664,-0.1068313 12.79308,0.074072 m -21.76574,1.0635278 c 8.03639,0.07688 15.55719,-0.03792 23.33549,-0.1251 l 1e-5,0 c 7.78164,-0.08722 15.30613,-0.224479 22.57083,-0.681249 2.15982,-0.1357999 4.40884,-0.204689 6.7063,-0.2428184 m -16.6108,-0.1743051 c 7.97626,0.050335 15.74965,0.5161045 23.92932,1.5561855 l 0,0 c 8.18318,1.040527 15.65999,-0.474188 23.65833,-1.4375 1.92803,-0.2322099 3.81737,-0.3271629 5.67735,-0.3254298 M 283.97423,10.5795 c 5.392,-0.100531 10.6536,-0.06676 15.82039,-0.03921 2.4399,0.01301 4.6414,0.958074 6.27788,2.50056 1.94011,1.828668 3.21428,4.492799 3.24574,7.458771 0.0517,4.875781 0.28468,9.695832 0.38645,14.450924 0.0172,0.804128 0.0332,1.616988 0.0485,2.437475 m 0.67038,-11.626352 c 0.10395,7.884329 0.007,15.203534 0.0249,22.279442 0.009,3.482598 -0.0246,7.316054 -0.0943,11.250031 -0.0766,4.323645 -2.75326,8.117537 -6.55465,9.649402 -1.2076,0.486628 -2.50854,0.763939 -3.85864,0.78743 -4.71253,0.08199 -9.2396,0.214885 -13.75962,0.462622 m 22.91992,-8.646862 c -0.76808,4.766238 -4.76817,8.315799 -9.5144,8.196512 -2.945,-0.07402 -5.84072,-0.171752 -8.68093,-0.283992 -7.14488,-0.282352 -15.85271,0.08564 -24.23333,0.2625 l 0,0 c -6.11556,0.129062 -11.41893,0.01121 -16.61137,-0.147909 m 26.99856,0.986891 c -7.7038,-0.06252 -15.59255,-0.183035 -23.45468,-0.556169 l 0,-10e-7 C 245.73954,69.628268 237.9968,69.759501 230.1217,69.289063 l 0,-10e-7 c -3.67022,-0.219249 -7.2678,-0.207087 -10.82109,-0.107501 m 19.91923,1.319881 c -7.75988,-0.09396 -15.53998,-0.483028 -23.3046,-1.443629 l 0,0 c -7.76795,-0.961013 -15.41127,0.499107 -22.89583,1.499999 l 0,0 c -5.25117,0.702227 -10.72454,0.410885 -16.11807,0.162972 m 26.74669,-1.181427 c -7.61858,0.229012 -15.60575,0.392178 -23.50479,1.187206 l 0,-10e-7 c -7.90242,0.795368 -15.45313,-0.110558 -23.02083,-0.331249 l 0,-10e-7 c -3.84622,-0.112164 -7.83607,-0.07689 -11.88581,0.01799 m 21.12052,0.227118 c -7.69747,-0.160111 -15.47676,-0.04447 -23.09844,-0.118544 -7.62494,-0.07411 -15.49481,0.09157 -23.13958,0.26875 l 0,0 c -1.57404,0.03648 -3.16436,0.05544 -4.76751,0.06143 m 13.17518,-0.328478 c -7.77636,0.105721 -15.35569,-0.351596 -22.74208,-1.062636 l 0,-10e-7 C 98.395125,68.749593 89.997859,69.364063 81.763859,69.179688 l -3e-6,0 c -3.0559,-0.06843 -5.971815,-0.06146 -8.817983,-0.0073 m 18.785853,1.399789 c -7.842898,0.237045 -15.374762,0.06237 -22.804495,0.180945 l -1e-6,0 c -7.432917,0.118626 -15.492176,-0.199286 -23.145829,-0.6 l -3e-6,0 c -5.74651,-0.300864 -11.645346,-0.122909 -17.534819,0.02501 m 26.939981,-0.3797 c -7.668639,-0.004 -15.80196,0.214766 -24.07347,0.637506 -4.107445,0.209922 -7.954763,0.111147 -11.723936,-0.140852 -4.067269,-0.271929 -7.460841,-3.198815 -8.901614,-7.213143 -0.47456,-1.322235 -0.7329989,-2.718233 -0.7228643,-4.14454 0.043071,-6.06172 -0.00971,-11.408529 -0.00104,-17.06182 M 20.17257,69.454021 C 15.097913,69.135106 10.952226,64.931 10.869876,59.865364 10.827151,57.237193 10.777923,54.647376 10.753125,52.102193 10.683301,44.935724 10.352275,36.639672 9.5531252,29.043862 l -2e-7,-2e-6 C 9.2746853,26.397328 9.2108489,23.706979 9.2598528,20.996051 9.3483565,16.09998 13.227885,11.987724 18.100242,11.103167 M 9.9418958,38.621016 C 9.7539597,31.967591 9.8851077,25.672391 9.95437,19.317595 c 0.014779,-1.355966 0.301112,-2.648948 0.805074,-3.829578 1.524025,-3.570327 5.166428,-6.0475214 9.512056,-5.9461993 4.03998,0.094196 8.164049,0.2314168 12.383513,0.4347448 3.957618,0.1907105 7.504652,0.1763145 10.856612,0.081986 m -16.666747,0.811884 c 7.965785,0.09358 15.648002,0.03892 23.623087,0.10613 l 3e-6,-1e-6 c 7.978501,0.06724 15.215968,-0.401225 22.314577,-1.2062492 l 3e-6,-3e-7 C 77.787893,9.2026767 83.594179,9.5790758 89.484366,10.055967 m -26.345882,0.650409 c 7.560613,0.09756 15.891006,-0.173104 24.354859,-0.525126 8.467481,-0.3521726 15.134667,-0.06158 22.077077,-0.175 l 1e-5,0 c 5.79826,-0.094731 12.94347,0.13053 19.97955,0.483709 m -29.10623,0.291278 c 7.70792,-0.01039 15.55272,0.0035 23.33591,1.3e-5 l 10e-6,0 c 7.78653,-0.0035 15.44192,-0.203396 23.00208,-0.61875 7.11156,-0.3907078 14.53646,-0.06266 21.72577,-0.04344 m -32.8598,-0.4050768 c 7.54165,-0.062336 15.59268,0.035093 23.44864,0.09383 l 0,2e-7 c 7.85932,0.058762 15.36774,0.3776073 22.77083,1.1249993 6.23507,0.629474 13.15662,0.07935 20.09001,-0.315634 m -30.72997,-0.493743 c 7.78905,-0.002 15.61771,0.06507 23.52956,0.206253 l 1e-5,-1e-6 c 7.91524,0.141241 15.34526,-0.08906 22.69582,-0.262499 l 1e-5,-10e-7 c 7.2245,-0.1704687 15.56364,-0.0071 23.79624,0.0057 M 206.81505,9.5327563 c 7.77196,-0.043703 15.07792,-0.054849 21.91083,-0.1686938 l 1e-5,1e-7 c 6.83584,-0.1138933 16.02398,0.2998939 24.72708,0.9062494 6.0143,0.419025 11.03349,0.118872 15.97554,-0.3026993 M 243.08049,9.5075636 c 7.67044,-0.1933094 15.472,0.030191 23.07972,0.087749 l 0,10e-8 c 7.61098,0.057582 15.69452,0.3253788 23.74583,0.9687504 1.11995,0.08949 2.23088,0.148848 3.33499,0.183293 M 279.59448,9.8871898 c 6.47562,-0.2064954 13.30978,0.2239252 20.08769,0.8335512 1.16335,0.104635 2.27827,0.400578 3.31375,0.857744 3.97268,1.753943 6.74505,5.392001 6.63471,9.569058 -0.0912,3.453411 -0.22578,6.79701 -0.37438,10.267316 -0.19785,4.620575 -0.0615,9.555828 0.17863,14.528899 m 0.42764,-24.336382 c 0.0165,7.728632 -0.14066,15.458237 -0.42502,23.060892 -0.18453,4.933476 -0.16386,10.051019 -0.16749,15.210204 -0.002,2.958167 -1.22826,5.62836 -3.23039,7.513136 -1.42586,1.342282 -3.20073,2.282379 -5.15746,2.656782 m 8.71767,-11.380239 c -0.007,0.411689 -0.0131,0.825327 -0.0171,1.240795 -0.0529,5.434662 -4.30822,10.02743 -9.525,10.255921 -1.97867,0.08666 -3.93662,0.182381 -5.88172,0.272633 l 0,0 c -7.16968,0.33267 -15.47618,-0.164199 -23.09583,-0.4875 l 0,0 c -3.97978,-0.168861 -8.17585,-0.08734 -12.52082,0.107092 m 20.53128,0.572668 c -7.59327,0.056 -15.18779,-0.154461 -22.22982,-0.462573 l 0,0 C 249.81579,69.858944 241.11448,69.986281 232.965,69.629688 l 0,0 c -7.95242,-0.347971 -15.41587,0.330847 -23.43026,1.052535 m 34.84336,-0.01034 c -7.64557,0.0019 -15.56943,-0.189604 -23.386,-0.568753 l 0,0 c -7.81991,-0.379312 -15.5009,-0.112104 -23.16458,-0.325 l 0,0 c -3.54474,-0.09847 -7.10361,-0.09743 -10.6414,-0.06063 m 19.68174,-0.542524 c -7.91788,-0.02284 -15.54216,0.03429 -23.3044,0.106279 -7.76556,0.07202 -15.48253,0.306069 -23.10208,0.9125 l 0,0 c -3.71185,0.295421 -7.4681,0.330625 -11.2125,0.316768 m 20.2595,-0.708926 c -7.82815,0.02307 -15.15326,0.231003 -22.12951,0.699971 -6.97925,0.469168 -15.58749,0.06967 -23.42708,0.218749 l -1e-5,10e-7 c -5.85855,0.11141 -11.71811,0.06868 -17.65814,0.05681 m 27.86157,-0.308662 c -7.59799,-0.224444 -15.84691,0.08657 -24.20481,0.262789 -8.36148,0.176297 -15.448854,-0.0468 -23.020829,-0.15 l -3e-6,0 C 80.711978,70.496512 74.360864,70.445985 68.219735,70.260735 M 96.59864,69.432877 c -7.668429,0.0499 -15.557366,0.01228 -23.34847,0.04368 -7.794444,0.03142 -15.17706,0.06962 -22.189581,0.20625 l -3e-6,0 c -4.599494,0.08961 -9.971529,0.02014 -15.471272,-0.09569 m 24.714174,0.08929 c -8.019515,-0.116481 -15.272629,-0.07465 -22.498017,-0.231101 -5.189747,-0.112373 -11.013412,0.154456 -16.861182,0.62936 -2.41786,0.196357 -4.642474,-0.362658 -6.403648,-1.433342 -2.462847,-1.497259 -3.992887,-4.309411 -3.94746,-7.624767 0.04167,-3.040879 0.129737,-6.207049 0.220848,-9.358022 m 13.6273,18.312098 c -1.23078,0.03954 -2.462692,0.06589 -3.697032,0.08194 C 15.0927,70.126036 10.524343,65.534588 10.217607,59.9156 10.144245,58.571709 10.061333,57.230375 9.9671875,55.895343 l 0,-10e-7 C 9.4136793,48.046274 10.312223,40.160296 10.992187,32.037011 l 1e-6,-2e-6 c 0.09936,-1.187069 0.160751,-2.354336 0.190543,-3.505025 M 9.9700289,43.118371 c -0.209603,-7.523639 0.039419,-15.081704 0.1851031,-23.017236 0.0075,-0.410232 0.03593,-0.815952 0.08406,-1.21611 0.646263,-5.373159 4.840719,-9.1384731 9.958427,-8.9507313 2.892089,0.1060953 5.779354,0.2320083 8.683621,0.2813313 7.395402,0.125595 14.773632,0.0066 22.059886,-0.01075 m -25.140201,0.09526 c 7.810104,0.10188 15.921118,0.01807 24.442038,0.04987 8.524571,0.03181 15.264516,-0.02871 22.47083,-0.09375 l 3e-6,0 c 6.322689,-0.05707 13.731992,-0.03698 21.074461,-0.07857 M 62.587851,10.10157 c 7.732635,0.0061 15.278381,-0.1998822 22.498387,-0.5937575 7.223101,-0.3940441 15.410042,0.024409 22.895832,0.0875 l 0,0 c 1.46235,0.012325 2.95998,0.03139 4.48629,0.058496 M 99.264102,10.265494 c 7.643568,-0.101646 15.655258,0.255496 23.635998,0.768881 l 1e-5,0 c 7.98416,0.513605 15.48689,-0.251231 23.11458,-0.74375 5.08343,-0.3282363 10.19351,-0.109802 15.19379,0.216133 m -24.85419,0.313795 c 7.55401,0.186827 15.4621,-0.317914 23.06111,-0.9627405 l 1e-5,1e-7 c 7.60227,-0.6451029 15.55325,0.1681194 23.32708,0.5062494 6.46533,0.281216 12.82291,0.09559 19.07154,0.03156 m -29.83139,0.108939 c 7.88489,-0.0999 15.85042,-0.128167 24.24194,-0.381121 l 1e-5,-1e-6 c 8.39512,-0.2530629 15.23015,-0.07633 22.36458,-0.2374994 l 0,-10e-8 c 1.89535,-0.042817 3.89728,-0.048303 5.96958,-0.025426 m -15.42942,0.4830328 c 7.7456,-0.160077 15.85087,-0.0042 24.23587,-0.006 l 1e-5,0 c 8.38859,-0.0018 15.40698,-0.02831 22.90208,-0.0875 2.22831,-0.0176 4.51962,-0.02571 6.85184,-0.02895 M 247.22195,9.9845838 c 7.8116,0.1622182 15.23896,0.07749 22.39828,0.2247912 l 0,0 c 7.16239,0.147364 15.64477,0.304685 23.60209,0.91875 1.33066,0.102687 2.65468,0.165051 3.97452,0.195636 m -14.06753,-0.919138 c 5.47644,-0.0352 11.09793,-0.06224 16.86585,-0.135554 2.54858,-0.03239 4.90791,0.780159 6.80278,2.151071 2.43847,1.764202 3.88279,4.507288 3.78233,7.576587 -0.15581,4.760725 -0.60983,9.509771 -0.93652,14.119866 -0.34653,4.889976 -0.21838,10.239133 -0.0667,15.73912 m -0.10074,-23.935986 c -0.1973,7.978102 0.23049,15.464917 0.694,23.066821 0.2321,3.806627 0.26506,7.591332 0.27283,11.290519 0.008,3.924898 -2.49189,7.193239 -5.92476,8.2944 -1.16818,0.374715 -2.47801,0.566653 -3.87704,0.513766 -6.06504,-0.229277 -12.47342,0.396527 -18.84235,0.638872 m 28.56512,-9.481641 c -0.0838,5.490054 -4.49326,9.691257 -9.90958,9.491955 -2.63255,-0.09687 -5.25984,-0.213805 -7.86797,-0.331294 -7.68419,-0.346151 -15.69813,-0.01514 -23.76458,-0.04375 l -10e-6,0 c -5.94301,-0.02108 -11.48059,0.243382 -16.95506,0.756475 m 26.42382,0.04217 c -7.96151,0.160032 -15.51034,-0.04751 -23.21684,-0.137706 l -1e-5,-10e-7 c -7.7098,-0.09024 -15.66823,-0.111609 -23.66458,-0.33125 -7.94354,-0.21819 -15.40508,-0.106442 -23.02512,-0.30843 m 34.91203,1.35091 c -7.5977,0.226379 -15.49205,-0.254137 -23.14232,-0.762792 -7.65354,-0.508873 -15.50699,0.03619 -23.19583,0.11875 l 0,0 c -6.25949,0.06721 -12.51968,0.155922 -18.63955,0.393604 m 29.7208,-0.810647 c -7.51455,0.11229 -15.50923,0.0361 -23.19242,0.118605 l 0,10e-7 c -7.68649,0.08255 -15.69972,0.170939 -23.76458,0.518749 l 0,0 c -6.4522,0.278262 -12.71875,-0.128481 -19.23947,-0.689735 m 30.10089,0.98844 c -7.81201,0.207473 -15.71154,-0.484715 -23.81704,-1.450267 -8.10897,-0.965966 -15.64501,0.154572 -23.59583,0.45625 l 0,0 c -4.3484,0.164992 -8.63274,0.198797 -12.93659,0.2504 m 22.9394,0.63364 c -7.9511,-0.2599 -15.48542,-0.04801 -23.14186,-0.143415 l 0,0 c -7.65972,-0.09545 -15.783628,-0.0292 -24.020828,-0.08125 l -4e-6,0 c -4.418155,-0.02792 -8.532577,-0.04131 -12.557604,-0.06453 m 21.051004,0.750632 c -7.545439,0.128889 -15.163664,-0.0014 -22.154878,-0.0064 -6.994211,-0.005 -15.771917,-0.260607 -23.983331,-0.78125 l -3e-6,0 c -2.903174,-0.184076 -5.717633,-0.224268 -8.50042,-0.190073 m 18.583021,0.694846 c -7.997156,0.06651 -15.866697,-0.0113 -24.273046,-0.04384 -5.740279,-0.02222 -10.708379,-0.0815 -15.504769,-0.206042 -2.354909,-0.06115 -4.454347,-1.11978 -5.984926,-2.829235 -1.726707,-1.928502 -2.916709,-4.578208 -3.00896,-7.50999 C 10.896953,55.6331 10.416318,51.268912 10.045417,46.832722 M 24.31145,70.379588 c -1.23999,-0.01231 -2.488034,-0.01972 -3.743749,-0.02312 C 14.965587,70.341296 10.358028,65.939698 10.052632,60.459835 9.9815647,59.184634 9.9039831,57.909694 9.8203125,56.634021 9.3159255,48.943947 9.9141627,40.711616 10.107812,32.200689 l 1e-6,-2e-6 c 0.08344,-3.667335 0.144774,-7.030108 0.230103,-10.265051 m 0.226114,19.619265 c -0.02339,-7.391051 0.0028,-14.406831 0.02144,-21.320344 0.0013,-0.464848 0.03738,-0.921215 0.106037,-1.366747 0.710438,-4.610403 4.720311,-8.419621 9.495364,-8.670316 2.846549,-0.149446 5.63811,-0.3401766 8.378184,-0.4990565 3.188401,-0.1848757 6.72874,-0.1957536 10.4216,-0.1471822 M 310,37.425276 v 8.042969 M 60.948797,70 h -7.175781" />
    <text
       xml:space="preserve"
       style="font-size:26.6667px;font-family:Quicksand;-inkscape-font-specification:'Quicksand, Normal';fill:#000000;stroke:none;stroke-linecap:round;stroke-linejoin:round"
       x="42.296494"
       y="47.200008"
       id="text3"><tspan
         sodipodi:role="line"
         id="tspan3"
         x="42.296494"
         y="47.200008">HTML5-Applikation</tspan></text>
  </g>
</svg>
