<?xml version="1.0" encoding="UTF-8" standalone="no"?>
<svg
   height="150"
   width="200"
   version="1.1"
   id="svg1"
   sodipodi:docname="database.svg"
   inkscape:version="1.3.2 (091e20ef0f, 2023-11-25, custom)"
   xmlns:inkscape="http://www.inkscape.org/namespaces/inkscape"
   xmlns:sodipodi="http://sodipodi.sourceforge.net/DTD/sodipodi-0.dtd"
   xmlns="http://www.w3.org/2000/svg"
   xmlns:svg="http://www.w3.org/2000/svg">
  <defs
     id="defs1">
    <inkscape:path-effect
       effect="sketch"
       id="path-effect21"
       is_visible="true"
       lpeversion="1"
       nbiter_approxstrokes="3"
       parallel_offset="1;192937983"
       strokelength="70"
       strokelength_rdm="0.5;903206615"
       strokeoverlap="0.5"
       strokeoverlap_rdm="0.5;1105235548"
       ends_tolerance="0.1;836224758"
       tremble_size="0.8;1"
       tremble_frequency="3"
       nbtangents="2"
       tgt_places_rdmness="0.5;1"
       tgtlength="5"
       tgtlength_rdm="0.3;1"
       tgtscale="10" />
    <inkscape:path-effect
       effect="sketch"
       id="path-effect15"
       is_visible="true"
       lpeversion="1"
       nbiter_approxstrokes="3"
       parallel_offset="1;192937983"
       strokelength="70"
       strokelength_rdm="0.5;903206615"
       strokeoverlap="0.5"
       strokeoverlap_rdm="0.5;1105235548"
       ends_tolerance="0.1;836224758"
       tremble_size="0.8;1"
       tremble_frequency="3"
       nbtangents="2"
       tgt_places_rdmness="0.5;1"
       tgtlength="5"
       tgtlength_rdm="0.3;1"
       tgtscale="10" />
    <inkscape:path-effect
       effect="sketch"
       id="path-effect13"
       is_visible="true"
       lpeversion="1"
       nbiter_approxstrokes="3"
       parallel_offset="1;2624778490"
       strokelength="70"
       strokelength_rdm="0.5;3498077526"
       strokeoverlap="0.5"
       strokeoverlap_rdm="0.5;1105235548"
       ends_tolerance="0.1;836224758"
       tremble_size="0.8;1"
       tremble_frequency="3"
       nbtangents="2"
       tgt_places_rdmness="0.5;1"
       tgtlength="5"
       tgtlength_rdm="0.3;1"
       tgtscale="10" />
    <inkscape:path-effect
       effect="sketch"
       id="path-effect10"
       is_visible="true"
       lpeversion="1"
       nbiter_approxstrokes="3"
       parallel_offset="0.2;1"
       strokelength="70"
       strokelength_rdm="0.3;1"
       strokeoverlap="0.5"
       strokeoverlap_rdm="0.5;1"
       ends_tolerance="0.1;1"
       tremble_size="0.8;1"
       tremble_frequency="3"
       nbtangents="2"
       tgt_places_rdmness="0.5;1"
       tgtlength="5"
       tgtlength_rdm="0.3;1"
       tgtscale="10" />
    <inkscape:path-effect
       effect="sketch"
       id="path-effect9"
       is_visible="true"
       lpeversion="1"
       nbiter_approxstrokes="3"
       parallel_offset="0.2;1"
       strokelength="70"
       strokelength_rdm="0.3;1"
       strokeoverlap="0.5"
       strokeoverlap_rdm="0.5;1"
       ends_tolerance="0.1;1"
       tremble_size="0.8;1"
       tremble_frequency="3"
       nbtangents="2"
       tgt_places_rdmness="0.5;1"
       tgtlength="5"
       tgtlength_rdm="0.3;1"
       tgtscale="10" />
    <inkscape:path-effect
       effect="sketch"
       id="path-effect8"
       is_visible="true"
       lpeversion="1"
       nbiter_approxstrokes="3"
       parallel_offset="0.2;1"
       strokelength="70"
       strokelength_rdm="0.3;1"
       strokeoverlap="0.5"
       strokeoverlap_rdm="0.5;1"
       ends_tolerance="0.1;1"
       tremble_size="0.8;1"
       tremble_frequency="3"
       nbtangents="2"
       tgt_places_rdmness="0.5;1"
       tgtlength="5"
       tgtlength_rdm="0.3;1"
       tgtscale="10" />
    <inkscape:path-effect
       effect="sketch"
       id="path-effect4"
       is_visible="true"
       lpeversion="1"
       nbiter_approxstrokes="3"
       parallel_offset="0.2;1"
       strokelength="70"
       strokelength_rdm="0.3;1"
       strokeoverlap="0.5"
       strokeoverlap_rdm="0.5;1"
       ends_tolerance="0.1;1"
       tremble_size="0.8;1"
       tremble_frequency="3"
       nbtangents="2"
       tgt_places_rdmness="0.5;1"
       tgtlength="5"
       tgtlength_rdm="0.3;1"
       tgtscale="10" />
    <inkscape:path-effect
       effect="sketch"
       id="path-effect3"
       is_visible="true"
       lpeversion="1"
       nbiter_approxstrokes="3"
       parallel_offset="2;1"
       strokelength="70"
       strokelength_rdm="0.3;1"
       strokeoverlap="0.5"
       strokeoverlap_rdm="0.5;1"
       ends_tolerance="0.1;1"
       tremble_size="0.8;1"
       tremble_frequency="3"
       nbtangents="2"
       tgt_places_rdmness="0.5;1"
       tgtlength="5"
       tgtlength_rdm="0.3;1"
       tgtscale="10" />
    <inkscape:path-effect
       effect="sketch"
       id="path-effect2"
       is_visible="true"
       lpeversion="1"
       nbiter_approxstrokes="3"
       parallel_offset="2;1"
       strokelength="70"
       strokelength_rdm="0.3;1"
       strokeoverlap="0.5"
       strokeoverlap_rdm="0.5;1"
       ends_tolerance="0.1;1"
       tremble_size="0.8;1"
       tremble_frequency="3"
       nbtangents="2"
       tgt_places_rdmness="0.5;1"
       tgtlength="5"
       tgtlength_rdm="0.3;1"
       tgtscale="10" />
    <inkscape:path-effect
       effect="sketch"
       id="path-effect6"
       is_visible="true"
       lpeversion="1"
       nbiter_approxstrokes="3"
       parallel_offset="0.2;1"
       strokelength="70"
       strokelength_rdm="0.3;1"
       strokeoverlap="0.5"
       strokeoverlap_rdm="0.5;1"
       ends_tolerance="0.1;1"
       tremble_size="0.8;1"
       tremble_frequency="3"
       nbtangents="2"
       tgt_places_rdmness="0.5;1"
       tgtlength="5"
       tgtlength_rdm="0.3;1"
       tgtscale="10" />
    <inkscape:path-effect
       effect="sketch"
       id="path-effect5"
       is_visible="true"
       lpeversion="1"
       nbiter_approxstrokes="3"
       parallel_offset="0.2;1"
       strokelength="70"
       strokelength_rdm="0.3;1"
       strokeoverlap="0.5"
       strokeoverlap_rdm="0.5;1"
       ends_tolerance="0.1;1"
       tremble_size="0.8;1"
       tremble_frequency="3"
       nbtangents="2"
       tgt_places_rdmness="0.5;1"
       tgtlength="5"
       tgtlength_rdm="0.3;1"
       tgtscale="10" />
    <inkscape:path-effect
       effect="sketch"
       id="path-effect1"
       is_visible="true"
       lpeversion="1"
       nbiter_approxstrokes="3"
       parallel_offset="0.2;1"
       strokelength="70"
       strokelength_rdm="0.3;1"
       strokeoverlap="0.5"
       strokeoverlap_rdm="0.5;1"
       ends_tolerance="0.1;1"
       tremble_size="0.8;1"
       tremble_frequency="3"
       nbtangents="2"
       tgt_places_rdmness="0.5;1"
       tgtlength="5"
       tgtlength_rdm="0.3;1"
       tgtscale="10" />
    <inkscape:path-effect
       effect="sketch"
       id="path-effect7"
       is_visible="true"
       lpeversion="1"
       nbiter_approxstrokes="3"
       parallel_offset="0.2;1"
       strokelength="70"
       strokelength_rdm="0.3;1"
       strokeoverlap="0.5"
       strokeoverlap_rdm="0.5;1"
       ends_tolerance="0.1;1"
       tremble_size="0.8;1"
       tremble_frequency="3"
       nbtangents="2"
       tgt_places_rdmness="0.5;1"
       tgtlength="5"
       tgtlength_rdm="0.3;1"
       tgtscale="10" />
  </defs>
  <sodipodi:namedview
     id="namedview1"
     pagecolor="#ffffff"
     bordercolor="#000000"
     borderopacity="0.25"
     inkscape:showpageshadow="2"
     inkscape:pageopacity="0.0"
     inkscape:pagecheckerboard="0"
     inkscape:deskcolor="#d1d1d1"
     inkscape:zoom="1.4142136"
     inkscape:cx="140.71425"
     inkscape:cy="89.095452"
     inkscape:window-width="1440"
     inkscape:window-height="831"
     inkscape:window-x="0"
     inkscape:window-y="0"
     inkscape:window-maximized="1"
     inkscape:current-layer="svg1"
     showgrid="true">
    <inkscape:grid
       id="grid1"
       units="px"
       originx="0"
       originy="0"
       spacingx="1"
       spacingy="1"
       empcolor="#0099e5"
       empopacity="0.30196078"
       color="#0099e5"
       opacity="0.14901961"
       empspacing="5"
       dotted="false"
       gridanglex="30"
       gridanglez="30"
       visible="true" />
  </sodipodi:namedview>
  <g
     id="g1">
    <path
       id="path13"
       style="fill:#ff8080;stroke-width:0.999998;stroke-dasharray:none"
       d="m 11.147812,33.147491 0.0027,0.102851 c 0.0065,-0.03429 0.01314,-0.06857 0.02004,-0.102851 z m 0.0027,0.102851 0.544979,41.033712 c 3e-6,9.736595 16.841003,18.732771 44.179362,23.601066 27.33836,4.8683 61.021697,4.86829 88.360067,0 27.33836,-4.868295 44.17937,-13.864471 44.17936,-23.601066 l 0.54364,-41.02169 C 188.93514,48.30811 149.13928,60.501523 100.05553,60.501965 50.955417,60.501976 26.201246,33.250342 11.150483,33.250342 Z M 188.94053,33.147491 c 0.006,0.03116 0.0127,0.06233 0.0187,0.0935 l 0.001,-0.0935 z"
       sodipodi:nodetypes="ccccccsscccsccccc" />
    <path
       id="path19"
       style="fill:#ff5555;stroke-width:0.999998;stroke-dasharray:none"
       d="m 11.14829,33.147491 0.0027,0.102851 c 0.0065,-0.03429 0.01314,-0.06857 0.02004,-0.102851 z m 0.0027,0.102851 0.544979,41.033712 c 3e-6,9.736588 16.84103,18.732778 44.179362,23.601066 27.338333,4.86829 61.021719,4.86829 88.360059,0 23.02121,-4.099514 38.55132,-11.12993 42.89706,-19.060905 -7.52106,5.043433 -19.9457,9.352725 -36.05811,12.221953 -27.33834,4.868287 -61.021724,4.868294 -88.360057,0 C 35.375923,86.17788 18.534897,77.18169 18.534893,67.445102 L 18.337205,43.874763 C 13.642793,40.516741 14.804603,33.250342 11.150962,33.250342 Z M 188.941,46.825395 c 0.006,0.03117 0.0127,0.06233 0.0187,0.0935 l 0.001,-0.0935 z m 0.0174,0.114873 c -0.0528,1.49558 -0.50712,2.98729 -1.35844,4.460016 0.44599,-0.289737 0.87527,-0.581863 1.28765,-0.876241 z"
       sodipodi:nodetypes="ccccccsscssccsccccccccc" />
    <ellipse
       style="fill:#ffaaaa;stroke:none;stroke-width:0.999998;stroke-dasharray:none"
       id="ellipse22"
       cx="99.987053"
       cy="33.24884"
       rx="88.904976"
       ry="27.252234" />
    <path
       id="ellipse19"
       style="fill:#ff8080;stroke:none;stroke-width:0.999998;stroke-dasharray:none"
       d="M 19.281568,21.93535 A 88.904981,27.252234 0 0 0 11.081504,33.249008 88.904981,27.252234 0 0 0 99.986544,60.500631 88.904981,27.252234 0 0 0 187.53315,37.72104 88.904981,27.252234 0 0 1 106.8255,53.661679 88.904981,27.252234 0 0 1 17.920456,26.410056 88.904981,27.252234 0 0 1 19.281568,21.93535 Z" />
    <g
       id="g13"
       style="stroke-width:1.46221;stroke-dasharray:none"
       inkscape:path-effect="#path-effect13"
       transform="matrix(0.6838952,0,0,0.6838952,4.2412163,12.629301)">
      <path
         style="fill:none;stroke:#000000;stroke-width:1.46221;stroke-dasharray:none"
         id="path1"
         sodipodi:type="arc"
         sodipodi:ry="39.848553"
         sodipodi:rx="129.99796"
         sodipodi:cy="30.150143"
         sodipodi:cx="140.00075"
         d="m 269.41938,31.628115 c 0.0197,2.45935 -0.79415,4.951873 -2.41734,7.421384 -1.68293,2.560375 -4.2371,5.09666 -7.59808,7.53457 -1.24454,0.902735 -2.59728,1.789926 -4.04769,2.652832 -5.69305,3.387003 -12.95269,6.500313 -21.71111,8.963249 0,0 0,10e-7 0,10e-7 -0.99526,0.279874 -1.98628,0.561584 -2.99313,0.849524 -4.87495,1.394144 -10.84607,3.158773 -16.17953,4.485914 m 19.51543,-5.365508 c -0.93872,0.285414 -1.88596,0.566002 -2.84003,0.840468 -6.08174,1.74957 -12.633,3.309236 -19.57434,4.34228 -5.81314,0.865138 -11.07814,2.006276 -17.40353,3.189246 m 19.55123,-3.571862 c -7.48165,1.54607 -15.06291,2.681716 -23.40181,3.477775 0,0 0,0 0,0 -0.003,2.51e-4 -0.39128,0.03747 -0.3939,0.03772 -7.46517,0.7169 -14.8185,1.554195 -21.7611,1.787647 -2.04511,0.06877 -4.24431,0.194325 -6.5539,0.358776 m 15.94366,-0.04775 c -7.54183,0.567866 -15.99912,1.253731 -24.74627,1.688006 -5.01392,0.24893 -9.30878,0.279224 -13.43472,0.195178 -1.78013,-0.03626 -3.527,-0.09376 -5.28383,-0.16391 m 17.4581,-0.340995 c -3.70072,0.07513 -7.50369,0.190904 -11.39352,0.332041 -4.16143,0.150991 -8.38012,0.329439 -12.63949,0.515235 0,0 0,0 0,0 -7.01611,0.306046 -13.10538,-0.369946 -18.88693,-0.946865 m 14.04207,-0.342228 c -8.08549,-0.13164 -15.82366,-1.092808 -23.513918,-2.205135 -2.793303,-0.404027 -5.503687,-0.724985 -8.120631,-1.007654 -5.054215,-0.54593 -9.820214,-0.962181 -14.413098,-1.536666 -3.430902,-0.429143 -6.999547,-1.082085 -10.456824,-1.795991 m 25.127666,4.157607 c -0.245344,-0.02476 -0.491159,-0.05046 -0.737403,-0.07707 C 83.024051,66.2419 74.928149,64.551179 67.513258,62.717927 59.638407,60.770955 53.829125,59.442441 47.530369,57.333066 46.63695,57.033871 45.752296,56.724509 44.872821,56.402699 45.524395,56.641118 41.904639,55.314972 42.556212,55.55339 m 17.049119,6.756169 C 55.45083,61.233112 51.599179,60.047079 47.959724,58.685414 44.253885,57.298913 40.83484,55.754531 37.653278,54.027231 33.655081,51.856573 29.145949,50.070574 25.837007,48.646388 m 10.018269,5.968751 C 29.512794,51.8459 24.243544,49.161212 19.914684,46.138625 18.236512,44.966856 16.741304,43.771146 15.432068,42.546573 14.07054,41.27309 12.966165,39.969039 12.104032,38.652275 10.416269,36.074499 9.63316,33.414323 9.7048971,30.757976 9.7770001,28.088083 10.70852,25.424248 12.45177,22.753849 c 0.325034,-0.497903 0.677597,-0.995097 1.057168,-1.492079 0.809694,-1.060149 1.746971,-2.092974 2.811313,-3.093483 m -3.729636,18.943881 c -1.11238,-2.102145 -1.675527,-4.281485 -1.671712,-6.497407 0.0046,-2.675455 0.833679,-5.390659 2.485298,-8.140657 1.330839,-2.215888 3.197796,-4.457293 5.589143,-6.708092 0.57249,-0.538843 1.172143,-1.062583 1.799243,-1.571613 C 25.694561,10.21537 31.202385,7.8505092 38.728886,4.9568863 M 27.909355,11.601865 C 33.674233,8.3623428 40.120474,5.6339806 47.624435,2.4943019 47.434163,2.5739124 48.448151,2.1496284 48.257879,2.2292389 53.257953,0.13653637 59.395661,-1.1516466 66.56106,-2.5845414 M 47.631828,1.3721049 c 7.125864,-2.20475567 14.682958,-3.9777662 23.628769,-5.7822336 6.494506,-1.3100125 12.293096,-1.9209603 18.43701,-2.114984 1.379802,-0.043574 2.772809,-0.06618 4.195228,-0.072016 2.624528,-0.010769 5.331351,-0.2247168 8.114445,-0.5398278 m -19.626744,1.2110073 c 2.342689,-0.438999 4.755514,-0.7923614 7.239452,-1.0829442 5.274409,-0.6170256 10.701702,-0.9333817 16.358622,-1.2166947 7.87288,-0.3942948 15.25099,-0.7632515 22.61574,-0.3741898 3.20235,0.1691721 6.58287,0.065107 10.03319,-0.1676604 m -15.72115,0.205454 c 5.22331,-0.2385155 10.62679,-0.3326029 16.10414,-0.3354019 2.53014,-0.00129 5.07326,0.016901 7.61516,0.049226 0,0 0,-1e-7 0,-1e-7 8.16281,0.1038063 15.70416,0.037432 23.55601,-0.2817739 4.91671,-0.1998816 9.66303,0.5368199 14.23544,1.5297521 m -25.81486,-1.7411334 c 7.81213,0.3525823 15.54981,1.0792101 22.85474,2.1247331 2.39161,0.3423013 4.83983,0.6547331 7.27086,0.9583479 5.53613,0.6914142 10.79108,1.3177479 16.03662,2.2017035 2.35383,0.3966562 4.6514,0.8222484 6.89218,1.2700633 m -17.44556,-2.1466813 c 8.0747,1.2827712 15.47588,2.4395039 22.58455,3.98371689 4.95713,1.07683567 9.74322,2.43020781 14.06997,3.89828811 2.66143,0.903032 5.16622,1.8549699 7.47738,2.8311268 1.68575,0.7120035 3.43437,1.4188326 5.10724,2.0933951 m -21.98312,-9.3727846 c 3.48122,0.79610004 6.90695,1.77124636 10.17182,2.8412245 4.39112,1.4390833 8.57363,3.0764335 12.34273,4.7567069 6.79375,3.0286731 12.00698,5.7949129 16.3384,9.1045549 1.26291,0.964992 2.41814,1.954192 3.46686,2.969763 M 246.62345,7.0251385 c 5.84538,2.5985686 10.59122,5.0237715 14.46308,7.6571425 2.0357,1.384541 3.77551,2.792716 5.22021,4.239239 0.89159,0.89271 1.6587,1.824185 2.29963,2.776524 1.67864,2.494278 2.50433,5.13682 2.48664,7.796674 -0.0177,2.660867 -0.88052,5.34555 -2.56462,7.972668 -0.48998,0.764343 -1.04912,1.522972 -1.67534,2.271465 m 3.7054,-7.776899 c -0.17433,2.233002 -0.99916,4.477906 -2.47128,6.713391 -1.72164,2.614416 -4.31827,5.20334 -7.7944,7.78567 -1.5058,1.118623 -3.17087,2.231877 -4.99431,3.343746 -6.26412,3.819638 -12.77632,6.153552 -21.20967,7.969219 -0.28627,0.06163 -0.57428,0.12528 -0.86417,0.190892 m 21.3359,-8.622674 c -5.77438,3.360647 -12.88202,6.33361 -21.6484,9.731194 -0.11855,0.04595 -0.2374,0.09156 -0.35654,0.136838 -7.1775,2.727778 -14.23353,3.89155 -23.48792,5.71979 -3.51816,0.695027 -6.8096,1.283749 -10.03792,1.804292 m 15.35927,-4.540854 c -6.83018,1.207726 -15.50728,2.973611 -22.93866,4.023248 0,0 0,0 0,0 -0.60628,0.08563 -1.2126,0.170319 -1.81909,0.254191 -6.84206,0.946192 -13.68795,1.783157 -20.32064,2.669136 0,0 0,0 0,0 -0.3605,0.04816 -0.72631,0.09328 -1.09718,0.135536 m 20.9411,-2.369111 c -7e-5,10e-6 -0.16532,0.02359 -0.16538,0.0236 -7.32194,1.041771 -15.00275,1.708788 -22.74992,2.287677 -6.42673,0.480222 -13.4607,0.416789 -20.73795,-0.0872 m 21.7875,0.872992 c -7.49559,0.330951 -15.65596,0.932894 -23.86547,1.246933 -1.60084,0.06124 -3.16041,0.08999 -4.68687,0.09135 -6.25652,0.0056 -11.95864,-0.449769 -17.60895,-1.007869 -4.5863,-0.453005 -10.0655,-0.737821 -15.4733,-1.118169 m 23.05555,1.44668 c -8.12566,-0.457031 -15.40876,-0.698038 -22.8274,-1.468546 -4.9315,-0.512192 -9.844491,-1.000276 -14.826057,-1.601141 C 88.219377,67.250591 85.437067,66.880603 82.72606,66.464217 79.992711,66.0444 77.292853,65.57076 74.632181,65.045169 m 16.272268,1.588692 C 82.69551,65.284322 75.523764,64.313825 68.185615,62.592785 61.290222,60.975586 55.232101,59.604441 49.19269,57.820182 48.019871,57.473689 46.87527,57.119126 45.757272,56.753817 43.324585,55.95893 40.960399,55.160117 38.694823,54.360778 m 21.736537,6.85223 C 56.210793,60.293991 52.044654,59.138156 48.129467,57.887933 44.494324,56.727136 41.000879,55.461162 37.781759,54.176531 30.108955,51.114601 24.32073,48.175271 19.814014,44.865977 19.049278,44.304429 18.327558,43.736003 17.648659,43.160534 17.382841,42.935213 17.122936,42.708239 16.869103,42.47975 m 14.510991,8.799564 C 26.841636,48.988076 23.01907,46.768341 19.794262,44.330513 16.758363,42.035493 14.406188,39.654771 12.753004,37.161454 12.620191,36.961147 12.49151,36.761216 12.366972,36.561575 10.692267,33.876929 9.785201,31.268761 9.6630871,28.643973 9.5412121,26.02432 10.206547,23.454291 11.596353,20.899254 c 0.847217,-1.557534 1.952798,-3.09136 3.299768,-4.637669 0.861719,-0.989245 1.910751,-1.94759 3.154144,-2.873402 3.722723,-2.771882 8.968241,-5.0956022 15.563808,-7.13488 M 18.102294,15.08822 c 0.564802,-0.461761 1.161667,-0.922754 1.790165,-1.382589 4.572507,-3.345431 11.048397,-6.7736744 18.734566,-9.6804467 3.021148,-1.1425445 6.21734,-2.2336749 9.565233,-3.26030771 3.954025,-1.212503 8.135673,-2.34000339 12.520919,-3.36129329 1.359167,-0.3165395 2.755475,-0.6172565 4.185678,-0.9002381 M 46.135513,2.8265203 c 0.609453,-0.2052659 1.2201,-0.4060937 1.832304,-0.6027543 6.549393,-2.10388539 12.850963,-3.602896 19.867655,-5.0986762 6.235458,-1.329241 13.830395,-2.2036219 21.481243,-2.4679689 0.56545,-0.019537 1.130376,-0.035686 1.694052,-0.048383 7.602648,-0.1712509 15.149703,-1.7959686 22.760713,-2.6537823 0,0 0.01,-0.00108 0.01,-0.00108 M 95.799069,-8.2143571 c 7.584821,-0.8934551 15.162161,-1.5600427 22.818821,-2.1429779 6.83349,-0.520264 14.10764,-0.492551 21.21005,-0.315235 0.62968,0.01572 1.25746,0.0326 1.88278,0.05035 3.57251,0.101407 7.21932,0.218123 10.89955,0.40494 m -27.56678,-0.392937 c 4.51633,-0.295709 9.24291,-0.287835 14.10345,-0.125721 3.33031,0.111077 6.71761,0.294379 10.12305,0.500195 8.47647,0.5122942 15.75372,0.4036554 23.53767,0.6948952 5.87219,0.2197109 11.25525,1.0739612 16.21526,2.1292494 1.85574,0.3948263 3.66787,0.8213801 5.42803,1.2572293 m -32.76623,-1.9686037 c 8.20077,0.4953808 15.98808,0.9217143 24.33035,1.5020335 1.36329,0.094836 2.67669,0.2071521 3.94778,0.3326332 6.11353,0.6035224 11.71479,1.5709991 16.86555,2.3807721 m -20.12344,-2.139682 c 0.97237,0.082547 1.94148,0.1754246 2.90678,0.2769422 6.94104,0.7299674 14.22191,1.9773193 20.84798,3.0784386 8.15224,1.3547362 15.57714,3.22163868 21.94314,4.8792483 0.007,0.00188 0.62382,0.1627055 0.63103,0.1645823 0.11875,0.031021 0.23731,0.062292 0.35565,0.093804 M 210.89436,-4.047058 c 7.40863,1.647762 13.75941,3.0133292 19.7194,4.72198117 0.60121,0.17235846 1.19126,0.34632733 1.77035,0.52229103 0,0 0,6e-7 0,6e-7 7.75028,2.3550327 15.82692,5.906919 21.43205,9.2582582 1.75979,1.052187 3.37314,2.13703 4.83693,3.251957 0.20647,0.157266 0.40994,0.315102 0.61037,0.473497 M 239.37488,4.3893213 c 8.36089,2.9084086 15.36332,6.1155667 20.15034,9.2866057 0.22784,0.150931 0.45385,0.304922 0.67776,0.461685 3.06435,2.145471 5.69884,4.774202 7.54963,7.469497 1.86696,2.718825 2.95571,5.511913 3.22131,8.309039 0.10515,1.107333 0.0813,2.213027 -0.0717,3.311029 m -1.43925,1.340508 c -0.42436,1.315073 -1.07578,2.635579 -1.95357,3.955516 -1.6806,2.52714 -4.20626,5.070713 -7.53598,7.52727 -2.07918,1.533958 -4.49515,3.04973 -7.21046,4.481205 -5.9626,3.143404 -12.87446,5.949099 -20.73172,8.262743 -0.14036,0.04133 -0.2811,0.08253 -0.42222,0.123595 -4.98213,1.44981 -11.05366,3.041326 -17.50853,4.4819 m 22.47962,-5.307903 c -1.18518,0.438215 -2.39833,0.853075 -3.64029,1.247037 -5.76223,1.827835 -11.77486,3.09606 -18.25158,4.251147 -5.89433,1.05122 -13.54773,2.334673 -21.31757,3.101941 m 14.04617,-4.008935 c -5.82713,1.016081 -12.77555,2.282834 -18.60216,3.2127 -1.10421,0.176221 -2.20705,0.34702 -3.30537,0.510299 -4.59454,0.683034 -10.03578,1.1028 -15.76284,1.373107 m 13.35823,0.253208 c -7.71773,0.715032 -15.13937,1.385715 -22.42104,1.618354 -6.44641,0.205954 -13.86663,0.821297 -21.19547,1.536136 -0.84439,0.08236 -1.68597,0.165878 -2.52301,0.250045 -1.49602,0.150428 -2.96959,0.228744 -4.42539,0.25154 m 20.70357,-1.030028 c -4.58999,0.293294 -9.20578,0.330077 -13.92058,0.259556 -3.36214,-0.05029 -6.77437,-0.155181 -10.23691,-0.259154 -8.21969,-0.246819 -14.94683,-0.738411 -21.74517,-1.648763 m 15.66005,-0.119198 c -8.02821,-0.36232 -15.51378,-0.694288 -22.88665,-1.193397 -3.438791,-0.23279 -6.93361,-0.682091 -10.376292,-1.26474 -4.291505,-0.726306 -8.545699,-1.667422 -12.549018,-2.674088 -0.120959,-0.03042 -0.241888,-0.06056 -0.362782,-0.09042 m 15.358324,2.519186 c -1.009156,-0.125534 -2.008169,-0.251604 -2.998995,-0.378813 -7.148817,-0.91781 -13.766395,-1.88226 -20.368873,-3.071326 -8.108099,-1.460219 -15.05365,-3.379977 -21.003346,-5.381065 -0.172759,-0.0581 -0.344858,-0.116342 -0.516293,-0.174703 0,0 0,0 0,0 C 46.59342,56.942161 45.88378,56.70003 45.163486,56.452597 m 18.166631,4.871705 C 58.015802,60.308441 52.967134,58.959085 48.424216,57.591071 45.83114,56.810215 43.298018,55.990889 40.921615,55.190861 32.475522,52.347441 24.864255,48.182003 19.459346,44.192242 c -0.03903,-0.02881 -0.07798,-0.05763 -0.116831,-0.08646 -3.477306,-2.580127 -5.951361,-5.047319 -7.604633,-7.540996 -1.668889,-2.517233 -2.4902336,-5.054439 -2.5171155,-7.610851 -0.010617,-1.009634 0.1026457,-2.019528 0.3345364,-3.03287 M 17.69727,44.412999 c -1.988822,-1.691236 -3.61335,-3.517931 -4.82279,-5.398248 -1.678668,-2.609823 -2.557372,-5.315437 -2.605723,-8.044351 -0.04529,-2.556323 0.637338,-5.133834 2.046686,-7.684708 0.09421,-0.170514 0.19184,-0.340301 0.292891,-0.509335 1.618547,-2.707462 4.091248,-5.191348 7.424528,-7.431669 3.00311,-2.018411 6.54655,-3.743728 10.787501,-5.4222731 4.114084,-1.6283321 8.610063,-3.5688164 13.509931,-5.5780019 m -17.043316,5.675866 c 5.584815,-2.7065556 12.658839,-5.5805079 20.684791,-7.9525859 0.605212,-0.1788707 1.218797,-0.3557901 1.840716,-0.530425 7.395401,-2.0766289 14.444941,-4.1091597 22.43637,-6.3224846 0,-1e-7 2e-6,-6e-7 2e-6,-6e-7 5.625816,-1.5581393 11.466885,-2.1149889 17.727031,-2.5384461 0.513975,-0.034767 1.02835,-0.06855 1.544345,-0.1020112 m -25.52462,5.0215186 c 7.162863,-1.7129205 14.877543,-2.7603013 23.292263,-3.8010399 0,0 10e-7,-1e-7 10e-7,-1e-7 -8.2e-5,1.02e-5 0.205725,-0.025418 0.205643,-0.025408 5.552485,-0.6853202 11.27008,-1.3337453 17.22695,-1.9276955 m -14.526811,0.019414 c 7.337508,-0.7581371 15.551381,-1.4050109 23.896631,-1.4439049 8.12268,-0.037857 15.26828,-0.7411831 22.62567,-0.8561661 0,0 0,0 0,0 0.37,-0.0058 0.74314,-0.01056 1.11924,-0.01435 1.00698,-0.01017 2.03509,-0.01335 3.08072,-0.01021 m -18.85411,0.280139 c 5.00491,-0.161487 10.34846,-0.273161 15.75617,-0.292756 2.66582,-0.0097 5.34707,0.003 8.01351,0.04314 0,0 0,0 0,0 8.13819,0.122355 15.71445,0.41702 23.39891,0.8116817 0.58446,0.030017 1.16553,0.063755 1.74322,0.1009559 m -19.23206,0.6991349 c 7.60083,0.1558176 16.0599,0.4905307 23.63551,0.7232334 4.71778,0.1449177 9.15319,0.6851763 13.33757,1.3275443 1.28685,0.1975513 2.55941,0.4063373 3.81138,0.6176203 M 181.4239,-7.4726214 c 3.19413,0.3764522 6.42325,0.723038 9.53106,1.058253 4.49659,0.4850107 8.72266,0.9448709 12.79014,1.4814135 0,0 0,5e-7 0,5e-7 7.52399,0.9924921 15.96636,3.4609465 22.92281,5.9356434 2.06993,0.7363602 4.12378,1.4216352 6.04184,2.0609112 -1.26025,-0.4200309 2.15506,0.7183288 0.89481,0.2982979 m -20.55155,-4.7795615 c 6.2794,1.43382815 13.18371,2.7287989 18.76249,3.8525782 1.41766,0.2855693 2.7994,0.5690849 4.15701,0.8568103 0,2e-7 1e-5,4e-7 1e-5,6e-7 8.33844,1.7672041 15.92772,6.6019967 20.6884,9.9927293 0.99534,0.708921 1.94624,1.410185 2.85579,2.11663 3.09067,2.400517 5.54975,4.747333 7.32419,7.227586 M 251.48298,8.2312447 c 3.59462,1.6855669 6.76904,3.6128993 9.38069,5.5975013 3.19919,2.431075 5.60819,4.980831 7.16896,7.540403 0.28534,0.467935 0.54248,0.936461 0.77124,1.405181 1.02555,2.101336 1.56666,4.25989 1.58519,6.467957 0.0227,2.702343 -0.73667,5.440377 -2.27422,8.239546 -1.2527,2.280605 -3.02498,4.606457 -5.30757,6.975346 -0.5125,0.531884 -1.05871,1.045414 -1.63957,1.540761 -3.47191,2.960791 -7.82869,5.014105 -13.52689,6.884167 M 31.158653,52.047326 24.044792,48.294683 m 166.966288,-54.8167686 7.10476,1.0070818" />
      <path
         id="ellipse1"
         style="fill:none;stroke:#000000;stroke-width:1.46221;stroke-dasharray:none"
         d="m 269.28757,33.25521 c 0.096,7.673875 -0.31999,15.435885 -0.64179,22.990148 l 0,3e-6 c -0.32193,7.5575 -0.15567,15.449198 -0.15416,23.018763 l 0,3e-6 c 7e-4,3.536408 -0.0338,7.271006 -0.0723,11.139271 0.008,3.126481 -1.03283,6.277527 -3.01921,9.472101 m 4.31598,-28.677985 c -0.27507,6.592734 -0.19827,13.160821 -0.17642,19.774259 0.02,1.212091 -0.13773,2.418464 -0.46962,3.615935 -0.65071,2.34777 -1.95166,4.652694 -3.84972,6.919522 -2.78487,3.32594 -6.76771,6.47861 -11.81811,9.68262 -0.18662,0.11839 -0.37537,0.23567 -0.56626,0.35184 -4.5679,2.78004 -10.0269,4.74418 -16.60692,6.40379 m 20.40281,-9.87311 c -1.05189,0.57953 -2.1528,1.16649 -3.29357,1.75533 -4.95713,2.55879 -11.43781,5.55325 -18.46823,8.074 -7.13563,2.55847 -14.38143,3.82949 -23.42836,4.70689 0,0 0,0 0,0 -1.73776,0.16854 -3.43132,0.41452 -5.10417,0.72411 m 21.33904,-4.99302 c -6.64361,1.85954 -14.35932,3.73107 -22.65795,5.49236 1e-5,0 -0.35163,0.0745 -0.35162,0.0745 -7.76446,1.64171 -15.12657,2.51322 -23.49482,3.70371 -4.86965,0.69278 -9.4311,1.09559 -13.93506,1.45083 m 29.23358,-1.85507 c -7.34201,1.0683 -15.48235,1.91884 -23.86497,2.48705 -8.10509,0.5494 -15.34959,0.93048 -22.90203,0.98146 0,0 0,0 0,0 -2.76497,0.0187 -5.64805,0.0601 -8.62351,0.10823 -9.43405,0.15251 0.58806,-0.01 -8.84598,0.14277 m 24.85163,0.0945 c -5.94568,0.27638 -11.7716,0.23542 -17.76274,-0.0655 -2.04718,-0.10282 -4.11189,-0.23591 -6.20506,-0.39677 -5.46695,-0.42017 -10.63252,-0.42569 -15.79916,-0.48392 m 13.223,0.5462 c -8.04713,-0.12237 -15.97555,-0.61138 -24.23722,-1.27566 -7.984472,-0.642 -14.349259,-1.56168 -20.625221,-2.81695 m 16.713381,3.01962 c -7.81748,-0.53123 -15.613945,-1.74832 -22.749347,-2.9689 -1.241049,-0.21229 -2.494141,-0.43012 -3.755923,-0.65383 -6.837413,-1.21223 -13.526337,-2.52607 -19.829695,-4.00407 -8.437993,-1.97853 -15.265213,-4.99064 -21.073989,-8.16367 m 16.508981,6.23278 C 43.234954,117.77781 35.510489,114.52118 29.525523,111.32674 28.906987,110.9966 28.30463,110.67068 27.71675,110.3472 22.040578,107.22389 17.856135,104.38437 14.905526,101.22301 13.675507,99.905132 12.693365,98.560683 11.965813,97.184887 10.974167,95.309689 10.437338,93.31084 10.386118,91.244903 10.238699,87.366329 9.9969394,83.316127 9.6679623,79.246151 m 3.4843337,18.98302 C 11.218194,95.652831 10.215477,92.909713 10.168746,90.133652 10.02422,85.358367 9.8770111,80.5475 9.5750582,75.886948 9.0879111,68.367981 9.4014806,60.573133 9.3646433,53.274433 l 0,-3e-6 C 9.3368553,47.768715 9.4036529,41.567615 9.654182,35.285371 M 270.74514,30.096684 c -0.32199,7.555502 -0.52667,15.579156 -1.26,23.409051 -0.73365,7.83325 -0.14984,15.255019 -0.13542,22.443765 l 0,3e-6 c 0.008,4.125107 0.0273,8.717777 0.12176,13.444777 0.0154,0.473646 0.007,0.947464 -0.0241,1.421202 m -0.97154,-26.596057 c -0.27979,7.572189 0.19268,15.644762 0.88369,23.602779 0.088,1.014043 0.15018,2.025334 0.1913,3.035048 0.19541,3.634641 -1.41185,7.15897 -4.50494,10.618808 -1.84411,2.06277 -4.13987,4.03058 -6.85081,6.08208 -0.21397,0.16193 -0.431,0.32232 -0.65109,0.48117 m 11.32733,-19.197962 c -4.3e-4,0.06946 -8.8e-4,0.138967 -0.001,0.208527 0.024,3.512354 -1.53014,7.061832 -4.51963,10.636305 -2.24489,2.68418 -5.31291,5.39979 -9.12281,8.12408 -1.26226,0.90258 -2.57646,1.72812 -3.94618,2.48097 -3.81084,2.09458 -7.77981,3.49012 -12.30437,4.65645 m 11.79422,-4.68072 c -6.00252,3.31034 -13.32656,5.96265 -22.8148,8.80094 -7.6438,2.28656 -14.08006,3.91793 -21.66812,5.75116 0,0 0,0 0,1e-5 -0.63087,0.15241 -1.27931,0.29682 -1.94465,0.43368 -0.092,0.0189 -0.1842,0.0377 -0.27672,0.0563 m 20.34914,-4.43996 c -6.12083,1.68351 -12.5032,2.70434 -19.53328,3.12575 -1.15042,0.069 -2.31134,0.12154 -3.48487,0.15879 -7.58496,0.24075 -15.06763,2.26898 -22.69326,3.10271 -6.96484,0.76149 -14.56156,1.53682 -21.75326,2.52743 m 27.77185,-2.82462 c -7.51821,0.83048 -15.16747,1.31842 -22.64665,1.3346 -6.81845,0.0148 -14.56232,0.51186 -22.20576,0.54966 -0.56914,0.003 -1.13769,0.003 -1.70522,3.4e-4 -6.09165,-0.0292 -11.57686,-0.0386 -17.24732,-0.0426 m 20.58425,1.01481 c -0.0216,-6.1e-4 -0.87234,-0.0242 -0.89395,-0.0248 -7.5472,-0.20647 -14.66966,-0.33377 -21.55594,-1.02181 -4.79114,-0.47871 -10.33011,-0.75602 -15.87626,-1.08712 m 17.87582,2.0173 c -8.00721,-0.2692 -15.50752,-0.76999 -22.610941,-1.24393 -7.335897,-0.48945 -15.168385,-2.35524 -21.976752,-4.50198 -0.132978,-0.0419 -0.265552,-0.084 -0.397714,-0.12609 0,0 0,0 -1e-6,0 -3.977478,-1.26785 -8.454997,-2.09896 -12.658136,-2.88384 m 22.836411,4.74294 c -3.744646,-0.51918 -7.381711,-1.15993 -10.929753,-1.91545 -4.152608,-0.88426 -8.125433,-1.91351 -11.931069,-3.05909 0,0 -3e-6,0 -3e-6,0 -8.291214,-2.49583 -15.560983,-3.59759 -21.684029,-5.29428 -4.212159,-1.16718 -8.5595,-3.22898 -12.283697,-5.36402 m 19.975049,9.5553 c -8.308118,-2.64906 -15.802871,-5.52818 -22.430221,-8.94967 -0.192625,-0.0994 -0.384238,-0.19921 -0.574834,-0.29931 -5.972206,-3.13635 -9.860547,-6.07893 -12.482352,-9.11987 -1.769547,-2.052433 -2.976142,-4.180557 -3.633035,-6.364965 -0.3500118,-1.163916 -0.5216528,-2.351993 -0.5072004,-3.554399 -5.442e-4,-0.329359 -0.00105,-0.659232 -0.00151,-0.98954 M 20.5608,107.92786 c -2.76916,-1.89939 -4.986344,-3.94973 -6.646766,-6.07719 -2.737221,-3.507148 -4.0139781,-7.282541 -3.680772,-11.131979 0.07284,-0.979808 0.150938,-1.964729 0.234194,-2.954739 0.38506,-4.578782 0.307894,-8.577754 0.145574,-12.354731 m 0.613166,16.098881 c -0.0019,-0.122633 -0.0022,-0.245371 -7.39e-4,-0.368214 -0.011,-7.670727 -0.499633,-15.434093 -1.160261,-23.346762 C 9.4498142,60.422388 9.6465338,53.467784 9.3349372,46.326512 M 11.405787,59.272897 C 11.216372,51.729188 11.098214,43.889234 10.78618,35.774914 m 259.68926,-1.599569 c -0.0702,7.686592 -0.21096,15.720505 -0.31657,23.840132 l 0,3e-6 c -0.10566,8.123106 -0.6502,15.787354 -1.64167,24.031263 l 0,3e-6 c -0.37025,3.078587 -0.44469,6.023593 -0.36229,8.907832 0.14802,3.527199 -1.01311,6.917791 -3.48555,10.166782 -0.085,0.11175 -0.1717,0.22341 -0.25998,0.335 m 4.88837,-22.123372 c 0.0156,3.794173 -0.036,7.573544 -0.10536,11.318372 -0.0172,3.487532 -1.59393,6.886142 -4.53192,10.03852 -0.0623,0.0669 -0.1253,0.13368 -0.18886,0.20034 -2.88368,3.0245 -7.3325,6.21584 -13.06298,9.04075 -2.21121,1.09004 -4.65825,2.14541 -7.29742,3.09535 -5.81409,2.09271 -14.9122,5.59917 -22.423,7.70838 0,0 -0.01,0.003 -0.01,0.003 m 28.21163,-9.58827 c -6.35896,3.41648 -12.86332,5.95437 -21.15719,9.17545 -3.99039,1.54975 -8.32169,2.60106 -13.09913,3.50317 m 14.48324,-5.10518 c -6.84238,2.12665 -14.43768,3.78488 -23.01152,4.99638 -1.25794,0.17775 -2.51523,0.37212 -3.78057,0.58103 -6.3323,1.04543 -12.62161,2.43372 -19.22052,3.57697 -6.85814,1.18816 -13.48321,1.35116 -20.01395,1.45248 m 24.91849,-2.13553 c -7.52084,1.00419 -15.08652,1.27406 -22.52204,0.81141 -4.57834,-0.28488 -9.6096,0.17472 -14.84584,0.67445 m 18.40733,1.13243 c -7.59395,0.54594 -15.56417,0.72066 -23.61061,0.48458 -2.18248,-0.064 -4.35918,-0.10764 -6.5492,-0.15266 -5.84437,-0.12016 -11.72357,-0.24965 -17.91047,-0.79939 -5.29763,-0.47072 -9.91229,-0.66462 -14.25455,-0.89543 m 27.94525,1.93551 c -7.99966,0.0907 -15.56613,-0.53538 -23.0946,-1.29922 -7.76188,-0.78752 -15.823125,-1.12455 -23.642628,-1.76178 -4.573742,-0.37272 -8.918765,-1.16954 -13.109183,-2.14844 -3.022605,-0.7061 -6.017235,-1.5203 -8.889204,-2.33166 m 25.830219,3.64319 c -5.371037,-0.75271 -10.823853,-1.46571 -16.067721,-2.24138 -2.316336,-0.34263 -4.558124,-0.69206 -6.735941,-1.05951 0,0 -2e-6,0 -2e-6,0 -7.944653,-1.34048 -16.440654,-3.89022 -23.446898,-6.21886 -7.276154,-2.41835 -12.558523,-4.65136 -17.018731,-7.14816 m 27.647495,10.89224 c -8.65391,-2.36805 -16.091528,-4.63397 -22.994759,-7.32835 -2.199089,-0.85831 -4.160817,-1.80658 -5.919768,-2.80788 -5.417784,-3.08411 -9.362952,-6.93863 -11.935387,-10.670453 -0.184018,-0.266953 -0.362012,-0.534721 -0.533927,-0.803124 -2.303895,-3.59696 -3.620233,-6.674719 -3.641852,-9.866246 -0.07262,-3.485117 -0.202902,-6.788984 -0.230662,-10.18163 m 5.439273,23.262443 c -0.686133,-0.64011 -1.320782,-1.28809 -1.902204,-1.94257 -2.937831,-3.306969 -4.509439,-6.768866 -4.558947,-10.286315 -0.08168,-2.965078 -0.176696,-5.917091 -0.281184,-8.840633 l 0,-2e-6 c -0.270667,-7.573227 -0.04217,-15.449481 0.170835,-23.031265 l 0,-2e-6 c 0.07207,-2.565063 0.039,-5.155278 -0.06265,-7.748444 M 10.08112,65.263409 C 9.8402678,57.420971 9.6186671,49.623081 9.0022645,41.648478 8.6689044,37.33569 8.719907,33.178286 8.915351,29.083676 m 115.053099,100.625764 -7.44857,-0.35518 m 45.61649,0.0849 -9.49949,0.39755"
         sodipodi:nodetypes="ccsscc"
         inkscape:original-d="m 270,30 -0.80028,60.150146 c 10e-6,14.236984 -24.62532,27.392504 -64.59986,34.510994 -39.97454,7.11849 -89.2252,7.11849 -129.199725,-1e-5 -39.974527,-7.11849 -64.599852,-20.274 -64.599857,-34.510984 L 10,30" />
    </g>
    <text
       xml:space="preserve"
       style="font-size:26.6667px;font-family:Quicksand;-inkscape-font-specification:'Quicksand, Normal';text-align:center;text-anchor:middle;fill:#000000;stroke:none"
       x="99.17334"
       y="140"
       id="text22"><tspan
         sodipodi:role="line"
         id="tspan22"
         x="99.17334"
         y="140">Redis-Dienst</tspan></text>
  </g>
</svg>
