<?xml version="1.0" encoding="UTF-8" standalone="no"?>
<svg
   height="150"
   width="200"
   version="1.1"
   id="svg1"
   sodipodi:docname="database.svg"
   inkscape:version="1.3.2 (091e20ef0f, 2023-11-25, custom)"
   xmlns:inkscape="http://www.inkscape.org/namespaces/inkscape"
   xmlns:sodipodi="http://sodipodi.sourceforge.net/DTD/sodipodi-0.dtd"
   xmlns="http://www.w3.org/2000/svg"
   xmlns:svg="http://www.w3.org/2000/svg">
  <defs
     id="defs1">
    <inkscape:path-effect
       effect="sketch"
       id="path-effect21"
       is_visible="true"
       lpeversion="1"
       nbiter_approxstrokes="3"
       parallel_offset="1;192937983"
       strokelength="70"
       strokelength_rdm="0.5;903206615"
       strokeoverlap="0.5"
       strokeoverlap_rdm="0.5;1105235548"
       ends_tolerance="0.1;836224758"
       tremble_size="0.8;1"
       tremble_frequency="3"
       nbtangents="2"
       tgt_places_rdmness="0.5;1"
       tgtlength="5"
       tgtlength_rdm="0.3;1"
       tgtscale="10" />
    <inkscape:path-effect
       effect="sketch"
       id="path-effect15"
       is_visible="true"
       lpeversion="1"
       nbiter_approxstrokes="3"
       parallel_offset="1;192937983"
       strokelength="70"
       strokelength_rdm="0.5;903206615"
       strokeoverlap="0.5"
       strokeoverlap_rdm="0.5;1105235548"
       ends_tolerance="0.1;836224758"
       tremble_size="0.8;1"
       tremble_frequency="3"
       nbtangents="2"
       tgt_places_rdmness="0.5;1"
       tgtlength="5"
       tgtlength_rdm="0.3;1"
       tgtscale="10" />
    <inkscape:path-effect
       effect="sketch"
       id="path-effect13"
       is_visible="true"
       lpeversion="1"
       nbiter_approxstrokes="3"
       parallel_offset="1;2624778490"
       strokelength="70"
       strokelength_rdm="0.5;3498077526"
       strokeoverlap="0.5"
       strokeoverlap_rdm="0.5;1105235548"
       ends_tolerance="0.1;836224758"
       tremble_size="0.8;1"
       tremble_frequency="3"
       nbtangents="2"
       tgt_places_rdmness="0.5;1"
       tgtlength="5"
       tgtlength_rdm="0.3;1"
       tgtscale="10" />
    <inkscape:path-effect
       effect="sketch"
       id="path-effect10"
       is_visible="true"
       lpeversion="1"
       nbiter_approxstrokes="3"
       parallel_offset="0.2;1"
       strokelength="70"
       strokelength_rdm="0.3;1"
       strokeoverlap="0.5"
       strokeoverlap_rdm="0.5;1"
       ends_tolerance="0.1;1"
       tremble_size="0.8;1"
       tremble_frequency="3"
       nbtangents="2"
       tgt_places_rdmness="0.5;1"
       tgtlength="5"
       tgtlength_rdm="0.3;1"
       tgtscale="10" />
    <inkscape:path-effect
       effect="sketch"
       id="path-effect9"
       is_visible="true"
       lpeversion="1"
       nbiter_approxstrokes="3"
       parallel_offset="0.2;1"
       strokelength="70"
       strokelength_rdm="0.3;1"
       strokeoverlap="0.5"
       strokeoverlap_rdm="0.5;1"
       ends_tolerance="0.1;1"
       tremble_size="0.8;1"
       tremble_frequency="3"
       nbtangents="2"
       tgt_places_rdmness="0.5;1"
       tgtlength="5"
       tgtlength_rdm="0.3;1"
       tgtscale="10" />
    <inkscape:path-effect
       effect="sketch"
       id="path-effect8"
       is_visible="true"
       lpeversion="1"
       nbiter_approxstrokes="3"
       parallel_offset="0.2;1"
       strokelength="70"
       strokelength_rdm="0.3;1"
       strokeoverlap="0.5"
       strokeoverlap_rdm="0.5;1"
       ends_tolerance="0.1;1"
       tremble_size="0.8;1"
       tremble_frequency="3"
       nbtangents="2"
       tgt_places_rdmness="0.5;1"
       tgtlength="5"
       tgtlength_rdm="0.3;1"
       tgtscale="10" />
    <inkscape:path-effect
       effect="sketch"
       id="path-effect4"
       is_visible="true"
       lpeversion="1"
       nbiter_approxstrokes="3"
       parallel_offset="0.2;1"
       strokelength="70"
       strokelength_rdm="0.3;1"
       strokeoverlap="0.5"
       strokeoverlap_rdm="0.5;1"
       ends_tolerance="0.1;1"
       tremble_size="0.8;1"
       tremble_frequency="3"
       nbtangents="2"
       tgt_places_rdmness="0.5;1"
       tgtlength="5"
       tgtlength_rdm="0.3;1"
       tgtscale="10" />
    <inkscape:path-effect
       effect="sketch"
       id="path-effect3"
       is_visible="true"
       lpeversion="1"
       nbiter_approxstrokes="3"
       parallel_offset="2;1"
       strokelength="70"
       strokelength_rdm="0.3;1"
       strokeoverlap="0.5"
       strokeoverlap_rdm="0.5;1"
       ends_tolerance="0.1;1"
       tremble_size="0.8;1"
       tremble_frequency="3"
       nbtangents="2"
       tgt_places_rdmness="0.5;1"
       tgtlength="5"
       tgtlength_rdm="0.3;1"
       tgtscale="10" />
    <inkscape:path-effect
       effect="sketch"
       id="path-effect2"
       is_visible="true"
       lpeversion="1"
       nbiter_approxstrokes="3"
       parallel_offset="2;1"
       strokelength="70"
       strokelength_rdm="0.3;1"
       strokeoverlap="0.5"
       strokeoverlap_rdm="0.5;1"
       ends_tolerance="0.1;1"
       tremble_size="0.8;1"
       tremble_frequency="3"
       nbtangents="2"
       tgt_places_rdmness="0.5;1"
       tgtlength="5"
       tgtlength_rdm="0.3;1"
       tgtscale="10" />
    <inkscape:path-effect
       effect="sketch"
       id="path-effect6"
       is_visible="true"
       lpeversion="1"
       nbiter_approxstrokes="3"
       parallel_offset="0.2;1"
       strokelength="70"
       strokelength_rdm="0.3;1"
       strokeoverlap="0.5"
       strokeoverlap_rdm="0.5;1"
       ends_tolerance="0.1;1"
       tremble_size="0.8;1"
       tremble_frequency="3"
       nbtangents="2"
       tgt_places_rdmness="0.5;1"
       tgtlength="5"
       tgtlength_rdm="0.3;1"
       tgtscale="10" />
    <inkscape:path-effect
       effect="sketch"
       id="path-effect5"
       is_visible="true"
       lpeversion="1"
       nbiter_approxstrokes="3"
       parallel_offset="0.2;1"
       strokelength="70"
       strokelength_rdm="0.3;1"
       strokeoverlap="0.5"
       strokeoverlap_rdm="0.5;1"
       ends_tolerance="0.1;1"
       tremble_size="0.8;1"
       tremble_frequency="3"
       nbtangents="2"
       tgt_places_rdmness="0.5;1"
       tgtlength="5"
       tgtlength_rdm="0.3;1"
       tgtscale="10" />
    <inkscape:path-effect
       effect="sketch"
       id="path-effect1"
       is_visible="true"
       lpeversion="1"
       nbiter_approxstrokes="3"
       parallel_offset="0.2;1"
       strokelength="70"
       strokelength_rdm="0.3;1"
       strokeoverlap="0.5"
       strokeoverlap_rdm="0.5;1"
       ends_tolerance="0.1;1"
       tremble_size="0.8;1"
       tremble_frequency="3"
       nbtangents="2"
       tgt_places_rdmness="0.5;1"
       tgtlength="5"
       tgtlength_rdm="0.3;1"
       tgtscale="10" />
    <inkscape:path-effect
       effect="sketch"
       id="path-effect7"
       is_visible="true"
       lpeversion="1"
       nbiter_approxstrokes="3"
       parallel_offset="0.2;1"
       strokelength="70"
       strokelength_rdm="0.3;1"
       strokeoverlap="0.5"
       strokeoverlap_rdm="0.5;1"
       ends_tolerance="0.1;1"
       tremble_size="0.8;1"
       tremble_frequency="3"
       nbtangents="2"
       tgt_places_rdmness="0.5;1"
       tgtlength="5"
       tgtlength_rdm="0.3;1"
       tgtscale="10" />
  </defs>
  <sodipodi:namedview
     id="namedview1"
     pagecolor="#ffffff"
     bordercolor="#000000"
     borderopacity="0.25"
     inkscape:showpageshadow="2"
     inkscape:pageopacity="0.0"
     inkscape:pagecheckerboard="0"
     inkscape:deskcolor="#d1d1d1"
     inkscape:zoom="1.4142136"
     inkscape:cx="140.71425"
     inkscape:cy="89.095452"
     inkscape:window-width="1440"
     inkscape:window-height="831"
     inkscape:window-x="0"
     inkscape:window-y="0"
     inkscape:window-maximized="1"
     inkscape:current-layer="svg1"
     showgrid="true">
    <inkscape:grid
       id="grid1"
       units="px"
       originx="0"
       originy="0"
       spacingx="1"
       spacingy="1"
       empcolor="#0099e5"
       empopacity="0.30196078"
       color="#0099e5"
       opacity="0.14901961"
       empspacing="5"
       dotted="false"
       gridanglex="30"
       gridanglez="30"
       visible="true" />
  </sodipodi:namedview>
  <path
     id="path13"
     style="fill:#ff8080;stroke-width:0.999998;stroke-dasharray:none"
     d="m 11.147812,33.147491 0.0027,0.102851 c 0.0065,-0.03429 0.01314,-0.06857 0.02004,-0.102851 z m 0.0027,0.102851 0.544979,41.033712 c 3e-6,9.736595 16.841003,18.732771 44.179362,23.601066 27.33836,4.8683 61.021697,4.86829 88.360067,0 27.33836,-4.868295 44.17937,-13.864471 44.17936,-23.601066 l 0.54364,-41.02169 C 188.93514,48.30811 149.13928,60.501523 100.05553,60.501965 50.955417,60.501976 26.201246,33.250342 11.150483,33.250342 Z M 188.94053,33.147491 c 0.006,0.03116 0.0127,0.06233 0.0187,0.0935 l 0.001,-0.0935 z"
     sodipodi:nodetypes="ccccccsscccsccccc" />
  <path
     id="path19"
     style="fill:#ff5555;stroke-width:0.999998;stroke-dasharray:none"
     d="m 11.14829,33.147491 0.0027,0.102851 c 0.0065,-0.03429 0.01314,-0.06857 0.02004,-0.102851 z m 0.0027,0.102851 0.544979,41.033712 c 3e-6,9.736588 16.84103,18.732778 44.179362,23.601066 27.338333,4.86829 61.021719,4.86829 88.360059,0 23.02121,-4.099514 38.55132,-11.12993 42.89706,-19.060905 -7.52106,5.043433 -19.9457,9.352725 -36.05811,12.221953 -27.33834,4.868287 -61.021724,4.868294 -88.360057,0 C 35.375923,86.17788 18.534897,77.18169 18.534893,67.445102 L 18.337205,43.874763 C 13.642793,40.516741 14.804603,33.250342 11.150962,33.250342 Z M 188.941,46.825395 c 0.006,0.03117 0.0127,0.06233 0.0187,0.0935 l 0.001,-0.0935 z m 0.0174,0.114873 c -0.0528,1.49558 -0.50712,2.98729 -1.35844,4.460016 0.44599,-0.289737 0.87527,-0.581863 1.28765,-0.876241 z"
     sodipodi:nodetypes="ccccccsscssccsccccccccc" />
  <ellipse
     style="fill:#ffaaaa;stroke:none;stroke-width:0.999998;stroke-dasharray:none"
     id="ellipse22"
     cx="99.987053"
     cy="33.24884"
     rx="88.904976"
     ry="27.252234" />
  <path
     id="ellipse19"
     style="fill:#ff8080;stroke:none;stroke-width:0.999998;stroke-dasharray:none"
     d="M 19.281568,21.93535 A 88.904981,27.252234 0 0 0 11.081504,33.249008 88.904981,27.252234 0 0 0 99.986544,60.500631 88.904981,27.252234 0 0 0 187.53315,37.72104 88.904981,27.252234 0 0 1 106.8255,53.661679 88.904981,27.252234 0 0 1 17.920456,26.410056 88.904981,27.252234 0 0 1 19.281568,21.93535 Z" />
  <g
     id="g13"
     style="stroke-width:1.46221;stroke-dasharray:none"
     inkscape:path-effect="#path-effect13"
     transform="matrix(0.6838952,0,0,0.6838952,4.2412163,12.629301)">
    <path
       style="fill:none;stroke:#000000;stroke-width:1.46221;stroke-dasharray:none"
       id="path1"
       sodipodi:type="arc"
       sodipodi:ry="39.848553"
       sodipodi:rx="129.99796"
       sodipodi:cy="30.150143"
       sodipodi:cx="140.00075"
       d="m 270.70844,31.682802 c 0.0197,2.459345 -0.79405,4.952041 -2.41714,7.421743 -1.68274,2.560477 -4.2369,5.097211 -7.59794,7.534808 -1.24458,0.902634 -2.59744,1.789666 -4.04803,2.652235 -5.69296,3.385221 -12.95429,6.499961 -21.71111,8.96325 0,0 0,0 0,0 -0.43431,0.122169 -0.86898,0.245015 -1.30546,0.368844 m 13.74277,-5.642004 c -4.57874,1.915416 -9.67925,3.739058 -15.09584,5.22638 -2.18316,0.599468 -4.44949,1.153329 -6.79941,1.64449 -6.91644,1.445625 -14.59758,3.600946 -22.56023,5.231031 0,0 0,10e-7 0,10e-7 -3.96939,0.8126 -8.05456,1.433434 -12.29003,1.992406 -1.15352,0.152235 -2.31027,0.298886 -3.47362,0.443309 m 27.00642,-4.274577 c -7.22509,1.397973 -14.73393,2.768834 -21.9132,3.544939 0,0 0,0 0,0 -0.56408,0.06098 -1.14127,0.126229 -1.7309,0.195456 -6.67509,0.783694 -14.34463,1.99696 -22.40858,3.20535 -1.79634,0.269183 -3.52873,0.443212 -5.21623,0.54236 m 15.50548,-2.317139 c -7.7382,0.741352 -15.11037,1.18978 -22.45464,1.334607 -5.01518,0.0989 -10.44087,0.309139 -15.94683,0.485826 -2.43658,0.07819 -4.86369,0.148832 -7.23224,0.198234 -6.92733,0.144487 -14.17517,-0.122874 -21.42887,-0.174416 m 27.3699,0.162761 c -7.67788,0.08218 -15.70852,-0.468721 -23.54121,-1.344404 -8.08635,-0.90404 -15.814877,-1.326248 -23.495059,-2.563138 -0.759458,-0.122311 -1.511498,-0.238365 -2.256012,-0.349111 -6.385833,-0.949885 -12.244905,-1.528296 -17.797993,-2.282832 m 21.458967,5.060481 C 92.272284,68.85294 91.470415,68.757356 90.66711,68.657282 83.662717,67.784688 76.543211,66.570758 70.045877,65.215001 62.18083,63.573852 54.801796,61.666309 47.743862,59.255121 47.380228,59.130894 47.018072,59.005535 46.657387,58.87903 44.457532,58.107464 42.438135,57.385762 40.503965,56.659989 m 23.811922,4.528684 C 58.396078,59.906919 53.071138,58.805113 47.957644,57.721436 46.039288,57.314888 44.200818,56.921282 42.454204,56.538373 38.127402,55.589812 33.788187,53.454919 30.126931,51.19766 m 11.340098,4.922575 C 32.872111,53.257332 25.918217,49.473996 21.012968,45.732875 20.688915,45.485727 20.370083,45.238682 20.056481,44.991354 16.88889,42.493172 14.364584,40.047056 12.572159,37.474607 10.79362,34.922085 9.8163485,32.349638 9.6744126,29.741645 c -0.058137,-1.068238 0.024429,-2.138173 0.2481381,-3.20775 0.3207093,-1.533347 0.9637673,-3.064751 1.9231723,-4.586476 1.636639,-2.59589 4.167429,-5.127125 7.565094,-7.648125 0.211111,-0.156641 0.425359,-0.313095 0.642732,-0.469392 m -8.775,14.995826 c 0.151785,-2.254135 0.970748,-4.51188 2.447129,-6.731554 1.684546,-2.532638 4.227077,-5.017093 7.586004,-7.370258 1.417768,-0.993246 2.980197,-1.962287 4.677928,-2.896185 5.4153,-2.9788814 13.336446,-6.9074043 21.408199,-10.2627257 0.118946,-0.049444 0.238093,-0.098462 0.357443,-0.1470584 M 27.831474,9.5539749 C 33.364062,6.5620653 39.503904,3.9947978 46.570704,1.1011717 47.483775,0.72729866 47.358036,0.77888953 48.271107,0.40501652 53.598714,-1.7773318 60.141169,-3.0423398 67.776989,-4.535666 m -10.263131,3.7426605 c 7.335617,-1.900346 14.948272,-3.3830722 23.825192,-4.9037062 3.357621,-0.5751671 6.537472,-0.9707035 9.666049,-1.2214582 4.366863,-0.3500029 8.569964,-0.4136523 13.055491,-0.3140159 3.15641,0.070113 6.42063,-0.1545838 9.76927,-0.4913913 m -24.327853,1.130185 c 0.337466,-0.056485 0.676421,-0.1112336 1.016861,-0.1643093 7.14262,-1.1135563 14.668972,-1.4559907 22.624352,-1.7324717 5.83906,-0.2029304 11.38437,-0.3898034 16.8043,-0.2730727 m -16.6612,-0.2176808 c 7.86399,-0.5588107 15.6065,-0.2267249 23.74544,0.7477325 0.65894,0.078894 1.31491,0.1457596 1.96837,0.2022288 5.65067,0.4883027 11.14973,0.1986156 16.6838,0.1902554 m -10.05344,-3.0729011 c 8.03276,0.325419 15.54888,0.799456 23.12033,2.1151245 7.19915,1.2509748 14.56631,1.2082838 21.68171,1.8069881 0.61728,0.051938 1.2324,0.1083338 1.84574,0.1702929 0,0 0,10e-8 0,10e-8 3.09497,0.312649 6.06571,0.7498916 8.92446,1.2629118 M 177.65024,-7.154958 c 4.36172,0.3035689 8.66145,0.7654569 12.85547,1.2952336 3.53583,0.4466359 7.07702,0.9521268 10.51082,1.4579225 0,10e-8 0,2e-7 0,3e-7 8.21061,1.2094183 15.93403,2.9832285 23.04971,4.92516137 2.53785,0.69260103 4.92838,1.35972043 7.23973,2.03833133 m -19.7113,-5.2673518 c 6.9688,1.5323767 13.64785,2.80732377 19.85258,4.1211131 1.1104,0.2351145 2.20334,0.4705874 3.28247,0.7086017 6.73836,1.4862164 12.59237,4.4212947 16.93296,6.9124622 m -17.6108,-7.0728812 c 8.55355,2.680004 15.90051,6.1500063 21.68817,9.8348919 1.73142,1.102358 3.29757,2.165045 4.72731,3.229358 3.33064,2.479353 5.8343,4.910022 7.57169,7.461426 1.4969,2.198226 2.38859,4.440344 2.68336,6.73542 0.0456,0.354884 0.0748,0.709013 0.0879,1.062265 0.0974,2.633989 -0.70465,5.225791 -2.36149,7.716192 -1.66534,2.503173 -4.16211,4.860699 -7.42111,7.089954 -0.71357,0.488105 -1.46003,0.967671 -2.2384,1.439916 M 271.19868,30.68696 c -0.26436,2.235198 -1.12419,4.453415 -2.58736,6.622292 -1.70359,2.525247 -4.23288,4.992851 -7.59004,7.30533 -1.45771,1.0041 -3.07761,1.983087 -4.86344,2.927677 -5.52276,2.921174 -13.58995,6.792279 -22.14717,9.825468 0,0 -1e-5,10e-7 -1e-5,10e-7 -0.74417,0.263781 -1.48766,0.514249 -2.23162,0.751998 -4.44585,1.420779 -8.78422,2.350255 -13.42986,3.016371 m 20.02055,-4.795733 c -1.95285,0.640447 -4.01469,1.304103 -6.09577,1.955861 -4.78419,1.498323 -10.15559,3.088165 -15.31121,4.354947 -6.94365,1.706118 -14.45556,3.101456 -23.07644,4.941451 0,0 0,0 0,0 -0.99658,0.212704 -2.00222,0.403309 -3.01862,0.575459 -4.17953,0.707894 -8.44647,1.089445 -12.98055,1.434884 M 206.83347,65.0867 c -5.17329,0.90778 -10.81571,1.523932 -16.68138,1.713073 -2.22084,0.07161 -4.47296,0.08184 -6.73933,0.02291 -7.76775,-0.201998 -15.3388,1.441843 -23.21706,1.880857 -6.51648,0.363129 -12.89334,0.630178 -19.00531,0.915587 m 16.13511,-0.705995 c -5.70995,0.119865 -11.51689,0.488207 -17.17549,0.887353 -1.16692,0.08231 -4.05711,0.291724 -5.22403,0.374036 -6.66705,0.476374 -14.39548,-0.265495 -21.37112,-0.744993 m 20.41269,0.189569 c -7.99999,-0.05276 -15.23124,-0.136663 -22.5501,-0.09397 -6.18564,0.03608 -13.388805,-0.877631 -20.024207,-1.61214 m 20.879657,2.123495 c -7.60934,-0.361795 -15.368708,-1.265616 -23.150582,-2.273454 -0.02201,-0.0028 -1.292271,-0.168297 -1.314281,-0.171147 0,0 -10e-7,0 -10e-7,0 C 80.131911,66.58721 74.149637,65.748415 68.345168,64.845954 m 16.240975,2.642918 C 76.416764,66.307684 68.814164,64.901371 61.672428,63.240935 56.885351,62.127951 52.308792,60.839689 47.983749,59.397209 c -2.847213,-0.949597 -5.577376,-1.96335 -8.17951,-3.033768 m 14.128175,2.908964 C 52.211669,58.727807 50.570184,58.209351 48.918632,57.674801 42.543446,55.611376 37.15156,53.657468 32.280075,51.195718 27.918226,48.991507 24.202439,46.885787 21.053931,44.602654 c -3.146348,-2.281567 -5.545436,-4.61833 -7.178684,-7.062096 -0.066,-0.09876 -0.130849,-0.197533 -0.194535,-0.296329 C 13.529695,37.00996 13.385216,36.775604 13.24732,36.541146 M 28.376853,50.894954 C 25.319898,49.362428 22.552638,47.663779 20.175174,45.899172 16.857391,43.436638 14.2789,40.835059 12.531216,38.204452 11.905574,37.262737 11.385677,36.316763 10.972737,35.368597 10.231773,33.667239 9.8631265,31.97398 9.8564285,30.295647 9.8459931,27.680846 10.713754,25.102094 12.43391,22.594661 c 1.6321,-2.379074 3.998034,-4.651119 7.071465,-6.878021 0.180415,-0.130722 0.362872,-0.261424 0.547343,-0.392093 4.626021,-3.276822 10.907129,-6.7907107 17.935188,-9.8377722 M 17.269015,17.989357 C 18.202481,17.123484 19.219447,16.27356 20.319797,15.43824 24.817109,12.024149 30.354403,9.0916718 37.416324,5.954953 40.85928,4.4256826 44.384907,3.1374269 48.114911,1.9316703 51.52526,0.82924494 54.737519,-0.0902131 58.26879,-1.1302892 63.594036,-2.6987505 70.699355,-3.7248665 78.460347,-4.3726793 M 59.634039,-3.06034 c 6.841783,-1.493117 14.998052,-3.1614787 23.016444,-4.3276389 2.224811,-0.3235669 4.462069,-0.6268634 6.711032,-0.9086629 5.333984,-0.6683588 10.737255,-1.2162865 16.226125,-1.6296486 4.77733,-0.3597766 9.81532,-0.5487526 14.96336,-0.5156736 m -22.16805,1.39483 c 7.86141,-1.002043 14.99208,-1.349892 22.36319,-1.670615 5.67455,-0.246904 12.16262,-0.156501 18.56304,0.322544 -2e-5,-10e-7 0.10923,0.0082 0.10922,0.0082 m -11.34731,0.4131097 c 3.93719,-0.077353 7.94101,-0.1187257 11.99953,-0.099989 3.95031,0.01824 7.94895,0.093388 11.99582,0.2473154 8.38846,0.3190638 15.64762,0.547394 23.40024,1.0163563 5.1091,0.3090533 10.07126,0.8394745 14.79511,1.4237041 2.29435,0.2837572 4.57336,0.5854907 6.7862,0.8833796 m -32.75228,-2.1781399 c 7.77465,0.5963069 15.75654,1.4061927 23.49964,2.7555637 0.48712,0.084889 0.97161,0.1662836 1.45348,0.2445152 7.67607,1.2462241 14.71825,1.7350882 21.4876,2.6277315 3.53551,0.4662111 7.0932,1.2698682 10.53354,2.20380651 M 196.19211,-5.5196805 c 8.07682,1.0494885 15.28322,2.8820537 21.50193,5.02994684 3.82981,1.32278703 8.52767,2.46772406 12.6205,3.54691916 m -15.06099,-5.5746899 c 6.09304,1.3428928 11.85491,2.70680831 17.1249,4.1695628 1.66704,0.4627099 3.26996,0.9312321 4.80625,1.4076961 0,0 0,7e-7 0,7e-7 8.11179,2.5157774 15.50873,6.8557806 20.39482,10.9492728 0.74515,0.62428 1.23355,1.029632 1.97871,1.653912 3.21466,2.695887 5.70499,4.934101 7.58616,7.455204 1.8256,2.446633 2.84386,4.894373 3.01286,7.433678 0.0298,0.448108 0.033,0.897928 0.009,1.349592 m -1.15038,2.432175 c -0.41146,1.354379 -1.04824,2.697322 -1.90691,4.022001 -1.64958,2.544822 -4.11123,5.011645 -7.33774,7.349448 -2.01683,1.461317 -4.32447,2.866416 -6.90545,4.204763 -5.50175,2.852887 -12.93543,6.063821 -20.70169,8.641112 -0.14011,0.0465 -0.28045,0.09282 -0.421,0.138976 -2.91928,0.958535 -6.14064,1.811872 -9.64649,2.573391 m 25.04021,-9.602653 c -4.44497,1.942127 -9.57047,3.977227 -15.06203,6.016933 -2.17702,0.808604 -4.43785,1.627535 -6.74912,2.444114 -7.29285,2.576578 -14.11743,3.498543 -22.41531,5.205223 0,0 0,0 0,0 -3.92339,0.806948 -8.14464,1.319948 -12.61357,1.636497 -0.4425,0.03134 -0.88697,0.06073 -1.33334,0.08827 m 15.52142,-1.833388 c -4.8112,0.723003 -9.67127,1.503105 -14.66238,2.232165 -2.79032,0.407588 -5.64025,0.800799 -8.534,1.150796 -7.69236,0.930385 -15.42389,1.356041 -23.65097,1.73738 -0.36384,0.01686 -0.72651,0.03292 -1.08807,0.04818 m 16.53672,-0.614017 c -7.84033,0.53099 -15.35647,0.976059 -22.97622,1.054231 0,0 0,0 0,0 -3.20259,0.03286 -6.45034,0.03657 -9.6859,-0.01219 -4.40616,-0.06641 -8.77971,-0.229981 -13.00052,-0.548489 -1.28148,-0.0967 -2.60169,-0.185736 -3.95138,-0.271957 M 140.38036,68.9439 c -0.5364,-0.0076 -1.07099,-0.0145 -1.60383,-0.02093 -7.2546,-0.08752 -14.07199,-0.08169 -20.56611,-0.328912 -7.13569,-0.271644 -16.02035,-1.152876 -24.058577,-2.19939 -1.725101,-0.224595 -3.375803,-0.440339 -4.986094,-0.655534 -3.482243,-0.465356 -6.700666,-0.918321 -9.852645,-1.419683 m 22.315516,2.464257 c -3.359342,-0.253657 -8.087631,-0.639673 -11.446976,-0.893331 -4.113017,-0.314082 -8.09134,-0.592155 -12.076141,-0.798315 0,0 -2e-6,-10e-7 -2e-6,-10e-7 -8.089015,-0.418499 -15.986021,-3.222359 -22.51725,-5.269015 -2.465819,-0.772701 -5.147552,-1.572539 -7.515065,-2.29414 0.0139,0.0042 -0.681933,-0.208306 -0.668038,-0.204071 M 67.47801,62.778444 C 59.823338,61.311685 53.331339,59.370013 47.609557,57.17385 c -0.572941,-0.219909 -1.138925,-0.4427 -1.698042,-0.668123 0,0 -2e-6,-10e-7 -2e-6,-10e-7 -7.718568,-3.111951 -16.280374,-5.491046 -22.671035,-8.4222 -1.999189,-0.916953 -3.729515,-1.933159 -5.220034,-2.985464 -3.262311,-2.303187 -5.57688,-4.918708 -7.036351,-7.432047 -0.0355,-0.06114 -0.07055,-0.122291 -0.10513,-0.183454 m 20.250911,13.13836 C 27.057032,48.688697 23.631899,46.679893 20.817143,44.617537 17.58604,42.250125 15.13103,39.790966 13.465828,37.284954 13.308186,37.047714 13.157601,36.810023 13.014083,36.571913 11.639614,34.29154 10.94204,31.943149 10.92604,29.581738 c -0.01769,-2.610361 0.796616,-5.228565 2.420759,-7.808677 1.214464,-1.929296 2.880604,-3.834334 4.969715,-5.676052 0.700884,-0.617885 1.453399,-1.229243 2.256955,-1.833787 0.939646,-0.706931 1.94778,-1.403564 3.023121,-2.0897 M 11.10237,25.585618 c 0.403175,-1.1627 0.972865,-2.323554 1.705273,-3.480854 1.612643,-2.548186 4.005991,-5.064769 7.091636,-7.51594 2.042278,-1.622342 4.384288,-3.212496 6.969058,-4.7385121 4.17652,-2.4657665 9.557646,-4.6341684 16.120824,-6.7405872 M 29.90147,8.467603 C 35.233065,5.7862957 41.421836,3.2071872 48.224631,0.64198782 49.09833,0.31253327 49.980432,-0.01604608 50.870189,-0.34390502 55.597688,-2.0858997 60.88277,-3.2538604 66.665886,-4.3298868 M 55.708909,0.7452117 c 7.744367,-1.70364525 14.877295,-3.6204706 22.621662,-5.3241159 3.534364,-0.7742181 7.207076,-1.2585982 11.032893,-1.5724599 4.06229,-0.3332615 8.177315,-0.4658931 12.425446,-0.574977 7.56012,-0.1941296 14.39406,-1.2932041 21.87016,-2.083047 m -18.094,1.5693741 c 7.74652,-0.5178633 15.76165,-1.1012222 24.09622,-1.3598 0,-10e-8 0,-10e-8 0,-10e-8 4.10103,-0.1272335 7.91283,-0.2558404 11.65108,-0.4060481 1.51682,-0.060948 3.01753,-0.1252935 4.51661,-0.1943355 m -16.73534,-1.1997983 c 3.41724,-0.101647 6.81622,-0.145397 10.18879,-0.1409 4.27261,0.0057 8.49762,0.08883 12.65024,0.229109 7.58015,0.256061 15.77108,0.7068737 23.57635,1.392343 2.33007,0.2046304 4.63711,0.4164043 6.92801,0.6357109 m -19.40771,-1.4379991 c 7.87256,0.6072717 15.87284,1.326761 23.90165,2.6369597 1.04048,0.169793 2.05888,0.3287394 3.05609,0.4794163 3.17728,0.4800808 6.30607,0.9001223 9.15071,1.301881 M 186.11986,-7.051958 c 1.22249,0.1239664 2.44141,0.2597846 3.65356,0.405548 6.57526,0.7906855 13.0921,1.8919556 18.96746,3.0183418 1e-5,2e-7 1e-5,3e-7 1e-5,5e-7 7.88774,1.5121849 15.97914,3.41973244 23.10871,5.4932327 7e-5,2.06e-5 0.18046,0.052606 0.18053,0.052626 6.90381,2.0171282 12.84291,4.2887026 17.86665,6.6173073 m -26.55943,-8.84473911 c 2.63238,0.73972714 5.18354,1.51050441 7.66971,2.33475581 5.36672,1.7792523 10.24299,3.7472072 14.68452,6.0091951 5.88643,2.9978427 9.98388,4.9186297 13.96417,7.5036977 0.92706,0.60209 1.79323,1.208849 2.60287,1.827976 m -11.4155,-7.4506869 c 3.65632,1.7887269 6.91794,3.6743159 9.69812,5.6148889 3.40651,2.377752 6.07936,4.829083 7.95593,7.330764 0.34831,0.464327 0.6688,0.929847 0.9614,1.396497 1.27745,2.037311 1.87332,4.140466 1.84911,6.22459 -0.0298,2.568104 -0.99894,5.139668 -2.86843,7.631525 -1.53431,2.0451 -3.66363,4.021351 -6.32302,5.882532 -0.58425,0.408884 -1.18795,0.823469 -1.80782,1.241946 -1.58107,1.067378 -3.32711,2.200279 -5.14052,3.33136 M 31.158653,52.047326 24.044792,48.294683 m 166.966288,-54.8167686 7.10476,1.0070818" />
    <path
       id="ellipse1"
       style="fill:none;stroke:#000000;stroke-width:1.46221;stroke-dasharray:none"
       d="m 270.23394,33.436851 c -0.30073,7.977415 0.0235,15.463798 0.38372,23.064757 l 0,3e-6 c 0.36041,7.604216 -0.0742,15.120932 0.0833,22.043763 l 0,3e-6 c 0.0736,3.234262 -0.005,6.869584 -0.1544,10.644059 -0.0253,0.944575 -0.1554,1.893415 -0.38726,2.841809 M 269.21501,71.63631 c 0.0103,6.301549 -0.0985,12.285942 -0.14875,18.202402 0.008,1.514035 -0.28304,3.009641 -0.85661,4.482113 -0.71872,1.845116 -1.91608,3.702506 -3.57108,5.550848 -2.93253,3.275107 -7.48269,6.691657 -13.25506,9.640687 -0.1507,0.077 -0.3023,0.15368 -0.45477,0.23005 -5.25971,2.63449 -12.28511,5.92762 -19.06334,8.96635 m 26.66749,-12.6169 c -1.90274,1.32953 -3.98886,2.59763 -6.25689,3.8047 -4.24233,2.25779 -9.02333,4.2544 -14.58438,6.15951 -6.47945,2.21974 -14.28807,4.34529 -22.79858,5.91264 0,0 0,0 0,0 -2.47011,0.45492 -5.15631,0.95475 -7.68273,1.40671 m 23.03231,-4.0476 c -6.79197,2.29479 -14.18068,3.62826 -22.49313,4.65651 -0.88547,0.10954 -1.78023,0.2299 -2.68674,0.35955 -6.49123,0.92842 -13.35181,2.32854 -20.25046,3.18778 -7.40122,0.92182 -14.78079,1.63074 -22.2163,2.40747 m 21.80256,-3.37757 c -7.37712,0.97524 -15.27388,1.51934 -23.11162,2.0141 -5.03296,0.3177 -10.23385,0.54002 -15.52476,0.74454 m 16.39781,-0.49626 c -7.2821,0.53396 -14.20985,1.0328 -20.85729,1.89274 -0.44497,0.0576 -0.88859,0.11674 -1.33092,0.17763 -4.5131,0.62128 -9.71137,0.13214 -14.96912,-0.67024 m 15.61209,-0.8386 c -0.46283,0.0102 -0.92533,0.0191 -1.38755,0.027 -7.39573,0.1257 -14.86015,-0.0316 -22.31294,-0.10341 -8.02626,-0.0773 -15.40966,-0.93411 -22.174005,-1.51941 -2.890853,-0.25014 -5.98989,-0.64707 -9.115879,-1.12584 m 21.910634,1.94428 c -7.910924,-0.75878 -15.46548,-1.53077 -22.775984,-2.74275 -3.046244,-0.50502 -6.234486,-0.99176 -9.424352,-1.47573 -5.05984,-0.76769 -9.811441,-1.48312 -14.640638,-2.3194 -4.820222,-0.83472 -8.872175,-2.00582 -12.404219,-3.23566 m 18.275488,4.31358 c -8.340965,-1.80604 -16.005281,-3.71186 -22.948402,-5.82234 -6.079692,-1.84803 -11.085953,-4.13755 -15.011107,-6.36133 -1.792193,-1.01536 -3.424315,-2.05433 -4.883813,-3.08881 -2.665361,-1.88919 -5.147633,-3.94895 -7.184654,-6.13485 -0.807605,-0.86663 -1.538138,-1.745322 -2.18297,-2.635776 M 31.68949,111.14978 c -1.218618,-0.60031 -2.385299,-1.19582 -3.505609,-1.79254 -5.730907,-3.05249 -10.180374,-6.11181 -13.400396,-9.449858 -0.859973,-0.891494 -1.624614,-1.796191 -2.291714,-2.71451 -1.80365,-2.482878 -2.6602764,-5.070993 -2.6246156,-7.662304 0.00236,-5.06423 0.2958816,-10.135401 0.3935866,-15.201668 0.04815,-2.496648 0.01821,-4.988059 -0.06473,-7.474464 M 9.9696171,80.40326 C 9.7541608,72.619259 10.031681,65.030632 10.45948,57.594504 10.885073,50.1967 10.199314,41.988522 9.9716045,33.973152 M 269.98434,30.787898 c -0.21184,8.012652 -0.57077,15.343505 -1.39764,22.708462 -0.82722,7.368113 0.0687,15.587498 0.52708,23.418765 l 0,3e-6 c 0.26303,4.493804 0.0909,8.992416 -0.19553,13.528885 -0.0274,0.547043 -0.0915,1.093121 -0.19161,1.637984 m 1.10566,-22.188668 c -0.0875,6.770274 0.0458,13.267414 0.40947,19.58545 0.0702,0.97884 0.0136,1.947558 -0.1639,2.903317 -0.42855,2.308219 -1.7266,4.693414 -3.82084,7.124949 -2.76042,3.205005 -6.99744,6.573675 -12.13201,9.684055 -0.33935,0.20557 -0.68414,0.4087 -1.0345,0.60947 -2.51863,1.44329 -5.28813,2.74442 -8.37958,3.96486 m 19.13318,-13.76614 c -0.10527,0.11879 -0.21225,0.23765 -0.32092,0.35656 -2.93527,3.21185 -7.22696,6.5777 -12.44473,9.87135 -1.77321,1.11932 -3.68076,2.24618 -5.6847,3.34681 -6.07567,3.33697 -13.52957,5.01186 -23.00198,6.73596 -7.0137,1.27659 -11.61039,2.71579 -18.32281,4.32552 -0.34239,0.0821 -0.68543,0.16319 -1.02918,0.24303 m 30.09435,-6.16517 c -6.37296,1.8785 -14.60459,3.87836 -23.17452,4.93038 -1.97994,0.24305 -3.94322,0.53233 -5.94283,0.85287 -5.53678,0.88756 -11.61646,2.07848 -17.60871,2.74901 -1.68104,0.18811 -3.34388,0.38468 -5.00073,0.58968 m 16.9899,-2.87519 c -7.60942,0.93677 -15.24384,2.20314 -23.20489,3.08625 -7.73699,0.85824 -15.74956,1.24358 -24.39681,1.72483 -3.82007,0.2126 -7.28168,0.30929 -10.58212,0.35614 m 25.27281,-1.08714 c -7.64672,0.25678 -15.45234,1.10669 -23.33302,1.92758 -0.62093,0.0647 -1.24217,0.1149 -1.86373,0.15183 -7.19123,0.42729 -14.44926,-0.9279 -21.66631,-2.2322 -5.88187,-1.06299 -11.61294,-1.09724 -17.05537,-1.36509 m 27.91773,2.87877 c -7.83428,-0.19016 -15.688,-0.77929 -23.42623,-1.66674 -4.12309,-0.47285 -8.043317,-0.93026 -11.895293,-1.48164 m 9.433723,0.20947 c -7.985777,-0.64573 -15.872253,-1.4362 -23.149734,-2.15146 -1.795816,-0.1765 -3.582976,-0.41296 -5.353003,-0.68908 -3.029868,-0.47265 -6.045222,-1.06767 -8.917649,-1.67339 m 20.153526,3.93096 c -3.327348,-0.46514 -6.622638,-0.96459 -9.893069,-1.49238 -4.820925,-0.77801 -9.603075,-1.62023 -14.259612,-2.49226 -4.837073,-0.90584 -9.014647,-2.07276 -12.78561,-3.30976 m 14.332725,3.86713 c -8.42332,-2.01482 -15.503179,-4.55893 -21.680779,-7.78979 -4.688462,-2.45204 -9.486053,-4.21388 -13.764596,-6.14136 -3.119581,-1.40537 -5.870178,-2.81686 -8.361634,-4.45785 -2.450006,-1.61368 -4.3448,-3.23562 -5.78692,-4.84679 -1.210079,-1.351925 -2.121818,-2.71953 -2.757944,-4.087756 m 17.973158,12.622916 c -0.132941,-0.0677 -0.265191,-0.1355 -0.396742,-0.20346 -5.455261,-2.81815 -9.7039,-5.85759 -12.459249,-8.903637 -1.546289,-1.709426 -2.6418,-3.437979 -3.259257,-5.17185 -0.488835,-1.372691 -0.742245,-2.847665 -0.729269,-4.393708 -0.01437,-2.798611 -0.142199,-5.781845 -0.314438,-8.832776 m 0.453605,15.963945 C 11.489081,95.024809 10.852618,92.808452 10.774907,90.546204 10.510945,84.98482 9.9833757,79.380719 9.2471826,73.643589 l 0,-2e-6 C 8.2023544,65.501274 9.0857219,58.255885 9.0742677,50.799823 l 0,-2e-6 c -0.00334,-2.173026 -0.00878,-4.382091 -0.00971,-6.603588 M 9.6522042,67.942906 C 9.532508,60.170893 9.86829,52.00405 10.585694,43.459134 c 0.213032,-2.537408 0.284385,-4.896761 0.278083,-7.138983 M 270.6771,35.712936 c 0.004,7.757016 -0.48935,15.419032 -1.16042,22.927541 l 0,3e-6 c -0.67136,7.511726 -0.37641,15.51876 -0.82916,23.237513 l 0,3e-6 c -0.055,0.938001 -0.0935,1.880527 -0.11742,2.827263 m 1.46474,-15.871147 c 0.006,6.637944 -0.0421,13.245556 0.0599,19.842338 0.0326,1.130965 -0.0876,2.254162 -0.35336,3.368136 -0.5666,2.374861 -1.87746,4.728986 -3.87866,7.054636 -1.79989,2.091708 -4.14441,4.145918 -6.99178,6.187098 m 8.90702,-7.317626 c -0.71314,1.388567 -1.64983,2.757126 -2.79551,4.102696 -2.84692,3.34363 -6.96761,6.52432 -12.05421,9.47356 -0.58766,0.34073 -1.18775,0.67808 -1.79964,1.01192 -5.54478,3.02509 -13.03978,5.68884 -21.59825,8.1825 0,0 0,0 0,0 -4.98621,1.45282 -10.50356,2.71495 -16.41709,3.73194 m 24.51656,-9.47195 c -6.4055,2.29759 -14.16434,4.53622 -22.75406,6.62086 -3.42371,0.83091 -6.82929,1.49539 -10.30336,2.04511 -1.98718,0.31445 -3.96752,0.5868 -5.95881,0.83076 m 16.52325,-1.99973 c -3.53758,0.88553 -7.03809,1.65859 -10.69807,2.43365 -3.79043,0.80269 -7.81528,1.61963 -11.66892,2.475 -5.10375,1.13284 -10.56796,1.55631 -16.16594,1.86301 m 14.41041,-1.15144 c -7.58246,1.05625 -15.40096,1.61688 -23.56549,1.80129 -8.05313,0.18189 -15.34123,1.0428 -23.24915,1.58537 0,0 0,0 0,0 -1.6065,0.11023 -3.20068,0.16654 -4.78132,0.18075 -2.73357,0.0246 -5.425,-0.0768 -8.0653,-0.24253 m 26.26588,-1.44874 c -6.19398,0.29582 -12.3218,0.11717 -18.30286,-0.51426 -1.45238,-0.15333 -2.89496,-0.33323 -4.3266,-0.53928 -6.32114,-0.90975 -13.59037,-0.39401 -20.68363,-0.33663 m 20.67473,1.34828 c -7.75005,-0.12488 -15.71768,-0.62565 -23.61155,-1.5255 -5.64646,-0.64366 -11.20048,-1.15557 -16.844302,-1.90614 m 15.171932,1.22193 c -7.67259,-0.63305 -15.876296,-1.15215 -23.596844,-1.69374 -3.668013,-0.25732 -7.173209,-0.82596 -10.540612,-1.5313 -2.236423,-0.46845 -4.432705,-1.00191 -6.548429,-1.54265 m 17.46453,3.1013 c -3.693085,-0.43133 -7.453698,-1.09024 -11.158174,-1.8891 -4.097109,-0.88354 -8.11687,-1.93648 -11.870306,-3.03476 -5.696771,-1.66691 -10.790835,-2.9554 -15.377804,-4.45915 m 14.049265,5.01418 c -8.587494,-2.35566 -15.72954,-4.15467 -23.213541,-7.00334 -4.675944,-1.77982 -8.401824,-3.4771 -11.562987,-5.23468 -1.962981,-1.0914 -3.710583,-2.20846 -5.275095,-3.35852 m 12.455441,7.37514 c -2.064387,-0.93149 -4.005871,-1.86274 -5.833004,-2.80613 -5.73869,-2.96303 -10.29814,-6.02474 -13.587025,-9.30219 -0.225414,-0.22463 -0.44459,-0.45004 -0.657481,-0.67623 -2.855983,-3.034425 -4.136447,-6.459635 -3.987743,-9.913945 0.135383,-4.44944 0.461336,-9.050382 0.676435,-13.732862 0.134035,-2.917806 0.159613,-5.610522 0.135302,-8.176464 m 0.01092,17.122101 C 11.20306,78.314503 10.995862,70.553618 10.725461,62.983646 l 0,-3e-6 c -0.270517,-7.573217 -0.04231,-15.44963 0.170835,-23.031263 l 0,-3e-6 c 0.08859,-3.15131 0.01845,-6.340659 -0.142639,-9.526816 m 113.214793,99.283879 -7.44857,-0.35518 m 45.61649,0.0849 -9.49949,0.39755"
       sodipodi:nodetypes="ccsscc"
       inkscape:original-d="m 270,30 -0.80028,60.150146 c 10e-6,14.236984 -24.62532,27.392504 -64.59986,34.510994 -39.97454,7.11849 -89.2252,7.11849 -129.199725,-1e-5 -39.974527,-7.11849 -64.599852,-20.274 -64.599857,-34.510984 L 10,30" />
  </g>
  <text
     xml:space="preserve"
     style="font-size:26.6667px;font-family:Quicksand;-inkscape-font-specification:'Quicksand, Normal';text-align:center;text-anchor:middle;fill:#000000;stroke:none"
     x="99.17334"
     y="140"
     id="text22"><tspan
       sodipodi:role="line"
       id="tspan22"
       x="99.17334"
       y="140">Redis-Dienst</tspan></text>
</svg>
