<?xml version="1.0" encoding="UTF-8" standalone="no"?>
<svg
   height="80"
   width="140"
   version="1.1"
   id="svg1"
   sodipodi:docname="interface-http.svg"
   inkscape:version="1.3.2 (091e20ef0f, 2023-11-25, custom)"
   xmlns:inkscape="http://www.inkscape.org/namespaces/inkscape"
   xmlns:sodipodi="http://sodipodi.sourceforge.net/DTD/sodipodi-0.dtd"
   xmlns="http://www.w3.org/2000/svg"
   xmlns:svg="http://www.w3.org/2000/svg">
  <defs
     id="defs1">
    <inkscape:path-effect
       effect="sketch"
       id="path-effect10"
       is_visible="true"
       lpeversion="1"
       nbiter_approxstrokes="3"
       parallel_offset="0.2;1504882205"
       strokelength="70"
       strokelength_rdm="0.3;2698354677"
       strokeoverlap="0.5"
       strokeoverlap_rdm="0.5;1"
       ends_tolerance="0.1;1"
       tremble_size="0.8;1"
       tremble_frequency="3"
       nbtangents="2"
       tgt_places_rdmness="0.5;1"
       tgtlength="5"
       tgtlength_rdm="0.3;1"
       tgtscale="10" />
    <inkscape:path-effect
       effect="sketch"
       id="path-effect7"
       is_visible="true"
       lpeversion="1"
       nbiter_approxstrokes="3"
       parallel_offset="0.2;1504882205"
       strokelength="70"
       strokelength_rdm="0.3;2698354677"
       strokeoverlap="0.5"
       strokeoverlap_rdm="0.5;1"
       ends_tolerance="0.1;1"
       tremble_size="0.8;1"
       tremble_frequency="3"
       nbtangents="2"
       tgt_places_rdmness="0.5;1"
       tgtlength="5"
       tgtlength_rdm="0.3;1"
       tgtscale="10" />
    <inkscape:path-effect
       effect="sketch"
       id="path-effect8"
       is_visible="true"
       lpeversion="1"
       nbiter_approxstrokes="3"
       parallel_offset="0.2;1"
       strokelength="70"
       strokelength_rdm="0.3;1"
       strokeoverlap="0.5"
       strokeoverlap_rdm="0.5;1"
       ends_tolerance="0.1;1"
       tremble_size="0.8;1"
       tremble_frequency="3"
       nbtangents="2"
       tgt_places_rdmness="0.5;1"
       tgtlength="5"
       tgtlength_rdm="0.3;1"
       tgtscale="10" />
    <inkscape:path-effect
       effect="sketch"
       id="path-effect4"
       is_visible="true"
       lpeversion="1"
       nbiter_approxstrokes="3"
       parallel_offset="0.2;1"
       strokelength="70"
       strokelength_rdm="0.3;1"
       strokeoverlap="0.5"
       strokeoverlap_rdm="0.5;1"
       ends_tolerance="0.1;1"
       tremble_size="0.8;1"
       tremble_frequency="3"
       nbtangents="2"
       tgt_places_rdmness="0.5;1"
       tgtlength="5"
       tgtlength_rdm="0.3;1"
       tgtscale="10" />
    <inkscape:path-effect
       effect="sketch"
       id="path-effect3"
       is_visible="true"
       lpeversion="1"
       nbiter_approxstrokes="3"
       parallel_offset="2;1"
       strokelength="70"
       strokelength_rdm="0.3;1"
       strokeoverlap="0.5"
       strokeoverlap_rdm="0.5;1"
       ends_tolerance="0.1;1"
       tremble_size="0.8;1"
       tremble_frequency="3"
       nbtangents="2"
       tgt_places_rdmness="0.5;1"
       tgtlength="5"
       tgtlength_rdm="0.3;1"
       tgtscale="10" />
    <inkscape:path-effect
       effect="sketch"
       id="path-effect2"
       is_visible="true"
       lpeversion="1"
       nbiter_approxstrokes="3"
       parallel_offset="2;1"
       strokelength="70"
       strokelength_rdm="0.3;1"
       strokeoverlap="0.5"
       strokeoverlap_rdm="0.5;1"
       ends_tolerance="0.1;1"
       tremble_size="0.8;1"
       tremble_frequency="3"
       nbtangents="2"
       tgt_places_rdmness="0.5;1"
       tgtlength="5"
       tgtlength_rdm="0.3;1"
       tgtscale="10" />
    <inkscape:path-effect
       effect="sketch"
       id="path-effect6"
       is_visible="true"
       lpeversion="1"
       nbiter_approxstrokes="3"
       parallel_offset="0.2;1"
       strokelength="70"
       strokelength_rdm="0.3;1"
       strokeoverlap="0.5"
       strokeoverlap_rdm="0.5;1"
       ends_tolerance="0.1;1"
       tremble_size="0.8;1"
       tremble_frequency="3"
       nbtangents="2"
       tgt_places_rdmness="0.5;1"
       tgtlength="5"
       tgtlength_rdm="0.3;1"
       tgtscale="10" />
    <inkscape:path-effect
       effect="sketch"
       id="path-effect5"
       is_visible="true"
       lpeversion="1"
       nbiter_approxstrokes="3"
       parallel_offset="0.2;1"
       strokelength="70"
       strokelength_rdm="0.3;1"
       strokeoverlap="0.5"
       strokeoverlap_rdm="0.5;1"
       ends_tolerance="0.1;1"
       tremble_size="0.8;1"
       tremble_frequency="3"
       nbtangents="2"
       tgt_places_rdmness="0.5;1"
       tgtlength="5"
       tgtlength_rdm="0.3;1"
       tgtscale="10" />
    <inkscape:path-effect
       effect="sketch"
       id="path-effect1"
       is_visible="true"
       lpeversion="1"
       nbiter_approxstrokes="3"
       parallel_offset="0.2;1"
       strokelength="70"
       strokelength_rdm="0.3;1"
       strokeoverlap="0.5"
       strokeoverlap_rdm="0.5;1"
       ends_tolerance="0.1;1"
       tremble_size="0.8;1"
       tremble_frequency="3"
       nbtangents="2"
       tgt_places_rdmness="0.5;1"
       tgtlength="5"
       tgtlength_rdm="0.3;1"
       tgtscale="10" />
  </defs>
  <sodipodi:namedview
     id="namedview1"
     pagecolor="#ffffff"
     bordercolor="#000000"
     borderopacity="0.25"
     inkscape:showpageshadow="2"
     inkscape:pageopacity="0.0"
     inkscape:pagecheckerboard="0"
     inkscape:deskcolor="#d1d1d1"
     inkscape:zoom="2.8284271"
     inkscape:cx="28.637825"
     inkscape:cy="68.942912"
     inkscape:window-width="1440"
     inkscape:window-height="831"
     inkscape:window-x="0"
     inkscape:window-y="0"
     inkscape:window-maximized="1"
     inkscape:current-layer="svg1"
     showgrid="true">
    <inkscape:grid
       id="grid1"
       units="px"
       originx="0"
       originy="0"
       spacingx="1"
       spacingy="1"
       empcolor="#0099e5"
       empopacity="0.30196078"
       color="#0099e5"
       opacity="0.14901961"
       empspacing="5"
       dotted="false"
       gridanglex="30"
       gridanglez="30"
       visible="true" />
  </sodipodi:namedview>
  <circle
     style="fill:#ffaaaa"
     id="path2"
     cx="70.167336"
     cy="25.666656"
     r="20" />
  <path
     id="circle1"
     style="fill:#ff8080;stroke:none;stroke-linecap:round;stroke-linejoin:round"
     d="m 62.663086,7.442047 a 20,20 0 0 0 -11.775391,18.224609 20,20 0 0 0 20,20 20,20 0 0 0 18.22461,-11.77539 20,20 0 0 1 -8.22461,1.77539 20,20 0 0 1 -20,-20 20,20 0 0 1 1.775391,-8.224609 z" />
  <path
     style="fill:none;stroke:#000000;stroke-linecap:round;stroke-linejoin:round"
     id="path1"
     inkscape:path-effect="#path-effect7"
     sodipodi:type="arc"
     sodipodi:cx="60"
     sodipodi:cy="25.666656"
     sodipodi:rx="20"
     sodipodi:ry="20"
     d="m 79.893739,30.588671 c -1.570241,7.613882 -8.176165,13.763578 -16.204641,15.15702 -1.181518,0.205067 -2.37488,0.3049 -3.568014,0.298197 -6.838311,-0.03842 -13.138036,-3.557634 -17.058078,-9.420431 -2.266127,-3.389208 -3.368319,-7.191503 -3.259793,-11.026618 0.0919,-3.247495 1.049083,-6.41162 2.742003,-9.2583 m 1.037515,21.79743 c -2.813179,-3.544053 -4.23897,-7.896012 -4.16827,-12.426178 0.05502,-3.52555 1.013487,-7.026762 2.735612,-10.209511 3.627384,-6.7039594 10.307311,-10.1868057 17.658515,-9.9061044 0.726074,0.027725 1.452882,0.091971 2.177681,0.1915868 2.047143,0.2813593 4.033525,0.8362624 5.903304,1.661305 M 53.847381,6.2788788 c 1.807278,-0.5805549 3.725596,-0.8830399 5.687674,-0.9051566 6.066384,-0.068381 12.106825,2.5329859 16.456448,6.9064688 3.405174,3.423852 4.85323,8.120329 4.497473,13.085446 -0.24236,3.382482 -1.311797,6.784351 -3.008688,9.901796 -2.411744,4.430736 -5.619963,7.440835 -9.426051,8.905618 M 78.219215,31.66613 c -2.74832,7.570566 -9.16623,12.799147 -16.610166,13.240979 -0.464789,0.02759 -0.935066,0.03829 -1.409355,0.03193 C 53.121187,44.844163 45.86353,40.974505 42.511104,34.623523 41.483476,32.676739 40.776148,30.538509 40.425969,28.32597 M 56.723418,45.9664 C 49.032536,44.429101 42.708404,37.964838 40.979816,29.688265 40.693391,28.316847 40.542637,26.943092 40.527227,25.579849 40.450547,18.796154 43.713626,12.783942 48.996763,8.7619449 50.921903,7.2963556 53.129274,6.281955 55.492411,5.738766 M 41.55924,20.108622 c 2.813296,-7.514707 9.359474,-12.9658721 17.349729,-13.70693 0.541513,-0.050223 1.083335,-0.078635 1.624124,-0.085279 7.380415,-0.090667 13.951114,3.8698817 16.928544,10.0035267 1.305134,2.688636 2.059622,5.830646 2.083913,9.058179 0.01517,2.015423 -0.254795,4.03118 -0.826475,5.953953 M 75.377886,13.000136 c 2.737089,3.500306 4.205058,7.890155 4.296972,12.553683 0.07357,3.73274 -0.735231,7.493376 -2.280293,10.981294 -3.16813,7.151927 -10.057968,9.897829 -17.092511,8.939947 -0.75318,-0.102559 -1.501822,-0.246641 -2.241032,-0.429244 -3.5065,-0.866189 -6.937206,-2.177199 -9.938316,-4.10813 m 31.056679,-9.172627 c -2.308476,7.505831 -9.226871,13.166318 -17.590301,14.018002 -0.753351,0.07672 -1.50271,0.113678 -2.245927,0.11068 -7.450812,-0.03006 -13.716176,-4.063343 -17.105879,-10.632036 -0.482424,-0.934859 -0.896903,-1.893855 -1.238504,-2.87106 m 8.360531,10.593196 c -5.49353,-3.61298 -8.903712,-10.178755 -8.912269,-17.39718 -0.0015,-1.307249 0.108583,-2.618947 0.330235,-3.919319 1.46109,-8.571838 7.312253,-14.0775459 14.838209,-15.7449734 0,0 2e-6,-3e-7 2e-6,-3e-7 1.39513,-0.3091007 2.846307,-0.4525404 4.319861,-0.425038 2.429818,0.04535 4.888006,0.5547973 7.227409,1.5159025 M 43.474485,13.038972 c 3.818499,-4.7783652 9.774636,-7.6867832 16.276511,-7.8706553 1.862837,-0.052681 3.733979,0.1194147 5.571181,0.5115495 0,0 10e-7,5e-7 10e-7,5e-7 8.345598,1.7812967 13.199487,8.6714853 13.704962,16.7585623 0.05968,0.95487 0.07568,1.910583 0.04415,2.86217 -0.07068,2.133659 -0.379535,4.22097 -0.951186,6.201614 M 42.148391,35.540481 39.719367,27.87307 M 68.3561,7.1450866 74.273172,11.204654"
     transform="translate(10.167334)" />
  <text
     xml:space="preserve"
     style="font-style:normal;font-variant:normal;font-weight:normal;font-stretch:normal;font-size:26.6667px;font-family:Quicksand;-inkscape-font-specification:'Quicksand, Normal';font-variant-ligatures:normal;font-variant-caps:normal;font-variant-numeric:normal;font-variant-east-asian:normal;fill:#000000;stroke:none;stroke-linecap:round;stroke-linejoin:round"
     x="35.266621"
     y="74.833344"
     id="text2"><tspan
       sodipodi:role="line"
       id="tspan2"
       x="35.266621"
       y="74.833344">HTTP</tspan></text>
</svg>
