<?xml version="1.0" encoding="UTF-8" standalone="no"?>
<svg
   height="80"
   width="140"
   version="1.1"
   id="svg1"
   sodipodi:docname="interface-websocket.svg"
   inkscape:version="1.3.2 (091e20ef0f, 2023-11-25, custom)"
   xmlns:inkscape="http://www.inkscape.org/namespaces/inkscape"
   xmlns:sodipodi="http://sodipodi.sourceforge.net/DTD/sodipodi-0.dtd"
   xmlns="http://www.w3.org/2000/svg"
   xmlns:svg="http://www.w3.org/2000/svg">
  <defs
     id="defs1">
    <inkscape:path-effect
       effect="sketch"
       id="path-effect10"
       is_visible="true"
       lpeversion="1"
       nbiter_approxstrokes="3"
       parallel_offset="0.2;1"
       strokelength="70"
       strokelength_rdm="0.3;1"
       strokeoverlap="0.5"
       strokeoverlap_rdm="0.5;1"
       ends_tolerance="0.1;1"
       tremble_size="0.8;1"
       tremble_frequency="3"
       nbtangents="2"
       tgt_places_rdmness="0.5;1"
       tgtlength="5"
       tgtlength_rdm="0.3;1"
       tgtscale="10" />
    <inkscape:path-effect
       effect="sketch"
       id="path-effect7"
       is_visible="true"
       lpeversion="1"
       nbiter_approxstrokes="3"
       parallel_offset="0.2;1"
       strokelength="70"
       strokelength_rdm="0.3;1"
       strokeoverlap="0.5"
       strokeoverlap_rdm="0.5;1"
       ends_tolerance="0.1;1"
       tremble_size="0.8;1"
       tremble_frequency="3"
       nbtangents="2"
       tgt_places_rdmness="0.5;1"
       tgtlength="5"
       tgtlength_rdm="0.3;1"
       tgtscale="10" />
    <inkscape:path-effect
       effect="sketch"
       id="path-effect8"
       is_visible="true"
       lpeversion="1"
       nbiter_approxstrokes="3"
       parallel_offset="0.2;1"
       strokelength="70"
       strokelength_rdm="0.3;1"
       strokeoverlap="0.5"
       strokeoverlap_rdm="0.5;1"
       ends_tolerance="0.1;1"
       tremble_size="0.8;1"
       tremble_frequency="3"
       nbtangents="2"
       tgt_places_rdmness="0.5;1"
       tgtlength="5"
       tgtlength_rdm="0.3;1"
       tgtscale="10" />
    <inkscape:path-effect
       effect="sketch"
       id="path-effect4"
       is_visible="true"
       lpeversion="1"
       nbiter_approxstrokes="3"
       parallel_offset="0.2;1"
       strokelength="70"
       strokelength_rdm="0.3;1"
       strokeoverlap="0.5"
       strokeoverlap_rdm="0.5;1"
       ends_tolerance="0.1;1"
       tremble_size="0.8;1"
       tremble_frequency="3"
       nbtangents="2"
       tgt_places_rdmness="0.5;1"
       tgtlength="5"
       tgtlength_rdm="0.3;1"
       tgtscale="10" />
    <inkscape:path-effect
       effect="sketch"
       id="path-effect3"
       is_visible="true"
       lpeversion="1"
       nbiter_approxstrokes="3"
       parallel_offset="2;1"
       strokelength="70"
       strokelength_rdm="0.3;1"
       strokeoverlap="0.5"
       strokeoverlap_rdm="0.5;1"
       ends_tolerance="0.1;1"
       tremble_size="0.8;1"
       tremble_frequency="3"
       nbtangents="2"
       tgt_places_rdmness="0.5;1"
       tgtlength="5"
       tgtlength_rdm="0.3;1"
       tgtscale="10" />
    <inkscape:path-effect
       effect="sketch"
       id="path-effect2"
       is_visible="true"
       lpeversion="1"
       nbiter_approxstrokes="3"
       parallel_offset="2;1"
       strokelength="70"
       strokelength_rdm="0.3;1"
       strokeoverlap="0.5"
       strokeoverlap_rdm="0.5;1"
       ends_tolerance="0.1;1"
       tremble_size="0.8;1"
       tremble_frequency="3"
       nbtangents="2"
       tgt_places_rdmness="0.5;1"
       tgtlength="5"
       tgtlength_rdm="0.3;1"
       tgtscale="10" />
    <inkscape:path-effect
       effect="sketch"
       id="path-effect6"
       is_visible="true"
       lpeversion="1"
       nbiter_approxstrokes="3"
       parallel_offset="0.2;1"
       strokelength="70"
       strokelength_rdm="0.3;1"
       strokeoverlap="0.5"
       strokeoverlap_rdm="0.5;1"
       ends_tolerance="0.1;1"
       tremble_size="0.8;1"
       tremble_frequency="3"
       nbtangents="2"
       tgt_places_rdmness="0.5;1"
       tgtlength="5"
       tgtlength_rdm="0.3;1"
       tgtscale="10" />
    <inkscape:path-effect
       effect="sketch"
       id="path-effect5"
       is_visible="true"
       lpeversion="1"
       nbiter_approxstrokes="3"
       parallel_offset="0.2;1"
       strokelength="70"
       strokelength_rdm="0.3;1"
       strokeoverlap="0.5"
       strokeoverlap_rdm="0.5;1"
       ends_tolerance="0.1;1"
       tremble_size="0.8;1"
       tremble_frequency="3"
       nbtangents="2"
       tgt_places_rdmness="0.5;1"
       tgtlength="5"
       tgtlength_rdm="0.3;1"
       tgtscale="10" />
    <inkscape:path-effect
       effect="sketch"
       id="path-effect1"
       is_visible="true"
       lpeversion="1"
       nbiter_approxstrokes="3"
       parallel_offset="0.2;1"
       strokelength="70"
       strokelength_rdm="0.3;1"
       strokeoverlap="0.5"
       strokeoverlap_rdm="0.5;1"
       ends_tolerance="0.1;1"
       tremble_size="0.8;1"
       tremble_frequency="3"
       nbtangents="2"
       tgt_places_rdmness="0.5;1"
       tgtlength="5"
       tgtlength_rdm="0.3;1"
       tgtscale="10" />
  </defs>
  <sodipodi:namedview
     id="namedview1"
     pagecolor="#ffffff"
     bordercolor="#000000"
     borderopacity="0.25"
     inkscape:showpageshadow="2"
     inkscape:pageopacity="0.0"
     inkscape:pagecheckerboard="0"
     inkscape:deskcolor="#d1d1d1"
     inkscape:zoom="5.6568542"
     inkscape:cx="68.766135"
     inkscape:cy="28.461048"
     inkscape:window-width="1440"
     inkscape:window-height="831"
     inkscape:window-x="0"
     inkscape:window-y="0"
     inkscape:window-maximized="1"
     inkscape:current-layer="svg1"
     showgrid="true">
    <inkscape:grid
       id="grid1"
       units="px"
       originx="0"
       originy="0"
       spacingx="1"
       spacingy="1"
       empcolor="#0099e5"
       empopacity="0.30196078"
       color="#0099e5"
       opacity="0.14901961"
       empspacing="5"
       dotted="false"
       gridanglex="30"
       gridanglez="30"
       visible="true" />
  </sodipodi:namedview>
  <circle
     style="fill:#ffaaaa;stroke:none;stroke-linecap:round;stroke-linejoin:round"
     id="path2"
     cx="70.167336"
     cy="25.666656"
     r="20" />
  <path
     id="circle1"
     style="fill:#ff8080;stroke:none;stroke-linecap:round;stroke-linejoin:round"
     d="m 62.663086,7.442047 a 20,20 0 0 0 -11.775391,18.224609 20,20 0 0 0 20,20 20,20 0 0 0 18.22461,-11.77539 20,20 0 0 1 -8.22461,1.77539 20,20 0 0 1 -20,-20 20,20 0 0 1 1.775391,-8.224609 z" />
  <path
     style="fill:none;stroke:#000000;stroke-linecap:round;stroke-linejoin:round"
     id="path1"
     inkscape:path-effect="#path-effect7"
     sodipodi:type="arc"
     sodipodi:cx="60"
     sodipodi:cy="25.666656"
     sodipodi:rx="20"
     sodipodi:ry="20"
     d="m 79.785926,30.926171 c -1.570234,7.613857 -8.175708,13.764412 -16.20464,15.15702 -1.181588,0.204945 -2.375006,0.304686 -3.568184,0.297917 -6.838561,-0.0388 -13.138142,-3.55758 -17.057909,-9.420151 -1.878828,-2.810055 -2.962462,-5.911659 -3.211289,-9.091267 m 9.729207,15.127549 c -6.387167,-3.653994 -9.998818,-10.37659 -9.87713,-17.857566 0.0136,-0.836045 0.07375,-1.674229 0.179493,-2.510698 1.059497,-8.381103 6.647444,-14.4386805 14.49778,-16.4233255 0,0 10e-7,-4e-7 10e-7,-4e-7 1.169612,-0.2956898 2.361039,-0.4981343 3.562651,-0.6017777 M 45.721628,11.241605 c 3.625284,-3.7110147 8.813036,-5.7634195 14.359768,-5.8500831 2.824737,-0.044135 5.661352,0.4218585 8.347136,1.3508315 0,0 10e-7,7e-7 10e-7,7e-7 8.089606,2.7980761 11.927875,10.6643059 11.367609,19.3718309 -0.004,0.06237 -0.0082,0.124645 -0.01253,0.18682 -0.136356,1.95403 -0.433188,3.799652 -0.907926,5.520808 m -0.601786,0.06932 c -2.748324,7.570575 -9.166653,12.798878 -16.610167,13.240979 -0.464761,0.0276 -0.935016,0.03832 -1.409287,0.03198 -7.078233,-0.09467 -14.336618,-3.964408 -17.688657,-10.315562 -1.440449,-2.729238 -2.244921,-5.821269 -2.330751,-8.951289 -0.0924,-3.369487 0.651475,-6.667352 2.165956,-9.485591 m 7.552383,26.836816 c -5.72177,-3.57096 -9.417384,-10.197105 -9.561092,-17.434227 -0.02149,-1.082393 0.03689,-2.165981 0.175404,-3.241052 1.076292,-8.353631 6.979432,-14.4795153 14.563437,-16.8096818 0,-1e-7 10e-7,-5e-7 10e-7,-5e-7 1.578618,-0.4850263 3.227888,-0.725493 4.901991,-0.7264816 2.580836,-0.00152 5.18501,0.5658205 7.651616,1.6387631 M 47.331451,11.277626 c 3.818425,-3.1730411 8.479024,-4.9745585 13.302136,-5.0224839 2.939551,-0.029209 5.836402,0.5953419 8.520371,1.8369615 6.962597,3.2209374 11.195528,10.1373284 10.703569,17.4277214 -0.0168,0.248876 -0.0391,0.497373 -0.06691,0.745319 -0.244732,2.181676 -0.800637,4.393356 -1.689694,6.5036 m 0.319308,-1.864371 c -2.14089,7.73755 -8.811677,13.656152 -16.36552,15.59275 -0.678042,0.173832 -1.365996,0.287073 -2.059349,0.342067 -6.948861,0.551153 -13.883678,-4.700481 -17.204957,-11.863422 -0.867351,-1.870601 -1.537204,-3.721426 -1.982104,-5.549153 m 8.244975,13.251252 C 43.473582,38.844101 39.94948,32.671928 39.643411,25.972968 c -0.05459,-1.194855 -0.0056,-2.389067 0.145807,-3.569939 0,0 0,-2e-6 0,-2e-6 C 40.800987,14.512465 47.299533,8.1226536 55.253559,6.0416979 56.085842,5.8239535 56.927838,5.6662378 57.775106,5.5682338 M 47.25968,11.173903 c 3.714745,-3.122504 8.368219,-5.018662 13.20088,-5.3081404 2.989261,-0.179058 5.936663,0.2639919 8.646621,1.2927244 6.943497,2.6358349 11.219696,10.357013 10.953334,18.164859 -0.0101,0.296184 -0.02672,0.591532 -0.04985,0.885725 -0.481957,6.130595 -3.28985,11.836332 -7.985279,15.751801 M 42.148391,35.540481 39.719367,27.87307 M 68.3561,7.1450866 74.273172,11.204654"
     transform="translate(10.167334)" />
  <text
     xml:space="preserve"
     style="font-style:normal;font-variant:normal;font-weight:normal;font-stretch:normal;font-size:26.6667px;font-family:Quicksand;-inkscape-font-specification:'Quicksand, Normal';font-variant-ligatures:normal;font-variant-caps:normal;font-variant-numeric:normal;font-variant-east-asian:normal;fill:#000000;stroke:none;stroke-linecap:round;stroke-linejoin:round"
     x="0.38654381"
     y="74.833344"
     id="text2"><tspan
       sodipodi:role="line"
       id="tspan2"
       x="0.38654381"
       y="74.833344">WebSocket</tspan></text>
</svg>
