<?xml version="1.0" encoding="UTF-8" standalone="no"?>
<svg
   height="80"
   width="140"
   version="1.1"
   id="svg1"
   sodipodi:docname="interface-redis.svg"
   inkscape:version="1.3.2 (091e20ef0f, 2023-11-25, custom)"
   xmlns:inkscape="http://www.inkscape.org/namespaces/inkscape"
   xmlns:sodipodi="http://sodipodi.sourceforge.net/DTD/sodipodi-0.dtd"
   xmlns="http://www.w3.org/2000/svg"
   xmlns:svg="http://www.w3.org/2000/svg">
  <defs
     id="defs1">
    <inkscape:path-effect
       effect="sketch"
       id="path-effect10"
       is_visible="true"
       lpeversion="1"
       nbiter_approxstrokes="3"
       parallel_offset="0.2;485506440"
       strokelength="70"
       strokelength_rdm="0.3;1"
       strokeoverlap="0.5"
       strokeoverlap_rdm="0.5;136725804"
       ends_tolerance="0.1;1"
       tremble_size="0.8;1"
       tremble_frequency="3"
       nbtangents="2"
       tgt_places_rdmness="0.5;1"
       tgtlength="5"
       tgtlength_rdm="0.3;1"
       tgtscale="10" />
    <inkscape:path-effect
       effect="sketch"
       id="path-effect7"
       is_visible="true"
       lpeversion="1"
       nbiter_approxstrokes="3"
       parallel_offset="0.2;485506440"
       strokelength="70"
       strokelength_rdm="0.3;1"
       strokeoverlap="0.5"
       strokeoverlap_rdm="0.5;136725804"
       ends_tolerance="0.1;1"
       tremble_size="0.8;1"
       tremble_frequency="3"
       nbtangents="2"
       tgt_places_rdmness="0.5;1"
       tgtlength="5"
       tgtlength_rdm="0.3;1"
       tgtscale="10" />
    <inkscape:path-effect
       effect="sketch"
       id="path-effect8"
       is_visible="true"
       lpeversion="1"
       nbiter_approxstrokes="3"
       parallel_offset="0.2;1"
       strokelength="70"
       strokelength_rdm="0.3;1"
       strokeoverlap="0.5"
       strokeoverlap_rdm="0.5;1"
       ends_tolerance="0.1;1"
       tremble_size="0.8;1"
       tremble_frequency="3"
       nbtangents="2"
       tgt_places_rdmness="0.5;1"
       tgtlength="5"
       tgtlength_rdm="0.3;1"
       tgtscale="10" />
    <inkscape:path-effect
       effect="sketch"
       id="path-effect4"
       is_visible="true"
       lpeversion="1"
       nbiter_approxstrokes="3"
       parallel_offset="0.2;1"
       strokelength="70"
       strokelength_rdm="0.3;1"
       strokeoverlap="0.5"
       strokeoverlap_rdm="0.5;1"
       ends_tolerance="0.1;1"
       tremble_size="0.8;1"
       tremble_frequency="3"
       nbtangents="2"
       tgt_places_rdmness="0.5;1"
       tgtlength="5"
       tgtlength_rdm="0.3;1"
       tgtscale="10" />
    <inkscape:path-effect
       effect="sketch"
       id="path-effect3"
       is_visible="true"
       lpeversion="1"
       nbiter_approxstrokes="3"
       parallel_offset="2;1"
       strokelength="70"
       strokelength_rdm="0.3;1"
       strokeoverlap="0.5"
       strokeoverlap_rdm="0.5;1"
       ends_tolerance="0.1;1"
       tremble_size="0.8;1"
       tremble_frequency="3"
       nbtangents="2"
       tgt_places_rdmness="0.5;1"
       tgtlength="5"
       tgtlength_rdm="0.3;1"
       tgtscale="10" />
    <inkscape:path-effect
       effect="sketch"
       id="path-effect2"
       is_visible="true"
       lpeversion="1"
       nbiter_approxstrokes="3"
       parallel_offset="2;1"
       strokelength="70"
       strokelength_rdm="0.3;1"
       strokeoverlap="0.5"
       strokeoverlap_rdm="0.5;1"
       ends_tolerance="0.1;1"
       tremble_size="0.8;1"
       tremble_frequency="3"
       nbtangents="2"
       tgt_places_rdmness="0.5;1"
       tgtlength="5"
       tgtlength_rdm="0.3;1"
       tgtscale="10" />
    <inkscape:path-effect
       effect="sketch"
       id="path-effect6"
       is_visible="true"
       lpeversion="1"
       nbiter_approxstrokes="3"
       parallel_offset="0.2;1"
       strokelength="70"
       strokelength_rdm="0.3;1"
       strokeoverlap="0.5"
       strokeoverlap_rdm="0.5;1"
       ends_tolerance="0.1;1"
       tremble_size="0.8;1"
       tremble_frequency="3"
       nbtangents="2"
       tgt_places_rdmness="0.5;1"
       tgtlength="5"
       tgtlength_rdm="0.3;1"
       tgtscale="10" />
    <inkscape:path-effect
       effect="sketch"
       id="path-effect5"
       is_visible="true"
       lpeversion="1"
       nbiter_approxstrokes="3"
       parallel_offset="0.2;1"
       strokelength="70"
       strokelength_rdm="0.3;1"
       strokeoverlap="0.5"
       strokeoverlap_rdm="0.5;1"
       ends_tolerance="0.1;1"
       tremble_size="0.8;1"
       tremble_frequency="3"
       nbtangents="2"
       tgt_places_rdmness="0.5;1"
       tgtlength="5"
       tgtlength_rdm="0.3;1"
       tgtscale="10" />
    <inkscape:path-effect
       effect="sketch"
       id="path-effect1"
       is_visible="true"
       lpeversion="1"
       nbiter_approxstrokes="3"
       parallel_offset="0.2;1"
       strokelength="70"
       strokelength_rdm="0.3;1"
       strokeoverlap="0.5"
       strokeoverlap_rdm="0.5;1"
       ends_tolerance="0.1;1"
       tremble_size="0.8;1"
       tremble_frequency="3"
       nbtangents="2"
       tgt_places_rdmness="0.5;1"
       tgtlength="5"
       tgtlength_rdm="0.3;1"
       tgtscale="10" />
  </defs>
  <sodipodi:namedview
     id="namedview1"
     pagecolor="#ffffff"
     bordercolor="#000000"
     borderopacity="0.25"
     inkscape:showpageshadow="2"
     inkscape:pageopacity="0.0"
     inkscape:pagecheckerboard="0"
     inkscape:deskcolor="#d1d1d1"
     inkscape:zoom="2.8284271"
     inkscape:cx="62.225397"
     inkscape:cy="27.930718"
     inkscape:window-width="1440"
     inkscape:window-height="831"
     inkscape:window-x="0"
     inkscape:window-y="0"
     inkscape:window-maximized="1"
     inkscape:current-layer="svg1"
     showgrid="true">
    <inkscape:grid
       id="grid1"
       units="px"
       originx="0"
       originy="0"
       spacingx="1"
       spacingy="1"
       empcolor="#0099e5"
       empopacity="0.30196078"
       color="#0099e5"
       opacity="0.14901961"
       empspacing="5"
       dotted="false"
       gridanglex="30"
       gridanglez="30"
       visible="true" />
  </sodipodi:namedview>
  <circle
     style="fill:#ffaaaa;stroke:none;stroke-linecap:round;stroke-linejoin:round"
     id="path2"
     cx="70.167336"
     cy="25.666656"
     r="20" />
  <path
     id="circle1"
     style="fill:#ff8080;stroke:none;stroke-linecap:round;stroke-linejoin:round"
     d="m 62.663086,7.442047 a 20,20 0 0 0 -11.775391,18.224609 20,20 0 0 0 20,20 20,20 0 0 0 18.22461,-11.77539 20,20 0 0 1 -8.22461,1.77539 20,20 0 0 1 -20,-20 20,20 0 0 1 1.775391,-8.224609 z" />
  <path
     style="fill:none;stroke:#000000;stroke-linecap:round;stroke-linejoin:round"
     id="path1"
     inkscape:path-effect="#path-effect7"
     sodipodi:type="arc"
     sodipodi:cx="60"
     sodipodi:cy="25.666656"
     sodipodi:rx="20"
     sodipodi:ry="20"
     d="m 79.748426,30.829296 c -1.570234,7.613857 -8.175708,13.764412 -16.20464,15.15702 -1.181588,0.204945 -2.375006,0.304686 -3.568184,0.297917 -6.838561,-0.0388 -13.138142,-3.55758 -17.057909,-9.420151 -1.878828,-2.810055 -2.962462,-5.911659 -3.211289,-9.091267 m 7.153526,13.57768 c -4.81035,-3.86564 -7.385828,-9.644419 -7.271848,-15.87041 0.03581,-1.955985 0.336374,-3.915918 0.884646,-5.82959 2.327285,-8.123081 8.916364,-13.1881564 17.025549,-13.9029018 0,0 2e-6,-2e-7 2e-6,-2e-7 0.827743,-0.072957 1.658135,-0.1007724 2.487362,-0.082246 0.381021,0.00851 0.761535,0.026804 1.141167,0.05495 M 46.697251,10.113137 c 3.502148,-3.0898933 8.191588,-4.7685067 13.167129,-4.8375258 3.337898,-0.046302 6.689272,0.6320378 9.783847,1.9470453 7.382188,3.1369845 10.763197,10.6197385 10.13337,18.8033525 -0.03659,0.475365 -0.08647,0.951017 -0.149272,1.42616 -0.266855,2.018926 -0.702606,3.904795 -1.322964,5.639796 m -0.247958,-1.461772 c -2.748324,7.570575 -9.166653,12.798878 -16.610167,13.240979 -0.464761,0.0276 -0.935016,0.03832 -1.409287,0.03197 -7.078233,-0.09467 -14.336618,-3.964407 -17.688657,-10.315562 -1.440449,-2.729238 -2.244921,-5.821268 -2.330751,-8.951289 -0.0924,-3.369486 0.651475,-6.667351 2.165956,-9.48559 m 4.206943,24.319341 c -3.535469,-3.668979 -5.629336,-8.780504 -5.729678,-14.198277 -0.05092,-2.749147 0.413196,-5.495879 1.378289,-8.080834 2.924301,-7.832602 10.188667,-12.3854566 18.01996,-12.8109291 0,0 2e-6,-10e-8 2e-6,-10e-8 0.06014,-0.00327 0.12031,-0.00619 0.180516,-0.00878 4.110464,-0.1767553 8.274169,1.2267791 11.815482,3.8597265 M 49.975369,9.154823 c 3.253315,-1.8645187 6.850923,-2.8751032 10.489456,-2.9007787 4.142501,-0.029232 8.136577,1.2202117 11.531379,3.5976768 5.250992,3.6774029 8.214704,9.6455539 7.86863,15.8143099 -0.07735,1.378716 -0.31963,2.744399 -0.724556,4.069243 -0.650856,2.129486 -1.599869,4.218793 -2.853138,6.141994 m 1.942464,-5.166645 c -2.14089,7.73755 -8.811677,13.656152 -16.36552,15.59275 -0.678042,0.173832 -1.365996,0.287073 -2.059349,0.342067 -6.948861,0.551153 -13.883678,-4.700481 -17.204957,-11.863422 -0.867351,-1.870601 -1.537204,-3.721426 -1.982104,-5.549153 m 7.230219,12.576978 c -4.901307,-3.90648 -7.918755,-9.691362 -8.183644,-15.879872 -0.07146,-1.669519 0.05947,-3.334578 0.388315,-4.960665 1.571252,-7.769541 8.500781,-13.7129495 16.562697,-15.2332071 0,-1e-7 1e-6,-3e-7 1e-6,-3e-7 0.84349,-0.1590591 1.693005,-0.2574371 2.544053,-0.2958151 M 42.61887,17.643019 C 46.099617,10.899734 52.942776,6.2022186 60.579426,5.539376 c 0.357158,-0.031 0.714461,-0.052992 1.071565,-0.065965 0,0 2e-6,0 2e-6,0 7.997413,-0.2905421 14.839809,5.6547053 17.294726,13.2518233 0.720981,2.231185 1.107832,4.592528 1.119461,6.991063 0.01804,3.719906 -0.867109,7.403679 -2.631356,10.7114 M 42.148391,35.540481 39.719367,27.87307 M 68.3561,7.1450866 74.273172,11.204654"
     transform="translate(10.167334)" />
  <text
     xml:space="preserve"
     style="font-style:normal;font-variant:normal;font-weight:normal;font-stretch:normal;font-size:26.6667px;font-family:Quicksand;-inkscape-font-specification:'Quicksand, Normal';font-variant-ligatures:normal;font-variant-caps:normal;font-variant-numeric:normal;font-variant-east-asian:normal;fill:#000000;stroke:none;stroke-linecap:round;stroke-linejoin:round"
     x="35.746582"
     y="74.833344"
     id="text2"><tspan
       sodipodi:role="line"
       id="tspan2"
       x="35.746582"
       y="74.833344">Redis</tspan></text>
</svg>
