<?xml version="1.0" encoding="UTF-8" standalone="no"?>
<svg
   height="180"
   width="600"
   version="1.1"
   id="svg1"
   sodipodi:docname="package-backend.svg"
   inkscape:version="1.3.2 (091e20ef0f, 2023-11-25, custom)"
   xmlns:inkscape="http://www.inkscape.org/namespaces/inkscape"
   xmlns:sodipodi="http://sodipodi.sourceforge.net/DTD/sodipodi-0.dtd"
   xmlns="http://www.w3.org/2000/svg"
   xmlns:svg="http://www.w3.org/2000/svg">
  <defs
     id="defs1">
    <inkscape:path-effect
       effect="sketch"
       id="path-effect8"
       is_visible="true"
       lpeversion="1"
       nbiter_approxstrokes="3"
       parallel_offset="0.2;1"
       strokelength="70"
       strokelength_rdm="0.3;1"
       strokeoverlap="0.5"
       strokeoverlap_rdm="0.5;1"
       ends_tolerance="0.1;1"
       tremble_size="0.8;1"
       tremble_frequency="3"
       nbtangents="2"
       tgt_places_rdmness="0.5;1"
       tgtlength="5"
       tgtlength_rdm="0.3;1"
       tgtscale="10" />
    <inkscape:path-effect
       effect="sketch"
       id="path-effect4"
       is_visible="true"
       lpeversion="1"
       nbiter_approxstrokes="3"
       parallel_offset="0.2;1"
       strokelength="70"
       strokelength_rdm="0.3;1"
       strokeoverlap="0.5"
       strokeoverlap_rdm="0.5;1"
       ends_tolerance="0.1;1"
       tremble_size="0.8;1"
       tremble_frequency="3"
       nbtangents="2"
       tgt_places_rdmness="0.5;1"
       tgtlength="5"
       tgtlength_rdm="0.3;1"
       tgtscale="10" />
    <inkscape:path-effect
       effect="sketch"
       id="path-effect3"
       is_visible="true"
       lpeversion="1"
       nbiter_approxstrokes="3"
       parallel_offset="2;1"
       strokelength="70"
       strokelength_rdm="0.3;1"
       strokeoverlap="0.5"
       strokeoverlap_rdm="0.5;1"
       ends_tolerance="0.1;1"
       tremble_size="0.8;1"
       tremble_frequency="3"
       nbtangents="2"
       tgt_places_rdmness="0.5;1"
       tgtlength="5"
       tgtlength_rdm="0.3;1"
       tgtscale="10" />
    <inkscape:path-effect
       effect="sketch"
       id="path-effect2"
       is_visible="true"
       lpeversion="1"
       nbiter_approxstrokes="3"
       parallel_offset="2;1"
       strokelength="70"
       strokelength_rdm="0.3;1"
       strokeoverlap="0.5"
       strokeoverlap_rdm="0.5;1"
       ends_tolerance="0.1;1"
       tremble_size="0.8;1"
       tremble_frequency="3"
       nbtangents="2"
       tgt_places_rdmness="0.5;1"
       tgtlength="5"
       tgtlength_rdm="0.3;1"
       tgtscale="10" />
    <inkscape:path-effect
       effect="sketch"
       id="path-effect6"
       is_visible="true"
       lpeversion="1"
       nbiter_approxstrokes="3"
       parallel_offset="0.2;1"
       strokelength="70"
       strokelength_rdm="0.3;1"
       strokeoverlap="0.5"
       strokeoverlap_rdm="0.5;1"
       ends_tolerance="0.1;1"
       tremble_size="0.8;1"
       tremble_frequency="3"
       nbtangents="2"
       tgt_places_rdmness="0.5;1"
       tgtlength="5"
       tgtlength_rdm="0.3;1"
       tgtscale="10" />
    <inkscape:path-effect
       effect="sketch"
       id="path-effect5"
       is_visible="true"
       lpeversion="1"
       nbiter_approxstrokes="3"
       parallel_offset="0.2;1"
       strokelength="70"
       strokelength_rdm="0.3;1"
       strokeoverlap="0.5"
       strokeoverlap_rdm="0.5;1"
       ends_tolerance="0.1;1"
       tremble_size="0.8;1"
       tremble_frequency="3"
       nbtangents="2"
       tgt_places_rdmness="0.5;1"
       tgtlength="5"
       tgtlength_rdm="0.3;1"
       tgtscale="10" />
    <inkscape:path-effect
       effect="sketch"
       id="path-effect1"
       is_visible="true"
       lpeversion="1"
       nbiter_approxstrokes="3"
       parallel_offset="0.2;1"
       strokelength="70"
       strokelength_rdm="0.3;1"
       strokeoverlap="0.5"
       strokeoverlap_rdm="0.5;1"
       ends_tolerance="0.1;1"
       tremble_size="0.8;1"
       tremble_frequency="3"
       nbtangents="2"
       tgt_places_rdmness="0.5;1"
       tgtlength="5"
       tgtlength_rdm="0.3;1"
       tgtscale="10" />
  </defs>
  <sodipodi:namedview
     id="namedview1"
     pagecolor="#ffffff"
     bordercolor="#000000"
     borderopacity="0.25"
     inkscape:showpageshadow="2"
     inkscape:pageopacity="0.0"
     inkscape:pagecheckerboard="0"
     inkscape:deskcolor="#d1d1d1"
     inkscape:zoom="0.5"
     inkscape:cx="368"
     inkscape:cy="-92"
     inkscape:window-width="1440"
     inkscape:window-height="831"
     inkscape:window-x="0"
     inkscape:window-y="0"
     inkscape:window-maximized="1"
     inkscape:current-layer="svg1"
     showgrid="true">
    <inkscape:grid
       id="grid1"
       units="px"
       originx="0"
       originy="0"
       spacingx="1"
       spacingy="1"
       empcolor="#0099e5"
       empopacity="0.30196078"
       color="#0099e5"
       opacity="0.14901961"
       empspacing="5"
       dotted="false"
       gridanglex="30"
       gridanglez="30"
       visible="true" />
  </sodipodi:namedview>
  <g
     id="g1">
    <path
       id="path2"
       style="fill:#cccccc;stroke:none;stroke-linecap:round;stroke-linejoin:round"
       d="m 5,5 v 160 c 0,5.53999 4.4600055,10 10,10 h 570 c 5.53999,0 10,-4.46001 10,-10 0,0 -565,1 -570,0 -5,-1 -8,-5 -10,-10 C 13,150 15,5 15,5 Z"
       sodipodi:nodetypes="csssczzcc" />
    <g
       id="g2"
       inkscape:path-effect="#path-effect4">
      <path
         id="rect1"
         style="fill:none;stroke:#000000;stroke-linecap:round;stroke-linejoin:round"
         d="m 9.8714961,45.732582 c 8.0092929,-0.17878 15.4740989,0.0028 23.0917809,-0.006 7.620947,-0.0088 15.422417,-0.134923 22.939581,-0.399999 l 2e-6,-10e-7 c 3.106989,-0.109561 6.32962,-0.119305 9.611921,-0.08494 M 46.381278,45.015507 c 7.543729,-0.09167 15.594629,-0.228087 23.47363,-0.668632 l 3e-6,0 c 7.882379,-0.440734 15.645821,0.132732 23.589581,0.3875 1.216689,0.03902 2.42782,0.06835 3.635234,0.09074 m -13.590991,0.09972 c 7.614673,-0.131078 15.901064,-0.127166 24.392285,-0.393581 l 10e-6,0 c 8.49486,-0.266529 15.24402,0.365372 22.40833,1.0875 l 0,0 c 1.70179,0.171533 3.48944,0.238298 5.33832,0.229415 m -15.28071,-1.095037 c 7.61877,0.002 15.82191,-0.07609 24.13604,-0.231253 l 0,0 c 8.31769,-0.155231 15.60718,0.145051 23.48333,0.4375 6.71656,0.249392 13.11902,0.282752 19.38608,0.647428 m -29.787,0.01989 c 7.91782,0.0996 15.4678,-0.211352 23.0919,-0.643878 l 0,-10e-7 c 7.62737,-0.432711 15.46835,-0.164608 23.07708,-0.506249 l 0,-10e-7 c 4.13457,-0.185647 8.42664,-0.106831 12.79308,0.07407 m -21.76574,1.063528 c 8.03639,0.07688 15.55719,-0.03792 23.33549,-0.125099 l 1e-5,-1e-6 c 7.78164,-0.08722 15.30613,-0.224479 22.57083,-0.68125 2.15982,-0.135799 4.40884,-0.204688 6.7063,-0.242817 m -16.6108,-0.174305 c 7.97626,0.05033 15.74965,0.516104 23.92932,1.556185 l 0,0 c 8.18318,1.040527 15.65999,-0.474188 23.65833,-1.4375 1.92803,-0.23221 3.81737,-0.327163 5.67735,-0.32543 M 268.72423,45.3295 c 7.80545,-0.145529 15.33764,-0.0096 22.70455,-0.01856 l 0,-10e-7 c 7.37006,-0.0089 15.6329,-0.142783 23.57083,-0.437499 0.85301,-0.03167 1.70477,-0.05461 2.5559,-0.06992 m -11.71666,0.760687 c 7.8784,0.109885 15.55542,-0.345355 23.3482,-1.043891 l 0,0 c 7.79612,-0.698836 15.41623,0.05197 22.91458,0.149999 l 0,10e-7 c 5.73536,0.07498 11.85312,0.204092 17.98236,0.520279 m -28.95875,-0.309281 c 7.80382,0.04769 15.85998,-0.14283 24.26705,-0.425061 l 0,0 c 8.41067,-0.282352 15.2584,0.08564 22.43333,0.2625 l 0,0 c 5.23573,0.129062 11.28364,0.01121 17.44249,-0.147909 m -27.10762,0.986891 c 7.84509,-0.06252 15.50522,-0.183035 23.19199,-0.55617 l 0,0 c 7.69006,-0.373294 15.50288,-0.242061 23.18333,-0.712499 l 0,-10e-7 c 3.57951,-0.219249 7.23165,-0.207087 10.92808,-0.107501 m -20.53243,1.319881 c 7.789,-0.09396 15.5578,-0.483028 23.34206,-1.443629 l 10e-6,0 c 7.7876,-0.961013 15.69983,0.499107 23.77082,1.499999 l 10e-6,0 c 5.66261,0.702227 11.10304,0.410885 16.62328,0.162972 m -25.81713,-1.181427 c 7.93031,0.229012 15.49203,0.392178 23.14189,1.187205 l 0,0 c 7.65313,0.795369 15.65797,-0.110559 23.64583,-0.33125 4.05975,-0.112164 7.97587,-0.07689 11.8321,0.01799 m -21.39474,0.227118 c 7.85143,-0.160111 15.62103,-0.04447 23.54824,-0.118544 7.93061,-0.07411 15.61629,0.09157 23.52708,0.26875 l 0,0 c 1.62881,0.03648 3.24133,0.05544 4.84103,0.06143 m -15.57058,-0.328478 c 7.77253,0.105721 15.7421,-0.351596 23.90459,-1.062636 l 0,-10e-7 c 8.16599,-0.711344 15.32428,-0.09687 22.64583,-0.281249 l 0,0 c 2.71726,-0.06843 5.57451,-0.06146 8.5015,-0.0073 m -17.19142,1.399789 c 6.85812,0.210964 13.96259,0.09582 21.16616,0.151516 0.91399,0.0071 1.80137,0.128661 2.64869,0.351971 4.49405,1.184403 7.6521,5.013226 7.63207,9.525335 -0.0146,3.279979 -0.0376,6.514801 0.0165,9.733857 0.0932,5.538841 0.0341,11.556501 -0.0157,17.544121 m -0.69822,-28.017902 c 0.1058,7.770471 -0.25307,15.763655 -0.75014,23.960839 l 0,10e-7 c -0.49728,8.200697 0.0612,15.148446 0.1875,22.114582 l 0,0 c 0.1161,6.40584 0.0342,14.23619 0.0449,21.6053 m 1.08978,-32.416007 c 0.23281,7.818359 -0.0305,15.850287 -0.1003,24.235777 -0.0698,8.38909 -0.40084,15.64859 -1.19999,23.60833 l 0,0 c -0.75174,7.48744 0.0608,14.65549 0.43492,21.96149 m -0.0462,-34.81428 c -0.22659,7.52708 0.0106,15.57489 0.044,23.41115 0.0223,5.23658 0.17589,10.50868 0.4882,15.87236 0.16413,2.8187 -0.72708,5.39045 -2.25739,7.32425 -1.57387,1.98886 -4.07738,3.17281 -7.00098,3.13977 -1.00905,-0.0114 -2.03612,-0.0309 -3.0771,-0.0561 m 12.11626,-10.79183 c 0.0132,0.54101 0.025,1.08131 0.0356,1.621 0.11046,5.59105 -4.36774,10.04063 -9.84242,10.05657 -1.97793,0.006 -3.94629,0.015 -5.89526,0.0323 l 0,0 c -7.57706,0.0672 -15.89514,-0.40122 -24.35208,-1.20625 l -1e-5,0 c -5.96312,-0.56763 -11.12531,-0.19123 -16.2036,0.28566 m 26.40962,0.65041 c -7.98828,0.0976 -15.20678,-0.17311 -22.29181,-0.52513 -7.08807,-0.35217 -15.97645,-0.0616 -24.58958,-0.175 l -10e-6,0 c -7.19364,-0.0947 -13.04035,0.13053 -18.99617,0.48371 m 30.96643,0.29128 c -7.84096,-0.0104 -15.54505,0.003 -23.31074,1e-5 -7.76902,-0.003 -15.66919,-0.2034 -23.66458,-0.61875 l -10e-6,0 c -7.52097,-0.39071 -14.7286,-0.0627 -22.17182,-0.0434 m 33.46775,-0.40508 c -8.00724,-0.0623 -15.5051,0.0351 -23.19804,0.0938 l 0,0 c -7.69623,0.0588 -15.74336,0.37761 -23.89583,1.125 l 0,0 c -6.86621,0.62948 -13.04594,0.0794 -19.21384,-0.31563 m 29.75072,-0.49375 c -7.75984,-0.002 -15.48007,0.0651 -23.11711,0.20626 l 0,0 c -7.6403,0.14124 -15.76584,-0.0891 -23.97083,-0.2625 l 0,0 c -8.06428,-0.17047 -15.01393,-0.007 -22.07011,0.006 m 34.47643,-0.54015 c -7.77692,-0.0437 -16.01985,-0.0548 -24.73583,-0.1687 l 0,0 c -8.71971,-0.11389 -15.08712,0.2999 -21.93958,0.90625 l 0,0 c -4.73542,0.41903 -10.46595,0.11887 -16.27362,-0.3027 m 25.6427,-0.46005 c -7.87845,-0.19331 -15.62578,0.0302 -23.56695,0.0877 l 0,0 c -7.94458,0.0576 -15.41659,0.32538 -22.92083,0.96875 l 0,0 c -1.04385,0.0895 -2.09669,0.14885 -3.15637,0.1833 m 12.37674,-0.86017 c -7.99685,-0.24082 -15.50606,0.38462 -23.18555,1.15031 l 0,0 c -7.68278,0.76602 -15.71361,-0.18645 -23.80833,-0.5625 l 0,0 c -5.05318,-0.23475 -9.77221,-0.15483 -14.38736,-0.0371 m 24.64168,-0.12234 c -7.75794,-0.0458 -15.68955,-0.0907 -23.74836,-0.26245 l 0,1e-5 c -8.06226,-0.17187 -15.63681,0.0938 -23.56458,0.27499 -1.96676,0.045 -3.90954,0.0812 -5.83511,0.11677 m 15.70245,-0.25146 c -7.90932,-0.24516 -15.2503,0.16154 -22.41691,0.49407 l 0,0 c -7.16969,0.33267 -15.47618,-0.1642 -23.09584,-0.4875 -3.97977,-0.16886 -8.17584,-0.0873 -12.52081,0.10709 m 20.53128,0.57267 c -7.59328,0.056 -15.1878,-0.15446 -22.22982,-0.46257 l 0,0 c -7.04504,-0.30825 -15.74635,-0.18091 -23.89583,-0.5375 l 0,0 c -7.95242,-0.34797 -15.41587,0.33084 -23.43026,1.05253 m 34.84336,-0.0103 c -7.64557,0.002 -15.56944,-0.18961 -23.386,-0.56876 l 0,0 c -7.81992,-0.37931 -15.5009,-0.1121 -23.16458,-0.32499 l 0,-1e-5 c -3.54475,-0.0985 -7.10362,-0.0974 -10.6414,-0.0606 m 19.68174,-0.54253 c -7.91789,-0.0228 -15.54217,0.0343 -23.3044,0.10628 -7.76557,0.072 -15.48253,0.30607 -23.10208,0.9125 l -1e-5,0 c -3.71184,0.29542 -7.4681,0.33063 -11.21249,0.31677 m 20.2595,-0.70893 c -7.82816,0.0231 -15.15326,0.231 -22.12951,0.69997 l -1e-5,0 c -6.979242,0.46917 -15.587481,0.0697 -23.427075,0.21875 l -3e-6,0 c -5.858557,0.11141 -11.718115,0.0687 -17.658145,0.0568 m 27.861572,-0.30866 c -7.597995,-0.22444 -15.846913,0.0866 -24.20481,0.26279 l -2e-6,0 c -8.361479,0.1763 -15.448854,-0.0468 -23.020828,-0.15 l -4e-6,0 c -6.217589,-0.0847 -12.568704,-0.13526 -18.709833,-0.32052 m 28.378905,-0.82785 c -7.668429,0.0499 -15.557366,0.0123 -23.348469,0.0437 -5.641566,0.0227 -11.067385,0.049 -16.293282,0.11364 -2.097489,0.0259 -3.99653,-0.68601 -5.4618867,-1.90388 -2.1333702,-1.77306 -3.6574924,-4.66706 -3.7846379,-7.99075 -0.077839,-2.03478 -0.2149791,-4.08365 -0.3719534,-6.13973 m 12.965078,16.12057 c -1.135196,-0.0165 -2.255036,-0.0298 -3.361614,-0.041 -5.5705679,-0.0562 -9.7771104,-4.51355 -9.4110746,-10.12154 0.09479,-1.45227 0.1951669,-2.90906 0.2964876,-4.37259 0.5492914,-7.9343 -0.1312177,-15.13294 -0.3937499,-22.05834 l -1e-7,0 c -0.202652,-5.3458 -0.030262,-11.8035 0.1546537,-18.1986 m -0.00949,27.66671 c -0.118739,-7.52085 -0.2840762,-15.5842 -0.8373473,-23.42991 -0.5535083,-7.84907 0.3450357,-15.73505 1.0249998,-23.85833 l 2e-7,0 c 0.099364,-1.187072 0.1607513,-2.35434 0.1905437,-3.505028 M 4.7200289,111.34421 C 4.4997247,103.43646 4.7860712,95.490671 4.9265625,87.108547 l 0,-2e-6 C 5.067114,78.722829 4.9144869,71.621442 4.8828125,63.975217 l 0,-3e-6 C 4.8570075,57.745858 4.8186983,51.338406 4.7214034,44.967978 c 1.07239,-0.0058 2.1430374,-0.01056 3.2117062,-0.01311 M 4.6172332,75.374456 c 0.035659,-7.672564 0.3722292,-15.530819 1.1187043,-23.273464 0.2240703,-2.324119 0.2874786,-4.65655 0.2510277,-6.994921 5.3590788,-0.01098 10.1746998,-0.05429 15.2188138,-0.09982 6.322689,-0.05707 13.731992,-0.03698 21.074462,-0.07857 M 12.135203,44.85157 c 7.732635,0.0061 15.278381,-0.199882 22.498387,-0.593758 l 2e-6,10e-7 c 7.223101,-0.394045 15.410046,0.02441 22.895831,0.0875 1.462352,0.01232 2.959979,0.03139 4.486287,0.0585 m -13.204256,0.611685 c 7.643567,-0.101646 15.655254,0.255496 23.636002,0.768881 l 2e-6,0 c 7.984168,0.513605 15.486889,-0.251231 23.114581,-0.74375 5.083431,-0.328236 10.193511,-0.109802 15.193791,0.216133 m -24.85419,0.313795 c 7.554009,0.186827 15.4621,-0.317914 23.06112,-0.962741 7.60227,-0.645102 15.55325,0.16812 23.32708,0.50625 l 0,1e-6 c 6.46533,0.281215 12.82291,0.09559 19.07154,0.03156 M 121.53,45.254559 c 7.88488,-0.0999 15.85041,-0.128167 24.24194,-0.381121 8.39512,-0.253064 15.23015,-0.07633 22.36458,-0.2375 l 0,-1e-6 c 1.89535,-0.04282 3.89729,-0.0483 5.96958,-0.02543 m -15.42942,0.483033 c 7.7456,-0.160077 15.85087,-0.0042 24.23587,-0.006 l 1e-5,0 c 8.38859,-0.0018 15.40698,-0.02831 22.90208,-0.0875 l 0,0 c 2.22832,-0.0176 4.51962,-0.02571 6.85184,-0.02895 M 196.7693,44.734584 c 7.8116,0.162218 15.23897,0.07749 22.39828,0.224791 7.16239,0.147364 15.64477,0.304685 23.60208,0.91875 l 1e-5,0 c 1.33066,0.102687 2.65468,0.165051 3.97453,0.195636 m -14.06754,-0.919138 c 7.77261,-0.04996 15.83742,-0.08348 24.19833,-0.256186 l 10e-6,0 c 8.3645,-0.17278 15.28731,-0.175373 22.53958,-0.5375 4.78224,-0.23879 10.03915,-0.0184 15.3196,0.352819 m -25.24511,1.208381 c 7.57715,0.203658 15.77938,-0.08397 24.01734,-0.256512 l 0,0 c 8.24148,-0.172614 15.68807,-0.432728 23.72708,-1.2875 l 0,0 c 7.70331,-0.819078 14.76683,0.04981 21.88928,0.34598 m -33.42452,0.204229 c 7.8909,0.161998 15.59269,-0.179206 23.46068,-0.525209 l 10e-6,0 c 7.87136,-0.346151 15.41297,-0.01514 22.90208,-0.04375 5.51764,-0.02108 11.44072,0.243382 17.42691,0.756475 m -28.07115,0.04217 c 7.58738,0.160032 15.58744,-0.04751 23.42982,-0.137706 7.84575,-0.09024 15.44287,-0.11161 23.00208,-0.33125 l 10e-6,-10e-7 c 7.5093,-0.21819 15.50061,-0.106442 23.33342,-0.30843 m -34.65112,1.35091 c 7.9512,0.226379 15.60574,-0.254137 23.50436,-0.762792 l 0,0 c 7.902,-0.508872 15.60411,0.03619 23.47083,0.11875 l 0,0 c 6.4043,0.06721 12.80789,0.155922 19.3518,0.393604 m -29.1355,-0.810647 c 8.03434,0.11229 15.58855,0.0361 23.45425,0.118605 l 0,10e-7 c 7.86907,0.08255 15.41139,0.170939 22.90208,0.518749 l 0,0 c 5.99284,0.278262 12.17132,-0.128481 18.09564,-0.689735 m -27.95091,0.98844 c 7.73689,0.207473 15.38625,-0.484715 22.82963,-1.450267 7.44658,-0.965966 15.46609,0.154572 23.07083,0.45625 l 10e-6,0 c 4.15913,0.164992 8.38233,0.198797 12.58601,0.2504 m -21.50803,0.63364 c 7.5978,-0.2599 15.61237,-0.04801 23.50481,-0.143415 7.89583,-0.09545 15.32748,-0.0292 22.64583,-0.08125 l 10e-6,0 c 3.92531,-0.02792 8.15436,-0.04131 12.47281,-0.06453 m -22.86562,0.750632 c 8.00345,0.128889 15.93411,-0.0014 24.49179,-0.0064 l 0,-10e-7 c 8.56134,-0.005 15.33919,-0.260606 22.68333,-0.78125 2.59655,-0.184075 5.28181,-0.224267 7.99875,-0.190072 m -16.5913,0.694846 c 7.55173,0.06651 15.23108,-0.0113 22.37362,-0.04384 0.13577,-6.18e-4 0.27214,-0.0013 0.4091,-0.0019 5.18598,-0.02562 9.9382,4.376802 10.47861,9.790348 0.23297,2.333763 0.49896,4.654206 0.74314,6.958753 0.7389,6.97348 -0.15037,14.441819 -0.75145,21.721057 m -0.2389,-32.587725 c 0.50129,1.175731 0.77199,2.474852 0.75906,3.844132 -0.0608,6.436191 -0.32691,12.978508 -0.74527,19.502472 l 0,10e-7 c -0.50438,7.86548 0.0939,15.188703 0.2875,22.23333 l 0,2e-6 c 0.0835,3.035512 0.14478,6.375582 0.23011,9.843492 m 0.22611,-19.147979 c -0.0249,7.668606 0.006,15.763809 0.025,23.954719 l 0,0 c 0.0186,8.19443 -0.36384,15.35208 -1.0875,22.72083 l 0,0 c -0.32708,3.33061 -0.30223,6.83522 -0.12486,10.39928 m 0.48392,-19.40423 c -0.24528,7.52103 0.0337,15.78991 0.10032,24.04241 0.0457,5.66232 0.16938,10.75004 0.43847,15.72446 0.13011,2.4052 -0.68454,4.5662 -2.09107,6.17258 -1.61452,1.84393 -4.20288,3.07938 -7.18156,3.13928 -0.0638,0.001 -0.12767,0.003 -0.19156,0.004 m 8.66141,-11.2668 c -0.0166,0.67803 -0.0299,1.35189 -0.0403,2.02186 -0.0862,5.54662 -4.44006,9.8313 -9.88443,9.48177 -1.83288,-0.11768 -3.66542,-0.25003 -5.50565,-0.39139 -7.65991,-0.58841 -15.28711,0.24328 -22.53958,0.73125 l 0,0 c -4.96085,0.33378 -10.55886,0.0934 -16.28694,-0.24945 m 26.65349,-0.16755 c -7.72456,0.14985 -15.55812,0.20019 -23.3609,0.61231 l 0,0 c -7.80613,0.41229 -15.75269,-0.26951 -23.91458,-0.8125 l 0,0 c -5.20989,-0.3466 -10.17601,-0.25918 -15.19875,-0.15984 m 23.92622,1.26173 c -7.90302,0.25321 -15.1755,-0.47943 -22.19817,-1.42533 l 0,0 c -7.02568,-0.9463 -15.57268,0.0941 -23.38958,0.275 l 0,0 c -6.66604,0.15429 -13.546,0.13493 -20.70586,0.27825 m 31.36455,0.66415 c -7.9472,0.16403 -15.79485,-0.242 -24.06686,-0.71271 l 0,0 c -8.27556,-0.47091 -15.56685,0.392 -23.35833,1.16875 l -1e-5,0 c -2.26165,0.22547 -4.52712,0.27742 -6.79713,0.21252 m 16.51292,-1.81246 c -7.97596,0.0482 -15.38579,0.39043 -22.83557,1.16869 l -1e-5,0 c -7.45298,0.7786 -15.60229,-0.11532 -23.47707,-0.34375 l -10e-6,0 c -1.53834,-0.0446 -3.06153,-0.0793 -4.57185,-0.10907 m 14.22057,-0.33774 c -8.03639,0.048 -15.55054,0.23269 -23.32925,0.69994 l 0,0 c -7.78204,0.46744 -15.6438,0.11504 -23.59583,0.35624 l 0,1e-5 c -5.94258,0.18025 -11.53165,0.009 -16.98162,-0.2132 m 26.74872,0.0568 c -7.89922,-0.0999 -15.59673,-0.065 -23.45442,-0.19988 l -1e-5,10e-6 c -7.86106,-0.13493 -15.34162,0.16229 -22.68958,0.49374 l 0,1e-5 c -1.33209,0.0601 -2.68459,0.0833 -4.04974,0.0756 m 13.08446,-1.56475 c -7.67868,-0.0392 -15.38171,0.32336 -22.81721,0.9688 l 0,0 c -7.43869,0.64572 -15.52573,-0.26719 -23.25208,-0.8125 -2.37857,-0.16787 -4.74405,-0.19459 -7.09225,-0.12797 m 16.56491,0.32639 c -7.74933,-0.0165 -15.35805,0.11922 -22.75461,0.36252 l -10e-6,0 c -7.39973,0.24341 -16.0202,-0.18487 -24.73958,-0.55 -1.33548,-0.0559 -2.62572,-0.0908 -3.88087,-0.10863 m 13.97726,1.46666 c -7.61245,0.17042 -15.72663,-0.0627 -23.85479,-0.18772 -8.13165,-0.12503 -15.13663,-0.38941 -22.08959,-1.1625 l 0,0 c -2.65379,-0.29507 -5.54325,-0.2956 -8.53125,-0.131 m 18.05075,1.01692 c -7.66658,-0.0167 -15.83148,-0.12872 -24.17347,-0.39373 -8.34556,-0.26513 -15.7253,-0.0351 -23.85208,-0.0937 l 0,0 c -2.53041,-0.0183 -4.9525,-0.007 -7.29775,0.0292 m 17.51014,-0.27136 c -7.66414,0.008 -15.40259,-0.0242 -22.88598,-0.0688 -7.4866,-0.0446 -15.55959,0.17274 -23.33958,0.51875 l 0,0 c -7.20895,0.32062 -14.79467,0.24728 -22.76362,0.60617 m 33.74245,-0.22798 c -7.68083,0.052 -15.47581,-0.007 -23.11095,-0.0188 l -1e-5,0 c -7.63841,-0.0115 -15.56365,-0.17388 -23.34582,-0.51875 l -1e-5,0 c -4.00993,-0.17771 -8.09674,-0.21121 -12.26376,-0.24172 m 20.51612,0.25137 c -7.94056,0.21815 -15.32441,-0.16158 -22.64187,-0.48778 l 0,0 c -7.320604,-0.32634 -15.759754,0.0715 -23.939583,0.2 l -2e-6,0 c -1.597934,0.0251 -3.157541,0.0512 -4.687866,0.0812 m 14.736964,0.66437 c -7.737198,0.15595 -15.751739,0.0423 -23.929632,0.12479 l -2e-6,0 c -8.181397,0.0825 -15.673623,-0.17143 -23.695828,-0.52499 l -3e-6,-1e-5 c -3.654169,-0.16105 -7.202493,-0.13071 -10.714401,-0.008 m 21.444937,0.22231 c -7.74357,-0.0103 -15.909132,0.15253 -24.404624,0.45627 -3.907928,0.13972 -7.463123,0.0489 -10.874944,-0.18396 -4.2589863,-0.29073 -7.6565011,-3.65069 -8.691694,-8.20177 -0.2482145,-1.09124 -0.3729968,-2.21254 -0.3492005,-3.34505 0.1031238,-4.90783 -0.1460506,-9.19857 -0.456044,-13.48791 m 8.3972245,24.61024 c -4.2537005,-1.13058 -7.4353269,-5.07578 -7.5202238,-9.84766 -0.061917,-3.48022 -0.1490867,-6.99326 -0.2416707,-10.5419 l -10e-8,0 C 5.1613102,146.56357 5.0003395,138.92306 4.2421878,130.7046 l -3e-7,0 C 3.6356372,124.12951 4.2120754,118.15822 4.8025541,112.11456 M 4.6622538,142.19443 C 4.4710556,134.6049 4.7302644,126.52198 4.86875,118.51461 l 0,0 C 5.007295,110.5038 4.7296817,103.15694 4.4375001,95.762528 l -1e-7,-2e-6 c -0.039615,-1.002571 -0.068929,-2.024069 -0.090148,-3.061625 m 0.757635,11.916029 C 5.3378857,96.755299 5.1803944,89.209136 5.3171875,81.731214 l 0,-10e-7 C 5.4540392,74.250085 5.0299171,66.053937 4.4421877,58.041633 l -2e-7,-2e-6 C 4.3645665,56.983452 4.3131878,55.934764 4.2840193,54.89393 M 5.3967035,68.350355 C 5.2646835,60.548884 5.0817092,53.019354 4.4652218,45.462992 c 0.06977,0.0014 0.1394989,0.0028 0.2091849,0.0042 7.1462823,0.143137 15.7993853,-0.427861 24.0770823,-1.275 l 1e-6,0 c 1.529748,-0.156555 3.027106,-0.245963 4.50163,-0.284243 m -22.255329,0.52967 c 7.801404,0.08948 15.472043,0.102349 23.079549,0.306135 7.610766,0.203873 15.72015,0.10451 23.81458,0.3 l 3e-6,0 c 3.516325,0.08492 6.859241,0.128277 10.106156,0.177147 m -19.374652,-0.70536 c 7.63702,-0.06869 15.292955,-0.09528 22.55476,-0.293662 l 4e-6,0 c 7.264917,-0.198467 15.847795,0.132544 24.22083,0.40625 8.229439,0.269013 15.301879,0.161794 22.903669,0.447197 m -34.866234,-0.56581 c 7.782692,0.106136 15.469999,0.133065 23.085824,0.406113 7.61909,0.273165 15.77692,0.261168 24.00833,0.78125 l 0,0 c 2.12891,0.13451 4.18339,0.170847 6.18684,0.13581 m -16.39337,-1.398567 c 7.96388,-0.199459 15.85248,0.13163 24.23559,0.400257 l 0,0 c 8.3867,0.268742 15.63451,0.269412 23.57083,0.79375 0.85284,0.05635 1.69698,0.09822 2.53303,0.127599 m -13.00498,-0.333608 c 7.68276,0.187024 15.29877,-0.0875 22.58595,-0.256491 7.29032,-0.169062 15.77904,-0.190836 23.98958,-0.5625 l 1e-5,0 c 1.37301,-0.06215 2.72029,-0.09851 4.04786,-0.11427 m -14.214,1.267403 c 8.01383,0.006 15.91613,-0.314697 24.42927,-0.950008 l 1e-5,0 c 8.51679,-0.635583 15.42613,0.222013 22.94583,0.675 3.16091,0.190414 6.39053,0.197881 9.63186,0.123854 m -18.92981,-0.88941 c 7.64551,0.0539 15.49679,-0.171771 23.161,-0.525069 l 0,0 c 7.6675,-0.353449 15.58115,-0.02065 23.39583,-0.05625 1.96618,-0.009 3.90077,0.0065 5.80564,0.04458 m -15.30981,0.348883 c 7.94686,-0.224436 15.39936,0.09601 22.86686,0.300289 7.4707,0.204367 15.30672,-0.116043 22.57708,-0.35 l 0,0 c 1.06243,-0.03419 2.14883,-0.05908 3.25448,-0.07691 m -12.11401,-0.04167 c 7.86796,0.137138 15.51482,-0.07802 23.22946,-0.237677 7.71795,-0.15973 15.68911,0.141099 23.72083,0.41875 l 0,0 c 1.90784,0.06595 3.79196,0.102172 5.66248,0.120023 m -14.93115,1.173446 c 7.82838,-0.218542 15.41575,-0.304009 22.92951,-0.905969 l 0,0 c 7.51698,-0.602218 15.4061,0.07331 22.87083,0.23125 l 0,0 c 1.48449,0.03141 2.99461,0.05596 4.52305,0.07741 m -13.69432,0.46781 c 7.59158,-0.07302 15.63726,-0.304443 23.59232,-0.924906 l 0,-10e-7 c 7.95848,-0.620729 15.18722,-0.008 22.23333,-0.01875 l 10e-6,-1e-6 c 4.79492,-0.0073 10.36301,0.09197 16.00861,0.289312 m -24.43267,-0.383177 c 7.69722,-0.08955 15.18182,-0.183032 22.21719,-0.537385 7.03838,-0.354504 15.69328,0.09792 23.73958,0.29375 l 0,10e-7 c 0.9778,0.0238 1.9482,0.04218 2.91263,0.05622 m -13.35603,0.946919 c 7.57697,0.01247 15.57213,-1.27e-4 23.40484,-0.0063 l 0,0 c 7.83607,-0.0061 15.58087,0.153178 23.42083,0.462499 l 0,0 c 4.86659,0.192009 9.72802,0.146616 14.6315,0.08546 m -24.00845,-1.326108 c 7.80561,-0.02086 15.52738,-0.08489 23.26704,-0.262474 7.74298,-0.17766 15.58025,0.211071 23.41458,0.61875 l 10e-6,10e-7 c 2.46689,0.12837 4.94038,0.16262 7.42612,0.140793 m -16.86074,-0.212829 c 7.93682,-0.124904 15.81027,-0.20019 24.11687,-0.60609 l 0,10e-7 c 8.31017,-0.406074 15.27772,0.307092 22.48958,0.912499 l 0,10e-7 c 3.20312,0.268889 6.67457,0.290149 10.26524,0.22365 2.30992,-0.04278 4.48044,0.599425 6.27196,1.747446 m -25.56565,-2.752167 c 6.70599,0.121728 13.25779,0.351173 19.50425,0.95699 0.94689,0.09183 1.85265,0.342366 2.69448,0.731392 3.71332,1.715993 6.70253,5.422878 6.86019,9.771298 0.12286,3.388385 0.31186,6.699041 0.36576,10.166909 0.0244,1.570564 0.0351,3.152822 0.0354,4.742766 m 0.51296,-13.987741 c -0.0917,7.926111 -0.22395,15.44246 -0.66863,23.010638 l 0,1e-6 c -0.44488,7.571422 0.34718,15.35507 1.05,22.739575 l 0,1e-5 c 0.62405,6.55691 0.16745,13.70642 0.10279,20.62153 m -1.2953,-31.385509 c -0.24723,7.558163 0.18392,15.456949 0.55032,23.036109 l 0,1e-5 c 0.36655,7.5824 0.17725,15.80931 0.54375,24.08957 l 0,1e-5 c 0.14246,3.21862 0.14219,6.2295 0.0632,9.12138 m -0.94637,-18.65969 c -0.24532,7.7577 -0.0168,15.42115 -0.0622,22.94835 -0.0243,4.03799 -0.004,8.18917 0.0384,12.34057 0.0394,3.81898 -2.04701,7.12155 -5.1458,8.71113 -1.37593,0.70581 -2.95625,1.11165 -4.64253,1.11906 -5.76127,0.0253 -11.56073,0.31897 -17.24322,0.63757 m 27.63994,-9.74807 c -0.002,0.16957 -0.003,0.33906 -0.005,0.50847 -0.0546,5.41311 -4.60153,9.73437 -10.34913,9.31524 -2.45465,-0.179 -4.93212,-0.4015 -7.43895,-0.67994 -8.25362,-0.91674 -15.45732,-0.0477 -23.05208,-0.14374 l -10e-6,-1e-5 c -1.59044,-0.0201 -3.19599,-0.0243 -4.81156,-0.0151 m 14.7294,0.80418 c -7.61628,-0.0314 -15.3521,-0.19765 -22.73603,-0.59996 l -10e-6,0 c -7.38709,-0.40249 -15.90431,0.23547 -24.38957,0.70625 l -10e-6,0 c -8.30992,0.46104 -14.9027,-0.25325 -21.77302,-0.82055 m 33.10132,0.11604 c -7.77634,0.14341 -15.33865,-0.0462 -22.69208,-0.12518 l 0,0 c -7.35658,-0.079 -15.46894,-0.0601 -23.07708,-0.1875 l 0,0 c -3.5458,-0.0594 -7.18742,-0.0263 -10.87404,0.0619 m 19.61412,1.12424 c -7.95088,0.11852 -15.23736,0.0279 -22.37936,0.0936 l 0,0 c -7.14506,0.0657 -15.93906,-0.21114 -24.48333,-0.63125 l 0,0 c -5.27374,-0.25931 -9.94374,-0.12763 -14.54902,0.10116 m 23.88627,-0.10616 c -7.84681,-0.23703 -15.08243,-0.0477 -21.92324,-0.15594 -6.84374,-0.1083 -15.6572,0.28585 -23.62708,0.85 l 0,0 c -5.25545,0.37201 -10.48312,0.13478 -15.84869,-0.22472 m 25.07239,-0.42663 c -7.76194,0.16627 -15.51462,-0.0479 -23.2296,-0.15021 l 0,0 c -7.71829,-0.10234 -15.48068,0.0228 -23.10833,0.0625 l 0,0 c -0.79285,0.004 -1.59011,0.008 -2.39125,0.0112 m 12.16399,-0.36428 c -7.78919,0.0374 -15.77691,-0.0725 -24.00456,-0.2188 l 0,0 c -8.23119,-0.14634 -15.25518,0.51756 -22.42708,1.54375 l -10e-6,0 c -5.86386,0.83903 -12.49911,0.24324 -18.91147,-0.11119 m 29.07878,-0.65735 c -7.56469,0.1623 -15.79499,0.1688 -24.05486,0.50604 l 0,0 c -8.26341,0.33739 -15.28135,-0.39568 -22.52083,-1.1875 l 0,0 c -3.14493,-0.34397 -6.48011,-0.39543 -9.87206,-0.34803 m 19.13437,0.40762 c -7.58523,0.16842 -15.50398,0.034 -23.17983,0.11229 l 0,0 c -7.67914,0.0783 -15.6934,-0.0548 -23.75833,-0.15625 -7.21779,-0.0908 -13.84437,0.0584 -20.5001,0.23644 m 31.6959,0.18699 c -7.89479,-0.006 -15.27445,0.0799 -22.49818,0.24375 l 0,1e-5 c -7.22683,0.16394 -15.8368,0.023 -24.18333,0.0625 l 0,0 c -7.61653,0.036 -14.22363,-0.0412 -21.11242,-0.14936 m 32.00595,0.30095 c -7.71008,0.0187 -15.64388,-0.0765 -23.59841,-0.23127 l -1e-5,0 c -7.95793,-0.15485 -15.66357,-0.23974 -23.65207,-0.73125 l -1e-5,0 c -0.88652,-0.0546 -1.76264,-0.0935 -2.62919,-0.11889 m 13.2298,0.50355 c -7.88265,0.22023 -15.67135,-0.14891 -23.67944,-0.43779 l -10e-6,0 c -8.01152,-0.289 -15.48981,0.22192 -23.14582,0.675 l -1e-5,0 c -6.20585,0.36726 -12.56955,0.25248 -18.89514,0.3769 m 30.29189,0.47287 c -7.58945,-0.18313 -15.5891,-0.21205 -23.45482,-0.62477 -7.86908,-0.41289 -15.8732,0.0863 -24.29583,0.2625 l 0,0 c -6.05737,0.12673 -11.34911,0.0529 -16.59594,-0.0203 m 26.38731,-0.56272 c -7.67227,-0.15172 -15.18511,0.0388 -22.21722,0.10645 l 0,0 c -7.035118,0.0676 -15.931614,0.0432 -24.458327,0.125 l -3e-6,0 c -1.54579,0.0148 -3.033061,0.0217 -4.475114,0.0219 m 14.478383,-0.0531 c -7.830363,0.0539 -15.302173,-0.18837 -22.598261,-0.56257 l -3e-6,0 c -7.299214,-0.37436 -15.586537,-0.0127 -23.433327,-0.0437 l -3e-6,0 c -2.801848,-0.0111 -5.617533,0.0101 -8.456666,0.06 m 17.073542,0.4821 c -7.691156,-0.0626 -15.392788,-0.23605 -22.854691,-0.69992 -4.381355,-0.27237 -9.010494,-0.0927 -13.696373,0.25577 -3.503723,0.26057 -6.6135569,-1.11152 -8.4909228,-3.39803 -1.169762,-1.4247 -1.8419808,-3.29342 -1.8276458,-5.37964 0.015015,-2.18521 0.060838,-4.44253 0.1244175,-6.71859 M 14.464116,175.378 c -5.5573682,-0.19235 -9.8852593,-4.53866 -9.8293625,-9.91896 0.0264,-2.54115 0.054964,-5.07297 0.068371,-7.61119 0.040201,-7.61068 -0.043775,-15.51806 -0.125,-23.22708 -0.040425,-3.83673 0.00272,-7.70537 0.098655,-11.58062 m 0.3359148,19.40621 C 5.1643525,134.91138 4.8951202,127.35897 4.66875,120.49771 l 0,0 c -0.2264672,-6.86419 -0.00463,-15.86643 -0.00625,-24.264579 -5.106e-4,-2.644424 0.00852,-5.166477 0.026627,-7.624237 M 4.3436539,106.68351 C 4.2691838,98.850677 4.7751561,90.925045 5.625,82.722751 l -1e-7,-3e-6 C 6.4752079,74.51694 5.4859444,67.010834 5.2187501,58.908171 l -1e-7,-3e-6 C 5.0546899,53.933044 5.0432336,49.197306 4.999135,44.474046 c 1.4064262,0.01557 2.8099683,0.03224 4.2057612,0.04406 M 5.2344954,70.16077 C 5.328005,62.298637 5.1880708,54.173082 5.096875,45.518799 c -0.00525,-0.498626 -0.00977,-0.991404 -0.013599,-1.478838 7.2671886,-0.646381 14.7181576,0.138434 22.1218826,0.153789 7.03096,0.01458 13.909268,0.07595 20.804506,0.216097 M 595,99.152198 v 8.042972 M 103.07539,175 h -7.175781"
         sodipodi:nodetypes="cssssssc"
         inkscape:original-d="m 5,45 h 580 c 5.54,0 10,4.46 10,10 v 110 c 0,5.54 -4.46,10 -10,10 H 15 C 9.46,175 5,170.54 5,165 Z" />
      <path
         id="rect2"
         style="fill:none;stroke:#000000;stroke-linecap:round;stroke-linejoin:round"
         d="M 4.4860581,43.309519 C 4.579904,35.724449 4.8325177,27.991195 5.5296875,20.685942 5.9938469,15.822275 5.6552534,10.431802 5.1333106,4.9283524 7.4726911,4.7637816 9.7657472,4.5706665 12.091142,4.4015625 18.679199,3.9224751 26.728861,4.2651351 34.130247,4.1340624 M 4.8669493,8.8764781 C 4.8394935,7.7187577 4.8178391,6.5649962 4.8001365,5.414858 11.31982,5.4319239 17.969807,5.5684591 24.39994,5.7609375 l 3e-6,-10e-8 C 31.953124,5.987033 39.945722,5.538855 47.695773,5.0859375 50.217862,4.9385452 52.769823,4.9133661 55.348838,4.9639769 M 39.289332,5.1706203 c 7.948989,0.2390608 15.454614,-0.011298 23.029358,-0.031558 7.577991,-0.020269 15.428708,0.1698793 22.94583,0.5062499 l 3e-6,1e-7 c 6.35754,0.2844825 12.973811,0.024607 19.378047,-0.1639368 M 74.492059,4.9112105 c 7.953533,0.2121132 15.904876,0.079479 24.398103,0.237227 l 3e-6,0 c 8.496865,0.157816 15.352485,9.195e-4 22.733335,0.00625 5.61952,0.00406 11.75298,-0.1178069 17.87618,-0.363632 m -28.71422,0.1809159 c 7.76645,0.074986 15.92024,0.1712137 24.42959,0.5124036 8.513,0.3413362 15.26035,-0.058766 22.45833,-0.1874999 l 1e-5,-1e-7 c 5.0501,-0.09032 10.73497,-0.059941 16.45309,-0.040325 m -26.27029,0.2342542 c 8.00109,0.1392479 15.59563,-0.042825 23.47305,-0.1376793 4.57875,-0.055134 9.03094,-0.028023 13.41482,0.023231 2.207,2.3413375 4.37847,4.6952316 6.53625,7.0398916 2.94326,3.198162 6.17291,6.25207 9.49419,9.214034 M 184.59893,5.8178546 c 5.54329,5.6800574 11.21776,10.7069374 17.16703,15.6293514 l 0,2e-6 c 5.95182,4.924525 10.80893,11.325433 15.92415,17.480407 1.52078,1.829895 3.13428,3.533374 4.81013,5.162169 M 5.5265517,41.862504 C 5.5180876,34.169102 5.3529349,26.273852 4.9953125,18.407817 4.7941115,13.982327 4.7735576,9.5350369 4.7452989,5.0171153 8.127126,4.9050841 11.504287,4.750279 14.788017,4.5296875 17.783789,4.3284401 20.91881,4.3293561 24.140339,4.4358542 M 5.287981,5.540566 C 12.960852,5.494642 21.177809,5.3200769 29.623945,4.871875 38.073702,4.423481 45.254744,5.0737105 53.188525,5.4843748 l 4e-6,2e-7 c 5.705806,0.295341 11.094493,0.071842 16.341394,-0.211608 M 42.950079,4.7265171 c 7.51223,-0.03519 15.22636,0.1757089 22.348671,0.5375454 7.125364,0.3619916 15.565584,-0.3188848 23.377081,-0.9499998 l 2e-6,-2e-7 C 90.970757,4.1286485 93.261984,4.080903 95.55211,4.1231741 M 79.251982,5.2454623 c 7.58335,0.1163442 15.737266,-0.085058 23.879828,-0.2501498 8.14606,-0.1651629 15.35312,0.088998 22.72083,0.2749999 l 1e-5,1e-7 c 2.76029,0.069685 5.69965,0.047858 8.75315,-0.035682 M 117.88096,4.7925115 c 7.54983,0.2518044 15.42648,0.3045053 22.95488,0.912176 l 0,-1e-7 c 7.53162,0.607931 15.63498,-0.4404524 23.58333,-1.3312496 l 0,-3e-7 c 1.74832,-0.1959396 3.47884,-0.2904772 5.197,-0.3119758 m -15.78782,0.4914519 c 7.66446,-0.1642649 15.78266,-0.039519 24.02973,-0.1185386 2.61763,-0.025081 5.13779,-0.00662 7.60596,0.047455 3.75603,3.8712206 7.27128,7.9073907 10.99894,12.0295887 2.04554,2.262037 4.09254,4.380534 6.13545,6.439826 M 189.71736,10.085812 c 5.50765,5.278837 10.87544,10.709812 16.13582,15.623618 l 0,2e-6 c 5.26264,4.915913 10.89381,11.245661 16.18666,17.224157 0.71763,0.810593 1.44766,1.603186 2.18858,2.381334 M 4.832676,39.500039 C 4.726601,31.83363 4.7714953,23.874352 4.6390625,15.945317 4.5754231,12.13509 4.6272939,8.3722136 4.749157,4.6052423 8.9228373,4.5716689 13.178441,4.5333028 17.458329,4.425 c 2.99868,-0.075882 5.839226,-0.059039 8.587309,0.020753 M 7.0760996,4.7798027 c 7.5085924,0.089506 15.8338594,0.1332553 24.1736754,0.4123848 8.343392,0.2792491 15.458449,0.090757 23.027081,0.2687499 l 3e-6,1e-7 c 1.558361,0.036648 3.144759,0.052179 4.753845,0.051374 M 45.240747,5.2002487 C 52.769652,5.3932921 60.518038,4.8592398 67.751896,4.1875 74.988856,3.5154723 83.23401,4.450443 90.866477,4.9874998 l 3e-6,2e-7 c 5.596438,0.3937921 11.44696,0.092865 17.3764,-0.2635298 M 80.773652,4.9575931 C 88.535585,4.7872382 96.277675,5.089314 103.972,5.3640625 l 0,10e-8 c 7.69763,0.2748661 16.02529,0.1604645 24.75208,0.4749999 6.30681,0.2273129 11.55501,-0.059951 16.81649,-0.5033588 M 118.58998,5.2140089 c 7.67021,-0.041665 15.20988,-0.1020353 22.29222,-0.3124464 l 0,0 c 7.08538,-0.2105013 15.53164,-0.272524 23.25833,-0.80625 1.72673,-0.1192747 3.47857,-0.1653453 5.25379,-0.1559572 m -14.03185,0.9359552 c 7.60621,0.2412899 15.72766,0.1640447 23.86105,0.4809395 2.22799,0.086807 4.3985,0.1074427 6.53369,0.081341 4.00848,3.9245978 7.76846,7.5204589 11.69301,11.1501259 2.3857,2.206451 4.797,4.636743 7.20902,7.162563 M 190.96242,10.726643 c 5.50147,5.626275 10.93833,11.021411 16.32958,16.560671 4.56035,4.68555 8.9883,9.062725 13.10196,13.214375 M 113.06008,5 h 7.45703 M 86.64656,5 h 9.507813"
         sodipodi:nodetypes="cccc"
         inkscape:original-d="M 5,45 V 5 h 180 l 40,40" />
    </g>
    <text
       xml:space="preserve"
       style="font-style:normal;font-variant:normal;font-weight:normal;font-stretch:normal;font-size:26.6667px;font-family:Quicksand;-inkscape-font-specification:'Quicksand, Normal';font-variant-ligatures:normal;font-variant-caps:normal;font-variant-numeric:normal;font-variant-east-asian:normal;text-align:center;text-anchor:middle;fill:#000000;stroke:none;stroke-linecap:round;stroke-linejoin:round"
       x="76.320099"
       y="34.733345"
       id="text2"><tspan
         sodipodi:role="line"
         id="tspan2"
         x="76.320099"
         y="34.733345">Backend</tspan></text>
  </g>
</svg>
