<?xml version="1.0" encoding="UTF-8" standalone="no"?>
<svg
   height="160"
   width="500"
   version="1.1"
   id="svg1"
   sodipodi:docname="package-backend.svg"
   inkscape:version="1.3.2 (091e20ef0f, 2023-11-25, custom)"
   xmlns:inkscape="http://www.inkscape.org/namespaces/inkscape"
   xmlns:sodipodi="http://sodipodi.sourceforge.net/DTD/sodipodi-0.dtd"
   xmlns="http://www.w3.org/2000/svg"
   xmlns:svg="http://www.w3.org/2000/svg">
  <defs
     id="defs1">
    <inkscape:path-effect
       effect="sketch"
       id="path-effect8"
       is_visible="true"
       lpeversion="1"
       nbiter_approxstrokes="3"
       parallel_offset="0.2;1"
       strokelength="70"
       strokelength_rdm="0.3;1"
       strokeoverlap="0.5"
       strokeoverlap_rdm="0.5;1"
       ends_tolerance="0.1;1"
       tremble_size="0.8;1"
       tremble_frequency="3"
       nbtangents="2"
       tgt_places_rdmness="0.5;1"
       tgtlength="5"
       tgtlength_rdm="0.3;1"
       tgtscale="10" />
    <inkscape:path-effect
       effect="sketch"
       id="path-effect4"
       is_visible="true"
       lpeversion="1"
       nbiter_approxstrokes="3"
       parallel_offset="0.2;1"
       strokelength="70"
       strokelength_rdm="0.3;1"
       strokeoverlap="0.5"
       strokeoverlap_rdm="0.5;1"
       ends_tolerance="0.1;1"
       tremble_size="0.8;1"
       tremble_frequency="3"
       nbtangents="2"
       tgt_places_rdmness="0.5;1"
       tgtlength="5"
       tgtlength_rdm="0.3;1"
       tgtscale="10" />
    <inkscape:path-effect
       effect="sketch"
       id="path-effect3"
       is_visible="true"
       lpeversion="1"
       nbiter_approxstrokes="3"
       parallel_offset="2;1"
       strokelength="70"
       strokelength_rdm="0.3;1"
       strokeoverlap="0.5"
       strokeoverlap_rdm="0.5;1"
       ends_tolerance="0.1;1"
       tremble_size="0.8;1"
       tremble_frequency="3"
       nbtangents="2"
       tgt_places_rdmness="0.5;1"
       tgtlength="5"
       tgtlength_rdm="0.3;1"
       tgtscale="10" />
    <inkscape:path-effect
       effect="sketch"
       id="path-effect2"
       is_visible="true"
       lpeversion="1"
       nbiter_approxstrokes="3"
       parallel_offset="2;1"
       strokelength="70"
       strokelength_rdm="0.3;1"
       strokeoverlap="0.5"
       strokeoverlap_rdm="0.5;1"
       ends_tolerance="0.1;1"
       tremble_size="0.8;1"
       tremble_frequency="3"
       nbtangents="2"
       tgt_places_rdmness="0.5;1"
       tgtlength="5"
       tgtlength_rdm="0.3;1"
       tgtscale="10" />
    <inkscape:path-effect
       effect="sketch"
       id="path-effect6"
       is_visible="true"
       lpeversion="1"
       nbiter_approxstrokes="3"
       parallel_offset="0.2;1"
       strokelength="70"
       strokelength_rdm="0.3;1"
       strokeoverlap="0.5"
       strokeoverlap_rdm="0.5;1"
       ends_tolerance="0.1;1"
       tremble_size="0.8;1"
       tremble_frequency="3"
       nbtangents="2"
       tgt_places_rdmness="0.5;1"
       tgtlength="5"
       tgtlength_rdm="0.3;1"
       tgtscale="10" />
    <inkscape:path-effect
       effect="sketch"
       id="path-effect5"
       is_visible="true"
       lpeversion="1"
       nbiter_approxstrokes="3"
       parallel_offset="0.2;1"
       strokelength="70"
       strokelength_rdm="0.3;1"
       strokeoverlap="0.5"
       strokeoverlap_rdm="0.5;1"
       ends_tolerance="0.1;1"
       tremble_size="0.8;1"
       tremble_frequency="3"
       nbtangents="2"
       tgt_places_rdmness="0.5;1"
       tgtlength="5"
       tgtlength_rdm="0.3;1"
       tgtscale="10" />
    <inkscape:path-effect
       effect="sketch"
       id="path-effect1"
       is_visible="true"
       lpeversion="1"
       nbiter_approxstrokes="3"
       parallel_offset="0.2;1"
       strokelength="70"
       strokelength_rdm="0.3;1"
       strokeoverlap="0.5"
       strokeoverlap_rdm="0.5;1"
       ends_tolerance="0.1;1"
       tremble_size="0.8;1"
       tremble_frequency="3"
       nbtangents="2"
       tgt_places_rdmness="0.5;1"
       tgtlength="5"
       tgtlength_rdm="0.3;1"
       tgtscale="10" />
  </defs>
  <sodipodi:namedview
     id="namedview1"
     pagecolor="#ffffff"
     bordercolor="#000000"
     borderopacity="0.25"
     inkscape:showpageshadow="2"
     inkscape:pageopacity="0.0"
     inkscape:pagecheckerboard="0"
     inkscape:deskcolor="#d1d1d1"
     inkscape:zoom="1"
     inkscape:cx="137"
     inkscape:cy="-58"
     inkscape:window-width="1440"
     inkscape:window-height="831"
     inkscape:window-x="0"
     inkscape:window-y="0"
     inkscape:window-maximized="1"
     inkscape:current-layer="svg1"
     showgrid="true">
    <inkscape:grid
       id="grid1"
       units="px"
       originx="0"
       originy="0"
       spacingx="1"
       spacingy="1"
       empcolor="#0099e5"
       empopacity="0.30196078"
       color="#0099e5"
       opacity="0.14901961"
       empspacing="5"
       dotted="false"
       gridanglex="30"
       gridanglez="30"
       visible="true" />
  </sodipodi:namedview>
  <path
     id="path2"
     style="fill:#cccccc;stroke:none;stroke-linecap:round;stroke-linejoin:round"
     d="m 5,5 v 140 c 0,5.53999 4.4600055,10 10,10 h 470 c 5.53999,0 10,-4.46001 10,-10 0,0 -465,1 -470,0 -5,-1 -8,-5 -10,-10 C 13,130 15,5 15,5 Z"
     sodipodi:nodetypes="csssczzcc" />
  <g
     id="g2"
     inkscape:path-effect="#path-effect4">
    <path
       id="rect1"
       style="fill:none;stroke:#000000;stroke-linecap:round;stroke-linejoin:round"
       d="m 9.8714961,45.732582 c 8.0092929,-0.17878 15.4740989,0.0028 23.0917809,-0.006 l 3e-6,0 c 7.620946,-0.0088 15.422415,-0.134923 22.939578,-0.399999 l 2e-6,-10e-7 c 3.106989,-0.109561 6.32962,-0.119305 9.611921,-0.08494 M 46.381278,45.015507 c 7.543729,-0.09167 15.594629,-0.228087 23.47363,-0.668632 l 3e-6,0 c 7.882379,-0.440734 15.645821,0.132732 23.589581,0.3875 1.216689,0.03902 2.42782,0.06835 3.635234,0.09074 m -13.590991,0.09972 c 7.614673,-0.131078 15.901064,-0.127166 24.392285,-0.393581 l 10e-6,0 c 8.49486,-0.266529 15.24403,0.365373 22.40833,1.0875 1.70179,0.171533 3.48944,0.238298 5.33832,0.229415 m -15.28071,-1.095037 c 7.61877,0.002 15.82191,-0.07609 24.13604,-0.231253 l 0,0 c 8.31769,-0.155231 15.60718,0.145051 23.48333,0.4375 6.71656,0.249392 13.11902,0.282752 19.38608,0.647428 m -29.787,0.01989 c 7.91782,0.0996 15.4678,-0.211352 23.0919,-0.643878 l 0,-10e-7 c 7.62737,-0.432711 15.46835,-0.164608 23.07708,-0.506249 l 0,-10e-7 c 4.13457,-0.185647 8.42664,-0.106831 12.79308,0.07407 m -21.76574,1.063528 c 8.03639,0.07688 15.55719,-0.03792 23.33549,-0.125099 l 1e-5,-1e-6 c 7.78164,-0.08722 15.30613,-0.224479 22.57083,-0.68125 2.15982,-0.135799 4.40884,-0.204688 6.7063,-0.242817 m -16.6108,-0.174305 c 7.97626,0.05033 15.74965,0.516104 23.92932,1.556185 l 0,0 c 8.18318,1.040527 15.65999,-0.474188 23.65833,-1.4375 1.92803,-0.23221 3.81737,-0.327163 5.67735,-0.32543 M 268.72423,45.3295 c 7.80545,-0.145529 15.33764,-0.0096 22.70455,-0.01856 l 0,-10e-7 c 7.37006,-0.0089 15.6329,-0.142783 23.57083,-0.437499 0.85301,-0.03167 1.70477,-0.05461 2.5559,-0.06992 m -11.71666,0.760687 c 7.8784,0.109885 15.55542,-0.345355 23.3482,-1.043891 l 0,0 c 7.79612,-0.698836 15.41623,0.05197 22.91458,0.149999 l 0,10e-7 c 5.73536,0.07498 11.85312,0.204092 17.98236,0.520279 m -28.95875,-0.309281 c 7.80382,0.04769 15.85998,-0.14283 24.26705,-0.425061 l 0,0 c 8.41067,-0.282352 15.2584,0.08564 22.43333,0.2625 l 0,0 c 5.23573,0.129062 11.28364,0.01121 17.44249,-0.147909 m -27.10762,0.986891 c 7.84509,-0.06252 15.50522,-0.183035 23.19199,-0.55617 l 0,0 c 7.69006,-0.373294 15.50288,-0.242061 23.18333,-0.712499 l 0,-10e-7 c 3.57951,-0.219249 7.23165,-0.207087 10.92808,-0.107501 m -20.53243,1.319881 c 7.789,-0.09396 15.5578,-0.483028 23.34206,-1.443629 l 10e-6,0 c 7.7876,-0.961013 15.69983,0.499107 23.77082,1.499999 l 10e-6,0 c 5.66261,0.702227 11.10304,0.410885 16.62328,0.162972 m -25.81713,-1.181427 c 7.93031,0.229012 15.49203,0.392178 23.14189,1.187205 2.98721,0.310453 6.02801,0.361706 9.10047,0.295682 5.09922,-0.109578 9.36421,3.190772 10.21083,7.886294 0.0849,0.470968 0.13325,0.95562 0.14245,1.451264 0.0629,3.388789 0.0241,6.881802 -0.0605,10.420367 m -5.4933,-19.005662 c 3.22521,1.593492 5.40867,4.915776 5.43488,8.774607 0.0281,4.142017 0.0648,8.300629 0.14621,12.405333 0.15283,7.703669 0.0607,15.64712 0.19375,23.602081 l 0,2e-6 c 0.0274,1.637905 0.0385,3.258289 0.0367,4.865698 m -1.19769,-14.701357 c -0.002,7.880166 0.1932,15.197293 0.58125,22.260699 l 0,0 c 0.38822,7.06643 -0.23127,15.45868 -0.6875,23.05208 l 0,0 c -0.16932,2.81815 -0.19865,5.7117 -0.15824,8.65244 m 0.79721,-16.58884 c -0.0684,8.01149 0.17413,15.61126 0.51884,23.50428 0.0466,1.06655 0.0817,2.12514 0.108,3.17664 0.13819,5.53137 -4.42612,9.84669 -9.95443,9.59337 -1.48669,-0.0681 -2.96576,-0.14175 -4.42998,-0.21841 -5.74651,-0.30087 -11.64535,-0.12291 -17.53482,0.025 m 26.64568,-1.92753 c -1.52257,0.97988 -3.36038,1.5578 -5.36121,1.58396 -5.9654,0.078 -12.15203,0.28114 -18.41796,0.60138 l 0,0 c -8.27506,0.42292 -15.49431,-0.40711 -23.14583,-1.21875 l 0,0 c -7.03611,-0.74637 -14.27017,-0.0682 -21.41173,0.14868 m 33.61654,0.11075 c -7.54164,0.0439 -15.5794,0.3014 -23.42363,0.91244 l -1e-5,0 c -7.8476,0.61131 -15.9564,0.093 -24.53332,0.275 l -10e-6,0 c -8.068,0.17117 -14.57177,0.023 -21.51387,0.0127 m 33.11762,-1.6505 c -8.00103,-0.24736 -15.53824,0.026 -23.27929,0.0878 l -10e-6,0 c -7.74437,0.0618 -15.19454,0.2033 -22.25832,0.6125 l -10e-6,0 c -3.2921,0.19071 -6.99479,0.17632 -10.89255,0.082 m 19.4378,0.81188 c -7.58311,0.0936 -15.44978,0.0389 -23.02358,0.10613 l -10e-6,0 c -7.57705,0.0672 -15.89513,-0.40122 -24.35207,-1.20625 l -10e-6,0 c -5.96312,-0.56763 -11.12531,-0.19123 -16.2036,0.28566 m 26.40962,0.65041 c -7.98828,0.0976 -15.20678,-0.17311 -22.29181,-0.52513 l -10e-6,0 c -7.08807,-0.35217 -15.97644,-0.0616 -24.58957,-0.175 l -10e-6,0 c -7.19364,-0.0947 -13.04035,0.13053 -18.99617,0.48371 m 30.96643,0.29128 c -7.84096,-0.0104 -15.54505,0.003 -23.31074,1e-5 l -10e-6,0 c -7.76901,-0.003 -15.66918,-0.2034 -23.66457,-0.61875 l -10e-6,0 c -7.52097,-0.39071 -14.7286,-0.0627 -22.17182,-0.0434 m 33.46775,-0.40508 c -8.00724,-0.0623 -15.5051,0.0351 -23.19804,0.0938 l 0,0 c -7.69623,0.0588 -15.74336,0.37761 -23.89583,1.125 l 0,0 c -6.86621,0.62948 -13.04594,0.0794 -19.21384,-0.31563 m 29.75072,-0.49375 c -7.75984,-0.002 -15.48007,0.0651 -23.11711,0.20626 l 0,0 c -7.64031,0.14124 -15.76584,-0.0891 -23.97083,-0.2625 l 0,0 c -8.06428,-0.17047 -15.01393,-0.007 -22.07011,0.006 m 34.47643,-0.54015 c -7.77692,-0.0437 -16.01985,-0.0548 -24.73583,-0.1687 l 0,0 c -8.71971,-0.11389 -15.08712,0.2999 -21.93958,0.90625 l 0,0 c -4.73542,0.41903 -10.46595,0.11887 -16.27362,-0.3027 m 25.6427,-0.46005 c -7.87845,-0.19331 -15.62578,0.0302 -23.56695,0.0877 l 0,0 c -7.94458,0.0576 -15.41659,0.32538 -22.92083,0.96875 -1.04385,0.0895 -2.09669,0.14885 -3.15637,0.1833 m 12.37674,-0.86017 c -7.99685,-0.24082 -15.50606,0.38462 -23.18555,1.15031 l 0,0 c -7.682776,0.76602 -15.713614,-0.18645 -23.808329,-0.5625 l -3e-6,0 c -5.053181,-0.23475 -9.772204,-0.15483 -14.387357,-0.0371 m 24.641677,-0.12234 c -7.757933,-0.0458 -15.689547,-0.0907 -23.748354,-0.26245 l -3e-6,1e-5 c -8.062262,-0.17187 -15.636806,0.0938 -23.564581,0.27499 -1.96676,0.045 -3.909538,0.0812 -5.835112,0.11677 m 15.702448,-0.25146 c -7.909315,-0.24516 -15.250299,0.16154 -22.416909,0.49407 -5.114731,0.23732 -10.808003,0.0525 -16.417736,-0.19035 -2.372939,-0.10272 -4.534973,-1.00759 -6.1932288,-2.44183 -2.2603396,-1.95497 -3.7840853,-4.77358 -3.9423938,-7.87421 -0.052053,-1.0195 -0.1152692,-2.02904 -0.1884773,-3.03101 m 11.6564659,13.72966 c -0.889405,0.007 -1.778828,0.009 -2.667378,0.009 -5.3932975,-0.003 -9.7367656,-4.57741 -9.3628034,-10.29274 0.1098503,-1.67886 0.2387727,-3.36352 0.3918194,-5.05245 l 0,0 C 6.1608614,132.20753 5.2373252,124.55709 4.8656251,116.42272 l -1e-7,0 C 4.5029129,108.48504 4.6291675,101.57416 4.2044772,94.706141 M 4.8095409,128.9341 c 0.1288726,-7.77253 -0.020546,-15.7385 -0.062666,-23.89209 l 0,0 c -0.042138,-8.15709 0.054655,-15.667658 0.16875,-23.658331 l 0,-3e-6 c 0.052773,-3.69599 0.091422,-7.292467 0.1511532,-10.853182 M 4.6076278,90.128858 c -0.1434365,-7.797283 0.00673,-15.514597 0.018935,-23.217054 0.011845,-7.473669 0.069408,-14.794919 0.2172172,-21.771842 0.2388499,0.0176 0.4777869,0.03552 0.7168122,0.05379 3.8660013,0.295421 7.6875941,0.330625 11.5210461,0.316768 m -5.958951,-0.708926 c 7.720732,0.02307 15.94452,0.231003 24.517153,0.69997 8.576307,0.469169 15.523621,0.06967 23.23958,0.21875 l 3e-6,0 c 5.766165,0.111411 11.531329,0.06869 17.216021,0.05681 M 48.87645,45.468461 c 7.950894,-0.224444 15.250864,0.08657 22.441856,0.262789 7.194074,0.176297 15.662252,-0.0468 23.64583,-0.15 l 4e-6,0 c 6.55557,-0.08474 12.97762,-0.135265 19.60965,-0.320515 M 83.692216,44.432877 c 7.880459,0.0499 15.540412,0.01228 23.298194,0.04369 l 1e-5,10e-7 c 7.76111,0.03142 15.93404,0.06962 24.47708,0.20625 5.60335,0.08961 10.43416,0.02014 15.13726,-0.09569 m -25.38705,0.08929 c 7.52938,-0.116481 15.82515,-0.07465 24.14865,-0.231101 l 0,10e-7 c 8.32707,-0.156518 15.42434,0.422616 22.93958,1.274999 5.80112,0.657966 11.97728,0.204032 18.16596,-0.187301 m -28.23858,-0.562372 c 7.65571,0.253592 15.26482,-0.03532 22.48599,-0.106576 l 0,-1e-6 c 7.22427,-0.07129 15.90059,-0.179492 24.35833,-0.524999 l 0,-1e-6 c 1.23595,-0.05049 2.43391,-0.08118 3.60029,-0.09528 m -14.36492,1.434177 c 7.55414,-0.133309 15.61493,-0.304649 23.52987,-0.912329 l 0,0 c 7.91833,-0.60794 15.54348,0.06845 23.28958,0.2 7.39541,0.125595 14.77364,0.0066 22.05989,-0.01075 m -33.6402,0.09526 c 7.8101,0.10188 15.92112,0.01807 24.44204,0.04987 l 0,0 c 8.52457,0.03181 15.26451,-0.02871 22.47083,-0.09375 6.32269,-0.05707 13.73199,-0.03698 21.07446,-0.07857 m -31.20041,-0.07611 c 7.73264,0.0061 15.27838,-0.199882 22.49839,-0.593758 l 0,10e-7 c 7.2231,-0.394045 15.41004,0.02441 22.89583,0.0875 l 0,0 c 1.46235,0.01232 2.95998,0.03139 4.48629,0.0585 m -13.20426,0.611685 c 7.64357,-0.101646 15.65526,0.255496 23.636,0.768881 l 10e-6,0 c 7.98417,0.513605 15.48689,-0.251231 23.11458,-0.74375 5.08343,-0.328236 10.19351,-0.109802 15.19379,0.216133 m -24.85419,0.313795 c 7.55401,0.186827 15.4621,-0.317914 23.06112,-0.962741 l 0,10e-7 c 7.60227,-0.645103 15.55325,0.168119 23.32708,0.506249 l 0,1e-6 c 6.46533,0.281215 12.82291,0.09559 19.07154,0.03156 m -29.83139,0.108939 c 7.88489,-0.0999 15.85042,-0.128167 24.24195,-0.381121 l 0,-10e-7 c 8.39512,-0.253063 15.23015,-0.07633 22.36458,-0.237499 l 0,0 c 1.89535,-0.04282 3.89728,-0.0483 5.96958,-0.02543 m -15.42942,0.483033 c 7.7456,-0.160077 15.85087,-0.0042 24.23587,-0.006 l 10e-6,0 c 8.38859,-0.0018 15.40698,-0.02831 22.90207,-0.0875 l 10e-6,0 c 2.22832,-0.0176 4.51962,-0.02571 6.85184,-0.02895 m -15.89718,-0.236464 c 7.8116,0.162218 15.23896,0.07749 22.39828,0.224791 3.48077,0.07162 7.27328,0.145583 11.16577,0.273182 4.38161,0.143633 8.22318,2.962848 9.76423,7.005607 0.46599,1.222475 0.72882,2.512547 0.74819,3.831213 8.9e-4,0.06085 0.002,0.121627 0.003,0.18234 m -8.19186,-10.833975 c 4.43281,1.00576 7.7841,4.935863 7.98899,9.637538 0.14262,3.272772 0.33855,6.532335 0.58808,9.7667 0.58672,7.604997 -0.26824,15.38018 -0.79375,22.795831 l 0,2e-6 c -0.34653,4.889977 -0.21838,10.239133 -0.0667,15.739117 m -0.10074,-23.935982 c -0.1973,7.978102 0.23049,15.464916 0.694,23.066822 l 0,0 c 0.46371,7.60516 0.13252,15.12283 0.39375,22.04583 l 0,0 c 0.22218,5.88788 -0.0596,13.10541 -0.35692,20.07207 -0.0386,0.90553 -0.1838,1.77944 -0.42241,2.60718 m 0.58417,-33.46912 c 0.11645,7.93645 0.0438,15.36969 0.13735,22.79813 0.0315,2.5038 0.0256,5.08446 -0.007,7.70234 -0.0682,5.45255 -4.55144,10.00263 -10.17843,10.11224 0,0 0,0 0,0 -0.0847,0.002 -0.16957,0.002 -0.2546,0.002 -5.8467,-0.0127 -11.30423,0.25144 -16.70044,0.7572 m 24.69955,-4.80086 c -1.82605,2.97435 -5.01311,4.91465 -8.63347,4.88173 -4.30339,-0.0391 -8.55667,-0.12605 -12.8591,-0.17641 l -1e-5,0 c -7.7098,-0.0902 -15.66823,-0.11161 -23.66457,-0.33125 l -1e-5,0 c -7.94354,-0.21819 -15.40508,-0.10644 -23.02512,-0.30843 m 34.91202,1.35091 c -7.59769,0.22638 -15.49204,-0.25414 -23.14231,-0.76279 l 0,0 c -7.65355,-0.50887 -15.50699,0.0362 -23.19583,0.11875 l 0,0 c -6.25949,0.0672 -12.51968,0.15592 -18.63955,0.3936 m 29.7208,-0.81064 c -7.51456,0.11229 -15.50923,0.0361 -23.19242,0.1186 -7.68648,0.0825 -15.69972,0.17094 -23.76458,0.51875 l -1e-5,0 c -6.45219,0.27826 -12.71875,-0.12848 -19.23946,-0.68973 m 30.10089,0.98844 c -7.81201,0.20747 -15.71154,-0.48472 -23.81704,-1.45027 l 0,0 c -8.10898,-0.96597 -15.64502,0.15457 -23.59583,0.45625 l 0,0 c -4.34841,0.16499 -8.63274,0.1988 -12.93659,0.2504 m 22.9394,0.63364 c -7.9511,-0.2599 -15.48542,-0.048 -23.14186,-0.14342 l 0,0 c -7.65972,-0.0954 -15.78363,-0.0292 -24.02083,-0.0812 -4.41816,-0.0279 -8.53258,-0.0413 -12.55761,-0.0645 m 21.05101,0.75063 c -7.54544,0.12889 -15.16367,-0.001 -22.15488,-0.006 l 0,0 c -6.99421,-0.005 -15.77192,-0.2606 -23.98333,-0.78125 l 0,0 c -2.90318,-0.18407 -5.71764,-0.22427 -8.50042,-0.19007 m 18.58302,0.69485 c -7.99716,0.0665 -15.8667,-0.0113 -24.27305,-0.0438 l 0,0 c -8.40995,-0.0325 -15.16246,-0.14465 -22.14583,-0.425 l 0,0 c -6.49535,-0.26076 -14.61886,-0.0267 -22.45417,0.0183 m 33.37573,0.15499 c -7.74348,-0.0769 -15.80101,0.0374 -24.07962,0.1251 -8.28217,0.0877 -15.46171,-0.36685 -23.04583,-1.1 l -1e-5,0 c -3.26798,-0.31591 -6.55807,-0.32726 -9.82417,-0.21078 m 19.60974,0.23564 c -7.79938,-0.10584 -15.54241,0.21492 -23.2983,0.63139 l 0,0 c -7.75922,0.41664 -15.9194,-0.20348 -24.42083,-0.6125 l 0,0 c -3.84257,-0.18488 -7.33321,-0.19576 -10.67132,-0.14718 m 20.37094,0.48279 c -8.01972,-0.25342 -15.51517,0.24102 -23.22302,0.71907 l 0,0 c -7.71115,0.47827 -15.25648,-0.26504 -22.42708,-0.79999 l 0,-10e-6 c -2.63603,-0.19665 -5.43951,-0.22448 -8.31938,-0.16262 m 16.37913,0.73311 c -7.96773,0.13279 -15.49145,-0.29952 -23.14808,-0.88767 l -1e-5,0 c -7.659908,-0.58841 -15.287107,0.24328 -22.539574,0.73125 l -3e-6,0 c -4.960851,0.33378 -10.55886,0.0934 -16.286944,-0.24945 m 26.653492,-0.16755 c -7.724559,0.14985 -15.558115,0.20019 -23.360898,0.61231 l -3e-6,0 c -7.806126,0.41229 -15.752687,-0.26951 -23.91458,-0.8125 -5.209894,-0.3466 -10.176004,-0.25918 -15.198751,-0.15984 m 23.926218,1.26173 c -7.903015,0.25321 -15.175497,-0.47943 -22.198167,-1.42533 -4.941642,-0.6656 -10.635921,-0.34833 -16.299401,-0.0386 -2.517092,0.13767 -4.812429,-0.5978 -6.5533254,-1.97801 C 6.7123648,150.3935 5.2600243,147.66278 5.1496303,144.58343 5.0182968,140.91999 4.8112953,137.24878 4.5171664,133.6282 M 19.06229,155.39396 c -1.270327,0.0262 -2.53811,0.0379 -3.805489,0.037 -5.6575937,-0.004 -10.1872142,-4.68915 -10.4507995,-10.52267 -0.061669,-1.36481 -0.1326584,-2.73374 -0.2153765,-4.10445 -0.4977822,-8.24868 -0.011296,-15.16355 -0.025,-22.16458 l 0,0 c -0.00398,-2.0322 -0.011778,-4.23792 -0.02411,-6.5605 M 4.879428,126.44133 C 4.6779168,118.71504 5.04253,111.28287 5.3671875,104.28669 l 0,0 C 5.6919841,97.287507 5.3204501,88.615819 5.2234375,80.609608 l 0,-3e-6 c -0.018951,-1.564017 -0.022749,-3.11806 -0.013677,-4.667245 m 0.066465,13.816357 C 5.0142857,82.032286 5.2745748,74.442521 5.2703125,67.135322 5.2663273,60.303129 5.1927101,52.754827 5.0408484,45.644269 c 0.4980842,0.01109 0.9957853,0.02433 1.4931001,0.04011 5.6821415,0.180253 11.7177985,0.0086 17.8925465,-0.213191 m -13.821087,0.05681 c 7.649671,-0.09984 15.501049,-0.065 23.192244,-0.199872 7.694492,-0.134929 15.769482,0.162291 23.977081,0.49375 l 2e-6,0 c 1.487939,0.06009 2.955482,0.08331 4.410358,0.07564 M 47.540268,44.332762 c 7.870215,-0.03922 15.716075,0.32336 23.82946,0.968801 8.116862,0.645717 15.585383,-0.267198 23.41458,-0.8125 l 3e-6,0 c 2.410222,-0.167872 4.833522,-0.194597 7.274109,-0.127974 m -16.559211,0.32639 c 7.799554,-0.01653 15.739721,0.119217 23.892051,0.362521 8.15582,0.243408 15.09091,-0.184867 21.92708,-0.55 l 0,0 c 1.04705,-0.05593 2.13934,-0.09081 3.26674,-0.108628 m -12.60958,1.46666 c 7.93645,0.170414 15.37115,-0.06274 22.79188,-0.187719 l 0,-10e-7 c 7.42391,-0.125037 15.97448,-0.389411 24.57708,-1.1625 3.28343,-0.295071 6.33119,-0.295599 9.28041,-0.131005 m -18.41213,1.016922 c 7.8823,-0.01674 15.26629,-0.128716 22.47319,-0.393729 7.20999,-0.265126 15.38581,-0.03507 22.81458,-0.09375 l 0,0 c 2.31307,-0.01827 4.73445,-0.0068 7.23268,0.02918 m -15.76978,-0.271356 c 7.88475,0.0083 15.69519,-0.02423 23.76069,-0.06876 8.06896,-0.04455 15.55152,0.172734 23.32708,0.51875 l 1e-5,1e-6 c 7.20484,0.320618 14.0329,0.247272 20.47774,0.606165 m -31.73446,-0.227974 c 7.86805,0.05197 15.62197,-0.0073 23.53571,-0.01882 l 0,-1e-6 c 7.91714,-0.01154 15.54745,-0.173874 23.32083,-0.51875 4.00541,-0.177704 7.93396,-0.211203 11.78228,-0.241721 m -22.34756,0.251377 c 7.60833,0.218144 15.77338,-0.161579 24.0048,-0.487781 l 0,10e-7 c 8.23495,-0.326342 15.35136,0.07146 22.72708,0.199999 l 0,1e-6 c 1.44085,0.02511 2.92003,0.0512 4.42849,0.08115 m -13.57124,0.664364 c 7.81169,0.155952 15.34604,0.04234 22.71704,0.124799 l 0,0 c 7.37415,0.0825 15.43748,-0.171437 22.97083,-0.525 l 0,0 c 3.43149,-0.16105 6.96882,-0.130718 10.54258,-0.0083 m -18.49804,0.22231 c 7.80532,-0.01026 15.18865,0.152521 22.24205,0.456264 l 0,-1e-6 c 7.05642,0.303873 15.78125,-0.482515 24.02083,-1.449999 l 0,-10e-7 c 6.01263,-0.705997 11.4,-0.281539 16.69628,0.145013 m -26.10515,1.022159 c 7.85752,-0.01263 15.44832,-0.178558 23.01073,-0.531234 l 0,0 c 7.56565,-0.352828 15.18246,-0.215562 22.20208,-0.65625 l 0,0 c 5.61597,-0.352567 12.41492,-0.101343 19.22792,0.07751 m -29.1662,1.053977 c 7.58325,0.184914 15.6169,-0.12356 23.52983,-0.356488 l 0,0 c 7.91632,-0.233027 15.41649,0.197888 22.90208,0.58125 l 1e-5,0 c 1.01493,0.05198 2.04016,0.08503 3.07349,0.102021 m -12.18397,-1.025571 c 8.00735,-0.08719 15.6243,0.141091 23.53554,0.437613 2.68794,0.100747 5.31118,0.119023 7.88529,0.09004 5.2839,-0.0595 9.40556,4.005895 9.15947,9.24487 -0.005,0.09946 -0.0106,0.199406 -0.0179,0.29981 -0.0651,0.898071 -0.10937,1.803692 -0.13561,2.715673 m -3.55718,-10.659594 c 2.75044,1.720658 4.55143,4.856736 4.43547,8.467629 -0.14299,4.452674 -0.35753,8.951673 -0.71543,13.44091 -0.6315,7.920915 0.24383,15.127695 0.74374,22.058332 l 0,2e-6 c 0.0924,1.280806 0.15239,2.62876 0.18955,4.027841 M 495.0641,81.370603 c 0.027,7.863924 -0.0768,15.651238 -0.24379,23.629467 l 0,0 c -0.16701,7.98165 0.1646,15.66007 0.48125,23.63333 l 0,0 c 0.13756,3.4637 0.10171,6.88582 -0.0301,10.31345 m 0.0925,-20.17248 c -0.13743,7.70576 -0.25594,15.45361 -0.76858,23.02967 -0.0531,0.78538 -0.0921,1.57645 -0.11867,2.37254 -0.18295,5.48771 -4.26844,10.0729 -9.40597,10.26659 -1.59603,0.0602 -3.18558,0.12398 -4.78554,0.18495 -7.05934,0.26902 -15.27569,0.1618 -22.96269,0.4472 m 33.63333,-2.4905 c -1.65196,1.239 -3.6994,1.97522 -5.92743,2.00004 -5.69676,0.0635 -11.44075,0.13176 -17.22272,0.33076 l 0,1e-5 c -7.93647,0.27316 -15.33419,0.26116 -22.65833,0.78124 l 0,0 c -1.89426,0.13451 -3.86293,0.17085 -5.88265,0.13581 m 14.58342,-1.39856 c -7.58501,-0.19946 -15.2453,0.13163 -22.41108,0.40025 l 0,1e-5 c -7.16885,0.26874 -15.4766,0.26941 -23.09583,0.79374 l 0,0 c -0.81876,0.0564 -1.64622,0.0982 -2.48176,0.1276 m 11.7691,-0.3336 c -7.86613,0.18702 -15.79902,-0.0875 -24.06072,-0.2565 l 0,0 c -8.26524,-0.16906 -15.33207,-0.19083 -22.67708,-0.56249 l 0,-1e-5 c -1.22828,-0.0622 -2.48228,-0.0985 -3.75599,-0.11427 m 12.94149,1.26741 c -7.53506,0.006 -15.18164,-0.3147 -22.21739,-0.95001 -7.03876,-0.63558 -15.68498,0.22201 -23.72083,0.675 l 0,0 c -3.37788,0.19041 -6.68704,0.19788 -9.98449,0.12385 m 19.33835,-0.88941 c -7.90338,0.0539 -15.60099,-0.17177 -23.48567,-0.52507 -7.88805,-0.35344 -15.52996,-0.0206 -23.27083,-0.0562 l 0,-1e-5 c -1.94761,-0.009 -3.9268,0.007 -5.93571,0.0446 m 15.36533,0.34889 c -7.60203,-0.22444 -15.69841,0.096 -23.77981,0.30029 l 0,-10e-6 c -8.08485,0.20437 -15.80439,-0.11604 -24.08958,-0.34999 l 0,0 c -1.21073,-0.0342 -2.3975,-0.0591 -3.56501,-0.0769 m 14.19041,-0.0417 c -7.68092,0.13714 -15.58295,-0.078 -23.4172,-0.23767 l 0,0 c -7.8376,-0.15973 -15.422,0.14109 -22.94583,0.41874 l 0,0 c -1.7872,0.066 -3.59812,0.10218 -5.42263,0.12003 m 15.14457,1.17344 c -7.72051,-0.21854 -15.68203,-0.30401 -23.71715,-0.90597 l -1e-5,1e-5 c -8.03857,-0.60222 -15.70501,0.0733 -23.79583,0.23124 l 0,0 c -1.60899,0.0314 -3.19234,0.056 -4.75737,0.0774 m 14.75942,0.46781 c -7.95731,-0.073 -15.46052,-0.30444 -23.05435,-0.9249 l 0,0 c -7.59708,-0.62073 -15.92388,-0.008 -24.43333,-0.0187 l 0,0 c -5.79073,-0.007 -10.8083,0.092 -15.74837,0.28931 m 26.98785,-0.38318 c -7.85168,-0.0896 -15.91596,-0.18303 -24.42949,-0.53738 l 0,0 c -8.51717,-0.35451 -15.41782,0.0979 -22.92708,0.29375 l 0,0 c -0.91254,0.0238 -1.83249,0.0422 -2.75841,0.0562 m 11.97005,0.94692 c -7.97192,0.0125 -15.52565,-1.3e-4 -23.241828,-0.006 l -2e-6,0 c -7.719488,-0.006 -15.530235,0.15318 -23.245828,0.4625 l -3e-6,0 c -4.789387,0.19201 -9.583921,0.14662 -14.336417,0.0855 m 24.235323,-1.32611 c -7.74328,-0.0209 -15.570393,-0.0849 -23.379623,-0.26247 l -2e-6,0 c -7.812577,-0.17766 -15.53086,0.21107 -23.252079,0.61875 l -3e-6,0 c -2.431271,0.12837 -4.855935,0.16262 -7.26836,0.14079 m 16.575273,-0.21283 c -7.612068,-0.1249 -15.287508,-0.20019 -22.529792,-0.60609 -2.613082,-0.14645 -5.4008,-0.14732 -8.288709,-0.0602 -5.440058,0.16417 -10.1558956,-3.4563 -10.9391558,-8.22838 -0.039873,-0.24293 -0.068206,-0.4901 -0.084623,-0.74105 C 4.296534,140.34637 4.577545,134.84825 4.9246843,129.3736 m 5.9347317,23.88611 c -3.17109,-1.62443 -5.3558082,-4.8352 -5.5119385,-8.48403 -0.1708662,-3.9932 -0.4310757,-7.89106 -0.8162275,-11.63028 -0.7157343,-6.94865 0.056431,-15.63692 0.175,-23.56458 l 0,0 c 0.024413,-1.63228 0.035124,-3.25287 0.035365,-4.86578 m 0.512955,14.75802 C 5.1629075,111.85028 5.0306219,103.81774 4.5859375,95.837031 4.1410624,87.852899 4.9331245,80.080993 5.6359375,71.909948 6.2599853,64.654643 5.8033856,57.991923 5.7387276,51.094819 M 4.4434316,82.873367 C 4.1962031,74.882641 4.6273525,67.23254 4.99375,59.262813 5.2225242,54.286609 5.2347771,49.561455 5.3007659,44.943636 c 2.963249,0.142405 5.9459891,0.32374 9.0072551,0.512614 3.16576,0.195321 6.188786,0.182904 9.133139,0.05149 M 495,90.870948 v 8.042969 M 86.04414,155 h -7.175781"
       sodipodi:nodetypes="cssssssc"
       inkscape:original-d="m 5,45 h 480 c 5.54,0 10,4.46 10,10 v 90 c 0,5.54 -4.46,10 -10,10 H 15 C 9.46,155 5,150.54 5,145 Z" />
    <path
       id="rect2"
       style="fill:none;stroke:#000000;stroke-linecap:round;stroke-linejoin:round"
       d="M 4.6543717,44.093629 C 4.4090502,36.302444 4.6375466,28.416999 4.5921875,20.395317 4.5619885,15.054668 4.5998642,9.8883782 4.665291,4.6804677 7.2999124,4.6644496 9.9414948,4.6379158 12.584892,4.5734375 20.157224,4.3887315 27.595648,4.75574 35.225816,5.163666 M 5.2389687,9.4690579 C 5.2279112,8.2683372 5.2149105,7.0638844 5.1991536,5.854156 11.707099,5.6781676 18.128671,5.3368473 24.321273,4.559375 l 2e-6,0 c 7.301934,-0.9167473 15.653789,-0.047674 23.614581,-0.14375 1.667093,-0.02012 3.319079,-0.024329 4.961038,-0.015156 M 38.734049,5.2046472 C 46.666656,5.1732949 54.479724,5.007002 62.644679,4.6046875 l 3e-6,1e-7 C 70.813137,4.2022007 77.851478,4.8401642 84.921762,5.3109375 91.845939,5.7719823 100.48726,5.0576874 108.85103,4.4903907 M 73.259084,4.6064346 C 81.03163,4.7498374 89.018211,4.5602417 97.21367,4.48125 c 8.19897,-0.079026 15.64216,-0.060075 23.58958,-0.1875 l 0,0 c 3.70393,-0.059387 7.31203,-0.026273 10.87514,0.061854 m -20.83755,1.124236 c 7.59801,0.1185197 15.86043,0.027919 24.26731,0.093597 l 0,0 c 8.4105,0.065706 15.17205,-0.211133 22.18334,-0.63125 4.32754,-0.2593069 9.25882,-0.1276256 14.25483,0.1011601 M 147.3728,4.9371949 c 7.70208,-0.2370325 16.01534,-0.047696 24.72343,-0.1559449 5.08498,-0.063211 9.4989,0.044756 13.8012,0.2577935 2.1202,2.4415432 4.18361,4.9365371 6.39323,7.4609945 3.49991,3.998594 7.0276,7.387948 10.41738,10.655041 M 184.84338,4.9799016 c 0.0147,3.146e-4 0.0295,6.278e-4 0.0442,9.397e-4 5.49947,5.6514797 11.00823,10.9248637 16.55454,16.3097277 l 0,2e-6 c 5.55921,5.397385 11.07431,11.022222 16.72416,16.561656 0.58727,0.575792 1.17013,1.151149 1.7491,1.726199 M 211.0505,30.50369 c 3.8303,3.866702 7.56258,7.66229 11.18507,11.422987 M 5.232668,40.351714 C 5.1204584,32.772604 5.2906094,24.709155 5.4078125,16.734379 5.4641334,12.902173 5.4378821,9.1299415 5.3668107,5.3501011 9.3317588,5.3026049 13.244246,5.2462026 17.152079,5.0953125 20.418824,4.9691762 23.736545,4.9844968 27.042281,5.0698358 M 7.9590064,4.2359482 c 7.9657596,0.00829 15.6178306,-0.032932 23.5418366,-0.087511 l 2e-6,0 c 7.927404,-0.054602 15.443777,0.1108312 22.989582,0.325 6.753192,0.1916725 13.914114,0.06766 20.989953,0.095619 M 43.301057,4.4403895 C 51.333422,4.2575317 59.01357,4.5374018 67.111558,4.740625 l 4e-6,0 c 8.101458,0.2033103 15.487108,0.037408 23.13333,0.1125 6.977467,0.068524 14.402238,0.078446 21.976588,0.2042346 m -33.054235,0.016271 c 7.915871,0.149631 15.622559,-0.055969 23.554405,-0.1814427 l 0,0 c 7.93524,-0.1255272 15.44645,0.1399639 23.00208,0.41875 0.83849,0.030938 1.68128,0.054069 2.52748,0.070532 M 115.34162,4.3955669 c 7.6875,0.1977346 15.97436,0.2821677 24.6047,0.8372456 l 0,0 c 8.63404,0.5553157 15.34557,-0.1632996 22.70833,-0.4999999 l 0,-1e-7 c 5.96814,-0.2729241 12.40117,-0.2009644 18.64196,-0.3178306 M 152.06153,5.195053 c 7.9865,-0.2015027 15.55187,0.1729785 23.33556,0.5127595 3.15941,0.1379175 6.3701,0.1696187 9.63334,0.1637921 3.4259,3.2597995 6.96453,6.4390874 10.61988,9.7537084 4.42364,4.011297 8.15296,7.832316 11.91042,11.554188 M 187.42046,8.1466595 c 5.69917,5.4204135 11.18547,10.9584335 17.06057,16.3984365 l 0,10e-7 c 5.87762,5.442335 10.77436,10.852701 15.81791,16.067907 0.91434,0.945454 1.8706,1.910878 2.86075,2.89113 M 4.5733681,39.318749 C 4.5195599,31.621154 4.8567547,23.689766 5.4359375,15.751567 5.7033942,12.085842 5.6864394,8.4967942 5.5563284,4.9357992 9.5922328,4.9697551 13.474177,5.0418792 17.473954,5.075 c 2.652596,0.021965 5.4256,0.00426 8.270699,-0.044638 M 8.5198512,4.3298214 C 16.422974,4.4339291 23.821706,4.5213793 31.099269,4.9171875 l 3e-6,0 c 7.280682,0.3959778 15.646539,0.030199 23.60208,0.09375 4.350989,0.034757 8.642319,-0.039073 12.961316,-0.1890285 M 45.737202,5.536157 c 7.637375,0.1705088 15.707652,0.048118 23.78601,0.1372805 l 3e-6,0 c 8.081821,0.0892 15.173742,-0.1003471 22.19583,-0.29375 3.494853,-0.096255 7.369597,-0.076164 11.344205,-0.011094 M 82.112361,5.6267177 c 7.651941,0.1205821 15.724308,0.00861 23.842239,0.024845 l 0,-2e-7 c 8.12142,0.016243 15.58337,-0.4872318 23.40834,-1.4749998 2.46393,-0.3110301 4.90688,-0.380435 7.33352,-0.3010199 m -17.16072,0.8994253 c 7.63732,-0.024952 15.64157,-0.00648 23.59226,-0.018718 7.9541,-0.012245 15.39399,0.3136894 22.85208,0.9437497 l 1e-5,3e-7 c 5.86962,0.4958666 12.40225,0.081483 19.12458,-0.3261799 0.0596,0.047367 0.11914,0.094735 0.17875,0.1421052 M 156.44894,4.3690899 c 7.53734,0.2640039 15.41949,-0.015233 22.93614,-0.05034 1.73404,-0.0081 3.5039,0.00829 5.30002,0.047937 4.24023,4.3637833 8.77293,8.9863909 13.24381,13.8216009 5.20046,5.624238 9.8655,9.64033 14.66506,13.733334 M 190.1921,9.1323306 c 5.54931,5.2417394 10.96056,11.0869624 16.39202,16.7611664 4.48415,4.684554 8.91772,9.139686 13.18584,13.656172 M 113.06008,5 h 7.45703 M 86.64656,5 h 9.507813"
       sodipodi:nodetypes="cccc"
       inkscape:original-d="M 5,45 V 5 h 180 l 40,40" />
  </g>
  <text
     xml:space="preserve"
     style="font-style:normal;font-variant:normal;font-weight:normal;font-stretch:normal;font-size:26.6667px;font-family:Quicksand;-inkscape-font-specification:'Quicksand, Normal';font-variant-ligatures:normal;font-variant-caps:normal;font-variant-numeric:normal;font-variant-east-asian:normal;text-align:center;text-anchor:middle;fill:#000000;stroke:none;stroke-linecap:round;stroke-linejoin:round"
     x="76.320099"
     y="34.733345"
     id="text2"><tspan
       sodipodi:role="line"
       id="tspan2"
       x="76.320099"
       y="34.733345">Backend</tspan></text>
</svg>
