<?xml version="1.0" encoding="UTF-8" standalone="no"?>
<svg
   height="200"
   width="200"
   version="1.1"
   id="svg1"
   sodipodi:docname="player.svg"
   inkscape:version="1.3.2 (091e20ef0f, 2023-11-25, custom)"
   xmlns:inkscape="http://www.inkscape.org/namespaces/inkscape"
   xmlns:sodipodi="http://sodipodi.sourceforge.net/DTD/sodipodi-0.dtd"
   xmlns="http://www.w3.org/2000/svg"
   xmlns:svg="http://www.w3.org/2000/svg">
  <defs
     id="defs1">
    <inkscape:path-effect
       effect="sketch"
       id="path-effect3"
       is_visible="true"
       lpeversion="1"
       nbiter_approxstrokes="3"
       parallel_offset="2;1"
       strokelength="70"
       strokelength_rdm="0.3;1"
       strokeoverlap="0.5"
       strokeoverlap_rdm="0.5;1"
       ends_tolerance="0.1;1"
       tremble_size="0.8;1"
       tremble_frequency="3"
       nbtangents="2"
       tgt_places_rdmness="0.5;1"
       tgtlength="5"
       tgtlength_rdm="0.3;1"
       tgtscale="10" />
    <inkscape:path-effect
       effect="sketch"
       id="path-effect2"
       is_visible="true"
       lpeversion="1"
       nbiter_approxstrokes="3"
       parallel_offset="2;1"
       strokelength="70"
       strokelength_rdm="0.3;1"
       strokeoverlap="0.5"
       strokeoverlap_rdm="0.5;1"
       ends_tolerance="0.1;1"
       tremble_size="0.8;1"
       tremble_frequency="3"
       nbtangents="2"
       tgt_places_rdmness="0.5;1"
       tgtlength="5"
       tgtlength_rdm="0.3;1"
       tgtscale="10" />
    <inkscape:path-effect
       effect="sketch"
       id="path-effect6"
       is_visible="true"
       lpeversion="1"
       nbiter_approxstrokes="3"
       parallel_offset="0.2;1"
       strokelength="70"
       strokelength_rdm="0.3;1"
       strokeoverlap="0.5"
       strokeoverlap_rdm="0.5;1"
       ends_tolerance="0.1;1"
       tremble_size="0.8;1"
       tremble_frequency="3"
       nbtangents="2"
       tgt_places_rdmness="0.5;1"
       tgtlength="5"
       tgtlength_rdm="0.3;1"
       tgtscale="10" />
    <inkscape:path-effect
       effect="sketch"
       id="path-effect5"
       is_visible="true"
       lpeversion="1"
       nbiter_approxstrokes="3"
       parallel_offset="0.2;1"
       strokelength="70"
       strokelength_rdm="0.3;1"
       strokeoverlap="0.5"
       strokeoverlap_rdm="0.5;1"
       ends_tolerance="0.1;1"
       tremble_size="0.8;1"
       tremble_frequency="3"
       nbtangents="2"
       tgt_places_rdmness="0.5;1"
       tgtlength="5"
       tgtlength_rdm="0.3;1"
       tgtscale="10" />
    <inkscape:path-effect
       effect="sketch"
       id="path-effect1"
       is_visible="true"
       lpeversion="1"
       nbiter_approxstrokes="3"
       parallel_offset="0.2;1"
       strokelength="70"
       strokelength_rdm="0.3;1"
       strokeoverlap="0.5"
       strokeoverlap_rdm="0.5;1"
       ends_tolerance="0.1;1"
       tremble_size="0.8;1"
       tremble_frequency="3"
       nbtangents="2"
       tgt_places_rdmness="0.5;1"
       tgtlength="5"
       tgtlength_rdm="0.3;1"
       tgtscale="10" />
  </defs>
  <sodipodi:namedview
     id="namedview1"
     pagecolor="#ffffff"
     bordercolor="#000000"
     borderopacity="0.25"
     inkscape:showpageshadow="2"
     inkscape:pageopacity="0.0"
     inkscape:pagecheckerboard="0"
     inkscape:deskcolor="#d1d1d1"
     inkscape:zoom="1.357645"
     inkscape:cx="91.334626"
     inkscape:cy="146.57734"
     inkscape:window-width="1440"
     inkscape:window-height="831"
     inkscape:window-x="0"
     inkscape:window-y="0"
     inkscape:window-maximized="1"
     inkscape:current-layer="svg1"
     showgrid="false" />
  <path
     id="path2"
     style="fill:#cccccc;fill-opacity:1;stroke:none;stroke-width:2;stroke-dasharray:none"
     d="m 83.056641,76.667969 c -10.279087,7.534047 -18.061754,20.855983 -23.160157,34.634761 -7.04521,19.14456 -10.222062,40.60672 -9.992187,61.8125 1.753018,7.35347 8.141312,9.94038 13.085937,12.4043 17.712435,7.02471 36.573108,7.65451 54.880856,5.32617 10.34329,-1.86264 21.42853,-3.71566 30.14844,-11.88867 1.17869,-1.26783 2.30952,-2.89806 2.80664,-4.82031 -7.21628,3.94766 -15.28833,5.32834 -22.95508,6.70898 -18.30775,2.32834 -37.168421,1.69854 -54.880856,-5.32617 -4.944625,-2.46392 -11.332919,-5.05083 -13.085937,-12.4043 -0.229875,-21.20578 2.946977,-42.66794 9.992187,-61.8125 3.286129,-8.880983 7.694458,-17.559616 13.160157,-24.634761 z" />
  <path
     d="m 151.88089,169.84133 c 0.0468,-7.92919 -0.8601,-15.53468 -2.09067,-23.24244 -0.88188,-5.52367 -1.91128,-11.02927 -3.28523,-16.49455 -0.56661,-2.25385 -1.1906,-4.49592 -1.8851,-6.7248 -1.00602,-3.22866 -1.98859,-6.2903 -3.02016,-9.25236 m 5.82448,15.17808 c -0.21222,-0.84852 -0.42449,-1.69436 -0.63809,-2.53845 -1.76149,-6.96091 -3.5869,-13.6908 -6.06846,-20.39433 -2.6571,-7.177736 -6.02201,-13.152438 -9.84097,-18.680198 -0.32301,-0.473565 -0.65223,-0.942096 -0.98715,-1.405602 -0.67448,-0.933429 -1.3822,-1.848988 -2.11885,-2.740138 m 5.85465,13.361624 c -1.36131,-2.366734 -2.7257,-4.6431 -4.12145,-6.842707 -2.78509,-4.445536 -5.8902,-8.392268 -9.29214,-11.643053 -1.65087,-1.577516 -3.55972,-2.882812 -5.61689,-3.9064 -5.0576,-2.516525 -11.07071,-3.374246 -16.843676,-2.326398 -1.406835,0.255354 -2.771545,0.568582 -4.10013,0.955177 -0.513009,0.14285 -1.016087,0.29248 -1.51013,0.449269 M 107.91266,72.94781 c -4.42911,-1.22132 -8.827354,-1.387171 -13.084783,-0.203764 -3.00597,0.795344 -5.786718,2.108411 -8.366683,3.837738 -3.866834,2.591901 -7.812965,6.385608 -11.313812,10.874209 -1.569763,2.012668 -3.056587,4.174978 -4.393855,6.430506 -3.370016,5.684105 -6.573564,11.896861 -9.315444,18.455951 M 75.2534,83.526444 c -0.657782,0.781481 -1.307634,1.581454 -1.94807,2.39709 -3.954609,5.036447 -7.643394,10.786989 -10.637212,16.646046 -1.258236,2.46244 -2.3846,5.07597 -3.402546,7.73934 -1.711438,4.50199 -3.173229,9.18688 -4.527538,13.75871 -1.150148,3.88262 -1.989066,8.08782 -2.60323,12.45567 m 6.941079,-20.27815 c -2.116117,7.32419 -4.240607,14.88884 -5.571214,22.49916 -1.314425,7.51777 -2.396252,15.17632 -3.265564,22.50194 0,0 -1e-6,1e-5 -1e-6,1e-5 -0.258042,2.1745 -0.385493,4.41779 -0.423781,6.69121 m 0.400534,-14.49378 c -0.468296,6.8272 -0.724909,14.03219 -0.374957,21.63925 0.274193,1.09593 0.633529,2.10916 1.064187,3.05146 1.181154,2.5844 2.81035,4.35971 4.620893,5.67139 2.478345,1.79548 5.279962,2.70833 7.765831,3.58854 2.321513,0.59874 4.687113,1.04858 7.110003,1.45186 1.853766,0.30855 3.683726,0.69761 5.486208,1.12492 m -13.939736,-5.83094 c 0.63186,0.29646 1.250317,0.58512 1.846554,0.8744 6.702109,2.57182 13.308341,4.42184 19.896446,5.42888 7.303225,1.11636 15.59012,1.20696 23.513774,0.49155 0.17007,-0.0154 2.38082,-0.21234 2.5509,-0.22769 m -13.901602,0.32704 c 7.101212,0.25389 14.046552,-0.56393 20.986452,-2.02925 0.75321,-0.19939 1.51054,-0.40156 2.27237,-0.60896 4.46825,-1.21647 8.97018,-2.02231 13.27162,-3.32246 2.91001,-0.87959 5.74146,-1.99234 8.39314,-3.62538 1.93334,-1.19065 3.84523,-2.59124 5.69794,-4.25351 1.59315,-1.64331 3.14098,-3.90722 3.21874,-6.61759 0.0234,-0.91009 0.0425,-1.8177 0.0557,-2.72127 m -17.23431,18.87506 c 0.20535,-0.0642 0.41061,-0.12981 0.61574,-0.19682 5.18425,-1.6934 10.2781,-4.285 14.99353,-8.54589 1.33256,-1.37071 2.64025,-3.13759 3.2743,-5.23246 0.18369,-0.60688 0.29959,-1.237 0.33165,-1.88793 0.3392,-7.30551 -0.8517,-14.12818 -2.16635,-21.12722 -1.03824,-5.52754 -1.50755,-11.30166 -2.13844,-16.97596 m 2.04594,31.72917 c -0.18895,-7.81472 -0.97954,-15.72951 -2.22263,-23.77246 -0.78258,-5.06339 -1.70647,-9.87611 -2.8499,-14.66599 -0.69904,-2.92829 -1.48011,-5.84776 -2.35955,-8.80389 -1.10736,-3.72223 -2.26887,-7.13837 -3.52102,-10.37449 m 5.66531,20.44774 c -0.0437,-0.18916 -0.0878,-0.37834 -0.13214,-0.56755 -1.7843,-7.60647 -4.12251,-15.29628 -7.0286,-23.03676 -2.58904,-6.895972 -5.59829,-11.785024 -8.98613,-16.17267 -0.66845,-0.877577 -1.36559,-1.727864 -2.08721,-2.557172 -3.30106,-3.79372 -7.33685,-7.872676 -11.72432,-10.872544 m 18.53735,21.472666 c -0.99876,-1.709745 -2.07422,-3.380716 -3.21858,-4.995725 -3.32239,-4.747629 -7.46512,-8.766267 -11.97947,-11.440789 -1.463,-0.866753 -2.94057,-1.707975 -4.44991,-2.486599 -5.53422,-2.854951 -11.28279,-4.727262 -17.126205,-3.816149 -0.688522,0.107355 -1.381663,0.252727 -2.078229,0.436929 -3.059269,0.769603 -6.038149,2.139736 -8.888345,3.970203 M 105.4319,72.820363 C 101.70834,71.958798 97.86199,71.9931 94.053007,73.0535 c -3.728118,0.990072 -7.20284,2.742074 -10.389452,5.029925 -3.524418,2.53038 -6.830739,5.859343 -9.810438,9.71749 -1.902955,2.463968 -3.674981,5.147232 -5.277469,7.971889 -0.792512,1.396937 -1.570982,2.814269 -2.328815,4.242286 m 7.007952,-15.289174 c -1.1e-5,1.4e-5 -0.07273,0.09302 -0.07274,0.09304 -4.600444,5.893754 -8.291532,12.432532 -10.99158,18.972224 -0.647179,1.56751 -1.31186,3.23605 -1.973523,4.95637 -2.028321,5.30232 -4.170462,11.30412 -5.906528,16.93201 -0.841552,2.72809 -1.472501,5.55698 -1.963645,8.46117 m 5.28907,-14.11472 c -2.306473,7.5871 -3.775228,15.02651 -4.632066,22.90848 -0.841579,7.7416 -1.822227,15.25657 -1.928502,22.62213 -0.03634,2.51838 -0.05002,5.1373 -0.02667,7.80291 0.84283,3.5852 2.738463,6.10652 5.046583,8.03741 m -6.30879,-27.63314 c -0.411712,5.98791 -0.820047,12.18551 -1.078414,18.45008 0.341587,1.9475 0.980808,3.58826 1.819025,5.0051 0.812294,1.37303 1.863631,2.481 3.034055,3.39815 2.38742,1.87081 5.271118,2.95417 7.83193,3.97547 3.163746,0.96112 6.40701,1.64392 9.586928,2.15606 7.07655,1.1397 14.080008,2.85618 21.206208,3.439 m -30.140691,-6.63242 c 0.394415,0.18915 0.78147,0.37621 1.159265,0.56325 7.1461,2.82964 14.013521,4.86128 21.175997,6.43116 7.64375,1.67536 15.124889,1.32874 22.082903,1.046 3.08728,-0.12545 6.51388,-0.44703 10.05848,-0.8945 3.88697,-0.68867 8.04907,-1.40577 12.04084,-2.38326 m -30.881188,1.10924 c 6.974018,-0.0378 14.359888,-0.27954 21.531838,-1.10175 0.58359,-0.0975 1.16891,-0.19584 1.75456,-0.29645 4.64596,-0.79809 9.51023,-1.63375 14.35442,-3.0163 2.98715,-0.85253 5.9531,-1.90894 8.87071,-3.29091 2.41277,-1.14284 4.54916,-2.6346 6.41484,-4.5148 0.61965,-0.7189 1.2015,-1.55721 1.64875,-2.50664 m -20.33506,14.71717 c 0.11261,-0.0344 0.22508,-0.0692 0.33739,-0.10443 5.29111,-1.65816 10.21683,-4.16675 14.648,-8.24119 1.30388,-1.37478 2.56091,-3.1699 3.03233,-5.29829 0.10886,-0.49147 0.17148,-1.00341 0.17831,-1.53463 0.072,-7.22569 -0.81166,-14.94923 -2.22507,-22.95408 -1.06414,-6.02675 -1.55877,-11.12269 -2.21913,-15.97523 m 4.41937,30.17478 c -0.44905,-7.65021 -0.54378,-15.7218 -0.98412,-23.74824 -0.28943,-5.27567 -1.56292,-10.23652 -3.23539,-15.09616 -0.90426,-2.62746 -1.93264,-5.24526 -2.98794,-7.85686 -2.59942,-6.43286 -4.22969,-12.30116 -6.45562,-17.70229 m 12.13207,30.82235 c -0.18393,-0.79249 -0.37206,-1.58218 -0.56473,-2.36896 -1.68904,-6.8977 -3.72077,-13.55026 -6.30242,-19.88801 -2.74845,-6.74721 -6.17257,-13.273112 -10.28714,-19.391458 -0.37731,-0.567686 -0.7635,-1.129257 -1.15817,-1.68413 0,0 0,0 0,-10e-7 -4.386,-6.166451 -9.50594,-10.714715 -15.25281,-13.706124 -0.43598,-0.226936 -0.8756,-0.444859 -1.31875,-0.653675 m 22.98049,21.971008 c -1.58815,-2.767736 -3.20454,-5.409039 -4.90848,-7.933865 -2.6464,-3.970543 -5.65746,-7.485811 -9.06065,-10.387141 -2.15573,-1.837843 -4.48396,-3.383148 -6.92853,-4.576487 -4.63888,-2.264504 -9.71941,-3.272767 -14.86435,-2.578621 -1.835554,0.247649 -3.625881,0.605966 -5.376951,1.11496 -4.541005,1.261894 -8.483748,3.212616 -12.018168,6.019934 m 24.553039,-6.527379 c -5.03024,-1.890223 -10.325119,-2.319533 -15.53257,-0.795779 -2.353181,0.658136 -4.60271,1.625664 -6.743611,2.860597 -4.955768,2.858629 -9.692069,6.941342 -13.975141,11.806737 -1.124135,1.276972 -2.220668,2.612347 -3.282802,3.998081 -4.617013,6.023675 -7.342817,13.128573 -9.49204,20.409703 M 76.535189,79.42268 c -1.481685,1.474935 -2.934141,3.072427 -4.361157,4.769286 -3.551606,4.223204 -6.974132,9.098512 -10.241688,14.177693 -2.257829,3.509631 -3.693378,7.273441 -4.705744,11.188331 -0.950752,3.70323 -1.548227,7.53625 -2.134654,11.51418 -0.822593,5.57991 -2.355538,10.46861 -3.758216,15.40615 m 7.026435,-24.50322 c -2.681602,7.05023 -4.672032,14.77169 -6.356531,22.57349 -1.65074,7.64545 -2.328366,15.63966 -2.561381,24.09571 0,0 0,0 0,0 -0.147397,5.34898 0.05325,-1.92523 -0.09414,3.42375 m 1.488497,-13.05184 c -1.127021,7.46575 -1.284997,15.87874 -1.154829,24.42348 -1.52e-4,-0.01 0.02207,1.36854 0.02191,1.35851 0.904952,3.96273 2.897203,6.36477 5.263571,8.10049 2.361105,1.73187 5.103821,2.76815 7.46583,3.82196 0.992209,0.3395 1.987397,0.66294 2.984002,0.97675 4.442374,1.3988 9.258908,2.69103 14.24943,3.66807 m -23.938605,-8.22102 c 1.871434,1.11908 3.824886,2.00759 5.581694,2.87849 5.293548,2.08073 10.602467,3.55969 15.908802,4.48572 7.390434,1.28974 15.366256,2.0703 22.989115,2.07529 1.89183,0.001 3.80679,-0.0489 5.73612,-0.13837 m -12.900329,0.11183 c 7.627859,0.18294 15.867409,0.22223 24.185479,-0.35379 0.55508,-0.0384 1.10471,-0.083 1.6494,-0.13321 5.51269,-0.78205 10.66648,-1.89969 15.79333,-3.86852 1.77107,-0.68013 3.52958,-1.45866 5.29082,-2.35629 3.31523,-1.68962 6.32805,-3.64493 8.92967,-6.1472 0.211,-0.23553 0.41854,-0.48385 0.61815,-0.74452 m -20.74004,9.66214 c 1.23121,-0.31227 2.45638,-0.66344 3.67318,-1.06255 5.30458,-1.73988 10.40048,-4.36929 15.23086,-8.67495 0.66511,-0.67342 1.32903,-1.44278 1.91565,-2.29845 0.96555,-1.40841 1.62991,-3.02797 1.65821,-4.8248 0.0805,-6.2417 -0.82189,-12.32639 -1.6695,-18.7552 -1.0502,-7.96542 -2.03058,-14.79348 -4.05889,-21.44674 M 70.957271,89.331285 66.707929,96.16008 m 32.391732,95.94959 7.173729,-0.17171"
     id="path1"
     style="fill:none;stroke:#000000;stroke-width:1;stroke-dasharray:none"
     inkscape:path-effect="#path-effect3"
     inkscape:original-d="m 151.09057,172.08567 c -0.10403,-29.506 -6.06896,-60.45625 -21.31935,-82.85473 C 121.00472,76.195747 107.36758,67.603615 94.01635,71.295232 78.191697,75.46936 66.673136,92.985808 59.895653,111.30242 c -7.045217,19.14457 -10.221651,40.60631 -9.991776,61.81212 1.75302,7.35347 8.141264,9.94038 13.085894,12.4043 17.712452,7.02472 36.573749,7.65543 54.881519,5.32709 10.3433,-1.86264 21.4274,-3.71523 30.14732,-11.88825 1.57815,-1.69751 3.07373,-4.0429 3.07196,-6.87201 z" />
  <circle
     id="circle3"
     style="fill:#ffffff;stroke:none;stroke-width:2;stroke-dasharray:none"
     cx="100.49139"
     cy="46.730957"
     r="42.684612" />
  <path
     id="circle4"
     style="fill:#cccccc;fill-opacity:1;stroke:none;stroke-width:2;stroke-dasharray:none"
     d="M 75.794922,12.035156 A 42.684612,42.684612 0 0 0 57.806641,46.730469 42.684612,42.684612 0 0 0 100.49219,89.416016 42.684612,42.684612 0 0 0 135.18945,71.425781 42.684612,42.684612 0 0 1 110.49219,79.416016 42.684612,42.684612 0 0 1 67.806641,36.730469 42.684612,42.684612 0 0 1 75.794922,12.035156 Z" />
  <path
     id="circle1"
     style="fill:none;stroke:#000000;stroke-width:1;stroke-dasharray:none"
     d="m 143.7854,53.610402 c -0.59885,7.596281 -3.86876,15.183892 -8.77945,21.383484 0,10e-7 0,2e-6 0,2e-6 -4.91348,6.203105 -11.26647,10.868913 -18.82085,13.437014 -3.10832,1.056667 -6.21983,1.869517 -9.33781,2.368534 m 18.0981,-9.775144 c -6.73276,4.25294 -14.03398,6.598282 -21.74344,6.489694 -0.60021,-0.0085 -1.20157,-0.02371 -1.80365,-0.04642 C 94.267592,87.19856 87.186949,85.882526 81.023903,82.636185 80.005959,82.09999 79.00695,81.510639 78.031491,80.872566 m 10.503197,7.863213 C 80.855069,86.473269 74.557305,82.313687 69.958506,76.31531 c 0,0 -2e-6,-10e-7 -2e-6,-10e-7 C 65.337799,70.288357 60.689859,63.879596 58.496253,56.909214 57.980481,55.2703 57.66849,53.503624 57.537382,51.651621 m 4.637313,14.16721 C 59.563152,60.303972 58.50327,54.263657 58.866244,48.117319 c 0.104436,-1.768449 0.326239,-3.539246 0.659678,-5.302436 0,0 0,-3e-6 0,-3e-6 1.498676,-7.924842 4.076029,-14.977303 9.031974,-20.825886 4.217091,-4.976651 9.283667,-9.131095 14.959497,-11.577444 M 61.211347,29.254447 c 3.334314,-7.052112 8.189685,-13.480927 14.478926,-18.36908 0,0 10e-7,-1e-6 10e-7,-1e-6 6.285733,-4.8854264 13.89015,-7.2081069 21.532628,-8.0073003 0,0 3e-6,-2e-7 3e-6,-2e-7 0.809138,-0.084614 1.62561,-0.1349671 2.447631,-0.1522581 3.374444,-0.07098 6.830184,0.4153118 10.247424,1.3654227 m -20.318658,1.624063 c 3.966735,-1.0615796 7.931634,-1.6309352 11.886818,-1.662691 3.76878,-0.030259 7.49182,0.4280428 11.15912,1.3866708 0,0 0,5e-7 0,5e-7 7.55241,1.9741936 14.13954,5.9372156 19.00273,11.1659696 1.43724,1.545272 2.82418,3.283673 4.10612,5.161688 m -11.93638,-9.657937 c 6.68728,4.422888 11.84766,10.963054 15.52123,19.109331 2.89333,6.416047 4.10571,11.730633 4.14927,17.055401 0.0116,1.420622 -0.0601,2.835078 -0.20294,4.264672 -0.16299,1.63073 -0.4873,3.382742 -0.96124,5.20286 m 1.14745,-4.918567 c -1.1714,7.581085 -4.71912,14.974831 -10.17066,20.941856 -5.45615,5.972072 -11.56214,10.319661 -18.82459,12.510773 0,0 0,1e-6 0,1e-6 -0.77536,0.233928 -1.55951,0.453234 -2.35098,0.656533 m 9.79865,-4.915695 c -6.5382,4.227218 -14.3051,5.993876 -22.1021,5.357279 -0.119224,-0.0097 -0.238492,-0.01963 -0.357804,-0.02969 -7.703555,-0.649616 -15.398855,-1.995911 -22.300902,-5.85401 -5.33978,-2.984825 -9.59967,-6.960121 -12.861091,-11.521687 M 87.466434,86.776064 C 80.028285,84.516828 73.599771,80.002468 69.05318,73.865597 c 0,0 -2e-6,-2e-6 -2e-6,-2e-6 -4.564891,-6.161574 -8.953965,-12.92758 -10.95255,-20.473152 -0.645536,-2.437194 -0.906031,-4.960546 -0.841043,-7.517969 0.08061,-3.172289 0.661543,-6.384241 1.617912,-9.540343 m 1.021,26.524572 c -2.313495,-5.449582 -3.587113,-11.360508 -3.653916,-17.456122 -0.02151,-1.963084 0.08226,-3.936184 0.31351,-5.909681 0,0 0,-2e-6 0,-2e-6 0.953061,-8.133449 4.142919,-15.317284 8.966911,-21.876219 2.236375,-3.040684 4.898645,-5.549666 7.889524,-7.605162 M 60.203382,26.514677 C 63.702474,19.40481 69.026663,13.119254 75.655034,7.9712689 82.26821,2.8350847 90.068745,2.0059544 98.173796,2.8804496 c 0,2e-7 3e-6,3e-7 3e-6,3e-7 -0.03279,-0.00354 0.772961,0.083914 0.740168,0.080376 5.422633,0.5932757 10.578013,1.2733582 15.534393,2.9158114 M 89.694014,6.5467645 c 3.508061,-0.7692444 7.035482,-1.1209303 10.543046,-0.9777727 4.19257,0.1711157 8.31811,1.0479856 12.30299,2.7239483 0,0 0,7e-7 0,7e-7 7.37121,3.1001852 14.28026,6.4798622 19.70326,12.1194382 2.73661,2.845907 4.9072,6.194154 6.52781,9.855106 M 125.38226,13.938428 c 6.42698,4.409645 11.39149,10.754364 14.59484,17.883743 2.34071,5.209495 3.46941,10.944058 3.50338,16.773468 0.0124,2.122427 -0.12035,4.246962 -0.3879,6.353205 -0.20594,1.621179 -0.51725,3.210631 -0.92881,4.765079 m 0.21922,-8.246353 c -1.08557,7.851389 -4.08359,14.698912 -8.64725,20.042154 -4.56551,5.345406 -11.7107,10.544445 -19.54827,12.958549 0,0 0,10e-7 0,10e-7 -2.89526,0.891786 -5.73784,1.579192 -8.5609,2.024848 m 17.83046,-2.710612 c -6.70729,4.375356 -14.11489,6.432381 -21.59223,6.636787 -0.14781,0.004 -0.29588,0.0071 -0.44419,0.0091 -7.349911,0.09994 -15.155499,-2.28052 -21.623113,-6.587795 C 74.848499,80.544673 70.426455,76.731994 66.946709,72.122697 M 87.173838,86.241014 C 79.79377,83.931707 72.752932,79.843885 67.054943,74.411417 c 0,0 -2e-6,-2e-6 -2e-6,-2e-6 -5.68854,-5.42346 -8.619941,-13.440059 -9.884647,-21.944891 -0.412571,-2.77444 -0.62467,-5.402781 -0.620415,-7.941765 0.0077,-4.595904 0.724585,-8.850079 2.199127,-13.085494 m 3.275572,32.000856 C 59.552659,57.802467 58.043012,51.794631 57.9468,45.912032 c -0.0236,-1.443156 0.03811,-2.872595 0.190075,-4.28023 0,0 0,-3e-6 0,-3e-6 0.774849,-7.177339 3.409134,-15.079334 7.376402,-21.113463 3.722335,-5.661593 10.45775,-10.394759 17.596996,-13.279852 M 62.352579,27.835447 c 2.758704,-7.474628 7.919669,-13.476282 14.260096,-18.0362338 0,0 10e-7,-8e-7 10e-7,-8e-7 6.34302,-4.5618166 14.140167,-7.22772 22.648781,-7.4864555 1.328763,-0.040406 2.614453,-0.051847 3.862793,-0.029359 2.45925,0.0443 4.76453,0.2201682 6.95506,0.5621349 M 86.375392,8.0556146 c 4.253179,-1.252465 8.591511,-1.9102581 12.968702,-1.9034113 3.464706,0.00542 6.924266,0.4273145 10.353766,1.2799954 0,0 0,5e-7 0,5e-7 7.80145,1.9396874 14.19687,5.3957048 19.03788,10.1406738 3.40109,3.333616 6.81009,8.322905 9.34482,13.873323 M 122.11029,9.7993519 c 6.4439,4.2333111 12.36112,9.8184241 16.5962,16.4548221 3.61574,5.665895 4.46541,12.46116 3.7156,19.13494 -0.12426,1.105914 -0.29207,2.206219 -0.49744,3.295387 -1.21284,6.432144 -2.54103,12.914245 -5.33161,18.904212 M 61.014415,63.455669 58.58539,55.788258 m 63.09552,-46.284359 5.91707,4.059568"
     inkscape:path-effect="#path-effect2"
     inkscape:original-d="M 143.17601,46.730957 A 42.684612,42.684612 0 0 1 100.4914,89.415569 42.684612,42.684612 0 0 1 57.806789,46.730957 42.684612,42.684612 0 0 1 100.4914,4.0463448 42.684612,42.684612 0 0 1 143.17601,46.730957 Z" />
</svg>
