<?xml version="1.0" encoding="UTF-8" standalone="no"?>
<svg
   height="110"
   width="110"
   version="1.1"
   id="svg1"
   sodipodi:docname="player.svg"
   inkscape:version="1.3.2 (091e20ef0f, 2023-11-25, custom)"
   xmlns:inkscape="http://www.inkscape.org/namespaces/inkscape"
   xmlns:sodipodi="http://sodipodi.sourceforge.net/DTD/sodipodi-0.dtd"
   xmlns="http://www.w3.org/2000/svg"
   xmlns:svg="http://www.w3.org/2000/svg">
  <defs
     id="defs1">
    <inkscape:path-effect
       effect="sketch"
       id="path-effect3"
       is_visible="true"
       lpeversion="1"
       nbiter_approxstrokes="3"
       parallel_offset="2;1"
       strokelength="70"
       strokelength_rdm="0.3;2139095038"
       strokeoverlap="0.5"
       strokeoverlap_rdm="0.5;1"
       ends_tolerance="0.1;1"
       tremble_size="0.8;1"
       tremble_frequency="3"
       nbtangents="2"
       tgt_places_rdmness="0.5;1"
       tgtlength="5"
       tgtlength_rdm="0.3;1"
       tgtscale="10" />
    <inkscape:path-effect
       effect="sketch"
       id="path-effect2"
       is_visible="true"
       lpeversion="1"
       nbiter_approxstrokes="3"
       parallel_offset="2;1"
       strokelength="70"
       strokelength_rdm="0.3;2139095038"
       strokeoverlap="0.5"
       strokeoverlap_rdm="0.5;1"
       ends_tolerance="0.1;1"
       tremble_size="0.8;1"
       tremble_frequency="3"
       nbtangents="2"
       tgt_places_rdmness="0.5;43101377"
       tgtlength="5"
       tgtlength_rdm="0.3;500922089"
       tgtscale="10" />
    <inkscape:path-effect
       effect="sketch"
       id="path-effect6"
       is_visible="true"
       lpeversion="1"
       nbiter_approxstrokes="3"
       parallel_offset="0.2;1"
       strokelength="70"
       strokelength_rdm="0.3;1"
       strokeoverlap="0.5"
       strokeoverlap_rdm="0.5;1"
       ends_tolerance="0.1;1"
       tremble_size="0.8;1"
       tremble_frequency="3"
       nbtangents="2"
       tgt_places_rdmness="0.5;1"
       tgtlength="5"
       tgtlength_rdm="0.3;1"
       tgtscale="10" />
    <inkscape:path-effect
       effect="sketch"
       id="path-effect5"
       is_visible="true"
       lpeversion="1"
       nbiter_approxstrokes="3"
       parallel_offset="0.2;1"
       strokelength="70"
       strokelength_rdm="0.3;1"
       strokeoverlap="0.5"
       strokeoverlap_rdm="0.5;1"
       ends_tolerance="0.1;1"
       tremble_size="0.8;1"
       tremble_frequency="3"
       nbtangents="2"
       tgt_places_rdmness="0.5;1"
       tgtlength="5"
       tgtlength_rdm="0.3;1"
       tgtscale="10" />
    <inkscape:path-effect
       effect="sketch"
       id="path-effect1"
       is_visible="true"
       lpeversion="1"
       nbiter_approxstrokes="3"
       parallel_offset="0.2;1"
       strokelength="70"
       strokelength_rdm="0.3;1"
       strokeoverlap="0.5"
       strokeoverlap_rdm="0.5;1"
       ends_tolerance="0.1;1"
       tremble_size="0.8;1"
       tremble_frequency="3"
       nbtangents="2"
       tgt_places_rdmness="0.5;1"
       tgtlength="5"
       tgtlength_rdm="0.3;1"
       tgtscale="10" />
  </defs>
  <sodipodi:namedview
     id="namedview1"
     pagecolor="#ffffff"
     bordercolor="#000000"
     borderopacity="0.25"
     inkscape:showpageshadow="2"
     inkscape:pageopacity="0.0"
     inkscape:pagecheckerboard="0"
     inkscape:deskcolor="#d1d1d1"
     inkscape:zoom="2.8284271"
     inkscape:cx="78.135299"
     inkscape:cy="36.062446"
     inkscape:window-width="1440"
     inkscape:window-height="831"
     inkscape:window-x="0"
     inkscape:window-y="0"
     inkscape:window-maximized="1"
     inkscape:current-layer="svg1"
     showgrid="false" />
  <g
     id="g1"
     transform="matrix(0.77532236,0,0,0.77532236,0.42716546,0.50846021)"
     style="stroke-width:1.2897861;stroke-dasharray:none">
    <path
       id="path2"
       style="fill:#cccccc;fill-opacity:1;stroke:none;stroke-width:1.2897861;stroke-dasharray:none"
       d="m 57.890719,55.500267 c -7.16315,5.250224 -12.586629,14.533833 -16.139534,24.1358 -4.90957,13.3412 -7.123412,28.297463 -6.96322,43.075053 1.22162,5.12439 5.673407,6.92712 9.11915,8.64414 12.3432,4.89528 25.486569,5.33417 38.244623,3.71163 7.207891,-1.29801 14.932823,-2.58932 21.009432,-8.28482 0.82139,-0.8835 1.60943,-2.01956 1.95586,-3.35911 -5.02879,2.75099 -10.653927,3.71314 -15.996628,4.67526 -12.758055,1.62255 -25.901423,1.18366 -38.244623,-3.71162 -3.445743,-1.71703 -7.89753,-3.51976 -9.11915,-8.64414 -0.160192,-14.7776 2.053649,-29.733856 6.963219,-43.075057 2.289993,-6.188858 5.362009,-12.236706 9.170871,-17.167136 z" />
    <path
       d="m 151.88089,169.84133 c 0.0468,-7.92919 -0.86057,-15.53549 -2.09067,-23.24244 -0.88155,-5.52309 -1.91092,-11.0288 -3.285,-16.49428 -0.56666,-2.25394 -1.19073,-4.49611 -1.88533,-6.72507 -2.26844,-7.27945 -4.4175,-13.7009 -7.21149,-19.90214 m 8.1226,18.22827 c -2.36461,-7.78373 -4.74642,-15.18172 -8.01272,-22.480956 -1.97522,-4.414024 -4.24425,-8.296889 -6.74094,-11.853236 -1.78838,-2.579834 -3.78464,-4.941379 -5.90775,-7.088086 -1.38273,-1.398109 -2.85114,-2.71454 -4.38352,-3.915661 m 7.98898,12.394016 c -4.36984,-6.004094 -9.17271,-10.895561 -14.34408,-14.147763 -0.69786,-0.438874 -1.40204,-0.8476 -2.11214,-1.224757 -4.95106,-2.629673 -11.35267,-3.053782 -17.688598,-0.960792 -1.991049,0.634186 -3.93129,1.462026 -5.790006,2.45467 -4.246719,2.267954 -7.730146,4.79665 -10.702218,7.665017 m 15.069017,-9.224365 c -7.20621,2.331565 -12.960632,7.240697 -17.609712,13.548046 0,0 -10e-7,10e-7 -10e-7,10e-7 -0.09942,0.134879 -0.198932,0.270676 -0.29852,0.407366 -4.009922,5.50386 -8.345666,12.73342 -11.297851,20.10914 -0.775982,1.93871 -1.532971,3.88442 -2.261354,5.82909 -0.09275,0.24893 -0.185269,0.49816 -0.277556,0.74771 m 9.09325,-23.954516 c -4.069814,6.287205 -7.853146,13.281886 -10.726418,20.123976 -0.05705,0.13585 -0.113717,0.27204 -0.170009,0.40854 -2.74481,6.69093 -4.738998,14.24871 -6.483782,21.50124 -0.537167,2.23284 -0.975846,4.56633 -1.331625,6.9711 m 6.127567,-18.23675 c -1.889154,7.40718 -3.791892,15.01684 -4.914088,22.65263 -1.111319,7.56178 -1.998752,15.24083 -2.676446,22.5586 -0.183947,1.98627 -0.259564,4.02816 -0.258356,6.09581 0.802711,3.45452 2.779575,5.89399 5.132916,7.71585 m -5.460084,-15.47676 c -0.03781,3.207 -0.03139,6.48624 0.05959,9.84085 0.944668,3.88442 3.042285,6.62189 5.591823,8.83434 1.089015,0.94503 2.261467,1.79468 3.455901,2.59001 1.602647,1.06715 3.180378,1.87605 4.631522,2.60107 5.86668,2.34704 11.675647,2.86541 17.775295,3.16504 3.647217,0.17916 7.192044,0.66838 10.653012,1.19849 m -15.935034,-3.74044 c 7.646691,1.68307 15.135716,2.65552 22.491372,2.74591 6.284556,0.0772 13.222726,-0.47576 19.986516,-1.52222 1.15568,-0.23841 2.31724,-0.48032 3.47653,-0.73398 1.02845,-0.22503 2.05433,-0.44241 3.08501,-0.66143 m -13.91935,1.85523 c 2.0223,-0.15017 4.02666,-0.37699 6.01679,-0.67051 5.19426,-1.04095 10.49325,-2.30161 15.65967,-4.49231 0.38473,-0.16313 0.7686,-0.33139 1.1515,-0.50506 4.73875,-2.14935 9.24519,-4.43985 13.13241,-7.99877 1.51781,-1.60511 2.94019,-3.84695 2.83699,-6.63629 0,0 -8.9e-4,-0.0222 -8.9e-4,-0.0222 -0.15449,-3.85668 -0.24699,-7.71496 -0.38883,-11.5128 m 1.28944,6.09984 c -0.22877,-7.65933 -0.62671,-15.73463 -1.14757,-23.64136 -0.32949,-5.00158 -1.46734,-9.70901 -2.94833,-14.26128 -0.9046,-2.78056 -1.94487,-5.5249 -3.01113,-8.23359 -1.12806,-2.86572 -2.11432,-5.77398 -3.06508,-8.63516 m 5.48783,22.64557 c -0.36576,-1.91021 -0.77471,-3.81179 -1.22428,-5.70415 -1.38645,-5.83608 -3.16487,-11.60761 -5.2597,-17.26748 -2.891,-7.81099 -6.32392,-14.717996 -10.59422,-21.524718 -0.26598,-0.423962 -0.53353,-0.841416 -0.80271,-1.252633 -0.93897,-1.451746 -1.91807,-2.809101 -2.93403,-4.077398 m 9.52257,17.037298 c -2.02956,-4.208073 -4.3092,-8.333047 -6.8437,-12.368781 -1.81833,-2.930421 -3.84991,-5.752551 -6.0396,-8.393634 -3.07199,-3.705265 -6.46226,-6.13782 -9.97761,-7.635161 -3.10473,-1.322442 -6.36734,-1.938421 -9.63284,-1.958193 -3.077523,-0.01863 -6.257185,0.225346 -9.465636,1.050893 -1.461648,0.357405 -2.888378,0.801327 -4.274886,1.34422 m 25.499922,3.565587 c -0.16281,-0.0874 -0.32629,-0.173324 -0.49041,-0.257753 -6.03733,-3.105782 -12.96993,-4.190843 -19.747047,-1.756746 -0.811081,0.280965 -1.610905,0.601869 -2.398648,0.962024 -6.976639,3.189713 -12.950403,7.510155 -17.788486,13.643847 -0.03435,0.04354 -0.06865,0.08719 -0.102901,0.130946 -2.949404,3.76731 -5.808643,8.30644 -8.388688,13.169092 M 78.131371,82.684945 c -1.589915,1.539559 -3.112253,3.244147 -4.561518,5.078553 -3.247215,4.11016 -6.123349,8.867662 -8.537324,13.822052 -1.782641,3.65866 -3.425359,7.54532 -4.851681,11.49959 -1.228111,3.42354 -2.336503,6.94875 -3.277356,10.53096 -1.52516,5.80691 -2.977791,11.58762 -4.166855,17.38689 m 3.443897,-20.67002 c -2.124484,7.49165 -3.531898,14.68654 -4.239711,21.73781 -0.698716,6.96064 -1.914452,15.3639 -2.506502,22.9663 -0.140857,1.80872 -0.197723,3.64822 -0.189614,5.50944 0.675565,2.93233 2.179935,5.1774 4.031377,6.96183 m -2.764609,-15.18352 c -0.221714,3.98834 -0.2499,7.88027 -0.113599,11.74997 0.967879,3.67453 3.120087,6.15626 5.681449,8.05871 0.516707,0.38379 1.050272,0.74422 1.594371,1.08638 2.158795,1.35757 4.400577,2.34966 6.394968,3.30282 5.157794,1.94869 10.266829,3.20544 15.620313,3.9734 4.264319,0.61171 8.451931,1.19065 12.665751,1.58608 m -26.886825,-6.63967 c 7.56132,2.61149 14.796645,4.36368 22.001872,5.49388 7.252667,1.13764 15.619875,0.18098 23.487725,-1.3417 1.90013,-0.36774 3.78252,-0.67141 5.65095,-0.94175 1.10085,-0.2174 2.20358,-0.41163 3.31251,-0.59797 m -25.02775,2.49799 c 7.95899,0.35796 15.47405,0.1573 23.06034,-0.21253 2.3e-4,-2e-5 0.10683,-0.0108 0.10706,-0.0108 5.11665,-0.51666 10.21629,-1.5347 14.99596,-3.30378 2.14237,-0.79294 4.20068,-1.73061 6.13717,-2.82824 2.31396,-1.31158 4.76848,-3.00001 7.20074,-5.16217 m -21.69012,8.20041 c 3.29395,-0.77427 6.71774,-1.56594 10.07337,-2.64303 4.00908,-1.28684 7.96416,-2.99444 11.54167,-5.59302 1.05069,-0.76318 2.08296,-1.59538 3.09553,-2.50571 1.62252,-1.67319 3.18574,-3.96857 3.31201,-6.73501 0.16008,-3.75174 0.30708,-7.53614 0.4419,-11.20369 0.11455,-3.1164 -0.1871,-6.39998 -0.74882,-9.7513 m -2.73276,19.38969 c -0.0451,-7.65495 -0.78774,-15.5079 -1.71589,-23.11698 -0.61043,-5.00443 -1.7476,-10.19056 -3.24928,-15.43344 -0.81273,-2.83749 -1.73352,-5.69586 -2.73655,-8.55084 -1.94704,-5.54189 -3.37891,-9.94646 -5.04472,-14.19279 m 8.8308,22.83503 c -0.20276,-0.79572 -0.40275,-1.59314 -0.60082,-2.3914 -1.71953,-6.92995 -3.24338,-13.68995 -5.2402,-20.39297 -2.09783,-7.042107 -6.38477,-13.269625 -11.07422,-19.068134 -0.42237,-0.52798 -0.85187,-1.05107 -1.28673,-1.568894 0,-10e-7 0,-10e-7 0,-10e-7 -2.37347,-2.826251 -4.57718,-5.31749 -6.82394,-7.464005 m 17.83502,23.870964 c -2.09233,-4.198695 -4.37808,-8.190568 -6.92192,-11.94679 -1.78796,-2.672973 -3.77714,-5.15816 -5.93792,-7.392822 -3.10461,-3.21076 -6.58535,-5.960471 -10.2924,-8.035875 -3.21235,-1.798444 -6.59092,-3.088851 -10.05292,-3.743182 -2.48388,-0.469463 -4.9699,-0.510879 -7.43883,-0.113283 m 24.59156,6.248285 c -2.2611,-1.869812 -4.57318,-3.461552 -6.94271,-4.732695 -4.53551,-2.433083 -9.28295,-3.689539 -14.1635,-3.421519 -1.719082,0.0944 -3.463193,0.393057 -5.217238,0.916916 -5.7243,1.636981 -11.078544,5.161789 -15.926845,10.118752 -1.904628,1.947315 -3.628661,3.910403 -5.19006,5.902512 -2.126008,2.712467 -3.957837,5.485853 -5.596528,8.4439 M 86.121313,72.879223 c -5.283581,2.755142 -9.977043,7.074898 -14.015676,12.377267 -0.895753,1.176045 -1.759391,2.40055 -2.590271,3.667289 -4.10919,6.264765 -8.080576,13.358221 -11.267899,20.445891 -0.146866,0.32659 -0.289684,0.65425 -0.428593,0.98287 -1.686302,4.00914 -2.847743,8.20871 -3.71852,12.51705 M 65.692249,94.110112 c -2.734524,4.806537 -5.378816,10.096118 -7.827403,15.324478 -0.911967,1.95607 -1.818159,3.93205 -2.719877,5.92193 -3.284783,7.24871 -3.675244,15.16368 -4.035239,23.57864 -0.209546,4.8982 -0.968918,9.28775 -1.721266,13.58162 m 4.197343,-24.27141 c -1.871344,7.31686 -3.096359,15.22103 -4.036135,23.08339 -0.844958,7.0691 -0.907649,14.36764 -0.581511,21.94486 0.200647,0.78578 0.445902,1.52533 0.729778,2.22331 1.141343,2.80624 2.873335,4.73327 4.840337,6.17968 0.609268,0.44801 1.241066,0.84961 1.884765,1.21583 M 49.542589,170.9037 c -0.02734,0.85161 -0.04256,1.71403 -0.04665,2.58603 0.819414,3.65703 2.892256,6.27349 5.365063,8.33204 2.467324,2.05398 5.386703,3.59801 7.889638,5.08522 0.609323,0.29895 1.219087,0.59178 1.828968,0.87827 7.463178,3.50584 14.892337,4.21911 22.204057,4.66096 6.933889,0.41902 14.665836,0.7943 22.338686,0.408 m -28.545454,-1.57069 c 7.713747,1.17872 15.349063,1.44509 22.828114,0.92508 3.99115,-0.27751 8.11422,-0.61824 12.21868,-1.06262 3.50754,-0.56487 7.12994,-1.09607 10.61766,-1.88842 1.64562,-0.37385 3.302,-0.80946 4.95258,-1.32715 2.11829,-0.66438 4.22446,-1.46314 6.28555,-2.43903 m -13.92518,4.9776 c 3.27998,-0.76424 6.70914,-1.52417 10.11364,-2.53152 4.19682,-1.24179 8.38166,-2.86602 12.33361,-5.36646 1.0948,-0.69269 2.13826,-1.47203 3.13166,-2.3438 1.66681,-1.6748 3.17313,-4.04518 3.14596,-6.96601 -0.0491,-4.05749 -0.26182,-8.17428 -0.41064,-12.30229 -0.29211,-8.10267 -1.81265,-15.27124 -4.13939,-22.34262 0,0 -0.003,-0.009 -0.003,-0.009 M 70.957271,89.331285 66.707929,96.16008 m 32.391732,95.94959 7.173729,-0.17171"
       id="path1"
       style="fill:none;stroke:#000000;stroke-width:1.85083702;stroke-dasharray:none"
       inkscape:path-effect="#path-effect3"
       inkscape:original-d="m 151.09057,172.08567 c -0.10403,-29.506 -6.06896,-60.45625 -21.31935,-82.85473 C 121.00472,76.195747 107.36758,67.603615 94.01635,71.295232 78.191697,75.46936 66.673136,92.985808 59.895653,111.30242 c -7.045217,19.14457 -10.221651,40.60631 -9.991776,61.81212 1.75302,7.35347 8.141264,9.94038 13.085894,12.4043 17.712452,7.02472 36.573749,7.65543 54.881519,5.32709 10.3433,-1.86264 21.4274,-3.71523 30.14732,-11.88825 1.57815,-1.69751 3.07373,-4.0429 3.07196,-6.87201 z"
       transform="matrix(0.69686638,0,0,0.69686638,0.01133862,2.0729366)" />
    <circle
       id="circle3"
       style="fill:#ffffff;stroke:none;stroke-width:1.2897861;stroke-dasharray:none"
       cx="70.040405"
       cy="34.638168"
       r="29.745472" />
    <path
       id="circle4"
       style="fill:#cccccc;fill-opacity:1;stroke:none;stroke-width:1.2897861;stroke-dasharray:none"
       d="M 52.830272,10.459832 A 29.745471,29.745471 0 0 0 40.294843,34.637829 29.745471,29.745471 0 0 0 70.040967,64.383952 29.745471,29.745471 0 0 0 94.220321,51.847162 29.745471,29.745471 0 0 1 77.009631,57.415288 29.745471,29.745471 0 0 1 47.263507,27.669166 29.745471,29.745471 0 0 1 52.830272,10.459832 Z" />
    <path
       id="circle1"
       style="fill:none;stroke:#000000;stroke-width:1.85083702;stroke-dasharray:none"
       d="m 143.7854,53.610402 c -0.59885,7.596289 -3.86922,15.183075 -8.77945,21.383484 0,0 0,10e-7 0,10e-7 -4.913,6.203907 -11.26615,10.869195 -18.82085,13.437014 0,0 0,10e-7 0,10e-7 -5.11112,1.737252 -10.21453,2.809146 -15.30933,2.921249 -1.806893,0.03976 -3.603713,-0.04158 -5.389121,-0.254232 m 22.585021,-6.34117 c -5.49273,2.217223 -11.11746,3.305045 -16.79918,3.080683 -1.964595,-0.07758 -3.926834,-0.311791 -5.882886,-0.706204 -7.650941,-1.542714 -14.951326,-4.167984 -20.840612,-8.88307 0,0 -2e-6,-10e-7 -2e-6,-10e-7 -1.512427,-1.210881 -2.948604,-2.557954 -4.288449,-4.017374 m 9.37147,10.85497 C 72.621262,81.193586 67.428825,75.613014 64.248743,68.570702 61.198155,61.815151 58.339634,55.083482 57.715915,48.266473 c -0.02873,-0.314046 -0.05264,-0.627831 -0.07153,-0.941343 -0.244755,-4.062527 0.720787,-8.701381 2.513339,-13.325782 m -1.668409,17.106297 c -0.08251,-0.948305 -0.124558,-1.899715 -0.126975,-2.852524 -0.01743,-6.868705 2.02303,-13.707919 5.660136,-19.924122 0,0 0,-1e-6 0,-1e-6 4.153129,-7.098141 9.112036,-12.616611 15.906815,-16.377487 0,10e-7 2e-6,-10e-7 2e-6,-10e-7 1.984536,-1.09843 4.023334,-2.0633928 6.105001,-2.8628648 M 65.243481,22.137652 C 69.88361,15.825242 75.81185,10.478646 82.833365,6.9000057 88.118771,4.2062047 93.963571,3.0585456 99.795877,2.966272 c 1.883013,-0.029791 3.756033,0.050376 5.600873,0.2203583 2.32212,0.2139598 4.66465,0.7124457 6.98571,1.459906 M 94.224607,4.6607697 C 96.67129,4.2819 99.098087,4.084965 101.50328,4.0785773 c 5.40445,-0.014353 10.62646,0.9337762 15.64175,2.8631355 0,0 0,9e-7 0,9e-7 7.27684,2.7993635 13.36709,7.4958203 17.56599,13.2861243 2.83405,3.908167 5.31754,8.711569 6.85486,13.751273 m -9.57821,-14.689797 c 5.37348,5.921724 8.82739,13.566161 10.60059,22.309152 0.56704,2.795871 0.84405,5.362023 0.86924,7.771961 0.0534,5.102546 -1.02229,9.445196 -2.79228,13.72452 -1.20468,2.912586 -2.97011,6.149189 -5.19179,9.352115 m 7.99805,-19.624371 c -1.1714,7.581085 -4.71907,14.974873 -10.17066,20.941856 -5.4562,5.972031 -11.56212,10.319626 -18.82459,12.510773 0,0 0,1e-6 0,1e-6 -0.95297,0.287519 -1.91916,0.552924 -2.89577,0.793654 m 9.97719,-4.828381 c -6.55905,4.147368 -14.32077,5.839627 -22.094541,5.140727 -10e-7,-10e-7 -0.07085,-0.0064 -0.07085,-0.0064 -7.820551,-0.717714 -15.625644,-2.119921 -22.596861,-6.107193 0,0 -2e-6,-10e-7 -2e-6,-10e-7 C 73.299136,79.26796 70.267745,76.836983 67.68313,74.086122 M 90.364218,87.56085 C 82.782292,85.832209 76.066112,81.800082 71.121239,76.041873 66.156572,70.260613 61.274288,63.754428 58.736036,56.326607 c 0,0 -10e-7,-3e-6 -10e-7,-3e-6 -0.987334,-2.889286 -1.420493,-5.925174 -1.400336,-9.017283 m 6.177357,22.146788 C 59.23428,62.888705 56.642964,55.199048 56.218182,47.007902 c -0.03325,-0.641156 -0.05257,-1.279681 -0.05808,-1.915689 -0.06486,-7.48336 1.781463,-14.487538 5.168049,-21.232361 0.997417,-1.986484 2.157206,-3.815386 3.463254,-5.499632 m -8.05214,17.994381 c 1.692934,-7.743402 5.428363,-15.150051 10.842985,-21.77619 0,0 10e-7,-10e-7 10e-7,-10e-7 5.403851,-6.612958 12.418769,-9.2337393 20.26063,-10.2500848 0,2e-7 3e-6,-4e-7 3e-6,-4e-7 3.751798,-0.4862522 7.484344,-0.9576707 11.25217,-1.0747771 1.05756,-0.032869 2.11408,-0.037604 3.16974,-0.00694 M 78.928889,10.914607 c 6.619437,-3.5013084 13.777647,-5.3096916 21.117201,-4.5993814 0.34211,0.033108 0.68434,0.071674 1.02665,0.1157596 0,0 0,0 0,0 7.71553,0.9936632 15.53201,2.412655 22.34224,6.4297918 0,10e-7 0,10e-7 0,10e-7 4.48703,2.646757 8.19171,6.316631 11.10265,10.630678 M 117.25351,9.3450853 c 7.26862,2.9196337 13.46927,8.0359477 18.16524,14.3286637 0,10e-7 0,10e-7 0,2e-6 4.69807,6.295535 7.31188,13.962137 8.01549,21.944573 0.0934,1.059513 0.14213,2.114092 0.14708,3.162828 0.0236,4.997476 -0.94716,9.822006 -2.77218,14.3805 m 1.57385,-11.694082 c -1.08557,7.85139 -4.08353,14.698668 -8.64725,20.042154 -4.56556,5.345645 -11.71053,10.544699 -19.54827,12.958549 0,0 0,10e-7 0,10e-7 -4.52002,1.392064 -8.90156,2.282614 -13.26227,2.537427 m 19.69669,-1.603564 c -6.15355,3.387589 -12.74705,4.93702 -19.34054,4.988471 -0.89597,0.007 -1.789831,-0.01367 -2.68048,-0.06072 -7.459771,-0.394034 -15.269636,-3.364235 -21.545182,-8.262349 0,0 -2e-6,-1e-6 -2e-6,-1e-6 -3.421298,-2.670352 -6.53206,-5.589716 -9.176366,-8.867115 M 86.64244,86.073581 C 79.293082,83.666745 72.30845,79.492571 66.687921,73.992235 61.076688,68.500997 58.238604,60.439838 57.074658,51.917645 c 0,0 0,-3e-6 0,-3e-6 -0.351981,-2.577139 -0.531381,-5.026643 -0.525706,-7.393653 0.0015,-0.635399 0.01638,-1.264411 0.04478,-1.887881 m 8.327149,26.004307 C 60.879102,62.128453 58.227192,54.790736 57.90926,47.579894 c -0.01822,-0.413161 -0.03023,-0.830278 -0.03607,-1.250836 -0.09605,-6.917093 1.476566,-14.598651 4.353675,-20.847745 1.190304,-2.585346 2.935235,-5.059285 5.055232,-7.341521 m -7.963535,21.845372 c 0.533189,-8.03047 3.660415,-15.189984 8.388578,-21.381838 0,0 2e-6,-3e-6 2e-6,-3e-6 4.728621,-6.192454 11.391799,-10.9081392 19.36996,-13.3987565 0,10e-8 3e-6,-9e-7 3e-6,-9e-7 3.370608,-1.052234 6.523447,-1.9123638 9.576376,-2.473255 M 74.5864,13.890308 c 6.58581,-4.4150453 13.99988,-7.1358296 22.007153,-7.5988201 0.988475,-0.057155 1.96737,-0.089843 2.936374,-0.097635 6.871693,-0.055252 13.119693,1.1446158 18.604123,3.5926071 4.09311,1.8269717 8.42297,5.2721507 12.20939,9.4971537 M 109.35017,4.507573 c 7.41415,1.8895931 14.92416,5.458061 21.20387,10.594865 6.26377,5.123772 9.13023,12.353002 10.20313,19.817591 0,0 0,2e-6 0,2e-6 0.46158,3.211432 0.89335,6.573003 1.08988,10.029784 m -4.58691,-21.299479 c 4.4467,6.380422 7.18688,13.901391 7.73137,21.702497 0.0678,0.971972 0.10027,1.942918 0.0973,2.911041 -0.0208,6.785834 -1.78045,13.33052 -5.11539,19.03245 -1.19616,2.045127 -2.54163,4.068524 -4.04436,6.011026 m -26.73859,15.457966 -9.03052,0.889429 M 71.340563,78.128447 66.387816,72.663932"
       inkscape:path-effect="#path-effect2"
       inkscape:original-d="M 143.17601,46.730957 A 42.684612,42.684612 0 0 1 100.4914,89.415569 42.684612,42.684612 0 0 1 57.806789,46.730957 42.684612,42.684612 0 0 1 100.4914,4.0463448 42.684612,42.684612 0 0 1 143.17601,46.730957 Z"
       transform="matrix(0.69686638,0,0,0.69686638,0.01133862,2.0729366)" />
  </g>
</svg>
