<?xml version="1.0" encoding="UTF-8" standalone="no"?>
<svg
   height="80"
   width="80"
   version="1.1"
   id="svg2"
   sodipodi:docname="resource-food.svg"
   inkscape:version="1.3.2 (091e20ef0f, 2023-11-25, custom)"
   xmlns:inkscape="http://www.inkscape.org/namespaces/inkscape"
   xmlns:sodipodi="http://sodipodi.sourceforge.net/DTD/sodipodi-0.dtd"
   xmlns="http://www.w3.org/2000/svg"
   xmlns:svg="http://www.w3.org/2000/svg">
  <defs
     id="defs2">
    <inkscape:path-effect
       effect="sketch"
       id="path-effect3"
       is_visible="true"
       lpeversion="1"
       nbiter_approxstrokes="3"
       parallel_offset="2;1"
       strokelength="70"
       strokelength_rdm="0.3;1"
       strokeoverlap="0.5"
       strokeoverlap_rdm="0.5;1"
       ends_tolerance="0.1;1"
       tremble_size="0.8;1"
       tremble_frequency="3"
       nbtangents="2"
       tgt_places_rdmness="0.5;1"
       tgtlength="5"
       tgtlength_rdm="0.3;1"
       tgtscale="10" />
  </defs>
  <sodipodi:namedview
     id="namedview2"
     pagecolor="#ffffff"
     bordercolor="#000000"
     borderopacity="0.25"
     inkscape:showpageshadow="2"
     inkscape:pageopacity="0.0"
     inkscape:pagecheckerboard="0"
     inkscape:deskcolor="#d1d1d1"
     inkscape:zoom="2.7666666"
     inkscape:cx="58.915664"
     inkscape:cy="68.313255"
     inkscape:window-width="1440"
     inkscape:window-height="831"
     inkscape:window-x="0"
     inkscape:window-y="0"
     inkscape:window-maximized="1"
     inkscape:current-layer="svg2" />
  <g
     id="g1"
     transform="matrix(0.38931074,0,0,0.38931074,1.2516497,0.36031757)"
     style="stroke-width:2.56864221;stroke-dasharray:none">
    <path
       d="m 99.945148,185.62248 c 14.939002,-0.50867 27.376432,12.24304 42.408952,9.67232 15.10165,-4.90062 23.49514,-19.94082 30.76608,-33.04322 12.93106,-25.97735 21.78812,-54.53376 22.73932,-83.669974 0.56578,-35.967966 -42.06227,-55.885947 -71.59994,-40.500867 -9.29792,2.59042 -17.47264,12.680568 -26.199781,12.73601 C 81.042027,39.498523 61.01904,28.581117 39.820411,34.076876 8.7557739,40.518192 -0.80091991,75.038315 6.4343819,102.09144 c 5.5019711,27.57615 14.8045731,55.10488 31.5066721,78.00251 6.817387,9.29091 18.069484,18.86639 30.398028,14.75698 10.592467,-2.86897 20.319235,-9.29191 31.606066,-9.22845 z"
       fill="#ff8888"
       id="path3"
       style="stroke:none;stroke-width:2.56864221;stroke-dasharray:none" />
    <g
       id="g3"
       inkscape:path-effect="#path-effect3"
       style="stroke-width:2.56864221;stroke-dasharray:none">
      <path
         d="m 105.35372,188.17948 c 2.1877,0.23319 4.29358,0.71593 6.3444,1.34563 3.50018,1.07471 6.83183,2.57428 10.17313,4.00209 1.75509,0.74998 3.5074,1.4777 5.28442,2.11202 1.60296,0.57219 3.22548,1.07131 4.87015,1.44952 3.46363,0.79651 7.03788,1.0593 10.73026,0.32823 2.29857,-0.81649 4.42406,-1.88797 6.38299,-3.16956 2.67182,-1.74799 5.18889,-3.7562 7.56824,-5.98311 m -15.71669,6.1001 c 0.67315,-0.0643 1.35538,-0.15982 2.0468,-0.2897 6.81632,-2.3518 12.58785,-6.90026 17.33721,-12.67846 0.40908,-0.4977 0.81097,-0.99642 1.20608,-1.49591 4.58084,-5.79089 8.29365,-11.73507 11.82785,-17.58966 0.29852,-0.49451 0.59367,-0.98939 0.88589,-1.48329 0.28047,-0.52724 0.55796,-1.05773 0.83268,-1.59115 m -8.04366,13.90003 c 1.9638,-3.39651 3.90834,-6.7674 5.9141,-10.09106 1.95123,-3.57372 3.94821,-7.22401 5.90744,-10.97458 3.85424,-7.37822 5.63166,-14.00951 7.42791,-20.68895 0.42635,-1.58543 0.91605,-3.28279 1.44344,-5.06239 m -3.81433,13.91887 c 2.56487,-7.28295 5.34502,-14.78824 7.79267,-22.4735 0,0 0,0 0,0 2.45171,-7.69802 3.43263,-15.05406 4.48127,-22.474701 0.67546,-4.779864 0.95769,-9.711116 0.90308,-14.54591 -0.046,-1.596878 -0.19318,-3.149393 -0.4325,-4.647458 m -3.93617,27.895809 c 1.55086,-7.545787 2.25048,-15.5861 2.46703,-23.792781 0.0218,-0.827324 0.0402,-1.647998 0.0545,-2.463299 0.0101,-7.77188 -1.69965,-14.367013 -4.97293,-20.600923 -0.65524,-1.247895 -1.34945,-2.43387 -2.08144,-3.562162 -1.58492,-2.442976 -3.34735,-4.616014 -5.27166,-6.556103 m 12.44319,20.164884 c -1.00288,-4.401674 -2.89897,-8.53502 -5.36373,-12.273083 -1.83419,-2.781733 -3.98867,-5.353718 -6.34458,-7.679324 -3.36825,-3.324932 -7.33401,-6.172774 -11.72423,-8.546046 -2.8124,-1.520335 -5.7985,-2.845668 -8.91211,-3.976857 -2.34785,-0.852982 -4.6556,-1.500386 -6.9442,-1.971324 m 14.89258,7.214479 c -0.0652,-0.0354 -0.13046,-0.07062 -0.19584,-0.105657 -6.57114,-3.521161 -14.17168,-5.192981 -21.47722,-4.601107 -0.40516,0.03282 -0.81274,0.06312 -1.22244,0.09147 -6.99559,0.483928 -14.64089,0.399042 -21.20132,2.535001 -0.73826,0.240365 -1.47671,0.529948 -2.21372,0.865851 -0.9745,0.210455 -1.94682,0.540036 -2.91755,0.963291 m 14.53035,-6.17053 c -3.86168,0.787245 -7.69999,2.134419 -11.40689,4.02134 -3.57551,0.981997 -7.04995,3.026911 -10.50275,5.170198 -1.16934,0.725852 -2.3001,1.46013 -3.41144,2.173647 -2.19668,1.410331 -4.29424,2.724301 -6.38239,3.677111 -2.08473,0.95125 -4.15947,1.541262 -6.272487,1.492129 -1.380763,-1.004123 -2.788555,-2.015997 -4.229158,-3.021355 -0.686363,-0.478994 -1.378247,-0.946373 -2.075496,-1.402431 m 9.531671,3.317291 c -1.48634,0.55671 -2.99305,0.875247 -4.518601,0.86464 C 92.042746,46.393244 86.546976,42.591568 81.04078,39.175321 77.29339,36.850303 73.389718,35.16335 69.363369,33.907084 65.91217,32.830271 62.35759,32.066204 58.735564,31.501426 52.750957,30.568253 46.960108,30.593332 41.125451,32.10917 m 28.472786,3.125539 c -7.360028,-2.506156 -14.738922,-4.030463 -21.984558,-3.590492 -2.210807,0.134245 -4.58757,0.523215 -7.083514,1.17087 -5.709058,1.19148 -11.170447,3.471173 -15.767179,6.338693 -1.809242,1.128635 -3.417628,2.336073 -4.857347,3.617314 -2.7712,2.466159 -4.927497,5.214773 -6.669901,8.206483 M 32.62601,34.644812 c -5.224209,1.795922 -9.798564,4.453647 -13.688162,7.698826 -1.887784,1.575021 -3.61322,3.28736 -5.174054,5.105044 -2.760003,3.214184 -4.9718997,6.992271 -6.7041247,10.99764 C 5.7507177,61.472969 4.7178222,64.624209 3.9287269,67.749795 3.0962255,71.047311 2.6371907,74.666854 2.5144886,78.40464 M 6.40166,59.867566 C 3.5704646,66.863533 2.1580744,74.325695 2.1031021,81.2079 c -0.0433,5.420881 0.8233389,12.370404 2.5634427,19.04388 0.3686099,1.83168 0.7570076,3.67054 1.1661012,5.48774 1.3554841,6.02107 2.6389015,11.03936 4.177097,16.05373 M 5.0482457,98.412962 c 0.3426657,1.691418 0.7276836,3.360908 1.1589818,5.007878 1.2037886,6.14058 2.4260469,12.36602 3.9090575,18.8997 1.885573,8.30725 4.46771,14.83199 7.453807,21.87139 1.519921,3.58305 3.004849,7.26884 4.548894,10.95648 m -7.601033,-19.99963 c 2.528908,7.23064 5.364282,14.59562 8.825093,21.54624 3.467179,6.96341 7.157162,13.93551 11.614862,20.5912 0.915697,1.3672 1.838036,2.7031 2.771098,4.01138 m -8.574152,-15.31494 c 2.569313,4.51505 5.449326,8.66137 8.658723,12.4933 1.583168,1.87911 3.399172,3.71666 5.425653,5.39233 2.572475,2.12714 5.272142,4.32164 8.060101,6.03887 2.499946,1.53984 5.093801,2.71274 7.812937,3.1908 1.271649,0.22357 2.5702,0.29469 3.89084,0.17706 1.499247,-0.13353 3.062922,-0.45366 4.68217,-0.99466 1.176676,-0.31874 2.360531,-0.67153 3.549841,-1.04625 m -16.454985,3.74604 c 1.588651,0.71926 3.245611,1.24292 4.955447,1.53514 2.919084,0.49888 5.989699,0.32385 9.170234,-0.70487 2.986259,-0.78545 5.934549,-1.83339 8.88497,-2.89772 2.449153,-0.8835 4.812455,-1.85028 7.173174,-2.77903 4.984484,-1.961 9.882637,-3.72033 15.342541,-4.09995 0.24835,-0.0173 0.49717,-0.0308 0.74647,-0.0404 3.77817,-0.2939 7.36437,0.4287 10.83477,1.58049 1.82187,0.60466 3.61546,1.32852 5.40275,2.09094 m -11.55037,-4.76086 c 1.4569,0.28233 2.88014,0.66332 4.27619,1.11385 3.47923,1.12282 6.77658,2.67251 10.03368,4.2111 2.312,1.09214 4.59502,2.17423 6.89774,3.08567 0.9378,0.37119 1.90062,0.68731 2.88546,0.94095 3.39363,0.874 7.07822,1.01465 10.94143,0.0671 3.10231,-1.23056 5.96336,-2.9331 8.53043,-4.93313 3.88006,-3.02297 7.17239,-6.16305 10.10545,-9.57952 1.59176,-1.85411 3.07942,-3.79224 4.49695,-5.84322 m -23.19269,20.15828 c 0.62106,-0.0524 1.24316,-0.1268 1.867,-0.22506 7.1916,-2.20997 12.53991,-6.43938 17.17102,-11.34842 0.33395,-0.354 0.66207,-0.71808 0.98452,-1.0913 4.49509,-5.203 7.83072,-12.11188 10.5469,-18.13907 0.18959,-0.42068 0.38515,-0.84124 0.5861,-1.26105 2.52042,-5.97023 6.05677,-12.33262 8.94115,-18.69142 m -12.74166,27.27416 c 2.15637,-3.77681 4.2548,-7.49769 6.29403,-11.04139 1.61242,-3.11902 3.18704,-6.25439 4.65009,-9.46482 2.59164,-5.68697 6.95024,-15.43307 9.54188,-21.12004 1.47477,-3.2506 2.4527,-6.73443 3.14248,-10.32195 m -10.00436,23.06415 c 2.94531,-7.17694 5.24203,-14.64898 7.39112,-22.101 0,0 0,-10e-6 0,-10e-6 2.15336,-7.4668 3.12523,-15.58135 3.44449,-24.093296 0.22037,-5.875109 0.96196,-10.877848 1.53135,-15.786939 0.0104,-0.107089 0.0204,-0.213967 0.03,-0.320645 m -1.98449,24.30066 c 1.21013,-7.557758 2.70128,-15.531418 3.77667,-23.668605 0.12431,-0.940549 0.21703,-1.873101 0.28126,-2.799209 0.39477,-7.465214 -2.34474,-14.104127 -6.02149,-19.972887 -0.82745,-1.320753 -1.64947,-2.580863 -2.48278,-3.787377 -2.89398,-4.190038 -5.89945,-7.694011 -9.47305,-10.524585 m 18.5697,27.112731 c -1.15926,-5.00332 -3.13914,-9.571147 -5.80084,-13.65907 -1.5285,-2.347519 -3.28047,-4.53439 -5.22698,-6.549453 -3.59348,-3.720058 -7.88034,-6.933441 -12.61272,-9.568001 -2.31851,-1.290732 -4.744,-2.442548 -7.24679,-3.446584 -5.3744,-2.156036 -10.872,-3.106837 -16.46178,-3.205846 -1.77377,-0.03142 -3.55638,0.02296 -5.34667,0.151791 m 32.37723,5.996434 c -1.02368,-0.62051 -2.0583,-1.204927 -3.10344,-1.752957 -5.892,-3.08953 -12.11574,-5.021946 -18.62806,-5.757016 -1.48969,-0.168147 -3.0005,-0.262314 -4.52497,-0.279316 -6.27778,-0.07001 -12.79692,1.168884 -19.01626,3.946994 -1.89053,0.844476 -3.68977,1.705027 -5.40145,2.616303 -4.18769,1.206285 -7.99114,3.623258 -11.60475,5.948878 M 138.21615,32.3754 c -5.36141,0.693755 -10.60397,2.307696 -15.44598,4.933048 -2.14141,0.632202 -4.21382,1.678324 -6.23863,2.91877 -2.31771,1.419888 -4.6438,3.036858 -6.99273,4.535449 -2.19893,1.402893 -4.42052,2.705691 -6.65882,3.649176 -2.23843,0.943541 -4.501628,1.531753 -6.798728,1.495996 -0.251582,-0.16357 -0.503894,-0.327019 -0.756908,-0.49028 -6.651223,-4.29181 -12.678061,-8.215467 -19.022461,-11.371094 m 30.408947,7.471252 c -1.15562,0.692774 -2.32337,1.326639 -3.5056,1.857962 -2.18752,0.983131 -4.420809,1.614641 -6.723358,1.616652 C 92.792265,46.668816 88.8506,44.360375 84.641495,42.164226 78.490733,38.954996 73.630004,36.413325 68.614143,34.767588 67.338392,34.349006 66.053503,33.988669 64.737356,33.690639 60.171385,32.656714 54.534089,31.570672 48.661775,31.290569 m 25.642149,6.007464 c -1.616127,-0.723067 -3.241273,-1.376703 -4.877717,-1.958344 -5.78946,-2.05775 -11.730858,-3.218752 -17.915573,-3.349491 -4.346246,-0.09188 -8.633435,0.436722 -12.885866,1.770476 -3.411052,0.88577 -6.522391,2.187109 -9.371715,3.849523 -0.952967,0.556 -1.880816,1.111524 -2.790912,1.677676 m 12.537536,-4.686259 c -7.706817,1.394979 -13.86181,5.335252 -18.7588,10.398191 -0.487102,0.503609 -0.963238,1.019755 -1.428828,1.547482 -4.360245,4.942157 -7.900075,9.721738 -10.5525345,15.09983 -0.6611606,1.34056 -1.2669887,2.718553 -1.8154663,4.145555 -1e-7,0 -4e-7,10e-7 -4e-7,10e-7 -1.6696063,4.343898 -2.4530765,9.223256 -2.5983776,14.228485 M 9.2247418,56.448418 C 8.454674,57.880825 7.7454668,59.356971 7.096324,60.868296 4.7219451,66.39629 3.1492484,72.400333 2.3496354,78.439581 1.3452525,86.025399 2.1798023,94.268742 3.9181199,101.8664 c 0.061174,0.26737 0.1243734,0.53392 0.1895719,0.79962 0.2981265,1.66294 0.6263679,3.3197 0.9814346,4.97536 M 4.546128,92.668727 c 0.3153782,3.324724 0.9980488,6.73115 2.0010323,10.090993 1.0097321,4.35645 2.2324418,8.81226 3.6153087,13.2312 2.461999,7.86729 4.125255,14.8716 6.869335,21.87379 1.435908,3.66407 2.7659,7.53879 4.067917,11.46945 M 11.75185,128.51425 c 2.457655,7.49876 5.285984,14.61171 9.115322,21.42449 3.839103,6.83016 6.471129,13.88672 10.181196,20.15314 1.774706,2.99754 3.784632,6.16773 5.920256,9.39363 2.108939,3.16677 4.686015,6.54641 7.437685,9.48646 M 24.669052,162.54725 c 3.598667,6.69172 7.398796,12.96526 11.813433,18.723 0.131543,0.17052 0.264846,0.34094 0.399896,0.51116 3.314773,4.17789 7.751171,8.73742 12.816936,11.62211 1.723726,0.98157 3.523113,1.77191 5.382312,2.29451 0.9897,0.27819 1.994553,0.49671 3.013847,0.64489 2.514989,0.36561 5.112444,0.30214 7.781566,-0.34459 m -16.715588,-7.05299 c 0.930363,0.6973 1.896432,1.34647 2.893475,1.93459 2.578255,1.52081 5.362803,2.63304 8.27536,3.11451 2.912584,0.48149 5.954917,0.33238 9.050549,-0.66619 0.583246,-0.15196 1.163274,-0.31448 1.740262,-0.48595 4.684046,-1.39193 9.242464,-3.31357 13.901403,-4.82698 2.717952,-0.8829 5.474259,-1.62871 8.305096,-2.04903 2.62008,-0.38902 5.268482,-0.66699 8.011701,-0.62715 1.1584,-0.0286 2.30009,0.0104 3.43175,0.11025 m -20.628142,4.74549 c 0.247351,-0.0953 0.495463,-0.18963 0.744366,-0.2829 5.143585,-1.92747 10.649782,-3.40605 16.718296,-3.12823 2.18497,0.0197 4.34639,0.29732 6.49617,0.76416 1.81307,0.39373 3.5268,0.87008 5.17422,1.40079 3.59954,1.15957 6.87677,2.57673 10.15569,3.95113 2.15029,0.90132 4.30902,1.78753 6.56184,2.57068 1.1832,0.41132 2.37311,0.77304 3.57185,1.06889 3.48148,0.85922 7.04149,1.1639 10.73158,0.51 0.86106,-0.2875 1.69804,-0.60919 2.51158,-0.96195 m -38.63521,-8.87638 c 1.6957,0.24484 3.33783,0.64047 4.93727,1.13577 3.47008,1.07458 6.72466,2.61262 9.93647,4.10989 2.08721,0.973 4.1445,1.92283 6.22239,2.71142 1.11572,0.42343 2.2732,0.79276 3.46639,1.09121 3.41251,0.85356 7.12129,1.12983 11.03539,0.4283 2.91341,-0.95143 5.61444,-2.25701 8.05695,-3.8165 4.16574,-2.65974 7.69058,-6.08456 10.90107,-9.97232 1.02244,-1.23814 2.01305,-2.52323 2.98272,-3.84571 m -24.91622,14.41449 c 0.62995,-0.052 1.26277,-0.12937 1.8989,-0.23412 7.08763,-2.24287 12.56773,-6.7507 17.23379,-12.17032 0.3501,-0.40664 0.69717,-0.81875 1.04146,-1.23578 4.53195,-5.48938 8.77989,-12.1039 12.84307,-18.05681 0.30022,-0.43986 0.59088,-0.87961 0.87302,-1.31862 2.36006,-4.05015 4.04341,-8.27567 5.50835,-12.60382 m -12.57189,25.28177 c 1.8778,-3.32412 3.77961,-6.64583 5.71486,-9.87987 1.95016,-3.60723 3.93776,-7.27834 5.83986,-11.03542 3.68085,-7.2705 5.80016,-13.95762 7.94087,-20.50843 1.65218,-5.05583 3.44096,-11.29943 4.96966,-17.53704 m -7.96404,24.29195 c 2.61882,-7.02568 4.82186,-14.73423 6.19753,-22.33159 0,0 0,0 0,0 1.37839,-7.61242 3.76755,-15.36674 5.42131,-23.424906 0.24176,-1.178042 0.43454,-2.337735 0.58447,-3.482137 m -4.47004,16.824963 c 1.17148,-7.781393 2.3646,-15.683677 2.8542,-24.067022 0.0414,-0.70908 0.0767,-1.40929 0.10617,-2.101706 0.21046,-7.962753 -1.75854,-14.342015 -5.00763,-20.212212 -0.58147,-1.050556 -1.20813,-2.07878 -1.87735,-3.08219 -3.43495,-5.150242 -7.99112,-9.645508 -13.29831,-13.139133 m 21.51867,26.678603 c -1.09108,-4.947356 -2.9364,-9.538743 -5.32916,-13.648941 -1.36386,-2.342801 -2.9029,-4.524525 -4.57428,-6.519558 -3.10794,-3.709783 -7.64475,-6.860873 -12.71811,-9.3531 -2.4662,-1.211492 -5.05629,-2.265867 -7.66323,-3.15111 -5.63636,-1.91395 -10.86282,-2.981951 -16.01743,-3.182876 -1.1653,-0.04542 -2.32709,-0.04655 -3.48937,-0.0032 m 28.70422,4.467595 c -0.89129,-0.537662 -1.80337,-1.05316 -2.73472,-1.545817 -6.0011,-3.174433 -12.80585,-5.402543 -20.00039,-6.497232 -1.48043,-0.225256 -2.93621,-0.370569 -4.37252,-0.44111 -6.58954,-0.32363 -12.75551,0.925119 -19.02245,3.246969 -1.47222,0.545445 -2.88879,1.170086 -4.24944,1.87712 m 15.09455,-0.142943 c -4.98379,0.709072 -9.71791,2.354372 -14.09476,4.931048 -2.52339,0.845465 -4.93279,2.300269 -7.3034,3.991453 -1.91806,1.368336 -3.78305,2.712578 -5.72354,3.96339 -2.15383,1.388327 -4.33244,2.614778 -6.51535,3.464107 -2.18188,0.848934 -4.39206,1.331132 -6.615821,1.196539 -0.630787,-0.45924 -1.265264,-0.917262 -1.90218,-1.371459 -4.393109,-3.132807 -8.892538,-5.638592 -13.70512,-7.749504 m 23.264891,6.241402 c -0.25723,0.131856 -0.51402,0.258406 -0.77046,0.379273 -2.19505,1.034587 -4.37501,1.657462 -6.571028,1.614273 C 95.553875,48.930016 90.992894,45.664596 86.271116,42.706174 81.596114,39.777061 76.917699,37.770428 72.112749,36.349689 69.66932,35.627211 67.188117,35.05514 64.661981,34.59593 58.401823,33.457937 51.846182,32.873848 45.058965,33.905511 m 29.075331,5.061663 c -0.834407,-0.344828 -1.671915,-0.673934 -2.511761,-0.986433 -6.401734,-2.382024 -12.93034,-3.796797 -19.30262,-3.867846 -3.191288,-0.03558 -6.723721,0.39567 -10.460851,1.303752 -4.636849,0.899407 -9.03827,2.380543 -12.913148,4.227037 -2.014792,0.960107 -3.810166,2.086632 -5.422662,3.347579 M 37.71409,36.349787 c -6.366913,1.655701 -11.556214,4.799194 -15.599919,8.746584 -1.092889,1.066858 -2.105742,2.195713 -3.039669,3.375395 -3.094784,3.909151 -6.075194,8.44073 -8.4101,13.336411 -1.0853228,2.275633 -2.0327162,4.63421 -2.7804235,7.042237 -0.6841828,2.203443 -1.1810704,4.462185 -1.514403,6.755642 M 9.643796,60.070336 c -0.2613525,0.585735 -0.5152461,1.175635 -0.761695,1.769512 -2.7306466,6.58014 -4.5587018,13.676144 -5.4726142,21.019994 -0.8948405,7.190596 0.39838,14.504562 2.4201264,21.661628 0.170202,0.77802 0.3399409,1.56002 0.5075648,2.34589 0.2932932,1.37503 0.5882777,2.70956 0.8877473,4.01144 M 4.1991589,95.899119 c 0.3728417,2.455588 0.9089666,4.878501 1.6042585,7.241221 1.1575004,5.13423 2.5836685,10.24846 4.3068386,15.26885 2.524075,7.3538 3.94485,14.80891 6.107519,21.74149 1.427939,4.57735 3.512529,9.54685 5.81985,14.56393 m -9.528441,-21.79764 c 2.158912,7.61948 5.327528,14.62878 8.984094,21.52965 3.665973,6.91862 6.997274,13.53477 11.453086,19.23518 1.654999,2.11727 3.286883,4.44377 4.940905,6.84544 2.462651,3.55437 5.479042,7.54365 8.893019,10.53763 M 26.315141,163.72781 c 3.266288,6.0031 6.760669,11.44165 10.751429,16.56131 0.645286,0.82286 1.331566,1.6454 2.057752,2.4584 3.140641,3.51609 6.873823,7.17285 10.953787,9.69516 2.396393,1.48149 4.927323,2.58411 7.565915,3.0754 0.136985,0.0255 0.274526,0.0497 0.412611,0.0725 2.804338,0.46284 5.806682,0.35692 8.969566,-0.51067 2.506869,-0.53715 5.016345,-1.21358 7.51646,-1.90372 m -26.981183,-0.004 c 0.437414,0.30578 0.882552,0.59783 1.334903,0.8751 2.550373,1.5633 5.333502,2.65937 8.252758,3.09673 2.921343,0.43768 5.983907,0.21688 9.1102,-0.85893 1.211906,-0.34214 2.410999,-0.72851 3.598684,-1.14279 4.077226,-1.4222 7.982678,-3.18399 11.907528,-4.75228 3.223736,-1.28813 6.451491,-2.4418 9.78981,-3.16562 1.908879,-0.41388 3.886936,-0.65179 5.938141,-0.66409 3.729638,-0.17054 7.376948,0.52618 10.946058,1.57104 1.97919,0.57941 3.93638,1.26638 5.87206,1.97223 m 15.33627,-154.584706 -7.28826,3.401557 m -98.672866,117.229439 3.242369,6.40148"
         fill="#ff8888"
         id="path1"
         style="fill:none;stroke:#000000;stroke-width:2.56864221;stroke-dasharray:none"
         inkscape:original-d="m 99.945148,185.62248 c 14.939002,-0.50867 27.376432,12.24304 42.408952,9.67232 15.10165,-4.90062 23.49514,-19.94082 30.76608,-33.04322 12.93106,-25.97735 21.78812,-54.53376 22.73932,-83.669974 0.56578,-35.967966 -42.06227,-55.885947 -71.59994,-40.500867 -9.29792,2.59042 -17.47264,12.680568 -26.199781,12.73601 C 81.042027,39.498523 61.01904,28.581117 39.820411,34.076876 8.7557739,40.518192 -0.80091991,75.038315 6.4343819,102.09144 c 5.5019711,27.57615 14.8045731,55.10488 31.5066721,78.00251 6.817387,9.29091 18.069484,18.86639 30.398028,14.75698 10.592467,-2.86897 20.319235,-9.29191 31.606066,-9.22845 z" />
      <path
         d="m 79.580239,5.6168841 c 3.327826,2.1284475 6.003236,4.5967769 8.211217,7.3562129 2.424644,3.03021 4.267509,6.390995 5.742189,9.96239 0.02007,0.04862 0.04008,0.09727 0.06002,0.14597 2.776618,6.781086 3.801125,15.443754 4.332716,22.990341 0.02485,0.352779 0.04828,0.704267 0.0704,1.054294 0.03032,0.563851 0.05666,1.12809 0.07926,1.692749 M 85.482899,6.3265136 c 1.808129,1.5033784 3.373724,3.1641205 4.739478,4.9526834 2.441193,3.196937 4.243269,6.800622 5.655073,10.659089 0.513658,1.403831 0.97549,2.840773 1.398026,4.303889 1.835853,6.357009 2.463579,13.058548 2.609439,19.487267 M 87.715131,6.1129342 c 1.276809,1.2459065 2.456905,2.6007864 3.550611,4.0542488 2.495424,3.316252 4.539058,7.143347 6.251635,11.345489 0.827215,2.029733 1.577978,4.149081 2.264032,6.340422 2.153791,6.879491 2.370511,12.435975 2.318981,17.552843 -0.0206,0.978285 -0.0552,1.955212 -0.0958,2.939646 m -5.82754,-24.20443 1.906607,7.209173 m -4.024008,-12.820765 3.208719,8.950007"
         fill="none"
         id="path2"
         style="stroke:#000000;stroke-width:2.56864221;stroke-dasharray:none"
         inkscape:original-d="m 80.762144,3.9600001 c 14.754308,8.4086129 18.252511,27.1036589 19.072788,42.7296439 0.07481,1.74142 0.110216,3.48451 0.110216,5.2276" />
    </g>
    <path
       id="path4"
       style="fill:#000000;fill-opacity:0.188235;stroke:none;stroke-width:2.56864221;stroke-dasharray:none"
       d="M 24.048828,40.816406 C 5.6732664,53.736443 0.61220445,80.325356 6.4335938,102.0918 c 5.5019652,27.57612 14.8057302,55.10434 31.5078122,78.00195 6.81738,9.2909 18.069906,18.86722 30.398438,14.75781 10.592456,-2.86896 20.318649,-9.29197 31.605468,-9.22851 14.938988,-0.50867 27.375698,12.24259 42.408208,9.67187 8.10502,-2.63015 14.24363,-8.21398 19.34765,-14.81836 -2.81509,2.03231 -5.89966,3.69946 -9.34765,4.81836 -15.03251,2.57072 -27.97539,-14.07455 -42.91438,-13.56588 -11.286814,-0.0635 -21.013005,6.35955 -31.605461,9.22851 C 65.505147,185.06696 54.252621,175.49064 47.435241,166.19974 30.733159,143.30213 21.935559,119.66792 16.433594,92.091797 11.859216,74.98799 14.00738,54.906692 24.048828,40.816406 Z"
       sodipodi:nodetypes="ccccccccccccc" />
  </g>
</svg>
