<?xml version="1.0" encoding="UTF-8" standalone="no"?>
<svg
   height="90"
   width="90"
   version="1.1"
   id="svg4"
   sodipodi:docname="resource-research.svg"
   inkscape:version="1.3.2 (091e20ef0f, 2023-11-25, custom)"
   xmlns:inkscape="http://www.inkscape.org/namespaces/inkscape"
   xmlns:sodipodi="http://sodipodi.sourceforge.net/DTD/sodipodi-0.dtd"
   xmlns="http://www.w3.org/2000/svg"
   xmlns:svg="http://www.w3.org/2000/svg">
  <defs
     id="defs4">
    <inkscape:path-effect
       effect="sketch"
       id="path-effect6"
       is_visible="true"
       lpeversion="1"
       nbiter_approxstrokes="3"
       parallel_offset="2;196549320"
       strokelength="70"
       strokelength_rdm="0.5;4018887936"
       strokeoverlap="0.5"
       strokeoverlap_rdm="0.5;1"
       ends_tolerance="0.1;1"
       tremble_size="0.8;1"
       tremble_frequency="3"
       nbtangents="2"
       tgt_places_rdmness="0.5;1"
       tgtlength="5"
       tgtlength_rdm="0.3;1"
       tgtscale="10" />
  </defs>
  <sodipodi:namedview
     id="namedview4"
     pagecolor="#ffffff"
     bordercolor="#000000"
     borderopacity="0.25"
     inkscape:showpageshadow="2"
     inkscape:pageopacity="0.0"
     inkscape:pagecheckerboard="0"
     inkscape:deskcolor="#d1d1d1"
     inkscape:zoom="2.8284273"
     inkscape:cx="47.022598"
     inkscape:cy="58.689859"
     inkscape:window-width="1440"
     inkscape:window-height="831"
     inkscape:window-x="0"
     inkscape:window-y="0"
     inkscape:window-maximized="1"
     inkscape:current-layer="svg4"
     showgrid="false" />
  <g
     id="g1"
     transform="matrix(0.9637345,0,0,0.9637345,1.5159895,2.0173977)"
     style="stroke-width:1.03763018;stroke-dasharray:none">
    <path
       d="M 26.650499,51.24792 11.826023,80.857991 c -1.543526,3.062904 0.700166,6.67183 4.129936,6.647924 h 58.519604 c 3.42991,0.02374 5.67348,-3.58502 4.129999,-6.647924 L 63.781176,51.24792 Z"
       fill="#ccaaee"
       id="path6"
       style="stroke:none;stroke-width:1.03763018;stroke-dasharray:none" />
    <g
       id="g6"
       inkscape:path-effect="#path-effect6"
       style="stroke-width:2.31648124;stroke-dasharray:none"
       transform="matrix(0.44793377,0,0,0.44793377,0.422427,-0.30451293)">
      <path
         d="M 79.671683,7.6762761 C 79.906532,15.27194 79.596712,23.227651 79.440131,30.99359 l 0,3e-6 c -0.156648,7.769266 -0.133008,15.420736 -0.39375,22.933327 l 0,3e-6 c -0.146848,4.231039 -0.07898,8.647522 0.06206,13.108387 0.007,0.214674 0.01088,0.429257 0.01168,0.643663 M 77.739834,50.668339 c -0.195148,6.498386 -0.02686,12.9654 0.09244,19.242439 0.02296,1.148424 -0.06187,2.284657 -0.253657,3.394108 -0.315897,1.827409 -0.918228,3.666055 -1.787876,5.435139 -2.551714,5.182647 -5.126981,10.742719 -7.601259,16.125394 -2.053564,4.467433 -4.198417,8.775811 -6.312574,13.106911 m 8.824615,-15.761156 c -3.639629,6.821086 -6.608259,13.777796 -9.370616,20.462906 -2.581209,6.24673 -6.687057,13.27874 -10.553824,20.43483 m 4.782156,-11.85347 c -3.544725,6.84207 -7.453959,13.99836 -11.908239,21.13788 -2.438888,3.90917 -4.211673,7.68354 -5.799391,11.41433 m 8.633026,-18.11832 c -3.371957,6.90044 -7.193888,14.19145 -11.152212,21.72531 -3.165073,6.02407 -5.462204,11.32212 -7.629829,16.78189 m 7.909267,-14.4096 c -3.539208,6.84636 -6.751616,13.15931 -10.214889,19.47623 -0.162952,0.29525 -0.308907,0.59329 -0.438441,0.89324 -1.296076,3.00126 -0.801126,6.33749 0.885044,9.02666 1.856616,2.96102 5.15351,5.13991 9.159699,5.33503 1.190458,0.0659 2.382839,0.13251 3.575522,0.19665 0.561077,0.0302 1.11824,0.057 1.671853,0.0808 m -14.236836,-4.3237 c 1.926931,2.58985 4.882226,4.28234 8.303704,4.1589 4.402808,-0.12715 8.656598,-0.38577 12.900547,-0.65346 3.847039,-0.24265 7.979117,-0.27191 12.163826,-0.29322 m -11.25247,2.78078 c 7.976267,0.0503 15.749589,0.51596 23.929324,1.55619 l 2e-6,0 c 8.183241,1.04068 15.659787,-0.47394 23.658331,-1.4375 1.065735,-0.12839 2.119638,-0.21483 3.16329,-0.26617 m -9.871021,1.03161 c 7.805445,-0.14553 15.33621,-0.0107 22.70454,-0.0186 4.59595,-0.005 9.53761,-0.0589 14.53131,-0.17041 m -18.65383,-2.10133 c 7.67475,0.10403 15.65785,0.0963 23.64221,0.28112 6.33749,0.14667 12.41421,-0.15549 18.54867,-0.63643 m -17.53002,0.38347 c 7.79116,0.12706 15.64228,0.2882 23.61706,0.86858 3.05856,0.2226 5.99523,0.23733 8.84378,0.14215 3.65107,-0.0955 6.55199,-2.3645 7.99507,-5.46858 0.18303,-0.3937 0.34283,-0.80112 0.47799,-1.21961 m -12.59403,7.59284 c 1.20283,-0.01 2.41017,-0.0145 3.6191,-0.0145 3.73388,0.0266 6.82209,-1.93525 8.47572,-4.74584 1.45157,-2.46716 1.80216,-5.6044 0.472,-8.58547 -0.18113,-0.40594 -0.38689,-0.81067 -0.61858,-1.2125 -3.68799,-6.43553 -6.11433,-13.25566 -8.78872,-20.01759 -1.90823,-4.82475 -4.46312,-9.25781 -7.07954,-13.5 m 14.12547,23.68828 c -3.46742,-6.81102 -7.01225,-14.14646 -10.58957,-21.56919 -3.57885,-7.42591 -6.82263,-13.78603 -10.01278,-20.50294 l 0,0 c -2.08867,-4.39773 -4.52423,-8.87622 -7.06171,-13.23362 m 7.97593,15.66387 c -3.31134,-7.04528 -6.8163,-13.40512 -10.00227,-19.35637 -2.52883,-4.72374 -5.34224,-10.71861 -8.0036,-16.48433 m 5.00384,9.21946 c -3.32398,-6.723156 -7.01695,-13.511777 -10.621,-19.669296 -1.75755,-3.002779 -3.43168,-6.409617 -5.06501,-9.944236 -1.37022,-2.969226 -2.02882,-6.320273 -1.94008,-9.642946 0.022,-0.851778 0.0442,-1.698769 0.0662,-2.538218 0.16694,-6.361597 -0.0175,-12.362262 -0.23296,-18.338254 m -0.49115,22.59368 c 7e-5,-0.0682 4.6e-4,-0.136397 0.001,-0.204596 0.0749,-7.861707 0.0703,-15.458371 0.22293,-23.237279 0.0843,-4.296187 0.094,-8.521586 0.10764,-12.712977 m 2.62052,16.615202 c 0.0247,-7.591432 -0.28367,-15.464969 -0.85003,-23.079819 -0.34245,-4.604211 -0.20058,-9.452804 0.051,-14.442983 M 79.799356,8.9653467 c -0.116327,7.6020513 0.104483,15.7277413 0.3064,23.8610553 0.18986,7.647631 0.111665,14.853306 0.272351,22.498221 M 79.040211,32.090864 c 0.06242,7.915638 0.06384,15.349652 0.18742,22.723152 0.06215,3.70806 0.0558,7.63095 0.03,11.615806 -0.0113,2.035953 -0.319833,4.070683 -0.904626,6.022708 m 2.849759,-13.618908 c 0.03836,2.817338 0.01551,5.664054 -0.05286,8.539146 -0.07423,3.247707 -0.947953,6.488871 -2.541446,9.470657 -0.894751,1.671929 -1.800678,3.354792 -2.713788,5.048334 -3.977635,7.377306 -6.901909,13.50287 -10.256548,19.646681 l 0,0 c -0.466632,0.85461 -0.937799,1.74178 -1.412496,2.65499 m 8.639688,-15.619734 c -3.247049,6.996076 -6.988549,14.204154 -10.539872,21.768934 -3.276802,6.98002 -6.773333,12.9971 -10.654808,19.48884 m 10.906021,-18.37012 c -3.286622,6.87064 -7.075854,13.37747 -10.777321,19.28784 l -2e-6,1e-5 c -3.703054,5.9129 -6.951651,13.93652 -10.400297,20.95293 -3.288469,6.69052 -6.308556,13.45461 -8.981015,20.45352 m 10.637882,-29.99047 c -3.230127,6.78197 -6.649778,14.21498 -9.521143,21.78171 -2.644463,6.9688 -6.23674,12.92925 -9.349946,19.31001 -0.27729,0.5644 -0.4931,1.14059 -0.650284,1.72358 -0.404448,1.50012 -0.477654,2.99621 -0.266126,4.40952 m 8.19428,-21.65313 c -2.415426,4.92816 -5.107417,10.11702 -7.879359,15.34668 -1.114933,2.09035 -1.491716,4.28682 -1.277333,6.34222 0.147686,1.41594 0.611081,2.7488 1.33231,3.92137 1.766244,2.87155 5.087633,4.79962 9.178485,4.62886 1.244556,-0.0438 2.497853,-0.0923 3.756225,-0.14307 M 22.997277,184.15262 c -0.231609,2.17262 0.342773,4.3557 1.516993,6.21867 1.836947,2.91443 5.129703,5.04119 9.167163,5.21788 2.215545,0.11158 4.44853,0.23777 6.690777,0.36619 l 10e-7,0 c 8.305911,0.47571 15.706246,-0.0565 23.789582,-0.16875 0.413946,-0.006 0.826299,-0.0109 1.237182,-0.0155 m -18.096732,-0.853 c 7.554015,0.19539 15.468829,-0.0201 23.073617,-0.044 l 2e-6,0 c 7.608047,-0.0239 15.646688,-0.0825 23.620831,-0.24375 1.01576,-0.0205 2.025862,-0.0352 3.03151,-0.0452 m -15.187147,0.93603 c 7.753844,0.17241 15.768869,-0.16641 23.973364,-0.51272 4.78083,-0.2018 9.2303,-0.19822 13.60322,-0.19462 m -13.19354,3.09116 c 7.77634,-0.25994 15.34003,-0.0899 22.68583,-0.26217 5.31391,-0.12459 11.2334,-0.0709 17.26909,-0.0279 m -11.49145,-0.61277 c 7.77196,-0.0437 15.07793,-0.0548 21.91083,-0.16869 2.58279,-0.0431 5.50142,-0.0108 8.6028,0.0788 4.05225,0.14358 7.65251,-1.6721 9.86839,-4.30805 0.88214,-1.04937 1.54408,-2.22782 1.92751,-3.46234 0.57859,-1.86286 0.41346,-3.9737 -0.62509,-6.05297 -1.0582,-2.13286 -2.23723,-4.35811 -3.45978,-6.62538 m -0.9817,19.16822 c 1.26598,-0.87009 2.3238,-2.00016 3.10668,-3.29214 1.74815,-2.88496 2.12471,-6.58026 0.3678,-9.94826 -1.26363,-2.43854 -2.53712,-4.87181 -3.83509,-7.3261 l 0,0 c -3.64781,-6.89751 -6.82384,-13.58511 -10.03153,-19.89669 -1.02884,-2.02439 -2.10562,-4.20902 -3.20366,-6.4898 m 8.32959,21.94205 c -3.70225,-7.19299 -6.91704,-13.51968 -10.30177,-19.70619 l 0,0 c -3.38618,-6.18916 -7.12073,-14.09669 -10.91903,-21.42794 l 0,0 c -1.90819,-3.68309 -3.59998,-7.16231 -5.19537,-10.58204 m 12.95323,16.96418 c -3.46334,-6.99798 -7.09982,-13.99646 -10.86458,-21.11894 -1.99514,-3.77458 -3.85367,-7.42694 -5.69996,-11.03445 m 2.82611,13.71812 c -3.58382,-6.76322 -6.99372,-14.18086 -10.53317,-21.669241 -2.94012,-6.22039 -5.59316,-11.590661 -8.05306,-17.02453 -0.5041,-1.115231 -0.88216,-2.284453 -1.13037,-3.496743 -0.0235,-0.114987 -0.0463,-0.230483 -0.0682,-0.346469 m 8.35104,17.735408 c -2.35011,-4.799868 -4.70411,-9.509527 -7.04026,-14.22465 -1.10041,-2.223953 -1.777,-4.629459 -1.99902,-7.105449 -0.0613,-0.683755 -0.0869,-1.373076 -0.0759,-2.065415 0.0946,-6.333377 0.3356,-12.7524 0.85864,-19.278838 m 1.93702,20.222025 c -0.027,-0.348077 -0.0451,-0.695797 -0.054,-1.042869 -0.20077,-7.495241 -0.22112,-14.451171 -0.66438,-21.173648 -0.46396,-7.036354 0.23951,-15.628437 0.7125,-23.55208 l 0,-3e-6 c 0.35657,-5.973292 0.16393,-11.88846 0.0295,-17.9331433 M 77.930638,5.2551342 c -0.09133,7.5582768 0.159804,15.5896288 0.500118,23.4361118 0.18833,4.342244 0.0549,8.587917 -0.225407,12.773936 m 0.394178,-14.229213 c 0.01669,7.706105 0.07109,15.856236 0.231229,24.235922 0.107394,5.619735 0.128031,10.747035 0.212099,15.932332 M 77.296312,54.836924 c -0.02687,3.900059 0.07174,7.84602 0.277089,11.847933 0.171262,3.279134 -0.331976,6.546076 -1.45548,9.568749 -0.252823,0.678923 -0.502546,1.36002 -0.749288,2.043352 -2.048795,5.673987 -5.050653,10.838115 -7.933422,16.12894 M 79.014384,77.166939 c -0.01111,0.02344 -0.02227,0.04686 -0.03347,0.07025 -3.362829,7.012145 -6.776948,13.758382 -9.937314,20.504964 l -10e-7,2e-6 c -3.172266,6.771981 -7.261271,13.996141 -11.325297,21.127931 -0.898685,1.57707 -1.735135,3.13461 -2.528354,4.67823 m 9.166339,-21.52669 c -3.546772,6.85433 -7.416091,13.75747 -11.814486,20.41287 l -10e-7,0 c -4.400281,6.65824 -6.971032,13.92189 -10.469048,20.90918 -0.03566,0.0712 -0.07128,0.14246 -0.10685,0.21369 m 8.529757,-12.24631 c -3.263547,7.16627 -6.833868,13.89114 -10.046101,20.82496 -3.213609,6.9368 -6.686721,13.83645 -9.619047,20.63418 l -1e-6,0 c -0.02989,0.0693 -0.05991,0.13867 -0.09006,0.20812 m 8.981328,-14.44096 c -3.467441,7.02908 -7.026659,13.90079 -10.633338,20.8314 -0.510505,0.98098 -1.021612,1.96213 -1.53436,2.94326 -1.793036,3.4085 -1.482225,7.12524 0.169233,9.97331 1.518011,2.61793 4.17744,4.50452 7.349079,4.74349 0.279384,0.0211 0.565426,0.0293 0.857755,0.0242 1.333773,-0.0136 2.713384,-0.0286 4.12879,-0.0463 M 22.997486,184.43973 c -0.963118,2.92783 -0.440494,5.9885 1.101417,8.44738 1.82307,2.90723 5.066773,4.97695 9.009885,5.05645 1.403256,0.0378 2.809229,0.0785 4.2165,0.12118 l 2e-6,0 c 8.035364,0.24373 15.621044,-0.30459 23.539581,-0.9125 6.066024,-0.46569 11.959855,-0.17766 17.867717,0.0417 M 59.42574,194.85527 c 7.566466,-0.0727 15.441602,0.0422 22.998601,0.11885 5.59959,0.0568 11.641557,0.04 17.862669,0.04 m -10.899692,-0.75536 c 7.537683,0.17044 15.817492,-0.0292 24.136142,-0.10022 l 0,0 c 8.32221,-0.071 15.55269,0.10012 23.32708,0.3 l 0,0 c 2.2658,0.0582 4.5092,0.0656 6.72961,0.037 m -15.79786,0.25331 c 7.79137,-0.24297 15.88948,0.30326 24.33581,0.89406 4.99623,0.34948 9.49682,0.21363 13.92018,-0.0398 3.33909,-0.1673 6.12031,-2.03594 7.90527,-4.63874 0.18249,-0.26611 0.35424,-0.5388 0.51467,-0.81727 0.81187,-1.40924 1.33309,-2.96558 1.48616,-4.55912 m -16.34494,8.74843 c 2.06024,-0.0527 4.0701,-0.0621 6.04269,-0.0389 3.78735,0.0711 6.79971,-1.7831 8.39287,-4.47282 1.067,-1.80142 1.49216,-3.97519 1.0663,-6.17278 -0.20885,-1.07771 -0.59451,-2.18143 -1.1843,-3.2717 -2.48443,-4.62298 -4.48664,-9.60488 -6.47848,-14.481 m 9.09254,21.06509 c 0.0352,-1.53761 -0.30646,-3.1343 -1.09454,-4.67125 -2.73326,-5.36679 -5.49597,-10.82066 -8.23904,-16.02852 l 0,0 c -3.48528,-6.61699 -7.12649,-13.90909 -10.92528,-20.85294 l 0,0 c -2.70975,-4.95318 -5.0468,-9.91761 -7.35871,-14.87925 m 14.06562,20.57424 c -3.73583,-7.01044 -7.28517,-13.98052 -11.40797,-21.09393 l 0,0 c -4.12457,-7.11646 -6.73923,-13.70378 -9.77528,-20.24044 l 0,0 c -0.47569,-1.02415 -0.97892,-2.07011 -1.50457,-3.133 m 9.97465,24.2776 c -3.61302,-7.079 -7.10832,-13.93249 -10.87063,-20.94384 l 0,0 c -3.76393,-7.01435 -6.81554,-13.92138 -9.99403,-20.896685 l 0,-2e-6 c -0.79599,-1.746816 -1.62795,-3.496528 -2.48167,-5.250231 m 8.89625,18.884458 c -3.54422,-6.818856 -6.87042,-13.599925 -10.17072,-19.937919 -1.00265,-1.925511 -2.02719,-3.98396 -3.05879,-6.124235 -1.38928,-2.886213 -2.10763,-6.212778 -2.05966,-9.606514 0.005,-0.340829 0.009,-0.6819 0.0143,-1.023087 m 5.07335,18.097818 c -1.14857,-2.309931 -2.26535,-4.618069 -3.35019,-6.930005 -1.34505,-2.870426 -1.95929,-6.042063 -1.77963,-9.270925 0.11317,-2.068492 0.24665,-4.143755 0.40051,-6.2286 0.58676,-7.950579 -0.26828,-15.730887 -0.79375,-23.870831 l 0,-3e-6 c -0.33172,-5.138649 -0.22843,-9.856435 -0.0859,-14.423913 m -0.0393,23.666695 c -0.1973,-7.570785 0.22949,-15.631382 0.694,-23.579846 0.2858,-4.890485 0.27058,-9.814065 0.27703,-14.8876841 M 69.014611,196.03974 h 8.042968 M 129.31678,90.839486 126.10489,84.422664"
         fill="#ffffff"
         id="path1"
         style="fill:none;stroke:#000000;stroke-width:2.31648124;stroke-dasharray:none"
         inkscape:original-d="m 79.521381,3.96 v 64.36434 c 0.003,3.18457 -0.736928,6.326105 -2.16041,9.174403 L 25.457653,181.19275 c -3.445881,6.83786 1.558458,14.90036 9.215537,14.84699 h 130.65377 c 7.65684,0.053 12.66121,-8.00913 9.21543,-14.84699 L 122.63918,77.498743 c -1.42382,-2.848298 -2.16342,-5.989833 -2.16041,-9.174403 V 3.96" />
      <path
         d="M 75.235556,3.0038972 C 82.771045,3.1183096 90.91863,3.0906566 98.952947,3.25375 106.8899,3.4148669 114.36195,3.0819857 122.12773,2.7417179 M 71.074242,5.1224548 C 78.923669,5.0875171 86.790114,5.5934015 94.916229,6.5225 99.270318,7.0203244 103.31828,6.9210392 107.22467,6.650986 M 89.031049,2.6254965 C 97.004967,2.5256141 104.46486,2.5128433 112.02288,2.294375 116.34737,2.1693734 120.83006,2.1527995 125.35027,2.1228175 M 72.504842,6.3727916 C 80.456038,6.5991715 88.109108,6.1188881 96.009197,5.61 103.62277,5.1195682 111.04921,5.6062392 118.61513,5.7177217 M 104.49199,5.482196 c 7.73522,0.2442283 15.24159,-0.2782088 22.82189,-0.8761555 M 99.162787,3.96 h 7.457033 m -13.918248,0 h 9.507808"
         id="path2"
         style="stroke:#000000;stroke-width:2.31648124;stroke-dasharray:none"
         inkscape:original-d="M 70.392014,3.96 H 129.6078" />
      <path
         d="m 56.592434,116.80292 c -3.727997,6.73163 -7.104936,14.07511 -10.872395,21.37458 l -10e-7,0 c -3.769074,7.30259 -7.248073,13.535 -11.295939,19.73323 l -2e-6,0 c -3.48037,5.32926 -5.847256,12.14911 -8.178651,19.01087 m 12.778463,-23.60775 c -3.359991,6.9104 -7.050713,14.0585 -10.70412,21.31184 -1.182754,2.3482 -2.343092,4.65047 -3.49832,6.93769 -1.766223,3.47464 -1.403552,7.21782 0.311375,10.15267 0.89501,1.53168 2.157388,2.84022 3.679038,3.77688 1.394596,0.85845 3.05756,1.35871 4.909482,1.38082 2.119275,0.0399 4.289238,0.0573 6.495088,0.0722 M 26.384471,184.18873 c -0.119203,2.19431 0.451247,4.33698 1.545425,6.13959 1.732185,2.85369 4.777235,4.84785 8.419855,4.80554 2.027364,-0.009 4.03959,-0.0195 6.046803,-0.0338 l 2e-6,0 c 7.318409,-0.0522 15.692295,-0.0536 23.733331,-0.1625 5.406018,-0.0732 10.404335,0.0283 15.231594,0.20334 m -30.237753,1.69673 c 7.53311,0.0476 15.332749,-0.26096 22.673644,-0.78132 5.697649,-0.40387 11.82194,-0.11431 17.771526,0.13286 M 80.4804,195.75324 c 7.551733,0.0665 15.230695,-0.0102 22.37362,-0.0438 7.14599,-0.0337 15.94773,-0.14565 24.52083,-0.425 l 0,0 c 1.69486,-0.0552 3.31609,-0.0881 4.88212,-0.1053 m -15.93843,1.41458 c 7.80541,-0.0769 15.29678,0.0373 22.56705,0.12509 l 0,0 c 7.27338,0.0879 15.64934,-0.36685 23.62083,-1.1 0.40875,-0.0376 0.81719,-0.0709 1.22539,-0.10013 2.62499,-0.17045 4.91474,-1.06577 6.72675,-2.47085 m -23.22331,2.9396 c 5.48509,-0.0749 10.99852,0.0636 16.51551,0.29886 2.45334,0.12153 4.63565,-0.57816 6.35745,-1.79647 0.97207,-0.68781 1.78803,-1.56944 2.41325,-2.58308 1.73058,-2.80569 2.01035,-6.63744 0.0729,-10.23578 -1.54864,-2.89311 -3.15402,-5.82993 -4.81256,-8.73381 -3.32043,-5.81364 -5.56662,-11.09686 -7.80221,-16.45918 m 10.43665,13.81042 c -3.72575,-7.20528 -6.92722,-13.66252 -10.3411,-20.1365 -3.37011,-6.39097 -6.57933,-13.97073 -9.42525,-21.36682 m 5.25015,13.57404 c -3.69902,-7.17011 -7.28151,-13.87155 -11.39113,-20.76779 -1.51889,-2.54882 -2.85823,-5.15376 -4.11297,-7.80579 -4.85041,-0.14109 -9.45441,-0.41935 -14.28426,-0.78983 -0.93082,-0.0714 -1.86114,-0.12185 -2.79036,-0.15453 m 15.10889,3.1574 c -7.95081,-0.20157 -15.14959,0.0965 -22.12936,0.28151 -6.98276,0.18504 -15.56468,0.20017 -23.370829,0.61249 l -3e-6,0 c -4.836451,0.25547 -9.726801,0.0909 -14.688863,-0.20039 m 18.425741,-0.91852 c -7.718391,-0.12441 -15.637081,0.37023 -23.579656,1.09391 -4.787605,0.43622 -9.317982,0.17253 -13.699638,-0.31272 -1.183073,2.44429 -2.301424,4.79216 -3.386204,7.18096 -0.283678,0.62469 -0.583802,1.27082 -0.897845,1.9352 m -1.207618,-3.41813 c -3.723424,6.96236 -6.619296,14.03759 -9.409901,21.24928 -2.791802,7.21478 -7.210263,13.66877 -11.18969,20.15198 l -2e-6,1e-5 c -3.048454,4.96649 -5.519397,10.7163 -8.080401,16.61068 m 13.245917,-31.61098 c -3.694489,7.19719 -6.81704,13.94404 -9.997439,20.97398 -1.477262,3.26533 -3.048878,6.5811 -4.624776,9.97057 -1.680446,3.59051 -1.254006,7.53156 0.633994,10.69767 0.26969,0.45226 0.569185,0.88865 0.89661,1.30587 m 3.708248,-15.77474 c -0.720044,1.45572 -1.436412,2.90609 -2.147577,4.35007 -1.672396,3.37297 -1.212588,7.02588 0.670482,9.78162 1.451492,2.12415 3.753615,3.72052 6.58068,4.22774 0.83811,0.15037 1.70931,0.21638 2.60558,0.1837 6.530665,-0.19367 12.488647,0.0512 18.527559,0.0854 m -12.10139,0.063 c 7.780605,-0.0498 15.46009,0.11289 23.060826,0.35631 5.231004,0.16754 10.76025,0.0347 16.422756,-0.16089 m -14.858042,2.44202 c 7.64967,-0.0998 15.50051,-0.0648 23.192244,-0.19988 7.187331,-0.12621 14.705597,0.12468 22.354327,0.42866 m -20.639137,-3.44445 c 7.641007,-0.13309 15.095947,-0.0421 21.961007,-0.12483 l 0,0 c 6.868,-0.0827 15.72301,0.32301 23.83958,0.96875 l 0,0 c 6.83598,0.54386 13.21212,-0.0184 19.73162,-0.53474 m -26.95213,1.6973 c 7.95306,0.0434 15.35312,-0.27769 22.7356,-0.83131 3.85662,-0.28921 7.97906,-0.24388 12.19938,-0.0999 3.98164,0.16237 7.3453,-1.6476 9.29391,-4.39633 0.12986,-0.18319 0.2534,-0.37052 0.37039,-0.5617 1.29283,-2.11267 1.68532,-4.72666 0.90156,-7.34085 m -8.62003,13.21381 c 1.77351,-0.80209 3.24386,-2.11345 4.27476,-3.70613 1.81172,-2.799 2.2658,-6.46807 0.65077,-9.77926 -0.98388,-2.03119 -1.9539,-4.04124 -2.91183,-6.01279 l 0,0 c -3.17189,-6.52822 -7.14126,-13.97215 -10.97714,-21.05201 -3.36553,-6.21175 -5.86426,-12.53051 -8.22059,-19.20643 m 7.24234,17.61274 c -3.32663,-6.79813 -6.96575,-14.03761 -10.46036,-21.25577 -2.56545,-5.29896 -5.26773,-10.38052 -8.12471,-15.56304 -2.17996,-0.0287 -4.38028,-0.0707 -6.60181,-0.1411 -6.83308,-0.2167 -13.01931,-0.10159 -19.49766,-0.0853 m 21.77421,-1.81465 c -7.86601,0.008 -15.65969,-0.29806 -23.66071,-0.89376 -8.00446,-0.59596 -15.409215,-0.0242 -22.895832,-0.0687 l -3e-6,0 c -6.129953,-0.0364 -12.653056,0.10259 -19.086496,0.34412 m 20.388482,3.17149 c -7.740887,-0.0104 -15.203474,-0.0242 -22.292126,-0.075 -2.739895,-0.0196 -5.673735,-0.0251 -8.683171,-0.0252 -2.143807,4.26772 -4.478324,8.54922 -6.529351,12.80988 -2.815017,5.84772 -5.833547,11.58871 -8.799093,17.20361 m 13.224507,-26.35224 c -3.258139,6.90622 -7.067124,14.02328 -10.748001,21.19935 -3.439494,6.70549 -6.334075,12.87915 -9.165456,19.06561 m 4.201993,-14.70803 c -3.588418,7.19739 -6.760901,14.18642 -9.847575,21.70522 -1.833267,4.46564 -3.91614,8.51178 -6.001681,12.49289 -1.567762,2.97321 -1.412462,6.18079 0.0017,8.85809 0.153721,0.29102 0.320522,0.57536 0.499771,0.85191 1.829125,2.82204 4.952804,4.82745 8.669757,4.83518 1.585088,0.0147 3.157592,0.034 4.721923,0.0545 m -15.1471,-5.61335 c 0.08457,0.15019 0.17249,0.29832 0.263684,0.44425 1.843252,2.94961 5.016987,4.99555 8.840269,5.0476 4.108185,0.0846 8.196071,0.19753 12.333747,0.43196 4.37086,0.24765 8.834868,0.1708 13.41305,0.002 m -10.860731,1.87325 c 7.807899,0.0183 15.774338,-0.48286 24.01079,-1.45002 l 3e-6,0 c 8.239982,-0.96758 15.305369,0.18801 22.570831,0.56249 3.224324,0.1662 6.738133,0.23859 10.406703,0.31543 m -16.445734,-0.73116 c 8.021513,-0.0875 15.177444,-0.2138 22.191764,-0.65614 5.44418,-0.34332 12.00454,-0.11683 18.60964,0.0607 m -12.30969,0.76761 c 7.58325,0.18492 15.61718,-0.12234 23.52983,-0.35649 l 0,1e-5 c 7.91604,-0.23425 15.41521,0.19676 22.90208,0.58124 l 0,0 c 0.42978,0.0221 0.86138,0.0408 1.29466,0.0562 3.71544,0.15933 6.89152,-1.93238 8.69077,-4.95248 1.72789,-2.90032 2.19719,-6.67509 0.6928,-10.22733 m -7.99125,13.20702 c 2.78566,-0.67334 5.02527,-2.36318 6.41792,-4.5461 1.79872,-2.81941 2.17864,-6.45721 0.47563,-9.75313 -0.71943,-1.40162 -1.43217,-2.79805 -2.1319,-4.19161 l 0,-1e-5 c -3.34384,-6.6595 -7.25235,-14.03061 -11.32089,-21.22076 -3.64117,-6.43489 -6.07825,-12.43317 -8.56587,-18.50426 m 11.10573,17.7546 c -3.6138,-7.05574 -7.28021,-13.83468 -11.39125,-20.64293 -2.49193,-4.12687 -4.43172,-8.51668 -6.2366,-13.07095 m 5.79898,9.96627 c -2.74972,-5.17205 -5.30439,-10.39098 -7.96057,-15.72625 -2.06796,-0.0727 -4.14871,-0.16005 -6.25553,-0.26518 l 0,0 c -8.04488,-0.40142 -15.63274,0.10235 -23.57708,0.30625 l 0,0 c -5.57376,0.14306 -10.90271,0.1366 -16.163346,0.18768 m 25.730416,0.53449 c -7.66603,0.22836 -15.18046,-0.37274 -22.21098,-1.1128 l 0,0 c -7.033524,-0.74037 -15.81133,-0.0945 -24.102076,-0.29374 l -3e-6,0 c -2.319133,-0.0558 -4.53521,-0.07 -6.681605,-0.0556 m 13.087485,-0.43468 c -7.552144,0.26176 -15.711671,-0.20285 -23.811119,-0.61284 -0.03188,-0.002 -0.06376,-0.003 -0.09562,-0.005 -3.787679,6.52637 -7.012216,13.9941 -10.638527,21.19344 -1.786325,3.5464 -3.442883,7.02424 -5.024729,10.53 m 45.574403,51.23885 h 8.476562 m 51.515323,-67.12607 -3.42756,-6.84617"
         fill="#ccaaee"
         id="path4"
         style="fill:none;stroke:#000000;stroke-width:2.31648124;stroke-dasharray:none"
         inkscape:original-d="m 58.55346,115.08941 -33.09524,66.10368 c -3.44588,6.83785 1.563095,14.89468 9.219974,14.84131 H 165.32162 c 7.65718,0.053 12.66589,-8.00346 9.22011,-14.84131 l -33.09504,-66.10368 z" />
    </g>
    <path
       id="path3"
       style="fill:#000000;fill-opacity:0.188235;stroke:none;stroke-width:1.03763018;stroke-dasharray:none"
       d="M 26.650174,51.248113 11.826365,80.858112 c -1.543524,3.062899 0.699619,6.67205 4.12939,6.648143 h 58.520099 c 2.636256,0.01823 4.563003,-2.110829 4.616693,-4.487212 -0.04642,8.96e-4 -0.09049,0.0082 -0.137355,0.0079 L 21.520807,82.555808 c -3.429771,0.02392 -5.310717,-2.339863 -3.767193,-5.402762 L 28.887218,51.248122 Z"
       sodipodi:nodetypes="cccccccccc" />
  </g>
</svg>
