<?xml version="1.0" encoding="UTF-8" standalone="no"?>
<svg
   height="200"
   width="200"
   version="1.1"
   id="svg4"
   sodipodi:docname="resource-research.svg"
   inkscape:version="1.3.2 (091e20ef0f, 2023-11-25, custom)"
   xmlns:inkscape="http://www.inkscape.org/namespaces/inkscape"
   xmlns:sodipodi="http://sodipodi.sourceforge.net/DTD/sodipodi-0.dtd"
   xmlns="http://www.w3.org/2000/svg"
   xmlns:svg="http://www.w3.org/2000/svg">
  <defs
     id="defs4">
    <inkscape:path-effect
       effect="sketch"
       id="path-effect6"
       is_visible="true"
       lpeversion="1"
       nbiter_approxstrokes="3"
       parallel_offset="2;1"
       strokelength="70"
       strokelength_rdm="0.3;1"
       strokeoverlap="0.5"
       strokeoverlap_rdm="0.5;1"
       ends_tolerance="0.1;1"
       tremble_size="0.8;1"
       tremble_frequency="3"
       nbtangents="2"
       tgt_places_rdmness="0.5;1"
       tgtlength="5"
       tgtlength_rdm="0.3;1"
       tgtscale="10" />
  </defs>
  <sodipodi:namedview
     id="namedview4"
     pagecolor="#ffffff"
     bordercolor="#000000"
     borderopacity="0.25"
     inkscape:showpageshadow="2"
     inkscape:pageopacity="0.0"
     inkscape:pagecheckerboard="0"
     inkscape:deskcolor="#d1d1d1"
     inkscape:zoom="2.0000001"
     inkscape:cx="78.499998"
     inkscape:cy="120.5"
     inkscape:window-width="1440"
     inkscape:window-height="831"
     inkscape:window-x="0"
     inkscape:window-y="0"
     inkscape:window-maximized="1"
     inkscape:current-layer="svg4"
     showgrid="false" />
  <path
     d="m 58.55346,115.08941 -33.09524,66.10368 c -3.44588,6.83785 1.5631,14.89468 9.21997,14.84131 h 130.64343 c 7.65718,0.053 12.66589,-8.00346 9.22011,-14.84131 l -33.09504,-66.10368 z"
     fill="#ccaaee"
     id="path6"
     style="stroke:none;stroke-width:3.33603" />
  <g
     id="g6"
     inkscape:path-effect="#path-effect6"
     style="stroke-width:1;stroke-dasharray:none">
    <path
       d="m 80.374808,10.848151 c 0.234849,7.595664 -0.07479,15.551693 -0.231552,23.317314 -0.15683,7.768949 -0.133137,15.420629 -0.39375,22.93333 v 3e-6 c -0.107717,3.105144 -0.09979,6.310104 -0.03219,9.559178 m 0.538147,-21.993081 c -0.222231,7.400231 0.02609,14.758938 0.138097,21.844329 0.0046,0.270839 0.0029,0.54095 -0.005,0.810138 -0.07951,2.726238 -0.786637,5.537046 -2.060692,8.177003 -2.154139,4.456574 -4.311431,9.118955 -6.397344,13.655181 -0.507791,1.104291 -1.021142,2.198895 -1.538209,3.286549 m 4.429147,-9.565815 c -3.639629,6.821085 -6.607539,13.777161 -9.370616,20.46291 h -10e-7 c -2.764262,6.68862 -7.274223,14.27566 -11.369047,21.95293 -0.972677,1.82365 -1.859501,3.54252 -2.68509,5.18575 m 7.697509,-13.78301 c -3.635539,6.95418 -6.686697,13.82824 -9.626872,20.62524 h -1e-6 c -2.941435,6.79991 -6.911071,14.05534 -10.294047,21.30293 -2.884909,6.18055 -6.083926,12.14506 -9.418341,18.44089 m 12.338407,-29.78581 c -3.336484,7.05177 -7.040803,13.69298 -10.671007,20.21262 -2.257797,4.05487 -4.433035,8.3806 -6.632842,12.6623 -1.465991,2.83436 -1.45895,5.86666 -0.426792,8.34866 0.20074,0.48271 0.444076,0.95214 0.726666,1.40282 1.735746,2.76825 4.945855,4.82065 8.895168,4.94943 0.191651,0.008 0.383453,0.0153 0.575398,0.0232 m -7.926991,-14.23288 c -0.0867,0.18937 -0.173769,0.37861 -0.261199,0.56772 -1.609642,3.4567 -1.227619,7.15832 0.531062,10.00504 1.753932,2.83904 4.868406,4.802 8.679709,4.73099 0.579601,-0.007 1.16032,-0.0134 1.742482,-0.0199 h 10e-7 c 7.781642,-0.0872 15.306129,-0.22447 22.570832,-0.68125 2.159823,-0.13579 4.408841,-0.20468 6.706306,-0.24281 m -16.779558,1.8085 c 7.976267,0.0503 15.749651,0.51611 23.929323,1.55619 h 3e-6 c 8.183178,1.04053 15.659983,-0.47419 23.65833,-1.4375 1.928031,-0.23221 3.817366,-0.32716 5.677346,-0.32543 m -14.755896,-1.03413 c 7.805447,-0.14553 15.337636,-0.01 22.704546,-0.0186 7.37006,-0.009 15.6329,-0.14278 23.57083,-0.43749 v -1e-5 c 0.85301,-0.0317 1.70477,-0.0546 2.5559,-0.0699 m -13.91041,10e-4 c 7.8784,0.10988 15.55542,-0.34536 23.3482,-1.0439 5.91326,-0.53005 11.72525,-0.22613 17.45966,-0.006 1.95009,0.0889 3.7144,-0.39631 5.18757,-1.30601 1.33845,-0.82651 2.46921,-1.96969 3.30634,-3.30219 1.75843,-2.79899 2.21514,-6.43869 0.60128,-9.6866 -0.35395,-0.71746 -0.7066,-1.43152 -1.05903,-2.14182 m -11.74357,17.74544 c 1.52204,0.009 3.05368,0.01 4.59565,0.002 3.89361,0.007 7.17399,-2.05855 9.12169,-5.00643 1.57082,-2.37746 2.27237,-5.31888 1.76359,-8.23894 -0.12327,-0.70751 -0.33323,-1.40772 -0.63509,-2.09117 -2.83227,-6.45967 -6.80487,-12.44907 -10.50842,-18.59562 -2.98033,-4.94629 -5.14849,-10.13949 -7.20571,-15.37396 m 10.5779,24.23648 c -3.40921,-7.01469 -7.00336,-14.08737 -10.57089,-21.41267 -3.56906,-7.32844 -7.01537,-14.15236 -10.59403,-21.57794 h -1e-5 c -1.66784,-3.46072 -3.26306,-6.69003 -4.81398,-9.83192 m 8.71838,19.23774 c -3.46529,-7.04613 -6.95079,-14.38736 -10.42082,-22.30013 v 0 c -3.47152,-7.91616 -6.81841,-13.41118 -10.00653,-19.365436 v -3e-6 c -2.23679,-4.177508 -4.69577,-9.348585 -7.07493,-14.476232 m 12.83329,25.695731 c -3.32399,-6.723155 -7.01657,-13.512155 -10.62101,-19.669295 -1.15163,-1.967219 -2.26738,-4.107961 -3.35927,-6.344487 -1.39807,-2.867475 -2.07401,-6.185225 -1.99247,-9.539418 0.0524,-2.23747 0.11101,-4.472434 0.16837,-6.656313 0.10677,-4.065151 0.0699,-7.982864 -0.0269,-11.84097 m 0.35061,21.038003 c -0.13738,-1.016685 -0.20291,-2.041175 -0.19417,-3.066429 0.052,-6.849027 0.0656,-13.535005 0.19853,-20.364642 0.15284,-7.851885 0.0607,-15.463987 0.19375,-23.064581 l 1e-5,-2e-6 c 0.0274,-1.564942 0.0385,-3.147406 0.0367,-4.742844 m -0.78988,11.133463 c -0.002,-7.668719 0.19225,-15.896476 0.58125,-24.3859692 0.007,-0.1422504 0.0127,-0.2841278 0.0187,-0.4256422 M 79.605882,10.081154 c 0.09779,7.743446 0.100974,15.765309 0.306124,23.960873 0.205238,8.199078 0.17389,15.618179 0.51875,23.514583 0.174016,3.984519 0.188552,7.857886 0.176195,11.66555 -0.0042,1.866908 -0.286151,3.703178 -0.81722,5.457897 M 79.296116,45.4969 c -0.193329,7.299547 -0.178268,14.492665 -0.469783,21.58467 -0.01863,0.464169 -0.05524,0.92697 -0.109788,1.387544 -0.309236,2.611237 -1.092639,5.243456 -2.36033,7.718633 -2.383629,4.647126 -4.727947,9.48083 -7.328781,14.303881 -3.658624,6.784641 -6.424453,12.509782 -9.454604,18.164002 M 74.626353,79.78581 c -3.361061,6.729738 -6.608254,13.919847 -9.395975,20.90053 -2.788916,6.98367 -6.992874,14.21148 -10.544047,21.77793 h -1e-6 c -3.340457,7.11748 -6.912038,13.23546 -10.886973,19.87696 m 17.472692,-30.43086 c -3.286622,6.87063 -7.076504,13.37676 -10.777321,19.28784 l -1e-6,1e-5 c -3.702403,5.91361 -6.95235,13.93594 -10.400297,20.95293 -1.606928,3.27029 -3.149953,6.55787 -4.619743,9.88179 m 5.230702,-14.62546 c -3.230128,6.78197 -6.650489,14.21463 -9.521144,21.78172 -1.933019,5.09546 -4.373287,9.65119 -6.762601,14.22667 -1.263029,2.40253 -1.415563,4.97685 -0.676616,7.33895 0.28881,0.9232 0.69205,1.79609 1.195128,2.59356 1.785222,2.82989 4.851695,4.72951 8.461154,4.46663 0.983532,-0.0643 1.95991,-0.13631 2.930588,-0.21538 M 26.151626,178.12597 c -0.326554,0.66626 -0.658145,1.33728 -0.994291,2.01252 -1.693904,3.37927 -1.373535,7.14589 0.295306,10.0902 1.667883,2.94263 4.678659,5.05433 8.327354,5.14004 0.02444,7.6e-4 0.04889,0.002 0.07333,0.002 h 2e-6 c 7.406021,0.22769 15.8971,-0.17283 24.364582,-0.525 7.071991,-0.29413 12.888185,-0.1399 18.657766,-0.14716 m -27.893929,3.05311 c 7.624895,-0.23288 15.700324,-0.0562 23.779775,-0.16845 h 4e-6 c 8.082915,-0.11235 15.559295,0.003 23.34583,0 7.324505,-0.003 14.532965,-0.18036 21.655275,-0.54708 m -33.013804,-1.72513 c 7.926281,-0.26201 15.641094,-0.0819 23.610634,-0.24342 v 1e-5 c 7.97296,-0.16156 15.59901,0.035 23.45833,0.0937 h 1e-5 c 6.61932,0.0495 12.98973,0.28347 19.25794,0.80259 m -33.27434,-0.53361 c 7.88868,0.17663 15.43218,-0.0878 22.97319,-0.26272 7.42308,-0.17217 15.36495,0.0574 23.15812,0.19937 0.12792,0.003 0.25507,0.004 0.38142,0.003 3.7174,-0.0354 6.70501,-2.01864 8.33521,-4.8262 1.68622,-2.90403 1.9345,-6.71228 0.0156,-10.21618 -0.39265,-0.72141 -0.78661,-1.44275 -1.18145,-2.16359 m -18.59113,16.60958 c 3.76643,-0.11136 7.48485,-0.15494 11.19003,-0.20685 3.81754,-0.027 6.96204,-2.08509 8.73521,-5.07097 0.29821,-0.50215 0.55761,-1.03051 0.77489,-1.57986 1.07282,-2.71239 1.0469,-5.82061 -0.5291,-8.66668 -2.39351,-4.34946 -4.97179,-8.60652 -7.73199,-13.01771 -3.05672,-4.88509 -4.99009,-9.51818 -6.73647,-14.00986 m 12.71387,24.04309 c -3.59832,-6.79001 -6.92619,-13.90633 -10.33315,-20.85045 v -1e-5 c -3.40843,-6.94709 -7.03964,-13.88037 -10.68778,-20.77793 v -1e-5 c -0.50746,-0.95945 -1.00578,-1.91484 -1.49631,-2.86571 m 7.68349,12.62662 c -3.25144,-7.16212 -7.26181,-13.89549 -11.3336,-20.81873 v 0 c -4.07354,-6.9262 -6.92019,-13.52631 -10.30653,-19.71544 v 0 c -2.11395,-3.863602 -4.36354,-8.396894 -6.67963,-13.041592 m 9.448,20.919462 c -3.56506,-6.7506 -6.92383,-13.999298 -10.3332,-21.138011 -2.05327,-4.299242 -4.20856,-8.496067 -6.42049,-12.710562 -1.46783,-2.800251 -2.30639,-5.886749 -2.45106,-9.063435 -0.003,-0.07615 -0.006,-0.15229 -0.009,-0.228413 -0.0656,-1.894018 -0.104,-3.763435 -0.12648,-5.61533 m 4.54713,16.168042 c -0.0287,-0.05415 -0.0574,-0.108346 -0.0861,-0.162582 -1.4651,-2.774867 -2.21732,-5.952747 -2.21907,-9.240262 -0.007,-4.690392 0.003,-9.521404 -0.0325,-14.377276 -0.0602,-8.315267 0.29815,-15.394474 0.90625,-22.839581 v -2e-6 c 0.31761,-3.888606 0.3251,-8.003512 0.2823,-12.201789 M 119.1538,41.08138 c 0.0271,-7.874234 0.0468,-15.55344 0.12497,-23.341954 0.0414,-4.12504 0.13923,-8.2854465 0.33132,-12.4874079 M 78.102336,8.3396325 c -0.228872,7.6541825 -0.229523,15.9137255 -0.693455,24.4297385 -0.464131,8.519663 0.239747,15.482673 0.7125,23.11458 v 3e-6 c 0.218666,3.530047 0.230693,7.081981 0.176286,10.612454 M 81.149388,43.61034 c -0.09133,7.558275 0.162479,15.588529 0.500118,23.436111 0.0026,0.05985 0.0051,0.11969 0.0075,0.179507 0.134705,3.210135 -0.647273,6.331624 -2.214463,9.115475 -2.242718,3.978052 -4.69775,7.878843 -7.160965,11.746505 -2.051965,3.221931 -3.755496,6.613961 -5.364166,10.058142 M 76.78878,82.679138 c -3.714659,7.062444 -6.829603,14.020861 -10.03927,21.212602 h -2e-6 c -3.211042,7.19482 -7.207291,13.59606 -11.175295,19.92168 h -2e-6 c -2.965303,4.72716 -5.166335,10.28636 -7.20902,15.89256 m 12.956177,-24.33682 c -3.523621,6.7443 -7.085237,13.92675 -10.820766,20.91926 -3.737129,6.99552 -6.803758,13.81312 -9.975296,20.58418 l -2e-6,1e-5 c -2.604251,5.55993 -5.82691,11.42622 -9.147085,17.29528 M 43.94026,145.20044 c -3.313365,7.16199 -6.746237,13.74818 -9.796036,20.39372 -2.042872,4.45143 -4.676198,9.11195 -7.514101,13.70461 -1.524089,2.45215 -1.951642,5.04898 -1.540032,7.3164 0.15444,0.85076 0.453415,1.67019 0.876489,2.43202 1.551223,2.79329 4.766004,4.8137 8.724741,4.83932 0.712328,0.009 1.426734,0.0196 2.141308,0.0301 m -9.93269,-13.11616 c -0.318652,0.61156 -0.636724,1.22155 -0.954565,1.83009 -1.801054,3.42586 -1.475552,7.12148 0.197829,9.93176 1.672429,2.80867 4.702618,4.74066 8.278221,4.61441 0.10506,-0.003 0.210028,-0.006 0.314902,-0.009 h 2e-6 c 7.236928,-0.20331 15.683004,-0.0122 23.727081,-0.0312 6.209328,-0.0147 12.265587,-0.0512 18.535249,-0.13912 m -28.056153,-1.19232 c 7.776613,-0.15398 15.653391,-0.16091 23.63583,-0.4873 l 3e-6,-1e-5 c 7.985861,-0.32653 15.4886,-0.003 23.139581,-0.025 1.118051,-0.003 2.235453,-0.006 3.351063,-0.009 m -14.437067,2.01828 c 7.942475,-0.22431 15.130319,0.23712 22.073115,0.71279 v 0 c 6.94578,0.47588 15.67944,0.1189 23.71458,0.3625 v 0 c 7.67136,0.23257 14.93342,-0.25655 22.46606,-0.83036 m -30.64932,-0.10073 c 7.94692,0.12265 15.46633,-0.005 23.08561,-0.0127 7.06304,-0.007 14.30007,0.0343 21.33936,0.10214 0.57147,0.01 1.12652,-0.0282 1.66245,-0.10922 2.97088,-0.44889 5.51226,-2.24855 7.12709,-4.67203 1.91044,-2.86711 2.5209,-6.586 1.12562,-10.00868 -0.14884,-0.36804 -0.29691,-0.73593 -0.44431,-1.10365 m -19.68745,12.31978 c 2.93613,0.0664 5.98484,0.0767 9.1046,0.0602 3.94593,0.006 7.30801,-2.05226 9.30696,-4.95749 0.74219,-1.07868 1.29704,-2.27446 1.62587,-3.52624 0.5569,-2.12005 0.38068,-4.39653 -0.68634,-6.53007 -2.44323,-4.91876 -5.20184,-9.74567 -7.68433,-14.55809 -0.68073,-1.31965 -1.37153,-2.66217 -2.07257,-4.02306 m 5.88649,15.98811 c -3.46293,-7.19513 -6.61956,-13.60183 -9.42707,-19.96243 v -1e-5 c -2.80872,-6.36333 -7.03563,-14.11609 -10.65653,-21.47793 v -1e-5 c -2.41313,-4.90625 -4.65516,-9.33792 -6.85175,-13.65517 m 11.73052,21.03667 c -3.21604,-7.15777 -7.20063,-13.65819 -11.17115,-20.12499 v 0 c -3.97221,-6.46957 -6.69519,-13.92829 -9.63153,-20.92794 v 0 c -2.44208,-5.821461 -5.6983,-11.800895 -8.82894,-18.021039 m 12.89785,28.198629 c -3.49454,-6.99374 -7.12429,-13.903652 -10.92079,-20.843944 -2.05196,-3.751148 -3.89041,-7.509175 -5.66622,-11.267566 -1.34421,-2.848867 -1.96968,-5.991337 -1.8805,-9.174094 0.011,-0.405352 0.0215,-0.810661 0.0314,-1.215923 0.0504,-2.064658 0.0952,-4.139218 0.14556,-6.223277 m 1.48856,14.593622 c -1.11708,-2.474998 -1.65655,-5.158318 -1.5964,-7.862817 0.10514,-4.94191 0.35535,-9.855664 0.64353,-14.617938 l -10e-6,-2e-6 c 0.44533,-7.359401 -0.23179,-15.606463 -0.69375,-23.477081 -0.13734,-2.339963 -0.16635,-4.663908 -0.12325,-6.978966 m -1.36458,16.621287 c -0.25765,-7.728719 0.14544,-15.560558 0.45033,-23.354642 0.0854,-2.182857 0.12552,-4.369228 0.14038,-6.560765 M 69.014611,196.03974 h 8.042968 M 129.31678,90.839486 126.10489,84.422664"
       fill="#ffffff"
       id="path1"
       style="fill:none;stroke:#000000;stroke-width:1;stroke-dasharray:none"
       inkscape:original-d="m 79.521381,3.96 v 64.36434 c 0.003,3.18457 -0.736928,6.326105 -2.16041,9.174403 L 25.457653,181.19275 c -3.445881,6.83786 1.558458,14.90036 9.215537,14.84699 h 130.65377 c 7.65684,0.053 12.66121,-8.00913 9.21543,-14.84699 L 122.63918,77.498743 c -1.42382,-2.848298 -2.16342,-5.989833 -2.16041,-9.174403 V 3.96" />
    <path
       d="M 75.754531,4.7757964 C 83.464607,4.9091052 91.392759,5.0804315 99.346697,5.694375 107.20425,6.3008785 114.83007,5.5015026 122.73494,5.0549652 M 71.083518,5.5411857 C 78.85613,5.4912215 86.920522,5.4579443 95.281854,5.285 h 10e-7 C 103.64677,5.1119816 110.56872,5.1100905 117.82143,4.7475001 l 10e-6,-1e-7 c 2.6798,-0.1339734 5.5085,-0.123712 8.4068,-0.023465 M 72.59811,5.4477622 C 80.175258,5.6514205 88.377122,5.3643391 96.615447,5.19125 l 3e-6,-1e-7 c 8.24186,-0.1731632 15.68846,-0.4338265 23.72708,-1.2874996 v -3e-7 c 2.0941,-0.2223862 4.1409,-0.3201353 6.15446,-0.3386379 M 99.162787,3.96 h 7.457033 m -13.918248,0 h 9.507808"
       id="path2"
       style="stroke:#000000;stroke-width:1;stroke-dasharray:none"
       inkscape:original-d="M 70.392014,3.96 H 129.6078" />
    <path
       d="m 55.546028,119.88466 c -3.364034,7.11385 -6.917012,13.72482 -10.304114,20.33034 -3.388554,6.60834 -7.106636,13.89456 -10.87719,20.82073 h -2e-6 c -3.745658,6.88044 -6.754156,14.27991 -9.865145,22.10834 m 14.409059,-32.90469 c -3.667554,7.11188 -6.922244,13.85609 -10.334973,20.71784 -1.71485,3.44793 -3.492366,6.91317 -5.305863,10.36193 -1.786531,3.37589 -1.479908,7.04649 0.206131,9.82213 0.190277,0.31325 0.39812,0.61508 0.6225,0.90377 1.763567,2.26905 4.623819,3.80543 8.049667,3.75676 3.248776,-0.0237 6.536476,-0.0351 9.816744,-0.0809 M 24.426783,182.48477 c -1.078076,3.20259 -0.582512,6.42166 1.022924,8.89977 1.787307,2.75884 4.954446,4.58995 8.808652,4.32512 1.195342,-0.0739 2.394444,-0.1508 3.599226,-0.22838 h 2e-6 c 7.902022,-0.50888 15.604129,0.0362 23.470831,0.11874 6.293661,0.0661 12.58666,0.15289 19.012816,0.38143 m -26.602077,-1.41566 c 8.034337,0.11229 15.588172,0.0358 23.454248,0.11861 h 3e-6 c 7.869448,0.0829 15.411348,0.17074 22.902082,0.51875 4.09678,0.19033 8.28026,0.0605 12.41001,-0.22004 m -23.06622,0.24531 c 7.736885,0.20747 15.38625,-0.48472 22.82963,-1.45027 v 0 c 7.44657,-0.96596 15.46608,0.15458 23.07083,0.45625 v 0 c 4.07893,0.1618 8.21948,0.19744 12.3428,0.24743 m -23.22363,4.15536 c 7.5978,-0.2599 15.61258,-0.048 23.50481,-0.14342 5.54265,-0.067 10.8568,-0.0544 16.06354,-0.0589 2.38275,0.0152 4.47531,-0.83655 6.07716,-2.23708 0.85268,-0.74552 1.59264,-1.64206 2.18459,-2.64247 0.79303,-1.34026 1.31931,-2.86505 1.49613,-4.46008 m -12.79724,6.95181 c 0.81808,0.0132 1.63541,0.0236 2.45273,0.0318 3.93389,0.0658 7.20151,-1.95039 9.13498,-4.82719 1.94131,-2.88846 2.52705,-6.61388 1.18834,-10.04546 0,0 0,0 0,0 0,0 -0.003,-0.007 -0.003,-0.007 -2.69954,-6.95758 -7.17896,-14.16582 -11.09321,-21.63887 -3.64191,-6.9531 -6.66934,-12.91093 -10.12241,-19.13724 m 18.60699,31.48466 c -3.70319,-6.88535 -7.27899,-13.91432 -11.39113,-20.89941 -4.1139,-6.98808 -6.5714,-14.05494 -9.25839,-21.28951 v 0 c -1.15782,-3.11736 -2.66526,-6.12862 -4.33169,-9.1018 m 6.3833,16.83144 c -3.4495,-7.02874 -7.21306,-13.86624 -11.1977,-20.73047 -0.1864,-0.3211 -0.37039,-0.64339 -0.55212,-0.96684 -7.79974,0.0358 -14.66159,-0.4099 -21.89111,-1.10877 -3.42797,-0.33137 -6.88026,-0.32764 -10.30366,-0.19278 m 21.29419,-1.04798 c -7.79938,-0.10583 -15.54247,0.21507 -23.2983,0.63139 v 0 c -7.759148,0.4165 -15.919447,-0.20345 -24.420827,-0.6125 h -3e-6 c -3.125245,-0.15037 -6.017715,-0.18562 -8.784671,-0.16739 m 15.792792,-0.0361 c -8.019723,-0.25342 -15.515178,0.24091 -23.223018,0.71907 -3.087263,0.19153 -6.147893,0.18718 -9.168549,0.0788 -1.948206,4.00801 -3.806742,7.78262 -5.530788,11.63232 -1.966669,4.39147 -4.512572,9.3675 -7.051721,14.418 M 56.286624,119.753 c -3.673774,7.08464 -6.903562,13.60412 -10.266215,19.96787 h -10e-7 c -3.364095,6.36648 -6.695452,14.15294 -9.652191,21.59574 -1.887343,4.75088 -4.329509,9.00176 -6.914435,13.13594 m 9.583859,-21.62247 c -3.430603,7.1017 -6.970454,14.10419 -10.479028,21.46785 -1.12161,2.354 -2.257584,4.59633 -3.410366,6.7672 -1.783322,3.33689 -1.484688,6.84531 0.171017,9.47649 0.877768,1.39491 2.136472,2.53953 3.663598,3.27117 1.35052,0.64702 2.94339,1.01004 4.698988,0.96132 4.82921,-0.0995 9.79883,0.0887 14.612255,0.14805 m -24.678076,-6.88247 c 0.05063,1.83003 0.602589,3.54139 1.549249,4.98229 1.832046,2.78853 5.165693,4.59354 9.251485,4.21117 2.713528,-0.23628 5.466861,-0.5219 8.246858,-0.83 8.530389,-0.9454 15.538831,0.0947 23.277081,0.275 h 2e-6 c 2.2462,0.0524 4.467607,0.0847 6.661654,0.11021 m -15.373233,-1.2225 c 7.601687,0.16403 15.303014,-0.24218 22.579805,-0.71271 7.279911,-0.47073 15.544131,0.3921 23.30833,1.16875 v 0 c 1.51674,0.15172 3.03174,0.22486 4.54477,0.2367 m -13.434701,-0.11789 c 7.572931,0.0481 15.711951,0.39031 23.811091,1.16869 h 1e-5 c 8.10261,0.77871 15.50857,-0.11517 23.18958,-0.34375 5.74004,-0.17082 11.701,-0.19555 17.75656,-0.36071 m -27.52573,-0.23923 c 7.51251,0.048 15.54727,0.23249 23.31742,0.69994 4.05455,0.24392 8.08737,0.26443 12.09704,0.26258 3.78311,0.0248 6.89504,-1.99225 8.59965,-4.76282 0.11607,-0.18865 0.22563,-0.38081 0.32846,-0.57607 0.6282,-1.19292 1.02809,-2.54077 1.14567,-3.95699 m -8.73302,9.18125 c 3.09197,-0.47608 5.64608,-2.32069 7.1749,-4.81044 1.7683,-2.87973 2.16174,-6.61785 0.42039,-10.07708 -0.58936,-1.17834 -1.18152,-2.36 -1.77818,-3.54642 v 0 c -3.56548,-7.08968 -6.74996,-13.74725 -9.80214,-20.37076 -0.93961,-2.03905 -1.93802,-4.18437 -2.95739,-6.40675 m 6.20626,11.65886 c -3.3847,-6.99107 -6.79387,-13.58034 -9.93528,-19.88676 -3.14277,-6.30913 -6.9339,-14.17661 -10.36464,-21.67701 v -1e-5 c -0.52547,-1.14878 -1.04768,-2.26261 -1.56612,-3.34738 m 3.74556,14.6667 c -2.83401,-5.71532 -5.57351,-11.32809 -8.17883,-16.86326 -1.34336,0.0365 -2.68027,0.0768 -4.01031,0.12049 v 0 c -7.39963,0.24325 -16.0206,-0.18472 -24.73958,-0.54999 l -1e-5,-1e-5 c -3.32785,-0.13941 -6.37484,-0.14818 -9.29793,-0.0879 m 20.48,-0.1088 c -7.61244,0.17041 -15.72664,-0.0627 -23.854788,-0.18772 h -10e-7 c -8.131635,-0.12504 -15.13649,-0.38947 -22.08958,-1.1625 h -3e-6 c -2.164956,-0.2407 -4.486713,-0.28538 -6.890845,-0.20431 m 15.45948,2.05116 c -7.666585,-0.0167 -15.83172,-0.12926 -24.173473,-0.39373 -1.461463,-0.0463 -2.893341,-0.0775 -4.304819,-0.0977 -3.104918,5.64176 -5.75722,11.52675 -8.916757,17.21456 -3.549172,6.38923 -6.140021,13.04348 -8.600717,19.82049 m 17.560601,-35.44811 c -3.370183,6.96014 -6.814592,13.87926 -10.004107,20.78678 -3.190881,6.91048 -6.968314,14.08236 -10.452189,21.38323 l -2e-6,1e-5 c -1.795144,3.76193 -3.70695,7.40202 -5.736428,11.06236 M 41.81835,152.93233 c -3.386875,7.00381 -6.88756,13.89628 -10.229084,20.83673 -1.212028,2.51742 -2.461745,5.01496 -3.728631,7.49115 -1.729413,3.35817 -1.371095,6.99182 0.389917,9.73546 0.762688,1.18827 1.788528,2.20903 3.020737,2.96523 1.227897,0.75355 2.645152,1.27043 4.191647,1.45084 m -13.763338,-8.88488 c 0.05035,1.80387 0.588247,3.50916 1.508834,4.96659 1.801672,2.85231 5.077994,4.76985 9.077531,4.60005 2.669656,-0.0956 5.363754,-0.20835 8.064932,-0.31535 h 2e-6 c 8.234634,-0.3262 15.351581,0.071 22.727081,0.2 3.359591,0.0588 6.927602,0.12268 10.589398,0.22845 m -17.226095,0.58738 c 7.811691,0.15595 15.346094,0.0422 22.717035,0.12479 h 3e-6 c 7.374101,0.0826 15.437206,-0.17179 22.970831,-0.52499 5.49748,-0.25775 11.26628,-0.0245 17.02133,0.29161 m -25.363078,-2.23225 c 7.805318,-0.0103 15.188638,0.15251 22.242048,0.45626 v 0 c 7.05643,0.30388 15.78134,-0.48254 24.02083,-1.45 6.5919,-0.77401 12.4323,-0.18925 18.22515,0.26736 m -29.56151,2.42637 c 7.85751,-0.0126 15.44949,-0.17897 23.01072,-0.53123 4.13246,-0.19252 8.28127,-0.23873 12.33953,-0.31304 3.65699,-0.0405 6.60835,-2.1217 8.0607,-5.17351 0.016,-0.0336 0.0318,-0.0674 0.0475,-0.10125 0.44309,-0.95947 0.78362,-1.9837 0.99439,-3.04194 m -9.14692,10.77708 c 3.38087,-0.15561 6.23648,-2.09073 7.91956,-4.79565 1.81573,-2.91811 2.28071,-6.74103 0.6372,-10.27918 -0.45329,-0.98242 -0.90737,-1.96488 -1.36371,-2.94594 v 0 c -3.34341,-7.18785 -7.10298,-13.71177 -10.87714,-20.28326 -0.49845,-0.86789 -0.98712,-1.75374 -1.46806,-2.65489 m 7.94808,8.05278 c -3.24757,-7.03905 -6.88565,-13.7625 -10.22921,-20.41796 v 0 c -3.345,-6.6583 -7.2513,-14.03132 -11.32089,-21.22075 v -1e-5 c -0.75208,-1.32863 -1.45277,-2.63868 -2.11313,-3.93462 m 8.28737,13.55019 c -3.12452,-6.10046 -6.28774,-11.99349 -9.74468,-17.87826 -1.12269,0.0197 -2.25258,0.0396 -3.39065,0.059 v 0 c -8.40946,0.14299 -15.3113,-0.42757 -22.58958,-1.275 v 0 c -3.16178,-0.36814 -6.50228,-0.36511 -9.89761,-0.19909 m 17.12221,1.26171 c -7.74748,0.0895 -15.62656,0.10229 -23.567116,0.30613 h -3e-6 c -7.943958,0.20393 -15.391725,0.10368 -22.85208,0.3 -6.099256,0.1605 -12.813962,0.17217 -19.626305,0.35143 -0.667259,1.18584 -1.338509,2.37854 -2.00947,3.58069 m 34.188799,-4.23221 c -7.911869,-0.0687 -15.804708,-0.0944 -24.091907,-0.29366 -2.584907,-0.0621 -5.041787,-0.0727 -7.416851,-0.0496 -2.286198,4.83758 -4.173745,9.83969 -6.159647,14.81513 -0.7463,1.86977 -1.572802,3.71344 -2.448772,5.54502 m 39.417067,60.90316 h 8.476562 m 51.515323,-67.12607 -3.42756,-6.84617"
       fill="#ccaaee"
       id="path4"
       style="fill:none;stroke:#000000;stroke-width:1;stroke-dasharray:none"
       inkscape:original-d="m 58.55346,115.08941 -33.09524,66.10368 c -3.44588,6.83785 1.563095,14.89468 9.219974,14.84131 H 165.32162 c 7.65718,0.053 12.66589,-8.00346 9.22011,-14.84131 l -33.09504,-66.10368 z" />
  </g>
  <path
     id="path3"
     style="fill:#000000;fill-opacity:0.188235;stroke:none;stroke-width:3.33603"
     d="m 58.552734,115.08984 -33.09375,66.10352 c -3.445876,6.83784 1.561879,14.89517 9.21875,14.8418 H 165.32227 c 5.88537,0.0407 10.18678,-4.71237 10.30664,-10.01758 -0.10363,0.002 -0.20201,0.0183 -0.30664,0.0176 L 47.101562,184.98342 c -7.656871,0.0534 -11.856032,-5.22368 -8.410156,-12.06152 l 24.855469,-57.83204 z"
     sodipodi:nodetypes="cccccccccc" />
</svg>
