<?xml version="1.0" encoding="UTF-8" standalone="no"?>
<svg
   height="90"
   width="90"
   version="1.1"
   id="svg1"
   sodipodi:docname="resource-gold.svg"
   inkscape:version="1.3.2 (091e20ef0f, 2023-11-25, custom)"
   xmlns:inkscape="http://www.inkscape.org/namespaces/inkscape"
   xmlns:sodipodi="http://sodipodi.sourceforge.net/DTD/sodipodi-0.dtd"
   xmlns="http://www.w3.org/2000/svg"
   xmlns:svg="http://www.w3.org/2000/svg">
  <defs
     id="defs1">
    <inkscape:path-effect
       effect="sketch"
       id="path-effect1"
       is_visible="true"
       lpeversion="1"
       nbiter_approxstrokes="3"
       parallel_offset="2;1"
       strokelength="70"
       strokelength_rdm="0.3;1"
       strokeoverlap="0.5"
       strokeoverlap_rdm="0.5;1"
       ends_tolerance="0.1;1"
       tremble_size="0.8;1"
       tremble_frequency="3"
       nbtangents="2"
       tgt_places_rdmness="0.5;1"
       tgtlength="5"
       tgtlength_rdm="0.3;1"
       tgtscale="10" />
    <inkscape:path-effect
       effect="sketch"
       id="path-effect4"
       is_visible="true"
       lpeversion="1"
       nbiter_approxstrokes="3"
       parallel_offset="0.2;1"
       strokelength="70"
       strokelength_rdm="0.3;1"
       strokeoverlap="0.5"
       strokeoverlap_rdm="0.5;1"
       ends_tolerance="0.1;1"
       tremble_size="0.8;1"
       tremble_frequency="3"
       nbtangents="2"
       tgt_places_rdmness="0.5;1"
       tgtlength="5"
       tgtlength_rdm="0.3;1"
       tgtscale="10" />
  </defs>
  <sodipodi:namedview
     id="namedview1"
     pagecolor="#ffffff"
     bordercolor="#000000"
     borderopacity="0.25"
     inkscape:showpageshadow="2"
     inkscape:pageopacity="0.0"
     inkscape:pagecheckerboard="0"
     inkscape:deskcolor="#d1d1d1"
     inkscape:zoom="2"
     inkscape:cx="118.5"
     inkscape:cy="90"
     inkscape:window-width="1440"
     inkscape:window-height="831"
     inkscape:window-x="0"
     inkscape:window-y="0"
     inkscape:window-maximized="1"
     inkscape:current-layer="svg1"
     showgrid="false" />
  <g
     id="g2"
     transform="matrix(0.4456595,0,0,0.4456595,0.18879876,0.49371705)"
     style="stroke-width:2.24386555;stroke-dasharray:none">
    <circle
       cx="100"
       cy="100"
       fill="#eeee88"
       r="96.040001"
       id="circle1"
       style="stroke:none;stroke-width:2.24386555;stroke-dasharray:none" />
    <path
       id="circle4"
       style="fill:#000000;fill-opacity:0.188235;stroke:none;stroke-width:2.24386555;stroke-dasharray:none"
       d="M 37.285156,27.285156 A 96.040001,96.040001 0 0 0 3.9609375,100 96.040001,96.040001 0 0 0 100,196.03906 96.040001,96.040001 0 0 0 172.71484,162.71484 96.040001,96.040001 0 0 1 110,186.03906 96.040001,96.040001 0 0 1 13.960938,90 96.040001,96.040001 0 0 1 37.285156,27.285156 Z" />
    <g
       id="g1"
       inkscape:path-effect="#path-effect1"
       style="stroke-width:2.24386555;stroke-dasharray:none">
      <path
         d="m 91.682336,66.751279 c 4.539329,-0.101326 8.903764,-0.0869 13.220254,-0.05698 -0.0686,3.391084 -0.16521,6.791218 -0.23313,10.155613 -0.15682,7.768949 -0.13313,15.42063 -0.39374,22.933331 l -1e-5,2e-6 c -0.10771,3.105146 -0.0998,6.310106 -0.0322,9.559176 m 0.53815,-21.993079 c -0.23072,7.682777 0.0446,15.319569 0.1503,22.654699 0.0775,5.38228 0.0905,11.30928 0.15696,17.25554 M 92.277022,65.710932 c 3.82262,0.01896 7.740038,-0.01162 11.654348,-0.07601 -0.035,3.761613 -0.0729,7.491543 -0.20253,11.204055 l 0,10e-7 c -0.26359,7.551124 0.35166,15.428333 1.06875,22.93958 l 0,2e-6 c 0.17034,1.784204 0.24217,3.619104 0.24447,5.493864 m 1.0617,-14.289314 c -0.0649,7.664344 -0.49342,15.642904 -1.46867,23.604724 -0.89312,7.29126 0.078,14.20511 0.66219,21.16925 M 89.039204,63.395192 c 4.8093,-0.03156 9.450691,0.08258 13.996126,0.308312 -0.12653,3.175216 -0.29225,6.395995 -0.47837,9.653438 -0.47759,8.358909 0.40034,15.582239 1.19375,23.408331 l 0,2e-6 c 0.43114,4.252675 0.36985,8.414505 0.19986,12.507035 m 0.64063,-22.987534 c -0.10585,8.019932 0.19704,15.759434 0.57514,23.973014 0.31414,6.82423 0.059,13.15288 -0.12595,19.7378 m -0.9928,-47.251753 v 8.042969 m 0,27.474684 v 7.17578"
         fill="none"
         id="path1"
         style="stroke:#000000;stroke-width:2.24386555;stroke-dasharray:none"
         inkscape:original-d="M 86.262402,64.429634 H 104.04759 V 135.57037" />
      <path
         id="circle2"
         style="fill:none;stroke:#000000;stroke-width:2.24386555;stroke-dasharray:none"
         d="m 196.5775,107.9904 c -0.23916,7.97391 -2.1498,15.22981 -4.99504,22.19637 0,0 0,0 0,0 -2.84865,6.97494 -5.57738,14.38871 -9.67718,20.72239 0,0 -1e-5,0 -1e-5,0 -0.98672,1.52437 -2.0229,3.05366 -3.10941,4.57259 m 8.4232,-13.9335 c -3.43911,6.8542 -7.48711,13.11931 -12.22879,18.15122 0,0 0,0 0,0 -4.75055,5.04132 -10.86015,11.80219 -17.57274,17.30083 -0.71984,0.58966 -1.43409,1.14962 -2.1442,1.68297 m 7.18576,-9.05329 c -5.98709,5.07022 -12.04088,9.62771 -18.72595,13.04181 0,0 0,0 0,0 -6.69175,3.41751 -13.90246,6.73669 -21.01453,9.0196 0,0 -1e-5,0 -1e-5,0 -5.43264,1.74382 -11.43534,2.62127 -17.35036,3.05718 m 29.41446,-5.84459 c -7.39399,2.93251 -15.01801,4.634 -23.02795,5.63862 -3.84732,0.48253 -7.56512,0.76915 -11.22803,0.89198 -3.960852,0.13282 -7.846899,0.0738 -11.753946,-0.13356 -5.487569,-0.29121 -11.345031,-1.83465 -17.2672,-3.93853 m 25.276688,2.44519 c -8.021682,-0.23227 -15.809331,-1.19943 -23.92746,-3.05881 0,0 -3e-6,-1e-5 -3e-6,-1e-5 -8.116546,-1.85902 -14.440118,-5.09175 -20.599591,-9.09753 -2.863988,-1.86258 -5.951113,-3.72428 -9.022304,-5.62401 m 16.802605,10.2964 c -7.124081,-2.96264 -13.92632,-7.30838 -20.204318,-12.50821 0,0 -3e-6,0 -3e-6,0 -6.282968,-5.20395 -11.630111,-10.07348 -16.204361,-15.91718 -3.208372,-4.09877 -6.440097,-8.56674 -9.370942,-13.11945 m 15.959992,23.70082 c -5.296455,-5.64073 -10.085233,-11.23156 -13.763264,-16.92959 0,0 -1e-6,0 -1e-6,0 -3.676659,-5.6959 -6.9779329,-13.87456 -8.9549372,-21.3633 -1.0042284,-3.80394 -1.8880053,-7.77121 -2.5431099,-11.89618 m 6.0514901,20.10906 C 8.2695106,130.98354 6.0753847,123.55749 5.1446485,115.63669 4.5810002,110.8399 4.15746,106.21248 4.0183073,101.63487 3.9277483,98.655814 3.9578945,95.704259 4.1473745,92.749613 4.2462841,91.20727 4.4103958,89.646228 4.6325566,88.074818 m -0.040795,10.78837 c -0.00275,-0.126299 -0.00519,-0.252448 -0.0073,-0.378449 -0.1325182,-7.897036 0.9868052,-15.190034 2.9311968,-22.457812 0,0 3e-7,-10e-7 3e-7,-10e-7 1.9774661,-7.391404 4.4816111,-14.935954 7.8543821,-21.967238 0,0 1e-6,-3e-6 1e-6,-3e-6 1.249911,-2.605716 2.641165,-5.103182 4.132545,-7.504366 M 11.45049,63.875998 c 2.883966,-7.051701 6.478329,-14.140714 10.594827,-20.628944 0,0 1e-6,-10e-7 1e-6,-10e-7 4.11476,-6.485491 10.002163,-11.849775 16.158069,-16.506303 0,0 3e-6,-2e-6 3e-6,-2e-6 4.621767,-3.496056 9.404547,-6.858485 14.550823,-9.595797 M 30.381731,32.990535 c 5.456751,-5.474206 11.508515,-10.748911 18.218656,-15.303385 0,0 2e-6,0 2e-6,0 6.709675,-4.554157 13.634136,-7.444106 20.991057,-9.7951772 0,1e-7 3e-6,-10e-7 3e-6,-10e-7 6.76698,-2.1625421 13.668714,-3.8172282 20.501008,-4.7157646 M 58.430544,12.474846 c 6.880593,-3.1418371 14.54617,-6.0944579 22.319526,-8.3948372 6.139572,-1.8168913 12.237732,-1.997255 18.382487,-1.731322 1.625543,0.07035 3.253223,0.1718469 4.885453,0.2822752 7.34601,0.4969925 14.87586,1.6079468 22.52764,3.6397729 M 96.019382,2.859047 c 2.164941,-0.1943767 4.272628,-0.2823426 6.332358,-0.2761222 5.52925,0.016699 10.70125,0.712023 15.69761,1.8417676 0,0 10e-6,5e-7 10e-6,5e-7 6.86983,1.5533613 15.30348,3.6699526 22.74742,6.8552761 0,0 0,0 0,1e-6 3.465,1.482702 6.67405,3.032601 9.71498,4.646698 M 128.54175,9.7829087 c 7.13946,2.2653303 14.79985,6.0265893 22.08625,10.6052753 7.2879,4.579629 12.15875,9.003515 16.5984,14.390283 0,0 0,2e-6 0,2e-6 3.13327,3.80168 6.994,8.301919 10.57793,13.226013 M 162.16881,26.171593 c 5.88279,5.27088 10.88189,10.387776 14.74491,15.905398 3.86547,5.521108 8.55262,13.465191 11.93985,21.284775 0,0 0,3e-6 0,3e-6 2.82673,6.525664 4.20854,12.548541 4.98999,18.98465 M 186.6609,55.994177 c 3.51523,7.009916 6.05653,14.097334 7.1234,21.529522 0,0 0,2e-6 0,2e-6 1.06629,7.42816 3.14304,15.547125 3.70178,23.799069 0,0 0,0 0,0 0.009,0.13783 0.0182,0.27538 0.0265,0.41266 0.46003,7.60043 -0.63795,14.34354 -2.02652,21.21091 m 2.65604,-16.0723 c -0.59154,7.99901 -2.18053,15.22785 -4.8107,22.21171 0,0 -1e-5,0 -1e-5,0 -2.63217,6.98917 -5.79958,14.46711 -10.09345,21.04838 0,0 0,0 0,0 -3.6151,5.54089 -7.48364,10.68703 -11.84251,15.31778 m 13.84114,-25.08347 c -3.25222,7.26394 -7.77062,13.97427 -13.104,20.72122 0,0 -1e-5,0 -1e-5,0 -5.33528,6.74935 -10.41657,11.21133 -16.24375,15.49913 0,0 -1e-5,0 -1e-5,0 -5.72692,4.21403 -12.92482,8.25859 -20.21812,11.06893 M 164.4174,168.7958 c -5.6554,5.0855 -12.15504,9.89633 -19.35918,13.55118 -7.21113,3.65841 -13.69799,6.819 -20.60989,8.91495 0,0 0,0 0,0 -4.76998,1.44644 -10.22065,2.36714 -15.70332,2.75907 m 24.5137,-5.37514 c -7.23414,2.93417 -14.33519,5.09429 -21.13378,6.7217 -3.66591,0.87752 -7.97327,1.04178 -12.452069,0.77602 -3.814473,-0.22634 -7.749166,-0.76425 -11.516571,-1.43692 -9.31079,-1.66244 5.951728,1.06202 -3.359062,-0.60042 m 14.137379,2.1477 c -7.573317,-0.0405 -15.386378,-0.77739 -22.653027,-2.08151 0,0 -1e-6,0 -1e-6,0 -7.262509,-1.30339 -14.736787,-5.07828 -21.432492,-9.31198 0,0 -3e-6,0 -3e-6,0 -4.185657,-2.64659 -8.403686,-5.18392 -12.548179,-8.00069 m 18.74382,13.00131 c -7.386413,-2.9584 -14.134439,-7.04563 -20.702064,-12.05885 0,0 -2e-6,0 -2e-6,0 -6.570509,-5.01543 -11.698577,-9.96726 -16.200629,-15.8745 -1.115732,-1.46397 -2.239527,-2.98251 -3.349463,-4.54944 m 11.533636,11.28691 c -5.461045,-5.65452 -10.431111,-11.53197 -14.620974,-18.00723 0,0 -10e-7,-1e-5 -10e-7,-1e-5 -4.189698,-6.47501 -7.165127,-13.56313 -9.2989986,-20.56579 -1.1136826,-3.65474 -2.0900192,-7.6918 -2.8432073,-11.90227 m 5.8658289,19.22034 C 8.1636966,130.03764 6.3210359,122.56669 5.257398,114.55715 4.5662343,109.35246 3.9385001,104.50237 3.5016578,99.744633 3.2657659,97.175486 3.0866647,94.644326 2.9841378,92.115147 2.6990064,85.081399 5.1731188,77.094214 7.6999727,69.852728 M 3.1593508,104.63938 C 3.0872857,103.54659 3.0398555,102.4499 3.0150372,101.34977 2.8630865,94.614229 3.5587508,87.77442 4.6256803,80.92443 c 0,0 5e-7,-3e-6 5e-7,-3e-6 1.2419002,-7.973349 3.918944,-14.649001 6.8530882,-20.912302 0,0 1e-6,-2e-6 1e-6,-2e-6 1.355864,-2.894261 3.142634,-6.031274 5.21297,-9.174817 m -5.305917,14.952079 c 2.728029,-7.29246 6.333732,-14.357372 10.825004,-21.007205 0,0 1e-6,-10e-7 1e-6,-10e-7 4.492312,-6.651373 9.687918,-12.284268 15.824491,-17.406958 0,0 3e-6,-2e-6 3e-6,-2e-6 2.98967,-2.495718 5.871058,-4.891302 8.7618,-7.161251 m -16.44428,15.29291 c 5.278368,-5.801346 11.279536,-10.503996 17.923582,-14.19669 6.650459,-3.696259 13.608541,-7.683201 21.215945,-10.058544 0,0 4e-6,-1e-6 4e-6,-1e-6 C 75.180855,9.4754673 80.57346,7.7646637 85.987005,6.4231067 M 60.758853,14.565857 C 67.601915,11.037131 75.146353,8.7627009 82.704456,7.3291866 89.077208,6.1204928 95.56689,5.3776882 101.9602,5.3766375 c 1.19067,-1.957e-4 2.37725,0.025346 3.55828,0.078331 6.17835,0.2771812 12.76501,1.0711792 19.24321,2.4421411 M 93.938618,3.1851977 C 96.12847,2.9997475 98.37496,2.9050648 100.65486,2.894688 c 5.5382,-0.025207 11.25857,0.4470379 16.83289,1.3168455 0,1e-7 0,2e-7 0,2e-7 7.87996,1.2295775 15.36594,3.4380372 22.92453,6.2708823 4.95222,1.856018 9.16914,4.2833 12.96518,6.995371 M 129.00292,9.8619204 c 7.40575,2.2611526 14.86828,5.7617156 22.24403,10.0088676 7.37655,4.247605 12.43761,8.918194 17.32465,14.295954 0,0 1e-5,3e-6 1e-5,3e-6 3.77315,4.152021 7.84856,8.916683 11.44517,13.966167 M 162.55612,24.597209 c 6.03285,5.122834 11.22187,11.077431 15.57528,18.195148 4.36195,7.131699 8.55923,12.906345 11.74797,19.785668 0,0 0,1e-6 1e-5,2e-6 0.46474,1.00262 0.90049,2.026779 1.30901,3.068802 m -8.04462,-9.358383 c 3.45125,6.887214 6.8686,13.945128 9.48466,21.148666 2.61218,7.192888 2.52161,15.535734 1.74932,23.794428 0,1e-5 0,1e-5 0,1e-5 -0.0246,0.26297 -0.0483,0.52511 -0.0713,0.78645 -0.66661,7.58752 -0.67956,14.45 -1.98756,21.64347 m 5.60023,-20.62323 c -0.35878,7.75682 -1.25401,15.58567 -3.30166,23.23682 0,0 0,1e-5 0,1e-5 -2.04804,7.6526 -5.02275,14.76572 -8.94457,21.57357 -3.44039,5.97212 -7.35244,11.61701 -11.98636,16.82269 m 16.11749,-29.92464 c -3.04101,7.2923 -7.1104,13.96955 -12.299,20.16727 -5.19641,6.20704 -9.71473,11.91698 -15.1684,16.82284 0,0 0,0 0,0 -1.06302,0.95624 -2.19063,1.89389 -3.36951,2.81048 m 10.38698,-5.69913 c -5.22546,5.45082 -11.73061,10.42669 -18.65934,14.55432 0,0 -1e-5,0 -1e-5,0 -6.94013,4.13443 -13.40355,7.61021 -20.16269,10.55723 -4.49466,1.95969 -9.74215,2.90008 -15.08514,3.33498 m 24.75084,-7.99173 c -7.02116,3.02248 -14.70741,5.05393 -22.5328,5.84419 -5.34549,0.53982 -10.69763,1.21439 -16.20632,1.55352 -2.56486,0.15791 -5.154494,0.24229 -7.778209,0.20568 -6.861169,-0.0957 -12.796758,-1.52816 -18.539481,-3.44438 m 29.23533,3.87502 c -1.03002,0.0636 -2.06174,0.10549 -3.09451,0.12716 -6.731971,0.14126 -13.484675,-0.575 -20.085563,-1.69137 0,0 -10e-7,0 -10e-7,0 -7.618568,-1.28848 -15.16989,-4.17475 -22.486203,-7.5739 0,0 -2e-6,0 -2e-6,0 -1.941712,-0.90212 -3.802201,-1.86568 -5.59634,-2.88828 m 15.541071,5.99141 c -7.55513,-2.76548 -14.564565,-6.36708 -21.641741,-10.91092 0,0 -2e-6,0 -2e-6,0 -7.078403,-4.54463 -12.09202,-9.32942 -16.83795,-14.71406 0,0 -1e-6,0 -1e-6,0 -1.409557,-1.59926 -2.855407,-3.33192 -4.299831,-5.16166 m 9.143847,12.03813 c -5.865538,-5.39454 -10.949438,-11.23846 -15.529351,-17.78908 -10e-7,0 -10e-7,0 -10e-7,0 -4.580108,-6.55091 -7.645473,-13.49845 -9.9518462,-20.85367 -0.3853294,-1.22885 -0.7617359,-2.4676 -1.1247916,-3.71605 M 12.66876,141.9452 c -3.3976665,-6.9 -5.7103176,-14.14308 -7.0749176,-21.15808 -1.1217714,-5.7667 -1.774794,-12.61985 -1.65337,-19.44676 0.026275,-1.477295 0.088804,-2.952506 0.1905708,-4.414294 0.3773613,-5.420428 0.8437663,-10.420755 1.5972177,-15.34659 M 3.8575975,106.92669 C 3.6981111,105.09045 3.6018943,103.22731 3.5603889,101.34463 3.4290558,95.387342 3.845682,89.2556 4.5304661,83.169223 5.4321177,75.155324 8.3551377,68.390069 11.666601,61.98053 c 0,10e-7 2e-6,-2e-6 2e-6,-2e-6 3.175143,-6.145683 6.893292,-12.983412 11.313735,-18.621312 M 7.2630813,71.99122 C 9.5501677,64.698156 13.028125,57.045231 17.372688,49.563225 21.718354,42.07932 26.160001,36.953403 31.381602,31.753817 c 0,0 2e-6,-2e-6 2e-6,-2e-6 3.8447,-3.828491 8.481156,-7.510824 13.445817,-10.701235 M 24.801424,39.679255 c 4.834453,-6.246444 10.484084,-11.39198 16.450474,-16.053506 0,0 3e-6,-2e-6 3e-6,-2e-6 5.966209,-4.661384 13.229211,-8.024834 20.764122,-10.084609 0,10e-7 3e-6,0 3e-6,0 C 69.49549,11.496521 76.289773,8.2569434 83.216559,6.6155346 M 50.537882,16.676604 c 6.97406,-3.936888 13.872731,-6.9455116 21.152727,-9.2606984 0,0 2e-6,-7e-7 2e-6,-7e-7 7.281208,-2.3155719 15.278808,-3.3763576 23.167349,-3.8140302 10e-7,0 3e-6,-1e-7 3e-6,-1e-7 0.957758,-0.053138 1.913516,-0.078905 2.867467,-0.078432 5.43712,0.0027 10.8088,0.8577126 16.15265,2.3500232 M 86.395087,4.3220477 c 4.255922,-0.5892266 8.708636,-0.8860816 13.201798,-0.866916 3.404235,0.014521 6.826545,0.2104265 10.198795,0.5963354 0,0 0,3e-7 0,3e-7 7.83288,0.8963693 15.53929,2.7640825 23.2082,5.8008037 0,0 1e-5,1e-6 1e-5,1e-6 6.13732,2.4302439 11.59159,4.7351039 16.8353,7.4735699 M 125.46864,5.3576761 c 7.31154,1.6277939 14.72801,4.7816869 21.3337,8.7415689 0,0 1e-5,2e-6 1e-5,2e-6 6.61491,3.965404 13.0421,7.67662 18.30619,12.090389 2.87377,2.409559 6.00747,5.631709 9.10261,9.271758 M 156.89471,19.975343 c 6.42222,4.524903 11.93921,10.040167 16.78469,16.289735 0,0 0,10e-7 0,10e-7 4.84845,6.253393 9.17002,12.656863 12.35657,19.977168 0,10e-7 0,2e-6 0,3e-6 1.70962,3.927421 3.41715,7.804062 5.00639,11.788714 M 180.58343,51.750091 c 4.27293,6.585632 7.17371,13.66883 9.11306,21.019835 0,10e-7 0,2e-6 0,3e-6 1.94219,7.361776 4.02789,15.021421 4.83971,22.68614 0,0 0,3e-6 0,3e-6 0.23493,2.217996 0.31486,4.47373 0.25855,6.754228 -0.0123,0.50037 -0.0313,1.00191 -0.0565,1.50449 m -0.82656,-19.735859 c 0.72957,5.328305 1.14061,10.552621 0.98931,15.664216 -0.0678,2.290853 -0.24853,4.556533 -0.56352,6.795663 0,0 0,0 0,0 -1.01935,7.24623 -2.26818,15.53828 -5.01052,23.14608 0,0 0,0 0,0 -2.5533,7.0834 -5.00482,13.62862 -8.04919,20.07265 M 7.3184533,74.549764 9.5705212,67.440931 m -0.863648,62.755859 -2.5358549,-9.1634"
         inkscape:original-d="M 196.04,100 A 96.040001,96.040001 0 0 1 100,196.04 96.040001,96.040001 0 0 1 3.9599991,100 96.040001,96.040001 0 0 1 100,3.9599991 96.040001,96.040001 0 0 1 196.04,100 Z" />
    </g>
  </g>
</svg>
