<?xml version="1.0" encoding="UTF-8" standalone="no"?>
<!-- Created with Inkscape (http://www.inkscape.org/) -->

<svg
   width="500"
   height="1800"
   viewBox="0 0 132.29167 476.24999"
   version="1.1"
   id="svg1"
   inkscape:version="1.3.2 (091e20ef0f, 2023-11-25, custom)"
   sodipodi:docname="revenue-games.svg"
   xmlns:inkscape="http://www.inkscape.org/namespaces/inkscape"
   xmlns:sodipodi="http://sodipodi.sourceforge.net/DTD/sodipodi-0.dtd"
   xmlns="http://www.w3.org/2000/svg"
   xmlns:svg="http://www.w3.org/2000/svg">
  <sodipodi:namedview
     id="namedview1"
     pagecolor="#ffffff"
     bordercolor="#000000"
     borderopacity="0.25"
     inkscape:showpageshadow="2"
     inkscape:pageopacity="0.0"
     inkscape:pagecheckerboard="0"
     inkscape:deskcolor="#d1d1d1"
     inkscape:document-units="mm"
     inkscape:zoom="0.46511913"
     inkscape:cx="262.29839"
     inkscape:cy="1251.2923"
     inkscape:window-width="1440"
     inkscape:window-height="831"
     inkscape:window-x="0"
     inkscape:window-y="0"
     inkscape:window-maximized="1"
     inkscape:current-layer="g1"
     showgrid="true">
    <inkscape:grid
       id="grid1"
       units="px"
       originx="0"
       originy="0"
       spacingx="2.6458333"
       spacingy="2.6458333"
       empcolor="#0099e5"
       empopacity="0.30196078"
       color="#0099e5"
       opacity="0.14901961"
       empspacing="5"
       dotted="false"
       gridanglex="30"
       gridanglez="30"
       visible="true" />
  </sodipodi:namedview>
  <defs
     id="defs1">
    <inkscape:path-effect
       effect="sketch"
       id="path-effect24"
       is_visible="true"
       lpeversion="1"
       nbiter_approxstrokes="3"
       parallel_offset="0.2;1"
       strokelength="70"
       strokelength_rdm="0.3;1"
       strokeoverlap="0.5"
       strokeoverlap_rdm="0.5;1"
       ends_tolerance="0.1;1"
       tremble_size="0.8;1"
       tremble_frequency="3"
       nbtangents="2"
       tgt_places_rdmness="0.5;1"
       tgtlength="10"
       tgtlength_rdm="0.3;1"
       tgtscale="10" />
    <inkscape:path-effect
       effect="sketch"
       id="path-effect23"
       is_visible="true"
       lpeversion="1"
       nbiter_approxstrokes="3"
       parallel_offset="0.2;1"
       strokelength="70"
       strokelength_rdm="0.3;1"
       strokeoverlap="0.5"
       strokeoverlap_rdm="0.5;1"
       ends_tolerance="0.1;1"
       tremble_size="0.8;1"
       tremble_frequency="3"
       nbtangents="2"
       tgt_places_rdmness="0.5;1"
       tgtlength="10"
       tgtlength_rdm="0.3;1"
       tgtscale="10" />
    <inkscape:path-effect
       effect="sketch"
       id="path-effect22"
       is_visible="true"
       lpeversion="1"
       nbiter_approxstrokes="3"
       parallel_offset="0.2;1"
       strokelength="70"
       strokelength_rdm="0.3;1"
       strokeoverlap="0.5"
       strokeoverlap_rdm="0.5;1"
       ends_tolerance="0.1;1"
       tremble_size="0.8;1"
       tremble_frequency="3"
       nbtangents="2"
       tgt_places_rdmness="0.5;1"
       tgtlength="10"
       tgtlength_rdm="0.3;1"
       tgtscale="10" />
    <inkscape:path-effect
       effect="sketch"
       id="path-effect18"
       is_visible="true"
       lpeversion="1"
       nbiter_approxstrokes="3"
       parallel_offset="0.2;1"
       strokelength="70"
       strokelength_rdm="0.3;1"
       strokeoverlap="0.5"
       strokeoverlap_rdm="0.5;1"
       ends_tolerance="0.1;1"
       tremble_size="0.8;1"
       tremble_frequency="3"
       nbtangents="2"
       tgt_places_rdmness="0.5;1"
       tgtlength="10"
       tgtlength_rdm="0.3;1"
       tgtscale="10" />
    <inkscape:path-effect
       effect="sketch"
       id="path-effect16"
       is_visible="true"
       lpeversion="1"
       nbiter_approxstrokes="3"
       parallel_offset="0.2;1"
       strokelength="70"
       strokelength_rdm="0.3;1"
       strokeoverlap="0.5"
       strokeoverlap_rdm="0.5;1"
       ends_tolerance="0.1;1"
       tremble_size="0.8;1"
       tremble_frequency="3"
       nbtangents="2"
       tgt_places_rdmness="0.5;1"
       tgtlength="10"
       tgtlength_rdm="0.3;1"
       tgtscale="10" />
    <inkscape:path-effect
       effect="sketch"
       id="path-effect15"
       is_visible="true"
       lpeversion="1"
       nbiter_approxstrokes="3"
       parallel_offset="0.2;1"
       strokelength="70"
       strokelength_rdm="0.3;1"
       strokeoverlap="0.5"
       strokeoverlap_rdm="0.5;1"
       ends_tolerance="0.1;1"
       tremble_size="0.8;1"
       tremble_frequency="3"
       nbtangents="2"
       tgt_places_rdmness="0.5;1"
       tgtlength="10"
       tgtlength_rdm="0.3;1"
       tgtscale="10" />
    <inkscape:path-effect
       effect="sketch"
       id="path-effect13"
       is_visible="true"
       lpeversion="1"
       nbiter_approxstrokes="3"
       parallel_offset="0.2;1"
       strokelength="70"
       strokelength_rdm="0.3;1"
       strokeoverlap="0.5"
       strokeoverlap_rdm="0.5;1"
       ends_tolerance="0.1;1"
       tremble_size="0.8;1"
       tremble_frequency="3"
       nbtangents="2"
       tgt_places_rdmness="0.5;1"
       tgtlength="12"
       tgtlength_rdm="0.3;1"
       tgtscale="10" />
    <inkscape:path-effect
       effect="sketch"
       id="path-effect12"
       is_visible="true"
       lpeversion="1"
       nbiter_approxstrokes="3"
       parallel_offset="0.2;1"
       strokelength="70"
       strokelength_rdm="0.3;1"
       strokeoverlap="0.5"
       strokeoverlap_rdm="0.5;1"
       ends_tolerance="0.1;1"
       tremble_size="0.8;1"
       tremble_frequency="3"
       nbtangents="2"
       tgt_places_rdmness="0.5;1"
       tgtlength="12"
       tgtlength_rdm="0.3;1"
       tgtscale="10" />
    <inkscape:path-effect
       effect="sketch"
       id="path-effect10"
       is_visible="true"
       lpeversion="1"
       nbiter_approxstrokes="3"
       parallel_offset="0.2;1"
       strokelength="70"
       strokelength_rdm="0.3;1"
       strokeoverlap="0.5"
       strokeoverlap_rdm="0.5;1"
       ends_tolerance="0.1;1"
       tremble_size="0.8;1"
       tremble_frequency="3"
       nbtangents="2"
       tgt_places_rdmness="0.5;1"
       tgtlength="10"
       tgtlength_rdm="0.3;1"
       tgtscale="10" />
    <rect
       x="49.999996"
       y="350"
       width="399.99997"
       height="148.66698"
       id="rect1" />
    <inkscape:path-effect
       effect="sketch"
       id="path-effect21"
       is_visible="true"
       lpeversion="1"
       nbiter_approxstrokes="3"
       parallel_offset="0.2;1"
       strokelength="70"
       strokelength_rdm="0.3;1"
       strokeoverlap="0.5"
       strokeoverlap_rdm="0.5;1"
       ends_tolerance="0.1;1"
       tremble_size="0.8;1"
       tremble_frequency="3"
       nbtangents="2"
       tgt_places_rdmness="0.5;1"
       tgtlength="10"
       tgtlength_rdm="0.3;1"
       tgtscale="10" />
    <inkscape:path-effect
       effect="sketch"
       id="path-effect9"
       is_visible="true"
       lpeversion="1"
       nbiter_approxstrokes="3"
       parallel_offset="0.2;1"
       strokelength="70"
       strokelength_rdm="0.3;1"
       strokeoverlap="0.5"
       strokeoverlap_rdm="0.5;1"
       ends_tolerance="0.1;1"
       tremble_size="0.8;1"
       tremble_frequency="3"
       nbtangents="2"
       tgt_places_rdmness="0.5;1"
       tgtlength="10"
       tgtlength_rdm="0.3;1"
       tgtscale="10" />
    <inkscape:path-effect
       effect="sketch"
       id="path-effect8"
       is_visible="true"
       lpeversion="1"
       nbiter_approxstrokes="3"
       parallel_offset="0.2;1"
       strokelength="70"
       strokelength_rdm="0.3;1"
       strokeoverlap="0.5"
       strokeoverlap_rdm="0.5;1"
       ends_tolerance="0.1;1"
       tremble_size="0.8;1"
       tremble_frequency="3"
       nbtangents="2"
       tgt_places_rdmness="0.5;1"
       tgtlength="10"
       tgtlength_rdm="0.3;1"
       tgtscale="10" />
    <inkscape:path-effect
       effect="sketch"
       id="path-effect20"
       is_visible="true"
       lpeversion="1"
       nbiter_approxstrokes="3"
       parallel_offset="0.2;1"
       strokelength="70"
       strokelength_rdm="0.3;1"
       strokeoverlap="0.5"
       strokeoverlap_rdm="0.5;1"
       ends_tolerance="0.1;1"
       tremble_size="0.8;1"
       tremble_frequency="3"
       nbtangents="2"
       tgt_places_rdmness="0.5;1"
       tgtlength="10"
       tgtlength_rdm="0.3;1"
       tgtscale="10" />
    <inkscape:path-effect
       effect="sketch"
       id="path-effect4"
       is_visible="true"
       lpeversion="1"
       nbiter_approxstrokes="3"
       parallel_offset="0.2;1"
       strokelength="70"
       strokelength_rdm="0.3;1"
       strokeoverlap="0.5"
       strokeoverlap_rdm="0.5;1"
       ends_tolerance="0.1;1"
       tremble_size="0.8;1"
       tremble_frequency="3"
       nbtangents="2"
       tgt_places_rdmness="0.5;1"
       tgtlength="10"
       tgtlength_rdm="0.3;1"
       tgtscale="10" />
    <inkscape:path-effect
       effect="sketch"
       id="path-effect3"
       is_visible="true"
       lpeversion="1"
       nbiter_approxstrokes="3"
       parallel_offset="0.2;1"
       strokelength="70"
       strokelength_rdm="0.3;1"
       strokeoverlap="0.5"
       strokeoverlap_rdm="0.5;1"
       ends_tolerance="0.1;1"
       tremble_size="0.8;1"
       tremble_frequency="3"
       nbtangents="2"
       tgt_places_rdmness="0.5;1"
       tgtlength="10"
       tgtlength_rdm="0.3;1"
       tgtscale="10" />
    <inkscape:path-effect
       effect="sketch"
       id="path-effect2"
       is_visible="true"
       lpeversion="1"
       nbiter_approxstrokes="4"
       parallel_offset="0.4;1"
       strokelength="50"
       strokelength_rdm="0.3;1"
       strokeoverlap="0.3"
       strokeoverlap_rdm="0.3;1"
       ends_tolerance="0.1;1"
       tremble_size="0.8;1"
       tremble_frequency="3"
       nbtangents="0"
       tgt_places_rdmness="1;1"
       tgtlength="100"
       tgtlength_rdm="0.3;1"
       tgtscale="10" />
    <inkscape:path-effect
       effect="sketch"
       id="path-effect1"
       is_visible="true"
       lpeversion="1"
       nbiter_approxstrokes="4"
       parallel_offset="0.5;1"
       strokelength="50"
       strokelength_rdm="0.3;1"
       strokeoverlap="0.3"
       strokeoverlap_rdm="0.3;1"
       ends_tolerance="0.1;1"
       tremble_size="0.8;1"
       tremble_frequency="3"
       nbtangents="0"
       tgt_places_rdmness="1;1"
       tgtlength="56.859206"
       tgtlength_rdm="0.3;1"
       tgtscale="10" />
    <inkscape:path-effect
       effect="sketch"
       id="path-effect11"
       is_visible="true"
       lpeversion="1"
       nbiter_approxstrokes="4"
       parallel_offset="0.7;1"
       strokelength="50"
       strokelength_rdm="0.3;1"
       strokeoverlap="0.3"
       strokeoverlap_rdm="0.3;1"
       ends_tolerance="0.1;1"
       tremble_size="0.8;1"
       tremble_frequency="3"
       nbtangents="0"
       tgt_places_rdmness="1;1"
       tgtlength="100"
       tgtlength_rdm="0.3;1"
       tgtscale="10" />
    <inkscape:path-effect
       effect="sketch"
       id="path-effect7"
       is_visible="true"
       lpeversion="1"
       nbiter_approxstrokes="3"
       parallel_offset="1;1"
       strokelength="50"
       strokelength_rdm="0.3;1"
       strokeoverlap="0.3"
       strokeoverlap_rdm="0.3;1"
       ends_tolerance="0.1;1"
       tremble_size="1.2;1"
       tremble_frequency="3"
       nbtangents="0"
       tgt_places_rdmness="1;1"
       tgtlength="100"
       tgtlength_rdm="0.3;1"
       tgtscale="10" />
    <rect
       x="223.77509"
       y="306.53192"
       width="415.43015"
       height="124.34706"
       id="rect6" />
    <inkscape:path-effect
       effect="sketch"
       id="path-effect6"
       is_visible="true"
       lpeversion="1"
       nbiter_approxstrokes="3"
       parallel_offset="1;1"
       strokelength="50"
       strokelength_rdm="0.3;1"
       strokeoverlap="0.3"
       strokeoverlap_rdm="0.3;1"
       ends_tolerance="0.1;1"
       tremble_size="1.2;1"
       tremble_frequency="3"
       nbtangents="0"
       tgt_places_rdmness="1;1"
       tgtlength="100"
       tgtlength_rdm="0.3;1"
       tgtscale="10" />
    <inkscape:path-effect
       effect="sketch"
       id="path-effect5"
       is_visible="true"
       lpeversion="1"
       nbiter_approxstrokes="3"
       parallel_offset="1;1"
       strokelength="50"
       strokelength_rdm="0.3;1"
       strokeoverlap="0.3"
       strokeoverlap_rdm="0.3;1"
       ends_tolerance="0.1;1"
       tremble_size="1.2;1"
       tremble_frequency="3"
       nbtangents="0"
       tgt_places_rdmness="1;1"
       tgtlength="100"
       tgtlength_rdm="0.3;1"
       tgtscale="10" />
    <inkscape:path-effect
       effect="sketch"
       id="path-effect28"
       is_visible="true"
       lpeversion="1"
       nbiter_approxstrokes="3"
       parallel_offset="0.2;1"
       strokelength="70"
       strokelength_rdm="0.3;1"
       strokeoverlap="0.5"
       strokeoverlap_rdm="0.5;1"
       ends_tolerance="0.1;1"
       tremble_size="0.8;1"
       tremble_frequency="3"
       nbtangents="2"
       tgt_places_rdmness="0.5;1"
       tgtlength="10"
       tgtlength_rdm="0.3;1"
       tgtscale="10" />
    <inkscape:path-effect
       effect="sketch"
       id="path-effect28-7"
       is_visible="true"
       lpeversion="1"
       nbiter_approxstrokes="3"
       parallel_offset="0.2;1"
       strokelength="70"
       strokelength_rdm="0.3;1"
       strokeoverlap="0.5"
       strokeoverlap_rdm="0.5;1"
       ends_tolerance="0.1;1"
       tremble_size="0.8;1"
       tremble_frequency="3"
       nbtangents="2"
       tgt_places_rdmness="0.5;1"
       tgtlength="10"
       tgtlength_rdm="0.3;1"
       tgtscale="10" />
  </defs>
  <g
     inkscape:label="Layer 1"
     inkscape:groupmode="layer"
     id="layer1">
    <g
       id="g1"
       transform="translate(0,-145.69463)">
      <g
         id="g25"
         transform="translate(0,28.149194)"
         style="stroke-width:0.52916667;stroke-dasharray:none">
        <rect
           style="fill:#ffaaaa;stroke:none;stroke-width:0.52916667;stroke-dasharray:none;stroke-opacity:1"
           id="path17"
           width="126.99999"
           height="378.35416"
           x="2.6458333"
           y="121.44373"
           ry="13.229166"
           sodipodi:type="rect" />
        <path
           id="path18"
           style="fill:#ff8080;fill-opacity:1;stroke:none;stroke-width:0.52916667;stroke-dasharray:none;stroke-opacity:1"
           d="m 9.5859782,123.0922 c -4.1210622,2.23607 -6.9401449,6.54461 -6.9401449,11.58069 v 351.89583 c 0,7.32895 5.900216,13.22917 13.2291667,13.22917 h 100.54167 c 5.03604,0 9.3446,-2.81913 11.58069,-6.94014 -1.8763,1.01808 -3.99612,1.64847 -6.28903,1.64847 H 21.166667 c -7.328951,0 -13.229167,-5.90021 -13.229167,-13.22916 V 129.38122 c 0,-2.29287 0.6304236,-4.41275 1.6484782,-6.28902 z" />
        <path
           style="fill:none;stroke:#000000;stroke-width:0.52916667;stroke-dasharray:none;stroke-opacity:1"
           id="rect15"
           width="126.99999"
           height="378.35416"
           x="2.6458333"
           y="147.90207"
           ry="13.229166"
           sodipodi:type="rect"
           inkscape:path-effect="#path-effect23"
           d="m 20.746495,148.63465 c 8.009294,-0.17878 15.4741,0.003 23.091781,-0.006 l 3e-6,0 c 7.620946,-0.009 15.422415,-0.13492 22.939578,-0.4 l 3e-6,0 c 3.106988,-0.10956 6.329619,-0.1193 9.61192,-0.0849 m -19.133503,-0.22611 c 7.543729,-0.0917 15.594629,-0.22809 23.473631,-0.66864 l 2e-6,0 c 7.882379,-0.44073 15.645821,0.13274 23.58958,0.3875 1.21669,0.039 2.42782,0.0684 3.63524,0.0907 m -13.590995,0.0997 c 7.086585,-0.12199 14.754965,-0.12706 22.628785,-0.34192 0.59466,-0.0162 1.18185,-6.1e-4 1.75965,0.0449 7.12631,0.56114 11.64677,6.52388 11.04577,13.84729 -0.12345,1.50419 -0.24593,3.01581 -0.35524,4.53029 -0.14572,2.01905 -0.20559,3.93334 -0.20423,5.77197 m -1.2951,-15.99141 c 0.64321,1.59475 1.01084,3.34608 1.03152,5.18519 0.0671,5.96856 0.41727,11.88989 0.83344,17.7654 l 0,1e-5 c 0.53991,7.62254 0.0516,15.7006 0.15,23.77083 0.0839,6.88206 -0.14633,13.5481 -0.51195,20.54544 m 0.76057,-30.52767 c 0.14337,7.87405 -0.0811,15.33754 -0.23144,22.67946 l 0,0 c -0.15041,7.34506 -0.0872,15.39094 -0.25625,22.82708 -0.0918,4.04078 -0.0262,8.34602 0.11381,12.75334 m 0.36934,-21.07156 c 0.26195,7.85133 0.008,15.51098 0.0122,23.19824 0.004,7.69056 -0.24943,15.33107 -0.7625,22.65208 l 0,0 c -0.15254,2.17656 -0.21589,4.42004 -0.23078,6.69427 m -0.28146,-16.50365 c 0.20182,7.82478 0.20076,16.06499 0.60599,24.87951 l 0,10e-6 c 0.4054,8.8183 0.10443,15.08136 0.325,21.89583 0.0532,1.64265 0.0676,3.42256 0.0528,5.29915 m -0.19179,-13.96699 c 0.031,7.62891 -0.21125,15.53926 -0.61879,23.30477 l 0,0 c -0.40771,7.76883 0.0773,15.41277 0.2375,22.89583 l 0,0 c 0.0172,0.80413 0.0332,1.61699 0.0485,2.43748 m 0.67039,-11.62635 c 0.10395,7.88432 0.007,15.20353 0.0249,22.27944 l 0,0 c 0.0183,7.07894 -0.13932,15.60752 -0.41875,23.48333 l 0,0 c -0.21372,6.02406 -0.0451,12.10225 0.13512,18.36752 m -0.92727,-28.34076 c 0.0294,7.82213 0.31109,15.40605 0.94372,22.89827 l 0,0 c 0.63289,7.49542 -0.29716,15.64119 -0.9,23.59583 l 0,0 c -0.43992,5.80471 -0.0676,11.3625 0.41556,16.87902 m -0.0545,-26.0662 c 0.0707,7.71192 -0.0437,15.36586 -0.13134,22.76716 l 0,10e-6 c -0.0877,7.40448 -0.0527,15.31349 -0.15,22.62083 l 0,0 c -0.0454,3.40561 -0.0181,7.04263 0.0535,10.76708 m -0.30659,-18.90595 c 0.0146,7.68048 0.009,15.06586 0.0187,21.8797 l 0,10e-6 c 0.01,6.81676 0.14428,16.05466 0.4375,24.83332 l 0,10e-6 c 0.19793,5.92581 0.19018,10.9319 0.24573,15.94183 0.002,0.19831 -2.5e-4,0.39553 -0.007,0.5916 m 0.47891,-27.46312 c 0.15586,8.00346 -0.0569,15.94107 -0.18145,24.51054 -0.0125,0.85919 -0.0215,1.7013 -0.0273,2.52873 -0.0543,7.74292 -5.75065,12.93286 -12.89487,12.71351 -0.0654,-0.002 -0.13071,-0.004 -0.19607,-0.006 -3.84621,-0.11217 -7.83607,-0.0769 -11.88581,0.018 m 20.40091,-2.83051 c -2.26322,1.84933 -5.19891,2.97455 -8.40997,2.96831 -4.67863,-0.009 -9.35265,0.0156 -13.96885,-0.0292 -7.624945,-0.0741 -15.494816,0.0916 -23.139582,0.26875 l -2e-6,0 c -1.574037,0.0365 -3.164366,0.0554 -4.767515,0.0614 m 13.175183,-0.32848 c -7.776358,0.10572 -15.355686,-0.3516 -22.742081,-1.06264 l -3e-6,0 c -7.389561,-0.71134 -15.786827,-0.0969 -24.020827,-0.28125 l -3e-6,0 c -3.0559,-0.0684 -5.971815,-0.0615 -8.817983,-0.007 m 18.785853,1.39979 c -7.842898,0.23704 -15.374762,0.0624 -22.804495,0.18094 -3.822533,0.061 -7.810718,0.007 -11.824198,-0.11523 -4.016471,-0.12188 -7.6264702,-2.0544 -9.9894429,-5.03641 -1.9638308,-2.4783 -3.1707252,-5.53715 -3.1844948,-8.82619 -0.011116,-2.65526 -0.035993,-5.26733 -0.058888,-7.88576 M 14.69342,526.0003 C 8.0056578,525.38596 2.5509729,519.89549 2.1544577,513.27524 c -0.071329,-1.19091 -0.1475706,-2.37649 -0.2273744,-3.5568 -0.4972786,-7.35486 0.061246,-15.96266 0.1874999,-24.55208 l 10e-8,-10e-6 c 0.1160989,-7.89856 0.034243,-14.37262 0.044889,-21.30793 m 1.0897856,32.6375 c 0.2328078,-7.73053 -0.030506,-15.24749 -0.1002997,-22.41089 -0.069824,-7.16647 -0.40085,-15.46252 -1.1999997,-23.05833 l -3e-7,0 c -0.7517308,-7.1451 0.060762,-14.60958 0.4349278,-21.93612 m -0.046157,31.51327 c -0.2265881,-8.0218 0.010654,-15.52288 0.044042,-23.23551 0.033402,-7.71593 0.361012,-15.35226 1.0749997,-22.72083 l 3e-7,0 c 0.3327566,-3.43415 0.2549291,-7.07341 -0.017971,-10.7926 M 2.650767,424.89262 c 0.1913413,-7.68086 0.099114,-15.50996 0.2997538,-23.2172 l -2e-7,0 C 3.1512466,393.96488 2.6109375,385.71864 1.931771,377.13584 l -2e-7,0 c -0.4788914,-6.05188 -0.1568414,-11.15971 0.24911,-16.16706 m 0.031864,27.02816 c -0.2138312,-7.67689 0.3421169,-15.72199 1.0315255,-23.84846 l -2e-7,0 C 3.9339744,356.01853 2.8233798,348.53135 1.9880211,340.64015 l -3e-7,0 c -0.6976869,-6.59069 -0.04844,-12.86138 0.4916887,-19.00416 m 0.9301006,30.32761 c -0.066521,-7.78483 0.00383,-15.54541 0.012586,-23.32332 l -10e-8,0 c 0.00876,-7.78124 -0.1136345,-15.75895 -0.3312499,-23.95208 l 0,0 C 2.886443,296.98122 2.9950765,289.99301 2.8681209,282.69596 m 0.3039751,32.7587 c -0.2327964,-7.83678 0.043792,-15.5138 0.1252998,-23.22951 l -10e-8,0 c 0.081543,-7.71901 -0.187814,-15.17794 -0.5624998,-22.20833 l -1e-7,0 c -0.3155701,-5.92117 0.055339,-13.02194 0.4380871,-19.96756 m -0.4896309,29.7466 c 0.014611,-7.77647 0.06882,-15.48382 0.2062313,-23.11708 0.13747,-7.63654 -0.2102852,-15.64461 -0.6374999,-23.59583 l -1e-7,0 c -0.4198882,-7.81487 0.2748586,-15.29586 0.8630634,-22.92746 m 0.021309,33.91498 c -0.00248,-7.81815 -0.4709687,-15.60374 -1.412497,-23.49203 l 10e-8,0 c -0.94193169,-7.89167 0.4684311,-15.25566 1.3937495,-22.42708 l 4e-7,-1e-5 C 3.7571529,193.19552 3.401479,187.5205 2.9686685,181.72407 M 2.6160119,207.25938 C 2.5120024,199.29163 2.5391226,191.74069 2.3723958,184.0238 l 0,0 c -0.1667983,-7.7202 0.1389605,-15.23018 0.4124999,-22.36458 l 1e-7,0 c 0.00251,-0.0654 0.00498,-0.13095 0.00741,-0.19662 0.035279,-0.9533 0.1790951,-1.90619 0.4221158,-2.84008 m -0.9751213,12.12579 c -0.095165,-3.42967 -0.1010474,-6.70074 -0.069191,-9.87008 0.045205,-4.49738 2.6099445,-8.25212 6.3707016,-10.15778 2.0735737,-1.05073 4.4873357,-1.71539 7.0592417,-1.74801 5.227564,-0.0663 10.335889,-0.58938 15.414615,-0.84537 4.657479,-0.23476 9.649116,-0.15483 14.744623,-0.0371 m -23.431823,-0.12234 c 7.790955,-0.0458 15.408231,-0.0907 22.898312,-0.26245 7.493292,-0.17186 15.474301,0.0938 23.102081,0.275 l 3e-6,0 c 1.892336,0.045 3.808656,0.0812 5.742179,0.11677 M 59.247676,147.8455 c 7.639574,-0.24517 15.847478,0.16154 24.229757,0.49407 8.385872,0.33267 15.634933,-0.1642 23.570827,-0.4875 l 1e-5,0 c 3.43924,-0.14011 6.72956,-0.10784 9.90948,0.0183 0.66351,0.0263 1.31003,0.11057 1.9357,0.2479 m -22.673931,0.41358 c 6.662301,0.0469 13.323731,-0.0931 20.309491,-0.32078 1.39531,-0.0455 2.75509,0.0929 4.0569,0.39044 6.01208,1.37423 9.69987,6.46166 9.30591,12.36119 -0.13801,2.06665 -0.27951,4.11604 -0.38037,6.1298 -0.36271,7.24173 -0.23646,15.51025 -0.66115,23.82165 m -0.37025,-34.12254 c 0.65666,1.54467 1.01839,3.22809 1.02409,4.98469 0.0195,5.99717 -0.0786,11.87751 -0.11144,17.64378 l 0,0 c -0.0421,7.39847 0.0547,15.44345 0.16875,23.00833 0.0528,3.49905 0.0914,7.09761 0.15115,10.73193 m -0.45915,-20.68342 c -0.14343,7.75161 0.007,15.58319 0.0189,23.42962 l 0,0 c 0.0122,7.84979 0.073,15.86162 0.23125,24.24583 l 0,0 c 0.0771,4.08435 0.10974,7.90847 0.15427,11.68354 m -0.47934,-21.44777 c -0.0537,7.79751 0.39563,15.77989 1.19382,24.0233 l 0,0 c 0.79853,8.24695 -0.0319,15.62523 -0.0937,23.55208 -0.0462,5.92378 -0.0934,11.69341 -0.22106,17.4939 m 0.32129,-27.84895 c 0.17644,7.55 -0.29803,15.63546 -0.88148,23.58613 l 0,0 c -0.5837,7.95407 0.1067,15.50875 0.3125,23.18333 0.16899,6.30184 0.20445,12.63789 0.4499,18.83922 m -1.25133,-30.45809 c 0.10602,7.82435 -0.008,15.56117 -0.0251,23.36702 l 0,0 c -0.0167,7.80919 0.37849,15.62518 1.14375,23.53958 l 0,0 c 0.50193,5.19104 0.23131,10.22299 -0.16701,15.20858 m -0.33644,-24.96132 c -0.24507,7.65796 0.27626,15.47424 0.82532,23.09223 0.54929,7.62126 -0.13122,15.97817 -0.39375,24.60833 l 0,0 c -0.20265,6.66174 -0.0303,12.21157 0.15465,17.824 m -0.009,-28.79145 c -0.11874,8.02804 -0.28408,15.51357 -0.83735,23.21676 l 0,0 c -0.5535,7.70648 0.34504,15.37606 1.025,22.80833 l 0,0 c 0.0994,1.08609 0.16075,2.19198 0.19055,3.31445 m -1.21271,-11.71803 c -0.2203,7.64113 0.0661,15.24424 0.20654,22.411 0.14055,7.16984 -0.0121,15.62401 -0.0438,23.53333 l 0,10e-6 c -0.0302,7.55123 -0.0777,14.85789 -0.21704,22.26617 m -0.0485,-33.4964 c 0.0357,7.87632 0.37223,15.56696 1.1187,23.3732 l 0,0 c 0.7468,7.80959 -0.29103,15.52685 -0.8625,23.23958 l 0,0 c -0.4271,5.76436 -0.0657,11.58469 0.37115,17.37521 0.0778,1.03137 0.0381,2.03302 -0.1095,2.99273 m 0.41017,-31.32039 c -0.0418,7.78051 -0.2705,15.34901 -0.82494,22.72958 -0.1168,1.5548 -0.19086,3.14563 -0.23773,4.76158 -0.187,6.44698 -4.63132,12.10083 -11.06784,13.26013 -0.79502,0.14319 -1.60434,0.22275 -2.42244,0.23321 -0.73886,0.009 -1.47041,0.0206 -2.19536,0.0336 m 13.54098,-4.42986 c -2.48743,3.02687 -6.21065,5.04882 -10.3709,5.20665 -3.71563,0.14097 -7.39255,0.35386 -11.0768,0.60378 -7.571384,0.51361 -15.624217,-0.25123 -23.552079,-0.74375 l -3e-6,0 c -5.283478,-0.32824 -10.540306,-0.1098 -15.906941,0.21613 m 25.810524,0.3138 c -7.99488,0.18683 -15.635676,-0.31792 -23.58555,-0.96274 -7.953281,-0.6451 -15.557857,0.16812 -23.33958,0.50625 l -3e-6,0 c -6.471893,0.28121 -13.051532,0.0956 -19.740122,0.0316 m 30.037751,0.10893 c -7.664006,-0.0999 -15.247363,-0.12816 -22.404726,-0.38112 -4.966785,-0.17553 -10.684194,-0.14428 -16.531642,-0.16244 -2.703369,-0.008 -5.252253,-0.71003 -7.4306252,-1.94802 -1.951301,-1.10895 -3.5220422,-2.58856 -4.6209622,-4.3193 m 13.7034074,6.64987 c -0.767077,-0.0157 -1.530679,-0.0284 -2.29088,-0.0385 -7.2609862,-0.0963 -12.9076017,-5.8641 -12.3370181,-13.1967 0.00615,-0.0791 0.012334,-0.15816 0.018545,-0.23725 l -10e-8,-1e-5 C 3.9769659,505.09774 3.2175774,497.29345 2.9348958,489.45648 l 0,0 c -0.084042,-2.32996 -0.1051013,-4.65043 -0.085242,-6.96603 m 0.4321648,16.09288 c 0.037154,-7.61223 -0.309922,-15.4714 -0.925048,-23.09854 -0.6153898,-7.63042 0.089212,-15.25087 0.2687499,-22.41459 l 10e-8,0 c 0.030023,-1.19795 0.053396,-2.43623 0.072602,-3.70629 M 2.2083307,462.02252 C 2.2064989,454.19811 2.496861,446.39015 3.0833333,438.443 l -2e-7,0 C 3.6700567,430.49244 2.8150912,422.71207 2.2895835,414.57217 l -2e-7,0 c -0.3465267,-5.36756 -0.2183798,-10.27594 -0.0667,-15.03348 m -0.1007417,26.35274 c -0.1972957,-7.57078 0.2304958,-15.63286 0.6940042,-23.57984 l 0,0 c 0.4637069,-7.95039 0.1325175,-15.98828 0.3937498,-24.62083 l 2e-7,-1e-5 C 3.4602195,369.41869 3.070752,362.83459 2.7402153,355.67778 m 0.2745178,33.90326 c 0.1164545,-7.61245 0.043799,-15.72809 0.1373502,-23.84854 l -1e-7,0 C 3.2456744,357.60857 3.0095075,350.1618 2.7208333,342.35542 2.5081505,336.60401 2.7008959,331.13814 2.9567611,325.9209 m -0.8236687,27.28966 c -0.1870656,-7.61442 0.03855,-15.5964 0.1064909,-23.46104 l -10e-8,-1e-5 c 0.06797,-7.86801 -0.1126831,-15.66716 -0.3312498,-23.66457 l -1e-7,-1e-5 c -0.2171237,-7.94461 0.047765,-15.55929 0.1541499,-23.4877 m 0.1304526,36.13248 c 0.1767529,-7.54806 0.056848,-15.80302 0.1810225,-24.08612 l 0,-1e-5 c 0.1242276,-8.28665 0.048561,-15.51936 0.1375,-23.21458 0.072405,-6.26468 0.1441013,-12.50786 0.3561237,-18.60207 m 0.2926483,28.6175 c 0.2598932,-7.66215 0.039661,-15.51279 0.1309155,-23.20472 0.091294,-7.69524 -0.1441645,-15.38462 -0.4312499,-22.81459 l -1e-7,0 C 2.6302164,229.48087 2.5861808,222.85161 2.287987,216.06783 m 1.0749855,30.01434 c -0.037559,-7.56697 -0.1626441,-16.0336 -0.4937017,-24.7736 l -10e-8,0 C 2.5380712,212.56483 2.7798079,205.90759 2.6067708,198.43149 l 0,0 c -0.094636,-4.08878 -0.1251998,-8.30874 -0.175287,-12.5109 m 0.7156845,22.85735 c -0.1766499,-8.03434 0.063475,-15.5969 0.1814775,-23.46675 l -10e-8,0 C 3.4466985,177.43797 3.1005702,169.72644 2.6411459,161.89661 l -1e-7,0 c -0.00972,-0.1656 -0.018961,-0.33118 -0.027747,-0.49674 -0.2265767,-4.26973 1.843058,-8.06908 5.06816,-10.49994 m -5.9901187,21.12589 c 0.097565,-3.25729 0.1819185,-6.56162 0.3071754,-9.88326 0.1793497,-4.75612 2.8886623,-8.94382 7.0616566,-11.28108 2.2768746,-1.27525 4.7594776,-2.03374 7.3110056,-2.08884 5.2325,-0.113 9.981573,-0.34488 14.994484,-0.70026 2.596547,-0.18407 5.281811,-0.22427 7.998746,-0.19007 m -17.246727,0.69484 c 7.551733,0.0665 15.231081,-0.0113 22.37362,-0.0438 l 2e-6,0 c 7.145602,-0.0326 15.948646,-0.14465 24.520832,-0.425 7.973128,-0.26076 14.318092,-0.0266 20.95125,0.0183 m -32.313358,0.15499 c 7.805412,-0.0769 15.29677,0.0374 22.567043,0.1251 7.27339,0.0877 15.649404,-0.36685 23.62083,-1.1 l 0,0 c 3.43487,-0.31592 6.84763,-0.32726 10.28438,-0.21078 m -19.157509,0.23564 c 7.231999,-0.0988 14.513079,0.17398 21.786979,0.54933 0.52728,0.0272 1.04716,0.085 1.55795,0.17156 6.57945,1.11543 11.46556,6.31561 10.93693,12.75542 -0.10571,1.28774 -0.22226,2.57523 -0.34934,3.86923 -0.32709,3.33061 -0.30223,6.83522 -0.12486,10.39927 m -0.53157,-19.27017 c 0.60075,1.51499 0.9321,3.21951 0.92119,5.04282 -0.0363,6.06101 0.14298,12.46819 0.19461,18.86553 l 0,0 c 0.0666,8.25604 0.29907,15.29051 0.90625,22.53334 0.22321,2.66257 0.27896,5.49398 0.25833,8.41508 m -1.52889,-17.17491 c -0.19328,7.90723 0.0574,15.24937 0.17525,22.43566 l 0,0 c 0.11786,7.18937 0.26844,15.79884 0.79375,24.06458 0.35932,5.65396 0.0815,10.73378 -0.32642,15.71108 m 0.84836,-25.97268 c 0.0499,7.92429 -0.009,15.74908 -0.0376,23.93564 l 0,0 c -0.0283,8.19007 -0.19714,15.28604 -0.58125,22.52083 -0.24519,4.61811 -0.2466,9.67023 -0.30464,14.73428 m -0.65803,-23.32252 c -0.12857,8.02765 0.37339,15.06946 1.12517,21.89801 l 0,0 c 0.75209,6.83147 -0.0171,15.64963 -0.0563,23.60833 -0.0334,6.78696 -0.28065,13.40028 -0.80784,20.17627 m 0.81699,-29.88341 c -0.17276,7.93847 -0.24596,15.30688 -0.74353,22.61062 l 0,0 c -0.49778,7.30687 -0.0113,15.94755 -0.025,24.50208 l 0,0 c -0.004,2.48314 -0.0118,4.79277 -0.0241,6.98554 m 0.33791,-17.98746 c -0.20151,7.82259 0.16311,15.93932 0.48776,24.49202 l 0,0 c 0.3248,8.55638 -0.0467,15.44024 -0.14375,22.98959 -0.0189,1.47476 -0.0228,2.95951 -0.0137,4.44911 m 0.0665,-14.49185 c -0.26194,7.82246 -0.002,15.78158 -0.006,24.02327 l 0,0 c -0.004,8.24522 -0.0883,15.6706 -0.2625,23.68958 l 0,0 c -0.13022,5.99262 0.0931,11.63334 0.45546,17.2239 m -0.79156,-27.48348 c -0.12477,7.67461 -0.0478,15.48389 -0.13109,23.12347 -0.0833,7.64284 0.21393,15.71784 0.64375,23.82708 l 0,0 c 0.0779,1.47011 0.13545,2.90335 0.18031,4.30569 m -0.78019,-15.42939 c 0.0958,7.73522 0.16719,15.87224 0.50613,24.29213 0.33909,8.42349 0.0298,15.28836 0.0813,22.52083 l 0,0 c 0.0158,2.22652 0.0447,4.59419 0.0909,7.05521 m 0.003,-16.23568 c 0.0251,7.75792 0.19084,15.66811 0.56872,23.68586 0.0249,0.52759 0.0445,1.05228 0.0591,1.57427 0.2088,7.45355 -6.4255,13.03256 -14.57343,12.68713 -0.37518,-0.0159 -0.75064,-0.0317 -1.12627,-0.0475 -1.33549,-0.0559 -2.62573,-0.0908 -3.88088,-0.10863 m 13.364,-1.28874 c -2.17588,1.79017 -4.99175,2.82756 -8.10424,2.80409 -4.96037,-0.0374 -10.04609,-0.15813 -15.13729,-0.23641 -8.131646,-0.12504 -15.136625,-0.38941 -22.089584,-1.1625 l -2e-6,0 c -2.653795,-0.29507 -5.543254,-0.2956 -8.531254,-0.13101 m 18.050755,1.01692 c -7.666585,-0.0167 -15.831484,-0.12871 -24.173472,-0.39372 -8.345564,-0.26513 -15.725304,-0.0351 -23.852081,-0.0937 l -2e-6,0 c -2.530403,-0.0183 -4.952502,-0.007 -7.297746,0.0292 m 17.510133,-0.27135 c -7.664139,0.008 -15.402585,-0.0242 -22.885976,-0.0688 -3.631988,-0.0216 -7.401985,0.0184 -11.209585,0.10483 -4.289116,0.0974 -8.130751,-1.74207 -10.5500575,-4.66249 -1.7557899,-2.11947 -2.8525799,-4.87668 -2.9848442,-7.90174 -0.1835921,-4.19899 -0.5010118,-8.41861 -0.9536102,-12.48575 m 13.3379979,25.81256 c -6.8240021,-0.41102 -12.2623162,-6.1657 -12.1735292,-13.21079 0.014432,-1.14517 0.031445,-2.28982 0.051905,-3.43345 0.1393597,-7.78931 -0.00811,-15.72942 -0.0125,-23.85208 l 0,0 c -0.00226,-4.18538 -0.081391,-8.22655 -0.2407441,-12.26474 m -0.9157199,21.68322 c -0.1661178,-7.55631 0.2244842,-15.71047 0.681464,-23.81112 l -10e-8,0 C 3.2998837,463.72587 2.6385106,456.3459 2.2364584,448.69666 l -1e-7,0 c -0.078541,-1.49428 -0.1187564,-2.98759 -0.1296885,-4.47703 m 0.5828615,14.81847 c 0.037246,-7.6185 -0.2028497,-15.50655 -0.606298,-23.19854 l -10e-8,0 C 1.679712,428.14428 1.9652628,420.11257 1.7208333,411.98123 l 0,0 c -0.1113394,-3.70388 -0.1168339,-7.21638 -0.085912,-10.63675 m 1.4734515,20.19379 c 0.030875,-7.7847 -0.3602425,-15.39636 -1.0812899,-22.86707 -0.7213565,-7.4739 0.2256998,-16.03807 0.6874998,-24.78333 l 2e-7,0 c 0.3369871,-6.38164 0.048713,-11.63282 -0.3306426,-16.88191 m 0.947937,28.07524 c 0.083069,-7.78707 -0.1005705,-15.72744 -0.3126069,-23.85456 l -2e-7,-10e-6 C 2.8071434,353.09603 2.6461727,345.45552 1.8880211,337.23706 l -3e-7,-10e-6 c -0.6065504,-6.57508 -0.030112,-12.54637 0.5603665,-18.59004 m -0.1403002,30.07988 c -0.1911982,-7.58953 0.068011,-15.67245 0.2064962,-23.67982 0.1385449,-8.01081 -0.1390684,-15.35767 -0.43125,-22.75208 l 0,-10e-6 c -0.039615,-1.00257 -0.068929,-2.02407 -0.090148,-3.06162 m 0.7576349,11.91603 c 0.2328985,-7.86163 0.075407,-15.4078 0.2122003,-22.88572 l -10e-8,0 C 3.0998724,280.78254 2.6757504,272.58639 2.0880209,264.57409 l -1e-7,0 c -0.077621,-1.05818 -0.1289997,-2.10687 -0.1581683,-3.1477 m 1.1126843,13.45642 C 2.9092161,267.00448 2.7239323,259.40348 2.0927083,251.77211 1.4612136,244.13747 2.3365389,235.7887 2.8364581,227.16378 l 2e-7,0 c 0.092387,-1.59392 0.1523832,-3.12069 0.1895462,-4.59633 m -0.316074,14.46644 c 0.02696,-7.68496 -0.076846,-15.44654 -0.2437847,-23.0172 l 0,0 c -0.1670104,-7.5739 0.1645969,-15.45104 0.4812498,-23.03333 l 2e-7,0 c 0.1375581,-3.29384 0.1017066,-6.62926 -0.030146,-9.95916 m 0.092469,18.76176 C 2.8722942,191.94284 2.7537851,184.1418 2.2411458,176.16897 c -0.3476275,-5.40648 -0.089727,-10.56969 0.2979117,-15.67238 0.1930183,-2.5408 1.161421,-4.89272 2.65664,-6.85972 2.6779117,-3.52287 6.7522375,-5.92465 11.3421095,-5.86858 3.139343,0.0384 6.246627,0.0889 9.447779,0.2091 M 129.64583,477.5329 v 16.08594 M 2.6458333,299.96644 v -14.35157"
           transform="translate(0,-26.458334)" />
      </g>
      <path
         d="m 89.266969,502.05817 c -0.04755,-13.48713 -2.774108,-27.63442 -9.745026,-37.87271 -4.007151,-5.95836 -10.240657,-9.8858 -16.343473,-8.19837 -7.233414,1.90798 -12.498523,9.91471 -15.596495,18.28719 -3.220353,8.75094 -4.672294,18.56106 -4.567219,28.25419 0.801302,3.36125 3.721354,4.54372 5.981534,5.66997 8.096322,3.21099 16.717779,3.49928 25.08622,2.435 4.727899,-0.85141 9.794415,-1.69822 13.780272,-5.43409 0.721369,-0.77592 1.404996,-1.848 1.404187,-3.14118 z"
         id="path19"
         style="fill:#ffffff;stroke:#000000;stroke-width:0.52916667;stroke-dasharray:none" />
      <path
         id="path12"
         style="fill:#cccccc;fill-opacity:1;stroke:none;stroke-width:0.52916667;stroke-dasharray:none"
         d="m 57.970019,458.5966 c -4.599278,3.46866 -8.091019,9.46951 -10.388203,15.67781 -3.22035,8.75093 -4.672031,18.56107 -4.566957,28.25419 0.801301,3.36125 3.721061,4.54368 5.981238,5.66994 8.096314,3.21098 16.717787,3.49927 25.086221,2.43499 4.727893,-0.85141 9.794804,-1.69843 13.780657,-5.43429 0.501438,-0.53937 0.978836,-1.22454 1.226591,-2.0249 -3.369236,1.92608 -7.169378,2.57675 -10.773916,3.22586 -8.368432,1.06427 -16.989906,0.77598 -25.08622,-2.435 -2.260177,-1.12625 -5.179936,-2.30868 -5.981237,-5.66994 -0.105075,-9.69312 1.346606,-19.50326 4.566957,-28.25419 1.530144,-4.13532 3.591313,-8.17839 6.154869,-11.44447 z" />
      <path
         d="m 95.263035,230.2901 c -0.06763,-7.11521 -1.165527,-13.99303 -2.923759,-20.63716 -0.21266,-0.80361 -0.435071,-1.60395 -0.666535,-2.40052 0,0 -10e-7,0 -10e-7,0 -2.106425,-7.24918 -4.93111,-14.08976 -9.066419,-20.08996 -0.323594,-0.47508 -0.658886,-0.94119 -1.005339,-1.39729 -2.118086,-2.78841 -4.476724,-5.07031 -6.997476,-6.68045 m 11.606195,14.34583 c -1.225751,-2.35648 -2.52524,-4.60864 -3.938873,-6.74754 -2.48805,-3.81112 -5.578037,-7.02694 -9.039325,-9.11474 -0.828361,-0.49965 -1.676952,-0.934 -2.542149,-1.29583 -2.74047,-1.14607 -5.654525,-1.38151 -8.527043,-0.52985 -4.474522,1.26896 -8.32239,4.60622 -11.471981,8.87282 0,0 0,0 0,0 -6e-6,1e-5 -0.03998,0.0542 -0.03998,0.0542 -0.690989,0.93898 -1.356251,1.91908 -1.992946,2.93083 m 8.979816,-9.26168 c -2.744509,1.52088 -5.11227,3.74376 -7.105257,6.39549 -2.513496,3.34429 -4.402221,7.32854 -5.77091,11.43399 -0.290469,0.87128 -0.594875,1.78533 -0.89546,2.69607 -2.001557,6.10158 -4.468702,13.52389 -5.90067,20.90561 0,0 -1e-6,0 -1e-6,0 -0.387801,1.9991 -0.642185,3.90418 -0.788103,5.7405 m 2.030693,-15.94619 c -1.890919,7.49613 -2.313913,15.22785 -1.808789,22.89613 0.03815,0.57916 0.07499,1.16065 0.111234,1.74435 0.612553,2.085 1.79299,3.49712 3.203648,4.59408 1.399725,1.08845 3.008131,1.84924 4.39822,2.59227 3.370705,1.44957 6.774816,2.52376 10.349992,3.25673 6.641118,1.36155 13.107437,1.32892 19.317554,0.9339 m -29.319021,-3.08573 c 7.539382,2.99982 15.081722,3.64408 22.645618,2.99166 2.722773,-0.23485 5.469306,-0.53296 8.200242,-0.91817 2.928897,-0.56953 5.986082,-1.10604 8.893852,-2.13343 1.791194,-0.63287 3.536894,-1.45559 5.165618,-2.59261 1.018403,-0.71095 2.01045,-1.50698 2.966928,-2.41778 0.900638,-0.98342 1.766178,-2.3153 1.794728,-3.89848 0.02189,-1.45252 0.03077,-2.89345 0.0218,-4.32205 m -13.072795,15.18337 c 1.222207,-0.26219 2.427349,-0.57119 3.605055,-0.95393 2.991596,-0.97221 5.807902,-2.42066 8.265635,-4.78569 0.888705,-0.9815 1.726843,-2.33812 1.710127,-3.97195 -0.02487,-1.89899 -0.08731,-3.80884 -0.178767,-5.72046 -0.31938,-6.67537 -1.364042,-13.40071 -3.24275,-20.03059 -0.346369,-1.22232 -0.720894,-2.44059 -1.124085,-3.65342 -0.793454,-2.38677 -1.581217,-4.649 -2.418656,-6.82335 m 5.461665,28.47801 c -0.19216,-6.24235 -1.010887,-12.23348 -2.236769,-17.59032 -0.299278,-1.30778 -0.623406,-2.58014 -0.969541,-3.81099 -1.576829,-5.6072 -4.424679,-12.65372 -7.917903,-18.75109 -0.676127,-1.19436 -1.396618,-2.33711 -2.150088,-3.40472 -1.196397,-1.69519 -2.549563,-3.09207 -4.011569,-4.1989 m 9.095093,12.91891 c -0.913624,-1.76391 -1.923011,-3.44613 -3.028413,-5.0417 -2.559211,-3.7391 -5.901407,-6.79539 -9.599958,-8.67225 -1.482025,-0.75207 -3.022962,-1.3155 -4.597141,-1.6568 -2.356984,-0.51103 -4.701324,-0.52216 -6.983899,0.0839 -4.524364,1.1438 -8.206291,4.13867 -11.331946,8.06848 -0.35308,0.44392 -0.699048,0.89957 -1.038624,1.36579 -0.466433,0.64038 -0.918186,1.31084 -1.354744,2.00761 m 8.949944,-8.34695 c -2.078977,1.51984 -4.000716,3.40915 -5.746841,5.52311 -3.004111,3.63696 -5.518548,7.97445 -7.383865,12.31112 -0.152615,0.35481 -0.301908,0.71494 -0.447868,1.0797 -2.490124,6.2573 -4.278541,14.15524 -5.412399,21.69633 -0.699456,4.65196 -0.867992,9.38903 -0.695534,14.20901 0.380906,1.49408 1.069837,2.67083 1.928046,3.64084 m -0.348253,-27.67974 c -1.627439,7.5592 -2.122464,15.20417 -1.4552,22.72721 0.02169,0.24455 0.04257,0.48974 0.0627,0.73554 0.653451,2.04851 1.818515,3.43018 3.204722,4.51404 1.367511,1.06924 2.923924,1.82261 4.23953,2.55429 3.509407,1.56325 6.935376,2.68297 10.504685,3.35767 5.183454,0.97982 11.26987,0.86713 17.396964,0.17314 M 46.07271,242.99809 c 7.53529,2.57962 15.205943,3.20181 22.847495,2.44374 2.20512,-0.21876 4.415475,-0.49001 6.615735,-0.82133 2.935487,-0.59867 5.997916,-1.17227 8.922704,-2.23154 2.291451,-0.8299 4.519062,-1.96482 6.54173,-3.6574 0.559569,-0.46824 1.10791,-0.96577 1.64342,-1.49807 0.895407,-1.01846 1.751759,-2.38561 1.765063,-3.99745 0.0076,-1.42445 -1.11e-4,-2.83326 -0.02599,-4.2297 m -12.069076,14.84522 c 0.615055,-0.17541 1.227038,-0.36797 1.833959,-0.58177 2.943938,-1.03705 5.785592,-2.57948 8.272727,-5.10776 0.902274,-1.04707 1.757331,-2.48462 1.757068,-4.23123 -0.0075,-2.64957 -0.08545,-5.36639 -0.238693,-8.14169 -0.373357,-6.76172 -1.128231,-12.07226 -2.339525,-17.02407 -0.364988,-1.49208 -0.772178,-2.95422 -1.222983,-4.41003 -1.436142,-4.63783 -3.628772,-10.0092 -6.341132,-14.77401 m 11.142091,38.15011 c -0.202275,-6.31671 -1.188859,-12.68864 -2.799017,-18.42018 -0.323825,-1.1527 -0.672927,-2.27966 -1.046105,-3.37547 -2.073961,-6.09005 -4.584972,-12.87953 -8.125658,-18.64361 -0.538358,-0.88749 -1.111515,-1.73535 -1.71679,-2.53331 -2.073899,-2.73411 -4.629927,-4.90536 -7.416339,-6.31496 -0.624889,-0.31613 -1.261912,-0.5942 -1.908304,-0.83175 m 14.225674,15.29063 c -0.972496,-1.95149 -2.045332,-3.80658 -3.216985,-5.55927 -2.472682,-3.74507 -5.654924,-6.81982 -9.124757,-8.72337 -1.219917,-0.66925 -2.476921,-1.19461 -3.754048,-1.5539 -2.358667,-0.66357 -4.829629,-0.71755 -7.2885,-0.0152 -4.491056,1.22523 -8.412996,4.41777 -11.598588,8.64519 -0.246869,0.3276 -0.489278,0.6614 -0.727123,1.00093 -0.909017,1.29763 -1.777998,2.66421 -2.600925,4.07402 m 8.192177,-11.05919 c -2.196962,1.53957 -4.17914,3.47752 -5.932514,5.6565 -2.879789,3.57881 -5.142335,7.80425 -6.758459,12.06663 -0.161214,0.42518 -0.321243,0.85777 -0.479647,1.29628 -2.203585,6.13717 -4.415189,13.89938 -5.713227,21.03248 0,0 0,0 0,0 -0.508164,2.79251 -0.76053,5.68046 -0.830275,8.62402 m 2.988598,-16.43248 c -1.678379,7.76325 -2.168122,15.42637 -1.748786,23.34687 -2.4e-5,-4.6e-4 0.0087,0.16457 0.0087,0.16411 0.594463,2.13309 1.786857,3.54513 3.204342,4.60204 1.414972,1.05504 3.032373,1.73819 4.443983,2.40011 3.917475,1.44201 7.898387,2.25973 12.03119,2.6199 5.890608,0.51335 11.70478,0.62322 17.45864,0.14989 m -28.00446,-2.83259 c 7.594366,2.56181 15.012859,3.45869 22.256188,3.44384 1.929174,-0.004 3.927361,-0.17542 5.960539,-0.47575 2.941466,-0.59147 6.080464,-1.32044 9.128049,-2.57346 2.537624,-1.04336 5.01476,-2.45236 7.224904,-4.449 0.437615,-0.39534 0.865876,-0.80564 1.284083,-1.2335 0.91836,-1.0699 1.784078,-2.47694 1.789242,-4.11179 0.0015,-5.16028 -0.361405,-9.92909 -1.036698,-14.85989 m -40.390338,-37.55041 -10.198421,16.3891 m 15.833933,48.73626 17.216944,-0.41209"
         id="path1"
         style="fill:none;stroke:#000000;stroke-width:0.66145833;stroke-dasharray:none"
         inkscape:path-effect="#path-effect13"
         inkscape:original-d="m 95.056791,234.1227 c -0.05944,-16.85891 -3.467635,-34.54302 -12.181282,-47.34089 -5.008939,-7.44795 -12.800822,-12.35725 -20.429342,-10.24796 -9.041767,2.38498 -15.623153,12.39339 -19.495618,22.85899 -4.025442,10.93867 -5.840368,23.20132 -5.709024,35.31773 1.001627,4.20157 4.651693,5.67965 7.476917,7.08747 10.120403,4.01373 20.897224,4.3741 31.357776,3.04375 5.909873,-1.06426 12.243018,-2.12278 17.225339,-6.79261 0.901712,-0.96991 1.756245,-2.31 1.755234,-3.92648 z"
         transform="matrix(0.8,0,0,0.8,13.221536,314.76001)" />
      <circle
         cx="66.138199"
         cy="444.75885"
         r="19.511042"
         id="circle1"
         style="fill:#ffffff;stroke:none;stroke-width:0.52916667;stroke-dasharray:none" />
      <path
         id="circle10"
         style="fill:#cccccc;fill-opacity:1;stroke:none;stroke-width:0.52916667;stroke-dasharray:none"
         d="m 54.656113,429.04389 a 19.511042,19.511042 0 0 0 -8.028864,15.71501 19.511042,19.511042 0 0 0 19.510953,19.51095 19.511042,19.511042 0 0 0 15.714597,-8.02887 19.511042,19.511042 0 0 1 -11.481263,3.79553 19.511042,19.511042 0 0 1 -19.510954,-19.51095 19.511042,19.511042 0 0 1 3.795531,-11.48167 z" />
      <path
         id="circle11"
         style="fill:none;stroke:#000000;stroke-width:0.66145833;stroke-dasharray:none"
         inkscape:path-effect="#path-effect12"
         sodipodi:type="arc"
         sodipodi:cx="66.145828"
         sodipodi:cy="162.4985"
         sodipodi:rx="24.388802"
         sodipodi:ry="24.388802"
         d="m 90.413356,167.77096 c -1.235956,7.60515 -6.722478,14.37873 -14.088218,17.65062 -3.243088,1.44058 -6.723482,2.16121 -10.249373,2.10837 -4.378674,-0.0656 -8.687447,-1.32165 -12.568615,-3.65562 -2.891254,-1.73868 -5.316282,-3.91313 -7.189911,-6.45442 m 15.735121,9.21932 c -8.065175,-1.25398 -14.587201,-6.28974 -18.047431,-13.80662 -1.668136,-3.6238 -2.541426,-7.35806 -2.512063,-11.06246 0.03074,-3.87873 1.051297,-7.6045 3.01604,-11.00224 0.585718,-1.01292 1.242106,-1.99294 1.966135,-2.92942 m -4.964478,12.37176 c 0.555841,-8.0198 5.585124,-15.07666 13.162373,-19.30161 4.098211,-2.28509 8.177422,-3.2918 12.157685,-3.03045 3.28551,0.21572 6.419082,1.29095 9.347892,3.10218 1.534944,0.94923 3.056201,1.97771 4.520179,3.1048 M 66.562941,137.8862 c 7.776105,0.34965 15.434153,4.44317 20.269037,10.95869 2.845277,3.83432 4.143807,8.48515 4.076522,13.28561 -0.0454,3.23915 -0.710328,6.47439 -1.855991,9.50979 -2.446886,6.48294 -7.673853,11.4205 -14.311489,14.21294 m 15.469822,-16.21799 c -1.966195,7.72697 -7.898492,13.57215 -15.503655,15.80372 -2.696371,0.79119 -5.505369,1.21059 -8.33184,1.1752 -5.052192,-0.0632 -9.962946,-1.57908 -14.176443,-4.68306 -3.569677,-2.6297 -6.28302,-5.8595 -7.947488,-9.52754 m 17.016063,14.48462 c -7.463786,-1.68883 -14.105934,-7.21567 -17.112636,-14.6339 -1.206435,-2.97655 -1.868313,-6.16668 -1.952553,-9.41644 -0.123044,-4.74675 0.989793,-9.44127 3.177083,-13.63028 1.090854,-2.08916 2.544784,-3.92568 4.271578,-5.48956 m -8.197688,13.76009 c 1.634684,-7.72215 6.767263,-13.91457 14.367627,-16.17462 3.403533,-1.01208 6.901638,-1.82602 10.45512,-2.11554 4.297657,-0.35016 8.466353,0.0902 12.299956,1.70483 1.677605,0.70657 3.204348,1.7364 4.556178,3.02349 m -13.615966,-5.25489 c 7.875108,0.91781 14.497644,5.87916 17.736272,12.8987 1.60255,3.47344 2.56441,7.28967 2.655759,11.13733 0.09085,3.82673 -0.683983,7.5634 -2.39482,10.87873 -0.366842,0.71088 -0.772843,1.41023 -1.215749,2.09414 m 3.942293,-6.73222 c -1.799398,7.7872 -7.437451,13.64752 -14.79931,15.80864 -2.816282,0.82673 -5.829118,1.33672 -8.901321,1.37939 -4.862967,0.0675 -9.674227,-1.04208 -13.842163,-3.63124 -5.225802,-3.2463 -8.669444,-8.18535 -9.995974,-13.68964 m 18.605155,17.62024 c -7.76947,-1.27389 -14.20234,-6.51101 -16.97679,-13.93875 -1.279956,-3.42669 -2.139731,-7.00151 -2.334301,-10.58782 -0.222192,-4.09545 0.435163,-8.04643 2.149008,-11.59187 2.355403,-4.87263 7.211097,-8.85174 13.050878,-11.0419 m -15.676148,21.37816 c 0.857135,-7.95947 5.306244,-15.07456 12.117344,-19.36398 3.617303,-2.27807 7.74974,-3.42335 11.945684,-3.50498 3.590167,-0.0698 7.128815,0.6399 10.342496,1.96141 3.244739,1.33429 6.175579,3.62078 8.544942,6.54123 m -17.804041,-7.62489 c 7.940255,0.36358 15.105012,4.25237 19.314897,10.02031 2.412029,3.30471 3.734004,8.03412 3.831303,13.09782 0.06984,3.63445 -0.490968,7.36044 -1.639618,10.78712 -1.934403,5.77075 -5.762961,9.68695 -10.529663,12.07217 m -31.831645,-5.5645 -5.829659,-18.40179 m 32.861855,-23.14689 14.200974,9.74296"
         transform="matrix(0.8,0,0,0.8,13.221536,314.76001)" />
    </g>
    <g
       id="g2">
      <text
         xml:space="preserve"
         style="font-style:normal;font-variant:normal;font-weight:normal;font-stretch:normal;font-size:21.1667px;font-family:Quicksand;-inkscape-font-specification:'Quicksand, Normal';font-variant-ligatures:normal;font-variant-caps:normal;font-variant-numeric:normal;font-variant-east-asian:normal;fill:#1a1a1a;stroke:none;stroke-width:0.264583"
         x="66.419243"
         y="428.11475"
         id="text1"><tspan
           sodipodi:role="line"
           style="font-style:normal;font-variant:normal;font-weight:bold;font-stretch:normal;font-size:17.6389px;font-family:Sans;-inkscape-font-specification:'Sans, Bold';font-variant-ligatures:normal;font-variant-caps:normal;font-variant-numeric:normal;font-variant-east-asian:normal;text-align:center;text-anchor:middle;stroke:none;stroke-width:0.264583"
           x="66.419243"
           y="428.11475"
           id="tspan3">Spiele</tspan><tspan
           sodipodi:role="line"
           style="font-style:normal;font-variant:normal;font-weight:normal;font-stretch:normal;font-size:17.6389px;font-family:Sans;-inkscape-font-specification:'Sans, Normal';font-variant-ligatures:normal;font-variant-caps:normal;font-variant-numeric:normal;font-variant-east-asian:normal;text-align:center;text-anchor:middle;stroke:none;stroke-width:0.264583"
           x="66.419243"
           y="454.57312"
           id="tspan13">~ $245 Mia</tspan></text>
      <path
         style="fill:none;stroke:#000000;stroke-width:0.529167;stroke-dasharray:none;stroke-opacity:1"
         id="path25"
         width="126.99999"
         height="79.110413"
         x="2.6458333"
         y="2.9104168"
         ry="13.758205"
         sodipodi:type="rect"
         inkscape:path-effect="#path-effect28-7"
         d="m 21.275535,3.6429992 c 8.009293,-0.1787808 15.474099,0.0028 23.091781,-0.00602 7.620947,-0.00883 15.422417,-0.1349239 22.93958,-0.3999999 l 3e-6,-1e-7 c 3.106988,-0.109561 6.329619,-0.1193055 9.611921,-0.084937 M 57.785317,2.925924 c 7.543728,-0.091666 15.594629,-0.2280872 23.47363,-0.6686322 l 3e-6,10e-8 c 7.882378,-0.4407338 15.645821,0.1327321 23.58958,0.3874999 1.21669,0.039021 2.42782,0.068354 3.63523,0.090739 M 94.892774,2.8352482 C 101.63392,2.719207 108.90151,2.708961 116.37161,2.5232929 c 0.98798,-0.024556 1.95645,0.03591 2.89718,0.173002 6.89992,1.0055184 11.14464,6.9529516 10.54933,14.1989601 -0.13024,1.585282 -0.26016,3.179108 -0.37542,4.77612 -0.14572,2.01905 -0.20559,3.933332 -0.20423,5.771968 m -1.17156,-16.018144 c 0.56687,1.548374 0.88793,3.228939 0.90558,4.986364 0.0607,6.044943 0.41442,12.041446 0.83584,17.990962 l 0,2e-6 c 0.53991,7.622546 0.0516,15.700605 0.15,23.770831 0.0424,3.475492 0.005,6.895888 -0.0902,10.331684 -0.098,3.550639 -1.51344,6.809566 -3.78596,9.397534 m 4.1248,-29.711443 c 0.12723,6.987788 -0.0352,13.652234 -0.17848,20.19532 -0.0185,0.846683 -0.12052,1.672056 -0.29806,2.468771 -1.33859,6.007171 -6.88255,10.916553 -13.69634,10.777821 -1.46276,-0.02978 -2.93067,-0.0722 -4.4066,-0.135653 -4.31828,-0.185647 -8.47906,-0.106831 -12.56546,0.07407 m 22.38893,0.13086 c -1.4941,0.618832 -3.14904,0.957167 -4.90056,0.95791 -6.01025,0.0025 -12.23109,-0.08231 -18.295114,-0.150342 l -3e-6,0 c -7.773912,-0.08722 -15.804979,-0.22448 -24.09583,-0.68125 -2.4649,-0.135799 -4.840604,-0.204689 -7.167861,-0.242818 m 16.047883,-0.174305 c -7.572622,0.05034 -15.348127,0.516104 -22.717343,1.556185 l -3e-6,0 c -7.372375,1.040527 -15.451124,-0.474187 -23.008331,-1.4375 -1.821691,-0.232209 -3.682081,-0.327162 -5.571818,-0.325429 m 14.920761,1.145555 c -7.743442,-0.14553 -15.76014,-0.0096 -23.942123,-0.01856 -2.402806,-0.0026 -4.728683,-0.01601 -7.008432,-0.04107 C 9.8834898,82.226625 5.174348,78.487991 3.2899757,73.160228 3.0064683,72.358656 2.7891147,71.531143 2.6456963,70.68417 M 10.471227,81.04176 C 6.1319406,78.823577 3.1207559,74.079921 3.1043891,68.421928 c -0.0085,-2.940071 -0.016646,-5.925492 -0.010118,-8.941744 0.018346,-8.476613 -0.139325,-15.503585 -0.41875,-23.183331 l 0,-3e-6 C 2.4617937,30.422752 2.6304717,24.602783 2.8106401,18.96989 M 1.8833709,46.692092 C 1.9127414,38.96534 2.1944596,31.000373 2.8270833,22.943698 3.0120375,20.588243 3.063514,18.288327 3.0286857,16.022952 2.9389234,10.184445 5.9787348,5.4237443 10.689591,3.5575503 12.108435,2.9954789 13.73057,2.6844036 15.489716,2.6842085 19.45101,2.6837689 23.707028,2.5926205 28.017386,2.4812575 M 22.636261,3.468149 C 30.48135,3.405626 38.141488,3.2851143 45.828253,2.9119793 l 2e-6,0 c 7.69006,-0.3732948 15.502876,-0.2420611 23.183332,-0.7125 3.579504,-0.2192497 7.231644,-0.2070874 10.928074,-0.1075016 M 59.407234,3.4118586 c 7.789004,-0.093963 15.5578,-0.4830281 23.342064,-1.4436293 7.7876,-0.9610129 15.699834,0.4991075 23.770832,1.4999997 l 0,3e-7 c 3.08942,0.3831223 6.11271,0.4704989 9.1189,0.4305363 2.62416,-0.034884 5.05094,0.5509248 7.15028,1.6828387 M 97.326287,2.4497739 c 6.406853,0.1850174 12.573123,0.3270578 18.739653,0.7940266 1.5132,0.1145889 2.96712,0.4951625 4.32507,1.107549 5.36459,2.4192389 9.35188,7.2114885 9.50345,12.9882865 0.0512,1.952575 0.10814,3.908825 0.16387,5.913283 0.10677,3.840822 0.0699,7.829081 -0.0269,11.876947 m -0.50379,-21.00232 c 0.25023,0.998995 0.38612,2.047133 0.39444,3.129847 0.0509,6.624322 0.0654,13.406084 0.19714,20.046751 0.15284,7.703668 0.0607,15.64712 0.19375,23.60208 l 0,3e-6 c 0.0274,1.637905 0.0385,3.258289 0.0368,4.865697 m -1.1977,-14.701357 c -0.001,5.985513 0.11077,11.646185 0.33487,17.117567 0.0736,1.798007 -0.24217,3.486638 -0.87013,4.991447 -1.8408,4.411238 -6.89276,7.945715 -12.88799,8.024252 -2.57776,0.03377 -5.17558,0.0545 -7.75734,-0.0033 -3.0559,-0.06843 -5.97181,-0.06146 -8.81798,-0.0073 m 18.77896,1.255899 c -0.66034,0.114982 -1.33373,0.181501 -2.01677,0.196514 -7.11845,0.156456 -13.99227,0.01998 -20.780832,0.12832 l -3e-6,0 c -7.432917,0.118627 -15.492177,-0.199286 -23.14583,-0.6 -5.746511,-0.300863 -11.645346,-0.122908 -17.534819,0.02501 m 26.939981,-0.379699 c -7.668639,-0.004 -15.80196,0.214765 -24.07347,0.637505 l -3e-6,0 c -8.275055,0.42292 -15.494307,-0.407106 -23.14583,-1.21875 -6.001668,-0.636634 -12.147364,-0.236826 -18.256827,0.0291 -1.078271,0.04693 -2.125352,-0.03407 -3.128145,-0.234584 m 33.589784,0.464912 c -7.541636,0.04391 -15.579394,0.301398 -23.423633,0.912444 -2.034401,0.158475 -4.086356,0.241036 -6.159469,0.279564 C 10.48712,82.806713 5.0001926,78.57092 2.6194551,73.197044 2.0391598,71.887183 1.7141086,70.473136 1.6710128,68.994301 1.5014334,63.175184 2.0837128,57.208717 2.3838861,51.331031 M 10.218893,79.740995 C 5.4053033,77.381842 2.2377174,72.704563 2.3052408,67.271577 c 0.031678,-2.548831 0.06541,-5.094075 0.07653,-7.662785 0.033402,-7.715932 0.361012,-15.352256 1.0749998,-22.720831 l 2e-7,-2e-6 C 3.7895274,33.453808 3.7116999,29.814552 3.4387994,26.095362 M 2.650767,47.133076 C 2.8421083,39.452214 2.7498808,31.623109 2.9505208,23.915872 3.0066153,21.7611 3.0048373,19.56449 2.9583292,17.330391 2.8303484,11.182604 6.1668846,5.7597138 10.973417,3.2544061 12.306227,2.5597057 13.821338,2.1802926 15.457384,2.153826 19.286807,2.0918766 23.412175,2.3789786 27.579542,2.7163841 M 21.904644,3.3667925 C 29.465258,3.4643514 37.79565,3.1936885 46.259503,2.8416668 54.726984,2.4894943 61.394166,2.7800902 68.336584,2.6666669 l 3e-6,-1e-7 C 74.134855,2.5719362 81.280056,2.7971973 88.31614,3.1503759 M 59.209906,3.4416535 c 7.707923,-0.010391 15.552719,0.00347 23.335919,1.33e-5 C 90.33236,3.438206 97.987744,3.2382705 105.54791,2.822917 l 0,-2e-7 c 3.49442,-0.1919828 7.0645,-0.2104236 10.6451,-0.1772367 3.92102,0.036342 7.46103,1.7641527 9.89949,4.4061903 M 94.413884,2.3743991 c 7.113746,-0.058799 14.680706,0.024551 22.109666,0.083495 0.45167,0.00358 0.89769,0.028033 1.33702,0.072394 7.0543,0.7122978 12.32996,6.8140143 12.0145,14.5511491 -0.0446,1.0936 -0.0915,2.194066 -0.14018,3.301767 -0.31557,7.180115 0.0553,13.180628 0.43809,19.336293 M 127.67209,9.3565009 c 1.28137,2.0884681 2.0242,4.5534771 2.03941,7.2055251 0.0303,5.284823 0.0852,10.601968 0.17808,15.952968 l 0,3e-6 c 0.13747,7.919018 -0.21029,15.466497 -0.6375,23.07083 -0.22876,4.07179 -0.12668,8.242674 0.10876,12.434312 0.20799,3.702933 -0.93219,7.064088 -3.00622,9.535296 m 3.78183,-34.025989 c -0.002,7.730741 -0.47097,15.494039 -1.4125,23.154639 -0.028,0.227487 -0.0539,0.455438 -0.0777,0.683845 -0.39726,3.798385 -1.76499,7.264165 -3.96088,9.922352 -2.17794,2.636458 -5.10854,4.384111 -8.44922,4.672788 -0.29672,0.02564 -0.59413,0.05167 -0.89246,0.07807 -4.73541,0.419024 -10.46595,0.118871 -16.273621,-0.3027 m 25.047421,-3.199676 c -2.33623,1.650705 -5.21388,2.652151 -8.33921,2.6678 -4.85461,0.02431 -9.70623,0.123871 -14.63246,0.159576 l 0,0 c -7.944572,0.05758 -15.41659,0.325379 -22.920827,0.96875 l -2e-6,0 c -1.043843,0.08949 -2.096691,0.148848 -3.156373,0.183293 m 12.376743,-0.860166 c -7.996847,-0.24082 -15.506062,0.384618 -23.185547,1.15031 l -3e-6,0 C 56.577005,83.57435 48.546166,82.621884 40.451451,82.245829 35.39827,82.011075 30.679247,82.090997 26.064094,82.208739 M 50.705771,82.086396 C 42.947838,82.040583 35.016224,81.995744 26.957417,81.823954 23.116597,81.74208 19.386465,81.759496 15.6761,81.819776 11.351855,81.890029 7.5275103,80.036362 4.9318364,77.035739 3.6907098,75.600985 2.7748032,73.900345 2.2718186,72.035813 M 13.277724,81.696474 C 6.8816882,80.240728 2.3721788,74.919235 2.826479,68.507069 2.9268739,67.090057 3.0363159,65.675371 3.1520833,64.257994 l 0,-2e-6 c 0.608095,-7.445106 0.079379,-15.719752 0.2374999,-23.82083 l 10e-8,-2e-6 c 0.082587,-4.231222 -0.05112,-8.212062 -0.333729,-12.079991 M 1.9804413,50.536526 C 2.1616124,42.818079 2.3415357,34.833176 3.0739583,26.750621 3.385313,23.314705 3.3976154,19.957436 3.2802772,16.608268 3.1114287,11.788847 5.0991167,7.580478 8.5379615,4.9031731 10.609724,3.2902072 13.205102,2.4179977 16.019345,2.5179361 20.780638,2.6870177 25.588633,3.1310604 30.171254,3.59264 M 130.91471,62.996096 127.8783,78.792855 M 2.6458333,62.18772 V 47.836157"
         transform="translate(-0.12943646,392.66621)" />
    </g>
  </g>
</svg>
