<?xml version="1.0" encoding="UTF-8" standalone="no"?>
<svg
   height="100"
   width="320"
   version="1.1"
   id="svg1"
   sodipodi:docname="service-redis.svg"
   inkscape:version="1.3.2 (091e20ef0f, 2023-11-25, custom)"
   xmlns:inkscape="http://www.inkscape.org/namespaces/inkscape"
   xmlns:sodipodi="http://sodipodi.sourceforge.net/DTD/sodipodi-0.dtd"
   xmlns="http://www.w3.org/2000/svg"
   xmlns:svg="http://www.w3.org/2000/svg">
  <defs
     id="defs1">
    <inkscape:path-effect
       effect="sketch"
       id="path-effect10"
       is_visible="true"
       lpeversion="1"
       nbiter_approxstrokes="3"
       parallel_offset="0.2;3180610209"
       strokelength="70"
       strokelength_rdm="0.3;1"
       strokeoverlap="0.5"
       strokeoverlap_rdm="0.5;449956839"
       ends_tolerance="0.1;987509179"
       tremble_size="0.8;1"
       tremble_frequency="3"
       nbtangents="2"
       tgt_places_rdmness="0.5;3978923556"
       tgtlength="5"
       tgtlength_rdm="0.3;1475281493"
       tgtscale="10" />
    <inkscape:path-effect
       effect="sketch"
       id="path-effect9"
       is_visible="true"
       lpeversion="1"
       nbiter_approxstrokes="3"
       parallel_offset="0.2;1"
       strokelength="70"
       strokelength_rdm="0.3;1"
       strokeoverlap="0.5"
       strokeoverlap_rdm="0.5;1"
       ends_tolerance="0.1;1"
       tremble_size="0.8;1"
       tremble_frequency="3"
       nbtangents="2"
       tgt_places_rdmness="0.5;1"
       tgtlength="5"
       tgtlength_rdm="0.3;1"
       tgtscale="10" />
    <inkscape:path-effect
       effect="sketch"
       id="path-effect8"
       is_visible="true"
       lpeversion="1"
       nbiter_approxstrokes="3"
       parallel_offset="0.2;1"
       strokelength="70"
       strokelength_rdm="0.3;1"
       strokeoverlap="0.5"
       strokeoverlap_rdm="0.5;1"
       ends_tolerance="0.1;1"
       tremble_size="0.8;1"
       tremble_frequency="3"
       nbtangents="2"
       tgt_places_rdmness="0.5;1"
       tgtlength="5"
       tgtlength_rdm="0.3;1"
       tgtscale="10" />
    <inkscape:path-effect
       effect="sketch"
       id="path-effect4"
       is_visible="true"
       lpeversion="1"
       nbiter_approxstrokes="3"
       parallel_offset="0.2;1"
       strokelength="70"
       strokelength_rdm="0.3;1"
       strokeoverlap="0.5"
       strokeoverlap_rdm="0.5;1"
       ends_tolerance="0.1;1"
       tremble_size="0.8;1"
       tremble_frequency="3"
       nbtangents="2"
       tgt_places_rdmness="0.5;1"
       tgtlength="5"
       tgtlength_rdm="0.3;1"
       tgtscale="10" />
    <inkscape:path-effect
       effect="sketch"
       id="path-effect3"
       is_visible="true"
       lpeversion="1"
       nbiter_approxstrokes="3"
       parallel_offset="2;1"
       strokelength="70"
       strokelength_rdm="0.3;1"
       strokeoverlap="0.5"
       strokeoverlap_rdm="0.5;1"
       ends_tolerance="0.1;1"
       tremble_size="0.8;1"
       tremble_frequency="3"
       nbtangents="2"
       tgt_places_rdmness="0.5;1"
       tgtlength="5"
       tgtlength_rdm="0.3;1"
       tgtscale="10" />
    <inkscape:path-effect
       effect="sketch"
       id="path-effect2"
       is_visible="true"
       lpeversion="1"
       nbiter_approxstrokes="3"
       parallel_offset="2;1"
       strokelength="70"
       strokelength_rdm="0.3;1"
       strokeoverlap="0.5"
       strokeoverlap_rdm="0.5;1"
       ends_tolerance="0.1;1"
       tremble_size="0.8;1"
       tremble_frequency="3"
       nbtangents="2"
       tgt_places_rdmness="0.5;1"
       tgtlength="5"
       tgtlength_rdm="0.3;1"
       tgtscale="10" />
    <inkscape:path-effect
       effect="sketch"
       id="path-effect6"
       is_visible="true"
       lpeversion="1"
       nbiter_approxstrokes="3"
       parallel_offset="0.2;1"
       strokelength="70"
       strokelength_rdm="0.3;1"
       strokeoverlap="0.5"
       strokeoverlap_rdm="0.5;1"
       ends_tolerance="0.1;1"
       tremble_size="0.8;1"
       tremble_frequency="3"
       nbtangents="2"
       tgt_places_rdmness="0.5;1"
       tgtlength="5"
       tgtlength_rdm="0.3;1"
       tgtscale="10" />
    <inkscape:path-effect
       effect="sketch"
       id="path-effect5"
       is_visible="true"
       lpeversion="1"
       nbiter_approxstrokes="3"
       parallel_offset="0.2;1"
       strokelength="70"
       strokelength_rdm="0.3;1"
       strokeoverlap="0.5"
       strokeoverlap_rdm="0.5;1"
       ends_tolerance="0.1;1"
       tremble_size="0.8;1"
       tremble_frequency="3"
       nbtangents="2"
       tgt_places_rdmness="0.5;1"
       tgtlength="5"
       tgtlength_rdm="0.3;1"
       tgtscale="10" />
    <inkscape:path-effect
       effect="sketch"
       id="path-effect1"
       is_visible="true"
       lpeversion="1"
       nbiter_approxstrokes="3"
       parallel_offset="0.2;1"
       strokelength="70"
       strokelength_rdm="0.3;1"
       strokeoverlap="0.5"
       strokeoverlap_rdm="0.5;1"
       ends_tolerance="0.1;1"
       tremble_size="0.8;1"
       tremble_frequency="3"
       nbtangents="2"
       tgt_places_rdmness="0.5;1"
       tgtlength="5"
       tgtlength_rdm="0.3;1"
       tgtscale="10" />
    <inkscape:path-effect
       effect="sketch"
       id="path-effect7"
       is_visible="true"
       lpeversion="1"
       nbiter_approxstrokes="3"
       parallel_offset="0.2;1"
       strokelength="70"
       strokelength_rdm="0.3;1"
       strokeoverlap="0.5"
       strokeoverlap_rdm="0.5;1"
       ends_tolerance="0.1;1"
       tremble_size="0.8;1"
       tremble_frequency="3"
       nbtangents="2"
       tgt_places_rdmness="0.5;1"
       tgtlength="5"
       tgtlength_rdm="0.3;1"
       tgtscale="10" />
  </defs>
  <sodipodi:namedview
     id="namedview1"
     pagecolor="#ffffff"
     bordercolor="#000000"
     borderopacity="0.25"
     inkscape:showpageshadow="2"
     inkscape:pageopacity="0.0"
     inkscape:pagecheckerboard="0"
     inkscape:deskcolor="#d1d1d1"
     inkscape:zoom="1.4142136"
     inkscape:cx="101.82337"
     inkscape:cy="55.861434"
     inkscape:window-width="1440"
     inkscape:window-height="831"
     inkscape:window-x="0"
     inkscape:window-y="0"
     inkscape:window-maximized="1"
     inkscape:current-layer="svg1"
     showgrid="true">
    <inkscape:grid
       id="grid1"
       units="px"
       originx="0"
       originy="0"
       spacingx="1"
       spacingy="1"
       empcolor="#0099e5"
       empopacity="0.30196078"
       color="#0099e5"
       opacity="0.14901961"
       empspacing="5"
       dotted="false"
       gridanglex="30"
       gridanglez="30"
       visible="true" />
  </sodipodi:namedview>
  <path
     id="rect4"
     style="fill:#cccccc;stroke:none;stroke-linecap:round;stroke-linejoin:round"
     d="m 20.25,10.25 c -5.539994,0 -10,4.460006 -10,10 v 59.5 c 0,5.539994 4.460006,10 10,10 h 279.5 c 5.53999,0 10,-4.460006 10,-10 0,0 -184.75,5.25 -279.5,0 -5.531509,-0.306495 -8.850428,-4.580589 -10,-10 -5.25,-24.75 0,-59.5 0,-59.5 z"
     sodipodi:nodetypes="csssscssc" />
  <path
     style="fill:none;stroke:#000000;stroke-linecap:round;stroke-linejoin:round"
     id="rect3"
     width="299.5"
     height="79.5"
     x="10.349144"
     y="10.25"
     rx="10"
     ry="10"
     sodipodi:type="rect"
     inkscape:path-effect="#path-effect10"
     d="m 21.94564,10.884145 c 8.009293,-0.178781 15.474099,0.0028 23.091781,-0.006 7.620947,-0.0088 15.422417,-0.134924 22.939581,-0.4 l 2e-6,0 c 3.106989,-0.109561 6.32962,-0.119306 9.611921,-0.08494 m -22.142821,0.08482 c 7.543729,-0.09167 15.594629,-0.228087 23.473631,-0.668632 7.882378,-0.4407338 15.645821,0.132732 23.589585,0.3875 l 0,0 c 1.21669,0.03902 2.42782,0.06836 3.63523,0.09074 M 81.341924,10.165456 C 88.956597,10.034378 97.242989,10.03829 105.73421,9.771875 l 10e-6,1e-7 c 8.49486,-0.2665294 15.24403,0.3653729 22.40833,1.0874999 1.70179,0.171533 3.48944,0.238298 5.33832,0.229415 M 118.6025,9.7046901 c 7.61876,0.00201 15.8219,-0.076089 24.13603,-0.2312526 l 0,1e-7 c 8.3177,-0.1552306 15.60719,0.1450509 23.48333,0.4374999 6.71657,0.2493925 13.11902,0.2827515 19.38608,0.6474275 m -23.74651,0.573013 c 7.91782,0.09961 15.4678,-0.211352 23.0919,-0.643878 l 0,0 c 7.62737,-0.432712 15.46835,-0.164608 23.07708,-0.5062499 l 0,-1e-7 c 4.13457,-0.1856472 8.42664,-0.1068313 12.79308,0.074072 m -23.57597,0.699465 c 8.03639,0.07688 15.55718,-0.03792 23.33549,-0.125099 7.78164,-0.08722 15.30613,-0.22448 22.57083,-0.6812503 l 1e-5,-2e-7 c 2.15982,-0.1357994 4.40884,-0.2046885 6.7063,-0.2428179 M 232.6408,9.473502 c 7.97627,0.050335 15.74966,0.5161041 23.92933,1.556186 l 0,-1e-6 c 8.18318,1.040527 15.65998,-0.474187 23.65833,-1.4374995 1.92803,-0.2322099 3.81736,-0.3271629 5.67735,-0.3254298 m -18.4459,1.2018053 c 7.80544,-0.14553 15.33764,-0.0096 22.70454,-0.01856 2.91736,-0.0035 5.97461,-0.02665 9.09623,-0.07156 5.06328,-0.07285 9.38162,3.431842 10.24909,8.020142 0.0955,0.50499 0.14999,1.027153 0.16041,1.563152 0.006,0.28818 0.0111,0.577364 0.0165,0.867501 m -9.39717,-9.843155 c 0.0999,0.0014 0.19972,0.0027 0.29953,0.0039 5.60568,0.06807 10.04463,4.330422 10.02812,9.52739 -0.007,2.275388 -0.0129,4.51697 -0.007,6.734653 l 0,1e-6 c 0.0183,7.078941 -0.13932,15.607523 -0.41875,23.48333 l 0,2e-6 c -0.21373,6.024062 -0.0451,12.102253 0.13512,18.367519 m -1.46946,-22.221154 c 0.0294,7.822136 0.31109,15.406058 0.94372,22.898271 0.26059,3.086242 0.25621,6.282742 0.11879,9.530758 -0.20866,4.931944 -4.09938,9.126711 -9.03952,10.145042 -0.68996,0.142223 -1.39246,0.220838 -2.10144,0.22969 -5.24077,0.06543 -9.91224,-0.04289 -14.49721,-0.183397 m 20.14814,-0.258658 c -1.3928,0.741298 -2.99742,1.153356 -4.71136,1.132248 -6.13013,-0.07549 -12.34749,-0.212642 -18.5483,-0.506931 l 0,0 c -7.86549,-0.373295 -15.60823,-0.242061 -23.48333,-0.7125 l 0,0 c -3.67022,-0.21925 -7.2678,-0.207087 -10.8211,-0.107502 m 24.86944,1.410506 c -7.75988,-0.09396 -15.53997,-0.483028 -23.3046,-1.443629 l 0,0 c -7.76795,-0.961013 -15.41127,0.499107 -22.89583,1.5 l 0,0 c -5.25117,0.702226 -10.72453,0.410884 -16.11807,0.162971 m 20.79915,-1.395489 c -7.61858,0.229012 -15.60575,0.392178 -23.50478,1.187205 l -1e-5,0 c -7.90241,0.795368 -15.45312,-0.110558 -23.02082,-0.331249 l -1e-5,-10e-7 c -3.84621,-0.112164 -7.83607,-0.07689 -11.88581,0.01799 m 21.78906,0.06462 c -7.69746,-0.160111 -15.47675,-0.04447 -23.09843,-0.118544 -7.62494,-0.07411 -15.49481,0.09157 -23.13958,0.26875 l 0,0 c -1.57404,0.03648 -3.16437,0.05544 -4.76752,0.06143 m 19.36067,-0.02535 c -7.77635,0.105721 -15.35568,-0.351596 -22.74208,-1.062636 -7.38956,-0.711346 -15.78683,-0.09688 -24.02083,-0.28125 l 0,0 c -3.0559,-0.06843 -5.97181,-0.06146 -8.81798,-0.0073 m 28.04736,1.310727 c -7.84289,0.237045 -15.37476,0.06237 -22.80449,0.180945 l 0,-10e-7 C 104.1773,90.667064 96.118041,90.349152 88.464388,89.948438 l -3e-6,0 c -5.74651,-0.300864 -11.645346,-0.122909 -17.534818,0.02501 M 96.093209,89.67812 c -7.668639,-0.004 -15.80196,0.214766 -24.07347,0.637505 l -10e-7,0 c -8.275055,0.422921 -15.494306,-0.407106 -23.145829,-1.21875 l -3e-6,0 C 41.8378,88.350512 34.603739,89.028659 27.46218,89.245559 m 28.990494,0.152935 c -7.541637,0.04391 -15.579395,0.301397 -23.423633,0.912444 -4.051745,0.31562 -8.173119,0.330128 -12.3926,0.295364 C 16.430449,90.57165 12.724483,88.170016 10.739823,84.875733 9.9780822,83.61134 9.5437999,82.177971 9.501439,80.654322 9.3404495,74.863802 9.9182641,68.928662 10.216884,63.081388 m 10.585969,25.793294 c -0.3203,-0.0099 -0.639857,-0.01897 -0.958714,-0.02725 C 14.17959,88.700325 9.7820171,84.339527 9.8501394,78.874658 9.8774236,76.68588 9.9036557,74.496933 9.9132065,72.290674 9.9466085,64.574742 10.274219,56.938418 10.988206,49.569843 l 0,-2e-6 c 0.332757,-3.434151 0.25493,-7.073407 -0.01797,-10.792597 m -0.363032,24.414533 c 0.191341,-7.680862 0.09911,-15.509967 0.299753,-23.217204 0.165434,-6.35486 -0.172494,-13.073603 -0.676663,-20.044745 -0.111683,-1.54424 0.06711,-3.023495 0.479985,-4.382409 1.193724,-3.928943 4.784454,-6.3554884 9.108951,-6.0974068 1.699093,0.1014001 3.423663,0.2329277 5.155487,0.3731426 m -1.319497,0.9910332 c 7.560613,0.09756 15.891005,-0.173104 24.354858,-0.525125 8.467481,-0.3521731 15.134663,-0.06158 22.077081,-0.175 l 3e-6,-10e-7 c 5.798268,-0.09473 12.943469,0.130531 19.979553,0.48371 m -31.263279,0.203777 c 7.707924,-0.01039 15.55272,0.0035 23.335919,1.3e-5 7.786535,-0.0035 15.441919,-0.203396 23.002076,-0.618749 l 1e-5,-10e-7 c 7.11156,-0.3907073 14.53646,-0.06265 21.72577,-0.04344 M 96.688075,9.9311697 c 7.541645,-0.062336 15.592685,0.035093 23.448635,0.09383 l 0,0 c 7.85932,0.05876 15.36774,0.377607 22.77083,1.125 6.23507,0.629473 13.15662,0.07934 20.09002,-0.315634 M 143.03749,10.38906 c 7.78906,-0.002 15.61771,0.06507 23.52957,0.206253 l 0,-1e-6 c 7.91525,0.141242 15.34527,-0.08906 22.69583,-0.2625 7.22451,-0.170469 15.56364,-0.0071 23.79624,0.0057 M 187.79586,9.8452563 c 7.77196,-0.043703 15.07792,-0.054849 21.91084,-0.1686938 6.83584,-0.1138933 16.02398,0.2998938 24.72708,0.9062495 l 0,0 c 6.0143,0.419025 11.03349,0.118872 15.97554,-0.302699 M 225.90246,9.4419386 c 7.67044,-0.1933094 15.472,0.030191 23.07972,0.087749 l 0,1e-7 c 7.61098,0.057582 15.69451,0.3253788 23.74583,0.9687504 1.11994,0.08949 2.23088,0.148848 3.33498,0.183293 M 253.41748,9.8590648 c 7.55204,-0.2408202 15.59172,0.3846182 23.46112,1.1503102 7.69976,0.749186 15.06659,-0.145411 22.36634,-0.536896 0.165,-0.0088 0.32895,-0.01309 0.49178,-0.01282 4.89974,0.0082 9.08006,4.134338 9.64618,9.311495 m -23.97834,-9.50559 c 4.78908,-0.02816 9.51253,-0.05595 14.18116,-0.113091 3.10365,-0.03799 5.83695,1.382237 7.55887,3.613668 1.28079,1.659765 2.04931,3.810975 2.02711,6.184942 -0.052,5.560432 0.0201,11.266128 -0.0866,16.929092 -0.0372,1.974509 -0.0504,3.940267 -0.0465,5.905411 m 0.29317,-16.41804 c -0.13487,7.529275 0.29859,15.710426 0.90643,23.817399 l 0,10e-7 c 0.60809,8.110447 0.0794,15.391354 0.2375,22.84583 l 0,2e-6 c 0.0439,2.071263 0.0267,4.213386 -0.0417,6.40567 -0.063,2.021405 -0.74122,3.943079 -1.86601,5.586585 m 0.77355,-21.570108 c 0.13291,5.744294 0.26514,11.345196 0.61531,16.869344 0.13363,2.108092 -0.39968,4.043303 -1.38166,5.601718 -1.5176,2.408455 -4.448,3.999836 -7.91991,3.954012 -4.75801,-0.0628 -9.78189,-0.104155 -14.61192,-0.315501 -7.95242,-0.347971 -15.41587,0.330847 -23.43026,1.052536 m 23.38852,-0.138471 c -7.64557,0.0019 -15.56943,-0.189603 -23.386,-0.568752 -7.81991,-0.379312 -15.5009,-0.112104 -23.16458,-0.325 l 0,0 c -3.54475,-0.09847 -7.10361,-0.09743 -10.6414,-0.06063 m 14.86866,-0.509712 c -7.91788,-0.02284 -15.54216,0.03429 -23.3044,0.106279 l 0,0 c -7.76556,0.07202 -15.48252,0.306069 -23.10208,0.9125 l 0,0 c -3.71184,0.295421 -7.4681,0.330625 -11.21249,0.316768 m 21.39911,-0.718301 c -7.82816,0.02307 -15.15326,0.231003 -22.12952,0.699971 l 0,0 c -6.97924,0.469168 -15.58748,0.06967 -23.42708,0.218749 l 0,10e-7 c -5.85856,0.11141 -11.71811,0.06868 -17.65814,0.05681 m 18.36649,-0.577412 c -7.59799,-0.224444 -15.84691,0.08657 -24.20481,0.262789 l 0,0 c -8.36148,0.176297 -15.44885,-0.0468 -23.02083,-0.15 l 0,0 c -6.21759,-0.08474 -12.5687,-0.135265 -18.709833,-0.320515 m 20.093913,-0.477858 c -7.66843,0.0499 -15.55737,0.01228 -23.348469,0.04368 l -2e-6,10e-7 c -7.794442,0.03142 -15.177058,0.06962 -22.189579,0.206249 l -2e-6,10e-7 c -4.599494,0.08961 -9.97153,0.02014 -15.471273,-0.09569 m 26.551311,-0.245084 c -8.019515,-0.116481 -15.272629,-0.07465 -22.498017,-0.2311 -7.228486,-0.156518 -15.686771,0.422616 -23.72708,1.274999 l -4e-6,0 c -5.244843,0.556026 -10.221854,0.318 -15.14981,-0.0053 -0.928829,-0.06093 -1.82513,-0.255745 -2.671649,-0.563432 m 23.549935,-0.107534 c -7.07022,0.227153 -14.177827,0.01903 -21.568138,-0.07805 -0.881834,-0.01158 -1.741876,-0.121584 -2.569317,-0.318128 -4.667693,-1.108725 -7.7705648,-5.09654 -7.433049,-9.905074 0.240466,-3.425863 0.573784,-6.879726 0.866574,-10.37759 0.09937,-1.187069 0.160752,-2.354336 0.190544,-3.505025 M 11.021492,84.437166 C 10.430965,83.1711 10.100495,81.767816 10.089436,80.285984 10.04087,73.778208 10.254224,67.19667 10.369456,60.321588 l 0,-3e-6 c 0.140552,-8.385716 -0.01207,-15.487103 -0.04375,-23.133328 l 0,-2e-6 c -0.02313,-5.582847 -0.0563,-11.30874 -0.13297,-17.022829 -0.02466,-1.837715 0.43251,-3.555996 1.248997,-5.0305 M 9.8320022,49.13112 c 0.035659,-7.672565 0.3722288,-15.53082 1.1187038,-23.273465 0.184627,-1.914999 0.260177,-3.835642 0.260663,-5.760601 0.0014,-5.546036 3.929775,-10.040997 9.020187,-10.086425 0.56568,-0.005 1.133165,-0.01017 1.703572,-0.015316 6.322689,-0.057069 13.731992,-0.03698 21.074462,-0.07857 M 21.71169,10.15782 c 7.732636,0.0061 15.278381,-0.1998822 22.498387,-0.5937575 7.223101,-0.3940441 15.410046,0.024409 22.895831,0.0875 l 3e-6,0 c 1.462351,0.012325 2.959979,0.03139 4.486287,0.058496 M 58.658356,9.9639315 C 66.301922,9.8622854 74.31361,10.219428 82.294358,10.732813 l 10e-7,-1e-6 c 7.984169,0.513605 15.48689,-0.251231 23.114581,-0.7437495 5.08343,-0.3282363 10.19351,-0.1098022 15.19379,0.2161325 m -29.182376,0.638796 c 7.554009,0.186826 15.462106,-0.317914 23.061116,-0.962741 l 0,1e-7 c 7.60228,-0.6451028 15.55325,0.1681189 23.32708,0.5062499 l 0,0 c 6.46533,0.281216 12.82292,0.09559 19.07155,0.03156 m -19.02294,-0.09262 c 7.88488,-0.0999 15.85041,-0.128167 24.24194,-0.3811215 l 0,0 c 8.39512,-0.2530634 15.23016,-0.07633 22.36458,-0.2375 1.89535,-0.042817 3.89729,-0.048303 5.96958,-0.025426 m -23.02499,0.5408448 c 7.7456,-0.160077 15.85087,-0.0042 24.23587,-0.006 l 1e-5,-1e-6 c 8.38859,-0.0018 15.40698,-0.02831 22.90208,-0.0875 l 0,-10e-7 c 2.22832,-0.0176 4.51962,-0.02571 6.85184,-0.02895 M 205.02436,9.9845838 c 7.8116,0.1622182 15.23897,0.07749 22.39829,0.2247912 7.16239,0.147364 15.64476,0.304685 23.60208,0.91875 l 0,0 c 1.33067,0.102687 2.65468,0.165051 3.97453,0.195636 m -19.14364,-1.097263 c 7.77261,-0.04996 15.83742,-0.08348 24.19834,-0.2561855 l 0,-1e-7 c 8.3645,-0.1727802 15.28731,-0.1753734 22.53958,-0.5374999 4.78224,-0.2387909 10.03915,-0.018402 15.3196,0.3528186 m -24.51492,1.1302559 c 7.57715,0.203658 15.77939,-0.08397 24.01734,-0.256512 0.96497,-0.02021 1.91904,-0.04162 2.86444,-0.06505 5.74282,-0.142289 10.10954,4.131352 10.16244,9.240743 0.0155,1.49638 0.0442,2.971362 0.0989,4.420295 0.25033,6.633908 -0.13914,14.95578 -0.46968,22.704938 m 0.26671,-21.282535 c 0.11645,7.936443 0.0438,15.369682 0.13735,22.798124 l 0,2e-6 c 0.0936,7.431625 -0.14258,15.540415 -0.43125,23.289579 l 0,3e-6 c -0.0912,2.447781 -0.10785,4.948051 -0.077,7.497899 0.0438,3.613933 -1.58565,6.867912 -4.12334,8.949119 m 3.52506,-18.463498 c -0.0793,3.361961 -0.0844,6.657929 -0.0589,9.924793 0.0369,4.722647 -3.17025,8.600395 -7.5767,9.566097 -0.71867,0.1575 -1.47008,0.237089 -2.24491,0.229164 -6.99944,-0.0716 -14.1846,-0.108346 -21.40063,-0.306553 -7.94355,-0.21819 -15.40509,-0.106442 -23.02512,-0.308431 m 21.01924,1.436848 c -7.59769,0.226379 -15.49204,-0.254137 -23.14231,-0.762792 l 0,0 c -7.65355,-0.508872 -15.50699,0.03619 -23.19583,0.11875 l 0,0 c -6.25949,0.06721 -12.51969,0.155922 -18.63956,0.393604 m 22.04446,-0.618459 c -7.51455,0.11229 -15.50923,0.03609 -23.19242,0.118605 l 0,0 c -7.68648,0.08255 -15.69972,0.17094 -23.76458,0.51875 l 0,0 c -6.4522,0.278261 -12.71875,-0.128481 -19.23946,-0.689735 m 28.33466,1.26344 c -7.812,0.207472 -15.71153,-0.484716 -23.81703,-1.450268 -8.10898,-0.965965 -15.64502,0.154572 -23.59583,0.45625 l -1e-5,0 c -4.3484,0.164992 -8.63273,0.198798 -12.93659,0.2504 m 19.80248,0.535203 c -7.95109,-0.2599 -15.48541,-0.04801 -23.14186,-0.143415 l 0,0 c -7.65972,-0.09545 -15.78363,-0.0292 -24.02083,-0.08125 l 0,0 c -4.41815,-0.02792 -8.532577,-0.04131 -12.557604,-0.06453 m 15.903644,0.283445 c -7.54544,0.128889 -15.163667,-0.0014 -22.154881,-0.0064 l -3e-6,0 c -6.99421,-0.005 -15.771917,-0.260606 -23.98333,-0.78125 -2.903175,-0.184075 -5.717634,-0.224268 -8.500421,-0.190073 m 23.43788,1.194846 c -7.997156,0.06651 -15.866698,-0.0113 -24.273047,-0.04384 l -10e-7,0 c -8.409952,-0.03255 -15.162462,-0.144652 -22.14583,-0.424999 l -2e-6,0 c -3.687796,-0.148047 -7.900433,-0.136576 -12.287183,-0.09076 -3.547429,0.03705 -6.781575,-1.510605 -8.85396,-3.967018 m 16.920732,4.081119 C 26.213729,90.162032 23.30085,90.159799 20.349569,90.172738 15.024315,90.196085 10.580892,86.345873 9.7360863,81.351996 9.679126,81.015288 9.6410293,80.672379 9.6226105,80.324134 9.2315648,72.930601 9.7859852,65.0527 9.971019,56.920442 10.054462,53.253106 10.115793,49.890334 10.201122,46.65539 m 0.393302,20.83836 c -0.02494,-7.880284 0.0065,-15.333971 0.02503,-22.691947 l 0,-2e-6 c 0.01856,-7.36113 -0.363847,-15.759028 -1.0874993,-23.945829 l -2e-7,-3e-6 C 9.496251,20.452027 9.4647394,20.050158 9.4371622,19.650214 9.1991385,16.198219 10.868352,13.248025 13.494839,11.481238 m -3.6553858,26.94156 c -0.1908207,-6.245485 -0.064327,-12.038335 0.032608,-17.738401 0.028915,-1.700296 0.5263396,-3.284483 1.3700096,-4.639693 1.751447,-2.813393 5.047232,-4.855406 8.908728,-5.015665 4.406653,-0.182885 8.891529,-0.538844 13.489068,-0.832164 3.082446,-0.196658 5.99743,-0.2244857 8.836038,-0.162623 M 256.37968,10.25 h 8.34765 M 71.288059,89.75 h -8.816406" />
  <text
     xml:space="preserve"
     style="font-size:26.6667px;font-family:Quicksand;-inkscape-font-specification:'Quicksand, Normal';fill:#000000;stroke:none;stroke-linecap:round;stroke-linejoin:round"
     x="81.933205"
     y="59.450012"
     id="text3"><tspan
       sodipodi:role="line"
       id="tspan3"
       x="81.933205"
       y="59.450012">Redis-Dienst</tspan></text>
</svg>
