<?xml version="1.0" encoding="UTF-8" standalone="no"?>
<svg
   height="140"
   width="140"
   version="1.1"
   id="svg9"
   sodipodi:docname="structure-city.svg"
   inkscape:version="1.3.2 (091e20ef0f, 2023-11-25, custom)"
   xmlns:inkscape="http://www.inkscape.org/namespaces/inkscape"
   xmlns:sodipodi="http://sodipodi.sourceforge.net/DTD/sodipodi-0.dtd"
   xmlns:xlink="http://www.w3.org/1999/xlink"
   xmlns="http://www.w3.org/2000/svg"
   xmlns:svg="http://www.w3.org/2000/svg">
  <sodipodi:namedview
     id="namedview1"
     pagecolor="#ffffff"
     bordercolor="#000000"
     borderopacity="0.25"
     inkscape:showpageshadow="2"
     inkscape:pageopacity="0.0"
     inkscape:pagecheckerboard="0"
     inkscape:deskcolor="#d1d1d1"
     showgrid="false"
     inkscape:zoom="1.7536509"
     inkscape:cx="9.6940619"
     inkscape:cy="86.676318"
     inkscape:window-width="1440"
     inkscape:window-height="831"
     inkscape:window-x="0"
     inkscape:window-y="0"
     inkscape:window-maximized="1"
     inkscape:current-layer="svg9" />
  <defs
     id="defs7">
    <inkscape:path-effect
       effect="sketch"
       id="path-effect25"
       is_visible="true"
       lpeversion="1"
       nbiter_approxstrokes="3"
       parallel_offset="0.2;2139095038"
       strokelength="70"
       strokelength_rdm="0.3;2139095038"
       strokeoverlap="0.4"
       strokeoverlap_rdm="0.7;2139095038"
       ends_tolerance="0;941271071"
       tremble_size="0.5;2139095038"
       tremble_frequency="1.5"
       nbtangents="2"
       tgt_places_rdmness="0.3;1"
       tgtlength="5"
       tgtlength_rdm="0.3;1"
       tgtscale="10" />
    <g
       id="building">
      <!-- Draw the roof. -->
      <polygon
         fill="#555533"
         points="12,-13 0,-19 -12,-13 -12,-4 0,-10 12,-4 "
         stroke="#000000"
         stroke-width="1"
         vector-effect="non-scaling-stroke"
         id="polygon1" />
      <polygon
         fill="#ffffff"
         opacity="0.2"
         points="0,-10 0,-19 12,-13 12,-4 "
         id="polygon2" />
      <!-- Draw the wall. -->
      <polygon
         fill="#cccccc"
         points="10,10 10,-5 0,-10 -10,-5 -10,10 "
         stroke="#000000"
         stroke-width="1"
         vector-effect="non-scaling-stroke"
         id="polygon3" />
      <!-- Draw the door. -->
      <g
         transform="translate(-4,6)"
         id="g3">
        <use
           xlink:href="#door"
           id="use3" />
      </g>
      <!-- Draw the windows. -->
      <g
         transform="translate(-4,-2)"
         id="g4">
        <use
           xlink:href="#window"
           id="use4" />
      </g>
      <g
         transform="translate(4,-2)"
         id="g5">
        <use
           xlink:href="#window"
           id="use5" />
      </g>
      <g
         transform="translate(4,5)"
         id="g6">
        <use
           xlink:href="#window"
           id="use6" />
      </g>
    </g>
    <g
       id="door">
      <polygon
         fill="#555555"
         points="2,-3 -2,-3 -2,3.5 2,3.5 "
         id="polygon6" />
    </g>
    <g
       id="window">
      <polygon
         fill="#555555"
         points="2,-2 -2,-2 -2,2 2,2 "
         id="polygon7" />
    </g>
  </defs>
  <g
     id="g1"
     transform="matrix(1.2696838,0,0,1.2696838,18.91831,20.858277)"
     style="stroke-width:0.78759767;stroke-dasharray:none">
    <path
       id="polygon4"
       style="fill:#555533;stroke:none;stroke-width:0.78759767;stroke-dasharray:none"
       d="M 10.019676,17.380177 V 40.374941 L 40.679362,25.045098 71.339048,40.374941 V 17.380177 L 40.679362,2.0503338 Z" />
    <path
       id="polygon5"
       style="opacity:0.2;fill:#ffffff;stroke:none;stroke-width:0.78759767;stroke-dasharray:none"
       d="M 40.679362,25.045098 V 2.0503338 L 71.339048,17.380177 v 22.994764 z" />
    <path
       id="polygon8"
       style="fill:#cccccc;stroke:none;stroke-width:0.78759767;stroke-dasharray:none"
       d="M 66.2291,37.819967 40.679362,25.045098 15.129624,37.819967 V 76.144574 H 66.2291 Z" />
    <path
       id="polygon22"
       style="fill:#555555;stroke:none;stroke-width:0.78759767;stroke-dasharray:none"
       d="M 35.569415,58.259757 H 25.349519 v 17.884816 h 10.219896 z"
       sodipodi:nodetypes="ccccc" />
    <path
       id="polygon23"
       style="fill:#555555;stroke:none;stroke-width:0.78759767;stroke-dasharray:none"
       d="M 35.569415,40.37494 H 25.349519 v 10.219896 h 10.219896 z" />
    <path
       id="polygon24"
       style="fill:#555555;stroke:none;stroke-width:0.78759767;stroke-dasharray:none"
       d="M 56.009205,40.37494 H 45.789309 v 10.219896 h 10.219896 z" />
    <path
       id="polygon25"
       style="fill:#555555;stroke:none;stroke-width:0.78759767;stroke-dasharray:none"
       d="M 56.009205,58.259757 H 45.789309 v 10.219896 h 10.219896 z" />
    <path
       id="polygon21"
       style="fill:none;stroke:#000000;stroke-width:0.30826057;stroke-dasharray:none"
       transform="matrix(2.5549738,0,0,2.5549738,50.899257,63.369705)"
       d="m -14.574149,-9.8974952 c 0.03474,5.0304988 0.07049,10.04590292 0.118089,15.0554553 6.7301316,0.012781 13.48132639,0.015159 20.2792679,0.029043 0.076512,-3.8774967 0.1689039,-7.7510846 0.2822608,-11.6164259 0.032512,-1.108604 0.059995,-2.2176809 0.08295,-3.327141 -3.2565683,-1.6501091 -6.56378067,-3.3045041 -9.9029511,-4.9598251 -2.0706531,1.040552 -4.1535953,2.080747 -6.2443708,3.121387 m 15.822914,9.0962719 c -0.012815,-2.4726082 -0.018924,-4.9438531 -0.019313,-7.4137101 -3.3339194,-1.6622028 -6.65484658,-3.3212528 -9.9661579,-4.9770668 -3.3113113,1.677519 -6.6130069,3.358276 -9.9084629,5.042353 0.05082,5.0233588 0.112868,10.05269542 0.177995,15.0882134 0.633995,0.00445 1.268039,0.00899 1.902115,0.013628 2.0380398,0.014913 4.0689811,0.023698 6.0941402,0.027105 M -13.939033,-10.481922 c 0.01462,5.0045634 0.0041,10.00387204 -0.02684,14.999232 6.6253765,-0.00614 13.21434084,-0.019305 19.777845,-0.036391 -0.060127,-3.89554757 -0.128903,-7.7924282 -0.2041595,-11.690029 -0.021584,-1.1178562 -0.038953,-2.2340722 -0.05244,-3.3486986 -3.0442218,-1.502441 -6.05318919,-2.990452 -9.0359922,-4.465427 m 9.7658589,11.2571029 c 0.016571,-1.9937817 0.02839,-3.9923748 0.036275,-5.995378 -3.3186525,-1.6692039 -6.65093947,-3.3536959 -9.9915681,-5.0508879 -3.3406287,1.636142 -6.6895986,3.259585 -10.0416186,4.8729168 -0.02507,4.9284443 -0.05563,9.83868985 -0.07889,14.7369887 1.091917,-0.022314 2.184186,-0.045202 3.276941,-0.0686 2.2761297,-0.048736 4.5509838,-0.079542 6.8239662,-0.095579 M -13.651571,-10.156219 c -0.0042,4.9656888 -0.0314,9.96188695 -0.08263,14.9781072 6.5983638,0.021672 13.15398724,0.078939 19.6643324,0.1469408 C 5.8390223,1.1228744 5.7325311,-2.7194335 5.6101562,-6.5630167 5.5750584,-7.6653803 5.5451622,-8.7691644 5.5199246,-9.8741804 4.3460874,-10.435814 3.1783958,-10.999073 2.0160271,-11.563671 m 3.7635533,7.3768606 c -0.021738,-2.025447 -0.034139,-4.0537884 -0.038322,-6.0846906 -3.3410057,-1.665148 -6.6543583,-3.338913 -9.9469549,-5.019234 -3.2925966,1.653012 -6.5644374,3.299466 -9.8224194,4.941422 0.101095,4.9668477 0.227135,9.92559805 0.361465,14.8812234 1.095597,-0.00947 2.191571,-0.01908 3.28776,-0.028785 5.409876,-0.047897 10.72546239,-0.053651 15.996513,-0.033747 m -9.1909224,-20.054581 c 4.02124942,1.95922 8.0035407,3.943598 11.9519821,5.9428464 -0.034567,-3.0004944 -0.084366,-5.9942964 -0.1478564,-8.9845134 -4.0946455,-1.985417 -8.21971468,-3.962864 -12.3700992,-5.942632 -3.3484043,1.629861 -6.7132861,3.258213 -10.0919621,4.879651 -0.809231,0.388353 -1.614174,0.776543 -2.415166,1.164591 -0.08879,2.738384 -0.138034,5.475335 -0.158332,8.211451 m 5.354023,-9.951822 c -1.552393,0.781304 -3.102252,1.558922 -4.650021,2.333263 -0.01327,3.007429 -0.0202,6.00491 -0.02313,8.9946018 3.995624,-2.0153668 8.0001207,-4.0480428 12.0057023,-6.0908738 4.00558155,1.957168 8.0122483,3.904182 12.012213,5.8481944 -1.48e-5,-1.9096204 -0.00122,-3.8197734 -0.0042,-5.7299244 -0.00162,-1.040354 -0.00274,-2.078957 -0.00336,-3.115981 m -11.4262395,3.581137 c 3.99956808,2.023907 7.9804922,4.024073 11.9425159,6.0064973 -0.025455,-3.0117803 -0.059416,-6.0315433 -0.1019597,-9.0574793 -4.0634199,-2.038663 -8.14591255,-4.091041 -12.2477342,-6.151134 -3.3092252,1.565058 -6.6310318,3.125094 -9.9655528,4.683261 -0.798655,0.373198 -1.594364,0.747921 -2.387365,1.124045 -0.06971,2.964114 -0.106796,5.945112 -0.121272,8.9378059 0.0547,-0.027649 0.109413,-0.055293 0.164133,-0.082932 m 5.377649,-11.0529738 c -1.54404,0.76169 -3.088157,1.522968 -4.632374,2.283455 -0.0011,2.98033 -0.0024,5.958268 -0.0042,8.9318121 3.997341,-2.0394381 7.993754,-4.0886381 11.9888523,-6.1542331 3.99509826,1.934406 7.9888823,3.852417 11.9809673,5.7474052 -0.00333,-1.9263422 -0.00696,-3.8567622 -0.010925,-5.7917542 -0.00235,-1.14924 -0.00483,-2.293168 -0.00747,-3.432272 -1.7333055,-0.901113 -3.4670964,-1.787806 -5.2015609,-2.66261 m -7.5204654,5.951555 c 4.04412428,2.01457 8.0762136,4.019884 12.1073046,6.0193783 0.020877,-3.0003293 0.041304,-6.0032763 0.064614,-9.0078053 -3.9652516,-2.00675 -7.92409772,-4.017014 -11.8655013,-6.027352 -3.1798049,1.605199 -6.3482568,3.21035 -9.4995608,4.817257 -0.754772,0.384872 -1.511688,0.769855 -2.270578,1.154933 0.02041,1.254792 0.03664,2.509787 0.04921,3.764937 m 4.888179,-6.200633 c -1.625851,0.796344 -3.25069,1.597448 -4.874748,2.40276 -0.0068,2.992281 -0.01149,5.996103 -0.01506,9.0089544 3.994671,-1.9808434 7.9917814,-3.9416234 11.9878656,-5.8906704 3.99608428,2.050953 7.9911419,4.11364 11.9817066,6.1797335 -0.00379,-1.7702455 -0.00831,-3.5399405 -0.013773,-5.3096255 -0.00366,-1.185044 -0.00746,-2.373698 -0.01147,-3.565641 -3.2050828,-1.563195 -6.4119654,-3.155342 -9.6222721,-4.768026 m 7.9445363,12.8685255 -7.19384995,-3.5969245 m -7.40269085,-8.668724 -6.4182143,3.209107"
       inkscape:path-effect="#path-effect25"
       inkscape:original-d="M -14,-10 V 5 H 6 v -15 l -10,-5 z m 10,-5 12,6 v -9 l -12,-6 -12,6 v 9 z"
       sodipodi:nodetypes="ccccccccccccc" />
  </g>
</svg>
