<?xml version="1.0" encoding="UTF-8" standalone="no"?>
<svg
   height="150"
   width="200"
   version="1.1"
   id="svg7"
   sodipodi:docname="tile-hill.svg"
   inkscape:version="1.3.1 (91b66b0783, 2023-11-16, custom)"
   xmlns:inkscape="http://www.inkscape.org/namespaces/inkscape"
   xmlns:sodipodi="http://sodipodi.sourceforge.net/DTD/sodipodi-0.dtd"
   xmlns="http://www.w3.org/2000/svg"
   xmlns:svg="http://www.w3.org/2000/svg">
  <defs
     id="defs7">
    <inkscape:path-effect
       effect="sketch"
       id="path-effect14"
       is_visible="true"
       lpeversion="1"
       nbiter_approxstrokes="3"
       parallel_offset="0.2;1"
       strokelength="70"
       strokelength_rdm="0.3;1"
       strokeoverlap="0.5"
       strokeoverlap_rdm="0.5;1"
       ends_tolerance="0.1;1"
       tremble_size="0.8;1"
       tremble_frequency="3"
       nbtangents="2"
       tgt_places_rdmness="0.5;1"
       tgtlength="5"
       tgtlength_rdm="0.3;1"
       tgtscale="10" />
    <inkscape:path-effect
       effect="sketch"
       id="path-effect1"
       is_visible="true"
       lpeversion="1"
       nbiter_approxstrokes="3"
       parallel_offset="2;1"
       strokelength="70"
       strokelength_rdm="0.3;1"
       strokeoverlap="0.4"
       strokeoverlap_rdm="0.5;1"
       ends_tolerance="0.1;1"
       tremble_size="0.8;1"
       tremble_frequency="3"
       nbtangents="2"
       tgt_places_rdmness="0.5;1"
       tgtlength="5"
       tgtlength_rdm="0.3;1"
       tgtscale="10" />
  </defs>
  <sodipodi:namedview
     id="namedview7"
     pagecolor="#ffffff"
     bordercolor="#000000"
     borderopacity="0.25"
     inkscape:showpageshadow="2"
     inkscape:pageopacity="0.0"
     inkscape:pagecheckerboard="0"
     inkscape:deskcolor="#d1d1d1"
     inkscape:zoom="1.4672466"
     inkscape:cx="80.422747"
     inkscape:cy="115.86328"
     inkscape:window-width="1440"
     inkscape:window-height="831"
     inkscape:window-x="0"
     inkscape:window-y="0"
     inkscape:window-maximized="1"
     inkscape:current-layer="svg7" />
  <!-- Draw the shadow. -->
  <!-- Draw the tile background. -->
  <!-- Draw the tile foreground. -->
  <g
     id="g7"
     transform="matrix(2.4,0,0,2.4,4,3)"
     style="stroke:none">
    <polygon
       fill="#66aa66"
       points="80,15 80,45 40,60 0,45 0,15 40,0 "
       stroke="#000000"
       stroke-width="1"
       id="polygon2"
       style="stroke:none" />
    <polygon
       fill="#000000"
       opacity="0.3"
       points="40,0 80,15 40,10 "
       id="polygon3"
       style="stroke:none" />
    <polygon
       fill="#000000"
       opacity="0.15"
       points="80,15 80,45 40,10 "
       id="polygon4"
       style="stroke:none" />
    <polygon
       fill="#000000"
       opacity="0.15"
       points="40,60 0,45 40,10 "
       id="polygon5"
       style="stroke:none" />
    <polygon
       fill="#000000"
       opacity="0.3"
       points="0,45 0,15 40,10 "
       id="polygon6"
       style="stroke:none" />
    <polygon
       fill="#000000"
       opacity="0.45"
       points="0,15 40,0 40,10 "
       id="polygon7"
       style="stroke:none" />
  </g>
  <path
     id="path2"
     style="fill:none;stroke:#000000;stroke-width:1;stroke-dasharray:none"
     d="m 9.0276276,38.962386 c 7.5142884,-2.90857 14.4840884,-5.456775 21.6067654,-8.195388 7.125729,-2.739788 14.431982,-5.596844 21.453928,-8.59288 l 3e-6,-1e-6 c 2.902305,-1.238319 5.920253,-2.376822 8.997872,-3.471211 m -13.67048,2.303679 C 54.464439,18.185129 62.020334,15.318918 69.40433,12.148583 76.791492,8.9768898 84.059717,6.8193958 91.508259,4.3432039 l 2e-6,-8e-7 c 1.140841,-0.3792609 2.276122,-0.7682093 3.407688,-1.164107 M 83.437325,9.2347925 C 88.699949,7.1201333 94.329579,5.0792282 100.13766,2.948387 c 2.04952,0.6721193 4.12126,1.3330398 6.20694,1.9755689 7.99965,2.4644303 14.25359,5.8272921 20.92268,9.2803791 l 0,10e-7 c 1.58416,0.820239 3.25417,1.535711 4.98542,2.175535 m -10.29778,-4.559779 c 7.12376,2.731804 14.8319,5.383491 22.65102,7.958116 7.82247,2.575729 14.61675,5.606971 21.99768,8.630379 l 0,2e-6 c 6.29426,2.578279 12.2744,4.940525 18.11915,7.634088 m -24.2168,-11.049946 c 7.42281,2.829395 14.47779,5.248228 21.60688,7.545491 4.32789,1.394609 8.73443,3.047273 13.12001,4.665159 -0.0218,3.032652 -0.0523,6.050703 -0.11878,8.97449 -0.0919,4.040776 -0.0262,8.346016 0.1138,12.753342 m 1.56466,-16.532041 c 0.26194,7.85133 0.008,15.510971 0.0122,23.198234 l 0,3e-6 c 0.004,7.690556 -0.24943,15.331072 -0.7625,22.652078 l 0,2e-6 c -0.15254,2.176562 -0.21588,4.420034 -0.23078,6.694266 m -0.45021,-11.254969 c 0.20182,7.824779 0.20076,16.064993 0.60599,24.879514 0.0695,1.51203 0.11826,2.94894 0.15242,4.32638 -5.86875,2.47446 -12.07789,3.5605 -17.92899,5.02506 -1.70232,0.4261 -3.44334,0.98945 -5.2137,1.64949 M 184.65384,114.29 c -7.24844,2.58426 -14.77013,5.44996 -22.45711,8.17081 l 0,0 c -7.69027,2.72202 -14.48778,5.31914 -21.61018,7.75538 -0.76537,0.2618 -1.53199,0.53233 -2.29925,0.81048 m 7.75531,-3.47819 c -7.17549,2.83968 -14.55235,5.11423 -21.81345,7.14548 l 0,0 c -7.26421,2.03212 -14.70444,5.51389 -22.26643,8.34288 l 0,0 c -1.21529,0.45465 -2.413703,0.91169 -3.598672,1.37235 -4.454734,-1.56814 -8.719502,-3.08507 -12.9771,-4.48529 m 21.884152,2.6587 c -2.58872,0.99173 -5.14527,1.9531 -7.66516,2.89076 -4.537407,-1.82179 -8.955954,-3.72043 -13.229448,-5.65697 l -3e-6,0 c -6.649664,-3.01331 -14.862271,-5.37628 -22.747675,-7.93038 l -3e-6,0 c -5.754181,-1.86379 -10.696186,-3.97449 -15.527247,-6.12646 m 18.733382,7.64388 c -7.208795,-2.79231 -14.60254,-5.64261 -21.969659,-8.74554 l -2e-6,0 c -7.370277,-3.10425 -14.617798,-5.70398 -21.997678,-8.90538 -3.439421,-1.49202 -6.806205,-2.75263 -10.128699,-3.92582 m 14.815706,6.83254 c -7.26488,-2.82375 -14.549967,-5.94261 -21.8195867,-9.633 -1.2906617,-0.6552 -2.5773982,-1.23415 -3.8600187,-1.75294 0.04535,-6.55574 0.1791203,-11.81926 0.4203036,-17.393481 0.2057231,-4.754666 0.1892536,-10.5029 0.2526086,-16.207705 M 3.6173979,96.891205 C 3.7732648,89.345772 3.5605353,81.734494 3.4359472,74.755077 3.3113057,67.772668 3.5383699,59.088964 3.7484471,51.090496 l 1e-7,-3e-6 c 0.097287,-3.704109 0.075314,-7.285806 -0.00255,-10.811538 0.3211365,-0.115848 0.641742,-0.231163 0.9618752,-0.346009 m -0.8561,16.113862 c 0.052653,-5.427136 0.067025,-10.725263 0.1197352,-16.043331 2.3247478,-0.862854 4.6576793,-1.729965 7.0063505,-2.616022 l 10e-7,-1e-6 c 7.435393,-2.805068 14.625859,-5.370353 22.04143,-7.92413 1.526846,-0.525815 3.037401,-1.069153 4.535135,-1.625465 M 9.6875512,34.752277 C 16.965077,32.128208 24.439633,28.941101 32.107121,25.500271 l 2e-6,0 C 39.777897,22.057966 46.440966,19.941476 53.2673,17.026142 l 2e-6,-1e-6 c 2.53347,-1.081973 5.206923,-2.088555 7.950124,-3.047934 m -12.438348,8.407462 c 7.210985,-2.492745 14.733005,-5.39721 22.357156,-8.008424 7.627419,-2.612334 14.628495,-5.6612059 22.035178,-8.7928796 l 2e-6,-1.1e-6 c 2.65242,-1.1214887 5.270186,-2.13405 7.870846,-3.0928975 2.8519,1.0934589 5.68322,2.2515112 8.51711,3.4013455 M 87.01932,5.505899 c 4.09974,-1.5175828 8.056281,-2.9665331 11.925477,-4.3500523 3.100753,1.3200827 6.145403,2.6821873 9.162703,4.0846661 6.78528,3.1538804 14.62637,5.0548132 22.03518,6.9741292 l 0,1e-6 c 6.81292,1.764944 13.42788,4.954398 20.13535,7.682604 m -22.90919,-8.829102 c 7.51224,2.773704 14.52837,5.760977 21.73802,9.101813 l 0,10e-7 c 7.21273,3.342268 14.16427,5.554952 20.64768,8.467879 6.0987,2.740083 13.76163,5.160778 20.98623,7.719421 M 167.8919,24.659845 c 7.05286,2.482426 14.56954,5.48558 21.88236,8.277187 2.50387,0.95583 5.0422,1.920985 7.61869,2.903007 0.16153,5.20687 0.464,10.476039 0.93363,15.861046 0.33275,3.815572 0.25492,7.426038 -0.018,10.95657 m -3.71303,-12.33128 c 0.19134,7.868027 0.0991,15.587811 0.29975,23.429463 0.20073,7.845013 -0.33958,15.154328 -1.01874,22.127081 l 0,2e-6 c -0.4454,4.572689 -0.19798,9.961959 0.16539,15.489199 -0.33186,0.16678 -0.66307,0.33435 -0.99386,0.5024 m 1.95319,-22.250337 c -0.18292,6.733902 0.19745,13.198357 0.7428,19.572927 -0.96026,0.34804 -1.91581,0.69351 -2.86857,1.03727 -6.59285,2.37879 -14.98601,5.40035 -23.10393,8.01788 l 0,10e-6 c -6.78004,2.18615 -12.21314,4.69229 -17.75537,7.32635 m 25.03235,-6.00839 c -7.34596,2.7194 -14.55505,5.46305 -21.82574,8.18938 l 0,0 c -7.2738,2.7275 -14.67875,5.25852 -22.17892,7.57413 l -1e-5,0 c -7.05513,2.17821 -13.79693,5.07517 -20.77433,7.6633 m 25.5395,-11.16918 c -7.51224,2.66745 -14.51509,5.49467 -21.71302,8.2832 -4.61878,1.78935 -9.38191,3.68569 -14.22461,5.73349 -2.707433,-0.81374 -5.439729,-1.58015 -8.185569,-2.29144 -6.449128,-1.67061 -12.211777,-4.52082 -17.962586,-7.21589 m 18.99824,7.69136 c -7.264828,-2.73181 -14.490058,-5.39451 -21.632086,-7.98312 l -2e-6,0 c -7.145088,-2.58972 -14.775402,-5.55097 -22.485175,-8.45538 l -4e-6,0 c -7.577555,-2.85459 -14.040476,-5.37532 -20.609939,-8.04665 m 25.689757,8.82887 c -7.281922,-2.77349 -15.029847,-5.51443 -23.250815,-8.35806 l -10e-7,0 c -8.224492,-2.84485 -14.096688,-5.16203 -20.45393,-7.28663 -2.7296535,-0.91226 -5.8434823,-2.10216 -9.1212871,-3.42632 -0.091927,-2.12762 -0.2447561,-4.3051 -0.4086455,-6.5 M 16.625336,114.67396 C 11.974775,112.8328 7.3762368,111.15701 2.7485149,109.50096 2.7234384,106.66057 2.688284,103.827 2.6265722,100.9707 l 0,-10e-6 c -0.1667983,-7.720191 0.1389606,-15.230172 0.4125,-22.364578 0.03805,-0.992399 0.067094,-2.014936 0.089305,-3.062383 m 0.419784,10.322588 C 3.325758,77.851052 3.5909875,70.702046 3.6859472,63.693294 l 0,-1e-6 c 0.095,-7.011757 -0.1580612,-15.741999 -0.4749999,-23.89583 l -10e-8,-2e-6 c -0.00735,-0.188987 -0.014231,-0.37754 -0.020668,-0.565673 4.2104757,-1.84543 8.7228293,-3.408646 13.3314833,-4.936798 M 7.7981091,36.704381 C 15.094059,33.928779 22.216329,31.15415 29.211405,28.252571 36.20948,25.349748 43.695271,22.884423 50.827834,20.334691 l 2e-6,0 c 1.769481,-0.63255 3.562944,-1.27385 5.373611,-1.915765 m -9.079965,4.28886 c 7.144568,-2.974958 14.857467,-5.298041 22.744741,-7.695303 l 2e-6,-10e-7 C 77.756879,12.614193 84.510722,9.3863645 91.951401,6.3321037 l 3e-6,-1.1e-6 c 3.09393,-1.2700006 6.050773,-2.3813099 8.904536,-3.4032919 0.73085,0.3199121 1.45495,0.645683 2.17286,0.9761476 m -18.18832,3.814213 c 4.734368,-1.6967401 9.468233,-3.5007804 14.343102,-5.3689845 2.807148,0.9192411 5.661048,1.8172059 8.588728,2.7021311 8.0153,2.4227164 14.37432,5.2810131 21.28518,7.6553791 l 1e-5,1e-6 c 6.74375,2.316953 13.97646,5.660694 20.65823,9.047305 M 123.99914,13.51935 c 7.40831,2.731706 14.53833,5.269975 21.77565,7.620616 l 0,0 c 7.24043,2.351648 14.61978,5.349816 22.01643,7.867879 l 0,1e-6 c 3.42124,1.1647 6.82835,2.428913 10.25654,3.728888 m -12.91626,-8.0282 c 7.136,2.706952 14.5656,5.493872 21.85725,8.295648 3.32442,1.277393 6.65894,2.588438 10.00817,3.953044 0.0363,4.376591 0.0935,8.829578 0.17966,13.392877 0.0771,4.084345 0.10974,7.908472 0.15427,11.683538 m -0.42309,-15.54219 c -0.0537,7.79751 0.39563,15.779892 1.19382,24.023304 l -1e-5,3e-6 c 0.79854,8.246945 -0.0319,15.625219 -0.0937,23.552077 l 0,4e-6 c -0.0462,5.923771 -0.0934,11.693411 -0.22107,17.493891 m 0.43379,-22.636199 c 0.16994,7.271528 -0.26391,15.039739 -0.81739,22.705849 -0.28969,0.10752 -0.57955,0.21489 -0.86957,0.32208 l 0,0 c -7.86626,2.90725 -14.45842,5.41511 -21.53517,8.04287 l -1e-5,1e-5 c -5.81095,2.15774 -11.75542,4.34969 -17.48991,6.40691 m 20.31078,-11.33064 c -7.17343,2.77969 -14.56736,5.47186 -21.86346,8.23306 -7.29922,2.76237 -14.18662,5.53154 -20.70393,8.39913 l 0,0 c -4.27468,1.88084 -9.3219,3.6026 -14.49684,5.27799 m 17.61244,-4.02239 c -7.52451,2.61331 -14.28262,5.38493 -21.01301,7.95827 -5.08894,1.94574 -10.88038,4.3117 -16.66291,6.89825 -1.868435,-0.49809 -3.735939,-0.97315 -5.578516,-1.43192 -5.824155,-1.4501 -11.273267,-4.01209 -16.709854,-6.51149 m 21.374941,5.22964 c -7.398178,-2.47619 -14.842955,-5.49489 -22.675665,-8.29594 l -2e-6,0 c -7.836067,-2.80225 -14.220082,-5.64141 -20.822677,-8.71788 l -2e-6,0 c -0.964849,-0.44957 -1.967674,-0.87934 -3.002095,-1.29253 m 7.261011,7.50518 c -7.499743,-2.8631 -14.492836,-5.76423 -21.631784,-9.1017 l -2e-6,0 c -7.142008,-3.3389 -14.577195,-5.39347 -21.891428,-7.99288 -4.764859,-1.69338 -9.5377137,-3.50064 -14.3423279,-5.31179 -0.028114,-2.37374 -0.063111,-4.74831 -0.1073883,-7.11264 M 23.725539,118.70794 C 17.577,116.47736 11.645256,114.113 5.9969624,111.79911 c 0.0945,-1.17491 0.1979947,-2.34822 0.3108598,-3.51889 l -1e-7,0 C 7.0546171,100.53426 6.0167852,92.695961 5.4453222,84.85314 4.9439309,77.971992 5.5291541,71.168 6.0475442,64.30233 M 4.9077685,86.05004 C 4.8659595,78.281661 4.6372607,70.301268 4.0828222,62.132948 l 0,-10e-7 C 3.5281461,53.961127 3.9373141,46.601803 3.6453223,38.887118 l -1e-7,-3e-6 C 3.6074382,37.886187 3.5851145,36.888232 3.5764189,35.893631 4.0498106,35.721799 4.526687,35.550825 5.0067984,35.380758 m 0.2196053,14.443206 c -0.05495,-3.306825 -0.045008,-6.532776 2.913e-4,-9.700244 4.2857144,-1.45008 8.638935,-2.788499 12.981742,-4.074333 l 1e-6,0 c 7.488951,-2.217355 14.496453,-5.713151 21.628927,-8.936629 l 3e-6,-1e-6 c 4.753396,-2.148269 9.533443,-3.749867 14.203683,-5.243965 M 195.89845,79.166406 v 8.042969 M 19.896257,116.24333 13.177364,113.72374"
     inkscape:path-effect="#path-effect1"
     inkscape:original-d="m 3.8984472,38.244149 95.9999998,-36 96.000003,36 v 72.000001 l -96.000003,36 -95.9999998,-36 z"
     transform="translate(0.2311325,0.8830586)" />
</svg>
