<?xml version="1.0" encoding="UTF-8" standalone="no"?>
<svg
   height="120"
   width="160"
   version="1.1"
   id="svg7"
   sodipodi:docname="tile-forest.svg"
   inkscape:version="1.3.2 (091e20ef0f, 2023-11-25, custom)"
   xmlns:inkscape="http://www.inkscape.org/namespaces/inkscape"
   xmlns:sodipodi="http://sodipodi.sourceforge.net/DTD/sodipodi-0.dtd"
   xmlns="http://www.w3.org/2000/svg"
   xmlns:svg="http://www.w3.org/2000/svg">
  <sodipodi:namedview
     id="namedview7"
     pagecolor="#ffffff"
     bordercolor="#000000"
     borderopacity="0.25"
     inkscape:showpageshadow="2"
     inkscape:pageopacity="0.0"
     inkscape:pagecheckerboard="0"
     inkscape:deskcolor="#d1d1d1"
     inkscape:zoom="1.1737973"
     inkscape:cx="14.482909"
     inkscape:cy="10.22323"
     inkscape:window-width="1440"
     inkscape:window-height="831"
     inkscape:window-x="0"
     inkscape:window-y="0"
     inkscape:window-maximized="1"
     inkscape:current-layer="g8" />
  <defs
     id="defs3">
    <inkscape:path-effect
       effect="sketch"
       id="path-effect14"
       is_visible="true"
       lpeversion="1"
       nbiter_approxstrokes="3"
       parallel_offset="0.2;1"
       strokelength="70"
       strokelength_rdm="0.3;1"
       strokeoverlap="0.5"
       strokeoverlap_rdm="0.5;1"
       ends_tolerance="0.1;1"
       tremble_size="0.8;1"
       tremble_frequency="3"
       nbtangents="2"
       tgt_places_rdmness="0.5;1"
       tgtlength="5"
       tgtlength_rdm="0.3;1"
       tgtscale="10" />
    <inkscape:path-effect
       effect="sketch"
       id="path-effect2"
       is_visible="true"
       lpeversion="1"
       nbiter_approxstrokes="3"
       parallel_offset="0.6;1"
       strokelength="70"
       strokelength_rdm="0.3;1"
       strokeoverlap="0.5"
       strokeoverlap_rdm="0.5;1"
       ends_tolerance="0.1;1"
       tremble_size="0.3;396123507"
       tremble_frequency="3"
       nbtangents="2"
       tgt_places_rdmness="0.5;1"
       tgtlength="5"
       tgtlength_rdm="0.3;1"
       tgtscale="10" />
    <inkscape:path-effect
       effect="sketch"
       id="path-effect20"
       is_visible="true"
       lpeversion="1"
       nbiter_approxstrokes="3"
       parallel_offset="0.5;1"
       strokelength="70"
       strokelength_rdm="0.3;1"
       strokeoverlap="0.5"
       strokeoverlap_rdm="0.5;1"
       ends_tolerance="0.1;1"
       tremble_size="0.8;1"
       tremble_frequency="3"
       nbtangents="2"
       tgt_places_rdmness="0.5;1"
       tgtlength="5"
       tgtlength_rdm="0.3;1"
       tgtscale="10" />
    <g
       id="tree">
      <polygon
         fill="#776644"
         points="0,-15 12,12 4,15 -4,15 -12,12 "
         stroke="#000000"
         stroke-width="1"
         id="polygon1" />
      <polygon
         fill="#000000"
         opacity="0.3"
         points="-4,15 -12,12 0,-15 "
         id="polygon2" />
      <polygon
         fill="#ffffff"
         opacity="0.2"
         points="12,12 4,15 0,-15 "
         id="polygon3" />
    </g>
  </defs>
  <!-- Draw the shadow. -->
  <!-- Draw the tile background. -->
  <!-- Draw the tile foreground. -->
  <g
     id="g8"
     transform="translate(0,2.5)"
     style="stroke-width:2;stroke-dasharray:none">
    <g
       id="g1"
       transform="matrix(1.8805268,0,0,1.8805268,4.7789274,1.0841955)"
       style="stroke:none;stroke-width:0.53176589;stroke-dasharray:none">
      <polygon
         fill="#776644"
         points="40,0 80,15 80,45 40,60 0,45 0,15 "
         stroke="#000000"
         stroke-width="1"
         id="polygon5"
         style="stroke:none;stroke-width:0.53176589;stroke-dasharray:none" />
      <path
         id="polygon14"
         style="fill:#776644;stroke:none;stroke-width:0.53176589;stroke-dasharray:none"
         d="M 18.8,37 12.4,34.6 22,13 31.6,34.6 25.2,37 Z" />
      <polygon
         fill="#000000"
         opacity="0.3"
         points="18.8,37 12.4,34.6 22,13 "
         id="polygon15"
         style="stroke:none;stroke-width:0.53176589;stroke-dasharray:none" />
      <polygon
         fill="#ffffff"
         opacity="0.2"
         points="31.6,34.6 25.2,37 22,13 "
         id="polygon16"
         style="stroke:none;stroke-width:0.53176589;stroke-dasharray:none" />
      <path
         id="polygon11"
         style="fill:#776644;stroke:none;stroke-width:0.53176589;stroke-dasharray:none"
         d="m 69,39 -8,3 H 53 L 45,39 57,12 Z" />
      <polygon
         fill="#000000"
         opacity="0.3"
         points="-12,12 0,-15 -4,15 "
         id="polygon12"
         transform="translate(57,27)"
         style="stroke:none;stroke-width:0.53176589;stroke-dasharray:none" />
      <polygon
         fill="#ffffff"
         opacity="0.2"
         points="12,12 4,15 0,-15 "
         id="polygon13"
         transform="translate(57,27)"
         style="stroke:none;stroke-width:0.53176589;stroke-dasharray:none" />
      <path
         id="polygon8"
         style="fill:#776644;stroke:none;stroke-width:0.53176589;stroke-dasharray:none"
         d="M 42.8,50 H 33.2 L 23.6,46.4 38,14 52.4,46.4 Z" />
      <path
         id="polygon9"
         style="opacity:0.3;stroke:none;stroke-width:0.53176589;stroke-dasharray:none"
         d="M 23.6,46.4 38,14 33.2,50 Z" />
      <path
         id="polygon10"
         style="opacity:0.2;fill:#ffffff;stroke:none;stroke-width:0.53176589;stroke-dasharray:none"
         d="M 42.8,50 38,14 52.4,46.4 Z" />
    </g>
    <g
       id="g20"
       transform="matrix(1.8805268,0,0,1.8805268,5.0915614,1.0710934)"
       style="fill:none;stroke-width:0.53176589;stroke-dasharray:none"
       inkscape:path-effect="#path-effect2">
      <path
         id="polygon4"
         style="stroke:#000000;stroke-width:0.53176589;stroke-dasharray:none"
         d="M 4.2358411,13.62864 C 11.462377,10.911471 18.920777,8.3417655 26.446883,5.9572235 31.23237,4.4410087 35.794329,2.5823535 40.322557,0.64600527 42.9189,1.5262025 45.504154,2.380858 48.114095,3.2598755 c 2.960146,0.9969648 5.956979,2.1231213 8.964613,3.3109753 M 39.545091,-0.20849562 c 0.256184,-0.0956526 0.512332,-0.19127422 0.768444,-0.28686305 7.017351,2.64824377 14.007457,5.32114247 20.959723,8.05886547 6.246557,2.4598232 12.606722,4.7599972 18.939234,7.1110412 0.0034,1.036108 0.0062,2.073425 0.0078,3.112719 0.0018,1.19222 0.0061,2.383295 0.01279,3.573298 m -6.14496,-8.15671 c 2.059879,0.793936 4.107974,1.575827 6.144034,2.350752 -0.06375,5.577998 -0.20463,11.111354 -0.426709,16.682474 -0.176409,4.425439 -0.154311,8.855275 -0.104238,13.287802 -3.099565,1.180761 -6.183104,2.363065 -9.324566,3.546172 -1.732089,0.652323 -3.458036,1.294364 -5.178233,1.926682 m 14.809527,-5.506735 c -7.330173,2.780517 -14.629847,5.524139 -22.053877,8.379147 -5.996801,2.306148 -11.801396,4.45388 -17.63983,6.638972 -1.392638,-0.530707 -2.787201,-1.059289 -4.186757,-1.583088 -6.197093,-2.319328 -12.389509,-4.694511 -18.545496,-7.1038 m 28.008505,6.044405 c -1.895166,0.70895 -3.812047,1.422474 -5.745198,2.13824 -5.391298,-2.02245 -10.909142,-4.027463 -16.435434,-6.065629 l -1e-6,-10e-7 C 15.898805,51.169072 8.8653363,48.343542 1.6207865,45.347932 l -1.9e-6,-10e-7 c -0.68899043,-0.284897 -1.37853393,-0.565153 -2.0685285,-0.841457 0.012306,-3.56486 0.0145901,-7.041898 0.0175415,-10.503086 M 10.77445,48.879042 C 7.095498,47.518491 3.4669257,46.176522 -0.13818834,44.858131 -0.09953323,41.023274 -0.03752636,37.211888 0.02109375,33.428934 0.11344731,27.469045 0.07515547,21.186429 0.07957954,14.870476 1.635631,14.233452 3.1948302,13.593972 4.7606452,12.957824 6.9410445,12.071988 9.111851,11.230498 11.277141,10.413894 M 6.3087221,13.314172 C 13.653585,10.530585 20.796694,7.8467193 27.928987,5.1061222 31.845298,3.6012722 35.83865,2.1004915 39.835446,0.59817997 43.12064,1.8274332 46.40816,3.0556521 49.657136,4.2797269 51.393134,4.9337762 53.14006,5.5845935 54.894459,6.2314502 M 41.14828,0.277921 c 7.281872,2.6937981 14.667852,5.3065797 22.16644,7.7323841 5.902223,1.909378 11.430704,4.2226169 16.907559,6.4947309 -0.06853,1.691886 -0.140856,3.380751 -0.21056,5.057738 -0.03513,0.845154 -0.06288,1.689246 -0.08449,2.532597 m -5.098339,-9.569838 c 1.514973,0.560266 3.038678,1.131947 4.569045,1.713175 -0.0013,6.166752 0.09145,12.468159 0.168468,18.805256 0.04842,3.984488 0.04061,7.85186 0.01247,11.693639 -3.696561,1.356661 -7.414049,2.686966 -11.114925,4.08656 -5.620215,2.125448 -11.15651,4.162461 -16.698107,6.173189 M 78.623314,45.515299 C 71.438991,48.147585 64.073431,50.909313 56.808311,53.505575 51.254768,55.490188 45.724399,57.64576 40.236918,59.794731 38.542624,59.169686 36.852418,58.544012 35.16688,57.912482 29.953243,55.95906 24.537593,53.934816 19.079374,51.90175 m 24.875184,5.833429 c -1.427805,0.546267 -2.846739,1.084276 -4.258669,1.615964 -5.871321,-2.190234 -11.621545,-4.489757 -17.385007,-6.759172 l -2e-6,0 C 15.158361,49.775603 7.6243625,47.208957 0.10226389,44.63581 -0.08626523,44.571318 -0.27451658,44.506658 -0.46250144,44.441836 -0.55855958,41.075706 -0.5721151,37.659699 -0.56454894,34.23452 M 9.1486387,47.762195 c -3.1326951,-1.171246 -6.2405153,-2.343571 -9.34096339,-3.521574 9.3289e-4,-4.482737 0.0152485,-8.975784 1.3719e-4,-13.490396 -0.0187522,-5.602336 -0.007119,-11.042492 0.006129,-16.418669 C 1.9168675,13.610261 4.020058,12.899436 6.1216077,12.192581 11.240756,10.470757 16.353971,8.4138493 21.474795,6.3100151 M 5.6260846,13.373476 C 12.813492,10.568894 20.136616,7.9692557 27.319208,5.3506095 31.465236,3.8390411 35.655378,2.259661 39.834442,0.67612832 42.898306,1.8256395 45.956216,2.9729188 48.98642,4.1430521 52.627132,5.5489368 56.327424,6.9456817 60.040632,8.347814 M 40.626712,0.67183946 C 47.841448,3.3820378 55.18748,6.0123632 62.4698,8.5002962 c 5.909019,2.0187578 11.735225,4.3835648 17.481676,6.7084848 -0.03732,1.495042 -0.07897,2.98792 -0.124913,4.473756 -0.05007,1.619293 -0.0823,3.229399 -0.103034,4.832614 M 75.177746,12.850523 c 1.627823,0.590492 3.247582,1.181624 4.861843,1.771423 0.01297,6.004482 -0.04219,11.992443 -0.05365,17.877816 -0.0075,3.835531 0.01982,7.795595 0.07574,11.794963 -3.53382,1.397719 -7.040639,2.832512 -10.526076,4.226297 -2.625435,1.04988 -5.32034,2.075038 -8.052631,3.090261 M 78.064224,45.763389 C 70.745089,48.486913 63.578617,51.189616 56.44627,53.856672 51.177526,55.826856 45.765705,57.868047 40.386818,59.904413 38.481134,59.197008 36.579584,58.488998 34.689995,57.77701 29.266793,55.733573 23.690158,53.726015 18.03668,51.764816 m 25.499875,6.258156 c -1.268134,0.457304 -2.530172,0.919634 -3.787472,1.385876 -6.046492,-2.277544 -11.9834,-4.46464 -17.961671,-6.685346 l -1e-6,0 C 14.562931,50.039876 7.1206831,47.333999 -0.36729751,44.750935 l -2.06e-6,0 c -0.0251312,-0.0087 -0.0502578,-0.01734 -0.0753797,-0.02602 -0.1856581,-6.993 -0.0239037,-14.313452 0.0103615,-21.619026 M 10.037772,48.785617 C 6.5340182,47.496076 3.0572532,46.196725 -0.40950072,44.898061 c 0.0139628,-4.051565 0.039865,-8.102312 0.0555945,-12.13857 0.0230293,-5.909442 0.0859931,-11.929877 0.23050488,-18.00657 C 1.640423,14.06652 3.4120344,13.374747 5.1926607,12.679217 12.28799,9.9077119 18.937241,7.591538 25.790126,5.1922807 M 80,29.705074 v 8.042969 M 8.6254313,48.234537 1.906538,45.714952"
         inkscape:original-d="M 0,15 40,0 80,15 V 45 L 40,60 0,45 Z" />
      <path
         id="path4"
         style="fill:none;stroke:#000000;stroke-width:0.53176589;stroke-dasharray:none"
         d="m 18.51917,35.931112 c -1.765767,-0.662728 -3.543585,-1.328098 -5.331869,-1.99557 2.346022,-5.378083 4.591385,-10.776376 6.783441,-16.178695 0.745811,-1.838052 1.529621,-3.662053 2.338227,-5.474073 2.335661,5.325209 4.878204,10.750378 7.309431,16.225617 0.408868,0.920792 0.81473,1.830725 1.218255,2.731344 -0.616488,1.461761 -1.239103,2.899109 -1.865,4.31861 -1.007812,0.364354 -2.017172,0.720296 -3.027158,1.069953 M 24.601824,20.963777 c 1.691401,3.687943 3.389974,7.428517 5.121214,11.18191 -0.603722,1.447727 -1.202608,2.897351 -1.795205,4.346605 -1.016404,0.397065 -2.029652,0.793945 -3.039228,1.189833 -0.967595,0.0041 -1.932246,0.0074 -2.893582,0.0093 -1.093596,0.0022 -2.20112,0.0018 -3.319904,-0.001 -2.100148,-0.805609 -4.245648,-1.620923 -6.414949,-2.444717 1.703519,-4.0335 3.319717,-8.098114 5.000032,-12.185241 1.353411,-3.291977 2.782593,-6.524843 4.24195,-9.747738 0.817568,1.793422 1.644605,3.589973 2.473096,5.381013 m -8.445177,16.493377 c -1.031642,-0.37209 -2.062411,-0.745738 -3.092761,-1.120225 2.673688,-6.047376 5.363047,-12.126126 7.964609,-18.072945 0.466543,-1.066456 0.938765,-2.143598 1.415237,-3.229409 2.616636,6.062212 5.36146,11.862991 7.998046,17.736485 0.06794,0.151356 0.13591,0.302876 0.203898,0.454553 -0.639021,1.410871 -1.276175,2.83529 -1.912509,4.26916 -1.047388,0.386167 -2.094364,0.777078 -3.141301,1.171274 -2.139829,0.0055 -4.279513,0.02302 -6.421663,0.04237 -1.41573,-0.514908 -2.832687,-1.028908 -4.251789,-1.545589 m -0.235194,0.611277 c -0.429011,-0.156584 -0.857767,-0.313405 -1.286296,-0.470429 2.939149,-6.641647 5.937047,-13.335685 8.884726,-19.938008 0.225574,-0.505249 0.451867,-1.011749 0.67885,-1.519398 2.73519,6.217769 5.570629,12.268809 8.456279,18.334071 -0.177838,0.422047 -0.355434,0.844163 -0.532806,1.266409 -0.418277,0.995741 -0.84368,1.99631 -1.274712,3.000728 -1.031432,0.383669 -2.068593,0.771256 -3.109944,1.161756 -2.129136,-0.0016 -4.273626,0.0075 -6.422686,0.02022 -2.15013,-0.78642 -4.305473,-1.568702 -6.452891,-2.35543 0.274086,-0.622233 0.548888,-1.244867 0.824765,-1.868138 m 8.817099,-18.698014 3.028587,6.814322 M 19.7924,17.9671 23.653888,9.2787516"
         sodipodi:nodetypes="ccccccc"
         inkscape:original-d="M 18.8,37 12.4,34.6 22,13 30.223352,31.502542 28.330631,35.826013 25.2,37 Z" />
      <path
         id="polygon6"
         style="opacity:0.3;stroke-width:0.53176589;stroke-dasharray:none"
         d="m 21.575592,18.838036 c -0.838814,5.989713 -1.552623,12.040183 -2.202573,18.043356 -1.523047,-0.599649 -3.041298,-1.202851 -4.55601,-1.81183 -0.548825,-0.220651 -1.101134,-0.439981 -1.656589,-0.658135 3.05398,-6.617387 5.667194,-13.070023 8.397351,-19.599029 0.269246,-0.643887 0.54271,-1.288552 0.819942,-1.933934 -0.855072,5.799851 -1.452898,11.550715 -2.046198,17.286542 m 0.260636,-10.803129 c -0.802784,5.73174 -1.511763,11.44187 -2.195657,17.173672 -1.863311,-0.699501 -3.723536,-1.396337 -5.58364,-2.088639 -0.23921,-0.08903 -0.478759,-0.178033 -0.718632,-0.267002 3.146467,-6.806798 6.02035,-13.584733 8.936333,-20.159986 0.139989,-0.315659 0.280575,-0.632904 0.421717,-0.951644 -1.072455,7.443136 -1.918585,14.277701 -2.890257,21.256645 m 2.846597,-19.769135 c -1.007034,7.308639 -2.125027,14.803794 -3.415311,22.244205 -0.307166,-0.10845 -0.614638,-0.216996 -0.92242,-0.325659 -1.922965,-0.6789 -3.803378,-1.370281 -5.657296,-2.072058 2.316997,-5.34864 4.866136,-10.788385 7.230895,-16.265247 0.840091,-1.945678 1.68088,-3.857821 2.52264,-5.748742 -0.432684,3.274745 -0.862876,6.603981 -1.289461,9.937055 m -0.056,7.012227 -1.120294,8.402205 m -3.461492,-9.529483 3.109497,-6.99637"
         inkscape:original-d="M 22,13 18.8,37 12.4,34.6 Z" />
      <path
         id="polygon7"
         style="opacity:0.2;stroke-width:0.53176589;stroke-dasharray:none"
         d="m 22.548159,14.701326 c 2.942273,6.479459 5.806848,13.092926 8.659728,19.634904 -0.564354,0.20831 -1.128789,0.416125 -1.693267,0.623327 -1.589033,0.583282 -3.166347,1.177776 -4.734024,1.782499 -0.782296,-5.990824 -1.437848,-11.847144 -2.065809,-17.615921 -0.111437,-1.023719 -0.233269,-2.063531 -0.36365,-3.1166 m 1.586382,12.717281 C 23.243195,23.57833 22.53445,18.410904 21.806884,13.273492 c 1.015867,2.348076 2.027278,4.703261 3.033723,7.071194 2.109521,4.963217 4.347086,9.784718 6.631591,14.58921 -2.082892,0.770128 -4.15722,1.537153 -6.229304,2.310793 -0.01739,-0.165668 -0.03477,-0.331301 -0.05215,-0.496895 -0.510553,-4.86676 -1.165296,-9.662008 -1.809884,-14.447962 M 23.20064,16.943364 c 2.693271,5.889099 5.251642,11.920082 7.78945,18.000704 -1.218884,0.47865 -2.438569,0.959231 -3.658177,1.441035 -0.949925,0.375266 -1.896187,0.741088 -2.839573,1.098695 -0.959374,-6.670902 -1.785852,-13.721308 -2.725936,-20.765455 -0.178946,-1.340858 -0.354308,-2.66085 -0.526804,-3.965052 0.258544,0.571534 0.517791,1.146938 0.777652,1.725596 m 1.744336,12.141068 c -0.531301,-4.401046 -1.139227,-8.819343 -1.768533,-13.247206 1.31985,3.025534 2.62775,6.045721 3.946787,9.063771 1.805762,4.131711 3.685168,8.265752 5.593058,12.372865 -2.103974,0.773164 -4.200816,1.539585 -6.296184,2.295597 -0.109286,-0.95617 -0.218319,-1.914134 -0.327502,-2.874157 -0.46876,-4.121696 -0.985993,-8.140952 -1.49611,-12.135883 m -0.839307,-7.19599 c 2.966615,6.46563 5.85787,12.962435 8.875169,19.422761 -0.615015,0.232311 -1.228909,0.464297 -1.841512,0.695902 -1.470207,0.555836 -2.959881,1.120236 -4.464421,1.69203 -0.810282,-6.088182 -1.839334,-12.067565 -2.82747,-18.004248 -0.304518,-1.829538 -0.579577,-3.695091 -0.834737,-5.586795 2.298679,5.17692 4.775476,10.119748 7.17432,15.092586 m 0.572059,7.27861 -6.993209,2.622453 M 23.395773,23.468297 22.467529,16.50647"
         inkscape:original-d="M 22,13 31.6,34.6 25.2,37 Z" />
      <path
         id="path7"
         style="fill:none;stroke:#000000;stroke-width:0.53176589;stroke-dasharray:none"
         d="m 65.113267,40.911466 c -1.457833,0.567537 -2.926328,1.126712 -4.40372,1.679405 -2.676084,0.0013 -5.377772,-0.0161 -8.096446,-0.04295 -1.062152,-0.40137 -2.127253,-0.804386 -3.194681,-1.208384 -0.994667,-2.188453 -1.999771,-4.381312 -3.009387,-6.572265 0.02654,-0.06552 0.05307,-0.131044 0.07959,-0.196563 2.919969,-7.212002 6.365527,-14.16598 9.62422,-21.1793 l 0,-10e-7 c 0.127757,-0.274956 0.255378,-0.550374 0.382882,-0.826234 1.376778,3.038882 2.739853,6.026065 4.112012,8.983272 m -7.548752,-0.155712 c 1.352364,-3.08708 2.735916,-6.209506 4.12922,-9.344942 1.773033,3.966422 3.561857,7.911777 5.322297,11.882099 2.222264,5.011873 4.483113,10.038296 6.766469,15.064134 -2.115644,0.803051 -4.227405,1.606002 -6.336436,2.407767 -0.522725,0.198718 -1.046098,0.397246 -1.57001,0.595583 -2.639576,-0.0013 -5.291136,-0.0069 -7.943267,-0.01667 -0.518109,-0.197465 -1.036244,-0.395112 -1.554299,-0.592942 m 11.757886,0.321046 c -0.739715,0.267145 -1.479369,0.535808 -2.219019,0.805694 -2.672607,-0.02309 -5.345174,-0.03217 -8.019936,-0.03861 -1.043853,-0.39286 -2.088087,-0.785261 -3.132864,-1.178024 -0.946684,-2.164653 -1.895804,-4.330932 -2.848897,-6.506653 0.34142,-0.786868 0.682317,-1.57498 1.022616,-2.364711 2.906679,-6.745506 6.002514,-13.455974 9.137818,-20.328251 0.205728,0.424362 0.411627,0.848027 0.617653,1.270939 2.500376,5.132558 4.794461,10.536482 7.11647,15.91281 M 53.937181,19.96624 c 1.148923,-2.671095 2.315914,-5.312594 3.490795,-7.937436 1.986995,4.48989 3.996557,9.027423 5.979448,13.55001 2.014379,4.594404 4.025424,9.132633 6.030845,13.686138 -2.641214,0.998497 -5.284236,2.001906 -7.929484,3.023258 -0.03143,0.01214 -0.06286,0.02427 -0.09428,0.0364 -2.67548,0.03078 -5.328533,0.03883 -7.962527,0.03509 -1.026865,-0.391736 -2.05042,-0.785518 -3.07091,-1.180551 -0.895236,-2.169464 -1.776715,-4.344545 -2.646754,-6.517703 0.09622,-0.20352 0.192538,-0.407023 0.288957,-0.610503 m 16.487472,6.051327 c -1.141914,0.433482 -2.279587,0.867281 -3.413242,1.301866 -2.65494,0.01635 -5.290573,0.03649 -7.90926,0.06536 C 52.167753,41.09135 51.15021,40.714722 50.135439,40.339972 49.252318,38.213475 48.381637,36.095401 47.521774,33.989164 47.70891,33.609348 47.8964,33.22992 48.084235,32.8509 c 3.406133,-6.873003 6.259254,-14.206432 9.350257,-21.447386 0.02022,0.04501 0.04044,0.09003 0.06068,0.135043 2.042717,4.543908 4.071444,9.259349 6.047523,13.995262 M 52.910992,21.264675 c 1.287117,-2.911024 2.610346,-5.822251 3.963917,-8.727556 1.936758,4.206518 3.935634,8.425161 5.979716,12.673874 2.355169,4.895319 4.42735,9.684371 6.509794,14.472585 -2.373645,0.865357 -4.744974,1.730524 -7.082535,2.606809 -0.319941,0.119937 -0.640327,0.239753 -0.96115,0.359445 -2.664946,-0.0054 -5.356383,-0.01836 -8.071435,-0.04 -1.060643,-0.399196 -2.125386,-0.799905 -3.194022,-1.202217 -0.797706,-1.747742 -1.606588,-3.500086 -2.425635,-5.257466 m 3.752209,8.141276 -3.67027,-8.452364 m 3.837999,-11.575619 3.694909,-8.313543"
         sodipodi:nodetypes="ccccccc"
         inkscape:original-d="m 69,39 -8,3 H 53 L 49.878561,40.82946 47.065816,34.351914 57,12 Z" />
      <path
         id="polygon17"
         style="opacity:0.3;stroke-width:0.53176589;stroke-dasharray:none"
         transform="translate(57,27)"
         d="M -5.5154991,14.062792 C -7.5660603,13.283167 -9.6254055,12.500846 -11.69112,11.714293 -9.4401502,6.5861397 -7.2300277,1.4308408 -5.0215254,-3.7765679 -3.327491,-7.7709171 -1.5677738,-11.619187 0.21958068,-15.399971 -0.20153438,-11.82495 -0.6040997,-8.204632 -1.0090354,-4.5822342 -1.140438,-3.4067575 -1.280037,-2.2454138 -1.4266218,-1.0950645 M -0.19022649,-13.82438 C -1.2505614,-6.1032662 -2.3539952,1.6530951 -3.6008078,9.4912146 -3.931018,11.56709 -4.2307943,13.616863 -4.5122691,15.647833 c -2.679597,-1.013803 -5.3241793,-2.06358 -7.9658529,-3.130014 1.19112,-2.6903027 2.385196,-5.3975298 3.5493442,-8.1018972 2.8297452,-6.5736217 5.6900018,-12.6865273 8.57172095,-18.8120078 -0.0560939,0.459734 -0.11209957,0.919416 -0.16801931,1.378922 M -3.9842453,15.252611 c -2.463982,-0.917936 -4.9257983,-1.850064 -7.3832587,-2.793372 2.11106,-4.7263922 4.2386273,-9.4951576 6.3988594,-14.2840855 1.9821657,-4.3941799 3.8805082,-8.6883955 5.77026364,-12.9788025 -0.42087175,3.048651 -0.84537565,6.0989136 -1.2528146,9.1243345 C -1.35833,1.0565741 -2.3504506,7.8641683 -3.4402921,14.680307 m 2.69785939,-28.679892 c 0.21059629,-0.491554 0.42222734,-0.982596 0.63480287,-1.473174 -1.01643846,7.1442187 -1.85939886,14.3736782 -2.75367846,21.5669463 -0.3518064,2.8298063 -0.7060467,5.6499657 -1.0526915,8.4629307 -2.6368754,-1.010326 -5.2661569,-2.027846 -7.8778182,-3.050106 0.885579,-1.9183679 1.780569,-3.8392683 2.6888865,-5.7617441 0.6630268,-1.403313 1.3082365,-2.8042266 1.940846,-4.2044359 m 3.0290467,13.816273 c -2.5328946,-0.93343 -5.0578207,-1.875152 -7.5787802,-2.820634 2.0648832,-4.6432732 4.1438895,-9.2999304 6.210136,-13.9395203 1.9385692,-4.3529005 3.9014078,-8.7336087 5.89091773,-13.1388077 -0.36422034,2.95321 -0.71780639,5.8966544 -1.06015343,8.8311691 -0.5894809,5.05288524 -1.3469275,10.2301033 -2.1443554,15.419356 m 2.72824605,-23.9380411 c 0.10156415,-0.228294 0.20314545,-0.456645 0.30474359,-0.685051 -0.99640398,7.4682758 -1.97760074,14.88605203 -2.95252714,22.2934801 -0.3322744,2.5245993 -0.6689845,5.0662699 -1.008077,7.6193059 -2.6668617,-0.987608 -5.3366622,-1.961198 -8.0065884,-2.928589 0.957974,-2.13445 1.9158609,-4.2646236 2.8752722,-6.3949997 2.6236777,-5.82588516 5.2696481,-11.796562 7.9299473,-17.7370173 m -4.4826603,9.2728091 3.3379505,-7.5103891 m -0.1898061,0.4270642 3.6568326,-8.2278732"
         inkscape:original-d="M -4,15 -12,12 0,-15 Z" />
      <path
         id="polygon18"
         style="opacity:0.2;stroke-width:0.53176589;stroke-dasharray:none"
         transform="translate(57,27)"
         d="m 1.9246951,-10.599446 c 3.0975694,7.1736995 6.4269979,14.1390139 9.8053929,21.106792 0.29939,0.617477 0.594629,1.236988 0.886181,1.858245 C 9.9981231,13.331177 7.3169671,14.326614 4.6055008,15.331678 3.9783103,11.135606 3.283914,6.9608793 2.6302738,2.7407255 2.3117983,0.68452405 2.0180377,-1.3671394 1.7393885,-3.4159114 M 3.9366618,12.12941 C 2.9326437,4.4115276 1.9915338,-3.2158171 1.1846019,-10.783064 1.0579481,-11.970798 0.91789144,-13.167643 0.76698915,-14.371988 3.4859851,-8.3516694 5.8917723,-2.5479701 8.3811919,3.2887365 9.2590292,5.3469185 10.167017,7.4494616 11.088915,9.5818225 M 0.85564244,-12.458137 C 4.0878913,-5.43794 7.063703,1.7676695 10.006955,8.9113524 10.502424,10.113925 11.01175,11.316183 11.531894,12.518717 8.8404388,13.533034 6.200215,14.548659 3.5799164,15.571675 3.1603024,12.011681 2.772898,8.463635 2.3533595,4.9400399 2.2026646,3.6743923 2.0479119,2.4017235 1.8908928,1.1240157 M 3.8572482,13.975494 C 2.9045063,6.2536584 1.7065933,-1.4345337 0.48637213,-9.1385371 0.18528874,-11.039461 -0.08601937,-12.940043 -0.33626373,-14.840109 2.0535306,-9.4813465 4.6398499,-4.1177751 7.1744284,1.2555498 8.90008,4.9139437 10.486483,8.5612362 12.017272,12.207532 10.924886,12.60781 9.8279643,13.008007 8.7284543,13.408358 M 0.30648844,-13.591062 C 3.5583205,-6.4234415 6.62403,0.73125966 9.7835573,8.0594884 10.452488,9.6110108 11.123398,11.141069 11.796307,12.656056 9.1372647,13.674844 6.4842043,14.648512 3.8372207,15.610177 3.4259187,12.311 3.0226954,8.9958666 2.627697,5.71554 1.8091737,-1.0820153 0.79110883,-7.7675714 -0.24215334,-14.462666 c 0.25052886,0.597154 0.5009198,1.194221 0.7513322,1.791097 M 9.3639016,6.0687785 12.758965,13.707672 M 2.1444262,1.0831964 1.1728163,-6.2038775"
         inkscape:original-d="M 0,-15 12,12 4,15 Z" />
      <path
         id="path18"
         style="fill:none;stroke:#000000;stroke-width:0.53176589;stroke-dasharray:none"
         d="m 41.814746,50.133632 c -3.044414,0.01163 -6.092082,0.02725 -9.142557,0.05203 -3.206123,-1.172194 -6.415783,-2.332854 -9.628347,-3.474675 0.527959,-1.176428 1.055491,-2.35008 1.58263,-3.520544 l 1e-6,-10e-7 c 3.125396,-6.939651 6.375896,-14.257336 9.654687,-21.451173 l 10e-7,-10e-7 c 1.150446,-2.524138 2.280873,-5.03157 3.406935,-7.533645 1.238409,2.733544 2.471539,5.473569 3.720211,8.204983 m -11.642735,8.771644 c 2.464354,-5.487606 4.969967,-11.136322 7.506307,-16.817897 0.70622,1.512645 1.414822,3.022741 2.12558,4.533059 l 0,2e-6 c 3.264792,6.93749 6.352153,14.258328 9.577345,21.451174 0.973474,2.171048 1.927113,4.333962 2.866315,6.495892 -3.220743,1.224263 -6.47208,2.44644 -9.737356,3.68859 -1.998681,0.02419 -4.001952,0.05495 -6.006666,0.09646 m 5.11381,-0.610743 c -2.770524,0.01007 -5.561456,0.01414 -8.365536,0.01628 -3.217481,-1.19737 -6.454693,-2.397618 -9.698288,-3.593217 0.616442,-1.429955 1.231543,-2.858933 1.846589,-4.286208 l 0,-10e-7 c 3.052704,-7.084108 6.385602,-14.131306 9.682813,-21.073829 l 10e-7,-2e-6 c 1.048719,-2.208156 2.058595,-4.463262 3.042853,-6.749331 1.535012,3.485837 3.007717,6.896362 4.468282,10.292211 m -11.81382,5.338845 c 2.398571,-5.4544 4.838821,-10.804981 7.289085,-16.079048 0.750617,1.716336 1.502175,3.439852 2.253761,5.169764 3.206388,7.380074 6.449099,14.07491 9.86797,20.90508 l 1e-6,2e-6 c 0.97484,1.947521 1.895862,3.948877 2.78124,5.984688 -3.223613,1.214232 -6.531877,2.510289 -9.858282,3.817249 -0.608917,0.01838 -1.21837,0.03708 -1.828021,0.05574 m 2.29229,-0.344256 c -3.132218,0.03136 -6.266407,0.05662 -9.391555,0.09135 -3.168315,-1.162369 -6.326017,-2.313621 -9.459105,-3.433964 0.511903,-1.070785 1.026853,-2.137745 1.54546,-3.200015 l 1e-6,-2e-6 c 3.354495,-6.871064 6.162324,-14.251931 9.0125,-21.432422 l 1e-6,-2e-6 c 1.040136,-2.620431 2.182583,-5.218772 3.382094,-7.805593 0.598134,1.29684 1.210457,2.596545 1.831359,3.897804 m -9.185444,12.102282 c 2.412757,-5.489855 4.846819,-10.943408 7.264685,-16.38457 0.718962,1.6387 1.436491,3.278496 2.151603,4.918759 3.121368,7.159526 6.232133,14.290837 9.223439,21.549611 l 10e-7,2e-6 c 0.868782,2.108209 1.765843,4.18946 2.678915,6.254968 -1.794704,0.67269 -3.577928,1.334093 -5.35712,1.99102 M 45.161021,32.119539 c 2.264157,4.99755 4.432397,9.888787 6.604892,14.756175 -2.227264,0.799302 -4.453712,1.594029 -6.67093,2.391109 -0.983043,0.353399 -1.965223,0.712359 -2.946537,1.076041 -3.194976,-0.01503 -6.381919,0.01383 -9.560823,0.06282 -3.177469,-1.147675 -6.34577,-2.272374 -9.504893,-3.403011 0.04615,-0.09862 0.0923,-0.197243 0.138467,-0.295874 1.150191,-2.457377 2.268429,-4.961843 3.367081,-7.49244 m 6.815832,-14.873608 3.209446,-7.221253 m -1.863836,4.193632 3.723464,-8.377796"
         inkscape:original-d="M 42.8,50 H 33.2 L 23.6,46.4 38,14 52.4,46.4 Z" />
      <path
         id="path19"
         style="opacity:0.3;fill:none;stroke-width:0.53176589;stroke-dasharray:none"
         d="m 24.490549,44.130684 c 3.123962,-7.145736 6.29483,-14.256232 9.411609,-21.458391 1.299747,-3.003416 2.596993,-5.981287 3.882669,-8.955166 -0.6429,4.480197 -1.308447,8.968207 -2.021477,13.405013 -1.137249,7.07649 -1.846213,14.347049 -2.597222,21.565784 M 37.915703,16.69906 c -0.934635,7.64707 -1.944796,15.495824 -2.754493,23.367253 -0.36556,3.553774 -0.824477,7.017891 -1.3169,10.437582 -3.22778,-1.257941 -6.487325,-2.558 -9.723388,-3.858427 0.336323,-0.801895 0.674099,-1.603813 1.014179,-2.40511 1.340588,-3.158697 2.710407,-6.232503 4.09812,-9.275173 m -2.88893,5.624663 c 3.159002,-7.070094 6.247431,-14.22977 9.273282,-21.374113 0.70488,-1.664295 1.427863,-3.32841 2.163895,-4.993887 -0.786987,5.879792 -1.432335,11.744811 -2.116743,17.539978 -0.403242,3.414422 -0.855801,6.891465 -1.320414,10.388392 m 3.028288,-19.876692 c -1.064904,7.71945 -2.036543,15.354943 -3.028545,22.947628 -0.188662,1.444007 -0.381451,2.900035 -0.577614,4.365711 -3.20173,-1.199837 -6.421488,-2.348127 -9.649993,-3.474165 1.146295,-2.570878 2.28637,-5.125936 3.42579,-7.682734 1.130577,-2.536953 2.28454,-5.140519 3.449231,-7.780211 m -6.561786,12.272654 c 3.128588,-7.089408 6.235395,-14.02516 9.233477,-20.762369 1.183466,-2.659453 2.417778,-5.459527 3.673293,-8.332271 -0.608351,4.562695 -1.166783,8.954297 -1.78239,13.420283 -0.695522,5.04574 -1.410268,10.474945 -2.132726,15.967443 m 4.169696,-25.655287 c -1.079756,7.779677 -2.084019,15.589221 -3.166806,23.650675 -0.404511,3.011624 -0.769626,5.911674 -1.103989,8.755839 -3.14176,-1.240901 -6.240942,-2.559181 -9.311628,-3.864107 0.646329,-1.374998 1.297829,-2.747573 1.95341,-4.110712 2.235764,-4.648787 4.138569,-9.13797 5.977855,-13.605214 m -4.654982,9.722303 3.951918,-8.891815 m 3.972009,-8.93702 3.980475,-8.956067"
         inkscape:original-d="M 23.6,46.4 38,14 33.2,50 Z" />
      <path
         id="path20"
         style="opacity:0.2;fill:none;stroke-width:0.53176589;stroke-dasharray:none"
         d="M 41.618758,43.712221 C 40.550749,36.046564 39.59689,28.359368 38.639437,20.773899 c -0.293254,-2.323318 -0.598504,-4.665284 -0.909755,-7.015405 2.199594,4.954547 4.368359,9.867202 6.576062,14.860095 2.627216,5.941654 5.2523,11.807483 7.912971,17.746605 -0.195494,0.07627 -0.39095,0.152618 -0.586366,0.229051 M 40.102345,19.2126 c 3.09043,7.028854 6.283468,14.321141 9.376495,21.650728 0.874247,2.071713 1.763615,4.096745 2.663775,6.090221 -3.18804,1.177323 -6.349978,2.278319 -9.502102,3.359889 C 42.384976,48.094741 42.133368,45.868265 41.881562,43.64843 41.6187,41.331138 41.338363,39.068785 41.049656,36.841343 m 1.39232,9.048302 c -1.121025,-7.635256 -2.027441,-15.355022 -2.995659,-22.943049 -0.38509,-3.017992 -0.778529,-6.077146 -1.169168,-9.155523 1.93034,4.261539 3.867108,8.478936 5.849097,12.728527 0.642691,1.377997 1.274822,2.760647 1.899283,4.146768 M 40.010876,18.475003 c 3.058597,7.14403 6.435142,14.085759 9.833567,20.945111 1.117816,2.256191 2.167234,4.582941 3.173859,6.954199 -3.242694,1.246073 -6.561822,2.571645 -9.896258,3.914531 -0.309213,-1.711795 -0.622687,-3.418771 -0.931446,-5.130059 -0.995356,-5.516732 -1.626431,-11.496227 -2.273554,-17.529986 m 3.068465,22.225826 C 41.866095,42.086074 41.019184,34.51415 40.17266,26.946904 c -0.464714,-4.154172 -1.014761,-8.38615 -1.560686,-12.627873 1.440407,3.198105 2.883601,6.389619 4.379338,9.612398 0.600883,1.294688 1.18935,2.585869 1.768157,3.874182 M 39.03141,15.363944 c 3.119217,7.101914 6.215994,14.062771 9.174896,20.874854 1.425647,3.282172 2.975231,6.723567 4.58261,10.226692 -3.121497,1.2731 -6.194884,2.597584 -9.270394,3.899412 -0.05881,-0.590629 -0.117696,-1.18199 -0.176939,-1.774514 -0.230906,-2.309429 -0.527167,-4.665089 -0.864577,-7.048894 M 38.76955,19.771628 37.68333,11.624974 m 1.69406,5.474153 3.661592,8.238583"
         inkscape:original-d="M 42.8,50 38,14 52.4,46.4 Z" />
    </g>
  </g>
</svg>
