<?xml version="1.0" encoding="UTF-8" standalone="no"?>
<svg
   height="150"
   width="200"
   version="1.1"
   id="svg2"
   sodipodi:docname="tile-grass.svg"
   inkscape:version="1.3.1 (91b66b0783, 2023-11-16, custom)"
   xmlns:inkscape="http://www.inkscape.org/namespaces/inkscape"
   xmlns:sodipodi="http://sodipodi.sourceforge.net/DTD/sodipodi-0.dtd"
   xmlns="http://www.w3.org/2000/svg"
   xmlns:svg="http://www.w3.org/2000/svg">
  <defs
     id="defs2">
    <inkscape:path-effect
       effect="sketch"
       id="path-effect1"
       is_visible="true"
       lpeversion="1"
       nbiter_approxstrokes="3"
       parallel_offset="2;1"
       strokelength="70"
       strokelength_rdm="0.3;1"
       strokeoverlap="0.5"
       strokeoverlap_rdm="0.5;1"
       ends_tolerance="0.1;1"
       tremble_size="0.8;1"
       tremble_frequency="3"
       nbtangents="2"
       tgt_places_rdmness="0.5;1"
       tgtlength="5"
       tgtlength_rdm="0.3;1"
       tgtscale="10" />
    <inkscape:path-effect
       effect="sketch"
       id="path-effect14"
       is_visible="true"
       lpeversion="1"
       nbiter_approxstrokes="3"
       parallel_offset="0.2;1"
       strokelength="70"
       strokelength_rdm="0.3;1"
       strokeoverlap="0.5"
       strokeoverlap_rdm="0.5;1"
       ends_tolerance="0.1;1"
       tremble_size="0.8;1"
       tremble_frequency="3"
       nbtangents="2"
       tgt_places_rdmness="0.5;1"
       tgtlength="5"
       tgtlength_rdm="0.3;1"
       tgtscale="10" />
  </defs>
  <sodipodi:namedview
     id="namedview2"
     pagecolor="#ffffff"
     bordercolor="#000000"
     borderopacity="0.25"
     inkscape:showpageshadow="2"
     inkscape:pageopacity="0.0"
     inkscape:pagecheckerboard="0"
     inkscape:deskcolor="#d1d1d1"
     inkscape:zoom="1.0375"
     inkscape:cx="68.433736"
     inkscape:cy="80.963857"
     inkscape:window-width="1440"
     inkscape:window-height="831"
     inkscape:window-x="0"
     inkscape:window-y="0"
     inkscape:window-maximized="1"
     inkscape:current-layer="svg2" />
  <!-- Draw the shadow. -->
  <!-- Draw the tile background. -->
  <polygon
     points="0,45 0,15 40,0 80,15 80,45 40,60 "
     stroke="#000000"
     stroke-width="1"
     id="polygon2"
     fill="#66aa66"
     style="stroke:none;stroke-width:1;stroke-dasharray:none"
     transform="matrix(2.4,0,0,2.4,4,3)" />
  <path
     id="path2"
     style="fill:none;stroke:#000000;stroke-width:1;stroke-dasharray:none"
     d="m 9.0276276,38.962386 c 7.5142884,-2.90857 14.4840884,-5.456775 21.6067654,-8.195388 7.125729,-2.739788 14.431982,-5.596844 21.453928,-8.59288 l 3e-6,-1e-6 c 2.902305,-1.238319 5.920253,-2.376822 8.997872,-3.471211 m -17.222637,3.635737 c 7.048723,-2.821455 14.604618,-5.687666 21.988615,-8.858001 l 2e-6,-10e-7 C 73.239337,10.308948 80.507562,8.1514538 87.956104,5.6752619 89.096945,5.296001 90.232227,4.9070526 91.363792,4.5111548 M 77.395766,11.500377 C 84.515434,8.6395095 92.30682,5.9136317 100.30304,2.9174267 c 0.12647,-0.04739 0.25251,-0.094555 0.37812,-0.1414985 7.81938,2.4532285 13.98091,5.7643282 20.54456,9.1628228 1.58416,0.82024 3.25417,1.535711 4.98542,2.175536 M 113.09729,8.4984786 c 7.12375,2.7318034 14.83189,5.3834904 22.65101,7.9581164 7.82248,2.575729 14.61675,5.60697 21.99768,8.630379 l 0,10e-7 c 6.29426,2.578279 12.27441,4.940526 18.11916,7.634089 M 145.92782,19.525925 c 7.42281,2.829395 14.47779,5.248227 21.60688,7.54549 l 0,1e-6 c 7.13215,2.298248 14.47792,5.297311 21.59143,7.686629 1.94965,0.654857 3.93937,1.376992 5.95849,2.145571 0.0227,2.114452 0.0739,4.27375 0.14326,6.458125 M 181.95084,32.687986 c 5.12525,1.907465 10.01237,3.726393 14.90402,5.525626 -0.0262,2.464408 -0.0514,4.924438 -0.0502,7.387304 l 0,2e-6 c 0.004,7.690558 -0.24943,15.331075 -0.7625,22.652082 -0.15254,2.176561 -0.21588,4.420033 -0.23078,6.694265 m -0.45021,-14.520838 c 0.20182,7.824779 0.20076,16.064993 0.60599,24.879519 l 0,2e-6 c 0.4054,8.818304 0.10443,15.081362 0.325,21.895832 0.0371,1.14771 0.0554,2.36243 0.058,3.63032 -0.52783,0.1802 -1.05859,0.3703 -1.592,0.56917 m 1.94346,-15.047019 c 0.0178,4.388889 -0.0548,8.870929 -0.19726,13.364939 -3.19678,1.17515 -6.43166,2.35683 -9.69634,3.51239 -7.69027,2.72201 -14.48777,5.31913 -21.61018,7.75538 l 0,0 c -0.76537,0.2618 -1.53199,0.53233 -2.29925,0.81048 m 10.07498,-4.34807 c -7.17549,2.83968 -14.55235,5.11423 -21.81345,7.14548 l 0,0 c -7.26422,2.03213 -14.70444,5.51389 -22.26643,8.34288 l 0,0 c -5.78403,2.16384 -11.18564,4.38182 -16.57577,6.78686 m 27.13349,-9.2096 c -7.25007,2.77748 -14.24779,5.31675 -20.89461,7.76431 -5.52106,2.03302 -12.11954,4.51436 -18.713615,6.96239 -1.347954,-0.42659 -2.695723,-0.85458 -4.034066,-1.28807 -5.754181,-1.86379 -10.696186,-3.97449 -15.527247,-6.12646 m 23.799498,5.28389 c -1.87486,0.69371 -3.76223,1.38349 -5.658396,2.06592 -5.394525,-2.09815 -10.860181,-4.25576 -16.31126,-6.55167 -7.370276,-3.10426 -14.617797,-5.70398 -21.997678,-8.90538 l -2e-6,0 c -3.43942,-1.49203 -6.806205,-2.75264 -10.128699,-3.92583 m 18.603313,8.2529 c -7.26488,-2.82375 -14.549967,-5.94261 -21.819587,-9.633 l -10e-7,0 c -7.272736,-3.69197 -14.420838,-4.96281 -21.410177,-6.69288 l -3e-6,0 c -4.903724,-1.21382 -10.029641,-3.4212 -15.075733,-5.58516 m 25.677986,11.42177 c -7.123573,-2.50078 -14.615741,-5.0674 -22.019769,-7.00216 -3.561739,-0.93073 -7.0421587,-2.25482 -10.4822498,-3.70694 0.066631,-4.18786 0.180271,-8.52497 0.289333,-12.67739 0.1067699,-4.065148 0.069898,-7.982861 -0.026854,-11.840967 m 0.1300783,21.048807 c 0.07698,-7.93455 0.072134,-15.593354 0.2249009,-23.441875 0.1528327,-7.851885 0.060739,-15.463988 0.19375,-23.064581 l 0,-2e-6 c 0.027387,-1.564942 0.038482,-3.147406 0.036756,-4.742844 M 3.5171946,69.263231 c -0.00191,-7.668723 0.1932037,-15.900485 0.5812526,-24.385969 0.1476395,-3.22844 0.1495341,-6.265126 0.070091,-9.226922 4.3835296,-1.698696 8.5510906,-3.198545 12.7813506,-5.005169 2.533469,-1.081973 5.206923,-2.088555 7.950124,-3.047934 M 10.459341,36.75557 c 7.210985,-2.492744 14.733004,-5.39721 22.357155,-8.008424 7.62742,-2.612333 14.628497,-5.661206 22.035181,-8.79288 5.561081,-2.351321 10.969836,-4.223823 16.387954,-6.126365 m -27.71574,7.988784 c 7.385245,-2.733764 14.305808,-5.244814 21.088181,-7.551864 l 3e-6,-10e-7 C 71.397356,11.956781 79.23844,8.395794 86.647253,4.8531905 90.69369,2.9183433 94.670296,1.4860062 98.637927,0.16108117 101.35053,1.2947549 104.05894,2.4786354 106.7826,3.5864618 m -29.00034,5.61002 c 7.512247,-2.6858753 14.528372,-5.1581822 21.738017,-7.2769255 0.151672,-0.044573 0.303228,-0.089645 0.454667,-0.1351994 7.050216,3.2262708 13.845936,5.4068415 20.193016,8.2585151 6.0987,2.740082 13.76163,5.160778 20.98623,7.719421 M 112.09488,3.735963 c 7.05285,2.4824259 14.56954,5.4855795 21.88236,8.277187 7.31596,2.792805 14.92613,5.665218 22.92268,8.805379 l 0,10e-7 c 3.72682,1.463484 7.04306,2.721863 10.16422,3.900308 m -22.65106,-3.252379 c 7.47078,2.823372 14.65799,5.498501 22.13807,8.295498 l 0,1e-6 c 7.48328,2.798196 14.22553,5.060694 20.82893,6.986629 1.96354,0.572685 4.06953,1.313256 6.26418,2.158451 0.04,3.216916 0.24667,6.630573 0.48143,10.077837 M 179.2117,31.654425 c 5.10859,2.044237 10.6196,3.895982 16.29251,5.66366 0.15695,2.074421 0.33766,4.136504 0.52862,6.192347 l -1e-5,2e-6 c 0.68971,7.425604 -0.42089,15.493977 -1.25625,23.158331 -0.69768,6.401224 -0.0484,13.12244 0.49169,19.971574 m 2.53323,-27.607558 c -0.0665,7.764053 0.004,15.552362 0.0126,23.323347 l 0,2e-6 c 0.009,7.774317 -0.11363,15.352158 -0.33124,22.71458 -0.0569,1.92426 -0.0896,3.904 -0.10984,5.91719 -4.99974,1.80414 -9.91561,3.83422 -14.95435,5.70324 m 15.53889,-24.732358 c -0.17281,5.724864 -0.0649,11.537768 0.0355,17.357528 -1.8409,0.72028 -3.6827,1.4414 -5.53745,2.15994 -7.20102,2.78972 -14.75293,5.83953 -22.41018,9.31788 l 0,0 c -6.44913,2.92956 -12.21178,4.67951 -17.96259,6.58462 m 24.66123,-11.42122 c -7.26483,2.72777 -14.49006,5.52466 -21.63209,8.39563 l 0,0 c -7.14509,2.8722 -14.7754,5.37286 -22.48517,7.93038 l -1e-5,0 c -7.57755,2.51365 -14.04048,5.36117 -20.60994,8.05809 m 32.14203,-12.94753 c -7.28192,2.68609 -15.02985,5.40473 -23.25082,8.02068 l 0,0 c -8.22449,2.61706 -14.09669,5.76181 -20.45393,9.09913 l 0,0 c -0.539954,0.28346 -1.094942,0.55605 -1.663259,0.81889 -4.055625,-1.4349 -8.789991,-3.36654 -13.583697,-5.39158 m 24.760996,1.41283 c -3.75217,1.289 -7.47048,2.68565 -11.197567,4.11346 -3.607007,-1.30329 -7.222243,-2.57739 -10.884366,-3.89163 -7.449358,-2.67337 -14.426159,-5.13654 -21.435179,-7.22413 l -2e-6,0 c -0.974958,-0.29038 -1.958921,-0.6109 -2.949718,-0.95634 m 12.602968,4.48197 c -7.501842,-2.97061 -14.516051,-5.07496 -21.700531,-7.03906 l -10e-7,0 c -7.187559,-1.96494 -14.723179,-5.64836 -22.322677,-8.75538 l -3e-6,0 c -4.744038,-1.93957 -9.153918,-3.56447 -13.459928,-5.15155 m 21.52495,8.0704 c -7.262929,-2.7756 -14.699537,-5.55023 -22.263339,-8.45181 -5.564374,-2.13457 -10.8650249,-4.03258 -16.2363314,-5.90153 -0.0058,-2.00833 -0.020761,-4.0129 -0.060458,-6.02338 -0.037212,-1.88459 -0.050441,-3.77793 -0.046467,-5.67188 m 5.4409595,13.1238 C 5.9318939,111.65627 4.8947148,111.24858 3.867788,110.85188 3.8832413,104.11225 4.2765737,97.777463 4.7984472,91.387997 5.4065424,83.94289 4.8778263,75.668244 5.0359471,67.567166 l 1e-7,-3e-6 C 5.1185344,63.335941 4.9848271,59.355101 4.7022183,55.487172 M 2.6986802,76.583717 C 2.8798514,68.86527 3.0597746,60.880367 3.7921972,52.797811 4.2550157,47.690436 4.0570531,42.756839 3.7547375,37.765309 6.2611011,36.71332 8.7319713,35.641626 11.277724,34.504264 18.021474,31.49137 25.25419,29.505265 31.935962,27.56203 M 8.0545037,37.873193 C 15.462815,35.145319 22.592836,32.22401 29.830155,29.115071 37.070577,26.0048 44.449929,23.541048 51.846583,20.597192 l 3e-6,-1e-6 C 55.26782,19.235545 58.67493,17.973413 62.103121,16.747043 M 45.415157,21.448331 C 52.551159,18.695703 59.980762,16.023044 67.272409,13.365241 74.567181,10.7063 81.910555,8.2093909 89.351337,6.084862 l 3e-6,-8e-7 c 3.624757,-1.0349587 7.205106,-2.3301345 10.79731,-3.674372 M 80.307173,10.741271 c 6.816192,-2.5533144 14.080032,-4.942119 21.662067,-7.1024848 0.45555,0.1796339 0.91225,0.3600924 1.37007,0.5413895 l 0,7e-7 c 8.08109,3.2001284 14.53319,5.5315868 21.75393,8.4116296 5.39609,2.152266 10.79117,4.150397 16.10579,6.179379 M 115.84605,8.4971715 c 7.45589,2.5053455 14.26085,5.5461465 20.95684,8.4521575 l 0,2e-6 c 6.69886,2.907257 14.67182,5.415115 22.16018,8.042878 6.14893,2.157741 12.16434,4.349692 18.38973,6.406919 M 147.725,17.987711 c 7.38545,2.779694 14.5504,5.47186 21.81318,8.233055 7.26589,2.762379 14.94361,5.531543 22.99143,8.399129 l 0,10e-7 c 1.77046,0.63085 3.45402,1.243802 5.075,1.843112 0.0374,3.387426 -0.17094,6.721287 -0.43566,10.034672 M 182.08476,34.116327 c 4.48769,1.667205 9.28732,3.398843 14.20706,5.102323 0.15646,2.793022 0.3516,5.576975 0.55038,8.33494 l 0,3e-6 c 0.54929,7.621259 -0.13122,15.978171 -0.39375,24.608331 -0.20265,6.661733 -0.0303,12.211566 0.15465,17.824 m 0.22957,-30.928956 c -0.11874,8.028037 -0.28407,15.513573 -0.83734,23.216757 l 0,3e-6 c -0.55351,7.706486 0.34503,15.376061 1.02499,22.808332 0.0994,1.08609 0.16076,2.19198 0.19055,3.31445 m -2.59083,-9.341469 c -0.12776,4.431499 -0.0851,8.850209 6.5e-4,13.178429 -2.99558,1.01584 -5.96854,1.98421 -8.96723,2.8756 l -1e-5,0 c -7.142,2.12302 -14.57719,5.53037 -21.89142,8.39288 l -1e-5,0 c -6.98308,2.73291 -13.98334,5.22124 -21.07557,7.8112 m 34.07619,-11.89644 c -7.24378,2.83167 -14.18665,5.47765 -20.71962,8.23924 l 0,0 c -6.53576,2.76277 -14.85615,5.43321 -22.71017,8.09913 l -1e-5,0 c -6.89097,2.33903 -12.69533,4.75521 -18.56653,7.10971 m 28.13925,-14.24793 c -7.32125,2.73586 -14.82939,5.2597 -22.66327,7.59561 -7.23164,2.15634 -13.64263,5.00446 -20.541071,7.62685 -0.577695,-0.20244 -1.158808,-0.40647 -1.744108,-0.61262 -1.479692,-0.52117 -2.924109,-1.0356 -4.339844,-1.54199 m 14.905873,3.61053 c -2.47598,0.87813 -4.91085,1.80748 -7.31952,2.77676 -4.800205,-1.70372 -9.496309,-3.24885 -14.206132,-4.72469 l -10e-7,0 c -7.076168,-2.21736 -14.633783,-5.71315 -22.066427,-8.93663 l -3e-6,0 c -4.953443,-2.14827 -9.880236,-3.74987 -14.916836,-5.24397 m 24.563216,7.95702 c -7.499874,-2.54297 -14.645665,-5.7775 -22.100534,-9.15211 l -10e-7,0 c -7.458063,-3.37606 -14.567422,-5.2938 -21.853926,-7.68663 l -3e-6,0 c -6.060032,-1.99007 -12.227808,-4.44698 -18.504537,-6.78229 m 27.794292,11.71655 c -7.169001,-2.82969 -14.257352,-5.58775 -20.919709,-8.5705 -3.997706,-1.78977 -8.556646,-3.42493 -13.2755987,-5.07112 -0.2341885,-3.11824 -0.5396204,-6.24139 -0.7970981,-9.41867 -0.1709145,-2.10908 -0.2352489,-4.180835 -0.2292196,-6.224226 m 0.3628772,15.845286 c -0.032192,-0.0127 -0.064377,-0.0255 -0.096555,-0.0382 C 4.9318591,103.84504 5.2624532,96.25929 5.8703222,88.517303 6.4811424,80.73773 5.721754,72.933437 5.4390723,65.096472 l -1e-7,-2e-6 C 5.35503,62.766512 5.3339709,60.446038 5.3538304,58.130434 M 4.0141202,74.532691 C 4.0512746,66.920465 3.7041982,59.061292 3.0890722,51.434149 2.7853774,47.668539 2.8031564,43.905355 2.9206553,40.198295 6.7298664,38.949794 10.64412,37.760412 14.423673,36.688205 c 1.247853,-0.353999 2.489055,-0.748321 3.72609,-1.174422 M 195.89845,79.166406 v 8.042969 M 19.896257,116.24333 13.177364,113.72374"
     inkscape:path-effect="#path-effect1"
     inkscape:original-d="m 3.8984472,38.244149 95.9999998,-36 96.000003,36 v 72.000001 l -96.000003,36 -95.9999998,-36 z" />
  <path
     id="path5"
     style="opacity:0.3;fill:none;stroke-width:1;stroke-dasharray:none"
     d="m 56.698447,33.444149 -7.68,57.6 -15.36,-5.76 z" />
  <path
     id="path6"
     style="opacity:0.2;fill:none;stroke-width:1;stroke-dasharray:none"
     d="m 56.698447,33.444149 23.04,51.84 -15.36,5.76 z" />
  <path
     id="path9"
     style="opacity:0.3;fill:none;stroke-width:1;stroke-dasharray:none"
     d="m 131.09845,103.04415 -19.2,-7.200001 28.8,-64.8 z" />
  <path
     id="path10"
     style="opacity:0.2;fill:none;stroke-width:1;stroke-dasharray:none"
     d="m 140.69845,31.044149 28.8,64.8 -19.2,7.200001 z" />
  <path
     id="path12"
     style="opacity:0.3;fill:none;stroke-width:1;stroke-dasharray:none"
     d="m 60.538447,113.60415 34.56,-77.760001 -11.52,86.400001 z" />
  <path
     id="path13"
     style="opacity:0.2;fill:none;stroke-width:1;stroke-dasharray:none"
     d="M 106.61845,122.24415 95.098447,35.844149 129.65845,113.60415 Z" />
</svg>
