<?xml version="1.0" encoding="UTF-8" standalone="no"?>
<svg
   height="150"
   width="200"
   version="1.1"
   id="svg7"
   sodipodi:docname="tile-forest.svg"
   inkscape:version="1.3.1 (91b66b0783, 2023-11-16, custom)"
   xmlns:inkscape="http://www.inkscape.org/namespaces/inkscape"
   xmlns:sodipodi="http://sodipodi.sourceforge.net/DTD/sodipodi-0.dtd"
   xmlns="http://www.w3.org/2000/svg"
   xmlns:svg="http://www.w3.org/2000/svg">
  <sodipodi:namedview
     id="namedview7"
     pagecolor="#ffffff"
     bordercolor="#000000"
     borderopacity="0.25"
     inkscape:showpageshadow="2"
     inkscape:pageopacity="0.0"
     inkscape:pagecheckerboard="0"
     inkscape:deskcolor="#d1d1d1"
     inkscape:zoom="1.1737973"
     inkscape:cx="-7.6674229"
     inkscape:cy="20.446461"
     inkscape:window-width="1440"
     inkscape:window-height="831"
     inkscape:window-x="0"
     inkscape:window-y="0"
     inkscape:window-maximized="1"
     inkscape:current-layer="g8" />
  <defs
     id="defs3">
    <inkscape:path-effect
       effect="sketch"
       id="path-effect14"
       is_visible="true"
       lpeversion="1"
       nbiter_approxstrokes="3"
       parallel_offset="0.2;1"
       strokelength="70"
       strokelength_rdm="0.3;1"
       strokeoverlap="0.5"
       strokeoverlap_rdm="0.5;1"
       ends_tolerance="0.1;1"
       tremble_size="0.8;1"
       tremble_frequency="3"
       nbtangents="2"
       tgt_places_rdmness="0.5;1"
       tgtlength="5"
       tgtlength_rdm="0.3;1"
       tgtscale="10" />
    <inkscape:path-effect
       effect="sketch"
       id="path-effect2"
       is_visible="true"
       lpeversion="1"
       nbiter_approxstrokes="3"
       parallel_offset="0.6;1"
       strokelength="70"
       strokelength_rdm="0.3;1"
       strokeoverlap="0.5"
       strokeoverlap_rdm="0.5;1"
       ends_tolerance="0.1;1"
       tremble_size="0.8;1"
       tremble_frequency="3"
       nbtangents="2"
       tgt_places_rdmness="0.5;1"
       tgtlength="5"
       tgtlength_rdm="0.3;1"
       tgtscale="10" />
    <inkscape:path-effect
       effect="sketch"
       id="path-effect20"
       is_visible="true"
       lpeversion="1"
       nbiter_approxstrokes="3"
       parallel_offset="0.5;1"
       strokelength="70"
       strokelength_rdm="0.3;1"
       strokeoverlap="0.5"
       strokeoverlap_rdm="0.5;1"
       ends_tolerance="0.1;1"
       tremble_size="0.8;1"
       tremble_frequency="3"
       nbtangents="2"
       tgt_places_rdmness="0.5;1"
       tgtlength="5"
       tgtlength_rdm="0.3;1"
       tgtscale="10" />
    <g
       id="tree">
      <polygon
         fill="#776644"
         points="-12,12 0,-15 12,12 4,15 -4,15 "
         stroke="#000000"
         stroke-width="1"
         id="polygon1" />
      <polygon
         fill="#000000"
         opacity="0.3"
         points="-4,15 -12,12 0,-15 "
         id="polygon2" />
      <polygon
         fill="#ffffff"
         opacity="0.2"
         points="12,12 4,15 0,-15 "
         id="polygon3" />
    </g>
  </defs>
  <!-- Draw the shadow. -->
  <!-- Draw the tile background. -->
  <!-- Draw the tile foreground. -->
  <g
     id="g8"
     transform="translate(0,2.5)"
     style="stroke-width:2;stroke-dasharray:none">
    <g
       id="g1"
       transform="matrix(2.4,0,0,2.4,4,0.5)"
       style="stroke:none;stroke-width:0.416667;stroke-dasharray:none">
      <polygon
         fill="#776644"
         points="40,60 0,45 0,15 40,0 80,15 80,45 "
         stroke="#000000"
         stroke-width="1"
         id="polygon5"
         style="stroke:none;stroke-width:0.416667;stroke-dasharray:none" />
      <path
         id="polygon14"
         style="fill:#776644;stroke:none;stroke-width:0.416667;stroke-dasharray:none"
         d="M 18.8,37 12.4,34.6 22,13 31.6,34.6 25.2,37 Z" />
      <polygon
         fill="#000000"
         opacity="0.3"
         points="18.8,37 12.4,34.6 22,13 "
         id="polygon15"
         style="stroke:none;stroke-width:0.416667;stroke-dasharray:none" />
      <polygon
         fill="#ffffff"
         opacity="0.2"
         points="31.6,34.6 25.2,37 22,13 "
         id="polygon16"
         style="stroke:none;stroke-width:0.416667;stroke-dasharray:none" />
      <path
         id="polygon11"
         style="fill:#776644;stroke:none;stroke-width:0.416667;stroke-dasharray:none"
         d="m 69,39 -8,3 H 53 L 45,39 57,12 Z" />
      <polygon
         fill="#000000"
         opacity="0.3"
         points="-12,12 0,-15 -4,15 "
         id="polygon12"
         transform="translate(57,27)"
         style="stroke:none;stroke-width:0.416667;stroke-dasharray:none" />
      <polygon
         fill="#ffffff"
         opacity="0.2"
         points="12,12 4,15 0,-15 "
         id="polygon13"
         transform="translate(57,27)"
         style="stroke:none;stroke-width:0.416667;stroke-dasharray:none" />
      <path
         id="polygon8"
         style="fill:#776644;stroke:none;stroke-width:0.416667;stroke-dasharray:none"
         d="M 42.8,50 H 33.2 L 23.6,46.4 38,14 52.4,46.4 Z" />
      <path
         id="polygon9"
         style="opacity:0.3;stroke:none;stroke-width:0.416667;stroke-dasharray:none"
         d="M 23.6,46.4 38,14 33.2,50 Z" />
      <path
         id="polygon10"
         style="opacity:0.2;fill:#ffffff;stroke:none;stroke-width:0.416667;stroke-dasharray:none"
         d="M 42.8,50 38,14 52.4,46.4 Z" />
    </g>
    <g
       id="g20"
       transform="matrix(2.4,0,0,2.4,4,0.5)"
       style="fill:none;stroke-width:0.416667;stroke-dasharray:none"
       inkscape:path-effect="#path-effect2">
      <path
         id="polygon4"
         style="stroke:#000000"
         d="M 4.7026179,14.4823 C 12.216906,11.573729 19.186707,9.0255244 26.309383,6.286911 30.838348,4.5455593 35.440238,2.7568355 39.995707,0.91516543 42.607669,1.8496481 45.20437,2.7667246 47.763314,3.6653443 c 2.902305,1.0191972 5.920253,2.1382109 8.997872,3.3013379 M 38.991674,0.03511941 c 0.248198,-0.09934848 0.497025,-0.19875245 0.746452,-0.29822323 6.834172,2.54187982 14.11817,5.03359932 21.242163,7.24223562 6.400852,1.9844425 12.712407,4.7303392 19.129345,7.3705742 0.01645,1.08067 0.03539,2.158831 0.05755,3.231311 0.02542,1.230288 0.04529,2.450889 0.06143,3.664541 m -6.753176,-8.414624 c 2.016001,0.73585 4.08586,1.482523 6.198976,2.230818 0.131326,5.51058 0.539887,11.03155 1.053705,16.41361 0.408153,4.275259 0.250756,8.84158 -0.07374,13.549934 -3.383081,1.389537 -6.861895,2.860447 -10.263658,4.348103 -1.875608,0.82024 -3.665364,1.535711 -5.393885,2.175536 m 14.106294,-6.206434 c -7.435121,2.731804 -14.285861,5.383491 -21.025617,7.958117 -5.444074,2.079668 -11.558443,4.456288 -17.493112,6.885976 -1.415592,-0.472363 -2.82096,-0.941707 -4.204569,-1.411342 -6.126476,-2.079495 -12.56706,-4.375023 -19.143043,-6.339234 m 28.897516,5.869868 c -1.883431,0.746765 -3.792485,1.464931 -5.719036,2.159811 -5.372894,-2.0807 -10.881883,-4.342516 -16.350716,-6.670198 l -10e-7,-10e-7 C 16.631588,50.631827 9.4122328,48.168971 1.9606304,45.096369 l -2.1e-6,-1e-6 C 1.2519462,44.80415 0.54808875,44.520032 -0.15138983,44.243145 c -0.0323985,-3.56761 0.0324971,-6.974569 0.14801205,-10.312048 M 11.563159,49.579126 C 8.0504231,48.251166 4.4084965,46.875175 0.73434638,45.47866 0.70412223,41.565857 0.6418207,37.632622 0.64375,33.706278 0.64678953,27.520483 0.49075871,21.303735 0.17437891,14.924933 1.6433446,14.270848 3.100494,13.604822 4.5458015,12.924231 6.5583939,11.976507 8.6601821,11.095694 10.810417,10.24564 M 5.5018663,12.383056 C 12.983128,9.7036009 20.261507,7.4395805 27.946174,5.7498722 c 4.219618,-0.9278115 8.226442,-2.6253839 12.2235,-4.5790553 3.28541,0.8582546 6.564221,1.5434853 9.949181,2.3409412 1.808656,0.4260978 3.578615,0.9894525 5.319226,1.6494933 M 41.217849,0.51606116 C 48.52829,3.1003214 55.565476,5.966016 62.437376,8.6868676 c 5.40895,2.1416134 11.370539,4.2059114 17.291728,6.1753744 0.05189,1.609863 0.100809,3.212761 0.134959,4.808345 0.01721,0.804128 0.03318,1.616988 0.0485,2.437475 M 75.503342,13.49529 c 1.55256,0.597119 3.096215,1.169251 4.633916,1.719387 0.02629,6.049981 -0.03143,11.78972 -0.01695,17.377725 0.0091,3.513492 -0.02515,7.384093 -0.09613,11.354747 -3.740037,1.487443 -7.517894,3.077918 -11.326639,4.502796 -5.784024,2.163843 -11.185643,4.381815 -16.575771,6.786863 m 25.722551,-9.942416 c -7.250069,2.777482 -14.24779,5.316749 -20.894606,7.764308 -5.080904,1.870942 -11.074293,4.12157 -17.13699,6.376512 -1.871896,-0.592326 -3.750399,-1.18424 -5.61069,-1.786792 -5.754181,-1.863789 -10.696186,-3.974491 -15.527248,-6.126463 m 24.947939,7.10131 c -1.397496,0.517076 -2.801943,1.031973 -4.2118,1.543272 -5.862696,-2.275016 -11.818929,-4.612238 -17.757858,-7.11363 l -2e-6,-10e-7 C 14.282791,49.948653 7.0352697,47.348927 -0.34461111,44.147529 c -0.18496466,-0.08024 -0.36971925,-0.159807 -0.55426819,-0.238728 -0.035603,-3.614226 -0.007537,-7.028193 0.0601828,-10.363887 M 8.1518778,48.60585 c -3.0949379,-1.202957 -6.1935431,-2.459472 -9.2930576,-3.790917 0.00219,-4.689475 0.00273,-9.514973 0.00837,-14.52877 0.00699,-6.221792 0.077166,-11.216293 0.22283216,-16.023042 C 1.2465156,13.772187 3.4153669,13.311979 5.5973889,12.813674 10.91256,11.599858 16.005538,9.3924728 21.17834,7.2285174 M 5.7123413,12.821523 C 13.147647,10.320745 20.214357,7.7541219 27.369208,5.8193595 31.499222,4.7025512 35.746324,3.0193612 40.039692,1.2282073 c 3.147666,0.9972945 6.320202,1.9365579 9.489697,2.9984385 3.808066,1.2758219 7.47249,2.6990811 11.077034,4.1819472 M 40.624551,1.0747835 c 7.356419,2.5696783 14.631012,5.4151119 22.063218,8.0708252 6.03064,2.1548983 11.900157,4.4675353 17.85934,6.8161133 0.01223,1.500553 0.02932,3.003057 0.05445,4.505972 0.02739,1.637905 0.03848,3.258289 0.03676,4.865697 M 74.699518,13.33355 c 1.610153,0.627357 3.229951,1.227153 4.85935,1.802737 0.06625,5.954448 0.251439,11.608944 0.553632,17.109569 0.196941,3.584788 0.134547,7.510777 -0.03431,11.500583 -3.752126,1.388433 -7.604673,2.837064 -11.417587,4.091771 -2.872109,0.945118 -5.604233,1.965628 -8.26661,3.033341 m 17.693627,-4.482068 c -7.347893,2.966835 -14.384752,5.521949 -21.319479,8.370314 -5.12276,2.104119 -10.587019,3.970226 -15.977321,5.740732 -1.909729,-0.801597 -3.810174,-1.615193 -5.68286,-2.434457 -5.374692,-2.351321 -10.901709,-4.223823 -16.419362,-6.126364 m 24.927108,6.208353 c -1.234894,0.469231 -2.483558,0.945062 -3.744327,1.427398 C 33.808209,57.375314 27.465086,55.325596 21.027256,53.41569 l -1e-6,-10e-7 C 13.247417,51.10765 6.5233829,47.546664 -0.6329226,44.004061 l -1.97e-6,-10e-7 c -0.0240181,-0.01189 -0.0480388,-0.02376 -0.0720621,-0.03561 0.1142394,-7.859404 0.0330187,-14.31151 0.0436259,-21.221504 M 10.948293,48.194226 C 7.5800348,46.910389 4.0984227,45.675349 0.57877423,44.504394 0.53497241,40.592297 0.44580777,36.756629 0.409375,33.017304 0.35603418,27.542597 0.15025719,21.408672 -0.30020731,15.431314 1.2797608,14.775609 2.8363638,14.134855 4.3668795,13.533123 10.465583,11.13538 18.12851,8.41825 25.353111,5.8390665 M 80,29.705074 v 8.042969 M 8.6254313,48.234537 1.906538,45.714952"
         inkscape:original-d="M 0,15 40,0 80,15 V 45 L 40,60 0,45 Z" />
      <path
         id="path4"
         style="fill:none;stroke:#000000;stroke-width:0.416667;stroke-dasharray:none"
         d="m 17.775862,35.263591 c -1.83011,-0.725886 -3.632647,-1.420816 -5.417287,-2.095404 2.35732,-5.400152 4.886776,-10.604639 7.299667,-15.93009 0.820947,-1.811899 1.661351,-3.618532 2.522781,-5.416701 2.488244,5.365218 5.151912,10.801063 8.028783,16.384652 0.483814,0.939013 0.938128,1.86329 1.367092,2.77524 -0.575298,1.480108 -1.217054,2.927902 -1.907648,4.353615 -1.052227,0.368617 -2.127471,0.726828 -3.220033,1.077942 M 24.955901,21.229641 c 1.761217,3.785536 3.444001,7.53007 5.132203,11.272893 -0.620281,1.443659 -1.239761,2.887065 -1.853661,4.332456 -1.031496,0.394328 -2.060192,0.789652 -3.08439,1.186768 -0.98069,0.0052 -1.957773,0.0118 -2.93003,0.02043 -1.10602,0.0098 -2.22783,0.0082 -3.363556,-0.0042 -2.134148,-0.824874 -4.324343,-1.693223 -6.555447,-2.600042 1.585139,-4.192525 3.020191,-8.526185 4.411526,-12.965804 1.120652,-3.575892 2.570326,-6.763978 4.160232,-9.786357 0.890705,1.905756 1.825422,3.863519 2.770956,5.834238 m -8.708398,17.438163 c -1.053925,-0.370222 -2.092622,-0.747728 -3.117861,-1.13172 2.704909,-6.105448 5.912194,-12.453026 9.218037,-18.860686 0.592845,-1.1491 1.142969,-2.282947 1.65796,-3.405368 2.828171,5.86116 4.596777,12.066916 6.562355,17.983537 0.05065,0.152469 0.102221,0.305155 0.154682,0.458056 -0.783085,1.422229 -1.4894,2.862931 -2.139625,4.31938 -1.057229,0.402163 -2.086309,0.812227 -3.094592,1.229224 -2.06584,0.04913 -4.055484,0.123665 -6.020504,0.216795 -1.290741,-0.462851 -2.569222,-0.916441 -3.853562,-1.363162 m 0.394232,0.431733 c -0.430349,-0.160528 -0.860228,-0.320973 -1.289678,-0.481343 2.924357,-6.695423 5.959715,-13.371507 8.940482,-20.062944 0.228106,-0.512069 0.455532,-1.025156 0.682291,-1.539269 2.732488,6.13987 5.368167,12.130768 7.930514,17.960315 -0.200279,0.405686 -0.400911,0.810595 -0.601888,1.214723 -0.473947,0.953016 -0.940749,1.92242 -1.402297,2.904674 -1.062218,0.361308 -2.119089,0.735695 -3.172553,1.119527 -2.152321,-0.01435 -4.292159,0.0059 -6.433121,0.0353 -2.141481,-0.768609 -4.284245,-1.526799 -6.444871,-2.305606 0.270114,-0.61985 0.538611,-1.241565 0.805041,-1.865989 m 8.92865,-18.377573 3.028587,6.814322 M 19.7924,17.9671 23.653888,9.2787516"
         sodipodi:nodetypes="ccccccc"
         inkscape:original-d="M 18.8,37 12.4,34.6 22,13 30.223352,31.502542 28.330631,35.826013 25.2,37 Z" />
      <path
         id="polygon6"
         style="opacity:0.3"
         d="m 22.086283,18.221646 c -0.989183,5.999561 -1.664565,12.097543 -2.366767,18.197989 -1.537369,-0.572988 -3.076752,-1.145792 -4.625163,-1.720386 -0.561036,-0.208192 -1.124201,-0.414806 -1.68938,-0.619761 2.938893,-6.461184 5.595702,-12.690073 8.162954,-18.55459 0.253181,-0.578355 0.514365,-1.170462 0.782702,-1.77464 -0.928559,6.14027 -1.368838,11.456586 -1.799696,16.896358 m 0.206154,-11.054319 c -0.749872,5.703673 -1.478041,11.445229 -2.166814,17.226684 -1.865022,-0.682086 -3.725197,-1.359264 -5.579762,-2.031446 -0.238499,-0.08644 -0.477537,-0.1733 -0.717102,-0.260555 3.155421,-6.75717 5.870124,-13.848128 8.510584,-20.885964 0.126761,-0.337867 0.256007,-0.674989 0.387608,-1.011418 -1.264983,7.086165 -1.570441,14.454647 -1.972618,21.686412 m 2.635748,-20.451569 c -0.988335,7.35271 -2.40575,14.735399 -4.258465,22.028562 -0.330865,-0.114655 -0.662504,-0.229468 -0.994916,-0.34445 -2.076848,-0.718382 -4.003699,-1.403116 -5.826241,-2.059598 2.409875,-5.214559 5.733721,-10.181571 8.786559,-15.040989 1.084533,-1.726328 2.02213,-3.558847 2.864876,-5.463642 -0.431105,3.252512 -1.105755,6.319446 -1.80965,9.340346 m -0.795237,7.012899 -1.120294,8.402205 m -3.461492,-9.529483 3.109497,-6.99637"
         inkscape:original-d="M 22,13 18.8,37 12.4,34.6 Z" />
      <path
         id="polygon7"
         style="opacity:0.2"
         d="m 22.603456,14.184782 c 2.81893,6.380175 5.749616,13.115584 8.53637,19.747718 -0.569857,0.215811 -1.14071,0.430908 -1.712706,0.645025 -1.610198,0.602751 -3.198317,1.215323 -4.769456,1.839387 -0.794847,-5.920686 -1.366386,-11.690252 -1.957721,-17.229058 -0.104937,-0.982909 -0.21888,-1.995956 -0.339656,-3.033913 m 1.319139,12.209216 C 22.838671,23.017512 22.218554,18.06382 21.618838,13.281118 c 1.078086,2.520694 2.161003,5.081883 3.225675,7.6581 2.231566,5.399781 4.29942,9.991269 6.295234,14.514746 -2.206202,0.650098 -4.425546,1.287787 -6.65089,1.970757 -0.02851,-0.172242 -0.05704,-0.344246 -0.08561,-0.515989 -0.83955,-5.047493 -1.344942,-9.78031 -1.746463,-14.475306 m 0.55629,-5.463489 c 2.651106,5.895694 5.181045,11.792068 7.616903,17.614578 -1.238993,0.427739 -2.481647,0.852605 -3.727752,1.274025 -0.970564,0.328235 -1.933104,0.663667 -2.889396,1.005195 -1.047086,-6.780179 -1.805511,-13.278761 -2.832363,-19.841486 -0.195463,-1.249219 -0.380195,-2.502353 -0.556227,-3.756967 0.256794,0.596084 0.51572,1.191805 0.776532,1.787458 m 1.850358,11.281724 c -0.665108,-4.549796 -1.144137,-8.886159 -1.510893,-13.145113 1.516143,3.151819 3.095042,6.346906 4.705855,9.528419 2.205203,4.355491 4.020818,8.426697 5.812707,12.414862 -2.162022,0.713642 -4.329984,1.40649 -6.458046,2.103761 C 25.877889,36.255829 25.761907,35.276027 25.656089,34.298794 25.20178,30.103207 24.531176,26.158002 23.71167,22.325709 m -1.551817,-6.650085 c 3.05089,6.543174 6.100738,12.863848 9.572085,19.090828 -0.572186,0.2103 -1.140622,0.419766 -1.704953,0.628507 -1.354356,0.500963 -2.77953,1.020551 -4.255999,1.550633 C 25.068388,30.6974 23.610946,24.603644 22.50072,18.205397 22.158575,16.233616 21.847116,14.32627 21.549994,12.467893 c 2.173134,5.276629 4.474603,10.991585 6.466586,16.730623 m 1.210625,6.291282 -6.993209,2.622453 M 23.395773,23.468297 22.467529,16.50647"
         inkscape:original-d="M 22,13 31.6,34.6 25.2,37 Z" />
      <path
         id="path7"
         style="fill:none;stroke:#000000;stroke-width:0.416667;stroke-dasharray:none"
         d="m 64.956312,41.247307 c -1.445783,0.552328 -2.902944,1.096747 -4.368294,1.633307 -2.655656,-0.02609 -5.334881,-0.0748 -8.022115,-0.145901 -1.04905,-0.419807 -2.099491,-0.843501 -3.150197,-1.271066 -0.959243,-2.238376 -1.919675,-4.494118 -2.87059,-6.767067 0.0283,-0.06798 0.0566,-0.135983 0.08492,-0.203998 3.116717,-7.486734 6.372364,-14.326949 9.645314,-21.647268 l 0,-2e-6 c 0.128316,-0.286992 0.25653,-0.573269 0.384664,-0.858871 1.383588,2.933702 2.757844,5.946235 4.14976,8.988725 m -8.054765,-0.59664 c 1.326298,-3.136235 2.709447,-6.256985 4.112675,-9.367799 1.785663,3.997753 3.603841,8.011597 5.378763,12.030099 2.240543,5.072693 4.50535,10.226277 6.811636,15.534947 -2.106121,0.920515 -4.205087,1.867781 -6.295666,2.847111 -0.518151,0.242727 -1.037293,0.479655 -1.557236,0.711485 -2.620869,0.156546 -5.259574,0.199812 -7.896499,0.20341 -0.514935,-0.194677 -1.029793,-0.391083 -1.544395,-0.588547 m 11.310269,-0.562147 c -0.74334,0.279049 -1.48151,0.559997 -2.214672,0.842924 -2.650652,0.02104 -5.243958,0.06473 -7.78614,0.134157 -0.988606,-0.361249 -1.968334,-0.71803 -2.939635,-1.070119 -0.791038,-2.078495 -1.544261,-4.135941 -2.263949,-6.170223 0.426149,-0.735524 0.856717,-1.467996 1.291499,-2.197315 3.713703,-6.229494 5.992852,-13.223974 8.818885,-19.812202 0.185435,0.443 0.373224,0.887749 0.563929,1.334578 2.314427,5.422813 4.627853,10.69149 6.860808,15.991019 m -10.838879,-9.70197 c 1.23882,-2.723223 2.387767,-5.372515 3.474645,-7.982264 1.838162,4.515419 3.49879,9.143944 5.11638,13.719238 1.643278,4.647948 3.80538,9.133257 6.029306,13.59087 -2.517302,0.944119 -5.014722,1.879331 -7.575602,2.830244 -0.03043,0.0113 -0.06086,0.0226 -0.0913,0.0339 -2.596686,-0.03523 -5.216337,-0.06466 -7.833948,-0.100569 -1.020037,-0.405145 -2.039721,-0.811416 -3.05724,-1.219704 -0.888944,-2.19754 -1.768179,-4.404128 -2.620503,-6.628223 0.09788,-0.208308 0.196005,-0.416771 0.294378,-0.625396 m 15.689632,5.661092 c -1.122416,0.434935 -2.250231,0.867727 -3.382225,1.298976 -2.651299,0.009 -5.322681,0.01066 -8.001299,0.01118 -1.045459,-0.389962 -2.092176,-0.780114 -3.139219,-1.170001 -0.951486,-2.158559 -1.904439,-4.315922 -2.850022,-6.467744 0.171618,-0.388068 0.343478,-0.775955 0.515632,-1.163634 3.121769,-7.030023 6.650031,-14.053347 10.543861,-20.980114 0.02547,0.04707 0.05095,0.09413 0.07645,0.141208 2.573814,4.751353 4.375086,9.343621 6.048651,13.889529 M 53.112276,20.759801 c 1.198111,-2.970505 2.525922,-5.914219 3.932007,-8.855968 2.011899,4.154374 4.184052,8.312773 6.365811,12.402472 2.513799,4.712106 4.462423,9.762291 6.359231,15.006498 -2.461844,1.082006 -4.935385,2.207809 -7.365566,3.361959 -0.332618,0.157968 -0.664013,0.31231 -0.994252,0.463244 -2.738176,0.237538 -5.406447,0.268949 -8.036579,0.197152 -1.025255,-0.420099 -2.043888,-0.85812 -3.058196,-1.306616 -0.705648,-1.826001 -1.398879,-3.682079 -2.090878,-5.531999 m 3.157997,7.794884 -3.67027,-8.452364 m 3.837999,-11.575619 3.694909,-8.313543"
         sodipodi:nodetypes="ccccccc"
         inkscape:original-d="m 69,39 -8,3 H 53 L 49.878561,40.82946 47.065816,34.351914 57,12 Z" />
      <path
         id="polygon17"
         style="opacity:0.3"
         transform="translate(57,27)"
         d="M -5.1789792,14.129556 C -7.2732961,13.42858 -9.3713474,12.68413 -11.480876,11.91345 -9.3408681,6.8254955 -7.274473,1.5693131 -5.4074629,-3.5750054 c 1.4320924,-3.9459558 3.3029109,-7.9030636 5.3349972,-11.9046056 -0.22061641,3.394164 -0.33299232,6.7585042 -0.48969475,10.0747206 -0.0508503,1.07612 -0.13967794,2.1720423 -0.26010016,3.2845435 M -0.60296793,-13.194883 C -1.8507715,-5.6219456 -2.5919246,1.9129609 -3.4789328,9.0115271 -3.7138511,10.891536 -3.969316,12.861554 -4.2376442,14.887644 -6.8990569,13.86709 -9.5850797,12.953815 -12.27538,12.058011 c 1.142106,-2.5183103 2.279865,-5.0188683 3.4341022,-7.5936517 2.8056541,-6.2586363 5.5961437,-12.7332581 8.30939116,-19.1365653 -0.0668991,0.441915 -0.13411593,0.884123 -0.20166688,1.326701 M -4.5998487,15.154272 C -7.058095,14.262466 -9.481687,13.349275 -11.866365,12.426474 -9.6136166,7.7400032 -7.2133938,3.0171152 -4.6342696,-1.6553152 -2.2677408,-5.9426005 -0.55642797,-10.263785 1.0004296,-14.599335 0.36305073,-11.580043 -0.33965992,-8.5668274 -0.96994556,-5.5543145 -2.3732326,1.1528353 -2.6899052,7.9371419 -3.0734109,14.659771 m 3.07088768,-28.728035 c 0.21409609,-0.487763 0.42730972,-0.976528 0.63959584,-1.466286 -1.02036063,7.1553282 -2.21108402,14.128214 -3.68431842,20.9381123 -0.5795652,2.67899 -1.0298716,5.4669417 -1.4326894,8.3065017 -2.693043,-0.983735 -5.3386067,-1.915871 -8.0184378,-2.85375 0.835756,-1.8566951 1.653208,-3.7164574 2.420441,-5.6016711 0.5600434,-1.3761135 1.155362,-2.745487 1.7793613,-4.1068188 M -4.0151964,15.245991 C -6.582085,14.265199 -9.1048031,13.339457 -11.599937,12.456189 -9.4863252,7.9303047 -7.2745046,3.5556449 -5.0759017,-0.75226803 -3.0131548,-4.7939867 -1.1312949,-9.3160343 0.70933415,-13.961277 0.25110452,-11.15964 -0.2235645,-8.4071236 -0.67951245,-5.6138129 -1.4646006,-0.80406411 -2.2230386,4.5523551 -3.0912831,10.016275 m 3.50319408,-23.643863 c 0.0945668,-0.222729 0.1895006,-0.446175 0.28477938,-0.67032 -1.18635202,7.5963874 -2.06105486,14.56165583 -3.22525196,21.3957141 -0.3967817,2.3291834 -0.7556572,4.8168949 -1.0954736,7.3938389 -2.6676655,-0.961055 -5.3118226,-1.812046 -7.9582888,-2.647899 0.977459,-2.025201 1.953325,-4.0399597 2.9128067,-6.0986602 2.62387,-5.62987565 5.1399943,-11.7265943 7.5471668,-17.7017168 m -4.3045673,9.1671961 3.3379505,-7.5103891 m -0.1898061,0.4270642 3.6568326,-8.2278732"
         inkscape:original-d="M -4,15 -12,12 0,-15 Z" />
      <path
         id="polygon18"
         style="opacity:0.2"
         transform="translate(57,27)"
         d="m 1.8303831,-10.587945 c 3.2679394,7.004481 6.6165282,14.0805874 10.3911109,20.932009 0.3345,0.607167 0.656758,1.217705 0.968067,1.831082 -2.536475,0.933012 -5.2600443,1.914533 -8.0794132,2.906872 C 4.3222852,10.866998 3.3220097,6.6759655 2.4107426,2.3844755 1.9667424,0.29351668 1.6293225,-1.7601112 1.3622662,-3.7853764 M 3.6522194,12.153438 C 2.5958741,4.2871144 1.8991992,-3.2633032 1.4822582,-10.971345 1.4168162,-12.181179 1.3176473,-13.39162 1.1918837,-14.602702 4.0459725,-8.6185813 6.1320429,-2.6529193 8.5569732,3.2895178 9.4120697,5.3849832 10.33015,7.4899327 11.289148,9.5997523 M 1.4532504,-12.785164 C 4.6479058,-5.5185683 7.4583303,1.5010808 10.000705,8.7527586 10.42869,9.9735108 10.89405,11.194545 11.387994,12.41799 8.6395224,13.477809 6.0264102,14.549044 3.4580705,15.653631 3.1045183,12.197347 2.8233418,8.7949758 2.4283595,5.4916024 2.286485,4.3050567 2.1379602,3.078187 1.9852686,1.8195394 M 3.3430869,14.187169 C 2.3137555,6.4309579 1.5766181,-1.3088034 1.1355909,-9.1877559 1.0267696,-11.131847 0.83024915,-13.065586 0.57260241,-14.99692 2.9397861,-9.7336636 4.7366617,-4.4479674 6.7205221,0.63367481 8.0712208,4.0934784 9.7091172,7.8311057 11.421891,11.701438 10.381481,12.165702 9.3471793,12.64079 8.3140386,13.123323 M -0.14857462,-12.597131 C 2.8116306,-5.2890959 6.396923,1.5276511 10.017932,8.4594884 10.784567,9.9270873 11.515602,11.390768 12.224185,12.845722 9.6268696,13.760637 6.9623388,14.64943 4.2987058,15.4872 3.8682068,12.04517 3.4389013,8.5353078 3.115197,4.9194462 2.4444107,-2.573411 1.2402926,-8.6591766 0.03463637,-15.058441 c 0.23410526,0.625337 0.46819656,1.247829 0.70273371,1.865987 M 9.3639016,6.0687785 12.758965,13.707672 M 2.1444262,1.0831964 1.1728163,-6.2038775"
         inkscape:original-d="M 0,-15 12,12 4,15 Z" />
      <path
         id="path18"
         style="fill:none;stroke:#000000;stroke-width:0.416667;stroke-dasharray:none"
         d="m 42.403956,50.072084 c -2.999407,0.06345 -6.027824,0.04971 -9.063903,-0.01129 -3.189967,-1.268455 -6.389585,-2.596428 -9.56867,-3.941579 0.540811,-1.254475 1.084646,-2.511481 1.633214,-3.768624 l 0,-2e-6 C 28.657043,34.89702 31.57973,28.120611 34.44991,20.984577 l 10e-7,-2e-6 c 1.007074,-2.503856 2.106103,-4.942949 3.260111,-7.321266 1.269143,2.869648 2.604783,5.812804 3.957739,8.824166 M 29.71534,31.132336 c 2.323483,-5.431886 4.899462,-11.08867 7.454972,-16.738276 0.711558,1.521546 1.42153,3.043648 2.124022,4.571316 l 0,2e-6 c 3.226825,7.017187 6.205026,14.103235 9.145314,20.991017 0.88748,2.078969 1.819458,4.188398 2.777969,6.310231 -3.192633,1.165889 -6.329036,2.358067 -9.464641,3.520829 -1.924269,-0.02137 -3.848274,-0.05243 -5.782492,-0.103698 m 4.7648,1.122785 c -2.726384,0.08123 -5.490968,0.07144 -8.268766,0.002 -3.185284,-1.285083 -6.390399,-2.6597 -9.569409,-4.066194 0.646057,-1.526653 1.297602,-3.060007 1.959063,-4.594505 l 0,-2e-6 c 3.283082,-7.616294 6.36627,-14.178655 9.614063,-21.203516 l 10e-7,-2e-6 c 1.033001,-2.234345 2.065894,-4.465408 3.107089,-6.685589 1.623809,3.588596 3.267811,7.203663 4.96391,10.874036 m -11.337381,4.75595 c 2.616003,-5.352419 4.95066,-10.815286 7.359064,-16.232864 0.737795,1.672372 1.48251,3.348995 2.244354,5.034345 3.250149,7.189969 6.173545,14.385785 9.045314,21.841018 l 10e-7,2e-6 c 0.818842,2.125748 1.661265,4.164486 2.507358,6.140229 -3.284151,1.121664 -6.559585,2.093727 -9.899168,3.00408 -0.611181,-0.04977 -1.224256,-0.101354 -1.839594,-0.154318 m 3.156012,0.847815 c -3.169632,0.08418 -6.353674,0.02025 -9.560036,-0.149945 -3.256305,-1.3844 -6.538811,-2.893548 -9.857579,-4.474241 0.446573,-1.232755 0.888658,-2.474366 1.325815,-3.722517 l 1e-6,-1e-6 c 2.827655,-8.073388 6.228245,-14.060273 9.214063,-20.866017 l 0,-1e-6 c 1.089637,-2.483672 2.207802,-5.025753 3.329658,-7.581982 0.559412,1.312094 1.119743,2.620671 1.677911,3.931217 m -8.60397,13.112915 c 2.297639,-5.676382 4.842897,-11.072459 7.388983,-16.545018 0.757089,1.629364 1.514251,3.251966 2.264997,4.858424 3.276907,7.011977 6.089634,14.185651 8.789064,21.241018 l 0,2e-6 c 0.784012,2.049133 1.657081,4.102526 2.585178,6.156312 -1.781982,0.662764 -3.524508,1.325809 -5.248241,1.986789 m -2.54685,-15.389341 c 2.355107,5.030292 4.675012,9.935246 7.195084,14.844148 -2.075046,0.817482 -4.111701,1.63572 -6.090196,2.465575 -0.877201,0.367931 -1.786895,0.731298 -2.723302,1.090065 -3.05809,-0.03001 -6.364391,-0.102755 -9.755255,-0.219256 -3.403843,-1.324422 -6.90414,-2.698751 -10.301536,-4.124221 0.03845,-0.10814 0.07701,-0.216333 0.115681,-0.32458 0.963511,-2.69693 2.015738,-5.249977 3.099636,-7.728637 m 7.327809,-14.588973 3.209446,-7.221253 m -1.863836,4.193632 3.723464,-8.377796"
         inkscape:original-d="M 42.8,50 H 33.2 L 23.6,46.4 38,14 52.4,46.4 Z" />
      <path
         id="path19"
         style="opacity:0.3;fill:none;stroke-width:0.416667;stroke-dasharray:none"
         d="m 24.65515,44.726135 c 2.934789,-7.037863 5.997193,-14.220055 8.522789,-21.356967 1.053214,-2.976207 2.394415,-5.966236 3.886838,-8.976513 -0.353657,4.429277 -0.411334,8.818927 -0.547521,13.15136 -0.217211,6.910021 -2.062587,14.314901 -3.619769,21.53068 m 5.431418,-32.079564 c -0.996532,7.62936 -2.307118,15.449926 -3.838788,23.243838 -0.691515,3.518777 -1.158473,6.927119 -1.539396,10.249259 -3.119215,-1.352923 -6.156865,-2.787571 -9.240821,-4.281575 0.374162,-0.85005 0.745458,-1.703774 1.11192,-2.560827 1.444585,-3.378481 2.867059,-6.4524 4.313529,-9.398489 m -2.497343,5.507174 c 3.13256,-7.210215 6.321483,-13.993836 9.497535,-20.681745 0.739871,-1.557967 1.458001,-3.172148 2.155144,-4.826789 -0.915111,5.915492 -2.058012,11.391835 -3.401741,16.992411 -0.791704,3.299773 -1.231471,6.773543 -1.518717,10.306762 m 3.31851,-19.495405 c -1.272778,7.45283 -2.021283,15.653512 -2.982183,23.837815 -0.182747,1.556524 -0.359503,3.068901 -0.528831,4.546956 -3.139704,-1.171223 -6.239725,-2.525818 -9.282338,-3.942473 1.303033,-2.815917 2.646879,-5.675953 4.042165,-8.507389 1.384456,-2.809461 2.60145,-5.450092 3.742067,-8.001033 M 23.828689,43.64678 c 2.964215,-6.971586 6.372437,-14.508271 9.647752,-22.200803 1.2929,-3.036557 2.590894,-5.852023 3.914991,-8.55475 -0.503119,4.823568 -0.944782,9.912567 -1.249089,14.875575 -0.343811,5.607284 -1.32478,10.640436 -2.435824,15.571067 m 4.765113,-25.655688 c -0.977614,7.856096 -2.064225,15.612684 -3.120062,23.731046 -0.394443,3.032884 -0.808469,5.913201 -1.245978,8.705153 -3.263132,-1.302341 -6.558779,-2.727034 -9.893296,-4.169481 0.533947,-1.433576 1.060841,-2.870374 1.580192,-4.302309 1.771168,-4.883403 3.786121,-9.332792 5.744436,-13.770249 m -4.252032,10.232651 3.951918,-8.891815 m 3.972009,-8.93702 3.980475,-8.956067"
         inkscape:original-d="M 23.6,46.4 38,14 33.2,50 Z" />
      <path
         id="path20"
         style="opacity:0.2;fill:none;stroke-width:0.416667;stroke-dasharray:none"
         d="m 41.095207,44.667183 c -1.15607,-7.453034 -1.681608,-15.891917 -1.957333,-24.544065 -0.08445,-2.650026 -0.311495,-5.113839 -0.616526,-7.473111 2.21369,4.933808 4.026817,10.404561 6.191428,15.461551 2.575934,6.01793 4.951322,11.873072 7.066269,17.870704 -0.213392,0.07819 -0.427064,0.15653 -0.641018,0.235036 M 40.56549,19.681658 c 2.984744,7.268401 6.069043,13.966749 8.728975,20.60042 0.751832,1.875012 1.582231,3.856493 2.457719,5.91242 -3.226411,1.274448 -6.343759,2.728967 -9.477985,4.243086 -0.244211,-1.944971 -0.495181,-3.866075 -0.784825,-5.793841 -0.302361,-2.0124 -0.608543,-4.198314 -0.919257,-6.501087 m 1.752189,7.271178 c -1.229011,-7.658098 -1.891897,-15.022068 -2.594739,-21.950051 -0.279542,-2.755471 -0.669142,-5.77529 -1.107795,-8.912546 1.857582,4.172317 3.602524,8.074969 5.447099,12.219145 0.598132,1.343813 1.211419,2.697601 1.837574,4.056246 M 40.316134,17.860951 c 2.895562,7.15239 6.313352,14.441446 9.46659,22.01307 1.03717,2.490472 2.065721,4.892321 3.08528,7.255782 -3.225408,1.235652 -6.466878,2.402735 -9.725305,3.621168 -0.269114,-1.777452 -0.542948,-3.540612 -0.821632,-5.271873 -0.898403,-5.581122 -1.44329,-11.51413 -1.849087,-17.497315 m 2.268174,22.512637 c -1.152273,-7.806088 -2.102839,-15.477492 -3.213588,-23.31861 -0.609764,-4.304518 -1.104959,-8.478913 -1.52654,-12.588931 1.542664,3.306417 3.135113,6.656372 4.754568,10.0133 0.650583,1.34858 1.280771,2.660291 1.898292,3.941107 M 38.316739,14.316241 c 3.253272,7.065155 6.482188,14.532114 9.978629,22.281932 1.684643,3.733988 3.218904,7.106455 4.715499,10.332579 -3.222572,1.020371 -6.476498,1.918923 -9.676173,2.859077 -0.08113,-0.655641 -0.160513,-1.309937 -0.237642,-1.961941 -0.300622,-2.54126 -0.588167,-4.941373 -0.858425,-7.248139 M 38.76955,19.771628 37.68333,11.624974 m 1.69406,5.474153 3.661592,8.238583"
         inkscape:original-d="M 42.8,50 38,14 52.4,46.4 Z" />
    </g>
  </g>
</svg>
