<?xml version="1.0" encoding="UTF-8" standalone="no"?>
<svg
   height="120"
   width="160"
   version="1.1"
   id="svg7"
   sodipodi:docname="tile-hill.svg"
   inkscape:version="1.3.2 (091e20ef0f, 2023-11-25, custom)"
   xmlns:inkscape="http://www.inkscape.org/namespaces/inkscape"
   xmlns:sodipodi="http://sodipodi.sourceforge.net/DTD/sodipodi-0.dtd"
   xmlns="http://www.w3.org/2000/svg"
   xmlns:svg="http://www.w3.org/2000/svg">
  <defs
     id="defs7">
    <inkscape:path-effect
       effect="sketch"
       id="path-effect14"
       is_visible="true"
       lpeversion="1"
       nbiter_approxstrokes="3"
       parallel_offset="0.2;1"
       strokelength="70"
       strokelength_rdm="0.3;1"
       strokeoverlap="0.5"
       strokeoverlap_rdm="0.5;1"
       ends_tolerance="0.1;1"
       tremble_size="0.8;1"
       tremble_frequency="3"
       nbtangents="2"
       tgt_places_rdmness="0.5;1"
       tgtlength="5"
       tgtlength_rdm="0.3;1"
       tgtscale="10" />
    <inkscape:path-effect
       effect="sketch"
       id="path-effect1"
       is_visible="true"
       lpeversion="1"
       nbiter_approxstrokes="3"
       parallel_offset="2;1"
       strokelength="70"
       strokelength_rdm="0.3;1"
       strokeoverlap="0.4"
       strokeoverlap_rdm="0.5;1"
       ends_tolerance="0.1;1"
       tremble_size="0.3;2139095038"
       tremble_frequency="3"
       nbtangents="2"
       tgt_places_rdmness="0.5;1"
       tgtlength="5"
       tgtlength_rdm="0.3;1"
       tgtscale="10" />
  </defs>
  <sodipodi:namedview
     id="namedview7"
     pagecolor="#ffffff"
     bordercolor="#000000"
     borderopacity="0.25"
     inkscape:showpageshadow="2"
     inkscape:pageopacity="0.0"
     inkscape:pagecheckerboard="0"
     inkscape:deskcolor="#d1d1d1"
     inkscape:zoom="1.4672466"
     inkscape:cx="80.422746"
     inkscape:cy="115.86328"
     inkscape:window-width="1440"
     inkscape:window-height="831"
     inkscape:window-x="0"
     inkscape:window-y="0"
     inkscape:window-maximized="1"
     inkscape:current-layer="svg7" />
  <!-- Draw the shadow. -->
  <!-- Draw the tile background. -->
  <!-- Draw the tile foreground. -->
  <g
     id="g7"
     transform="matrix(1.9025869,0,0,1.9025869,3.8965222,2.9223917)"
     style="stroke:none;stroke-width:0.52560017;stroke-dasharray:none">
    <polygon
       fill="#66aa66"
       points="80,15 80,45 40,60 0,45 0,15 40,0 "
       stroke="#000000"
       stroke-width="1"
       id="polygon2"
       style="stroke:none;stroke-width:0.52560017;stroke-dasharray:none" />
    <polygon
       fill="#000000"
       opacity="0.3"
       points="40,0 80,15 40,10 "
       id="polygon3"
       style="stroke:none;stroke-width:0.52560017;stroke-dasharray:none" />
    <polygon
       fill="#000000"
       opacity="0.15"
       points="80,15 80,45 40,10 "
       id="polygon4"
       style="stroke:none;stroke-width:0.52560017;stroke-dasharray:none" />
    <polygon
       fill="#000000"
       opacity="0.15"
       points="40,60 0,45 40,10 "
       id="polygon5"
       style="stroke:none;stroke-width:0.52560017;stroke-dasharray:none" />
    <polygon
       fill="#000000"
       opacity="0.3"
       points="0,45 0,15 40,10 "
       id="polygon6"
       style="stroke:none;stroke-width:0.52560017;stroke-dasharray:none" />
    <polygon
       fill="#000000"
       opacity="0.45"
       points="0,15 40,0 40,10 "
       id="polygon7"
       style="stroke:none;stroke-width:0.52560017;stroke-dasharray:none" />
  </g>
  <path
     id="path2"
     style="fill:none;stroke:#000000;stroke-width:1.26144043;stroke-dasharray:none"
     d="M 8.5375649,38.390034 C 15.881825,35.717176 23.231915,32.957052 30.783612,30.275591 38.338545,27.592981 45.305605,24.85561 52.50004,22.209274 l 2e-6,-1e-6 c 2.973599,-1.093781 5.971154,-2.228084 8.97418,-3.384987 m -13.291758,2.116761 c 7.314512,-2.753246 14.54971,-5.541133 21.807804,-8.433089 7.261205,-2.8931951 14.529725,-5.4937795 21.739866,-8.2889727 l 2e-6,-9e-7 c 1.104327,-0.4281201 2.209911,-0.853536 3.31598,-1.2769494 m -11.16484,6.5881523 c 5.377853,-2.067344 10.770585,-4.0759235 16.171674,-6.1078871 1.90591,0.7070106 3.81285,1.4111095 5.72056,2.1086869 7.31701,2.6755692 14.54752,5.3609619 21.79377,7.8928799 l 0,0 c 1.72126,0.601427 3.44052,1.230983 5.15627,1.880647 m -9.78406,-3.176694 c 7.27151,2.665906 14.41,5.508977 21.39536,8.339451 6.98835,2.831687 14.58504,5.497988 21.90392,8.305379 l 1e-5,1e-6 c 6.24134,2.394066 12.42478,4.609673 18.6207,6.788213 M 160.02769,24.00502 c 7.29894,2.665128 14.57696,5.510592 21.89454,8.341796 4.44231,1.718749 8.86313,3.342116 13.28752,4.93907 0.003,3.01909 0.008,6.027091 0.0215,9.042766 0.0183,4.167769 -0.0405,8.402925 -0.16098,12.652838 m 1.05539,-17.491127 c -0.0935,7.684086 0.0364,15.634588 0.11262,23.576574 l 0,3e-6 c 0.0762,7.945389 -0.009,15.496847 -0.0234,23.155203 l 0,3e-6 c -0.004,2.276857 -0.003,4.574999 0.004,6.885103 m 0.0987,-10.365339 c -9e-4,7.824276 -0.13686,15.47632 -0.41484,23.10764 -0.0477,1.30907 -0.0785,2.62685 -0.0967,3.95116 -6.1218,2.21773 -11.94876,4.5879 -17.95798,6.86356 -1.74832,0.66208 -3.49242,1.3241 -5.23106,1.98675 m 12.26226,-6.97637 c -7.22959,2.79223 -14.61291,5.55295 -22.0001,8.4635 l 0,0 c -7.39036,2.91181 -14.65465,5.38286 -22.1219,7.95382 -0.80243,0.27628 -1.59947,0.55618 -2.39182,0.8391 m 7.10782,-4.34519 c -7.34641,2.75554 -14.47872,5.49598 -21.59682,8.30183 l 0,0 c -7.12115,2.80705 -14.58119,5.53203 -21.89221,8.40382 l -1e-5,0 c -1.17496,0.46153 -2.350279,0.9137 -3.526301,1.35825 -4.421101,-1.62869 -8.852084,-3.36507 -13.310827,-5.11695 m 22.656528,3.02713 c -2.5652,0.99642 -5.13754,1.9789 -7.70392,2.95576 -4.621129,-1.75119 -9.222945,-3.52058 -13.729047,-5.25949 l -2e-6,0 c -7.011609,-2.70579 -14.672893,-5.45776 -22.171113,-8.1835 l -3e-6,0 c -5.471643,-1.98904 -10.705919,-4.01844 -15.953758,-6.08152 m 18.737964,6.97636 c -7.250499,-2.72824 -14.44655,-5.47447 -21.500855,-8.2339 l -3e-6,0 c -7.057328,-2.76061 -14.636477,-5.63766 -22.063303,-8.71553 -3.461298,-1.43446 -6.876082,-2.67685 -10.28764,-3.8327 m 15.358147,5.8996 C 21.152553,115.28817 13.923698,112.57962 6.6311311,109.75748 5.3363953,109.25643 4.0411996,108.75912 2.7453278,108.26401 2.7292597,101.81805 2.698668,95.419507 2.632041,88.916528 2.5752098,83.369655 2.5760329,78.00685 2.5501366,72.695788 M 3.3202831,97.48537 C 3.2899492,89.655534 3.4016285,81.887895 3.5640722,74.019139 3.7265855,66.147011 3.5025199,58.542392 3.3765722,50.924871 l 0,-3e-6 c -0.058327,-3.527691 -0.089629,-7.1166 -0.131403,-10.718717 0.3246544,-0.123293 0.6492094,-0.246712 0.9736301,-0.370211 m -0.948486,15.601696 c -0.00468,-5.319234 0.089776,-10.645929 0.2770145,-15.983511 2.386902,-0.87187 4.7936084,-1.746064 7.2194922,-2.62292 l 0,-10e-7 c 7.67983,-2.775939 14.376118,-5.397129 21.28518,-8.000692 1.422558,-0.536067 2.883235,-1.087079 4.372235,-1.649738 m -26.295976,6.884753 c 7.341814,-2.647948 14.568272,-5.476164 21.868706,-8.234006 l 1e-6,0 c 7.303564,-2.759024 14.633355,-5.374829 22.051583,-7.930379 l 3e-6,-1e-6 c 2.75314,-0.948446 5.45091,-1.95279 8.114384,-2.985962 M 48.69953,21.586208 c 7.319249,-2.680518 14.619281,-5.275359 22.021079,-7.640995 7.40497,-2.366649 14.47471,-5.4748596 21.573459,-8.2327227 l 3e-6,-1e-6 c 2.542144,-0.9876228 5.148795,-1.9786555 7.794599,-2.9768148 2.9014,1.0503492 5.84989,2.0921284 8.81202,3.1204362 m -22.030689,-0.2525 c 4.056635,-1.4936954 8.128894,-2.9834462 12.23083,-4.4497657 3.287269,1.253727 6.593589,2.5225023 9.926199,3.8163553 7.49435,2.9096037 14.5427,5.3459177 21.77737,7.8483477 l 0,1e-6 c 6.65278,2.301158 13.33191,4.992081 19.92697,7.537921 m -24.09254,-8.701751 c 7.26549,2.661059 14.64773,5.310216 22.10553,7.744145 l 0,1e-6 c 7.46099,2.434973 14.59879,5.524071 21.94611,8.378035 6.91136,2.68462 13.60955,5.207669 20.25739,7.877916 M 168.62121,25.432801 c 7.36036,2.714959 14.38675,5.438215 21.32727,8.126106 2.3764,0.920319 4.84176,1.86046 7.3552,2.815353 0.0404,5.154732 0.25831,10.363953 0.36352,15.591669 0.0745,3.704122 0.0814,7.340878 0.0691,10.961824 m -3.01665,-12.993658 c 0.0544,7.796204 -0.1841,15.468502 -0.55085,23.086587 -0.3669,7.62135 0.0485,15.58943 0.14766,23.431767 l 0,4e-6 c 0.065,5.142957 0.0263,10.215897 -0.031,15.272207 -0.36351,0.13136 -0.72711,0.26263 -1.09079,0.39383 m 2.27257,-22.960869 c 6.5e-4,6.630366 -0.0174,13.219539 -0.0516,19.722209 -1.05821,0.36969 -2.11688,0.7369 -3.176,1.10143 -7.32883,2.52243 -14.60657,5.58951 -21.97424,8.57725 l 0,1e-5 c -6.15343,2.49534 -12.09415,4.65312 -17.97289,6.92222 m 23.95219,-6.31272 c -7.36054,2.82803 -14.58971,5.46585 -21.93196,8.21268 l 0,10e-6 c -7.3454,2.748 -14.54399,5.44813 -21.78205,8.14834 l -1e-5,0 c -6.80858,2.53999 -13.62487,5.19503 -20.33923,7.88695 m 24.96872,-11.35368 c -7.3129,2.7315 -14.48041,5.64149 -21.59921,8.73312 -4.56801,1.98384 -9.29764,3.64868 -14.06201,5.2822 -2.663632,-1.04535 -5.338125,-2.10049 -8.001301,-3.11516 -6.254974,-2.38313 -12.265516,-4.5923 -18.288632,-6.80351 m 19.239786,8.06569 c -7.362846,-2.743 -14.549149,-5.41457 -21.812429,-8.05576 l -10e-7,0 c -7.266393,-2.64232 -14.541079,-5.50052 -21.77502,-8.31007 l -3e-6,0 c -7.109885,-2.76136 -14.325624,-5.42261 -21.506953,-8.20642 m 25.867141,9.05989 c -7.357529,-2.65715 -14.71334,-5.29503 -22.297592,-7.69259 l -10e-7,0 c -7.587504,-2.39859 -14.531566,-5.6213 -21.744555,-8.66866 -3.0970918,-1.30847 -6.1942404,-2.49523 -9.274684,-3.63505 0.028351,-2.01528 0.062907,-4.01313 0.1074611,-6.01046 m 14.5649659,12.47345 c -4.559986,-1.6732 -9.1362278,-3.37734 -13.6991536,-5.058 0.013001,-2.85486 0.0306,-5.7016 0.058799,-8.5292 l -1e-7,0 C 3.0129466,93.949181 2.8205268,85.946887 2.585166,77.995956 2.5524271,76.889978 2.5295905,75.792198 2.514771,74.701218 M 3.7756776,86.309501 C 3.6876414,78.461046 3.841234,70.818365 3.9750097,63.1597 l 0,-10e-7 C 4.1088427,55.497751 3.947787,47.578419 3.897666,39.751369 l -1e-7,-2e-6 c -0.00116,-0.181413 -0.00222,-0.362745 -0.00317,-0.543998 4.352763,-1.667012 8.7761674,-3.281102 13.2384234,-4.873681 M 7.5441253,36.600476 C 14.779889,33.825426 22.081032,31.089302 29.316874,28.25179 36.555818,25.413061 44.049188,22.799201 51.663771,20.082348 l 3e-6,-1e-6 c 1.889062,-0.67401 3.733863,-1.349273 5.54963,-2.02518 m -9.491074,4.708719 c 7.196677,-2.751584 14.40981,-5.420427 21.393112,-8.076841 l 10e-7,0 C 76.101738,12.031493 83.82685,9.2193362 91.406089,6.4774161 l 3e-6,-1e-6 c 3.151544,-1.1401253 6.208788,-2.2783261 9.235658,-3.4171667 0.77519,0.2899842 1.54839,0.5799265 2.32067,0.8697836 M 85.638786,7.2119835 c 4.669318,-1.7738659 9.240367,-3.5213547 13.774612,-5.292126 2.611002,0.975347 5.209802,1.9429737 7.808132,2.8933979 7.11362,2.6020372 14.5537,5.5538496 21.81253,8.4647536 l 0,10e-7 c 7.0833,2.840517 14.22341,5.328458 21.35721,7.968228 m -26.52585,-8.545645 c 7.30828,2.726693 14.555,5.48502 21.82656,8.266717 l 0,0 c 7.27468,2.782889 14.57158,5.457755 21.86877,8.18116 l 10e-6,1e-6 c 3.37522,1.259678 6.74477,2.549076 10.11334,3.865842 m -12.01594,-7.500301 c 7.214,2.714196 14.61371,5.456394 22.00481,8.184702 3.36976,1.243896 6.69596,2.484408 10.00998,3.72126 -0.006,4.224014 -0.0289,8.442807 -0.0159,12.65591 0.0116,3.770905 -0.006,7.578129 -0.0456,11.408517 m -0.21308,-14.438305 c -0.0654,7.764196 0.11512,15.415477 0.34461,22.924909 l 0,3e-6 c 0.22959,7.512651 -0.0117,15.514281 -0.0328,23.211452 l 0,4e-6 c -0.0158,5.752125 -0.0864,11.603576 -0.2366,17.452156 m 0.4413,-22.026293 c 0.012,7.422405 0.01,15.009003 0.0303,22.580213 -0.2677,0.10388 -0.53538,0.20774 -0.80301,0.31157 l 0,0 c -7.2593,2.81621 -14.60606,5.32207 -21.97424,7.77335 l -1e-5,0 c -6.05024,2.01283 -11.96941,4.47894 -17.90185,6.9331 m 21.54763,-10.88264 c -7.23904,2.75159 -14.72848,5.42276 -22.34462,8.08387 -7.6194,2.66225 -14.47191,5.48737 -21.57111,8.26788 l 0,0 c -4.65636,1.82373 -9.49296,3.59822 -14.35399,5.36585 m 18.1426,-3.38975 c -7.24602,2.75934 -14.67663,5.36678 -22.19462,7.91512 -5.68446,1.92683 -11.0996,4.12219 -16.555077,6.35198 -1.762755,-0.61337 -3.529723,-1.22314 -5.311349,-1.83721 -5.631496,-1.94101 -11.247689,-4.24309 -16.865075,-6.60911 m 21.559247,5.35889 c -7.259185,-2.78501 -14.575621,-5.31139 -21.887563,-7.74633 l -2e-6,0 c -7.315075,-2.43597 -14.486605,-5.58209 -21.617989,-8.5585 l -2e-6,0 c -1.042121,-0.43495 -2.092709,-0.85759 -3.150336,-1.2702 m 7.750924,6.35637 c -7.293407,-2.80153 -14.483162,-5.48249 -21.615643,-8.26193 l -3e-6,-10e-6 c -7.135538,-2.78063 -14.485023,-5.31314 -21.610959,-7.74287 -4.642193,-1.58286 -9.4125231,-3.46745 -14.180749,-5.40463 -0.011174,-2.43241 -0.021891,-4.87621 -0.019012,-7.30627 m 21.4464296,13.67727 c -6.209339,-2.23557 -12.459985,-4.51317 -18.8186584,-6.65401 -0.032039,-1.14409 -0.067507,-2.28383 -0.1067789,-3.41823 l 1e-7,0 C 5.2495328,100.99612 5.6877872,92.912609 6.041416,85.06564 6.3516833,78.180852 6.0901268,71.412724 5.9725223,64.618134 M 4.2547835,85.987486 C 4.3218221,78.177119 4.248858,70.366747 4.2382909,62.44623 l 1e-7,-2e-6 c -0.010572,-7.923912 0.054772,-15.552607 0.1593749,-23.32161 l 1e-7,-3e-6 c 0.013572,-1.007975 0.022557,-2.014821 0.027641,-3.020482 0.4803598,-0.177425 0.9597221,-0.354546 1.4381755,-0.531357 M 4.993848,50.148366 c 0.028794,-3.247173 0.028849,-6.53016 0.015752,-9.840239 4.2050249,-1.647137 8.38494,-3.346001 12.580868,-5.073584 l 10e-7,0 c 7.235666,-2.979128 14.600356,-5.46106 21.957834,-8.188191 l 2e-6,-10e-7 c 4.90335,-1.817482 9.803379,-3.647169 14.766461,-5.486789 M 195.89845,79.166406 v 8.042969 M 19.896257,116.24333 13.177364,113.72374"
     inkscape:path-effect="#path-effect1"
     inkscape:original-d="m 3.8984472,38.244149 95.9999998,-36 96.000003,36 v 72.000001 l -96.000003,36 -95.9999998,-36 z"
     transform="matrix(0.79274453,0,0,0.79274453,0.78664121,0.9111743)" />
</svg>
