<?xml version="1.0" encoding="UTF-8" standalone="no"?>
<svg
   height="150"
   width="200"
   version="1.1"
   id="svg2"
   sodipodi:docname="tile-water.svg"
   inkscape:version="1.3.1 (91b66b0783, 2023-11-16, custom)"
   xmlns:inkscape="http://www.inkscape.org/namespaces/inkscape"
   xmlns:sodipodi="http://sodipodi.sourceforge.net/DTD/sodipodi-0.dtd"
   xmlns="http://www.w3.org/2000/svg"
   xmlns:svg="http://www.w3.org/2000/svg">
  <defs
     id="defs2">
    <inkscape:path-effect
       effect="sketch"
       id="path-effect1"
       is_visible="true"
       lpeversion="1"
       nbiter_approxstrokes="3"
       parallel_offset="2;1"
       strokelength="70"
       strokelength_rdm="0.3;1"
       strokeoverlap="0.55"
       strokeoverlap_rdm="0.5;1"
       ends_tolerance="0.1;1"
       tremble_size="0.8;1"
       tremble_frequency="3"
       nbtangents="2"
       tgt_places_rdmness="0.5;1"
       tgtlength="5"
       tgtlength_rdm="0.3;1"
       tgtscale="10" />
  </defs>
  <sodipodi:namedview
     id="namedview2"
     pagecolor="#ffffff"
     bordercolor="#000000"
     borderopacity="0.25"
     inkscape:showpageshadow="2"
     inkscape:pageopacity="0.0"
     inkscape:pagecheckerboard="0"
     inkscape:deskcolor="#d1d1d1"
     inkscape:zoom="1.0375"
     inkscape:cx="-20.240964"
     inkscape:cy="144.57831"
     inkscape:window-width="1440"
     inkscape:window-height="831"
     inkscape:window-x="0"
     inkscape:window-y="0"
     inkscape:window-maximized="1"
     inkscape:current-layer="svg2" />
  <!-- Draw the shadow. -->
  <!-- Draw the tile background. -->
  <polygon
     fill="#555588"
     points="80,15 80,45 40,60 0,45 0,15 40,0 "
     stroke="#000000"
     stroke-width="1"
     id="polygon2"
     transform="matrix(2.4,0,0,2.4,4,3)"
     style="stroke:none" />
  <path
     id="path2"
     style="fill:none;stroke:#000000;stroke-width:1;stroke-dasharray:none"
     d="m 9.0276276,38.962386 c 7.5142884,-2.90857 14.4840884,-5.456775 21.6067654,-8.195388 7.125729,-2.739788 14.431982,-5.596844 21.453928,-8.59288 l 3e-6,-1e-6 c 2.902305,-1.238319 5.920253,-2.376822 8.997872,-3.471211 m -18.998715,4.301767 c 7.048723,-2.821456 14.604618,-5.687667 21.988614,-8.858001 7.387162,-3.171694 14.655387,-5.3291881 22.103929,-7.80538 l 2e-6,-8e-7 c 1.140841,-0.3792609 2.276122,-0.7682093 3.407688,-1.164107 M 74.374987,12.633169 C 81.494654,9.7723019 89.28604,7.046424 97.28226,4.0502191 c 1.232548,-0.461839 2.423654,-0.9023499 3.58122,-1.3244889 6.35544,2.3026888 11.69992,5.1591766 17.34146,8.0802288 1.58416,0.820239 3.25417,1.535711 4.98542,2.175535 M 108.66847,6.8376717 c 7.12375,2.7318034 14.83189,5.3834903 22.65102,7.9581163 7.82247,2.575729 14.61674,5.60697 21.99767,8.630379 l 1e-5,1e-6 c 6.29425,2.57828 12.2744,4.940526 18.11915,7.634089 M 138.63874,16.792522 c 7.42281,2.829394 14.47779,5.248227 21.60689,7.54549 7.13214,2.298248 14.47791,5.297311 21.59142,7.686629 l 1e-5,10e-7 c 3.86546,1.298349 7.88843,2.861162 11.98578,4.526061 m -21.23365,-7.373335 c 7.54138,2.806676 14.56718,5.421662 21.85048,8.06427 0.78876,0.286187 1.57451,0.571788 2.35724,0.85646 -0.0462,6.845573 -0.29718,13.628154 -0.75471,20.156657 -0.15254,2.176561 -0.21588,4.420033 -0.23078,6.694265 m -0.45021,-16.153773 c 0.20182,7.82478 0.20076,16.064993 0.60599,24.879519 l 0,3e-6 c 0.4054,8.818304 0.10443,15.081366 0.325,21.89583 0.0532,1.642652 0.0676,3.42256 0.0528,5.299151 m 0.35666,-17.657933 c 0.031,7.628915 -0.21126,15.539264 -0.61879,23.304773 -0.0566,1.07774 -0.0959,2.15307 -0.12139,3.22591 -6.43028,2.31396 -12.32361,4.53157 -18.45796,6.62984 -0.76537,0.2618 -1.53199,0.53233 -2.29924,0.81048 m 11.23481,-4.783 c -7.17549,2.83967 -14.55235,5.11422 -21.81345,7.14548 l 0,0 c -7.26422,2.03212 -14.70445,5.51389 -22.26643,8.34288 l 0,0 c -5.78403,2.16384 -11.18565,4.38181 -16.57577,6.78686 m 29.75815,-10.19385 c -7.25006,2.77748 -14.24779,5.31675 -20.8946,7.7643 l 0,0 c -6.64967,2.44861 -14.86228,5.54756 -22.74768,8.45538 l 0,0 c -4.46902,1.648 -8.44814,3.14706 -12.265862,4.59352 -1.097872,-0.47422 -2.182397,-0.9528 -3.261388,-1.43343 m 26.33256,-7.73361 c -7.20879,2.66727 -14.60254,5.27654 -21.96966,7.6332 -0.831426,0.26596 -1.661293,0.53835 -2.489963,0.81557 -6.517158,-2.66557 -12.960346,-5.03225 -19.507715,-7.8725 -3.43942,-1.49202 -6.806204,-2.75263 -10.128698,-3.92582 m 20.497116,8.96307 c -7.26488,-2.82375 -14.549967,-5.94261 -21.819587,-9.633 l -10e-7,0 c -7.272736,-3.69197 -14.420838,-4.96281 -21.410177,-6.69288 l -3e-6,0 c -4.903724,-1.21382 -10.029641,-3.4212 -15.075734,-5.58516 m 28.138839,12.34459 c -7.123573,-2.50078 -14.615741,-5.0674 -22.019769,-7.00216 l -10e-7,-10e-6 c -7.4072,-1.93559 -14.462695,-5.57247 -21.535177,-8.52412 l -2e-6,0 c -3.594527,-1.50016 -7.3326951,-2.85287 -11.1307433,-4.14597 m 22.0246303,8.00163 c -7.202459,-2.8899 -14.486744,-5.50404 -21.6134161,-8.30791 -0.1918693,-0.0755 -0.383916,-0.1508 -0.5761309,-0.22595 0.1362233,-7.62818 0.052503,-15.035133 0.1819342,-22.431186 0.027387,-1.564942 0.038482,-3.147405 0.036756,-4.742844 M 3.5171946,97.366651 C 3.5152811,89.697929 3.7103983,81.466167 4.0984472,72.980682 l -1e-7,-3e-6 C 4.4866624,64.491557 3.8671722,57.32825 3.4109472,49.366098 3.2416276,46.411091 3.2122923,43.531475 3.2527044,40.699063 M 4.288984,63.841039 c -0.068454,-7.5374 0.1741262,-15.48652 0.5188382,-23.142389 0.021405,-0.475387 0.040396,-0.952457 0.057222,-1.431123 7.0848047,-2.49974 13.6749527,-5.364196 20.6219187,-8.301493 5.561081,-2.351321 10.969836,-4.223824 16.387954,-6.126365 M 9.3126902,34.645885 C 16.697935,31.912121 23.618498,29.401071 30.400871,27.094021 37.186152,24.785982 45.027236,21.224996 52.436049,17.682392 l 3e-6,-1e-6 c 6.812917,-3.25767 13.427879,-5.090829 20.135344,-7.385237 M 40.525484,23.167773 c 7.512247,-2.685876 14.528373,-5.158183 21.738018,-7.276926 l 3e-6,-1e-6 c 7.212735,-2.119651 14.164268,-5.368887 20.647678,-7.9178791 4.709062,-1.851397 10.350718,-3.8932133 16.003089,-5.9149141 1.668008,0.5740945 3.336958,1.1499409 4.983138,1.7329493 M 71.732887,10.706197 c 7.052851,-2.9771537 14.569532,-5.4335794 21.882359,-8.1015509 2.557117,-0.9329244 5.150177,-1.85612314 7.783114,-2.76156252 4.89995,1.86779792 9.93802,3.79710362 15.13957,5.83969842 3.72682,1.4634838 7.04305,2.7218624 10.16422,3.9003072 M 102.15727,5.6205343 c 7.47079,2.8233723 14.658,5.4985017 22.13808,8.2954987 7.48328,2.798196 14.22553,5.060694 20.82892,6.986629 l 1e-5,1e-6 c 4.65616,1.358008 10.11326,3.660051 15.65426,6.062586 M 134.48607,14.882316 c 7.06561,2.827348 14.901,5.286475 22.86985,7.664243 7.97226,2.378787 14.14422,5.400342 20.59142,8.017879 l 1e-5,1e-6 c 4.96626,2.016283 11.07828,4.304763 17.19371,6.714748 0.0426,0.530555 0.0852,1.061973 0.1272,1.594162 M 168.28303,28.718464 c 7.21292,2.719398 14.56271,5.463052 21.8509,8.189382 2.56313,0.958801 5.11005,1.893323 7.64232,2.802743 -0.0512,4.950308 -0.15231,9.815197 -0.29342,14.5895 -0.20471,6.925559 -0.0961,14.569879 -0.22303,21.90536 m 0.69773,-38.333668 c -0.2328,7.712109 0.0438,15.583982 0.1253,23.417164 l -1e-5,3e-6 c 0.0815,7.836538 -0.18781,15.933158 -0.56249,24.458327 l 0,3e-6 c -0.31558,7.180116 0.0553,13.180629 0.43808,19.336292 m -3.65369,-34.067497 c 0.0146,7.772422 0.0688,15.613961 0.20623,23.529586 0.0886,5.101952 -0.0243,10.049691 -0.23001,14.957761 -2.70425,0.9147 -5.43683,1.8173 -8.17946,2.72709 -7.57756,2.51366 -14.04048,5.36118 -20.60994,8.0581 m 29.12566,-18.48339 c -7.1e-4,2.20984 -0.0395,4.42234 -0.11653,6.63434 -5.39105,1.92367 -11.02079,3.84422 -16.89178,5.7124 l -1e-5,0 c -8.22449,2.61706 -14.09668,5.76181 -20.45392,9.09912 l -10e-6,1e-5 c -4.39319,2.30626 -9.7815,3.89335 -15.24695,5.35901 m 27.19501,-9.43163 c -7.38344,2.53648 -14.63576,5.48977 -22.08193,8.27711 l 0,1e-5 c -7.44936,2.78854 -14.42616,5.78729 -21.43518,9.16162 l 0,0 c -0.97496,0.46938 -1.95892,0.90861 -2.94972,1.32293 m 13.82129,-5.11229 c -7.50184,2.48897 -14.51605,5.8442 -21.70053,9.33968 -4.95813,2.41229 -10.08189,4.00683 -15.277988,5.53694 -2.336432,-1.00616 -4.687491,-2.02535 -7.044695,-2.98908 -4.744039,-1.93957 -9.153919,-3.56447 -13.459929,-5.15155 m 23.792182,5.52739 c -1.50468,0.55605 -3.016808,1.11213 -4.53598,1.66713 -5.813725,-2.20461 -11.730567,-4.42527 -17.72736,-6.72572 -7.567044,-2.90282 -14.646372,-5.36815 -22.078928,-7.91788 l -3e-6,0 c -1.843904,-0.63255 -3.663826,-1.27385 -5.466544,-1.91576 m 18.072242,5.89655 c -7.414311,-2.97496 -14.260289,-5.29804 -20.931894,-7.6953 l -10e-7,0 c -6.674464,-2.39829 -14.485739,-5.62612 -21.610177,-8.68038 l -3e-6,0 c -3.72112,-1.59525 -7.658534,-2.94012 -11.74485,-4.17208 m 20.250533,7.83513 C 29.895277,120.70913 22.795761,117.76888 16.248744,114.73098 12.514335,112.99817 8.2415109,111.40695 3.8395312,109.7869 3.651206,106.39618 3.3894709,102.98906 3.2296972,99.49254 2.8669851,91.554864 2.9932397,84.643977 2.5685494,77.775961 m 4.4836951,35.888299 c -1.4910052,-0.5688 -2.9941101,-1.14601 -4.505819,-1.73159 0.023413,-6.21548 -0.077141,-12.551381 -0.1104783,-19.004823 l 0,-3e-6 c -0.042138,-8.157088 0.054655,-15.667657 0.16875,-23.65833 0.052773,-3.69599 0.091423,-7.292467 0.1511532,-10.853182 m 2.1705371,19.784327 c -0.1434365,-7.797282 0.00673,-15.514596 0.018935,-23.217054 0.00955,-6.025587 0.048818,-11.952097 0.1411399,-17.678956 1.6136409,-0.496462 3.2314068,-0.9774 4.8538037,-1.440635 3.6247572,-1.034959 7.2051062,-2.330135 10.7973152,-3.674372 m -10.273938,4.742953 c 7.225728,-2.706725 14.95451,-5.228577 23.032137,-7.489399 l 2e-6,-1e-6 c 8.08109,-2.261791 14.533187,-5.392252 21.753929,-7.974129 5.396087,-1.929447 10.791174,-4.013028 16.105788,-6.065759 M 43.423841,25.436376 c 7.455888,-2.954234 14.260853,-5.373012 20.95684,-7.92658 6.698856,-2.554663 14.671816,-5.508724 22.160178,-8.3428794 l 3e-6,-1.2e-6 C 91.720106,7.2067022 96.804618,5.2707603 101.99968,3.258137 c 0.97264,0.3304634 1.94917,0.6582389 2.93091,0.9826639 M 72.528425,10.555679 c 7.385454,-2.6798861 14.550401,-5.4472988 21.813181,-8.1456832 1.945734,-0.7229103 3.921,-1.44533398 5.924994,-2.16551123 5.47947,2.03011413 11.17375,4.07702273 17.06644,6.17669783 5.27854,1.880842 9.78454,3.6025996 14.16283,5.2779976 M 104.54262,5.0380275 c 7.03437,2.6133088 14.83514,5.3849295 22.66364,7.9582685 l 0,2e-6 c 7.83185,2.574441 14.4339,5.884535 21.45393,9.467877 l 0,10e-7 c 5.41885,2.766029 11.21274,4.420158 17.01916,6.136889 M 136.83403,14.998111 c 7.1607,2.983382 14.2748,5.424263 21.00097,8.082792 l 0,1e-6 c 6.72905,2.659668 14.91016,5.282427 22.87268,7.667879 l 0,0 c 1.16358,0.34859 2.28918,0.716983 3.38319,1.101954 m -16.13711,-1.269115 c 7.05913,2.596481 14.62492,5.154931 22.04485,7.27704 1.64038,0.469152 3.26645,1.001021 4.88266,1.575869 0.0243,5.958034 -0.0738,12.450181 -0.0984,18.611683 -0.0302,7.551238 -0.0777,14.857896 -0.21705,22.266175 m 2.62334,-37.052446 c 0.0357,7.876325 0.37223,15.566958 1.11871,23.373202 0.74679,7.80959 -0.29104,15.526848 -0.8625,23.23958 l -1e-5,3e-6 c -0.50139,6.767012 0.0838,13.611182 0.60223,20.393672 m -1.13978,-37.665308 c -0.0418,7.78051 -0.27051,15.349006 -0.82494,22.729575 -0.29576,3.937094 -0.31749,8.105193 -0.31759,12.327253 -3.39951,1.3403 -6.78244,2.72197 -10.31816,4.0262 -1.47969,0.54581 -2.9241,1.09837 -4.33984,1.65897 m 16.11917,-1.43118 c -6.7e-4,0.0393 -0.001,0.0787 -0.002,0.11808 -7.36857,2.61934 -14.37481,5.69124 -21.41167,8.91778 l 0,0 c -7.07617,3.24457 -14.63378,5.21069 -22.06643,7.44913 l 0,0 c -4.95344,1.4918 -9.88024,3.53026 -14.91684,5.67623 m 26.93516,-10.72203 c -7.49987,2.91662 -14.64566,5.14167 -22.10053,7.22663 l 0,0 c -7.45807,2.08586 -14.56742,5.63004 -21.85393,8.69913 l 0,0 c -6.06003,2.5525 -12.22781,4.63815 -18.50454,6.8454 m 30.59715,-10.35599 c -7.169,2.6299 -14.25735,5.33142 -20.9197,7.80825 -3.38453,1.25825 -7.17132,2.62732 -11.11691,4.0067 -3.82455,-1.35136 -7.798305,-2.69303 -11.699526,-4.11657 -2.105621,-0.76833 -4.104661,-1.49933 -6.033338,-2.20197 m 16.375134,6.31276 c -7.308284,-2.88986 -14.256898,-5.46382 -20.925779,-8.19541 l -1e-6,0 c -6.671739,-2.73276 -14.713687,-5.49023 -22.278927,-8.28038 l -3e-6,0 c -2.249173,-0.82952 -4.435364,-1.64956 -6.580635,-2.46472 m 15.478897,6.37988 c -7.242285,-2.56757 -14.868801,-5.38208 -22.763366,-7.96457 l -2e-6,0 c -7.897948,-2.5836 -14.475905,-5.15724 -21.578926,-7.27413 l -3e-6,0 c -1.187806,-0.354 -2.382262,-0.74833 -3.580885,-1.17443 m 13.733835,3.55164 C 24.731384,119.37357 17.742307,116.61026 11.04934,113.70777 8.9056347,112.77812 6.6141577,111.86592 4.23303,110.95377 4.127747,105.5858 3.6182111,100.2181 3.2609472,94.684223 2.9144206,89.316665 3.0425675,84.408287 3.1942473,79.65074 M 2.7138181,108.95386 C 2.5165224,101.38308 2.9443138,93.321001 3.4078222,85.374017 3.8715292,77.423626 3.5403398,69.385736 3.8015721,60.753187 l 10e-8,-4e-6 C 4.0451094,52.705383 3.6830759,46.255263 3.3588913,39.321072 3.5390502,39.258951 3.7192385,39.196455 3.8994701,39.133537 M 2.9173471,75.282123 C 3.0338015,67.669677 2.9611461,59.554028 3.0546972,51.433581 3.1074001,46.858846 3.055536,42.498842 2.9486123,38.168433 6.047274,37.013653 9.1127952,35.876687 12.168295,34.671081 17.321087,32.637948 22.879307,30.890357 28.500647,29.391397 M 195.89845,79.166406 v 8.042969 M 19.896257,116.24333 13.177364,113.72374"
     inkscape:path-effect="#path-effect1"
     inkscape:original-d="m 3.8984472,38.244149 95.9999998,-36 96.000003,36 v 72.000001 l -96.000003,36 -95.9999998,-36 z"
     transform="translate(0.2311325,0.8830586)" />
</svg>
