<?xml version="1.0" encoding="UTF-8" standalone="no"?>
<svg
   height="150"
   width="200"
   version="1.1"
   id="svg7"
   sodipodi:docname="tile-mountain.svg"
   inkscape:version="1.3.1 (91b66b0783, 2023-11-16, custom)"
   xmlns:inkscape="http://www.inkscape.org/namespaces/inkscape"
   xmlns:sodipodi="http://sodipodi.sourceforge.net/DTD/sodipodi-0.dtd"
   xmlns="http://www.w3.org/2000/svg"
   xmlns:svg="http://www.w3.org/2000/svg">
  <defs
     id="defs7">
    <inkscape:path-effect
       effect="sketch"
       id="path-effect1"
       is_visible="true"
       lpeversion="1"
       nbiter_approxstrokes="3"
       parallel_offset="2;1"
       strokelength="70"
       strokelength_rdm="0.3;1"
       strokeoverlap="0.45"
       strokeoverlap_rdm="0.5;1"
       ends_tolerance="0.1;1"
       tremble_size="0.8;1"
       tremble_frequency="3"
       nbtangents="2"
       tgt_places_rdmness="0.5;1"
       tgtlength="5"
       tgtlength_rdm="0.3;1"
       tgtscale="10" />
  </defs>
  <sodipodi:namedview
     id="namedview7"
     pagecolor="#ffffff"
     bordercolor="#000000"
     borderopacity="0.25"
     inkscape:showpageshadow="2"
     inkscape:pageopacity="0.0"
     inkscape:pagecheckerboard="0"
     inkscape:deskcolor="#d1d1d1"
     inkscape:zoom="1.0375"
     inkscape:cx="9.6385542"
     inkscape:cy="47.228916"
     inkscape:window-width="1440"
     inkscape:window-height="831"
     inkscape:window-x="0"
     inkscape:window-y="0"
     inkscape:window-maximized="1"
     inkscape:current-layer="svg7" />
  <!-- Draw the shadow. -->
  <!-- Draw the tile background. -->
  <!-- Draw the tile foreground. -->
  <!-- Draw the outline. -->
  <g
     id="g7"
     transform="matrix(2.4,0,0,2.4,4,3)"
     style="stroke:none">
    <polygon
       fill="#bbbbbb"
       points="80,15 80,45 40,60 0,45 0,15 40,0 "
       id="polygon2"
       style="stroke:none" />
    <polygon
       fill="#ffffff"
       points="56,6 56,18 40,24 24,18 24,6 40,0 "
       id="polygon3"
       style="stroke:none" />
    <polygon
       fill="#000000"
       opacity="0.2"
       points="80,15 80,45 40,0 "
       id="polygon4"
       style="stroke:none" />
    <polygon
       fill="#000000"
       opacity="0.2"
       points="40,60 0,45 40,0 "
       id="polygon5"
       style="stroke:none" />
    <polygon
       fill="#000000"
       opacity="0.4"
       points="0,45 0,15 40,0 "
       id="polygon6"
       style="stroke:none" />
    <polygon
       fill="none"
       points="80,15 80,45 40,60 0,45 0,15 40,0 "
       stroke="#000000"
       stroke-width="1"
       id="polygon7"
       style="stroke:none" />
  </g>
  <path
     id="path2"
     style="fill:none;stroke:#000000;stroke-width:1;stroke-dasharray:none"
     d="m 9.0276276,38.962386 c 7.5142884,-2.90857 14.4840884,-5.456775 21.6067654,-8.195388 7.125729,-2.739788 14.431982,-5.596844 21.453928,-8.59288 l 3e-6,-1e-6 c 2.902305,-1.238319 5.920253,-2.376822 8.997872,-3.471211 m -15.446559,2.969708 c 7.048724,-2.821455 14.604619,-5.687667 21.988615,-8.858001 l 2e-6,-10e-7 C 75.015416,9.6429184 82.283641,7.4854245 89.732183,5.0092325 90.873024,4.6299716 92.008305,4.2410232 93.13987,3.8451254 M 80.416546,10.367585 c 6.24745,-2.5103882 13.012118,-4.9168351 19.978544,-7.493198 0.9726,0.3091525 1.94913,0.6149931 2.92873,0.9167766 7.99965,2.4644303 14.25359,5.8272921 20.92268,9.2803794 l 0,10e-7 c 1.58416,0.820239 3.25417,1.53571 4.98542,2.175535 M 117.5261,10.159285 c 7.12376,2.731804 14.8319,5.383491 22.65102,7.958117 7.82248,2.575729 14.61675,5.60697 21.99768,8.630378 l 0,2e-6 c 6.29426,2.578279 12.27441,4.940525 18.11915,7.634089 M 153.21689,22.259328 c 7.42282,2.829395 14.47779,5.248227 21.60689,7.545491 6.70739,2.161376 13.60372,4.94258 20.31812,7.253533 -0.009,0.446906 -0.0178,0.891925 -0.0278,1.334782 -0.0918,4.040777 -0.0262,8.346016 0.11381,12.753343 m -3.91539,-14.947873 c 1.89241,0.7043 3.75236,1.396529 5.59206,2.080153 0.0388,5.81942 -0.10274,11.562163 -0.0999,17.320404 l 0,2e-6 c 0.004,7.690558 -0.24943,15.331073 -0.7625,22.652079 l 0,2e-6 c -0.15254,2.176562 -0.21588,4.420034 -0.23078,6.694266 m -0.45021,-12.887904 c 0.20182,7.824779 0.20076,16.064993 0.60599,24.879519 0.2716,5.907765 0.22615,10.668685 0.23289,15.216875 -2.40033,0.57498 -4.788,1.09834 -7.11885,1.68176 -1.70232,0.4261 -3.44333,0.98945 -5.2137,1.64949 m 12.83408,-5.98856 c 3.6e-4,0.0901 6.9e-4,0.1802 9.8e-4,0.27036 -7.16921,2.56025 -14.60402,5.39042 -22.20023,8.07914 -7.69027,2.72202 -14.48777,5.31914 -21.61017,7.75538 l -1e-5,0 c -0.76537,0.2618 -1.53199,0.53233 -2.29924,0.81049 m 8.91514,-3.91313 c -7.17549,2.83967 -14.55235,5.11422 -21.81345,7.14548 l 0,0 c -7.26421,2.03212 -14.70444,5.51389 -22.26643,8.34288 l 0,0 c -5.78403,2.16384 -11.18564,4.38181 -16.575773,6.78686 m 24.508823,-8.22535 c -7.25007,2.77748 -14.24779,5.31675 -20.89461,7.7643 -0.62378,0.2297 -1.26132,0.46512 -1.91104,0.70556 -6.276537,-2.62678 -13.690937,-4.78434 -20.83664,-7.09885 -5.754181,-1.86378 -10.696186,-3.97449 -15.527247,-6.12646 m 21.266441,8.59378 c -7.208794,-2.79231 -14.602539,-5.64261 -21.969658,-8.74554 l -3e-6,0 c -7.370275,-3.10425 -14.617795,-5.70398 -21.997675,-8.90538 l -3e-6,0 c -3.43942,-1.49202 -6.806204,-2.75263 -10.128699,-3.92582 m 16.70951,7.54272 c -7.26488,-2.82375 -14.549967,-5.94261 -21.819587,-9.633 l -1e-6,0 C 18.979312,113.02814 11.83121,111.7573 4.8418707,110.02723 l -2.2e-6,0 C 4.0271972,109.82557 3.2063933,109.5965 2.3808416,109.34475 2.4977762,105.12858 2.4951012,100.34133 2.5479308,95.584282 M 12.983269,114.94102 c -3.05511,-1.07252 -6.1780166,-2.15714 -9.3326909,-3.19884 -0.043569,-4.26837 -0.1434753,-8.4606 -0.2146309,-12.446734 l 0,-2e-6 C 3.3113057,92.313035 3.5383699,83.629331 3.7484472,75.630863 3.8552171,71.565713 3.818345,67.647999 3.721593,63.789893 M 3.8516713,82.71294 C 3.9286513,74.778384 3.9238049,67.119583 4.0765722,59.271063 4.2029583,52.77789 4.1618494,46.448696 4.2190583,40.154385 5.4912254,39.710599 6.7676975,39.268342 8.0509102,38.826429 9.5777564,38.300613 11.088311,37.757275 12.586045,37.200963 M 9.6875512,34.752277 C 16.965077,32.128208 24.439633,28.941101 32.107121,25.500271 l 2e-6,0 C 39.777897,22.057966 46.440966,19.941476 53.2673,17.026142 l 2e-6,-1e-6 c 2.53347,-1.081973 5.206923,-2.088555 7.950124,-3.047934 m -14.122677,9.039085 c 7.210986,-2.492745 14.733005,-5.39721 22.357156,-8.008424 l 3e-6,-10e-7 C 77.079327,12.396534 84.080403,9.3476612 91.487086,6.2159875 94.710517,4.853065 97.88277,3.6510179 101.03533,2.510746 c 2.28626,0.8969244 4.56216,1.8263378 6.83971,2.7504432 M 82.747145,7.1079642 C 88.291642,5.0555823 93.57423,3.1287286 98.733063,1.3194843 c 1.712707,0.7601213 3.411777,1.5332056 5.102267,2.3189633 6.78528,3.1538804 14.62636,5.0548134 22.03518,6.9741294 l 0,10e-7 c 6.81291,1.764944 13.42788,4.954397 20.13534,7.682604 M 120.05109,8.3239897 c 7.51225,2.7737043 14.52837,5.7609763 21.73802,9.1018123 l 0,10e-7 c 7.21273,3.342268 14.16427,5.554952 20.64767,8.467878 l 1e-5,10e-7 c 6.0987,2.740083 13.76163,5.160779 20.98623,7.719421 M 157.46893,20.751231 c 7.05286,2.482426 14.56954,5.48558 21.88236,8.277188 5.99413,2.288206 12.18576,4.629852 18.62557,7.128415 0.10432,1.462838 0.22071,2.933306 0.34971,4.412515 0.33276,3.815571 0.25493,7.426037 -0.018,10.956569 m -6.62767,-12.334014 c 0.99708,0.37682 1.98912,0.751 2.97747,1.123181 0.10911,6.787804 0.0631,13.491364 0.23693,20.286433 l -1e-5,2e-6 c 0.20073,7.845012 -0.33958,15.154327 -1.01874,22.127079 l 0,3e-6 c -0.4789,4.9166 -0.15685,10.777235 0.24911,16.738363 m 0.87561,-25.634876 c -0.21383,7.872003 0.34212,15.375785 1.03153,22.798207 0.36712,3.952574 0.22416,8.087274 -0.11587,12.246214 -3.70489,1.29391 -7.56193,2.60653 -11.35876,3.83078 -6.78004,2.18615 -12.21314,4.6923 -17.75537,7.32636 m 27.84473,-7.06304 c -7.34595,2.7194 -14.55504,5.46305 -21.82573,8.18938 -7.2738,2.7275 -14.67875,5.25852 -22.17892,7.57413 l -1e-5,0 c -7.05514,2.17821 -13.79694,5.07517 -20.77433,7.6633 m 28.64472,-12.33364 c -7.51224,2.66746 -14.51509,5.49468 -21.71302,8.2832 l 0,0 c -7.20102,2.78972 -14.75293,5.83953 -22.41018,9.31788 l 0,0 c -4.51064,2.04899 -8.68546,3.52093 -12.75529,4.87251 -1.74905,-0.80188 -3.478708,-1.62598 -5.207295,-2.43607 m 21.829735,-6.21122 c -6.63749,2.49221 -13.24193,5.04213 -19.780057,7.65353 -0.617946,-0.22464 -1.235299,-0.44873 -1.852032,-0.67226 -7.14509,-2.58972 -14.775405,-5.55097 -22.485179,-8.45538 l -2e-6,0 c -7.577556,-2.85459 -14.040477,-5.37532 -20.60994,-8.04665 m 28.915891,10.03867 C 75.164,135.6345 67.416074,132.89356 59.195107,130.04993 50.970615,127.20508 45.098419,124.8879 38.741178,122.7633 l -2e-6,0 c -4.393195,-1.46822 -9.781508,-3.65561 -15.246958,-5.96442 m 22.326975,8.82352 c -7.383449,-2.9231 -14.635768,-5.42939 -22.081934,-8.10162 -7.198749,-2.58344 -13.9562016,-4.97057 -20.727884,-7.01217 0.00926,-0.24086 0.018495,-0.48129 0.027697,-0.72131 0.03805,-0.9924 0.067094,-2.01494 0.089305,-3.06238 m 7.6106341,6.64049 c -2.4701824,-0.97815 -4.8874938,-1.86238 -7.2754224,-2.67861 0.018376,-5.04619 0.1586669,-9.81022 0.2223586,-14.511152 0.095,-7.011757 -0.1580611,-15.741999 -0.4749999,-23.895831 l -10e-8,-3e-6 C 3.013096,67.18973 3.1494029,62.414322 3.3895799,57.676734 M 2.2422185,79.037651 C 2.2587291,71.217393 2.1015602,63.39811 1.8171972,55.451876 1.610826,49.685044 1.6611086,44.148438 1.6470206,38.642827 c 1.9943097,-0.698181 3.979397,-1.391921 5.9378529,-2.092025 1.7694806,-0.63255 3.5629445,-1.27385 5.3736115,-1.915765 m -3.510571,2.200337 c 7.144568,-2.974958 14.857468,-5.298041 22.744741,-7.695303 7.890655,-2.398289 14.644498,-5.626118 22.085178,-8.680379 l 3e-6,-1e-6 C 58.16413,18.864439 61.83413,17.51957 65.355229,16.287612 M 45.143814,22.605421 C 52.604425,19.931628 60.063787,16.99138 68.075649,13.95348 l 3e-6,-2e-6 C 76.090947,10.914275 82.44997,8.3106523 89.36083,5.2230992 c 3.121721,-1.394686 6.348218,-2.56935 9.576341,-3.6215889 3.745489,1.6417518 7.493159,3.4483144 11.081899,5.2672439 M 81.096644,10.48239 c 5.903349,-2.1737191 11.62999,-4.4702658 17.375024,-6.886702 1.464603,0.4930562 2.930402,0.9783205 4.400632,1.4558418 7.24042,2.3516482 14.61977,5.3498162 22.01643,7.8678792 l 0,10e-7 c 3.42123,1.1647 6.82834,2.428913 10.25653,3.728888 M 120.34315,7.9129044 c 7.136,2.7069516 14.5656,5.4938716 21.85725,8.2956486 7.29477,2.802977 14.63815,5.767988 22.07893,9.105378 l 0,2e-6 c 3.62476,1.625801 7.20511,2.991385 10.79732,4.307907 M 157.177,24.117022 c 7.22573,2.752855 14.95451,5.690582 23.03214,8.889339 6.61811,2.620786 12.14366,4.658955 17.89361,6.892974 -0.0473,1.407507 -0.0837,2.824585 -0.0949,4.259643 -0.0462,5.923771 -0.0934,11.693407 -0.22107,17.493894 m -2.49221,-23.362511 c 0.99898,0.335677 1.98627,0.680968 2.96317,1.034258 0.0102,6.652257 -0.41337,13.638746 -0.91864,20.524146 l 0,3e-6 c -0.58371,7.954074 0.10669,15.508749 0.3125,23.18333 0.16899,6.301842 0.20445,12.637895 0.4499,18.839222 m -1.88414,-29.674757 c 0.10601,7.824348 -0.008,15.56117 -0.0251,23.367019 -0.009,4.234518 0.10302,8.471028 0.32951,12.724148 -3.14242,1.28019 -6.20328,2.57221 -9.18659,3.88486 -4.27468,1.88084 -9.32191,3.6026 -14.49684,5.27799 m 19.958,-4.90198 c -7.52451,2.61331 -14.28262,5.38493 -21.013,7.95827 l -1e-5,0 c -6.73326,2.57444 -14.69633,5.88454 -22.24142,9.46788 l -1e-5,0 c -5.82415,2.76603 -11.27326,4.42016 -16.70985,6.13689 m 24.01811,-11.62058 c -7.39818,2.98339 -14.84295,5.42427 -22.67566,8.0828 -7.83607,2.65967 -14.22009,5.28242 -20.82268,7.66788 l 0,0 c -0.96485,0.34859 -1.96768,0.71698 -3.0021,1.10195 m 8.49249,-0.3455 c -6.9447,2.40432 -13.45497,4.77603 -20.048902,6.79887 -0.527004,-0.24238 -1.054542,-0.48699 -1.582879,-0.73399 -7.142007,-3.3389 -14.577194,-5.39347 -21.891428,-7.99288 l -2e-6,0 c -6.983086,-2.48172 -13.983344,-5.20802 -21.075579,-7.8327 m 30.930907,10.51372 c -7.24378,-2.62791 -14.186649,-5.44151 -20.719614,-8.1395 l -10e-7,0 c -6.535764,-2.69915 -14.856154,-5.49062 -22.710176,-8.28663 l -3e-6,0 c -6.890977,-2.45316 -12.695339,-4.82917 -18.566534,-7.26685 m 25.211344,6.61337 c -7.321249,-2.72372 -14.829387,-5.65946 -22.663264,-8.78313 -7.763884,-3.09575 -14.581881,-5.39415 -22.072681,-8.03056 -0.00261,-0.0721 -0.00528,-0.14432 -0.00802,-0.21652 -0.057041,-1.50707 -0.078806,-3.0074 -0.07189,-4.49969 m 9.108142,11.68551 c -2.529736,-0.9666 -5.0165708,-1.87973 -7.4763812,-2.75143 0.048707,-5.00426 0.1980041,-9.85431 0.3338794,-14.636588 l 0,-2e-6 C 5.7454637,90.175017 5.4704074,81.632405 5.3203222,73.362109 5.2202988,67.850418 5.1469254,62.885397 4.9637455,58.027877 M 5.8075385,79.88923 C 5.5871035,72.301612 5.7207514,64.022427 5.5453222,55.603156 5.4157181,49.383142 5.4762741,43.9584 5.5152247,38.550324 7.4336538,37.954925 9.349373,37.361616 11.252975,36.73581 c 6.053468,-1.990065 11.99919,-4.446973 17.83596,-6.782285 M 195.89845,79.166406 v 8.042969 M 19.896257,116.24333 13.177364,113.72374"
     inkscape:path-effect="#path-effect1"
     inkscape:original-d="m 3.8984472,38.244149 95.9999998,-36 96.000003,36 v 72.000001 l -96.000003,36 -95.9999998,-36 z"
     transform="translate(0.2311325,0.8830586)" />
</svg>
