<?xml version="1.0" encoding="UTF-8" standalone="no"?>
<svg
   height="120"
   width="160"
   version="1.1"
   id="svg7"
   sodipodi:docname="tile-mountain.svg"
   inkscape:version="1.3.2 (091e20ef0f, 2023-11-25, custom)"
   xmlns:inkscape="http://www.inkscape.org/namespaces/inkscape"
   xmlns:sodipodi="http://sodipodi.sourceforge.net/DTD/sodipodi-0.dtd"
   xmlns="http://www.w3.org/2000/svg"
   xmlns:svg="http://www.w3.org/2000/svg">
  <defs
     id="defs7">
    <inkscape:path-effect
       effect="sketch"
       id="path-effect1"
       is_visible="true"
       lpeversion="1"
       nbiter_approxstrokes="3"
       parallel_offset="2;1"
       strokelength="70"
       strokelength_rdm="0.3;1"
       strokeoverlap="0.45"
       strokeoverlap_rdm="0.5;1"
       ends_tolerance="0.1;1"
       tremble_size="0.3;1729460511"
       tremble_frequency="3"
       nbtangents="2"
       tgt_places_rdmness="0.5;1"
       tgtlength="5"
       tgtlength_rdm="0.3;1"
       tgtscale="10" />
  </defs>
  <sodipodi:namedview
     id="namedview7"
     pagecolor="#ffffff"
     bordercolor="#000000"
     borderopacity="0.25"
     inkscape:showpageshadow="2"
     inkscape:pageopacity="0.0"
     inkscape:pagecheckerboard="0"
     inkscape:deskcolor="#d1d1d1"
     inkscape:zoom="1.0375"
     inkscape:cx="9.6385542"
     inkscape:cy="47.228916"
     inkscape:window-width="1440"
     inkscape:window-height="831"
     inkscape:window-x="0"
     inkscape:window-y="0"
     inkscape:window-maximized="1"
     inkscape:current-layer="svg7" />
  <!-- Draw the shadow. -->
  <!-- Draw the tile background. -->
  <!-- Draw the tile foreground. -->
  <!-- Draw the outline. -->
  <g
     id="g7"
     transform="matrix(1.8722374,0,0,1.8722374,5.1105037,3.8328778)"
     style="stroke:none;stroke-width:0.5341203;stroke-dasharray:none">
    <polygon
       fill="#bbbbbb"
       points="40,0 80,15 80,45 40,60 0,45 0,15 "
       id="polygon2"
       style="stroke:none;stroke-width:0.5341203;stroke-dasharray:none" />
    <polygon
       fill="#ffffff"
       points="40,0 56,6 56,18 40,24 24,18 24,6 "
       id="polygon3"
       style="stroke:none;stroke-width:0.5341203;stroke-dasharray:none" />
    <polygon
       fill="#000000"
       opacity="0.2"
       points="40,0 80,15 80,45 "
       id="polygon4"
       style="stroke:none;stroke-width:0.5341203;stroke-dasharray:none" />
    <polygon
       fill="#000000"
       opacity="0.2"
       points="40,0 40,60 0,45 "
       id="polygon5"
       style="stroke:none;stroke-width:0.5341203;stroke-dasharray:none" />
    <polygon
       fill="#000000"
       opacity="0.4"
       points="40,0 0,45 0,15 "
       id="polygon6"
       style="stroke:none;stroke-width:0.5341203;stroke-dasharray:none" />
    <polygon
       fill="none"
       points="40,0 80,15 80,45 40,60 0,45 0,15 "
       stroke="#000000"
       stroke-width="1"
       id="polygon7"
       style="stroke:none;stroke-width:0.5341203;stroke-dasharray:none" />
  </g>
  <path
     id="path2"
     style="fill:none;stroke:#000000;stroke-width:1.28188875;stroke-dasharray:none"
     d="m 8.5398744,38.11799 c 7.3176396,-2.803731 14.5602986,-5.321506 21.8382686,-7.776774 7.281089,-2.45632 14.611874,-5.534303 21.983615,-8.40616 l 3e-6,-1e-6 c 3.046883,-1.186994 6.079485,-2.31319 9.116813,-3.408738 m -15.414361,2.984726 c 7.326338,-2.706319 14.70307,-5.363081 22.26482,-7.89643 l 3e-6,-1e-6 c 7.564991,-2.534435 14.528392,-5.5279528 21.742209,-8.3920983 1.10489,-0.438681 2.21211,-0.8711511 3.32091,-1.2988623 m -12.47542,6.3456676 c 6.375912,-2.3932338 12.663038,-4.7060227 18.832432,-6.9301996 0.861323,0.3583218 1.720343,0.7183708 2.576993,1.0801692 6.99561,2.9545254 14.63273,5.520505 22.0469,8.3733484 l 0,0 c 1.76115,0.677659 3.50402,1.335625 5.23395,1.97879 M 118.22935,10.66164 c 7.21639,2.739937 14.67645,5.474966 22.18762,8.238574 7.51438,2.764793 14.5509,5.470414 21.8008,8.221004 l 0,1e-6 c 6.18252,2.345627 12.37587,4.700663 18.52007,7.103353 M 152.49019,21.848389 c 7.31455,2.82788 14.58871,5.300967 21.92734,7.711117 6.90454,2.267586 13.73472,5.081745 20.63834,7.641814 0.003,0.462681 0.007,0.924343 0.0113,1.384783 0.0374,4.201207 -0.007,8.442414 -0.1009,12.701435 m -4.39796,-15.945941 c 1.81496,0.709102 3.63901,1.415969 5.47001,2.125211 0.0129,5.895891 0.0877,11.812943 0.16713,17.873759 l 0,3e-6 c 0.10612,8.094669 0.0674,15.538642 0.20625,23.281766 l 0,2e-6 c 0.0413,2.302059 0.0506,4.610433 0.039,6.92253 m -0.28963,-12.544245 c 0.0959,7.861786 -0.0415,15.582289 -0.12434,23.421658 -0.0555,5.254189 -0.0436,10.407929 -0.0405,15.521359 -2.40214,0.85346 -4.80645,1.69713 -7.22203,2.53821 -1.7642,0.61428 -3.52732,1.25318 -5.29084,1.909 m 13.24935,-7.51199 c -0.001,0.0914 -0.002,0.18287 -0.003,0.27432 -7.27116,2.66753 -14.31509,5.36881 -21.37355,8.01411 -7.14586,2.67805 -14.72074,5.4925 -22.31877,8.28663 l 0,0 c -0.81649,0.30025 -1.62595,0.60073 -2.42958,0.90168 m 8.19053,-4.80769 c -7.3737,2.65431 -14.47959,5.61857 -21.59913,8.6629 l 0,0 c -7.12259,3.04564 -14.6419,5.30551 -22.08206,7.72179 l 0,0 c -5.69084,1.84817 -11.15146,4.11896 -16.591588,6.39196 m 25.501928,-7.97434 c -7.2918,2.66831 -14.42535,5.5847 -21.44221,8.56679 -0.65851,0.27986 -1.32186,0.55409 -1.98941,0.82331 -6.448655,-2.34884 -13.288712,-5.16496 -19.935614,-7.88457 -5.352513,-2.19 -10.684336,-4.0818 -16.057992,-5.9905 m 21.297848,7.72735 c -7.30205,-2.79133 -14.562759,-5.40791 -21.850007,-8.03929 l -3e-6,0 c -7.290371,-2.63251 -14.559947,-5.56747 -21.831269,-8.50928 l -3e-6,0 c -3.388826,-1.37105 -6.785388,-2.62955 -10.186553,-3.83964 m 16.8931,6.64267 c -7.299795,-2.6699 -14.660095,-5.61114 -22.145323,-8.64414 l -10e-7,0 C 19.291737,114.16863 12.21792,111.86355 4.9418708,109.37801 l -2.3e-6,0 c -0.8480899,-0.28971 -1.6965689,-0.58687 -2.5454134,-0.8903 2.12e-5,-4.47561 -0.00917,-9.109321 -0.024601,-13.753114 M 12.465978,115.31263 c -3.0894973,-1.16271 -6.192453,-2.32943 -9.2909817,-3.49555 0.031199,-4.43405 0.070249,-8.86704 0.1593884,-13.28804 l 0,-2e-6 c 0.1561432,-7.744164 -0.00272,-15.476101 -0.00938,-23.096613 -0.00338,-3.873057 0.00828,-7.811413 0.032204,-11.752828 M 3.3101209,82.424914 C 3.2751526,74.688607 3.4417878,66.803423 3.7086035,58.878875 3.9293432,52.322805 3.7492492,45.917585 3.6223954,39.4112 4.8560469,38.923038 6.0920296,38.430446 7.3345039,37.931116 8.8128773,37.336982 10.296813,36.758083 11.783676,36.190346 m -1.580578,-2.340574 c 7.216372,-2.748409 14.651226,-5.354761 22.114961,-7.87997 l 1e-6,0 c 7.466934,-2.526291 14.566747,-5.450845 21.857052,-8.16241 l 3e-6,-1e-6 c 2.705664,-1.006348 5.384231,-2.017965 8.036647,-3.03172 M 47.02693,22.702867 c 7.327053,-2.77437 14.62789,-5.628255 22.042163,-8.693218 l 2e-6,-10e-7 c 7.417451,-3.066276 14.421654,-5.3004319 21.421116,-7.707723 3.046206,-1.047667 6.208961,-2.2359262 9.418468,-3.4850208 2.327551,0.8180057 4.679691,1.6040167 7.029801,2.3884525 M 82.675199,7.285267 C 88.178342,5.208876 93.656956,3.1115975 99.176251,0.94629958 101.00863,1.5882127 102.8455,2.2226285 104.68923,2.8478226 c 7.4004,2.5094088 14.47052,5.6223179 21.56643,8.6756914 l 0,10e-7 c 6.52518,2.807789 13.41898,4.977322 20.2457,7.260267 M 119.675,8.9178108 c 7.27391,2.8288162 14.4792,5.4831712 21.60161,8.2595542 l 0,10e-7 c 7.12546,2.777572 14.64236,5.391112 22.08205,7.984284 l 0,10e-7 c 6.99824,2.439301 13.57055,5.171992 20.10907,7.856598 M 157.72714,21.439812 c 7.36144,2.714937 14.72761,5.411749 22.33978,8.041732 6.23949,2.155726 11.95035,4.540515 17.68289,6.991989 -0.0516,1.452453 -0.10225,2.908149 -0.14589,4.365347 -0.11258,3.758794 -0.10347,7.382702 -0.046,10.959283 m -5.79984,-12.95643 c 0.98038,0.359123 1.95642,0.718781 2.92859,1.0787 0.004,6.70819 -0.15466,13.427345 -0.3445,20.081866 l 0,2e-6 c -0.21917,7.682748 -0.0275,15.477649 -0.0797,23.09661 l 0,3e-6 c -0.0368,5.372253 0.0191,10.984374 0.11282,16.668538 m 0.97934,-26.254218 c -0.0257,7.79078 0.0353,15.507358 0.10784,23.201437 0.0386,4.097239 0.04,8.229029 0.0365,12.358909 -3.40926,1.26836 -6.82235,2.53525 -10.21734,3.7759 -6.06248,2.21544 -12.24901,4.52557 -18.51702,6.79458 m 27.14248,-7.04051 c -7.22324,2.81937 -14.48055,5.38065 -21.59933,7.95253 -7.12183,2.57299 -14.60599,5.62184 -21.96721,8.67101 l 0,0 c -6.92443,2.86823 -13.62928,5.00793 -20.31344,7.21031 m 27.83951,-12.06647 c -7.34258,2.75627 -14.55819,5.42639 -21.83589,8.08855 l 0,0 c -7.28082,2.6633 -14.54666,5.60741 -21.79612,8.63116 l 0,0 c -4.27042,1.7812 -8.54681,3.35574 -12.80921,4.90353 -1.831812,-0.71755 -3.661041,-1.44004 -5.486105,-2.15319 m 21.864675,-5.67739 c -6.72986,2.54464 -13.26934,4.99875 -19.817163,7.48733 -0.618863,-0.23624 -1.2378,-0.47217 -1.856979,-0.70769 -7.173431,-2.7286 -14.61401,-5.46226 -21.990647,-8.19757 l -3e-6,0 c -7.250132,-2.6884 -14.251775,-5.42466 -21.276056,-8.21994 m 28.705482,10.55039 c -7.253577,-2.65727 -14.399696,-5.43707 -21.364914,-8.12384 -6.968203,-2.68792 -14.634256,-5.59599 -22.051584,-8.59835 l -3e-6,0 c -5.125771,-2.07478 -10.152114,-3.85191 -15.212837,-5.59856 m 22.863957,9.33928 c -7.37618,-2.63843 -14.644843,-5.28861 -22.093661,-7.68089 -7.201314,-2.31279 -13.9944935,-5.30149 -20.8396092,-8.05185 0.0067,-0.26553 0.013336,-0.53078 0.019891,-0.79569 0.027101,-1.09536 0.045742,-2.18627 0.057496,-3.2735 m 8.4225138,7.2956 C 8.9977852,112.67251 6.5987919,111.76581 4.1809181,110.86266 4.1382969,105.63939 4.0173364,100.43079 3.8859472,95.18971 3.6899714,87.372284 3.9894772,79.751927 4.1929784,72.205598 l 10e-8,-3e-6 C 4.3200154,67.494748 4.2343163,62.592053 4.0837097,57.666217 M 1.9626202,79.273736 c 0.085866,-7.705072 0.1315041,-15.5609 0.388952,-23.358579 0.1868381,-5.65902 0.02563,-11.279631 -0.186668,-16.886593 1.9192852,-0.736543 3.8312507,-1.471131 5.7520006,-2.205106 1.7354128,-0.663152 3.5152272,-1.342375 5.3262152,-2.034979 m -3.208301,2.325256 c 7.288678,-2.792232 14.423527,-5.547831 21.43518,-8.449445 7.014659,-2.902858 14.664339,-5.474431 22.142991,-8.232723 l 2e-6,-1e-6 c 3.906127,-1.440666 7.726294,-2.867817 11.543765,-4.293618 m -19.209999,5.566714 c 7.319149,-2.656392 14.502535,-5.32186 21.67186,-7.779307 l 2e-6,-10e-7 c 7.172399,-2.458502 14.549915,-5.4541862 21.803147,-8.1694423 3.276375,-1.2265148 6.563937,-2.4680427 9.854555,-3.7204623 3.817998,1.4094889 7.640108,2.8043151 11.453628,4.1909162 m -29.846641,3.741919 c 5.869623,-2.200077 11.641317,-4.3442609 17.448587,-6.4785255 1.480469,0.5649911 2.963254,1.1306269 4.450554,1.6961457 7.32453,2.7850092 14.67525,5.4726132 22.17346,8.2210042 l 0,10e-7 c 3.46821,1.271235 6.85232,2.515852 10.21638,3.738939 m -14.2767,-8.347781 c 7.21394,2.712657 14.54493,5.480997 21.79622,8.255016 7.25439,2.775208 14.57387,5.430197 21.8758,8.094441 l 0,10e-7 c 3.55712,1.29788 7.11982,2.634214 10.69436,3.986238 m -17.33176,-4.504217 c 7.28803,2.772642 14.585,5.430274 21.91799,8.100251 6.00802,2.18755 11.86138,4.417771 17.64967,6.594311 -0.0389,1.394802 -0.0809,2.78698 -0.1252,4.175494 -0.18273,5.731645 -0.10282,11.568597 -0.0645,17.375763 M 195.01463,37.87351 c 0.97386,0.37077 1.94791,0.741181 2.92205,1.111513 -0.008,6.762407 -0.0114,13.521511 -0.0335,20.352804 l 0,3e-6 c -0.0256,7.891571 -0.14151,15.516869 -0.42891,23.218487 -0.23599,6.324043 -0.1068,12.803323 -0.0892,19.309093 m -0.63739,-29.093248 c 0.011,7.682467 0.0424,15.563787 0.1289,23.365639 0.0469,4.232349 0.0763,8.448219 0.13022,12.660189 -3.28811,1.24544 -6.55872,2.4881 -9.78652,3.73553 -4.625,1.78741 -9.47376,3.56597 -14.35192,5.32959 m 19.87426,-4.65264 c -7.32777,2.73047 -14.56292,5.33702 -21.84763,7.82375 l 0,0 c -7.28783,2.48778 -14.59203,5.5537 -21.92736,8.47178 l 0,0 c -5.66224,2.25251 -11.26501,4.24603 -16.88075,6.23803 m 24.00239,-11.32661 c -7.31752,2.82172 -14.42477,5.38837 -21.4328,7.97362 -7.01103,2.58637 -14.52716,5.51855 -21.73049,8.36163 l 0,0 c -1.05264,0.41547 -2.11223,0.82664 -3.17804,1.23458 m 9.43431,-1.75222 c -6.76599,2.49684 -13.50135,5.17455 -20.268905,7.95454 -0.540879,-0.18187 -1.081965,-0.36308 -1.623288,-0.54368 -7.317557,-2.44135 -14.525909,-5.42852 -21.732835,-8.09445 l -2e-6,0 c -6.880637,-2.54522 -13.91905,-5.37864 -20.919944,-8.32799 m 30.951071,10.53231 c -7.230239,-2.73435 -14.457325,-5.32787 -21.53135,-7.79795 l -10e-7,-1e-5 c -7.077057,-2.47113 -14.573301,-5.64146 -21.86877,-8.73428 l -3e-6,0 c -6.400913,-2.71358 -12.8058,-4.85237 -19.242943,-7.14861 m 24.9456,6.40523 c -7.294296,-2.76959 -14.610518,-5.50627 -21.988299,-8.33464 -7.311861,-2.80308 -14.363991,-5.34699 -21.4408382,-7.92298 0.0013,-0.0716 0.0026,-0.14315 0.00389,-0.21473 0.027027,-1.49399 0.039306,-2.99574 0.039939,-4.50236 m 7.8543429,11.68835 c -2.4720014,-0.92235 -4.9469309,-1.8639 -7.4201088,-2.82129 0.022918,-5.16959 0.052356,-10.39813 0.1219203,-15.661423 l -1e-7,-2e-6 C 5.1673952,88.716238 5.0171915,81.248047 4.9234472,73.651953 4.8609719,68.589579 4.9450467,63.342931 5.0935639,58.071925 m 0.660351,21.524947 C 5.7530305,71.87702 5.6315327,64.073655 5.3859472,56.348469 5.2045128,50.641232 5.3081772,44.878615 5.400857,39.119997 c 1.9374576,-0.719547 3.8735375,-1.438593 5.795087,-2.154499 6.11054,-2.276587 12.164169,-4.544815 18.272159,-6.81453 M 195.89845,79.166406 v 8.042969 M 19.896257,116.24333 13.177364,113.72374"
     inkscape:path-effect="#path-effect1"
     inkscape:original-d="m 3.8984472,38.244149 95.9999998,-36 96.000003,36 v 72.000001 l -96.000003,36 -95.9999998,-36 z"
     transform="matrix(0.7800989,0,0,0.7800989,2.0292215,1.8295845)" />
</svg>
