<?xml version="1.0" encoding="UTF-8" standalone="no"?>
<svg
   height="130"
   width="250"
   version="1.1"
   id="svg1"
   sodipodi:docname="usecase-13.svg"
   inkscape:version="1.3.2 (091e20ef0f, 2023-11-25, custom)"
   xmlns:inkscape="http://www.inkscape.org/namespaces/inkscape"
   xmlns:sodipodi="http://sodipodi.sourceforge.net/DTD/sodipodi-0.dtd"
   xmlns="http://www.w3.org/2000/svg"
   xmlns:svg="http://www.w3.org/2000/svg">
  <defs
     id="defs1">
    <inkscape:path-effect
       effect="sketch"
       id="path-effect4"
       is_visible="true"
       lpeversion="1"
       nbiter_approxstrokes="3"
       parallel_offset="1;1706844292"
       strokelength="70"
       strokelength_rdm="0.3;1"
       strokeoverlap="0.5"
       strokeoverlap_rdm="0.5;1"
       ends_tolerance="0.1;1"
       tremble_size="0.8;1"
       tremble_frequency="3"
       nbtangents="2"
       tgt_places_rdmness="0.5;1"
       tgtlength="5"
       tgtlength_rdm="0.3;1"
       tgtscale="10" />
    <inkscape:path-effect
       effect="sketch"
       id="path-effect3"
       is_visible="true"
       lpeversion="1"
       nbiter_approxstrokes="3"
       parallel_offset="2;1"
       strokelength="70"
       strokelength_rdm="0.3;1"
       strokeoverlap="0.5"
       strokeoverlap_rdm="0.5;1"
       ends_tolerance="0.1;1"
       tremble_size="0.8;1"
       tremble_frequency="3"
       nbtangents="2"
       tgt_places_rdmness="0.5;1"
       tgtlength="5"
       tgtlength_rdm="0.3;1"
       tgtscale="10" />
    <inkscape:path-effect
       effect="sketch"
       id="path-effect2"
       is_visible="true"
       lpeversion="1"
       nbiter_approxstrokes="3"
       parallel_offset="2;1"
       strokelength="70"
       strokelength_rdm="0.3;1"
       strokeoverlap="0.5"
       strokeoverlap_rdm="0.5;1"
       ends_tolerance="0.1;1"
       tremble_size="0.8;1"
       tremble_frequency="3"
       nbtangents="2"
       tgt_places_rdmness="0.5;1"
       tgtlength="5"
       tgtlength_rdm="0.3;1"
       tgtscale="10" />
    <inkscape:path-effect
       effect="sketch"
       id="path-effect6"
       is_visible="true"
       lpeversion="1"
       nbiter_approxstrokes="3"
       parallel_offset="0.2;1"
       strokelength="70"
       strokelength_rdm="0.3;1"
       strokeoverlap="0.5"
       strokeoverlap_rdm="0.5;1"
       ends_tolerance="0.1;1"
       tremble_size="0.8;1"
       tremble_frequency="3"
       nbtangents="2"
       tgt_places_rdmness="0.5;1"
       tgtlength="5"
       tgtlength_rdm="0.3;1"
       tgtscale="10" />
    <inkscape:path-effect
       effect="sketch"
       id="path-effect5"
       is_visible="true"
       lpeversion="1"
       nbiter_approxstrokes="3"
       parallel_offset="0.2;1"
       strokelength="70"
       strokelength_rdm="0.3;1"
       strokeoverlap="0.5"
       strokeoverlap_rdm="0.5;1"
       ends_tolerance="0.1;1"
       tremble_size="0.8;1"
       tremble_frequency="3"
       nbtangents="2"
       tgt_places_rdmness="0.5;1"
       tgtlength="5"
       tgtlength_rdm="0.3;1"
       tgtscale="10" />
    <inkscape:path-effect
       effect="sketch"
       id="path-effect1"
       is_visible="true"
       lpeversion="1"
       nbiter_approxstrokes="3"
       parallel_offset="0.2;1"
       strokelength="70"
       strokelength_rdm="0.3;1"
       strokeoverlap="0.5"
       strokeoverlap_rdm="0.5;1"
       ends_tolerance="0.1;1"
       tremble_size="0.8;1"
       tremble_frequency="3"
       nbtangents="2"
       tgt_places_rdmness="0.5;1"
       tgtlength="5"
       tgtlength_rdm="0.3;1"
       tgtscale="10" />
  </defs>
  <sodipodi:namedview
     id="namedview1"
     pagecolor="#ffffff"
     bordercolor="#000000"
     borderopacity="0.25"
     inkscape:showpageshadow="2"
     inkscape:pageopacity="0.0"
     inkscape:pagecheckerboard="0"
     inkscape:deskcolor="#d1d1d1"
     inkscape:zoom="1.72"
     inkscape:cx="125"
     inkscape:cy="65.116279"
     inkscape:window-width="1440"
     inkscape:window-height="831"
     inkscape:window-x="0"
     inkscape:window-y="0"
     inkscape:window-maximized="1"
     inkscape:current-layer="svg1"
     showgrid="false" />
  <g
     id="g1">
    <path
       id="ellipse1"
       style="fill:#cccccc;fill-opacity:1;stroke:none;stroke-width:0.6;stroke-dasharray:none"
       d="M 23.539818,35.260245 A 117.6,58.8 0 0 0 7.47224,64.893448 a 117.6,58.8 0 0 0 117.6,58.800002 117.6,58.8 0 0 0 107.53242,-35.1668 117.6,58.8 0 0 1 -101.53242,29.1668 117.6,58.8 0 0 1 -117.6,-58.800002 117.6,58.8 0 0 1 10.067578,-23.633203 z" />
    <path
       style="fill:none;fill-opacity:0.12549;stroke:#000000;stroke-width:1.66666667;stroke-dasharray:none"
       id="path1"
       inkscape:path-effect="#path-effect4"
       sodipodi:type="arc"
       sodipodi:cx="200"
       sodipodi:cy="100"
       sodipodi:rx="196"
       sodipodi:ry="98"
       d="m 395.60989,104.35032 c -0.30732,4.77894 -1.5625,9.6729 -3.59167,14.51491 -1.06083,2.53139 -2.32962,5.04023 -3.77612,7.50213 -2.17372,3.6996 -4.74332,7.31972 -7.74947,10.78647 -2.10806,2.43106 -4.44379,4.80176 -7.02948,7.08382 -2.30486,2.03421 -4.79174,4.22943 -7.24167,6.31612 m 14.71233,-12.49392 c -4.83074,5.39717 -10.41027,10.73481 -16.84616,15.23359 -5.46425,3.81959 -12.63229,8.92531 -19.39065,12.93312 0,0 0,0 0,0 -1.01503,0.60193 -2.04767,1.18796 -3.09781,1.76133 m 9.99616,-5.63633 c -4.38164,2.56023 -8.9125,5.15302 -13.35087,7.46476 -2.03885,1.06195 -4.09949,2.08661 -6.17762,3.04999 -6.15086,2.85144 -14.30757,6.27118 -22.62751,9.63154 0,0 0,1e-5 0,1e-5 -1.88246,0.7603 -3.69753,1.40345 -5.47083,1.95619 m 14.85293,-6.48488 c -7.16706,2.68373 -14.20598,5.07541 -21.3215,7.09709 -6.53724,1.85737 -14.30113,3.91823 -21.74893,5.76132 7.3e-4,-1.8e-4 -0.76875,0.18974 -0.76802,0.18956 -6.39469,1.57412 -13.02116,2.71603 -20.11168,4.06382 m 30.56775,-6.55817 c -3.10939,0.80035 -6.31812,1.48489 -9.60239,2.07376 -4.40719,0.79021 -8.92387,1.40342 -13.48699,1.89409 -7.72268,0.83041 -15.38751,2.1227 -23.38265,2.56401 -4.28597,0.23657 -8.42096,0.6652 -12.52075,1.13097 m 23.07111,-1.42289 c -7.39707,1.04418 -15.37031,1.66258 -23.20345,2.07479 -7.7282,0.40669 -15.76988,0.53276 -24.07909,0.1049 0,0 0,0 0,0 -0.53482,-0.0275 -1.06544,-0.0529 -1.59228,-0.0764 -1.90152,-0.0849 -3.75357,-0.1462 -5.57541,-0.20114 m 15.54943,-0.071 c -3.53499,0.12454 -7.11689,0.28913 -10.68387,0.51038 -4.06842,0.25236 -8.10823,0.57787 -12.02998,1.00028 0,0 0,0 0,0 -7.3847,0.7954 -15.50577,-1.21535 -22.96009,-2.88059 -1.81725,-0.40596 -3.66926,-0.68745 -5.54374,-0.88618 m 13.93405,3.7213 c -7.83747,-0.67939 -15.7379,-1.29644 -23.82581,-2.30697 -8.22129,-1.0272 -15.4366,-2.42955 -22.78397,-4.21302 -0.80401,-0.19517 -1.60734,-0.38434 -2.4088,-0.5686 m 14.03318,2.30209 c -4.07357,-0.63874 -8.1619,-1.51124 -12.19991,-2.55791 -3.58864,-0.93019 -7.14284,-1.99933 -10.61895,-3.16745 -7.72931,-2.59737 -15.39472,-3.96308 -22.852995,-6.2416 -5.956362,-1.81969 -11.472077,-3.787 -16.599897,-5.67038 m 25.294792,9.30553 c -7.655996,-2.17922 -14.753426,-4.87631 -21.148966,-7.87709 -5.828392,-2.73469 -12.539799,-5.17231 -18.804079,-7.85686 -1.132731,-0.48543 -2.250161,-0.9775 -3.350011,-1.48041 -5.630436,-2.57451 -10.201491,-5.62732 -14.259706,-8.76765 m 23.770478,12.96855 c -1.998282,-0.9458 -3.969711,-1.91576 -5.913286,-2.91607 -5.196012,-2.67427 -10.125148,-5.53094 -14.758385,-8.65481 0,0 -3e-6,0 -3e-6,0 -7.181714,-4.84214 -13.201364,-9.24549 -18.786831,-14.70045 -2.828777,-2.76268 -5.316542,-5.2953 -7.574973,-7.84969 M 35.18843,153.0907 c -6.396558,-5.06466 -11.869652,-10.69953 -16.388306,-17.01372 -0.129377,-0.18079 -0.257934,-0.36208 -0.385668,-0.54388 0,0 -1e-6,0 -1e-6,0 C 13.61966,128.70884 10.299379,124.22502 8.0010179,118.80533 7.7362157,118.18091 7.4896417,117.55258 7.2612523,116.91747 5.6124466,112.33241 4.6137282,106.66012 4.5793141,101.04593 m 5.9403869,24.16639 C 9.3313265,123.03027 8.2653305,120.82109 7.3406616,118.60737 5.3088237,113.743 3.978069,108.90087 3.4925273,104.28766 3.3717659,103.14029 3.3106765,101.94529 3.3075795,100.71515 3.2921581,94.589586 4.7191078,87.560647 7.3792856,81.10448 c 0,0 4e-7,-10e-7 4e-7,-10e-7 -3.4e-6,8e-6 0.04449,-0.107741 0.044487,-0.107733 C 8.9251755,77.368684 10.685604,73.910322 12.752276,70.58371 M 4.8091871,91.10787 c 0.6583015,-3.115496 1.5902148,-6.171997 2.8078387,-9.18555 1.6669715,-4.125665 3.8680162,-8.167153 6.6431232,-12.192347 1.463366,-2.122561 3.045397,-4.198073 4.754318,-6.223075 3.178422,-3.766303 6.807923,-7.373038 10.982897,-10.823648 1.213841,-1.003239 2.455594,-2.016493 3.71619,-3.027185 m -10.710252,8.257436 c 4.970638,-5.146349 11.144365,-10.652789 18.32727,-16.136148 6.608481,-5.044849 12.378877,-8.189092 19.368838,-12.167366 0.221273,-0.125935 0.444313,-0.250933 0.669088,-0.375018 2.183479,-1.205365 4.522305,-2.319902 6.984911,-3.367038 M 51.57924,35.809497 c 2.83115,-1.534368 5.854354,-3.108274 8.998936,-4.639226 3.917237,-1.907123 8.102997,-3.786909 12.436398,-5.467617 7.249344,-2.811653 14.298437,-5.798382 22.08557,-8.632276 10e-7,0 2e-6,-1e-6 3e-6,-1e-6 5.584053,-2.032147 11.087253,-3.432155 16.841333,-4.735913 m -25.41569,7.612762 c 7.203289,-2.55238 14.31584,-4.659323 21.5177,-6.276034 5.21836,-1.171449 11.01988,-2.860552 17.05718,-4.6401523 1.95343,-0.5758105 3.93629,-1.1622565 5.88314,-1.72747 7.1118,-2.0647048 13.98006,-2.486717 21.23805,-3.1821324 M 121.18167,10.00336 c 1.7449,-0.3693255 3.47674,-0.7160924 5.20066,-1.038002 5.8604,-1.0943252 11.64401,-1.9045219 17.61874,-2.3449502 7.37281,-0.5434887 14.59074,-1.9584997 21.96355,-2.5019884 6.47442,-0.4668814 14.64105,-1.0509379 22.34217,-1.2883014 m -33.57743,0.2347899 c 7.46062,-1.1568505 15.39163,-1.5555159 23.27575,-1.9355084 7.3212,-0.35286141 14.94369,-0.43051835 22.91109,-0.073473 0.49392,0.022134 0.98914,0.045938 1.48568,0.071448 3.95976,0.203438 7.50747,0.2518215 10.85462,0.2707976 m -20.93632,1.5520858 c 2.72593,-0.022216 5.42147,-0.034679 8.10627,-0.026553 5.16039,0.01562 10.27838,0.1072915 15.51234,0.3516107 0,0 10e-6,0 10e-6,0 8.01506,0.3741398 15.24528,0.4407314 22.25469,0.4132889 5.0042,-0.019592 10.80553,1.0378089 16.57743,2.2937246 M 227.92317,4.1000198 c 7.60383,0.6775163 15.91805,1.2183136 24.22286,1.9167154 8.43449,0.7093068 15.13584,2.3413131 21.7377,3.7641678 -3e-5,-4.6e-6 0.0909,0.019605 0.0908,0.0196 5.77293,1.246662 12.69332,2.974279 19.35221,4.991736 M 264.55456,7.0251638 c 3.49458,0.6099184 6.9825,1.2752383 10.43941,1.9909833 4.19119,0.8677775 8.33433,1.8091529 12.39073,2.8159769 7.74142,1.921467 15.11775,3.899105 22.06217,5.913902 6.87066,1.993393 13.97963,5.051336 20.22936,7.900684 M 299.25654,13.949214 c 7.46236,2.191369 15.10901,4.800092 22.1957,7.611285 6.19427,2.457178 11.84335,5.280342 17.09467,8.509876 1.20858,0.743272 2.39523,1.507571 3.56124,2.293014 5.71952,3.852761 11.73964,6.656317 17.24134,9.851644 M 333.20313,26.997126 c 1.9549,0.898693 3.87621,1.822457 5.7631,2.770313 5.26618,2.645406 10.2635,5.478114 14.97048,8.474646 0,0 0,10e-7 0,10e-7 7.14555,4.548957 12.97208,8.972229 17.97635,13.755666 3.14094,3.002336 6.27671,6.143613 9.23469,9.437773 2.35216,2.619489 4.53586,5.273987 6.47719,7.957233 M 364.19435,45.065114 c 6.63815,4.937337 11.85191,10.233177 15.68181,15.629904 0.23905,0.336859 0.48259,0.676688 0.72938,1.018717 4.47718,6.205043 9.16297,12.141201 12.64077,19.274553 0.0641,0.131465 0.12759,0.26302 0.19048,0.394666 0,10e-7 0,10e-7 0,10e-7 2.65644,5.561169 3.46884,10.542638 3.37634,15.365761 M 387.9497,71.482229 c 1.60175,2.719909 2.97577,5.548685 4.09418,8.430399 1.72472,4.443948 2.83815,9.003369 3.26881,13.527895 0.18356,1.928479 0.28377,3.870797 0.29258,5.830542 0.0265,5.900575 -0.77635,11.924715 -2.59182,18.103855 -0.20282,0.69031 -0.42152,1.368 -0.65565,2.03407 -0.1389,0.39512 -0.28321,0.78611 -0.43284,1.17319 m 4.08064,-13.6888 c -0.68754,4.07988 -1.77626,8.40207 -3.35621,12.82849 -1.18278,3.31369 -2.64931,6.70805 -4.43359,10.08198 -1.83908,3.47755 -4.04551,6.51045 -6.62523,9.33784 -2.58055,2.82831 -5.44022,5.35454 -8.68012,8.018 -3.59506,2.95543 -7.23333,6.10771 -11.06894,9.20394 m 17.60978,-17.89426 c -4.76221,5.40886 -10.68987,10.62108 -17.6747,15.36887 -5.99678,4.07618 -12.82449,8.69368 -20.01566,12.60462 0,0 0,0 0,0 -1.30735,0.71101 -2.6196,1.40763 -3.94078,2.09415 -0.42007,0.21829 -0.84089,0.43547 -1.2626,0.6517 m 13.18923,-5.90706 c -4.06986,2.25311 -7.71196,4.38184 -11.866,6.75919 -2.59918,1.4875 -5.26955,2.99615 -7.93902,4.42674 -6.38304,3.42073 -13.91426,5.63995 -21.53459,7.8786 0,0 0,0 0,0 -3.77017,1.10757 -7.67913,2.34389 -11.98408,3.68067 m 20.31392,-7.16102 c -6.92675,2.70215 -14.09496,4.8688 -21.09574,6.69811 -5.79302,1.51372 -13.12712,3.19674 -20.35252,4.37951 -0.97319,0.1593 -1.94541,0.30969 -2.9123,0.44939 -7.82155,1.13013 -14.94153,2.9793 -23.1257,4.73949 m 35.07219,-6.53688 c -2.74022,0.65665 -5.54732,1.25383 -8.40299,1.79069 -4.75288,0.89353 -9.63015,1.618 -14.5342,2.1696 -7.62244,0.85737 -15.25869,2.12251 -22.96771,2.66878 -3.5281,0.25001 -7.05019,0.54615 -10.60409,0.83161 m 18.83503,-1.10512 c -7.78162,0.91532 -15.40859,1.68129 -23.20419,2.2255 -7.72888,0.53956 -15.4491,1.00846 -23.08787,1.62032 -0.064,0.005 -0.12801,0.0102 -0.19203,0.0151 -3.65088,0.28169 -7.34357,0.26222 -11.01895,0.14247 m 20.39141,-1.93211 c -3.2057,0.0872 -6.3391,0.1669 -9.38988,0.24379 -4.40659,0.11108 -8.61424,0.21575 -12.73585,0.33146 0,0 -1e-5,0 -1e-5,0 -6.97797,0.19589 -15.65987,-0.71599 -23.37369,-1.30485 -5.86561,-0.44776 -11.71219,-1.18695 -17.53235,-2.02026 m 27.37605,3.52519 c -8.14151,-0.81965 -15.94257,-1.25019 -24.08408,-2.06984 -8.35856,-0.85102 -15.44016,-2.36992 -22.70117,-3.97263 -0.59341,-0.13098 -1.18676,-0.26314 -1.77993,-0.39667 -5.61932,-1.26498 -11.14719,-2.63701 -16.42955,-4.26097 m 26.48443,5.32157 c -4.03138,-0.66578 -8.08327,-1.4247 -12.09062,-2.24992 -3.63797,-0.74916 -7.24548,-1.55425 -10.77647,-2.39641 -7.75557,-1.84972 -14.856862,-3.95403 -21.287759,-6.19494 -4.470472,-1.55778 -9.494966,-3.35728 -14.543486,-5.33629 m 25.170935,7.43126 c -7.947004,-2.36713 -14.758829,-4.82477 -21.251247,-7.73053 -5.587422,-2.50073 -12.194581,-4.83479 -17.893607,-6.96461 -1.267453,-0.47367 -2.509936,-0.94387 -3.728421,-1.41676 -5.661838,-2.19731 -10.782542,-5.85557 -15.308414,-9.40547 m 23.206767,12.94415 c -1.931806,-0.80923 -3.836283,-1.67919 -5.709241,-2.58872 -5.350381,-2.59823 -10.667972,-5.63265 -15.64573,-8.57449 0,0 -10e-7,-1e-5 -10e-7,-1e-5 -7.476818,-4.41878 -12.879093,-9.359 -17.571618,-14.56575 -0.744808,-0.82642 -1.510611,-1.64039 -2.283946,-2.44095 m 9.007725,10.91959 c -6.605593,-5.0763 -11.851655,-10.54754 -16.227757,-16.52464 -0.121275,-0.16565 -0.241887,-0.3317 -0.36184,-0.49814 0,0 -1e-6,0 -1e-6,0 -4.666365,-6.475 -8.2662379,-11.69217 -10.8118791,-17.78488 -0.2937965,-0.70317 -0.5702722,-1.41161 -0.8291027,-2.1271 C 4.4487057,111.42204 3.4275693,105.69912 3.3497196,99.988955 3.3268779,98.313554 3.3851451,96.639808 3.523444,94.972866 m 8.501855,32.301254 c -1.522928,-2.62078 -2.7740892,-5.30502 -3.7480356,-8.02003 -1.6385617,-4.56772 -2.4961168,-9.23172 -2.5466585,-13.86462 -0.01911,-1.75166 -0.036003,-3.48562 -0.023359,-5.24822 0.042361,-5.904843 0.4205233,-11.929356 2.0956545,-17.784812 0,0 3e-7,-10e-7 3e-7,-10e-7 C 7.9412769,81.872742 8.0927483,81.390145 8.2569458,80.908599 10.183673,75.258031 13.79838,69.902945 18.445966,64.52996 M 4.303102,93.723184 c 0.5699526,-3.988847 1.5759557,-8.000604 2.9864062,-12.04113 1.1883549,-3.404289 2.6556002,-6.806047 4.3750848,-10.219963 1.558768,-3.094826 3.553181,-5.961478 5.881894,-8.736628 2.63078,-3.135125 5.532995,-5.979219 8.654713,-8.976655 1.046158,-1.004507 2.161434,-1.992053 3.342188,-2.961127 m -9.198276,8.393425 c 4.740663,-5.554464 10.691305,-10.370768 17.667631,-14.747146 6.138413,-3.850741 12.525031,-8.658405 19.623068,-12.981596 0,0 2e-6,-1e-6 2e-6,-1e-6 1.046423,-0.637344 2.106485,-1.238646 3.180049,-1.809325 3.415752,-1.815724 6.911412,-3.292244 10.506619,-4.644059 M 50.604369,38.196117 c 3.594012,-2.118935 7.544402,-4.39811 11.626905,-6.700701 2.875573,-1.621864 5.856897,-3.277987 8.846441,-4.907386 6.835303,-3.725464 13.993117,-5.610768 21.780604,-7.821522 1e-6,0 2e-6,0 2e-6,0 6.000543,-1.703466 12.115849,-3.694231 18.293119,-5.396246 m -29.252757,7.818521 c 7.194765,-2.761451 14.721377,-5.177237 23.089407,-7.598483 7.26767,-2.102862 13.35889,-3.6243083 19.81923,-5.1926936 0.12779,-0.031024 1.7747,-0.4299355 1.90249,-0.4609595 1.847,-0.4468938 3.8106,-0.8398056 5.85963,-1.1873312 m -15.76206,4.9614183 c 2.35252,-0.594987 4.75835,-1.135274 7.22094,-1.635635 5.30922,-1.0787528 10.81522,-1.958838 16.58418,-2.8075948 8.16686,-1.2015478 15.21309,-2.2068075 22.71609,-2.9961736 2.21341,-0.2328648 4.496,-0.4356783 6.82712,-0.6130214 m -14.07575,-0.052522 c 7.65719,-0.7481732 15.14157,-1.5184352 22.30524,-1.8146496 6.78827,-0.2806916 14.8216,-0.3428432 22.45948,0.2030023 0.37792,0.027008 0.75486,0.055504 1.13062,0.085534 1.33081,0.1063552 2.65481,0.1788414 3.9744,0.226027 m -15.90579,0.088031 c 2.85543,-0.080884 5.75255,-0.1283018 8.68991,-0.1499621 5.05389,-0.037268 10.229,0.00173 15.50426,0.077722 0,0 0,0 0,0 8.35701,0.1203917 15.35902,0.6483462 22.48216,1.0463904 4.78574,0.2674293 10.02327,1.1044939 15.20911,2.1840226 M 228.78702,3.4834194 c 7.62036,0.7758588 15.80478,1.2919481 23.88808,2.159213 8.28852,0.8892823 15.64077,1.9248606 23.39247,2.6237745 0.1771,0.015968 0.35374,0.032993 0.52994,0.051045 7.39102,0.7572202 14.2779,3.3789361 20.72512,5.5621231 m -32.7369,-6.2243112 c 3.97153,0.7507538 7.90877,1.4422142 11.73556,2.1222575 3.79863,0.6750417 7.50585,1.3418167 11.23701,2.0751237 7.74416,1.522006 15.18578,4.064841 21.98974,6.394035 5.36542,1.836744 10.9295,4.103189 16.34961,6.736377 m -27.73122,-8.906328 c 7.69566,2.479315 14.91613,4.638981 22.17844,7.375236 6.17073,2.324975 11.95794,4.914534 17.29625,7.537716 1.21624,0.597647 2.41455,1.199714 3.59339,1.803533 6.94274,3.556172 13.88133,7.799796 19.83129,11.903074 M 331.49402,27.259429 c 2.18676,1.038513 4.62099,2.18509 6.80776,3.223603 4.96397,2.356645 9.49211,4.55168 13.96543,6.931815 0,0 0,2e-6 0,2e-6 6.997,3.722928 13.48731,9.157761 18.86593,13.985201 3.73956,3.35634 7.09546,6.832013 10.09906,10.450012 1.06948,1.288252 2.09391,2.594126 3.07403,3.917862 m -20.6046,-19.768879 c 6.88359,5.080047 12.43892,10.348653 17.22186,15.920772 0.29414,0.342669 0.58339,0.686153 0.8678,1.03047 4.95444,5.997983 8.47261,12.290551 10.72504,18.870408 0.046,0.134341 0.0915,0.268806 0.13638,0.403397 0,0 0,0 0,0 2.1036,6.300658 3.26862,11.932765 3.03978,17.52119 m -6.54222,-26.233164 c 1.73379,3.024441 3.17054,5.903931 4.30989,8.722254 1.61636,3.998297 2.61892,7.840528 2.98359,11.636559 0.1738,1.809135 0.25776,3.770084 0.23225,5.825986 -0.069,5.557613 -0.94374,11.863593 -2.99548,17.618903 -0.29,0.81347 -0.59664,1.6205 -0.92041,2.42185 -1.28748,3.18656 -2.84435,6.28017 -4.70623,9.3414 m 8.0771,-23.15073 c -0.6374,4.27997 -1.74241,8.70336 -3.39782,13.07191 -1.10607,2.91889 -2.4641,5.82826 -4.09486,8.63242 -1.89381,3.2565 -4.24605,6.4975 -7.02394,9.67891 -2.46497,2.82304 -5.26168,5.59493 -8.3523,8.27209 -3.12206,2.7044 -6.35137,5.45553 -9.59587,8.01073 m 14.6632,-13.34779 c -4.63257,5.71515 -10.06514,10.6439 -16.01515,15.69644 -5.22475,4.43667 -12.57547,8.24508 -20.39845,11.60536 0,0 0,0 -1e-5,0 -1.49885,0.64382 -2.98555,1.32109 -4.4827,2.02592 -1.04243,0.49077 -2.08231,0.99128 -3.13202,1.50132 m 17.34984,-7.02975 c -4.04948,2.40689 -8.28818,4.67697 -12.82806,6.8249 -2.80354,1.32642 -5.72908,2.60974 -8.81496,3.85793 -7.29197,2.94947 -13.961,5.78669 -20.57351,7.96974 0,0 0,0 0,0 -5.94145,1.96151 -13.79379,4.21726 -21.59076,6.06031 M 319.7007,177.6071 c -6.9777,2.60467 -14.69895,5.18221 -22.89005,7.45478 -7.55654,2.09651 -14.34584,3.47931 -21.63938,4.33025 -0.24597,0.0287 -0.49255,0.0568 -0.73979,0.0843 -3.18232,0.35408 -6.40226,0.96031 -9.64874,1.65722 m 19.8168,-2.743 c -2.77209,0.61053 -5.54187,1.23975 -8.35955,1.88407 -4.72201,1.07978 -9.63583,2.21568 -14.49134,3.26932 -7.60923,1.65119 -15.62182,2.02697 -24.2248,2.37477 -3.81823,0.15436 -7.28927,0.43295 -10.63483,0.72526 m 18.32383,-1.42368 c -8.00174,0.69508 -15.26535,1.86659 -23.12343,2.83151 -7.68469,0.94362 -15.2147,0.43653 -22.41307,-0.0988 -4e-5,-1e-5 -0.079,-0.006 -0.0791,-0.006 -2.61379,-0.19142 -5.39035,-0.24867 -8.23963,-0.24879 m 16.83068,1.20105 c -3.2144,0.129 -6.35883,0.12829 -9.47009,0.0246 -4.59662,-0.15323 -9.11686,-0.53117 -13.67416,-1.04603 0,0 -1e-5,0 -1e-5,0 -7.69327,-0.86913 -15.31809,-0.54335 -22.48558,-0.80156 -4.96284,-0.17878 -10.55118,-1.05196 -16.17508,-2.12519 m 26.01189,1.44308 c -7.69294,-0.39642 -15.65693,-1.14111 -23.23759,-1.74577 -7.80029,-0.62218 -15.75803,-2.62098 -23.59038,-4.66227 -0.49911,-0.13007 -0.99517,-0.25692 -1.48834,-0.38093 -4.55703,-1.14582 -9.06086,-2.0936 -13.34077,-3.07042 m 24.42765,5.75214 c -3.74921,-0.5157 -7.31971,-1.31664 -10.74101,-2.3058 -3.80828,-1.10103 -7.45368,-2.44189 -10.95858,-3.89228 -6.97222,-2.88521 -15.251743,-3.9867 -22.460902,-6.21917 -6.423874,-1.9893 -13.058342,-4.43029 -19.396729,-6.80415 m 29.254491,12.09374 c -7.798982,-2.06683 -15.385141,-5.05078 -22.811758,-8.23653 -6.280389,-2.69405 -12.286905,-4.92725 -17.454871,-6.98185 -1.270196,-0.50499 -2.526607,-1.01268 -3.78505,-1.53489 -2.026273,-0.84083 -4.014442,-1.88839 -5.950268,-3.06602 m 14.135197,5.25616 c -1.600294,-0.71805 -3.151101,-1.43558 -4.654685,-2.14942 -5.571208,-2.64497 -10.688321,-5.33289 -15.306218,-7.86461 0,0 -2e-6,0 -2e-6,0 -6.51168,-3.56997 -13.340326,-9.47279 -18.617931,-14.54335 -1.143415,-1.09856 -2.231951,-2.196 -3.269522,-3.29857 m 10.489752,9.41062 C 27.46074,147.51624 22.400297,142.61308 18.189518,137.85871 17.799268,137.41808 17.415083,136.9773 17.036872,136.53667 12.707089,131.49233 9.2504916,125.52731 6.8508735,119.86184 6.3833906,118.75812 5.9529584,117.65931 5.5599668,116.57093 3.7443367,111.54261 3.0747744,106.11111 3.3812235,100.65673 3.408625,100.16902 3.443831,99.680814 3.486736,99.192329 m 6.95657,25.989921 C 9.3731334,123.19613 8.4408709,121.20453 7.6397074,119.2052 5.4723305,113.79644 4.260275,108.32106 3.8880323,102.74887 c -0.063495,-0.95048 -0.094745,-1.89513 -0.09419,-2.834175 0.00381,-6.447176 1.5050566,-12.626353 4.3733824,-18.633675 0.1301379,-0.272556 0.2630783,-0.544747 0.3988102,-0.816593 0.6124705,-1.226664 1.25922,-2.486602 1.9431413,-3.768638 M 4.3140572,88.772015 C 4.9676188,85.970607 5.8581005,83.234499 6.9972748,80.577214 8.7961785,76.381017 11.221593,72.366609 14.3298,68.602827 c 1.391309,-1.68476 2.842437,-3.480249 4.372066,-5.346285 3.249704,-3.964402 7.129,-8.593138 11.405943,-12.645402 1.793902,-1.699664 3.678511,-3.237472 5.667659,-4.653778 M 23.830602,56.129499 C 28.913514,50.887322 35.045616,46.005998 42.274174,41.569476 48.65679,37.65215 54.576575,33.354472 60.846046,29.348548 c -2.73e-4,1.75e-4 0.149634,-0.0955 0.149361,-0.09532 0.915847,-0.583812 1.88662,-1.140633 2.905334,-1.674571 m -11.114195,8.423192 c 2.689764,-1.423116 5.646577,-2.999883 8.388855,-4.434512 3.885757,-2.032842 7.928684,-4.091462 12.027622,-5.977252 6.73954,-3.100648 14.472973,-5.8755 23.161231,-9.141918 0,0 2e-6,-10e-7 2e-6,-10e-7 3.118111,-1.172278 6.041684,-2.018993 8.913334,-2.660225 m -17.379966,7.20166 c 7.201464,-2.519518 14.338446,-4.916307 21.452346,-7.195127 4.75258,-1.522409 9.99398,-2.680665 15.31681,-3.758741 2.03387,-0.4119348 4.90567,-0.9728859 6.93953,-1.3848204 2.26205,-0.4558814 4.64611,-0.8591212 7.12529,-1.2145601 M 122.15007,8.899088 c 0.70642,-0.1482041 1.41399,-0.2947378 2.12286,-0.4395594 6.89391,-1.4084305 13.92671,-2.6585205 21.27231,-3.7166448 7.91189,-1.1396963 15.35389,-1.7877447 23.17979,-2.0644214 7.12035,-0.2517326 14.00631,-0.698313 20.446,-0.5118749 m -31.7199,1.8891138 C 165.201,3.2667719 172.9687,2.5955752 180.91142,2.2085189 187.2583,1.899229 193.46252,1.6415985 199.6907,1.4202276 c 1.50814,-0.053604 3.01881,-0.1051222 4.53423,-0.1547561 4.00857,-0.1312903 7.93904,-0.056468 11.77743,0.082628 M 194.6505,2.824146 c 1.58474,0.025363 3.19377,0.034827 4.82289,0.034268 6.19701,-0.00213 12.67964,-0.1491033 19.17493,-0.1166466 0,0 0,0 0,10e-8 8.24916,0.041221 15.40381,1.0499973 22.65312,2.0099973 1.4352,0.1900579 2.90381,0.3898501 4.39855,0.6025368 M 232.56535,2.9866718 c 7.89661,0.8119022 15.31602,1.5754222 22.56124,2.782475 6.64766,1.1075019 12.73911,1.9865211 19.38677,3.0940229 1.0808,0.1812152 2.14953,0.3646663 3.20375,0.5512726 0,0 0,2e-7 0,2e-7 3.37928,0.5981635 6.832,1.4450735 10.25925,2.4272395 M 269.4409,7.5292003 c 1.97898,0.3688155 3.9178,0.7650374 5.81788,1.1876316 5.60932,1.2475632 10.8806,2.7249091 15.84639,4.4043701 6.83478,2.311568 15.59047,3.884735 22.96873,5.454127 5.77642,1.228674 10.84693,3.826019 15.48121,6.451592 m -24.24224,-6.627899 c 7.716,2.396391 14.89036,4.918279 21.57805,7.492266 4.03153,1.551673 7.97282,3.373324 11.61613,5.217617 2.89538,1.465676 5.65661,2.973196 8.18124,4.411922 5.01156,2.855962 10.86344,6.540741 16.18056,10.277367 m -24.4787,-15.174357 c 0.001,7.34e-4 0.24899,0.134254 0.25035,0.134988 7.26914,3.916733 13.72078,7.207134 20.08208,11.257743 0,0 0,2e-6 0,2e-6 6.90697,4.398064 12.7321,9.984031 17.46395,15.495133 0.45851,0.534013 1.61557,1.875356 2.07407,2.409369 m -8.89083,-10.605129 c 4.6408,3.75425 8.60364,7.902314 12.0079,12.15363 1.41148,1.762693 2.7395,3.559063 3.98811,5.37128 3.11435,4.520134 5.36881,8.821915 6.89365,13.1594 0.87929,2.501211 1.51384,5.010535 1.919,7.554603 0.15535,0.975427 0.30584,1.958813 0.4477,2.95491 M 391.356,80.638403 c 0.1987,0.476719 0.38987,0.955509 0.57338,1.43622 2.38079,6.236734 3.46317,12.773247 3.00728,19.308787 -0.0508,0.72861 -0.12077,1.45723 -0.21019,2.18541 -0.71059,5.78643 -1.61637,11.22999 -3.39435,16.27886 -0.5711,1.62174 -1.23562,3.21161 -2.019,4.76248 -0.55922,1.10711 -1.19914,2.2711 -1.91209,3.48013 M 25.071787,144.32343 19.589249,138.43861 M 286.49403,12.036837 l 6.94769,1.794819"
       transform="matrix(0.6,0,0,0.6,5.07224,4.8934483)" />
    <g
       id="g7"
       transform="matrix(0.6,0,0,0.6,5.07224,14.893465)">
      <text
         xml:space="preserve"
         style="font-weight:bold;font-size:66.6667px;font-family:Sans;-inkscape-font-specification:'Sans, Bold';text-align:center;text-anchor:middle;fill:#808080;fill-opacity:0.12549;stroke:none;stroke-width:1;stroke-dasharray:none"
         x="200.57999"
         y="72.133308"
         id="text4"><tspan
           sodipodi:role="line"
           x="200.57999"
           y="72.133308"
           style="font-style:normal;font-variant:normal;font-weight:normal;font-stretch:normal;font-size:40px;font-family:Quicksand;-inkscape-font-specification:'Quicksand, Normal';font-variant-ligatures:normal;font-variant-caps:normal;font-variant-numeric:normal;font-variant-east-asian:normal;fill:#000000;fill-opacity:1"
           id="tspan6">Fabrik</tspan></text>
      <text
         xml:space="preserve"
         style="font-weight:bold;font-size:66.6667px;font-family:Sans;-inkscape-font-specification:'Sans, Bold';text-align:center;text-anchor:middle;fill:#808080;fill-opacity:0.12549;stroke:none;stroke-width:1;stroke-dasharray:none"
         x="200.57999"
         y="122.1333"
         id="text7"><tspan
           sodipodi:role="line"
           x="200.57999"
           y="122.1333"
           style="font-style:normal;font-variant:normal;font-weight:normal;font-stretch:normal;font-size:40px;font-family:Quicksand;-inkscape-font-specification:'Quicksand, Normal';font-variant-ligatures:normal;font-variant-caps:normal;font-variant-numeric:normal;font-variant-east-asian:normal;fill:#000000;fill-opacity:1"
           id="tspan7">errichten</tspan></text>
    </g>
  </g>
</svg>
