<?xml version="1.0" encoding="UTF-8" standalone="no"?>
<svg
   height="130"
   width="250"
   version="1.1"
   id="svg1"
   sodipodi:docname="usecase-10.svg"
   inkscape:version="1.3.2 (091e20ef0f, 2023-11-25, custom)"
   xmlns:inkscape="http://www.inkscape.org/namespaces/inkscape"
   xmlns:sodipodi="http://sodipodi.sourceforge.net/DTD/sodipodi-0.dtd"
   xmlns="http://www.w3.org/2000/svg"
   xmlns:svg="http://www.w3.org/2000/svg">
  <defs
     id="defs1">
    <inkscape:path-effect
       effect="sketch"
       id="path-effect4"
       is_visible="true"
       lpeversion="1"
       nbiter_approxstrokes="3"
       parallel_offset="1;91752820"
       strokelength="70"
       strokelength_rdm="0.3;1"
       strokeoverlap="0.5"
       strokeoverlap_rdm="0.5;1"
       ends_tolerance="0.1;1"
       tremble_size="0.8;1"
       tremble_frequency="3"
       nbtangents="2"
       tgt_places_rdmness="0.5;1"
       tgtlength="5"
       tgtlength_rdm="0.3;1"
       tgtscale="10" />
    <inkscape:path-effect
       effect="sketch"
       id="path-effect3"
       is_visible="true"
       lpeversion="1"
       nbiter_approxstrokes="3"
       parallel_offset="2;1"
       strokelength="70"
       strokelength_rdm="0.3;1"
       strokeoverlap="0.5"
       strokeoverlap_rdm="0.5;1"
       ends_tolerance="0.1;1"
       tremble_size="0.8;1"
       tremble_frequency="3"
       nbtangents="2"
       tgt_places_rdmness="0.5;1"
       tgtlength="5"
       tgtlength_rdm="0.3;1"
       tgtscale="10" />
    <inkscape:path-effect
       effect="sketch"
       id="path-effect2"
       is_visible="true"
       lpeversion="1"
       nbiter_approxstrokes="3"
       parallel_offset="2;1"
       strokelength="70"
       strokelength_rdm="0.3;1"
       strokeoverlap="0.5"
       strokeoverlap_rdm="0.5;1"
       ends_tolerance="0.1;1"
       tremble_size="0.8;1"
       tremble_frequency="3"
       nbtangents="2"
       tgt_places_rdmness="0.5;1"
       tgtlength="5"
       tgtlength_rdm="0.3;1"
       tgtscale="10" />
    <inkscape:path-effect
       effect="sketch"
       id="path-effect6"
       is_visible="true"
       lpeversion="1"
       nbiter_approxstrokes="3"
       parallel_offset="0.2;1"
       strokelength="70"
       strokelength_rdm="0.3;1"
       strokeoverlap="0.5"
       strokeoverlap_rdm="0.5;1"
       ends_tolerance="0.1;1"
       tremble_size="0.8;1"
       tremble_frequency="3"
       nbtangents="2"
       tgt_places_rdmness="0.5;1"
       tgtlength="5"
       tgtlength_rdm="0.3;1"
       tgtscale="10" />
    <inkscape:path-effect
       effect="sketch"
       id="path-effect5"
       is_visible="true"
       lpeversion="1"
       nbiter_approxstrokes="3"
       parallel_offset="0.2;1"
       strokelength="70"
       strokelength_rdm="0.3;1"
       strokeoverlap="0.5"
       strokeoverlap_rdm="0.5;1"
       ends_tolerance="0.1;1"
       tremble_size="0.8;1"
       tremble_frequency="3"
       nbtangents="2"
       tgt_places_rdmness="0.5;1"
       tgtlength="5"
       tgtlength_rdm="0.3;1"
       tgtscale="10" />
    <inkscape:path-effect
       effect="sketch"
       id="path-effect1"
       is_visible="true"
       lpeversion="1"
       nbiter_approxstrokes="3"
       parallel_offset="0.2;1"
       strokelength="70"
       strokelength_rdm="0.3;1"
       strokeoverlap="0.5"
       strokeoverlap_rdm="0.5;1"
       ends_tolerance="0.1;1"
       tremble_size="0.8;1"
       tremble_frequency="3"
       nbtangents="2"
       tgt_places_rdmness="0.5;1"
       tgtlength="5"
       tgtlength_rdm="0.3;1"
       tgtscale="10" />
  </defs>
  <sodipodi:namedview
     id="namedview1"
     pagecolor="#ffffff"
     bordercolor="#000000"
     borderopacity="0.25"
     inkscape:showpageshadow="2"
     inkscape:pageopacity="0.0"
     inkscape:pagecheckerboard="0"
     inkscape:deskcolor="#d1d1d1"
     inkscape:zoom="0.75716513"
     inkscape:cx="85.846531"
     inkscape:cy="315.65109"
     inkscape:window-width="1440"
     inkscape:window-height="831"
     inkscape:window-x="0"
     inkscape:window-y="0"
     inkscape:window-maximized="1"
     inkscape:current-layer="svg1"
     showgrid="false" />
  <path
     id="ellipse1"
     style="fill:#cccccc;fill-opacity:1;stroke:none;stroke-width:0.6;stroke-dasharray:none"
     d="M 23.539818,35.260245 A 117.6,58.8 0 0 0 7.47224,64.893448 a 117.6,58.8 0 0 0 117.6,58.800002 117.6,58.8 0 0 0 107.53242,-35.1668 117.6,58.8 0 0 1 -101.53242,29.1668 117.6,58.8 0 0 1 -117.6,-58.800002 117.6,58.8 0 0 1 10.067578,-23.633203 z" />
  <path
     style="fill:none;fill-opacity:0.12549;stroke:#000000;stroke-width:1.66666667;stroke-dasharray:none"
     id="path1"
     inkscape:path-effect="#path-effect4"
     sodipodi:type="arc"
     sodipodi:cx="200"
     sodipodi:cy="100"
     sodipodi:rx="196"
     sodipodi:ry="98"
     d="m 395.98489,105.28782 c -0.30732,4.77894 -1.5625,9.6729 -3.59167,14.51491 -1.06083,2.53139 -2.32962,5.04023 -3.77612,7.50213 -2.17372,3.6996 -4.74332,7.31972 -7.74947,10.78647 -2.10806,2.43106 -4.44379,4.80176 -7.02948,7.08382 -2.30486,2.03421 -4.79174,4.22943 -7.24167,6.31612 m 13.21233,-13.15799 c -4.83074,5.39717 -10.41027,10.73482 -16.84616,15.2336 -5.46425,3.81958 -12.63229,8.92531 -19.39065,12.93312 0,0 0,0 0,0 -1.01503,0.60193 -2.04767,1.18796 -3.09781,1.76133 m 12.01178,-6.49571 c -4.38163,2.56023 -8.91249,5.15302 -13.35086,7.46476 -2.03886,1.06195 -4.09949,2.08661 -6.17762,3.04999 -6.15087,2.85144 -14.30758,6.27119 -22.62752,9.63155 0,0 0,0 0,0 -1.88245,0.76031 -3.69752,1.40345 -5.47082,1.9562 m 12.60293,-6.20364 c -7.16706,2.68374 -14.20599,5.07541 -21.3215,7.09709 -6.53725,1.85737 -14.30114,3.91824 -21.74893,5.76132 7.3e-4,-1.8e-4 -0.76876,0.18974 -0.76803,0.18956 -6.39468,1.57412 -13.02115,2.71604 -20.11168,4.06383 m 31.98963,-5.35505 c -3.10939,0.80035 -6.31812,1.48489 -9.60239,2.07376 -4.40719,0.7902 -8.92387,1.40342 -13.48699,1.89409 -7.72268,0.83041 -15.38751,2.12269 -23.38265,2.56401 -4.28597,0.23657 -8.42096,0.6652 -12.52075,1.13097 m 22.33673,-1.89165 c -7.39706,1.04419 -15.3703,1.66258 -23.20344,2.0748 -7.7282,0.40669 -15.76988,0.53275 -24.0791,0.1049 0,0 0,0 0,0 -0.53481,-0.0275 -1.06543,-0.0529 -1.59228,-0.0764 -1.90152,-0.085 -3.75356,-0.1462 -5.5754,-0.20115 m 15.31505,-0.25853 c -3.53499,0.12455 -7.11689,0.28914 -10.68387,0.51039 -4.06842,0.25236 -8.10823,0.57787 -12.02998,1.00028 0,0 0,0 0,0 -7.3847,0.79539 -15.50577,-1.21536 -22.96009,-2.88059 -1.81725,-0.40596 -3.66926,-0.68745 -5.54374,-0.88618 m 14.78561,3.4088 c -7.83747,-0.67939 -15.7379,-1.29644 -23.82581,-2.30698 -8.22129,-1.02719 -15.4366,-2.42955 -22.78397,-4.21302 -0.804,-0.19516 -1.60734,-0.38433 -2.4088,-0.56859 m 13.97068,3.28647 c -4.07356,-0.63875 -8.1619,-1.51124 -12.1999,-2.55792 -3.58865,-0.93019 -7.14285,-1.99933 -10.61895,-3.16744 -7.72932,-2.59738 -15.39473,-3.96308 -22.853002,-6.24161 -5.956363,-1.81968 -11.472078,-3.78699 -16.599897,-5.67038 m 25.263549,9.07897 c -7.656004,-2.17922 -14.753433,-4.87631 -21.148974,-7.87709 -5.828391,-2.73469 -12.539798,-5.17231 -18.804078,-7.85686 -1.132731,-0.48543 -2.250161,-0.9775 -3.350011,-1.48041 -5.630437,-2.57451 -10.201491,-5.62732 -14.259706,-8.76765 m 22.879853,13.29667 c -1.998283,-0.9458 -3.969711,-1.91576 -5.913286,-2.91607 -5.196012,-2.67426 -10.125149,-5.53094 -14.758386,-8.65481 0,0 -2e-6,0 -2e-6,0 -7.181715,-4.84213 -13.201365,-9.24548 -18.786831,-14.70044 -2.828777,-2.76268 -5.316542,-5.29531 -7.574973,-7.84969 m 14.424831,15.01884 c -6.396558,-5.06466 -11.869652,-10.69953 -16.388305,-17.01372 -0.129378,-0.18079 -0.257935,-0.36208 -0.385669,-0.54388 0,0 0,0 0,0 C 12.361847,129.45884 9.0415669,124.97502 6.7432054,119.55533 6.4784032,118.93091 6.2318292,118.30258 6.0034398,117.66747 4.3546341,113.08241 3.3559157,107.41012 3.3215016,101.79593 m 7.1903864,23.0492 C 9.323514,122.66309 8.257518,120.45391 7.3328491,118.24018 5.3010112,113.37581 3.9702565,108.53368 3.4847148,103.92047 3.3639534,102.7731 3.302864,101.5781 3.299767,100.34796 3.2843456,94.222398 4.7112953,87.19346 7.3714731,80.737293 c 0,0 4e-7,-10e-7 4e-7,-10e-7 -3.4e-6,8e-6 0.04449,-0.107742 0.044487,-0.107734 C 8.917363,77.001496 10.677792,73.543135 12.744463,70.216523 M 5.4498121,90.88912 c 0.6583015,-3.115496 1.5902148,-6.171997 2.8078387,-9.18555 1.6669715,-4.125665 3.8680162,-8.167153 6.6431232,-12.192347 1.463366,-2.122561 3.045397,-4.198073 4.754318,-6.223075 3.178422,-3.766303 6.807923,-7.373038 10.982897,-10.823648 1.213841,-1.003239 2.455594,-2.016493 3.71619,-3.027185 m -11.51494,9.312123 c 4.970639,-5.146348 11.144366,-10.652789 18.32727,-16.136147 6.608481,-5.04485 12.378878,-8.189093 19.368839,-12.167366 0.221272,-0.125935 0.444312,-0.250934 0.669088,-0.375019 2.183478,-1.205364 4.522305,-2.319902 6.984911,-3.367037 m -14.875732,8.590003 c 2.83115,-1.534368 5.854354,-3.108274 8.998936,-4.639226 3.917237,-1.907123 8.102997,-3.786909 12.436398,-5.467617 7.249344,-2.811653 14.298437,-5.798382 22.08557,-8.632276 10e-7,0 2e-6,-1e-6 3e-6,-1e-6 5.584048,-2.032147 11.087258,-3.432155 16.841338,-4.735913 m -28.33757,9.159637 c 7.203289,-2.55238 14.315845,-4.659323 21.5177,-6.276034 5.21836,-1.171449 11.01988,-2.860552 17.05718,-4.640152 1.95343,-0.5758108 3.93629,-1.1622568 5.88314,-1.7274703 7.1118,-2.0647048 13.98006,-2.486717 21.23805,-3.1821324 M 119.75198,10.53461 c 1.7449,-0.369326 3.47675,-0.7160924 5.20066,-1.038002 5.8604,-1.0943252 11.64401,-1.9045219 17.61874,-2.3449502 7.37281,-0.5434887 14.59074,-1.9584997 21.96356,-2.5019884 6.47441,-0.4668814 14.64104,-1.0509379 22.34217,-1.2883014 m -32.054,0.6019774 c 7.46062,-1.1568505 15.39163,-1.5555159 23.27575,-1.9355084 7.3212,-0.3528614 14.94369,-0.4305183 22.91109,-0.073473 0.49392,0.022134 0.98914,0.045938 1.48568,0.071448 3.95976,0.203438 7.50747,0.2518215 10.85462,0.2707976 m -22.13944,0.4427108 c 2.72592,-0.022216 5.42147,-0.034679 8.10627,-0.026553 5.16038,0.01562 10.27837,0.1072915 15.51234,0.3516107 0,0 0,0 0,0 8.01507,0.3741398 15.24528,0.4407314 22.2547,0.4132889 5.0042,-0.019592 10.80552,1.0378089 16.57743,2.2937246 M 227.57161,2.7562698 c 7.60383,0.6775163 15.91805,1.2183136 24.22286,1.9167154 8.43449,0.7093068 15.13583,2.3413131 21.73769,3.7641678 -2e-5,-4.6e-6 0.0909,0.019605 0.0909,0.0196 5.77292,1.2466616 12.69331,2.974279 19.35221,4.991736 m -28.7566,-5.6108252 c 3.49457,0.6099184 6.98249,1.2752383 10.4394,1.9909833 4.1912,0.8677779 8.33433,1.8091529 12.39074,2.8159769 7.74141,1.921467 15.11774,3.899105 22.06217,5.913902 6.87065,1.993393 13.97962,5.051336 20.22935,7.900684 M 300.02216,14.464839 c 7.46237,2.191369 15.10901,4.800092 22.19571,7.611285 6.19426,2.457178 11.84334,5.280342 17.09466,8.509876 1.20859,0.743272 2.39524,1.507571 3.56125,2.293014 5.71951,3.852761 11.73963,6.656317 17.24133,9.851644 m -27.46666,-15.06947 c 1.95489,0.898694 3.8762,1.822457 5.76309,2.770314 5.26618,2.645406 10.2635,5.478114 14.97048,8.474645 0,0 10e-6,2e-6 10e-6,2e-6 7.14554,4.548956 12.97207,8.972229 17.97634,13.755666 3.14094,3.002336 6.27672,6.143612 9.23469,9.437772 2.35216,2.61949 4.53586,5.273988 6.47719,7.957234 M 364.27248,46.041677 c 6.63815,4.937337 11.8519,10.233176 15.6818,15.629904 0.23906,0.336858 0.48259,0.676687 0.72938,1.018716 4.47718,6.205043 9.16297,12.141201 12.64078,19.274553 0.0641,0.131465 0.12759,0.263021 0.19047,0.394667 0,0 0,0 0,10e-7 2.65644,5.561169 3.46885,10.542638 3.37634,15.36576 m -8.15249,-27.024299 c 1.60175,2.719909 2.97577,5.548685 4.09418,8.430399 1.72472,4.443948 2.83815,9.003369 3.26881,13.527895 0.18357,1.928479 0.28377,3.870797 0.29258,5.830542 0.0265,5.900575 -0.77635,11.924715 -2.59182,18.103855 -0.20281,0.69031 -0.42151,1.368 -0.65565,2.03407 -0.13889,0.39512 -0.2832,0.78611 -0.43284,1.17319 m 2.26033,-13.51692 c -0.68754,4.07987 -1.77626,8.40207 -3.35621,12.82848 -1.18278,3.3137 -2.64931,6.70805 -4.43359,10.08198 -1.83908,3.47756 -4.04551,6.51046 -6.62523,9.33785 -2.58055,2.8283 -5.44022,5.35453 -8.68012,8.01799 -3.59506,2.95544 -7.23333,6.10771 -11.06894,9.20395 m 17.78947,-17.08958 c -4.76222,5.40886 -10.68988,10.62109 -17.6747,15.36887 -5.99679,4.07618 -12.82449,8.69368 -20.01566,12.60462 0,0 -1e-5,0 -1e-5,0 -1.30735,0.71101 -2.61959,1.40763 -3.94077,2.09416 -0.42007,0.21828 -0.84089,0.43546 -1.26261,0.65169 m 13.81424,-7.76644 c -4.06986,2.25312 -7.71196,4.38185 -11.866,6.75919 -2.59918,1.48751 -5.26955,2.99616 -7.93902,4.42675 -6.38304,3.42072 -13.91426,5.63995 -21.53459,7.8786 0,0 0,0 0,0 -3.77017,1.10757 -7.67913,2.34388 -11.98409,3.68067 m 20.45455,-5.12977 c -6.92675,2.70215 -14.09496,4.8688 -21.09574,6.6981 -5.79301,1.51372 -13.12712,3.19675 -20.35252,4.37952 -0.97319,0.1593 -1.94541,0.30969 -2.9123,0.44939 -7.82155,1.13013 -14.94152,2.9793 -23.12569,4.73949 m 33.73624,-6.66188 c -2.74021,0.65664 -5.54732,1.25383 -8.40299,1.79069 -4.75288,0.89353 -9.63015,1.61799 -14.5342,2.1696 -7.62244,0.85737 -15.25869,2.12251 -22.96771,2.66878 -3.52809,0.25 -7.05018,0.54615 -10.60409,0.8316 m 20.16316,-2.76917 c -7.78162,0.91532 -15.40859,1.68129 -23.20419,2.2255 -7.72888,0.53955 -15.4491,1.00845 -23.08787,1.62031 -0.064,0.005 -0.12801,0.0102 -0.19203,0.0151 -3.65088,0.28169 -7.34357,0.26221 -11.01895,0.14247 m 19.7586,-0.60399 c -3.20571,0.0872 -6.3391,0.1669 -9.38988,0.24379 -4.40659,0.11108 -8.61424,0.21575 -12.73586,0.33146 0,0 0,0 0,0 -6.97797,0.19589 -15.65987,-0.71599 -23.37369,-1.30485 -5.86561,-0.44776 -11.71219,-1.18695 -17.53235,-2.02026 m 28.63386,2.82987 c -8.14151,-0.81965 -15.94257,-1.25019 -24.08408,-2.06984 -8.35856,-0.85101 -15.44016,-2.36991 -22.70117,-3.97262 -0.59341,-0.13099 -1.18676,-0.26314 -1.77993,-0.39667 -5.61932,-1.26498 -11.14719,-2.63701 -16.42955,-4.26098 m 26.90631,6.86845 c -4.03139,-0.66578 -8.08327,-1.42469 -12.09062,-2.24992 -3.63798,-0.74916 -7.24548,-1.55425 -10.77648,-2.3964 -7.75556,-1.84973 -14.856857,-3.95404 -21.287754,-6.19495 -4.470472,-1.55778 -9.494966,-3.35728 -14.543486,-5.33628 m 23.85062,8.025 c -7.947002,-2.36713 -14.758826,-4.82476 -21.251244,-7.73053 -5.587422,-2.50073 -12.194582,-4.83479 -17.893607,-6.96461 -1.267453,-0.47367 -2.509937,-0.94387 -3.728421,-1.41675 -5.661838,-2.19732 -10.782542,-5.85557 -15.308415,-9.40547 m 25.159892,12.92852 c -1.931806,-0.80923 -3.836283,-1.67919 -5.70924,-2.58873 -5.350381,-2.59822 -10.667972,-5.63264 -15.64573,-8.57449 0,0 -2e-6,0 -2e-6,0 -7.476818,-4.41878 -12.879092,-9.35901 -17.571618,-14.56575 -0.744807,-0.82642 -1.510611,-1.64039 -2.283946,-2.44096 m 7.531163,8.87272 c -6.605593,-5.0763 -11.851655,-10.54754 -16.227757,-16.52464 -0.121275,-0.16565 -0.241887,-0.33169 -0.36184,-0.49814 0,0 -1e-6,0 -1e-6,0 C 13.519599,129.6405 9.9197261,124.42333 7.3740849,118.33062 7.0802884,117.62745 6.8038127,116.91901 6.5449822,116.20353 4.5580807,110.71111 3.5369443,104.98818 3.4590946,99.278017 3.4362529,97.602617 3.4945201,95.92887 3.632819,94.261928 m 6.556543,33.207502 c -1.522928,-2.62078 -2.7740897,-5.30501 -3.7480361,-8.02003 -1.6385617,-4.56772 -2.4961168,-9.23172 -2.5466585,-13.86461 -0.019109,-1.75167 -0.036003,-3.48563 -0.023359,-5.24823 0.042361,-5.904841 0.4205233,-11.929354 2.0956545,-17.784809 0,0 3e-7,-10e-7 3e-7,-10e-7 C 6.1053394,82.068055 6.2568108,81.585458 6.4210083,81.103911 8.3477357,75.453343 11.962442,70.098258 16.610028,64.725272 M 5.756227,93.512246 C 6.3261796,89.5234 7.3321827,85.511643 8.7426332,81.471116 9.9309881,78.066828 11.398233,74.665069 13.117718,71.251153 c 1.558768,-3.094826 3.553181,-5.961478 5.881894,-8.736627 2.63078,-3.135126 5.532995,-5.97922 8.654713,-8.976655 1.046158,-1.004508 2.161434,-1.992054 3.342188,-2.961128 m -10.698276,8.8153 C 25.0389,53.837579 30.989542,49.021276 37.965868,44.644897 c 6.138413,-3.85074 12.525031,-8.658404 19.623068,-12.981595 0,-1e-6 2e-6,-2e-6 2e-6,-2e-6 1.046423,-0.637343 2.106485,-1.238646 3.180049,-1.809324 3.415752,-1.815725 6.911412,-3.292245 10.506619,-4.64406 M 49.877807,37.961742 c 3.594011,-2.118935 7.544401,-4.39811 11.626905,-6.700701 2.875572,-1.621864 5.856896,-3.277987 8.846441,-4.907386 6.835302,-3.725464 13.993116,-5.610768 21.780603,-7.821522 10e-7,0 2e-6,0 3e-6,0 6.000543,-1.703466 12.115851,-3.694231 18.293121,-5.396246 m -28.479322,8.443521 c 7.194765,-2.761451 14.721377,-5.177237 23.089412,-7.598483 7.26767,-2.102862 13.35888,-3.624308 19.81923,-5.1926936 0.12779,-0.031024 1.77469,-0.4299355 1.90248,-0.4609595 1.847,-0.4468938 3.8106,-0.8398056 5.85963,-1.1873312 m -15.7933,4.4770433 c 2.35252,-0.594987 4.75835,-1.135274 7.22094,-1.6356351 5.30921,-1.0787527 10.81522,-1.9588379 16.58417,-2.8075947 8.16687,-1.2015478 15.21309,-2.2068075 22.7161,-2.9961736 2.2134,-0.2328648 4.496,-0.4356783 6.82711,-0.6130214 m -15.16168,1.5724781 c 7.65719,-0.7481732 15.14157,-1.5184352 22.30524,-1.8146496 6.78827,-0.2806916 14.8216,-0.3428432 22.45948,0.2030023 0.37792,0.027008 0.75486,0.055504 1.13062,0.085534 1.33081,0.1063552 2.65481,0.1788414 3.97439,0.226027 M 190.38766,3.1359194 c 2.85543,-0.080884 5.75255,-0.1283018 8.68991,-0.1499621 5.05389,-0.037268 10.229,0.00173 15.50426,0.077722 0,0 0,0 0,0 8.35701,0.1203917 15.35902,0.6483462 22.48216,1.0463904 4.78574,0.2674293 10.02327,1.1044939 15.20911,2.1840226 M 228.61514,3.8974819 c 7.62037,0.7758588 15.80479,1.2919481 23.88809,2.159213 8.28851,0.8892823 15.64077,1.9248606 23.39247,2.6237745 0.17709,0.015968 0.35374,0.032993 0.52994,0.051045 7.39102,0.7572202 14.27789,3.3789356 20.72511,5.5621236 M 263.2576,7.3740138 c 3.97153,0.7507538 7.90878,1.4422142 11.73556,2.1222575 3.79864,0.6750417 7.50585,1.3418167 11.23701,2.0751237 7.74417,1.522006 15.18579,4.064841 21.98974,6.394035 5.36543,1.836744 10.92951,4.103189 16.34961,6.736377 M 297.8305,15.068916 c 7.69566,2.479315 14.91612,4.638982 22.17844,7.375236 6.17073,2.324976 11.95793,4.914535 17.29624,7.537717 1.21624,0.597646 2.41455,1.199713 3.59339,1.803532 6.94274,3.556173 13.88133,7.799797 19.8313,11.903074 M 331.76745,27.657866 c 2.18677,1.038514 4.621,2.18509 6.80776,3.223604 4.96398,2.356644 9.49212,4.551679 13.96543,6.931814 0,0 1e-5,2e-6 1e-5,2e-6 6.997,3.722928 13.48731,9.157762 18.86593,13.985202 3.73956,3.35634 7.09546,6.832012 10.09905,10.450012 1.06949,1.288252 2.09392,2.594126 3.07404,3.917862 m -21.4796,-19.847004 c 6.88359,5.080047 12.43891,10.348653 17.22186,15.920772 0.29414,0.342668 0.58339,0.686152 0.8678,1.03047 4.95444,5.997982 8.4726,12.290551 10.72504,18.870408 0.046,0.13434 0.0915,0.268806 0.13638,0.403396 0,0 0,10e-7 0,10e-7 2.1036,6.300657 3.26862,11.932765 3.03978,17.521185 m -7.4016,-26.569097 c 1.73379,3.024441 3.17055,5.903931 4.30989,8.722254 1.61637,3.998297 2.61892,7.840528 2.98359,11.636559 0.1738,1.809135 0.25776,3.770084 0.23225,5.825986 -0.069,5.557618 -0.94374,11.863588 -2.99548,17.618908 -0.28999,0.81346 -0.59664,1.6205 -0.92041,2.42184 -1.28748,3.18656 -2.84434,6.28018 -4.70623,9.3414 m 9.78804,-23.33823 c -0.6374,4.27997 -1.74241,8.70337 -3.39782,13.07192 -1.10607,2.91889 -2.4641,5.82825 -4.09486,8.63241 -1.89381,3.25651 -4.24605,6.49751 -7.02394,9.67892 -2.46497,2.82304 -5.26168,5.59492 -8.3523,8.27208 -3.12206,2.7044 -6.35137,5.45554 -9.59587,8.01073 m 14.35852,-13.80091 c -4.63258,5.71515 -10.06515,10.6439 -16.01516,15.69644 -5.22474,4.43667 -12.57547,8.24508 -20.39845,11.60536 0,0 0,0 0,0 -1.49886,0.64382 -2.98556,1.32109 -4.4827,2.02592 -1.04244,0.49077 -2.08232,0.99128 -3.13202,1.50132 m 16.87327,-7.72506 c -4.04948,2.40688 -8.28818,4.67697 -12.82806,6.8249 -2.80354,1.32641 -5.72908,2.60974 -8.81496,3.85793 -7.29197,2.94947 -13.961,5.78668 -20.57351,7.96974 0,0 0,0 0,0 -5.94145,1.9615 -13.79379,4.21726 -21.59076,6.06031 m 32.70084,-10.1048 c -6.9777,2.60467 -14.69895,5.1822 -22.89005,7.45477 -7.55654,2.09652 -14.34584,3.47931 -21.63938,4.33025 -0.24597,0.0287 -0.49255,0.0568 -0.73979,0.0843 -3.18232,0.35408 -6.40226,0.9603 -9.64874,1.65721 m 18.66836,-2.67269 c -2.77209,0.61054 -5.54187,1.23976 -8.35954,1.88407 -4.72202,1.07979 -9.63584,2.21569 -14.49135,3.26933 -7.60923,1.65119 -15.62181,2.02696 -24.2248,2.37476 -3.81823,0.15437 -7.28926,0.43296 -10.63483,0.72527 m 19.58165,-1.86119 c -8.00175,0.69509 -15.26535,1.8666 -23.12344,2.83151 -7.68468,0.94363 -15.21469,0.43654 -22.41306,-0.0988 -4e-5,0 -0.079,-0.006 -0.0791,-0.006 -2.61378,-0.19141 -5.39035,-0.24867 -8.23963,-0.24878 m 17.69787,2.20886 c -3.21439,0.129 -6.35882,0.12829 -9.47009,0.0246 -4.59662,-0.15323 -9.11686,-0.53118 -13.67416,-1.04603 0,0 0,0 0,0 -7.69328,-0.86913 -15.3181,-0.54335 -22.48559,-0.80156 -4.96283,-0.17878 -10.55118,-1.05196 -16.17508,-2.12519 m 26.30877,1.18527 c -7.69295,-0.39642 -15.65693,-1.14112 -23.2376,-1.74578 -7.80029,-0.62217 -15.75803,-2.62098 -23.59037,-4.66226 -0.49911,-0.13008 -0.99517,-0.25693 -1.48834,-0.38093 -4.55703,-1.14582 -9.06086,-2.09361 -13.34077,-3.07043 m 23.17765,6.67402 c -3.74922,-0.5157 -7.31971,-1.31664 -10.74101,-2.3058 -3.80828,-1.10103 -7.45368,-2.44189 -10.95858,-3.89228 -6.97223,-2.88521 -15.251746,-3.9867 -22.460904,-6.21917 -6.423875,-1.9893 -13.058342,-4.43029 -19.396729,-6.80415 m 28.996673,10.24999 c -7.798977,-2.06683 -15.385136,-5.05078 -22.811753,-8.23653 -6.280389,-2.69405 -12.286905,-4.92725 -17.454871,-6.98185 -1.270196,-0.50499 -2.526607,-1.01268 -3.78505,-1.53489 -2.026273,-0.84083 -4.014442,-1.88839 -5.950268,-3.06602 m 14.275822,5.95147 c -1.600294,-0.71805 -3.151101,-1.43557 -4.654685,-2.14941 -5.571208,-2.64498 -10.688321,-5.3329 -15.306218,-7.86462 0,0 -2e-6,0 -2e-6,0 -6.51168,-3.56996 -13.340326,-9.47279 -18.617931,-14.54335 -1.143415,-1.09855 -2.231951,-2.196 -3.269522,-3.29857 m 10.82569,10.25437 C 28.015427,148.21155 22.954985,143.30839 18.744206,138.55402 18.353955,138.11339 17.96977,137.67261 17.59156,137.23198 13.261777,132.18764 9.8051791,126.22262 7.405561,120.55716 6.9380781,119.45343 6.5076459,118.35462 6.1146543,117.26625 4.2990242,112.23793 3.6294619,106.80642 3.935911,101.35204 c 0.027401,-0.48771 0.062607,-0.97591 0.1055125,-1.464399 m 5.7768824,26.247739 c -1.0701725,-1.98612 -2.002435,-3.97772 -2.8035985,-5.97705 -2.1673769,-5.40876 -3.3794324,-10.88414 -3.7516751,-16.45634 -0.063495,-0.95047 -0.094745,-1.89512 -0.09419,-2.83417 0.00381,-6.447176 1.5050566,-12.626353 4.3733824,-18.633675 0.1301379,-0.272556 0.2630783,-0.544747 0.3988102,-0.816593 0.6124705,-1.226664 1.25922,-2.486602 1.9431411,-3.768638 M 4.2046822,87.467328 C 4.8582438,84.66592 5.7487255,81.929811 6.8878998,79.272526 8.6868035,75.07633 11.112218,71.061922 14.220425,67.29814 c 1.391309,-1.684761 2.842437,-3.48025 4.372066,-5.346285 3.249704,-3.964403 7.129,-8.593138 11.405943,-12.645402 1.793902,-1.699664 3.678511,-3.237472 5.667659,-4.653778 M 24.51029,56.793562 c 5.082911,-5.242178 11.215013,-10.123501 18.443571,-14.560023 6.382616,-3.917326 12.302401,-8.215004 18.571873,-12.220928 -2.74e-4,1.74e-4 0.149634,-0.0955 0.14936,-0.09532 0.915848,-0.583813 1.88662,-1.140633 2.905335,-1.674572 m -11.832945,7.782568 c 2.689764,-1.423116 5.646577,-2.999883 8.388855,-4.434512 3.885757,-2.032842 7.928684,-4.091463 12.027621,-5.977253 6.739541,-3.100647 14.472974,-5.8755 23.161231,-9.141917 0,0 3e-6,-1e-6 3e-6,-1e-6 3.11811,-1.172278 6.041686,-2.018993 8.913336,-2.660225 M 88.592936,20.99741 c 7.201464,-2.519517 14.338444,-4.916307 21.452344,-7.195127 4.75258,-1.522409 9.99398,-2.680664 15.31682,-3.758741 2.03386,-0.4119343 4.90566,-0.9728854 6.93953,-1.3848199 2.26204,-0.4558814 4.6461,-0.8591212 7.12528,-1.2145601 m -15.49559,2.923676 c 0.70642,-0.148204 1.41399,-0.294738 2.12286,-0.4395594 6.89391,-1.4084305 13.92671,-2.6585205 21.27231,-3.7166448 7.91189,-1.1396963 15.35389,-1.7877447 23.17979,-2.0644214 7.12035,-0.2517326 14.00631,-0.698313 20.446,-0.5118749 m -31.93084,1.4906763 c 7.74987,-0.7889294 15.51757,-1.4601261 23.46029,-1.8471824 6.34689,-0.3092899 12.55111,-0.5669204 18.77929,-0.7882913 1.50813,-0.053604 3.0188,-0.1051222 4.53422,-0.1547561 4.00857,-0.1312903 7.93904,-0.056468 11.77743,0.082628 m -22.71904,0.3666717 c 1.58473,0.025363 3.19377,0.034827 4.82289,0.034268 6.19701,-0.00213 12.67964,-0.1491033 19.17493,-0.1166466 0,0 0,0 0,10e-8 8.24916,0.041221 15.40381,1.0499973 22.65312,2.0099973 1.4352,0.1900579 2.9038,0.3898501 4.39854,0.6025368 M 233.08879,3.1038593 c 7.8966,0.8119022 15.31602,1.5754222 22.56123,2.782475 6.64767,1.1075019 12.73911,1.9865211 19.38678,3.0940229 1.0808,0.1812152 2.14952,0.3646663 3.20374,0.5512726 0,0 0,2e-7 0,2e-7 3.37929,0.598164 6.83201,1.445073 10.25925,2.42724 M 270.4409,8.3885753 c 1.97898,0.3688155 3.9178,0.7650374 5.81788,1.1876316 5.60932,1.2475631 10.8806,2.7249091 15.84639,4.4043701 6.83478,2.311568 15.59047,3.884735 22.96873,5.454127 5.77642,1.228674 10.84693,3.826019 15.48121,6.451592 m -24.43756,-8.010712 c 7.71601,2.396392 14.89037,4.918279 21.57806,7.492266 4.03153,1.551673 7.97282,3.373325 11.61613,5.217617 2.89538,1.465677 5.65661,2.973197 8.18124,4.411923 5.01156,2.855961 10.86344,6.54074 16.18056,10.277366 M 338.09327,31.951962 c 0.001,7.34e-4 0.249,0.134254 0.25036,0.134988 7.26913,3.916733 13.72077,7.207134 20.08207,11.257743 0,0 10e-6,2e-6 10e-6,2e-6 6.90696,4.398064 12.7321,9.984031 17.46395,15.495133 0.4585,0.534013 1.61556,1.875356 2.07407,2.409369 M 370.11977,49.65188 c 4.6408,3.754251 8.60364,7.902315 12.0079,12.15363 1.41148,1.762694 2.7395,3.559064 3.98811,5.37128 3.11435,4.520134 5.36881,8.821915 6.89365,13.1594 0.87929,2.501212 1.51384,5.010536 1.919,7.554604 0.15535,0.975426 0.30584,1.958813 0.4477,2.954909 m -2.91075,-11.7073 c 0.1987,0.476719 0.38987,0.955509 0.57337,1.43622 2.3808,6.236734 3.46317,12.773247 3.00729,19.308788 -0.0508,0.728609 -0.12078,1.457229 -0.2102,2.185409 -0.71058,5.78643 -1.61637,11.22999 -3.39434,16.27886 -0.5711,1.62174 -1.23563,3.21161 -2.019,4.76248 -0.55923,1.10711 -1.19914,2.2711 -1.91209,3.48013 M 25.071787,144.32343 19.589249,138.43861 M 286.49403,12.036837 l 6.94769,1.794819"
     transform="matrix(0.6,0,0,0.6,5.07224,4.8934483)" />
  <g
     id="g7"
     transform="matrix(0.6,0,0,0.6,5.07224,14.893465)">
    <text
       xml:space="preserve"
       style="font-weight:bold;font-size:66.6667px;font-family:Sans;-inkscape-font-specification:'Sans, Bold';text-align:center;text-anchor:middle;fill:#808080;fill-opacity:0.12549;stroke:none;stroke-width:1;stroke-dasharray:none"
       x="200.57999"
       y="72.133308"
       id="text4"><tspan
         sodipodi:role="line"
         x="200.57999"
         y="72.133308"
         style="font-style:normal;font-variant:normal;font-weight:normal;font-stretch:normal;font-size:40px;font-family:Quicksand;-inkscape-font-specification:'Quicksand, Normal';font-variant-ligatures:normal;font-variant-caps:normal;font-variant-numeric:normal;font-variant-east-asian:normal;fill:#000000;fill-opacity:1"
         id="tspan6">Dorf</tspan></text>
    <text
       xml:space="preserve"
       style="font-weight:bold;font-size:66.6667px;font-family:Sans;-inkscape-font-specification:'Sans, Bold';text-align:center;text-anchor:middle;fill:#808080;fill-opacity:0.12549;stroke:none;stroke-width:1;stroke-dasharray:none"
       x="200.57999"
       y="122.1333"
       id="text7"><tspan
         sodipodi:role="line"
         x="200.57999"
         y="122.1333"
         style="font-style:normal;font-variant:normal;font-weight:normal;font-stretch:normal;font-size:40px;font-family:Quicksand;-inkscape-font-specification:'Quicksand, Normal';font-variant-ligatures:normal;font-variant-caps:normal;font-variant-numeric:normal;font-variant-east-asian:normal;fill:#000000;fill-opacity:1"
         id="tspan7">gründen</tspan></text>
  </g>
</svg>
