<?xml version="1.0" encoding="UTF-8" standalone="no"?>
<svg
   height="130"
   width="250"
   version="1.1"
   id="svg1"
   sodipodi:docname="usecase-3.svg"
   inkscape:version="1.3.2 (091e20ef0f, 2023-11-25, custom)"
   xmlns:inkscape="http://www.inkscape.org/namespaces/inkscape"
   xmlns:sodipodi="http://sodipodi.sourceforge.net/DTD/sodipodi-0.dtd"
   xmlns="http://www.w3.org/2000/svg"
   xmlns:svg="http://www.w3.org/2000/svg">
  <defs
     id="defs1">
    <inkscape:path-effect
       effect="sketch"
       id="path-effect4"
       is_visible="true"
       lpeversion="1"
       nbiter_approxstrokes="3"
       parallel_offset="1;4027408389"
       strokelength="70"
       strokelength_rdm="0.3;1"
       strokeoverlap="0.5"
       strokeoverlap_rdm="0.5;1"
       ends_tolerance="0.1;1"
       tremble_size="0.8;1"
       tremble_frequency="3"
       nbtangents="2"
       tgt_places_rdmness="0.5;1"
       tgtlength="5"
       tgtlength_rdm="0.3;1"
       tgtscale="10" />
    <inkscape:path-effect
       effect="sketch"
       id="path-effect3"
       is_visible="true"
       lpeversion="1"
       nbiter_approxstrokes="3"
       parallel_offset="2;1"
       strokelength="70"
       strokelength_rdm="0.3;1"
       strokeoverlap="0.5"
       strokeoverlap_rdm="0.5;1"
       ends_tolerance="0.1;1"
       tremble_size="0.8;1"
       tremble_frequency="3"
       nbtangents="2"
       tgt_places_rdmness="0.5;1"
       tgtlength="5"
       tgtlength_rdm="0.3;1"
       tgtscale="10" />
    <inkscape:path-effect
       effect="sketch"
       id="path-effect2"
       is_visible="true"
       lpeversion="1"
       nbiter_approxstrokes="3"
       parallel_offset="2;1"
       strokelength="70"
       strokelength_rdm="0.3;1"
       strokeoverlap="0.5"
       strokeoverlap_rdm="0.5;1"
       ends_tolerance="0.1;1"
       tremble_size="0.8;1"
       tremble_frequency="3"
       nbtangents="2"
       tgt_places_rdmness="0.5;1"
       tgtlength="5"
       tgtlength_rdm="0.3;1"
       tgtscale="10" />
    <inkscape:path-effect
       effect="sketch"
       id="path-effect6"
       is_visible="true"
       lpeversion="1"
       nbiter_approxstrokes="3"
       parallel_offset="0.2;1"
       strokelength="70"
       strokelength_rdm="0.3;1"
       strokeoverlap="0.5"
       strokeoverlap_rdm="0.5;1"
       ends_tolerance="0.1;1"
       tremble_size="0.8;1"
       tremble_frequency="3"
       nbtangents="2"
       tgt_places_rdmness="0.5;1"
       tgtlength="5"
       tgtlength_rdm="0.3;1"
       tgtscale="10" />
    <inkscape:path-effect
       effect="sketch"
       id="path-effect5"
       is_visible="true"
       lpeversion="1"
       nbiter_approxstrokes="3"
       parallel_offset="0.2;1"
       strokelength="70"
       strokelength_rdm="0.3;1"
       strokeoverlap="0.5"
       strokeoverlap_rdm="0.5;1"
       ends_tolerance="0.1;1"
       tremble_size="0.8;1"
       tremble_frequency="3"
       nbtangents="2"
       tgt_places_rdmness="0.5;1"
       tgtlength="5"
       tgtlength_rdm="0.3;1"
       tgtscale="10" />
    <inkscape:path-effect
       effect="sketch"
       id="path-effect1"
       is_visible="true"
       lpeversion="1"
       nbiter_approxstrokes="3"
       parallel_offset="0.2;1"
       strokelength="70"
       strokelength_rdm="0.3;1"
       strokeoverlap="0.5"
       strokeoverlap_rdm="0.5;1"
       ends_tolerance="0.1;1"
       tremble_size="0.8;1"
       tremble_frequency="3"
       nbtangents="2"
       tgt_places_rdmness="0.5;1"
       tgtlength="5"
       tgtlength_rdm="0.3;1"
       tgtscale="10" />
  </defs>
  <sodipodi:namedview
     id="namedview1"
     pagecolor="#ffffff"
     bordercolor="#000000"
     borderopacity="0.25"
     inkscape:showpageshadow="2"
     inkscape:pageopacity="0.0"
     inkscape:pagecheckerboard="0"
     inkscape:deskcolor="#d1d1d1"
     inkscape:zoom="1.72"
     inkscape:cx="125"
     inkscape:cy="65.116279"
     inkscape:window-width="1440"
     inkscape:window-height="831"
     inkscape:window-x="0"
     inkscape:window-y="0"
     inkscape:window-maximized="1"
     inkscape:current-layer="svg1"
     showgrid="false" />
  <path
     id="ellipse1"
     style="fill:#cccccc;fill-opacity:1;stroke:none;stroke-width:0.6;stroke-dasharray:none"
     d="M 23.539818,35.260245 A 117.6,58.8 0 0 0 7.47224,64.893448 a 117.6,58.8 0 0 0 117.6,58.800002 117.6,58.8 0 0 0 107.53242,-35.1668 117.6,58.8 0 0 1 -101.53242,29.1668 117.6,58.8 0 0 1 -117.6,-58.800002 117.6,58.8 0 0 1 10.067578,-23.633203 z" />
  <path
     style="fill:none;fill-opacity:0.12549;stroke:#000000;stroke-width:1.66666667;stroke-dasharray:none"
     id="path1"
     inkscape:path-effect="#path-effect4"
     sodipodi:type="arc"
     sodipodi:cx="200"
     sodipodi:cy="100"
     sodipodi:rx="196"
     sodipodi:ry="98"
     d="m 397.00051,104.48313 c -0.30732,4.77894 -1.5625,9.67291 -3.59166,14.51492 -1.06084,2.53138 -2.32962,5.04022 -3.77613,7.50213 -2.17371,3.6996 -4.74332,7.31971 -7.74946,10.78646 -2.10807,2.43107 -4.4438,4.80176 -7.02948,7.08382 -2.30486,2.03421 -4.79175,4.22943 -7.24167,6.31612 m 11.36858,-12.86111 c -4.83075,5.39717 -10.41028,10.73482 -16.84617,15.2336 -5.46424,3.81958 -12.63229,8.9253 -19.39064,12.93312 0,0 -10e-6,0 -10e-6,0 -1.01502,0.60193 -2.04767,1.18795 -3.0978,1.76133 m 12.18365,-7.26134 c -4.38163,2.56023 -8.91249,5.15302 -13.35086,7.46477 -2.03886,1.06194 -4.09949,2.0866 -6.17762,3.04999 -6.15087,2.85144 -14.30758,6.27118 -22.62752,9.63154 0,0 0,0 0,0 -1.88245,0.76031 -3.69752,1.40345 -5.47082,1.9562 m 13.32949,-5.59426 c -7.16706,2.68373 -14.20599,5.07541 -21.3215,7.09709 -6.53724,1.85737 -14.30113,3.91823 -21.74893,5.76132 7.3e-4,-1.8e-4 -0.76875,0.18974 -0.76802,0.18956 -6.39469,1.57412 -13.02116,2.71603 -20.11169,4.06382 m 31.09119,-5.81598 c -3.10939,0.80035 -6.31812,1.48489 -9.60239,2.07376 -4.40718,0.7902 -8.92387,1.40342 -13.48699,1.89409 -7.72267,0.83041 -15.38751,2.12269 -23.38265,2.56401 -4.28596,0.23657 -8.42096,0.6652 -12.52074,1.13097 m 23.43048,-0.71977 c -7.39707,1.04418 -15.37031,1.66258 -23.20345,2.07479 -7.7282,0.40669 -15.76988,0.53276 -24.07909,0.10491 0,0 0,0 0,0 -0.53482,-0.0275 -1.06544,-0.0529 -1.59228,-0.0764 -1.90152,-0.0849 -3.75357,-0.1462 -5.57541,-0.20114 m 15.63537,-0.0163 c -3.53499,0.12454 -7.11689,0.28913 -10.68387,0.51038 -4.06842,0.25236 -8.10823,0.57787 -12.02998,1.00028 0,0 -1e-5,0 -1e-5,0 -7.38469,0.7954 -15.50576,-1.21535 -22.96008,-2.88059 -1.81725,-0.40596 -3.66927,-0.68745 -5.54375,-0.88618 m 14.41062,2.07286 c -7.83747,-0.67939 -15.7379,-1.29644 -23.82581,-2.30697 -8.22129,-1.0272 -15.4366,-2.42955 -22.78397,-4.21302 -0.80401,-0.19516 -1.60734,-0.38434 -2.4088,-0.56859 m 13.79099,4.29427 c -4.07356,-0.63874 -8.1619,-1.51124 -12.1999,-2.55791 -3.58865,-0.93019 -7.14285,-1.99933 -10.61895,-3.16745 -7.72932,-2.59737 -15.39473,-3.96308 -22.853002,-6.2416 -5.956363,-1.81969 -11.472078,-3.787 -16.599897,-5.67038 m 25.536979,8.13365 c -7.655996,-2.17922 -14.753426,-4.8763 -21.148966,-7.87709 -5.828392,-2.73468 -12.539799,-5.1723 -18.804079,-7.85685 -1.132731,-0.48543 -2.250161,-0.97751 -3.350011,-1.48041 -5.630436,-2.57451 -10.201491,-5.62733 -14.259706,-8.76765 m 23.489228,15.10135 c -1.998282,-0.94579 -3.969711,-1.91575 -5.913286,-2.91606 -5.196012,-2.67427 -10.125148,-5.53094 -14.758385,-8.65482 0,0 -3e-6,0 -3e-6,0 -7.181714,-4.84213 -13.201364,-9.24548 -18.786831,-14.70044 -2.828777,-2.76268 -5.316542,-5.2953 -7.574973,-7.84969 m 13.323269,13.96415 c -6.396558,-5.06465 -11.869652,-10.69953 -16.388305,-17.01371 -0.129378,-0.18079 -0.257935,-0.36208 -0.385669,-0.54388 0,0 0,0 0,0 C 12.174347,129.22446 8.8540669,124.74064 6.5557054,119.32095 6.2909032,118.69653 6.0443292,118.0682 5.8159398,117.43309 4.1671341,112.84804 3.1684157,107.17574 3.1340016,101.56156 m 9.1435114,24.40857 c -1.188374,-2.18204 -2.25437,-4.39122 -3.1790389,-6.60495 C 7.0666362,114.50081 5.7358815,109.65868 5.2503398,105.04547 5.1295784,103.8981 5.068489,102.7031 5.065392,101.47296 5.0499706,95.347398 6.4769203,88.31846 9.1370981,81.862293 c 0,0 4e-7,-10e-7 4e-7,-10e-7 -3.4e-6,8e-6 0.04449,-0.107742 0.044487,-0.107734 1.5014028,-3.628062 3.2618318,-7.086423 5.3285028,-10.413035 M 5.4185621,90.654745 c 0.6583015,-3.115496 1.5902148,-6.171997 2.8078387,-9.18555 1.6669715,-4.125665 3.8680162,-8.167153 6.6431232,-12.192347 1.463366,-2.122561 3.045397,-4.198073 4.754318,-6.223075 3.178422,-3.766303 6.807923,-7.373038 10.982897,-10.823648 1.213841,-1.003239 2.455594,-2.016493 3.71619,-3.027185 m -12.725877,9.921498 c 4.970638,-5.146348 11.144365,-10.652789 18.32727,-16.136147 6.608481,-5.04485 12.378877,-8.189093 19.368838,-12.167366 0.221273,-0.125935 0.444313,-0.250934 0.669088,-0.375019 2.183479,-1.205364 4.522305,-2.319902 6.984911,-3.367037 M 51.602678,35.84856 c 2.83115,-1.534368 5.854353,-3.108275 8.998936,-4.639227 3.917237,-1.907122 8.102996,-3.786909 12.436398,-5.467616 7.249343,-2.811654 14.298436,-5.798382 22.08557,-8.632276 10e-7,-1e-6 2e-6,-1e-6 3e-6,-1e-6 5.584045,-2.032148 11.087255,-3.432156 16.841335,-4.735913 m -27.056318,8.269012 c 7.203289,-2.552381 14.315845,-4.659324 21.517698,-6.276035 5.21837,-1.171448 11.01988,-2.860551 17.05718,-4.6401518 1.95344,-0.5758105 3.93629,-1.1622565 5.88314,-1.72747 7.1118,-2.0647048 13.98006,-2.486717 21.23805,-3.1821324 m -30.77456,5.7725482 c 1.7449,-0.369326 3.47674,-0.7160929 5.20065,-1.0380025 5.86041,-1.0943252 11.64402,-1.9045219 17.61874,-2.3449502 7.37282,-0.5434887 14.59075,-1.9584997 21.96356,-2.5019884 6.47442,-0.4668814 14.64105,-1.0509379 22.34217,-1.2883014 m -32.65555,0.1488524 c 7.46061,-1.1568505 15.39162,-1.5555159 23.27574,-1.9355084 7.32121,-0.3528614 14.94369,-0.4305183 22.91109,-0.073473 0.49392,0.022134 0.98915,0.045938 1.48568,0.071448 3.95976,0.203438 7.50748,0.2518215 10.85462,0.2707976 m -21.4285,0.5130233 c 2.72592,-0.022216 5.42147,-0.034679 8.10627,-0.026553 5.16038,0.01562 10.27837,0.1072915 15.51234,0.3516107 0,0 0,0 0,0 8.01507,0.3741398 15.24528,0.4407314 22.2547,0.4132889 5.0042,-0.019592 10.80552,1.0378089 16.57743,2.2937246 M 228.25129,2.7718948 c 7.60384,0.6775163 15.91805,1.2183136 24.22287,1.9167154 8.43448,0.7093068 15.13583,2.3413131 21.73769,3.7641678 -2e-5,-4.6e-6 0.0909,0.019605 0.0908,0.0196 5.77293,1.2466616 12.69332,2.974279 19.35222,4.991736 M 264.69519,8.1501638 c 3.49457,0.6099184 6.98249,1.2752383 10.4394,1.9909832 4.1912,0.867778 8.33433,1.809153 12.39074,2.815977 7.74142,1.921467 15.11774,3.899105 22.06217,5.913902 6.87065,1.993393 13.97962,5.051336 20.22935,7.900684 M 300.02998,14.691402 c 7.46236,2.191369 15.109,4.800092 22.1957,7.611284 6.19427,2.457178 11.84334,5.280342 17.09467,8.509876 1.20858,0.743272 2.39523,1.507571 3.56124,2.293015 5.71952,3.85276 11.73963,6.656316 17.24134,9.851643 M 332.7422,28.497126 c 1.95489,0.898693 3.8762,1.822457 5.76309,2.770313 5.26618,2.645406 10.2635,5.478114 14.97048,8.474646 0,0 10e-6,10e-7 10e-6,10e-7 7.14554,4.548957 12.97207,8.972229 17.97634,13.755666 3.14094,3.002336 6.27672,6.143613 9.23469,9.437773 2.35216,2.619489 4.53586,5.273987 6.47719,7.957233 M 364.34279,45.143239 c 6.63815,4.937337 11.85191,10.233177 15.6818,15.629904 0.23906,0.336859 0.4826,0.676688 0.72938,1.018717 4.47719,6.205043 9.16298,12.141201 12.64078,19.274553 0.0641,0.131465 0.12759,0.26302 0.19047,0.394666 0,10e-7 0,10e-7 0,10e-7 2.65645,5.561169 3.46885,10.542638 3.37635,15.365761 M 387.5122,71.872854 c 1.60175,2.719909 2.97577,5.548685 4.09418,8.430399 1.72472,4.443948 2.83815,9.003369 3.26881,13.527895 0.18356,1.928479 0.28377,3.870797 0.29258,5.830542 0.0265,5.90057 -0.77635,11.92472 -2.59182,18.10386 -0.20282,0.69031 -0.42152,1.368 -0.65565,2.03406 -0.1389,0.39513 -0.28321,0.78612 -0.43284,1.1732 m 3.01814,-15.29036 c -0.68754,4.07987 -1.77626,8.40206 -3.35621,12.82848 -1.18278,3.3137 -2.64931,6.70805 -4.43359,10.08198 -1.83908,3.47756 -4.04551,6.51046 -6.62523,9.33785 -2.58055,2.8283 -5.44022,5.35453 -8.68012,8.01799 -3.59506,2.95544 -7.23333,6.10771 -11.06894,9.20395 m 19.03165,-16.58958 c -4.76221,5.40886 -10.68987,10.62108 -17.6747,15.36887 -5.99678,4.07618 -12.82449,8.69368 -20.01566,12.60462 0,0 0,0 0,0 -1.30735,0.71101 -2.6196,1.40763 -3.94077,2.09415 -0.42007,0.21829 -0.84089,0.43547 -1.26261,0.6517 m 13.28298,-7.4305 c -4.06985,2.25311 -7.71196,4.38185 -11.86599,6.75919 -2.59919,1.4875 -5.26955,2.99615 -7.93902,4.42674 -6.38305,3.42073 -13.91426,5.63995 -21.5346,7.8786 0,0 0,0 0,0 -3.77016,1.10757 -7.67912,2.34389 -11.98408,3.68067 m 19.47799,-5.82508 c -6.92676,2.70215 -14.09497,4.8688 -21.09574,6.69811 -5.79302,1.51372 -13.12712,3.19674 -20.35253,4.37951 -0.97318,0.1593 -1.9454,0.30969 -2.9123,0.44939 -7.82154,1.13013 -14.94152,2.9793 -23.12569,4.73949 m 35.85344,-5.57594 c -2.74022,0.65664 -5.54732,1.25383 -8.40299,1.79069 -4.75288,0.89353 -9.63015,1.61799 -14.53421,2.1696 -7.62243,0.85737 -15.25868,2.12251 -22.9677,2.66878 -3.5281,0.25 -7.05019,0.54615 -10.60409,0.8316 m 19.15534,-1.62855 c -7.78162,0.91532 -15.40859,1.68129 -23.20419,2.2255 -7.72888,0.53956 -15.4491,1.00846 -23.08787,1.62032 -0.064,0.005 -0.12801,0.0102 -0.19203,0.0151 -3.65088,0.28169 -7.34357,0.26222 -11.01895,0.14247 m 19.8211,-1.58836 c -3.20571,0.0872 -6.3391,0.1669 -9.38988,0.24379 -4.40659,0.11108 -8.61424,0.21575 -12.73586,0.33146 0,0 0,0 0,0 -6.97797,0.19589 -15.65987,-0.71599 -23.37369,-1.30485 -5.86561,-0.44776 -11.71219,-1.18695 -17.53235,-2.02026 m 28.07918,2.37675 c -8.14152,-0.81965 -15.94257,-1.25019 -24.08409,-2.06984 -8.35855,-0.85101 -15.44016,-2.36992 -22.70117,-3.97263 -0.59341,-0.13098 -1.18676,-0.26314 -1.77992,-0.39666 -5.61933,-1.26499 -11.1472,-2.63702 -16.42955,-4.26098 m 26.12505,6.77469 c -4.03139,-0.66578 -8.08327,-1.42469 -12.09062,-2.24991 -3.63798,-0.74916 -7.24548,-1.55426 -10.77648,-2.39641 -7.75556,-1.84973 -14.856854,-3.95403 -21.287751,-6.19494 -4.470473,-1.55778 -9.494967,-3.35728 -14.543487,-5.33629 m 23.983438,7.8297 c -7.947007,-2.36714 -14.758831,-4.82477 -21.251249,-7.73054 -5.587422,-2.50072 -12.194582,-4.83478 -17.893607,-6.9646 -1.267453,-0.47367 -2.509937,-0.94388 -3.728421,-1.41676 -5.661838,-2.19732 -10.782542,-5.85557 -15.308415,-9.40547 m 25.65208,12.59258 c -1.931806,-0.80922 -3.836283,-1.67918 -5.709241,-2.58872 -5.350381,-2.59823 -10.667972,-5.63265 -15.64573,-8.57449 0,0 -10e-7,0 -10e-7,0 -7.476818,-4.41879 -12.879093,-9.35901 -17.571618,-14.56575 -0.744808,-0.82643 -1.510611,-1.64039 -2.283946,-2.44096 m 7.859287,10.20866 C 28.224656,149.10104 22.978594,143.6298 18.602493,137.6527 c -0.121276,-0.16564 -0.241887,-0.33169 -0.361841,-0.49814 0,0 0,0 0,0 -4.666366,-6.475 -8.2662384,-11.69217 -10.8118796,-17.78488 -0.2937965,-0.70317 -0.5702722,-1.4116 -0.8291027,-2.12709 -1.9869015,-5.49242 -3.0080379,-11.21535 -3.0858876,-16.92551 -0.022842,-1.675401 0.035426,-3.349147 0.1737244,-5.016089 m 6.5877925,32.082499 c -1.5229275,-2.62077 -2.7740892,-5.30501 -3.7480356,-8.02002 -1.6385617,-4.56773 -2.4961168,-9.23173 -2.5466585,-13.86462 -0.019109,-1.75166 -0.036003,-3.48563 -0.023359,-5.24822 0.042361,-5.904848 0.4205233,-11.929361 2.0956545,-17.784817 0,0 3e-7,-10e-7 3e-7,-10e-7 C 6.1912769,81.982117 6.3427483,81.49952 6.5069458,81.017974 8.4336732,75.367406 12.04838,70.01232 16.695966,64.639335 M 5.8890395,91.863809 C 6.4589921,87.874962 7.4649952,83.863205 8.8754457,79.822679 10.063801,76.41839 11.531046,73.016632 13.25053,69.602716 c 1.558769,-3.094826 3.553182,-5.961478 5.881895,-8.736628 2.630779,-3.135125 5.532994,-5.979219 8.654712,-8.976655 1.046158,-1.004507 2.161435,-1.992053 3.342188,-2.961127 M 20.048237,60.149856 C 24.7889,54.595392 30.739542,49.779088 37.715868,45.40271 c 6.138413,-3.850741 12.525031,-8.658405 19.623068,-12.981596 0,0 2e-6,-1e-6 2e-6,-1e-6 1.046423,-0.637344 2.106485,-1.238646 3.180049,-1.809325 3.415752,-1.815724 6.911412,-3.292244 10.506619,-4.644059 M 49.940307,37.727367 c 3.594011,-2.118935 7.544401,-4.39811 11.626905,-6.700701 2.875572,-1.621864 5.856896,-3.277987 8.846441,-4.907386 6.835302,-3.725464 13.993116,-5.610768 21.780603,-7.821522 10e-7,0 2e-6,0 3e-6,0 6.000543,-1.703466 12.115851,-3.694231 18.293121,-5.396246 m -28.385572,8.974771 c 7.194765,-2.761451 14.721377,-5.177237 23.089412,-7.598483 7.26767,-2.102862 13.35888,-3.624308 19.81923,-5.1926936 0.12779,-0.031024 1.77469,-0.4299355 1.90248,-0.4609595 1.847,-0.4468938 3.8106,-0.8398056 5.85963,-1.1873312 m -14.88705,3.6645433 c 2.35252,-0.594987 4.75835,-1.135274 7.22094,-1.6356351 5.30921,-1.0787527 10.81522,-1.9588379 16.58417,-2.8075947 8.16687,-1.2015478 15.21309,-2.2068075 22.7161,-2.9961736 2.2134,-0.2328648 4.496,-0.4356783 6.82711,-0.6130214 m -16.51325,0.6896656 c 7.65719,-0.7481732 15.14157,-1.5184352 22.30525,-1.8146496 6.78827,-0.2806916 14.8216,-0.3428432 22.45948,0.2030023 0.37792,0.027008 0.75485,0.055504 1.13062,0.085534 1.3308,0.1063552 2.65481,0.1788414 3.97439,0.226027 m -14.07766,-0.036969 c 2.85543,-0.080884 5.75255,-0.1283018 8.68991,-0.1499621 5.05389,-0.037268 10.229,0.00173 15.50426,0.077722 0,0 0,0 0,0 8.35701,0.1203917 15.35902,0.6483462 22.48216,1.0463904 4.78574,0.2674293 10.02327,1.1044939 15.20911,2.1840226 M 227.35733,4.0146694 c 7.62037,0.7758588 15.80478,1.2919481 23.88809,2.159213 8.28851,0.8892823 15.64076,1.9248606 23.39246,2.6237745 0.1771,0.015968 0.35375,0.032993 0.52995,0.051045 7.39101,0.7572202 14.27789,3.3789361 20.72511,5.5621231 M 264.73416,7.2333888 c 3.97153,0.7507538 7.90878,1.4422142 11.73556,2.1222575 3.79864,0.6750417 7.50585,1.3418167 11.23702,2.0751237 7.74416,1.522006 15.18578,4.064841 21.98973,6.394035 5.36543,1.836744 10.92951,4.103189 16.34961,6.736377 m -26.38746,-9.820391 c 7.69566,2.479315 14.91613,4.638982 22.17844,7.375236 6.17073,2.324976 11.95794,4.914535 17.29624,7.537717 1.21624,0.597646 2.41456,1.199713 3.59339,1.803532 6.94275,3.556173 13.88134,7.799797 19.8313,11.903074 M 330.77527,28.360991 c 2.18676,1.038514 4.62099,2.18509 6.80776,3.223604 4.96397,2.356644 9.49211,4.551679 13.96543,6.931814 0,0 0,2e-6 0,2e-6 6.997,3.722928 13.48731,9.157762 18.86593,13.985202 3.73956,3.35634 7.09546,6.832012 10.09906,10.450012 1.06948,1.288252 2.09391,2.594126 3.07403,3.917862 M 364.2485,45.530295 c 6.8836,5.080047 12.43892,10.348653 17.22187,15.920772 0.29414,0.342669 0.58338,0.686153 0.8678,1.03047 4.95444,5.997983 8.4726,12.290551 10.72503,18.870408 0.046,0.134341 0.0915,0.268806 0.13639,0.403397 0,0 0,0 0,0 2.10359,6.300658 3.26861,11.932765 3.03977,17.52119 m -8.15159,-25.998789 c 1.73379,3.024441 3.17054,5.903931 4.30989,8.722254 1.61636,3.998297 2.61892,7.840528 2.98359,11.636559 0.1738,1.809135 0.25776,3.770084 0.23225,5.825986 -0.069,5.557618 -0.94374,11.863588 -2.99548,17.618908 -0.29,0.81346 -0.59664,1.6205 -0.92041,2.42184 -1.28748,3.18656 -2.84435,6.28018 -4.70623,9.3414 m 8.56147,-22.6351 c -0.63739,4.27997 -1.74241,8.70336 -3.39781,13.07191 -1.10607,2.91889 -2.46411,5.82826 -4.09486,8.63242 -1.89382,3.2565 -4.24605,6.4975 -7.02394,9.67891 -2.46498,2.82304 -5.26168,5.59493 -8.3523,8.27209 -3.12207,2.7044 -6.35137,5.45553 -9.59587,8.01073 m 16.86632,-13.12904 c -4.63257,5.71515 -10.06514,10.6439 -16.01515,15.69644 -5.22475,4.43667 -12.57547,8.24508 -20.39845,11.60536 0,0 0,0 -1e-5,0 -1.49885,0.64382 -2.98555,1.32109 -4.4827,2.02592 -1.04243,0.49077 -2.08231,0.99128 -3.13202,1.50132 m 16.12328,-9.32663 c -4.04948,2.40689 -8.28818,4.67698 -12.82807,6.8249 -2.80353,1.32642 -5.72907,2.60974 -8.81496,3.85793 -7.29196,2.94948 -13.96099,5.78669 -20.5735,7.96974 0,0 0,0 0,0 -5.94145,1.96151 -13.79379,4.21727 -21.59077,6.06032 m 30.47428,-9.43293 c -6.9777,2.60467 -14.69894,5.1822 -22.89005,7.45477 -7.55653,2.09652 -14.34584,3.47931 -21.63937,4.33025 -0.24597,0.0287 -0.49255,0.0568 -0.73979,0.0843 -3.18232,0.35408 -6.40227,0.96031 -9.64874,1.65722 m 19.18398,-3.38363 c -2.77209,0.61053 -5.54187,1.23975 -8.35954,1.88407 -4.72202,1.07978 -9.63584,2.21568 -14.49135,3.26932 -7.60923,1.65119 -15.62181,2.02697 -24.2248,2.37477 -3.81823,0.15436 -7.28926,0.43295 -10.63483,0.72526 m 20.62852,-1.57212 c -8.00174,0.69508 -15.26535,1.86659 -23.12343,2.83151 -7.68469,0.94362 -15.2147,0.43654 -22.41307,-0.0988 -4e-5,0 -0.079,-0.006 -0.0791,-0.006 -2.61379,-0.19142 -5.39035,-0.24867 -8.23963,-0.24879 m 17.81506,2.47449 c -3.2144,0.129 -6.35883,0.12829 -9.47009,0.0246 -4.59663,-0.15323 -9.11687,-0.53117 -13.67417,-1.04603 0,0 0,0 0,0 -7.69328,-0.86913 -15.31809,-0.54335 -22.48559,-0.80156 -4.96283,-0.17878 -10.55117,-1.05196 -16.17508,-2.12519 m 25.71502,2.46652 c -7.69294,-0.39642 -15.65693,-1.14112 -23.23759,-1.74577 -7.80029,-0.62218 -15.75803,-2.62098 -23.59038,-4.66227 -0.49911,-0.13008 -0.99517,-0.25692 -1.48834,-0.38093 -4.55703,-1.14582 -9.06086,-2.09361 -13.34077,-3.07042 m 23.0839,5.81464 c -3.74921,-0.5157 -7.31971,-1.31664 -10.74101,-2.3058 -3.80828,-1.10104 -7.45368,-2.4419 -10.95858,-3.89228 -6.97222,-2.88522 -15.251743,-3.9867 -22.460902,-6.21918 -6.423874,-1.98929 -13.058342,-4.43028 -19.396729,-6.80414 m 30.340421,10.98436 c -7.798975,-2.06682 -15.385134,-5.05078 -22.81175,-8.23652 -6.28039,-2.69406 -12.286905,-4.92726 -17.454872,-6.98186 -1.270196,-0.50499 -2.526606,-1.01268 -3.78505,-1.53489 -2.026273,-0.84083 -4.014441,-1.88839 -5.950267,-3.06602 m 13.861759,5.49053 c -1.600294,-0.71804 -3.151101,-1.43557 -4.654685,-2.14941 -5.571208,-2.64497 -10.688321,-5.3329 -15.306218,-7.86461 0,0 -2e-6,-1e-5 -2e-6,-1e-5 -6.51168,-3.56996 -13.340326,-9.47279 -18.617931,-14.54334 -1.143415,-1.09856 -2.231951,-2.196 -3.269522,-3.29857 m 10.396002,8.70749 C 28.21074,147.4303 23.150297,142.52714 18.939518,137.77277 18.549268,137.33214 18.165083,136.89136 17.786872,136.45073 13.457089,131.40639 10.000492,125.44137 7.6008735,119.77591 7.1333906,118.67218 6.7029584,117.57337 6.3099668,116.485 4.4943367,111.45668 3.8247744,106.02517 4.1312235,100.57079 4.158625,100.08308 4.193831,99.594877 4.236736,99.106391 M 9.8339309,125.3385 C 8.7637584,123.35238 7.8314959,121.36078 7.0303324,119.36145 4.8629555,113.95269 3.6509,108.47731 3.2786573,102.90512 c -0.063495,-0.95048 -0.094745,-1.89513 -0.09419,-2.83417 0.00381,-6.447181 1.5050566,-12.626358 4.3733824,-18.63368 0.1301379,-0.272556 0.2630783,-0.544747 0.3988102,-0.816593 0.6124705,-1.226664 1.25922,-2.486602 1.9431411,-3.768638 M 4.7593697,88.803265 C 5.4129313,86.001857 6.303413,83.265749 7.4425873,80.608464 9.241491,76.412267 11.666905,72.397859 14.775112,68.634077 c 1.391309,-1.68476 2.842438,-3.480249 4.372066,-5.346285 3.249704,-3.964402 7.129,-8.593138 11.405944,-12.645402 1.793902,-1.699664 3.67851,-3.237472 5.667658,-4.653778 m -13.358928,10.4612 c 5.082912,-5.242178 11.215014,-10.123501 18.443572,-14.560023 6.382616,-3.917326 12.302401,-8.215004 18.571872,-12.220928 -2.73e-4,1.74e-4 0.149634,-0.0955 0.149361,-0.09532 0.915847,-0.583813 1.88662,-1.140633 2.905334,-1.674572 m -9.153257,8.329443 c 2.689764,-1.423116 5.646577,-2.999883 8.388855,-4.434512 3.885757,-2.032842 7.928684,-4.091463 12.027621,-5.977253 6.739541,-3.100647 14.472974,-5.8755 23.161231,-9.141917 0,0 3e-6,-1e-6 3e-6,-1e-6 3.118106,-1.172278 6.041686,-2.018993 8.913336,-2.660225 M 87.741374,19.55991 c 7.201464,-2.519517 14.338446,-4.916307 21.452346,-7.195127 4.75258,-1.522409 9.99398,-2.6806645 15.31681,-3.7587409 2.03387,-0.4119344 4.90567,-0.9728855 6.93953,-1.38482 2.26205,-0.4558814 4.64611,-0.8591212 7.12529,-1.2145601 m -16.21434,2.564301 c 0.70642,-0.1482041 1.41399,-0.2947378 2.12286,-0.4395594 6.89391,-1.4084305 13.9267,-2.6585205 21.27231,-3.7166448 7.91189,-1.1396963 15.35388,-1.7877447 23.17979,-2.0644214 7.12035,-0.2517326 14.00631,-0.698313 20.44599,-0.5118749 m -30.67302,2.9125513 c 7.74987,-0.7889294 15.51757,-1.4601261 23.46029,-1.8471824 6.34689,-0.3092899 12.55111,-0.5669204 18.77929,-0.7882913 1.50813,-0.053604 3.0188,-0.1051222 4.53422,-0.1547561 4.00857,-0.1312903 7.93904,-0.056468 11.77743,0.082628 M 194.213,2.5038335 c 1.58474,0.025363 3.19377,0.034827 4.82289,0.034268 6.19701,-0.00213 12.67964,-0.1491033 19.17493,-0.1166466 0,0 0,0 0,10e-8 8.24916,0.041221 15.40381,1.0499973 22.65312,2.0099973 1.4352,0.1900579 2.90381,0.3898501 4.39855,0.6025368 m -12.7362,-2.1566918 c 7.8966,0.8119022 15.31602,1.5754222 22.56123,2.782475 6.64767,1.1075019 12.73911,1.9865211 19.38678,3.0940229 1.0808,0.1812152 2.14952,0.3646663 3.20374,0.5512726 0,0 0,2e-7 0,2e-7 3.37929,0.5981637 6.83201,1.4450735 10.25925,2.4272395 M 269.11277,8.3182628 c 1.97898,0.3688155 3.91781,0.7650374 5.81788,1.1876316 5.60932,1.2475636 10.88061,2.7249086 15.84639,4.4043706 6.83479,2.311568 15.59047,3.884735 22.96873,5.454127 5.77642,1.228674 10.84693,3.826018 15.48122,6.451592 m -22.94537,-7.706025 c 7.716,2.396392 14.89036,4.918279 21.57805,7.492266 4.03153,1.551673 7.97282,3.373325 11.61613,5.217617 2.89538,1.465677 5.65661,2.973197 8.18124,4.411923 5.01156,2.855961 10.86344,6.54074 16.18056,10.277366 M 337.75733,31.741024 c 0.001,7.34e-4 0.249,0.134254 0.25036,0.134988 7.26913,3.916734 13.72078,7.207135 20.08208,11.257744 0,0 0,1e-6 0,1e-6 6.90696,4.398065 12.7321,9.984032 17.46395,15.495133 0.4585,0.534013 1.61557,1.875356 2.07407,2.409369 m -8.88302,-9.995754 c 4.6408,3.754251 8.60364,7.902315 12.0079,12.15363 1.41148,1.762694 2.7395,3.559064 3.98811,5.37128 3.11435,4.520134 5.36881,8.821915 6.89365,13.1594 0.87929,2.501212 1.51384,5.010536 1.919,7.554604 0.15535,0.975426 0.30584,1.958813 0.4477,2.954909 m -2.59044,-13.4573 c 0.1987,0.476719 0.38987,0.955509 0.57337,1.43622 2.3808,6.236734 3.46318,12.773247 3.00729,19.308788 -0.0508,0.728604 -0.12078,1.457234 -0.2102,2.185404 -0.71058,5.78643 -1.61636,11.23 -3.39434,16.27887 -0.5711,1.62174 -1.23562,3.21161 -2.019,4.76247 -0.55922,1.10711 -1.19914,2.27111 -1.91209,3.48014 M 25.071787,144.32343 19.589249,138.43861 M 286.49403,12.036837 l 6.94769,1.794819"
     transform="matrix(0.6,0,0,0.6,5.07224,4.8934483)" />
  <g
     id="g7"
     transform="matrix(0.6,0,0,0.6,5.07224,14.893465)">
    <text
       xml:space="preserve"
       style="font-weight:bold;font-size:66.6667px;font-family:Sans;-inkscape-font-specification:'Sans, Bold';text-align:center;text-anchor:middle;fill:#808080;fill-opacity:0.12549;stroke:none;stroke-width:1;stroke-dasharray:none"
       x="200.57999"
       y="72.133308"
       id="text4"><tspan
         sodipodi:role="line"
         x="200.57999"
         y="72.133308"
         style="font-style:normal;font-variant:normal;font-weight:normal;font-stretch:normal;font-size:40px;font-family:Quicksand;-inkscape-font-specification:'Quicksand, Normal';font-variant-ligatures:normal;font-variant-caps:normal;font-variant-numeric:normal;font-variant-east-asian:normal;fill:#000000;fill-opacity:1"
         id="tspan6">Partie</tspan></text>
    <text
       xml:space="preserve"
       style="font-weight:bold;font-size:66.6667px;font-family:Sans;-inkscape-font-specification:'Sans, Bold';text-align:center;text-anchor:middle;fill:#808080;fill-opacity:0.12549;stroke:none;stroke-width:1;stroke-dasharray:none"
       x="200.57999"
       y="122.1333"
       id="text7"><tspan
         sodipodi:role="line"
         x="200.57999"
         y="122.1333"
         style="font-style:normal;font-variant:normal;font-weight:normal;font-stretch:normal;font-size:40px;font-family:Quicksand;-inkscape-font-specification:'Quicksand, Normal';font-variant-ligatures:normal;font-variant-caps:normal;font-variant-numeric:normal;font-variant-east-asian:normal;fill:#000000;fill-opacity:1"
         id="tspan7">starten</tspan></text>
  </g>
</svg>
