<?xml version="1.0" encoding="UTF-8" standalone="no"?>
<svg
   height="200"
   width="400"
   version="1.1"
   id="svg1"
   sodipodi:docname="usecase-17.svg"
   inkscape:version="1.3.2 (091e20ef0f, 2023-11-25, custom)"
   xmlns:inkscape="http://www.inkscape.org/namespaces/inkscape"
   xmlns:sodipodi="http://sodipodi.sourceforge.net/DTD/sodipodi-0.dtd"
   xmlns="http://www.w3.org/2000/svg"
   xmlns:svg="http://www.w3.org/2000/svg">
  <defs
     id="defs1">
    <inkscape:path-effect
       effect="sketch"
       id="path-effect4"
       is_visible="true"
       lpeversion="1"
       nbiter_approxstrokes="3"
       parallel_offset="0.2;1"
       strokelength="70"
       strokelength_rdm="0.3;1"
       strokeoverlap="0.5"
       strokeoverlap_rdm="0.5;1"
       ends_tolerance="0.1;1"
       tremble_size="0.8;1"
       tremble_frequency="3"
       nbtangents="2"
       tgt_places_rdmness="0.5;1"
       tgtlength="5"
       tgtlength_rdm="0.3;1"
       tgtscale="10" />
    <inkscape:path-effect
       effect="sketch"
       id="path-effect3"
       is_visible="true"
       lpeversion="1"
       nbiter_approxstrokes="3"
       parallel_offset="2;1"
       strokelength="70"
       strokelength_rdm="0.3;1"
       strokeoverlap="0.5"
       strokeoverlap_rdm="0.5;1"
       ends_tolerance="0.1;1"
       tremble_size="0.8;1"
       tremble_frequency="3"
       nbtangents="2"
       tgt_places_rdmness="0.5;1"
       tgtlength="5"
       tgtlength_rdm="0.3;1"
       tgtscale="10" />
    <inkscape:path-effect
       effect="sketch"
       id="path-effect2"
       is_visible="true"
       lpeversion="1"
       nbiter_approxstrokes="3"
       parallel_offset="2;1"
       strokelength="70"
       strokelength_rdm="0.3;1"
       strokeoverlap="0.5"
       strokeoverlap_rdm="0.5;1"
       ends_tolerance="0.1;1"
       tremble_size="0.8;1"
       tremble_frequency="3"
       nbtangents="2"
       tgt_places_rdmness="0.5;1"
       tgtlength="5"
       tgtlength_rdm="0.3;1"
       tgtscale="10" />
    <inkscape:path-effect
       effect="sketch"
       id="path-effect6"
       is_visible="true"
       lpeversion="1"
       nbiter_approxstrokes="3"
       parallel_offset="0.2;1"
       strokelength="70"
       strokelength_rdm="0.3;1"
       strokeoverlap="0.5"
       strokeoverlap_rdm="0.5;1"
       ends_tolerance="0.1;1"
       tremble_size="0.8;1"
       tremble_frequency="3"
       nbtangents="2"
       tgt_places_rdmness="0.5;1"
       tgtlength="5"
       tgtlength_rdm="0.3;1"
       tgtscale="10" />
    <inkscape:path-effect
       effect="sketch"
       id="path-effect5"
       is_visible="true"
       lpeversion="1"
       nbiter_approxstrokes="3"
       parallel_offset="0.2;1"
       strokelength="70"
       strokelength_rdm="0.3;1"
       strokeoverlap="0.5"
       strokeoverlap_rdm="0.5;1"
       ends_tolerance="0.1;1"
       tremble_size="0.8;1"
       tremble_frequency="3"
       nbtangents="2"
       tgt_places_rdmness="0.5;1"
       tgtlength="5"
       tgtlength_rdm="0.3;1"
       tgtscale="10" />
    <inkscape:path-effect
       effect="sketch"
       id="path-effect1"
       is_visible="true"
       lpeversion="1"
       nbiter_approxstrokes="3"
       parallel_offset="0.2;1"
       strokelength="70"
       strokelength_rdm="0.3;1"
       strokeoverlap="0.5"
       strokeoverlap_rdm="0.5;1"
       ends_tolerance="0.1;1"
       tremble_size="0.8;1"
       tremble_frequency="3"
       nbtangents="2"
       tgt_places_rdmness="0.5;1"
       tgtlength="5"
       tgtlength_rdm="0.3;1"
       tgtscale="10" />
  </defs>
  <sodipodi:namedview
     id="namedview1"
     pagecolor="#ffffff"
     bordercolor="#000000"
     borderopacity="0.25"
     inkscape:showpageshadow="2"
     inkscape:pageopacity="0.0"
     inkscape:pagecheckerboard="0"
     inkscape:deskcolor="#d1d1d1"
     inkscape:zoom="4.2831728"
     inkscape:cx="42.024922"
     inkscape:cy="144.05209"
     inkscape:window-width="1440"
     inkscape:window-height="831"
     inkscape:window-x="0"
     inkscape:window-y="0"
     inkscape:window-maximized="1"
     inkscape:current-layer="svg1"
     showgrid="false" />
  <path
     id="ellipse1"
     style="fill:#cccccc;fill-opacity:1;stroke:none;stroke-width:1;stroke-dasharray:none"
     d="M 30.779297 50.611328 A 196 98 0 0 0 4 100 A 196 98 0 0 0 200 198 A 196 98 0 0 0 379.2207 139.38867 A 196 98 0 0 1 210 188 A 196 98 0 0 1 14 90 A 196 98 0 0 1 30.779297 50.611328 z " />
  <path
     style="fill:none;fill-opacity:0.12549;stroke:#000000;stroke-width:1;stroke-dasharray:none"
     id="path1"
     inkscape:path-effect="#path-effect4"
     sodipodi:type="arc"
     sodipodi:cx="200"
     sodipodi:cy="100"
     sodipodi:rx="196"
     sodipodi:ry="98"
     d="m 396.0927,105.29251 c -0.30732,4.77894 -1.5625,9.6729 -3.59166,14.51491 -1.06084,2.53138 -2.32962,5.04022 -3.77613,7.50213 -2.17371,3.6996 -4.74332,7.31971 -7.74946,10.78646 -2.10807,2.43107 -4.4438,4.80177 -7.02948,7.08383 -2.30487,2.03421 -4.79175,4.22943 -7.24168,6.31612 m 13.40765,-13.43768 c -4.83075,5.39717 -10.41028,10.73482 -16.84617,15.2336 -5.46424,3.81958 -12.63229,8.92531 -19.39064,12.93312 0,0 -1e-5,0 -1e-5,0 -1.01502,0.60193 -2.04767,1.18796 -3.0978,1.76133 M 352.0516,161.55 c -4.38164,2.56022 -8.9125,5.15301 -13.35087,7.46476 -2.03885,1.06194 -4.09949,2.0866 -6.17762,3.04999 -6.15086,2.85144 -14.30757,6.27118 -22.62751,9.63154 0,0 0,0 0,0 -1.88246,0.76031 -3.69753,1.40345 -5.47083,1.9562 m 13.95606,-6.04114 c -7.16706,2.68374 -14.20599,5.07542 -21.3215,7.09709 -6.53725,1.85738 -14.30114,3.91824 -21.74893,5.76133 7.3e-4,-1.8e-4 -0.76876,0.18974 -0.76803,0.18956 -6.39468,1.57412 -13.02115,2.71603 -20.11168,4.06382 m 30.75682,-5.70192 c -3.1094,0.80035 -6.31813,1.48489 -9.6024,2.07376 -4.40718,0.7902 -8.92386,1.40342 -13.48698,1.89409 -7.72268,0.83041 -15.38752,2.12269 -23.38266,2.56401 -4.28596,0.23657 -8.42096,0.6652 -12.52074,1.13097 m 22.39923,-1.05883 c -7.39706,1.04418 -15.37031,1.66258 -23.20344,2.07479 -7.7282,0.40669 -15.76988,0.53276 -24.0791,0.1049 0,0 0,0 0,0 -0.53481,-0.0275 -1.06543,-0.0529 -1.59228,-0.0764 -1.90152,-0.0849 -3.75357,-0.1462 -5.5754,-0.20114 m 16.0463,-0.28822 c -3.53499,0.12454 -7.11689,0.28913 -10.68387,0.51039 -4.06842,0.25235 -8.10823,0.57786 -12.02998,1.00027 0,0 -1e-5,0 -1e-5,0 -7.38469,0.7954 -15.50576,-1.21535 -22.96008,-2.88059 -1.81725,-0.40595 -3.66927,-0.68745 -5.54375,-0.88617 m 14.86218,2.46348 c -7.83747,-0.67939 -15.7379,-1.29644 -23.82581,-2.30697 -8.22129,-1.0272 -15.4366,-2.42955 -22.78397,-4.21302 -0.804,-0.19517 -1.60734,-0.38434 -2.4088,-0.5686 m 12.84412,3.04584 c -4.07357,-0.63874 -8.1619,-1.51124 -12.19991,-2.55791 -3.58864,-0.93019 -7.14284,-1.99933 -10.61895,-3.16745 -7.72931,-2.59737 -15.394721,-3.96308 -22.852995,-6.2416 -5.956362,-1.81969 -11.472077,-3.787 -16.599897,-5.67038 m 25.535422,8.89459 c -7.656001,-2.17922 -14.753431,-4.8763 -21.148971,-7.87709 -5.828392,-2.73468 -12.539799,-5.1723 -18.804079,-7.85686 -1.132731,-0.48543 -2.250161,-0.9775 -3.350011,-1.4804 -5.630436,-2.57451 -10.201491,-5.62733 -14.259706,-8.76765 m 23.622041,14.0201 c -1.998283,-0.9458 -3.969711,-1.91576 -5.913286,-2.91607 -5.196012,-2.67426 -10.125149,-5.53094 -14.758386,-8.65481 0,0 -2e-6,0 -2e-6,0 -7.181715,-4.84213 -13.201365,-9.24548 -18.786831,-14.70044 -2.828777,-2.76268 -5.316542,-5.29531 -7.574973,-7.84969 m 14.484206,15.0704 c -6.396558,-5.06466 -11.869652,-10.69953 -16.388305,-17.01372 -0.129378,-0.18078 -0.257935,-0.36208 -0.385669,-0.54388 0,0 0,0 0,0 C 12.864972,129.26665 9.5446919,124.78283 7.2463304,119.36314 6.9815282,118.73872 6.7349542,118.11039 6.5065648,117.47528 4.8577591,112.89023 3.8590407,107.21793 3.8246266,101.60375 m 7.4528864,23.88513 c -1.188374,-2.18204 -2.25437,-4.39122 -3.1790389,-6.60495 -2.0318379,-4.86437 -3.3625926,-9.7065 -3.8481343,-14.31971 -0.1207614,-1.14737 -0.1818508,-2.34237 -0.1849478,-3.57251 -0.015421,-6.125562 1.4115283,-13.1545 4.0717061,-19.610667 0,0 4e-7,-1e-6 4e-7,-1e-6 -3.4e-6,8e-6 0.04449,-0.107742 0.044487,-0.107734 C 9.682988,77.645246 11.443417,74.186885 13.510088,70.860273 M 5.2763746,90.617245 c 0.6583015,-3.115496 1.5902148,-6.171997 2.8078387,-9.18555 1.6669715,-4.125665 3.8680167,-8.167153 6.6431237,-12.192347 1.463366,-2.122561 3.045397,-4.198073 4.754318,-6.223075 3.178422,-3.766303 6.807923,-7.373038 10.982896,-10.823648 1.213842,-1.003239 2.455595,-2.016493 3.716191,-3.027185 m -11.782128,9.379311 c 4.970639,-5.146349 11.144366,-10.652789 18.32727,-16.136148 6.608481,-5.044849 12.378878,-8.189092 19.368839,-12.167366 0.221272,-0.125935 0.444312,-0.250933 0.669088,-0.375018 2.183478,-1.205365 4.522305,-2.319902 6.984911,-3.367038 M 52.51674,36.04856 c 2.83115,-1.534368 5.854354,-3.108275 8.998936,-4.639227 3.917237,-1.907122 8.102997,-3.786909 12.436398,-5.467616 7.249344,-2.811654 14.298437,-5.798382 22.08557,-8.632276 0,0 3e-6,-1e-6 3e-6,-1e-6 5.584053,-2.032148 11.087253,-3.432156 16.841333,-4.735913 m -27.143815,7.612762 c 7.203289,-2.552381 14.315845,-4.659324 21.517695,-6.276035 5.21837,-1.171448 11.01989,-2.860551 17.05718,-4.6401518 1.95344,-0.5758105 3.93629,-1.1622565 5.88315,-1.72747 7.11179,-2.0647048 13.98005,-2.486717 21.23805,-3.1821324 m -30.94488,5.6772352 c 1.7449,-0.3693255 3.47674,-0.7160924 5.20065,-1.038002 5.86041,-1.0943252 11.64402,-1.9045219 17.61874,-2.3449502 7.37282,-0.5434887 14.59075,-1.9584997 21.96356,-2.5019884 6.47442,-0.4668814 14.64105,-1.0509379 22.34217,-1.2883014 M 154.5028,3.6664704 c 7.46062,-1.1568505 15.39162,-1.5555159 23.27575,-1.9355084 7.3212,-0.3528614 14.94368,-0.4305183 22.91108,-0.073473 0.49393,0.022134 0.98915,0.045938 1.48569,0.071448 3.95975,0.203438 7.50747,0.2518215 10.85462,0.2707976 m -21.01132,0.7020858 c 2.72592,-0.022216 5.42147,-0.034679 8.10627,-0.026553 5.16038,0.01562 10.27838,0.1072915 15.51234,0.3516107 0,0 0,0 0,0 8.01507,0.3741398 15.24528,0.4407314 22.2547,0.4132889 5.0042,-0.019592 10.80553,1.0378089 16.57743,2.2937246 M 228.28567,3.5140823 c 7.60383,0.6775163 15.91805,1.2183136 24.22286,1.9167154 8.43449,0.7093068 15.13584,2.3413131 21.7377,3.7641678 -3e-5,-4.6e-6 0.0909,0.019605 0.0908,0.0196 5.77293,1.2466615 12.69332,2.9742785 19.35221,4.9917355 M 265.30613,7.9970388 c 3.49457,0.6099184 6.98249,1.2752383 10.4394,1.9909833 4.1912,0.8677779 8.33433,1.8091529 12.39074,2.8159769 7.74141,1.921467 15.11774,3.899105 22.06217,5.913902 6.87065,1.993393 13.97962,5.051336 20.22935,7.900684 M 299.5831,14.900777 c 7.46236,2.191369 15.10901,4.800092 22.19571,7.611284 6.19426,2.457178 11.84334,5.280342 17.09466,8.509876 1.20858,0.743272 2.39524,1.507571 3.56125,2.293015 5.71951,3.85276 11.73963,6.656316 17.24133,9.851643 M 332.88907,27.820563 c 1.9549,0.898694 3.87621,1.822457 5.76309,2.770314 5.26619,2.645406 10.26351,5.478114 14.97049,8.474645 0,10e-7 0,10e-7 0,2e-6 7.14554,4.548956 12.97208,8.972229 17.97635,13.755666 3.14094,3.002336 6.27671,6.143612 9.23469,9.437772 2.35215,2.61949 4.53585,5.273988 6.47719,7.957234 M 363.60685,44.947927 c 6.63815,4.937337 11.85191,10.233176 15.68181,15.629904 0.23905,0.336858 0.48259,0.676687 0.72938,1.018716 4.47718,6.205043 9.16297,12.141201 12.64077,19.274553 0.0641,0.131465 0.12759,0.263021 0.19048,0.394667 0,0 0,0 0,10e-7 2.65644,5.561169 3.46884,10.542638 3.37634,15.36576 m -8.19937,-24.991486 c 1.60175,2.719909 2.97577,5.548685 4.09418,8.430398 1.72472,4.443949 2.83815,9.00337 3.26881,13.527896 0.18357,1.928478 0.28377,3.870797 0.29258,5.830542 0.0265,5.900572 -0.77635,11.924712 -2.59182,18.103852 -0.20281,0.69031 -0.42151,1.368 -0.65565,2.03407 -0.13889,0.39513 -0.2832,0.78612 -0.43284,1.1732 m 3.15096,-14.53255 c -0.68755,4.07987 -1.77627,8.40206 -3.35622,12.82848 -1.18278,3.3137 -2.64931,6.70805 -4.43359,10.08198 -1.83907,3.47756 -4.04551,6.51046 -6.62522,9.33785 -2.58056,2.8283 -5.44023,5.35453 -8.68012,8.01799 -3.59506,2.95544 -7.23333,6.10771 -11.06895,9.20395 m 18.39572,-16.28021 c -4.76221,5.40886 -10.68987,10.62109 -17.6747,15.36887 -5.99678,4.07618 -12.82449,8.69368 -20.01566,12.60462 0,0 0,0 0,0 -1.30735,0.71101 -2.6196,1.40763 -3.94077,2.09416 -0.42007,0.21828 -0.84089,0.43546 -1.26261,0.65169 m 13.84704,-7.53518 c -4.06985,2.25311 -7.71196,4.38184 -11.86599,6.75919 -2.59919,1.4875 -5.26955,2.99615 -7.93902,4.42674 -6.38305,3.42073 -13.91426,5.63995 -21.5346,7.8786 0,0 0,0 0,0 -3.77016,1.10757 -7.67912,2.34389 -11.98408,3.68067 m 19.4608,-6.12508 c -6.92675,2.70215 -14.09496,4.8688 -21.09574,6.6981 -5.79302,1.51372 -13.12712,3.19675 -20.35252,4.37952 -0.97319,0.1593 -1.94541,0.30969 -2.9123,0.44939 -7.82155,1.13013 -14.94153,2.9793 -23.1257,4.73949 m 34.27844,-6.12438 c -2.74022,0.65664 -5.54732,1.25383 -8.40299,1.79069 -4.75288,0.89353 -9.63015,1.61799 -14.5342,2.1696 -7.62244,0.85737 -15.25869,2.12251 -22.96771,2.66878 -3.5281,0.25 -7.05019,0.54615 -10.60409,0.8316 m 19.58816,-2.45667 c -7.78162,0.91532 -15.4086,1.68129 -23.2042,2.2255 -7.72888,0.53955 -15.4491,1.00845 -23.08786,1.62031 -0.064,0.005 -0.12801,0.0102 -0.19204,0.0151 -3.65088,0.28169 -7.34357,0.26221 -11.01894,0.14247 m 20.25703,-0.66649 c -3.2057,0.0872 -6.3391,0.1669 -9.38988,0.24379 -4.40659,0.11108 -8.61424,0.21575 -12.73585,0.33146 0,0 -1e-5,0 -1e-5,0 -6.97797,0.19589 -15.65987,-0.71599 -23.37369,-1.30485 -5.86561,-0.44776 -11.71219,-1.18695 -17.53235,-2.02026 m 27.70105,2.60175 c -8.14151,-0.81965 -15.94257,-1.25019 -24.08408,-2.06984 -8.35856,-0.85101 -15.44016,-2.36992 -22.70117,-3.97263 -0.59341,-0.13098 -1.18676,-0.26314 -1.77993,-0.39666 -5.61932,-1.26499 -11.14719,-2.63702 -16.42955,-4.26098 m 27.70318,5.41532 c -4.03138,-0.66578 -8.08327,-1.42469 -12.09062,-2.24992 -3.63797,-0.74916 -7.24548,-1.55425 -10.77647,-2.3964 -7.75557,-1.84973 -14.856862,-3.95404 -21.287759,-6.19495 -4.470472,-1.55778 -9.494966,-3.35728 -14.543486,-5.33628 m 23.345935,8.225 c -7.947004,-2.36713 -14.758829,-4.82476 -21.251247,-7.73053 -5.587422,-2.50073 -12.194581,-4.83479 -17.893607,-6.96461 -1.267453,-0.47367 -2.509936,-0.94387 -3.728421,-1.41675 -5.661838,-2.19732 -10.782542,-5.85557 -15.308414,-9.40547 m 24.616142,13.17539 c -1.931806,-0.80922 -3.836283,-1.67918 -5.709241,-2.58872 -5.350381,-2.59823 -10.667972,-5.63265 -15.64573,-8.57449 0,0 -1e-6,0 -1e-6,0 -7.476818,-4.41879 -12.879093,-9.35901 -17.571618,-14.56575 -0.744808,-0.82643 -1.510611,-1.64039 -2.283946,-2.44096 m 8.713975,10.05084 c -6.605593,-5.0763 -11.851655,-10.54754 -16.227757,-16.52464 -0.121275,-0.16565 -0.241887,-0.33169 -0.36184,-0.49814 0,0 -1e-6,0 -1e-6,0 -4.666365,-6.475 -8.266238,-11.69217 -10.8118791,-17.78488 -0.2937965,-0.70317 -0.5702722,-1.41161 -0.8291027,-2.12709 -1.9869015,-5.49242 -3.0080379,-11.21535 -3.0858876,-16.925513 -0.022842,-1.6754 0.035426,-3.349147 0.1737244,-5.016089 m 7.39248,32.279382 c -1.5229275,-2.62078 -2.7740892,-5.30502 -3.7480356,-8.02003 -1.6385617,-4.56772 -2.4961168,-9.23172 -2.5466585,-13.86462 -0.019109,-1.75166 -0.036003,-3.48562 -0.023358,-5.24822 0.042361,-5.904846 0.4205233,-11.929359 2.0956545,-17.784814 0,0 3e-7,-10e-7 3e-7,-10e-7 C 7.2287769,81.83993 7.3802483,81.357333 7.5444458,80.875786 9.4711732,75.225218 13.08588,69.870133 17.733466,64.497147 M 5.081227,92.609121 c 0.5699526,-3.988846 1.5759557,-8.000603 2.9864062,-12.04113 1.1883549,-3.404288 2.6555998,-6.806047 4.3750848,-10.219963 1.558768,-3.094826 3.553181,-5.961478 5.881894,-8.736627 2.63078,-3.135126 5.532995,-5.97922 8.654713,-8.976655 1.046158,-1.004508 2.161434,-1.992054 3.342188,-2.961128 M 21.123237,60.135793 C 25.8639,54.581329 31.814542,49.765026 38.790868,45.388647 c 6.138413,-3.85074 12.525031,-8.658404 19.623068,-12.981595 0,-10e-7 2e-6,-2e-6 2e-6,-2e-6 1.046423,-0.637343 2.106485,-1.238646 3.180049,-1.809324 3.415752,-1.815725 6.911412,-3.292245 10.506619,-4.64406 M 50.001244,37.714867 c 3.594012,-2.118935 7.544402,-4.39811 11.626905,-6.700701 2.875573,-1.621864 5.856897,-3.277987 8.846441,-4.907386 6.835303,-3.725464 13.993117,-5.610768 21.780604,-7.821522 10e-7,0 2e-6,0 2e-6,0 6.000543,-1.703466 12.115854,-3.694231 18.293124,-5.396246 m -28.454324,9.034146 c 7.194764,-2.761451 14.721376,-5.177237 23.089414,-7.598483 7.26766,-2.102862 13.35888,-3.624308 19.81922,-5.1926936 0.12779,-0.031024 1.7747,-0.4299355 1.90249,-0.4609595 1.847,-0.4468938 3.8106,-0.8398056 5.85963,-1.1873312 m -15.10737,3.6332933 c 2.35252,-0.594987 4.75835,-1.135274 7.22094,-1.6356351 5.30922,-1.0787527 10.81522,-1.9588379 16.58418,-2.8075947 8.16686,-1.2015478 15.21309,-2.2068075 22.71609,-2.9961736 2.21341,-0.2328648 4.496,-0.4356783 6.82712,-0.6130214 m -15.8195,1.3412281 c 7.65719,-0.7481732 15.14157,-1.5184352 22.30524,-1.8146496 6.78827,-0.2806916 14.8216,-0.3428432 22.45948,0.2030023 0.37792,0.027008 0.75486,0.055503 1.13062,0.085534 1.33081,0.1063552 2.65481,0.1788414 3.9744,0.226027 M 190.98923,2.2484194 c 2.85543,-0.080884 5.75254,-0.1283018 8.6899,-0.1499621 5.0539,-0.037268 10.229,0.00173 15.50426,0.077722 0,0 0,0 0,0 8.35701,0.1203917 15.35902,0.6483462 22.48216,1.0463904 4.78574,0.2674293 10.02327,1.1044939 15.20911,2.1840226 M 227.77608,3.9490444 c 7.62037,0.7758588 15.80478,1.2919481 23.88809,2.159213 8.28851,0.8892823 15.64076,1.9248606 23.39246,2.6237745 0.1771,0.015968 0.35375,0.032993 0.52995,0.051045 7.39101,0.7572202 14.27789,3.3789361 20.72511,5.5621231 M 263.71698,7.1880763 c 3.97153,0.7507538 7.90877,1.4422142 11.73556,2.1222575 3.79863,0.6750417 7.50585,1.3418172 11.23701,2.0751242 7.74416,1.522005 15.18578,4.06484 21.98974,6.394034 5.36542,1.836745 10.9295,4.103189 16.34961,6.736378 M 298.493,15.579854 c 7.69566,2.479315 14.91612,4.638981 22.17844,7.375236 6.17073,2.324975 11.95793,4.914534 17.29624,7.537716 1.21624,0.597647 2.41455,1.199714 3.59339,1.803533 6.94274,3.556172 13.88133,7.799796 19.8313,11.903074 M 331.42839,28.234429 c 2.18677,1.038513 4.62099,2.18509 6.80776,3.223603 4.96398,2.356645 9.49212,4.55168 13.96543,6.931815 0,10e-7 0,10e-7 0,2e-6 6.99701,3.722928 13.48731,9.157761 18.86594,13.985201 3.73956,3.35634 7.09546,6.832013 10.09905,10.450012 1.06949,1.288252 2.09392,2.594126 3.07404,3.917862 M 363.6485,45.349045 c 6.8836,5.080047 12.43892,10.348653 17.22187,15.920772 0.29414,0.342669 0.58338,0.686153 0.8678,1.03047 4.95444,5.997983 8.4726,12.290551 10.72503,18.870408 0.046,0.134341 0.0915,0.268806 0.13639,0.403397 0,0 0,0 0,0 2.10359,6.300658 3.26861,11.932765 3.03977,17.52119 M 388.53621,72.58868 c 1.73378,3.024442 3.17054,5.903931 4.30989,8.722254 1.61636,3.998297 2.61892,7.840529 2.98359,11.63656 0.1738,1.809135 0.25776,3.770083 0.23225,5.825986 -0.069,5.55762 -0.94375,11.86359 -2.99548,17.6189 -0.29,0.81347 -0.59664,1.62051 -0.92041,2.42185 -1.28748,3.18656 -2.84435,6.28018 -4.70623,9.3414 m 8.70366,-21.73979 c -0.6374,4.27997 -1.74241,8.70336 -3.39782,13.07191 -1.10607,2.91889 -2.4641,5.82826 -4.09486,8.63242 -1.89381,3.2565 -4.24605,6.4975 -7.02394,9.67891 -2.46497,2.82304 -5.26168,5.59493 -8.3523,8.27209 -3.12206,2.7044 -6.35137,5.45553 -9.59587,8.01073 m 15.18508,-14.13216 c -4.63258,5.71514 -10.06514,10.64389 -16.01515,15.69643 -5.22475,4.43667 -12.57547,8.24508 -20.39846,11.60537 0,0 0,0 0,0 -1.49886,0.64382 -2.98555,1.32109 -4.4827,2.02592 -1.04243,0.49076 -2.08231,0.99128 -3.13202,1.50131 m 16.48109,-7.62818 c -4.04949,2.40688 -8.28818,4.67697 -12.82807,6.8249 -2.80353,1.32641 -5.72907,2.60974 -8.81496,3.85793 -7.29196,2.94947 -13.961,5.78668 -20.5735,7.96974 0,0 -1e-5,0 -1e-5,0 -5.94144,1.9615 -13.79379,4.21726 -21.59076,6.06031 m 31.86334,-9.63137 c -6.9777,2.60467 -14.69894,5.18221 -22.89005,7.45478 -7.55653,2.09651 -14.34584,3.47931 -21.63937,4.33025 -0.24597,0.0287 -0.49255,0.0568 -0.73979,0.0843 -3.18232,0.35408 -6.40227,0.96031 -9.64874,1.65722 m 19.21679,-3.63363 c -2.77209,0.61054 -5.54187,1.23976 -8.35954,1.88407 -4.72201,1.07979 -9.63584,2.21569 -14.49135,3.26933 -7.60923,1.65119 -15.62181,2.02696 -24.2248,2.37476 -3.81823,0.15437 -7.28926,0.43296 -10.63483,0.72527 m 20.27853,-1.40806 c -8.00175,0.69508 -15.26535,1.86659 -23.12344,2.83151 -7.68468,0.94362 -15.2147,0.43653 -22.41307,-0.0988 -3e-5,-1e-5 -0.079,-0.006 -0.0791,-0.006 -2.61379,-0.19142 -5.39035,-0.24867 -8.23963,-0.24879 m 16.37756,0.71199 c -3.2144,0.129 -6.35883,0.12829 -9.47009,0.0246 -4.59662,-0.15323 -9.11687,-0.53118 -13.67417,-1.04603 0,0 0,0 0,0 -7.69328,-0.86913 -15.31809,-0.54335 -22.48558,-0.80156 -4.96284,-0.17878 -10.55118,-1.05196 -16.17509,-2.12519 m 26.50721,2.52745 c -7.69294,-0.39642 -15.65693,-1.14111 -23.23759,-1.74577 -7.80029,-0.62218 -15.75803,-2.62098 -23.59038,-4.66226 -0.49911,-0.13008 -0.99517,-0.25693 -1.48834,-0.38093 -4.55703,-1.14583 -9.06086,-2.09361 -13.34077,-3.07043 m 23.39015,6.33965 c -3.74921,-0.51571 -7.31971,-1.31665 -10.74101,-2.30581 -3.80828,-1.10103 -7.45368,-2.44189 -10.95858,-3.89227 -6.97222,-2.88522 -15.251743,-3.98671 -22.460902,-6.21918 -6.423874,-1.98929 -13.058342,-4.43029 -19.396729,-6.80415 m 29.565421,10.93749 c -7.798975,-2.06682 -15.385134,-5.05078 -22.81175,-8.23652 -6.28039,-2.69406 -12.286905,-4.92726 -17.454872,-6.98186 -1.270196,-0.50499 -2.526606,-1.01268 -3.78505,-1.53489 -2.026273,-0.84083 -4.014441,-1.88839 -5.950267,-3.06602 m 14.680509,5.6546 c -1.600294,-0.71805 -3.151101,-1.43558 -4.654685,-2.14942 -5.571208,-2.64497 -10.688321,-5.33289 -15.306218,-7.86461 0,0 -2e-6,0 -2e-6,0 -6.51168,-3.56997 -13.340326,-9.47279 -18.617931,-14.54335 -1.143415,-1.09856 -2.231951,-2.196 -3.269522,-3.29857 m 10.599127,9.1028 c -6.177034,-4.6348 -11.237477,-9.53797 -15.448256,-14.29234 -0.39025,-0.44063 -0.774435,-0.8814 -1.152646,-1.32203 C 13.703964,131.35952 10.247367,125.3945 7.8477485,119.72903 7.3802656,118.62531 6.9498334,117.5265 6.5568418,116.43812 4.7412117,111.4098 4.0716494,105.9783 4.3780985,100.52392 4.4055,100.03621 4.440706,99.548002 4.483611,99.059516 m 5.692507,26.505544 C 9.1059459,123.57894 8.1736834,121.58735 7.3725199,119.58802 5.205143,114.17926 3.9930875,108.70387 3.6208448,103.13168 c -0.063495,-0.95048 -0.094745,-1.89512 -0.09419,-2.83417 0.00381,-6.447178 1.5050566,-12.626356 4.3733824,-18.633678 0.1301379,-0.272556 0.2630783,-0.544746 0.3988102,-0.816592 0.6124705,-1.226665 1.25922,-2.486603 1.9431408,-3.768639 M 4.7796822,88.526703 c 0.6535616,-2.801408 1.5440433,-5.537517 2.6832176,-8.194802 1.7989037,-4.196196 4.2243182,-8.210604 7.3325252,-11.974386 1.391309,-1.684761 2.842437,-3.48025 4.372066,-5.346285 3.249704,-3.964403 7.129,-8.593138 11.405943,-12.645402 1.793902,-1.699664 3.678511,-3.237472 5.667659,-4.653778 M 23.843102,56.993562 c 5.082912,-5.242178 11.215014,-10.123501 18.443572,-14.560023 6.382616,-3.917326 12.302401,-8.215004 18.571872,-12.220928 -2.73e-4,1.74e-4 0.149634,-0.0955 0.149361,-0.09532 0.915847,-0.583813 1.88662,-1.140633 2.905334,-1.674572 m -11.109507,7.595068 c 2.689764,-1.423116 5.646577,-2.999883 8.388855,-4.434512 3.885757,-2.032842 7.928684,-4.091463 12.027621,-5.977253 6.739541,-3.100647 14.472974,-5.8755 23.161231,-9.141917 0,0 3e-6,-1e-6 3e-6,-1e-6 3.11811,-1.172278 6.041686,-2.018993 8.913336,-2.660225 m -17.567469,6.490722 c 7.201464,-2.519518 14.338449,-4.916307 21.452349,-7.195127 4.75257,-1.522409 9.99398,-2.680665 15.31681,-3.7587414 2.03386,-0.4119344 4.90567,-0.9728855 6.93953,-1.38482 2.26204,-0.4558814 4.64611,-0.8591212 7.12529,-1.2145601 M 123.07976,9.564713 c 0.70642,-0.1482041 1.41399,-0.2947378 2.12286,-0.4395594 6.89391,-1.4084305 13.9267,-2.6585205 21.27231,-3.7166448 7.91189,-1.1396963 15.35388,-1.7877447 23.17979,-2.0644214 7.12035,-0.2517326 14.00631,-0.698313 20.44599,-0.5118749 m -31.6527,1.9391138 c 7.74986,-0.7889294 15.51757,-1.4601261 23.46028,-1.8471824 6.34689,-0.3092899 12.55111,-0.5669204 18.77929,-0.7882913 1.50814,-0.053604 3.01881,-0.1051222 4.53423,-0.1547561 4.00856,-0.1312903 7.93903,-0.056468 11.77742,0.082628 m -22.34248,-0.069266 c 1.58474,0.025363 3.19377,0.034827 4.82289,0.034267 6.19701,-0.00213 12.67964,-0.1491033 19.17493,-0.1166466 0,-1e-7 0,10e-8 0,10e-8 8.24916,0.041221 15.40381,1.0499973 22.65312,2.0099973 1.4352,0.1900579 2.90381,0.3898501 4.39855,0.6025368 M 232.2091,3.7507343 c 7.89661,0.8119022 15.31602,1.5754222 22.56124,2.782475 6.64766,1.1075019 12.73911,1.9865211 19.38677,3.0940229 1.0808,0.1812152 2.14953,0.3646663 3.20375,0.5512728 0,0 0,0 0,0 3.37928,0.598164 6.832,1.445073 10.25925,2.42724 M 269.59246,8.5338878 c 1.97898,0.3688155 3.9178,0.7650374 5.81788,1.1876316 5.60932,1.2475636 10.88061,2.7249086 15.84639,4.4043706 6.83479,2.311568 15.59047,3.884735 22.96873,5.454127 5.77642,1.228674 10.84693,3.826018 15.48122,6.451592 m -24.36569,-8.482587 c 7.71601,2.396391 14.89037,4.918279 21.57806,7.492266 4.03152,1.551673 7.97282,3.373324 11.61613,5.217617 2.89537,1.465676 5.6566,2.973196 8.18124,4.411922 5.01156,2.855962 10.86344,6.540741 16.18056,10.277367 m -24.89902,-14.01967 c 0.001,7.34e-4 0.249,0.134254 0.25036,0.134988 7.26913,3.916734 13.72077,7.207135 20.08207,11.257744 0,0 0,1e-6 0,1e-6 6.90697,4.398065 12.73211,9.984032 17.46395,15.495133 0.45851,0.534013 1.61557,1.875356 2.07408,2.409369 m -8.53928,-10.016066 c 4.6408,3.75425 8.60364,7.902314 12.0079,12.15363 1.41148,1.762693 2.7395,3.559063 3.98811,5.37128 3.11436,4.520134 5.36882,8.821915 6.89365,13.1594 0.8793,2.501211 1.51385,5.010535 1.91901,7.554603 0.15534,0.975427 0.30583,1.958813 0.4477,2.95491 m -2.55607,-11.721363 c 0.1987,0.476719 0.38987,0.955509 0.57337,1.43622 2.3808,6.236734 3.46318,12.773247 3.00729,19.308787 -0.0508,0.72861 -0.12078,1.45723 -0.2102,2.18541 -0.71058,5.78643 -1.61636,11.22999 -3.39434,16.27886 -0.5711,1.62174 -1.23562,3.21161 -2.019,4.76248 -0.55922,1.10711 -1.19914,2.2711 -1.91209,3.48013 M 25.071787,144.32343 19.589249,138.43861 M 286.49403,12.036837 l 6.94769,1.794819" />
  <g
     id="g7"
     transform="translate(0,16.666695)">
    <text
       xml:space="preserve"
       style="font-weight:bold;font-size:66.6667px;font-family:Sans;-inkscape-font-specification:'Sans, Bold';text-align:center;text-anchor:middle;fill:#808080;fill-opacity:0.12549;stroke:none;stroke-width:1;stroke-dasharray:none"
       x="200.57999"
       y="72.133308"
       id="text4"><tspan
         sodipodi:role="line"
         x="200.57999"
         y="72.133308"
         style="font-style:normal;font-variant:normal;font-weight:normal;font-stretch:normal;font-size:40px;font-family:Quicksand;-inkscape-font-specification:'Quicksand, Normal';font-variant-ligatures:normal;font-variant-caps:normal;font-variant-numeric:normal;font-variant-east-asian:normal;fill:#000000;fill-opacity:1"
         id="tspan6">Rangliste</tspan></text>
    <text
       xml:space="preserve"
       style="font-weight:bold;font-size:66.6667px;font-family:Sans;-inkscape-font-specification:'Sans, Bold';text-align:center;text-anchor:middle;fill:#808080;fill-opacity:0.12549;stroke:none;stroke-width:1;stroke-dasharray:none"
       x="200.57999"
       y="122.1333"
       id="text7"><tspan
         sodipodi:role="line"
         x="200.57999"
         y="122.1333"
         style="font-style:normal;font-variant:normal;font-weight:normal;font-stretch:normal;font-size:40px;font-family:Quicksand;-inkscape-font-specification:'Quicksand, Normal';font-variant-ligatures:normal;font-variant-caps:normal;font-variant-numeric:normal;font-variant-east-asian:normal;fill:#000000;fill-opacity:1"
         id="tspan7">anzeigen</tspan></text>
  </g>
</svg>
