<?xml version="1.0" encoding="UTF-8" standalone="no"?>
<svg
   height="130"
   width="250"
   version="1.1"
   id="svg1"
   sodipodi:docname="usecase-12.svg"
   inkscape:version="1.3.2 (091e20ef0f, 2023-11-25, custom)"
   xmlns:inkscape="http://www.inkscape.org/namespaces/inkscape"
   xmlns:sodipodi="http://sodipodi.sourceforge.net/DTD/sodipodi-0.dtd"
   xmlns="http://www.w3.org/2000/svg"
   xmlns:svg="http://www.w3.org/2000/svg">
  <defs
     id="defs1">
    <inkscape:path-effect
       effect="sketch"
       id="path-effect4"
       is_visible="true"
       lpeversion="1"
       nbiter_approxstrokes="3"
       parallel_offset="1;2457983600"
       strokelength="70"
       strokelength_rdm="0.3;1"
       strokeoverlap="0.5"
       strokeoverlap_rdm="0.5;1"
       ends_tolerance="0.1;1"
       tremble_size="0.8;1"
       tremble_frequency="3"
       nbtangents="2"
       tgt_places_rdmness="0.5;1"
       tgtlength="5"
       tgtlength_rdm="0.3;1"
       tgtscale="10" />
    <inkscape:path-effect
       effect="sketch"
       id="path-effect3"
       is_visible="true"
       lpeversion="1"
       nbiter_approxstrokes="3"
       parallel_offset="2;1"
       strokelength="70"
       strokelength_rdm="0.3;1"
       strokeoverlap="0.5"
       strokeoverlap_rdm="0.5;1"
       ends_tolerance="0.1;1"
       tremble_size="0.8;1"
       tremble_frequency="3"
       nbtangents="2"
       tgt_places_rdmness="0.5;1"
       tgtlength="5"
       tgtlength_rdm="0.3;1"
       tgtscale="10" />
    <inkscape:path-effect
       effect="sketch"
       id="path-effect2"
       is_visible="true"
       lpeversion="1"
       nbiter_approxstrokes="3"
       parallel_offset="2;1"
       strokelength="70"
       strokelength_rdm="0.3;1"
       strokeoverlap="0.5"
       strokeoverlap_rdm="0.5;1"
       ends_tolerance="0.1;1"
       tremble_size="0.8;1"
       tremble_frequency="3"
       nbtangents="2"
       tgt_places_rdmness="0.5;1"
       tgtlength="5"
       tgtlength_rdm="0.3;1"
       tgtscale="10" />
    <inkscape:path-effect
       effect="sketch"
       id="path-effect6"
       is_visible="true"
       lpeversion="1"
       nbiter_approxstrokes="3"
       parallel_offset="0.2;1"
       strokelength="70"
       strokelength_rdm="0.3;1"
       strokeoverlap="0.5"
       strokeoverlap_rdm="0.5;1"
       ends_tolerance="0.1;1"
       tremble_size="0.8;1"
       tremble_frequency="3"
       nbtangents="2"
       tgt_places_rdmness="0.5;1"
       tgtlength="5"
       tgtlength_rdm="0.3;1"
       tgtscale="10" />
    <inkscape:path-effect
       effect="sketch"
       id="path-effect5"
       is_visible="true"
       lpeversion="1"
       nbiter_approxstrokes="3"
       parallel_offset="0.2;1"
       strokelength="70"
       strokelength_rdm="0.3;1"
       strokeoverlap="0.5"
       strokeoverlap_rdm="0.5;1"
       ends_tolerance="0.1;1"
       tremble_size="0.8;1"
       tremble_frequency="3"
       nbtangents="2"
       tgt_places_rdmness="0.5;1"
       tgtlength="5"
       tgtlength_rdm="0.3;1"
       tgtscale="10" />
    <inkscape:path-effect
       effect="sketch"
       id="path-effect1"
       is_visible="true"
       lpeversion="1"
       nbiter_approxstrokes="3"
       parallel_offset="0.2;1"
       strokelength="70"
       strokelength_rdm="0.3;1"
       strokeoverlap="0.5"
       strokeoverlap_rdm="0.5;1"
       ends_tolerance="0.1;1"
       tremble_size="0.8;1"
       tremble_frequency="3"
       nbtangents="2"
       tgt_places_rdmness="0.5;1"
       tgtlength="5"
       tgtlength_rdm="0.3;1"
       tgtscale="10" />
  </defs>
  <sodipodi:namedview
     id="namedview1"
     pagecolor="#ffffff"
     bordercolor="#000000"
     borderopacity="0.25"
     inkscape:showpageshadow="2"
     inkscape:pageopacity="0.0"
     inkscape:pagecheckerboard="0"
     inkscape:deskcolor="#d1d1d1"
     inkscape:zoom="1.0707932"
     inkscape:cx="37.355486"
     inkscape:cy="232.5379"
     inkscape:window-width="1440"
     inkscape:window-height="831"
     inkscape:window-x="0"
     inkscape:window-y="0"
     inkscape:window-maximized="1"
     inkscape:current-layer="svg1"
     showgrid="false" />
  <path
     id="ellipse1"
     style="fill:#cccccc;fill-opacity:1;stroke:none;stroke-width:0.6;stroke-dasharray:none"
     d="M 23.539818,35.260245 A 117.6,58.8 0 0 0 7.47224,64.893448 a 117.6,58.8 0 0 0 117.6,58.800002 117.6,58.8 0 0 0 107.53242,-35.1668 117.6,58.8 0 0 1 -101.53242,29.1668 117.6,58.8 0 0 1 -117.6,-58.800002 117.6,58.8 0 0 1 10.067578,-23.633203 z" />
  <path
     style="fill:none;fill-opacity:0.12549;stroke:#000000;stroke-width:1.66666667;stroke-dasharray:none"
     id="path1"
     inkscape:path-effect="#path-effect4"
     sodipodi:type="arc"
     sodipodi:cx="200"
     sodipodi:cy="100"
     sodipodi:rx="196"
     sodipodi:ry="98"
     d="m 396.96145,104.47532 c -0.30732,4.77894 -1.5625,9.6729 -3.59166,14.51491 -1.06084,2.53139 -2.32962,5.04023 -3.77613,7.50213 -2.17371,3.6996 -4.74332,7.31972 -7.74946,10.78647 -2.10807,2.43106 -4.4438,4.80176 -7.02948,7.08382 -2.30487,2.03421 -4.79175,4.22943 -7.24168,6.31612 m 12.66546,-12.40799 c -4.83075,5.39717 -10.41027,10.73482 -16.84617,15.2336 -5.46424,3.81958 -12.63229,8.92531 -19.39064,12.93312 0,0 0,0 0,0 -1.01503,0.60193 -2.04767,1.18796 -3.09781,1.76133 m 10.8399,-5.90196 c -4.38163,2.56023 -8.91249,5.15302 -13.35086,7.46476 -2.03886,1.06195 -4.09949,2.08661 -6.17762,3.04999 -6.15087,2.85144 -14.30757,6.27119 -22.62752,9.63155 0,0 0,0 0,0 -1.88245,0.76031 -3.69752,1.40345 -5.47082,1.9562 m 15.04824,-7.52395 c -7.16706,2.68373 -14.20598,5.07541 -21.3215,7.09709 -6.53724,1.85737 -14.30113,3.91823 -21.74893,5.76132 7.3e-4,-1.8e-4 -0.76875,0.18974 -0.76802,0.18956 -6.39469,1.57412 -13.02116,2.71603 -20.11168,4.06382 m 29.58337,-4.58161 c -3.10939,0.80035 -6.31812,1.4849 -9.60239,2.07376 -4.40718,0.79021 -8.92387,1.40342 -13.48699,1.89409 -7.72267,0.83041 -15.38751,2.1227 -23.38265,2.56401 -4.28596,0.23658 -8.42096,0.66521 -12.52074,1.13098 m 22.5086,-2.18071 c -7.39706,1.04418 -15.3703,1.66258 -23.20344,2.07479 -7.7282,0.40669 -15.76988,0.53276 -24.0791,0.1049 0,0 0,0 0,0 -0.53481,-0.0275 -1.06543,-0.0529 -1.59228,-0.0764 -1.90152,-0.0849 -3.75356,-0.1462 -5.5754,-0.20114 m 16.46349,-0.55541 c -3.53499,0.12454 -7.11689,0.28913 -10.68387,0.51039 -4.06842,0.25236 -8.10823,0.57786 -12.02998,1.00027 0,0 -1e-5,0 -1e-5,0 -7.38469,0.7954 -15.50576,-1.21535 -22.96008,-2.88058 -1.81725,-0.40596 -3.66927,-0.68746 -5.54375,-0.88618 m 14.9575,2.61192 c -7.83748,-0.67939 -15.7379,-1.29644 -23.82582,-2.30697 -8.22128,-1.0272 -15.4366,-2.42955 -22.78396,-4.21302 -0.80401,-0.19517 -1.60735,-0.38434 -2.4088,-0.5686 m 13.00973,3.91147 c -4.07356,-0.63875 -8.16189,-1.51124 -12.1999,-2.55791 -3.58864,-0.9302 -7.14284,-1.99933 -10.61895,-3.16745 -7.72932,-2.59738 -15.394724,-3.96308 -22.852997,-6.24161 -5.956363,-1.81968 -11.472078,-3.78699 -16.599897,-5.67038 m 26.005734,9.94616 c -7.656001,-2.17922 -14.753431,-4.87631 -21.148971,-7.87709 -5.828392,-2.73469 -12.539799,-5.17231 -18.804079,-7.85686 -1.132731,-0.48543 -2.250161,-0.9775 -3.350011,-1.48041 -5.630436,-2.57451 -10.201491,-5.62732 -14.259706,-8.76765 m 22.075166,13.17167 c -1.998283,-0.9458 -3.969711,-1.91576 -5.913286,-2.91607 -5.196012,-2.67426 -10.125149,-5.53094 -14.758386,-8.65481 0,0 -2e-6,0 -2e-6,0 -7.181715,-4.84213 -13.201365,-9.24548 -18.786831,-14.70044 -2.828777,-2.76268 -5.316542,-5.29531 -7.574973,-7.84969 m 14.807644,15.90946 c -6.396558,-5.06465 -11.869652,-10.69953 -16.388306,-17.01371 -0.129377,-0.18079 -0.257934,-0.36208 -0.385668,-0.54388 0,0 -1e-6,0 -1e-6,0 C 12.510285,130.31821 9.1900044,125.83439 6.8916429,120.4147 6.6268407,119.79028 6.3802667,119.16195 6.1518773,118.52684 4.5030716,113.94179 3.5043532,108.26949 3.4699391,102.65531 m 8.5888239,23.58045 C 10.870389,124.05371 9.804393,121.84453 8.8797241,119.63081 6.8478862,114.76644 5.5171315,109.92431 5.0315898,105.3111 4.9108284,104.16373 4.849739,102.96872 4.846642,101.73859 4.8312206,95.613023 6.2581703,88.584085 8.9183481,82.127918 c 0,0 4e-7,-10e-7 4e-7,-10e-7 -3.4e-6,8e-6 0.04449,-0.107742 0.044487,-0.107734 C 10.464238,78.392121 12.224667,74.93376 14.291338,71.607148 M 5.0982496,90.092245 c 0.6583015,-3.115496 1.5902148,-6.171997 2.8078387,-9.18555 1.6669715,-4.125665 3.8680167,-8.167153 6.6431237,-12.192347 1.463366,-2.122561 3.045397,-4.198073 4.754318,-6.223075 3.178422,-3.766303 6.807923,-7.373038 10.982896,-10.823648 1.213842,-1.003239 2.455595,-2.016493 3.716191,-3.027185 M 21.542364,59.601001 c 4.970639,-5.146349 11.144366,-10.652789 18.32727,-16.136148 6.608481,-5.044849 12.378878,-8.189092 19.368839,-12.167366 0.221272,-0.125935 0.444312,-0.250933 0.669088,-0.375018 2.183478,-1.205365 4.522305,-2.319902 6.984911,-3.367038 m -13.821044,8.722816 c 2.83115,-1.534368 5.854353,-3.108274 8.998936,-4.639226 3.917237,-1.907123 8.102996,-3.786909 12.436398,-5.467617 7.249343,-2.811653 14.298436,-5.798382 22.08557,-8.632276 10e-7,0 2e-6,-1e-6 3e-6,-1e-6 5.584045,-2.032147 11.087255,-3.432155 16.841335,-4.735913 m -28.37663,8.2612 c 7.203289,-2.552381 14.315845,-4.659324 21.5177,-6.276035 5.21836,-1.171448 11.01988,-2.860551 17.05718,-4.640152 1.95343,-0.5758103 3.93629,-1.1622563 5.88314,-1.7274698 7.1118,-2.0647048 13.98006,-2.486717 21.23805,-3.1821324 m -29.83706,5.4053602 c 1.7449,-0.369326 3.47674,-0.7160924 5.20065,-1.038002 5.86041,-1.0943252 11.64402,-1.9045219 17.61874,-2.3449502 7.37282,-0.5434887 14.59074,-1.9584997 21.96356,-2.5019884 6.47441,-0.4668814 14.64105,-1.0509379 22.34217,-1.2883014 m -34.35868,-0.030835 c 7.46062,-1.1568505 15.39162,-1.5555159 23.27575,-1.9355084 7.3212,-0.3528614 14.94368,-0.4305183 22.91108,-0.073473 0.49393,0.022134 0.98915,0.045938 1.48568,0.071448 3.95976,0.203438 7.50748,0.2518215 10.85463,0.2707976 m -19.63945,1.5755233 c 2.72593,-0.022216 5.42147,-0.034679 8.10627,-0.026553 5.16039,0.01562 10.27838,0.1072915 15.51234,0.3516107 0,0 10e-6,0 10e-6,0 8.01506,0.3741398 15.24528,0.4407314 22.25469,0.4132889 5.0042,-0.019592 10.80553,1.0378089 16.57743,2.2937246 M 229.18879,3.9359573 c 7.60384,0.6775163 15.91805,1.2183136 24.22287,1.9167154 8.43448,0.7093068 15.13583,2.3413131 21.73769,3.7641678 -2e-5,-4.6e-6 0.0909,0.019605 0.0908,0.0196 5.77293,1.2466615 12.69332,2.9742785 19.35222,4.9917355 M 266.03894,7.2048513 c 3.49457,0.6099184 6.98249,1.2752383 10.4394,1.9909833 4.1912,0.8677774 8.33433,1.8091524 12.39074,2.8159774 7.74142,1.921466 15.11774,3.899104 22.06217,5.913901 6.87065,1.993394 13.97962,5.051336 20.22935,7.900685 M 300.06904,15.082027 c 7.46236,2.191369 15.10901,4.800092 22.1957,7.611284 6.19427,2.457178 11.84335,5.280342 17.09467,8.509876 1.20858,0.743272 2.39523,1.507571 3.56124,2.293015 5.71952,3.85276 11.73964,6.656316 17.24134,9.851643 M 332.3047,27.794001 c 1.95489,0.898693 3.8762,1.822457 5.76309,2.770313 5.26618,2.645406 10.2635,5.478114 14.97048,8.474646 0,0 10e-6,10e-7 10e-6,10e-7 7.14554,4.548957 12.97207,8.972229 17.97634,13.755666 3.14094,3.002336 6.27672,6.143613 9.23469,9.437773 2.35216,2.619489 4.53586,5.273987 6.47719,7.957233 M 363.04592,45.143239 c 6.63814,4.937337 11.8519,10.233177 15.6818,15.629904 0.23906,0.336859 0.48259,0.676688 0.72938,1.018717 4.47718,6.205043 9.16297,12.141201 12.64077,19.274553 0.0641,0.131465 0.12759,0.26302 0.19048,0.394666 0,10e-7 0,10e-7 0,10e-7 2.65644,5.561169 3.46885,10.542638 3.37634,15.365761 m -7.87905,-25.352424 c 1.60174,2.719909 2.97577,5.548685 4.09418,8.430398 1.72472,4.443949 2.83814,9.00337 3.26881,13.527896 0.18356,1.928478 0.28376,3.870797 0.29258,5.830542 0.0265,5.900567 -0.77635,11.924717 -2.59182,18.103857 -0.20282,0.69031 -0.42152,1.368 -0.65565,2.03406 -0.1389,0.39513 -0.28321,0.78612 -0.43285,1.1732 m 4.1119,-14.10286 c -0.68754,4.07987 -1.77626,8.40207 -3.35621,12.82848 -1.18278,3.3137 -2.64932,6.70805 -4.43359,10.08198 -1.83908,3.47756 -4.04551,6.51046 -6.62523,9.33785 -2.58055,2.8283 -5.44023,5.35453 -8.68012,8.01799 -3.59506,2.95544 -7.23333,6.10771 -11.06894,9.20395 m 17.69571,-16.56614 c -4.76221,5.40886 -10.68987,10.62108 -17.6747,15.36887 -5.99678,4.07618 -12.82449,8.69368 -20.01566,12.60462 0,0 0,0 0,0 -1.30735,0.71101 -2.6196,1.40763 -3.94077,2.09415 -0.42007,0.21829 -0.84089,0.43547 -1.26261,0.6517 m 14.5408,-8.27425 c -4.06986,2.25311 -7.71196,4.38185 -11.866,6.75919 -2.59918,1.4875 -5.26955,2.99615 -7.93902,4.42674 -6.38304,3.42073 -13.91426,5.63995 -21.53459,7.8786 0,0 0,0 0,0 -3.77017,1.10757 -7.67913,2.34389 -11.98409,3.68067 m 19.2358,-5.94226 c -6.92675,2.70215 -14.09496,4.86879 -21.09574,6.6981 -5.79301,1.51372 -13.12712,3.19674 -20.35252,4.37951 -0.97319,0.15931 -1.94541,0.30969 -2.9123,0.4494 -7.82155,1.13012 -14.94152,2.9793 -23.12569,4.73948 m 33.25187,-4.74 c -2.74022,0.65664 -5.54732,1.25383 -8.40299,1.79069 -4.75288,0.89353 -9.63015,1.61799 -14.5342,2.1696 -7.62244,0.85737 -15.25869,2.12251 -22.96771,2.66878 -3.5281,0.25 -7.05019,0.54615 -10.60409,0.8316 m 20.64753,-2.60511 c -7.78162,0.91532 -15.40859,1.68129 -23.20419,2.2255 -7.72888,0.53955 -15.4491,1.00846 -23.08787,1.62031 -0.064,0.005 -0.12801,0.0102 -0.19203,0.0151 -3.65088,0.28169 -7.34357,0.26222 -11.01895,0.14247 m 19.65704,-2.38524 c -3.20571,0.0872 -6.3391,0.1669 -9.38988,0.2438 -4.40659,0.11107 -8.61425,0.21574 -12.73586,0.33145 0,0 0,0 0,0 -6.97797,0.1959 -15.65987,-0.71599 -23.37369,-1.30484 -5.86561,-0.44777 -11.7122,-1.18696 -17.53236,-2.02027 m 27.36043,2.658 c -8.14151,-0.81965 -15.94257,-1.25019 -24.08408,-2.06984 -8.35856,-0.85101 -15.44016,-2.36991 -22.70117,-3.97263 -0.59341,-0.13098 -1.18676,-0.26313 -1.77993,-0.39666 -5.61932,-1.26498 -11.14719,-2.63701 -16.42955,-4.26098 m 28.10943,6.92313 c -4.03138,-0.66578 -8.08327,-1.42469 -12.09062,-2.24991 -3.63797,-0.74916 -7.24548,-1.55426 -10.77647,-2.39641 -7.75557,-1.84973 -14.856862,-3.95403 -21.287759,-6.19494 -4.470472,-1.55778 -9.494966,-3.35728 -14.543486,-5.33629 m 22.647495,7.73595 c -7.947002,-2.36714 -14.758826,-4.82477 -21.251244,-7.73054 -5.587422,-2.50072 -12.194582,-4.83478 -17.893607,-6.9646 -1.267453,-0.47367 -2.509937,-0.94388 -3.728421,-1.41676 -5.661838,-2.19732 -10.782542,-5.85557 -15.308415,-9.40547 m 24.542705,14.20196 c -1.931806,-0.80923 -3.836283,-1.67919 -5.709241,-2.58873 -5.350381,-2.59822 -10.667972,-5.63264 -15.64573,-8.57449 0,0 -10e-7,0 -10e-7,0 -7.476818,-4.41878 -12.879093,-9.35901 -17.571618,-14.56575 -0.744808,-0.82642 -1.510611,-1.64039 -2.283946,-2.44096 m 9.093662,9.42741 c -6.605593,-5.0763 -11.851655,-10.54754 -16.227756,-16.52464 -0.121276,-0.16565 -0.241887,-0.3317 -0.361841,-0.49814 0,0 0,0 0,0 -4.666366,-6.475 -8.2662384,-11.69217 -10.8118796,-17.78488 -0.2937965,-0.70317 -0.5702722,-1.41161 -0.8291027,-2.1271 -1.9869015,-5.49242 -3.0080379,-11.21534 -3.0858876,-16.92551 -0.022842,-1.675396 0.035426,-3.349142 0.1737244,-5.016084 m 8.2206055,32.207504 c -1.522928,-2.62078 -2.7740897,-5.30502 -3.7480361,-8.02003 -1.6385617,-4.56772 -2.4961168,-9.23172 -2.5466585,-13.86462 -0.01911,-1.75166 -0.036003,-3.48562 -0.023359,-5.24822 0.042361,-5.904843 0.4205233,-11.929356 2.0956545,-17.784812 0,0 3e-7,-10e-7 3e-7,-10e-7 C 7.6522144,82.185242 7.8036858,81.702645 7.9678833,81.221099 9.8946107,75.570531 13.509317,70.215445 18.156903,64.84246 M 4.8890395,92.887246 C 5.4589921,88.8984 6.4649952,84.886643 7.8754457,80.846116 9.0638006,77.441828 10.531046,74.040069 12.25053,70.626153 c 1.558769,-3.094826 3.553182,-5.961478 5.881895,-8.736627 2.630779,-3.135126 5.532994,-5.97922 8.654712,-8.976655 1.046158,-1.004508 2.161435,-1.992054 3.342188,-2.961128 m -9.221713,9.8778 c 4.740663,-5.554464 10.691305,-10.370767 17.667631,-14.747146 6.138413,-3.85074 12.525031,-8.658404 19.623068,-12.981595 0,-1e-6 2e-6,-2e-6 2e-6,-2e-6 1.046423,-0.637343 2.106485,-1.238646 3.180049,-1.809324 3.415752,-1.815725 6.911412,-3.292245 10.506619,-4.64406 M 49.596557,37.938305 c 3.594011,-2.118935 7.544401,-4.39811 11.626905,-6.700701 2.875572,-1.621865 5.856896,-3.277987 8.846441,-4.907387 6.835302,-3.725463 13.993116,-5.610768 21.780603,-7.821521 10e-7,0 2e-6,-1e-6 3e-6,-1e-6 6.000543,-1.703466 12.115851,-3.69423 18.293121,-5.396245 m -28.549634,7.896646 c 7.194764,-2.761451 14.721376,-5.177237 23.089414,-7.598484 7.26766,-2.102861 13.35888,-3.6243078 19.81922,-5.1926931 0.12779,-0.031024 1.7747,-0.4299355 1.90249,-0.4609595 1.847,-0.4468938 3.8106,-0.8398056 5.85963,-1.1873312 m -14.49643,3.8442308 c 2.35252,-0.5949871 4.75835,-1.135274 7.22094,-1.6356351 5.30922,-1.0787527 10.81522,-1.9588379 16.58418,-2.8075947 8.16686,-1.2015478 15.21308,-2.2068075 22.71609,-2.9961736 2.2134,-0.2328648 4.496,-0.4356783 6.82711,-0.6130214 m -16.71637,2.5959156 c 7.65719,-0.7481732 15.14157,-1.5184352 22.30525,-1.8146496 6.78827,-0.2806916 14.8216,-0.3428432 22.45948,0.2030023 0.37791,0.027008 0.75485,0.055504 1.13061,0.085534 1.33081,0.1063552 2.65482,0.1788414 3.9744,0.226027 M 190.76266,2.7452944 c 2.85543,-0.080884 5.75255,-0.1283018 8.68991,-0.1499621 5.05389,-0.037268 10.229,0.00173 15.50426,0.077722 0,0 0,0 0,0 8.35701,0.1203917 15.35902,0.6483462 22.48216,1.0463904 4.78574,0.2674293 10.02327,1.1044939 15.20911,2.1840226 M 227.91983,3.6240444 c 7.62037,0.7758588 15.80478,1.2919481 23.88809,2.159213 8.28851,0.8892823 15.64076,1.9248606 23.39246,2.6237745 0.1771,0.015968 0.35375,0.032993 0.52995,0.051045 7.39101,0.7572202 14.27789,3.3789361 20.72511,5.5621231 M 264.1326,6.8583888 c 3.97153,0.7507538 7.90878,1.4422142 11.73556,2.1222575 3.79864,0.6750417 7.50585,1.3418167 11.23701,2.0751237 7.74417,1.522006 15.18579,4.064841 21.98974,6.394035 5.36543,1.836744 10.92951,4.103189 16.34961,6.736377 m -26.7234,-8.773516 c 7.69566,2.479315 14.91613,4.638982 22.17844,7.375236 6.17073,2.324976 11.95794,4.914535 17.29624,7.537717 1.21624,0.597646 2.41456,1.199713 3.59339,1.803532 6.94275,3.556173 13.88134,7.799797 19.8313,11.903074 M 331.24402,28.189116 c 2.18676,1.038514 4.62099,2.18509 6.80776,3.223604 4.96397,2.356644 9.49211,4.551679 13.96543,6.931814 0,0 0,2e-6 0,2e-6 6.997,3.722928 13.48731,9.157762 18.86593,13.985202 3.73956,3.35634 7.09546,6.832012 10.09906,10.450012 1.06948,1.288252 2.09391,2.594126 3.07403,3.917862 M 362.75632,45.29592 c 6.88359,5.080047 12.43891,10.348653 17.22186,15.920772 0.29414,0.342669 0.58339,0.686153 0.8678,1.03047 4.95444,5.997983 8.4726,12.290551 10.72504,18.870408 0.046,0.134341 0.0915,0.268806 0.13638,0.403397 0,0 0,0 0,0 2.1036,6.300658 3.26862,11.932765 3.03978,17.52119 M 388.08777,71.70743 c 1.73379,3.024442 3.17054,5.903931 4.30989,8.722254 1.61636,3.998297 2.61892,7.840529 2.98359,11.63656 0.1738,1.809135 0.25776,3.770083 0.23225,5.825986 -0.069,5.55762 -0.94374,11.86359 -2.99548,17.6189 -0.29,0.81347 -0.59664,1.62051 -0.92041,2.42185 -1.28748,3.18656 -2.84435,6.28018 -4.70623,9.3414 m 9.80366,-21.67417 c -0.6374,4.27997 -1.74241,8.70337 -3.39781,13.07192 -1.10607,2.91889 -2.46411,5.82825 -4.09486,8.63241 -1.89382,3.25651 -4.24605,6.49751 -7.02395,9.67892 -2.46497,2.82304 -5.26167,5.59492 -8.35229,8.27208 -3.12207,2.7044 -6.35138,5.45554 -9.59588,8.01073 m 13.80383,-14.47278 c -4.63257,5.71514 -10.06514,10.64389 -16.01515,15.69643 -5.22475,4.43667 -12.57547,8.24508 -20.39846,11.60537 0,0 0,0 0,0 -1.49885,0.64382 -2.98555,1.32109 -4.4827,2.02592 -1.04243,0.49076 -2.08231,0.99128 -3.13202,1.50131 m 17.06859,-5.6235 c -4.04948,2.40689 -8.28818,4.67698 -12.82807,6.8249 -2.80353,1.32642 -5.72907,2.60974 -8.81496,3.85793 -7.29196,2.94948 -13.96099,5.78669 -20.5735,7.96974 0,0 0,0 0,0 -5.94145,1.96151 -13.79379,4.21727 -21.59077,6.06032 m 32.81022,-10.89387 c -6.9777,2.60467 -14.69895,5.18221 -22.89005,7.45478 -7.55654,2.09651 -14.34584,3.47931 -21.63938,4.33025 -0.24597,0.0287 -0.49254,0.0568 -0.73979,0.0843 -3.18231,0.35408 -6.40226,0.96031 -9.64873,1.65722 m 19.1996,-3.18832 c -2.77209,0.61054 -5.54187,1.23976 -8.35954,1.88407 -4.72201,1.07979 -9.63584,2.21569 -14.49135,3.26933 -7.60923,1.65119 -15.62181,2.02696 -24.2248,2.37476 -3.81823,0.15437 -7.28926,0.43296 -10.63483,0.72527 m 19.87071,-2.03306 c -8.00174,0.69508 -15.26535,1.86659 -23.12343,2.83151 -7.68469,0.94362 -15.2147,0.43653 -22.41307,-0.0988 -4e-5,-1e-5 -0.079,-0.006 -0.0791,-0.006 -2.61379,-0.19142 -5.39035,-0.24867 -8.23963,-0.24879 m 16.79943,0.70886 c -3.2144,0.12901 -6.35883,0.12829 -9.47009,0.0246 -4.59662,-0.15323 -9.11686,-0.53117 -13.67416,-1.04602 0,0 -1e-5,0 -1e-5,0 -7.69327,-0.86914 -15.31809,-0.54336 -22.48558,-0.80156 -4.96284,-0.17879 -10.55118,-1.05196 -16.17508,-2.12519 m 25.34783,3.72432 c -7.69295,-0.39642 -15.65693,-1.14111 -23.2376,-1.74577 -7.80029,-0.62218 -15.75803,-2.62098 -23.59037,-4.66226 -0.49911,-0.13008 -0.99517,-0.25693 -1.48834,-0.38093 -4.55703,-1.14583 -9.06086,-2.09361 -13.34077,-3.07043 m 23.44327,6.43965 c -3.74921,-0.51571 -7.3197,-1.31665 -10.74101,-2.30581 -3.80827,-1.10103 -7.45368,-2.44189 -10.95858,-3.89227 -6.97222,-2.88522 -15.251741,-3.98671 -22.460899,-6.21918 -6.423875,-1.98929 -13.058342,-4.43029 -19.396729,-6.80415 m 29.090428,9.58593 c -7.798982,-2.06683 -15.385141,-5.05078 -22.811758,-8.23653 -6.280389,-2.69405 -12.286905,-4.92725 -17.454871,-6.98185 -1.270196,-0.50499 -2.526607,-1.01268 -3.78505,-1.53489 -2.026273,-0.84083 -4.014442,-1.88839 -5.950268,-3.06602 m 14.838322,6.74834 c -1.600294,-0.71804 -3.151101,-1.43557 -4.654685,-2.14941 -5.571208,-2.64497 -10.688321,-5.3329 -15.306218,-7.86461 0,0 -2e-6,-1e-5 -2e-6,-1e-5 -6.51168,-3.56996 -13.340326,-9.47279 -18.617931,-14.54334 -1.143415,-1.09856 -2.231951,-2.196 -3.269522,-3.29857 m 10.661627,9.47311 c -6.177034,-4.6348 -11.237477,-9.53797 -15.448256,-14.29234 -0.39025,-0.44063 -0.774435,-0.8814 -1.152646,-1.32203 C 13.144589,132.17202 9.6879916,126.207 7.2883735,120.54153 6.8208906,119.43781 6.3904584,118.339 5.9974668,117.25062 4.1818367,112.2223 3.5122744,106.7908 3.8187235,101.33642 3.846125,100.84871 3.881331,100.3605 3.924236,99.872016 M 9.3651809,124.54163 C 8.2950084,122.55551 7.3627459,120.56391 6.5615824,118.56458 4.3942055,113.15582 3.18215,107.68044 2.8099073,102.10824 c -0.063495,-0.95047 -0.094745,-1.89512 -0.09419,-2.83417 0.00381,-6.447176 1.5050566,-12.626353 4.3733824,-18.633675 0.1301379,-0.272556 0.2630783,-0.544747 0.3988102,-0.816593 0.6124705,-1.226664 1.25922,-2.486602 1.9431411,-3.768638 M 5.4078072,89.147015 c 0.6535616,-2.801408 1.5440433,-5.537516 2.6832176,-8.194801 1.7989037,-4.196197 4.2243182,-8.210605 7.3325252,-11.974387 1.391309,-1.68476 2.842437,-3.480249 4.372066,-5.346285 3.249704,-3.964402 7.129,-8.593138 11.405943,-12.645402 1.793902,-1.699664 3.678511,-3.237472 5.667659,-4.653778 M 23.35404,57.684187 c 5.082911,-5.242178 11.215013,-10.123501 18.443571,-14.560023 6.382616,-3.917326 12.302401,-8.215004 18.571873,-12.220928 -2.74e-4,1.74e-4 0.149634,-0.0955 0.14936,-0.09532 0.915848,-0.583813 1.88662,-1.140633 2.905335,-1.674572 m -11.278258,6.181005 c 2.689764,-1.423116 5.646577,-2.999883 8.388855,-4.434512 3.885757,-2.032842 7.928684,-4.091462 12.027622,-5.977252 6.73954,-3.100648 14.472973,-5.8755 23.161231,-9.141918 10e-7,0 10e-7,0 2e-6,-1e-6 3.118111,-1.172278 6.041679,-2.018993 8.913339,-2.660225 m -16.590909,6.342285 c 7.201464,-2.519518 14.338449,-4.916307 21.452349,-7.195127 4.75257,-1.522409 9.99398,-2.680665 15.31681,-3.7587414 2.03386,-0.4119344 4.90567,-0.9728855 6.93953,-1.38482 2.26204,-0.4558814 4.64611,-0.8591212 7.12529,-1.2145601 m -15.40966,2.939301 c 0.70642,-0.1482041 1.414,-0.2947378 2.12286,-0.4395594 6.89391,-1.4084305 13.92671,-2.6585205 21.27232,-3.7166448 7.91188,-1.1396963 15.35388,-1.7877447 23.17978,-2.0644214 7.12035,-0.2517326 14.00631,-0.698313 20.446,-0.5118749 m -31.38396,2.9281763 c 7.74987,-0.7889294 15.51757,-1.4601261 23.46029,-1.8471824 6.34688,-0.3092899 12.5511,-0.5669204 18.77928,-0.7882913 1.50814,-0.053604 3.01881,-0.1051222 4.53423,-0.1547561 4.00857,-0.1312903 7.93904,-0.056468 11.77743,0.082628 M 194.4005,2.1444585 c 1.58474,0.025363 3.19377,0.034827 4.82289,0.034268 6.19701,-0.00213 12.67964,-0.1491033 19.17493,-0.1166466 0,0 0,0 0,10e-8 8.24916,0.041221 15.40381,1.0499973 22.65312,2.0099973 1.4352,0.1900579 2.90381,0.3898501 4.39855,0.6025368 M 232.7216,2.8538593 c 7.89661,0.8119022 15.31602,1.5754222 22.56124,2.782475 6.64766,1.1075019 12.73911,1.9865211 19.38677,3.0940229 1.0808,0.1812152 2.14953,0.3646663 3.20375,0.5512726 0,0 0,2e-7 0,2e-7 3.37928,0.5981637 6.832,1.445073 10.25925,2.42724 M 268.79246,8.7088878 c 1.97898,0.3688155 3.9178,0.7650374 5.81788,1.1876316 5.60932,1.2475636 10.88061,2.7249086 15.84639,4.4043706 6.83479,2.311568 15.59047,3.884735 22.96873,5.454127 5.77642,1.228674 10.84693,3.826018 15.48122,6.451592 m -24.48444,-8.09665 c 7.71601,2.396392 14.89037,4.918279 21.57806,7.492266 4.03152,1.551673 7.97282,3.373325 11.61613,5.217617 2.89537,1.465677 5.6566,2.973197 8.18124,4.411923 5.01156,2.855961 10.86344,6.54074 16.18056,10.277366 M 338.87452,30.076962 c 0.001,7.34e-4 0.249,0.134254 0.25036,0.134988 7.26913,3.916733 13.72077,7.207134 20.08207,11.257743 0,0 10e-6,2e-6 10e-6,2e-6 6.90696,4.398064 12.7321,9.984031 17.46395,15.495133 0.4585,0.534013 1.61556,1.875356 2.07407,2.409369 m -9.65646,-8.581692 c 4.6408,3.754251 8.60364,7.902315 12.0079,12.15363 1.41148,1.762694 2.7395,3.559064 3.98811,5.37128 3.11435,4.520134 5.36881,8.821915 6.89365,13.1594 0.87929,2.501212 1.51384,5.010536 1.919,7.554604 0.15535,0.975426 0.30584,1.958813 0.4477,2.954909 m -2.24669,-12.121362 c 0.1987,0.476718 0.38987,0.955509 0.57337,1.43622 2.3808,6.236733 3.46318,12.773247 3.00729,19.308784 -0.0508,0.72861 -0.12078,1.45724 -0.2102,2.18541 -0.71058,5.78643 -1.61636,11.22999 -3.39434,16.27887 -0.5711,1.62174 -1.23562,3.2116 -2.019,4.76247 -0.55922,1.10711 -1.19914,2.2711 -1.91209,3.48013 M 25.071787,144.32343 19.589249,138.43861 M 286.49403,12.036837 l 6.94769,1.794819"
     transform="matrix(0.6,0,0,0.6,5.07224,4.8934483)" />
  <g
     id="g7"
     transform="matrix(0.6,0,0,0.6,5.07224,14.893465)">
    <text
       xml:space="preserve"
       style="font-weight:bold;font-size:66.6667px;font-family:Sans;-inkscape-font-specification:'Sans, Bold';text-align:center;text-anchor:middle;fill:#808080;fill-opacity:0.12549;stroke:none;stroke-width:1;stroke-dasharray:none"
       x="200.57999"
       y="72.133308"
       id="text4"><tspan
         sodipodi:role="line"
         x="200.57999"
         y="72.133308"
         style="font-style:normal;font-variant:normal;font-weight:normal;font-stretch:normal;font-size:40px;font-family:Quicksand;-inkscape-font-specification:'Quicksand, Normal';font-variant-ligatures:normal;font-variant-caps:normal;font-variant-numeric:normal;font-variant-east-asian:normal;fill:#000000;fill-opacity:1"
         id="tspan6">Stadt ausbauen</tspan></text>
    <text
       xml:space="preserve"
       style="font-weight:bold;font-size:66.6667px;font-family:Sans;-inkscape-font-specification:'Sans, Bold';text-align:center;text-anchor:middle;fill:#808080;fill-opacity:0.12549;stroke:none;stroke-width:1;stroke-dasharray:none"
       x="200.57999"
       y="122.1333"
       id="text7"><tspan
         sodipodi:role="line"
         x="200.57999"
         y="122.1333"
         style="font-style:normal;font-variant:normal;font-weight:normal;font-stretch:normal;font-size:40px;font-family:Quicksand;-inkscape-font-specification:'Quicksand, Normal';font-variant-ligatures:normal;font-variant-caps:normal;font-variant-numeric:normal;font-variant-east-asian:normal;fill:#000000;fill-opacity:1"
         id="tspan7">zu Metropole</tspan></text>
  </g>
</svg>
