<?xml version="1.0" encoding="UTF-8" standalone="no"?>
<svg
   height="130"
   width="250"
   version="1.1"
   id="svg1"
   sodipodi:docname="usecase-8.svg"
   inkscape:version="1.3.2 (091e20ef0f, 2023-11-25, custom)"
   xmlns:inkscape="http://www.inkscape.org/namespaces/inkscape"
   xmlns:sodipodi="http://sodipodi.sourceforge.net/DTD/sodipodi-0.dtd"
   xmlns="http://www.w3.org/2000/svg"
   xmlns:svg="http://www.w3.org/2000/svg">
  <defs
     id="defs1">
    <inkscape:path-effect
       effect="sketch"
       id="path-effect4"
       is_visible="true"
       lpeversion="1"
       nbiter_approxstrokes="3"
       parallel_offset="1;4028679504"
       strokelength="70"
       strokelength_rdm="0.3;1"
       strokeoverlap="0.5"
       strokeoverlap_rdm="0.5;1"
       ends_tolerance="0.1;1"
       tremble_size="0.8;1"
       tremble_frequency="3"
       nbtangents="2"
       tgt_places_rdmness="0.5;1"
       tgtlength="5"
       tgtlength_rdm="0.3;1"
       tgtscale="10" />
    <inkscape:path-effect
       effect="sketch"
       id="path-effect3"
       is_visible="true"
       lpeversion="1"
       nbiter_approxstrokes="3"
       parallel_offset="2;1"
       strokelength="70"
       strokelength_rdm="0.3;1"
       strokeoverlap="0.5"
       strokeoverlap_rdm="0.5;1"
       ends_tolerance="0.1;1"
       tremble_size="0.8;1"
       tremble_frequency="3"
       nbtangents="2"
       tgt_places_rdmness="0.5;1"
       tgtlength="5"
       tgtlength_rdm="0.3;1"
       tgtscale="10" />
    <inkscape:path-effect
       effect="sketch"
       id="path-effect2"
       is_visible="true"
       lpeversion="1"
       nbiter_approxstrokes="3"
       parallel_offset="2;1"
       strokelength="70"
       strokelength_rdm="0.3;1"
       strokeoverlap="0.5"
       strokeoverlap_rdm="0.5;1"
       ends_tolerance="0.1;1"
       tremble_size="0.8;1"
       tremble_frequency="3"
       nbtangents="2"
       tgt_places_rdmness="0.5;1"
       tgtlength="5"
       tgtlength_rdm="0.3;1"
       tgtscale="10" />
    <inkscape:path-effect
       effect="sketch"
       id="path-effect6"
       is_visible="true"
       lpeversion="1"
       nbiter_approxstrokes="3"
       parallel_offset="0.2;1"
       strokelength="70"
       strokelength_rdm="0.3;1"
       strokeoverlap="0.5"
       strokeoverlap_rdm="0.5;1"
       ends_tolerance="0.1;1"
       tremble_size="0.8;1"
       tremble_frequency="3"
       nbtangents="2"
       tgt_places_rdmness="0.5;1"
       tgtlength="5"
       tgtlength_rdm="0.3;1"
       tgtscale="10" />
    <inkscape:path-effect
       effect="sketch"
       id="path-effect5"
       is_visible="true"
       lpeversion="1"
       nbiter_approxstrokes="3"
       parallel_offset="0.2;1"
       strokelength="70"
       strokelength_rdm="0.3;1"
       strokeoverlap="0.5"
       strokeoverlap_rdm="0.5;1"
       ends_tolerance="0.1;1"
       tremble_size="0.8;1"
       tremble_frequency="3"
       nbtangents="2"
       tgt_places_rdmness="0.5;1"
       tgtlength="5"
       tgtlength_rdm="0.3;1"
       tgtscale="10" />
    <inkscape:path-effect
       effect="sketch"
       id="path-effect1"
       is_visible="true"
       lpeversion="1"
       nbiter_approxstrokes="3"
       parallel_offset="0.2;1"
       strokelength="70"
       strokelength_rdm="0.3;1"
       strokeoverlap="0.5"
       strokeoverlap_rdm="0.5;1"
       ends_tolerance="0.1;1"
       tremble_size="0.8;1"
       tremble_frequency="3"
       nbtangents="2"
       tgt_places_rdmness="0.5;1"
       tgtlength="5"
       tgtlength_rdm="0.3;1"
       tgtscale="10" />
  </defs>
  <sodipodi:namedview
     id="namedview1"
     pagecolor="#ffffff"
     bordercolor="#000000"
     borderopacity="0.25"
     inkscape:showpageshadow="2"
     inkscape:pageopacity="0.0"
     inkscape:pagecheckerboard="0"
     inkscape:deskcolor="#d1d1d1"
     inkscape:zoom="3.0286605"
     inkscape:cx="163.76877"
     inkscape:cy="99.05369"
     inkscape:window-width="1440"
     inkscape:window-height="831"
     inkscape:window-x="0"
     inkscape:window-y="0"
     inkscape:window-maximized="1"
     inkscape:current-layer="svg1"
     showgrid="false" />
  <path
     id="ellipse1"
     style="fill:#cccccc;fill-opacity:1;stroke:none;stroke-width:0.6;stroke-dasharray:none"
     d="M 23.539818,35.260245 A 117.6,58.8 0 0 0 7.47224,64.893448 a 117.6,58.8 0 0 0 117.6,58.800002 117.6,58.8 0 0 0 107.53242,-35.1668 117.6,58.8 0 0 1 -101.53242,29.1668 117.6,58.8 0 0 1 -117.6,-58.800002 117.6,58.8 0 0 1 10.067578,-23.633203 z" />
  <path
     style="fill:none;fill-opacity:0.12549;stroke:#000000;stroke-width:1.66666667;stroke-dasharray:none"
     id="path1"
     inkscape:path-effect="#path-effect4"
     sodipodi:type="arc"
     sodipodi:cx="200"
     sodipodi:cy="100"
     sodipodi:rx="196"
     sodipodi:ry="98"
     d="m 395.06301,104.16282 c -0.30732,4.77894 -1.5625,9.6729 -3.59166,14.51491 -1.06084,2.53139 -2.32962,5.04023 -3.77613,7.50213 -2.17371,3.6996 -4.74332,7.31972 -7.74946,10.78647 -2.10807,2.43106 -4.4438,4.80176 -7.02948,7.08382 -2.30486,2.03421 -4.79175,4.22943 -7.24167,6.31612 m 13.36858,-11.32986 c -4.83075,5.39717 -10.41028,10.73482 -16.84617,15.2336 -5.46424,3.81958 -12.63229,8.9253 -19.39064,12.93312 0,0 -10e-6,0 -10e-6,0 -1.01502,0.60192 -2.04767,1.18795 -3.0978,1.76133 m 11.50396,-6.99571 c -4.38163,2.56022 -8.91249,5.15301 -13.35086,7.46476 -2.03886,1.06194 -4.09949,2.0866 -6.17762,3.04999 -6.15087,2.85144 -14.30757,6.27118 -22.62752,9.63154 0,0 0,0 0,0 -1.88245,0.76031 -3.69752,1.40345 -5.47082,1.9562 m 14.50137,-6.57864 c -7.16706,2.68374 -14.20599,5.07542 -21.3215,7.09709 -6.53725,1.85738 -14.30114,3.91824 -21.74893,5.76133 7.3e-4,-1.8e-4 -0.76876,0.18974 -0.76803,0.18956 -6.39468,1.57412 -13.02115,2.71603 -20.11168,4.06382 m 31.61463,-4.93317 c -3.10939,0.80035 -6.31812,1.48489 -9.60239,2.07376 -4.40719,0.7902 -8.92387,1.40342 -13.48699,1.89409 -7.72268,0.83041 -15.38751,2.12269 -23.38265,2.56401 -4.28597,0.23657 -8.42096,0.6652 -12.52075,1.13097 m 21.09455,-0.6729 c -7.39707,1.04419 -15.37031,1.66258 -23.20345,2.0748 -7.7282,0.40669 -15.76988,0.53275 -24.07909,0.1049 0,0 -1e-5,0 -1e-5,0 -0.53481,-0.0275 -1.06543,-0.0529 -1.59227,-0.0764 -1.90152,-0.085 -3.75357,-0.1462 -5.57541,-0.20115 m 16.08068,-0.58665 c -3.53499,0.12454 -7.11689,0.28913 -10.68387,0.51039 -4.06842,0.25235 -8.10823,0.57786 -12.02998,1.00027 0,0 -1e-5,0 -1e-5,0 -7.38469,0.7954 -15.50576,-1.21535 -22.96008,-2.88059 -1.81725,-0.40595 -3.66927,-0.68745 -5.54375,-0.88617 m 15.09812,2.32285 c -7.83747,-0.67939 -15.7379,-1.29644 -23.82581,-2.30697 -8.22129,-1.0272 -15.4366,-2.42955 -22.78397,-4.21302 -0.80401,-0.19516 -1.60734,-0.38434 -2.4088,-0.56859 m 13.28318,2.52865 c -4.07357,-0.63874 -8.1619,-1.51124 -12.19991,-2.55791 -3.58864,-0.9302 -7.14284,-1.99933 -10.61895,-3.16745 -7.72931,-2.59737 -15.394721,-3.96308 -22.852995,-6.2416 -5.956362,-1.81969 -11.472077,-3.787 -16.599897,-5.67039 m 24.661982,8.46179 c -7.655999,-2.17922 -14.753428,-4.87631 -21.148969,-7.8771 -5.828391,-2.73468 -12.539798,-5.1723 -18.804078,-7.85685 -1.132731,-0.48543 -2.250161,-0.9775 -3.350011,-1.48041 -5.630437,-2.57451 -10.201491,-5.62733 -14.259706,-8.76765 m 24.731415,15.27323 c -1.998282,-0.9458 -3.969711,-1.91576 -5.913286,-2.91607 -5.196012,-2.67426 -10.125148,-5.53094 -14.758385,-8.65481 0,0 -3e-6,0 -3e-6,0 -7.181714,-4.84213 -13.201364,-9.24548 -18.786831,-14.70044 -2.828777,-2.76268 -5.316542,-5.29531 -7.574973,-7.84969 m 15.307644,13.90946 c -6.396558,-5.06465 -11.869652,-10.69953 -16.388305,-17.01371 -0.129378,-0.18079 -0.257935,-0.36208 -0.385669,-0.54388 0,0 0,0 0,0 C 13.893097,129.00571 10.572817,124.52189 8.2744554,119.1022 8.0096532,118.47778 7.7630792,117.84945 7.5346898,117.21434 5.8858841,112.62929 4.8871657,106.95699 4.8527516,101.34281 m 6.3544494,23.32264 C 10.018827,122.4834 8.9528305,120.27422 8.0281616,118.06049 5.9963237,113.19613 4.665569,108.354 4.1800273,103.74079 4.0592659,102.59341 3.9981765,101.39841 3.9950795,100.16828 3.9796581,94.042711 5.4066078,87.013772 8.0667856,80.557605 c 0,0 4e-7,-10e-7 4e-7,-10e-7 -3.4e-6,8e-6 0.04449,-0.107741 0.044487,-0.107733 1.5014028,-3.628062 3.2618313,-7.086424 5.3285033,-10.413036 M 5.1919996,89.95162 C 5.8503011,86.836124 6.7822144,83.779623 7.9998383,80.76607 9.6668098,76.640405 11.867855,72.598917 14.642962,68.573723 16.106328,66.451162 17.688359,64.37565 19.39728,62.350648 22.575702,58.584345 26.205203,54.97761 30.380176,51.527 c 1.213842,-1.003239 2.455595,-2.016493 3.716191,-3.027185 m -11.07744,10.913686 c 4.970638,-5.146349 11.144365,-10.652789 18.32727,-16.136148 6.608481,-5.044849 12.378877,-8.189092 19.368838,-12.167366 0.221273,-0.125935 0.444313,-0.250933 0.669088,-0.375018 2.183479,-1.205365 4.522305,-2.319902 6.984911,-3.367038 M 53.36049,35.56731 c 2.83115,-1.534368 5.854354,-3.108275 8.998936,-4.639227 3.917237,-1.907122 8.102997,-3.786909 12.436398,-5.467616 7.249344,-2.811654 14.298437,-5.798382 22.08557,-8.632276 10e-7,-1e-6 2e-6,-1e-6 3e-6,-1e-6 5.584053,-2.032148 11.087253,-3.432156 16.841333,-4.735913 m -27.704753,8.042449 c 7.203289,-2.55238 14.315843,-4.659323 21.517693,-6.276034 5.21837,-1.171449 11.01989,-2.860552 17.05718,-4.6401523 1.95344,-0.5758105 3.93629,-1.1622565 5.88315,-1.72747 7.1118,-2.0647048 13.98005,-2.486717 21.23805,-3.1821324 m -31.89957,5.600673 c 1.7449,-0.3693258 3.47675,-0.7160927 5.20066,-1.0380023 5.8604,-1.0943252 11.64401,-1.9045219 17.61874,-2.3449502 7.37281,-0.5434887 14.59074,-1.9584997 21.96356,-2.5019884 6.47441,-0.4668814 14.64104,-1.0509379 22.34217,-1.2883014 m -32.44462,1.6410399 c 7.46062,-1.1568505 15.39162,-1.5555159 23.27575,-1.9355084 7.3212,-0.3528614 14.94368,-0.4305183 22.91108,-0.073473 0.49393,0.022134 0.98915,0.045938 1.48568,0.071448 3.95976,0.203438 7.50748,0.2518215 10.85463,0.2707976 M 191.578,2.0283828 c 2.72592,-0.022216 5.42147,-0.034679 8.10627,-0.026553 5.16038,0.01562 10.27837,0.1072915 15.51234,0.3516107 0,0 0,0 0,0 8.01507,0.3741398 15.24528,0.4407314 22.2547,0.4132889 5.0042,-0.019592 10.80552,1.0378089 16.57742,2.2937246 m -25.3165,-1.7963721 c 7.60384,0.6775163 15.91805,1.2183136 24.22287,1.9167154 8.43448,0.7093068 15.13583,2.3413131 21.73769,3.7641678 -2e-5,-4.6e-6 0.0909,0.019605 0.0908,0.0196 5.77293,1.2466615 12.69332,2.9742785 19.35221,4.9917355 M 264.21863,8.6345388 c 3.49457,0.6099184 6.98249,1.2752383 10.4394,1.9909832 4.1912,0.867778 8.33433,1.809153 12.39074,2.815977 7.74141,1.921467 15.11774,3.899105 22.06217,5.913902 6.87065,1.993393 13.97962,5.051336 20.22935,7.900684 M 299.43623,15.417964 c 7.46236,2.191369 15.109,4.800092 22.1957,7.611285 6.19427,2.457178 11.84334,5.280342 17.09467,8.509876 1.20858,0.743272 2.39523,1.507571 3.56124,2.293014 5.71952,3.852761 11.73963,6.656317 17.24134,9.851644 M 332.8047,27.122126 c 1.95489,0.898693 3.8762,1.822457 5.76309,2.770313 5.26618,2.645406 10.2635,5.478114 14.97048,8.474646 0,0 10e-6,10e-7 10e-6,10e-7 7.14554,4.548957 12.97207,8.972229 17.97634,13.755666 3.14094,3.002336 6.27672,6.143613 9.23469,9.437773 2.35216,2.619489 4.53586,5.273987 6.47719,7.957233 M 363.60842,44.408864 c 6.63814,4.937337 11.8519,10.233177 15.6818,15.629904 0.23906,0.336859 0.48259,0.676688 0.72938,1.018717 4.47718,6.205043 9.16297,12.141201 12.64077,19.274553 0.0641,0.131465 0.12759,0.26302 0.19048,0.394666 0,10e-7 0,10e-7 0,10e-7 2.65644,5.561169 3.46885,10.542638 3.37634,15.365761 m -8.43374,-23.586799 c 1.60175,2.719909 2.97577,5.548685 4.09418,8.430398 1.72472,4.443949 2.83815,9.00337 3.26881,13.527896 0.18356,1.928478 0.28377,3.870797 0.29258,5.830539 0.0265,5.90057 -0.77635,11.92472 -2.59182,18.10386 -0.20282,0.69031 -0.42152,1.368 -0.65565,2.03406 -0.1389,0.39513 -0.28321,0.78612 -0.43284,1.1732 m 2.38533,-14.77474 c -0.68754,4.07988 -1.77626,8.40207 -3.35621,12.82849 -1.18278,3.31369 -2.64932,6.70805 -4.43359,10.08198 -1.83908,3.47755 -4.04551,6.51045 -6.62523,9.33784 -2.58055,2.82831 -5.44023,5.35454 -8.68012,8.018 -3.59506,2.95543 -7.23333,6.10771 -11.06894,9.20394 m 19.72696,-17.19114 c -4.76221,5.40886 -10.68987,10.62109 -17.6747,15.36887 -5.99678,4.07618 -12.82449,8.69368 -20.01566,12.60462 0,0 0,0 0,0 -1.30735,0.71101 -2.6196,1.40763 -3.94077,2.09416 -0.42007,0.21828 -0.84089,0.43546 -1.26261,0.65169 m 13.45486,-7.58675 c -4.06986,2.25312 -7.71196,4.38185 -11.866,6.75919 -2.59918,1.48751 -5.26955,2.99616 -7.93902,4.42675 -6.38304,3.42072 -13.91426,5.63995 -21.53459,7.8786 0,0 0,0 0,0 -3.77017,1.10757 -7.67913,2.34388 -11.98408,3.68067 m 18.90767,-5.20789 c -6.92675,2.70215 -14.09496,4.86879 -21.09574,6.6981 -5.79302,1.51372 -13.12712,3.19674 -20.35252,4.37951 -0.97319,0.15931 -1.94541,0.30969 -2.9123,0.4494 -7.82155,1.13012 -14.94153,2.9793 -23.1257,4.73948 m 35.11125,-6.59937 c -2.74021,0.65664 -5.54732,1.25383 -8.40299,1.79069 -4.75288,0.89353 -9.63015,1.61799 -14.5342,2.16959 -7.62244,0.85737 -15.25869,2.12251 -22.96771,2.66878 -3.52809,0.25001 -7.05018,0.54616 -10.60409,0.83161 m 19.56941,-2.75355 c -7.78162,0.91532 -15.40859,1.68129 -23.2042,2.2255 -7.72887,0.53955 -15.4491,1.00845 -23.08786,1.62031 -0.064,0.005 -0.12801,0.0102 -0.19204,0.0151 -3.65087,0.28169 -7.34356,0.26221 -11.01894,0.14247 m 20.59453,-1.48681 c -3.2057,0.0872 -6.33909,0.16691 -9.38987,0.2438 -4.4066,0.11107 -8.61425,0.21575 -12.73586,0.33146 0,0 0,0 0,0 -6.97797,0.19589 -15.65987,-0.716 -23.3737,-1.30485 -5.86561,-0.44776 -11.71219,-1.18696 -17.53235,-2.02026 m 27.11043,2.77518 c -8.14152,-0.81965 -15.94257,-1.25019 -24.08409,-2.06984 -8.35855,-0.85101 -15.44015,-2.36991 -22.70116,-3.97262 -0.59341,-0.13099 -1.18676,-0.26314 -1.77993,-0.39667 -5.61932,-1.26498 -11.1472,-2.63701 -16.42955,-4.26098 m 27.17193,6.51689 c -4.03139,-0.66578 -8.08327,-1.4247 -12.09062,-2.24992 -3.63798,-0.74916 -7.24548,-1.55425 -10.77648,-2.39641 -7.75556,-1.84972 -14.856854,-3.95403 -21.287751,-6.19494 -4.470473,-1.55778 -9.494967,-3.35728 -14.543487,-5.33629 m 23.936558,7.09532 c -7.947002,-2.36713 -14.758826,-4.82476 -21.251244,-7.73053 -5.587422,-2.50073 -12.194582,-4.83479 -17.893607,-6.96461 -1.267453,-0.47367 -2.509937,-0.94387 -3.728421,-1.41675 -5.661838,-2.19732 -10.782542,-5.85557 -15.308415,-9.40547 m 24.488017,14.60039 c -1.931806,-0.80922 -3.836283,-1.67918 -5.70924,-2.58872 -5.350381,-2.59823 -10.667972,-5.63265 -15.64573,-8.57449 0,0 -2e-6,0 -2e-6,0 -7.476818,-4.41879 -12.879092,-9.35901 -17.571618,-14.56575 -0.744807,-0.82643 -1.510611,-1.64039 -2.283946,-2.44096 m 8.632725,9.28678 c -6.605593,-5.0763 -11.851655,-10.54754 -16.227756,-16.52464 -0.121276,-0.16565 -0.241887,-0.3317 -0.361841,-0.49814 0,0 0,0 0,0 -4.666366,-6.475 -8.266238,-11.69217 -10.8118796,-17.78488 C 7.1662259,118.11964 6.8897502,117.4112 6.6309197,116.69571 4.6440182,111.20329 3.6228818,105.48037 3.5450321,99.770205 3.5221904,98.094804 3.5804576,96.421058 3.7187565,94.754116 M 10.236237,128.01631 C 8.713309,125.39553 7.4621473,122.71129 6.4882009,119.99628 4.8496392,115.42856 3.9920841,110.76456 3.9415424,106.13166 3.9224329,104.38 3.9055391,102.64604 3.9181839,100.88344 3.960545,94.978594 4.3387072,88.954081 6.0138384,83.098626 c 0,0 3e-7,-10e-7 3e-7,-10e-7 C 6.1522144,82.61493 6.3036858,82.132333 6.4678833,81.650786 8.3946107,76.000218 12.009317,70.645133 16.656903,65.272147 M 5.678102,91.887246 C 6.2480546,87.8984 7.2540577,83.886643 8.6645082,79.846116 9.8528631,76.441828 11.320108,73.040069 13.039593,69.626153 c 1.558768,-3.094826 3.553181,-5.961478 5.881894,-8.736627 2.63078,-3.135126 5.532995,-5.97922 8.654713,-8.976655 1.046158,-1.004508 2.161434,-1.992054 3.342188,-2.961128 m -9.338901,10.4403 c 4.740663,-5.554464 10.691305,-10.370767 17.667631,-14.747146 6.138413,-3.85074 12.525031,-8.658404 19.623068,-12.981595 0,-1e-6 2e-6,-2e-6 2e-6,-2e-6 1.046423,-0.637343 2.106485,-1.238646 3.180049,-1.809324 3.415752,-1.815725 6.911412,-3.292245 10.506619,-4.64406 M 48.846557,36.789867 c 3.594011,-2.118935 7.544401,-4.39811 11.626905,-6.700701 2.875572,-1.621864 5.856896,-3.277987 8.846441,-4.907386 6.835302,-3.725464 13.993116,-5.610768 21.780603,-7.821522 10e-7,0 2e-6,0 3e-6,0 6.000543,-1.703466 12.115851,-3.694231 18.293121,-5.396246 m -28.244947,9.107584 c 7.194765,-2.761451 14.721377,-5.177237 23.089407,-7.598484 7.26767,-2.102861 13.35889,-3.6243078 19.81923,-5.1926931 0.12779,-0.031024 1.7747,-0.4299355 1.90249,-0.4609595 1.847,-0.4468938 3.8106,-0.8398056 5.85963,-1.1873312 m -14.37143,4.5864178 c 2.35252,-0.594987 4.75835,-1.135274 7.22094,-1.6356346 5.30921,-1.0787527 10.81522,-1.9588379 16.58417,-2.8075947 8.16687,-1.2015478 15.21309,-2.2068075 22.7161,-2.9961736 2.2134,-0.2328648 4.496,-0.4356783 6.82711,-0.6130214 m -14.62262,1.5412281 c 7.65719,-0.7481732 15.14157,-1.5184352 22.30524,-1.8146496 6.78827,-0.2806916 14.8216,-0.3428432 22.45948,0.2030023 0.37792,0.027008 0.75486,0.055504 1.13062,0.085534 1.33081,0.1063552 2.65481,0.1788414 3.9744,0.226027 M 190.04391,1.6046694 c 2.85543,-0.080884 5.75255,-0.1283018 8.68991,-0.1499621 5.05389,-0.037268 10.229,0.00173 15.50426,0.077722 0,0 0,0 0,0 8.35701,0.1203917 15.35902,0.6483462 22.48216,1.0463904 4.78574,0.2674293 10.02327,1.1044939 15.20911,2.1840226 M 227.00577,2.8662319 c 7.62036,0.7758588 15.80478,1.2919481 23.88808,2.159213 8.28852,0.8892823 15.64077,1.9248606 23.39247,2.6237745 0.1771,0.015968 0.35374,0.032993 0.52994,0.051045 7.39102,0.7572202 14.2779,3.3789356 20.72512,5.5621236 M 263.89041,6.8349513 c 3.97153,0.7507538 7.90878,1.4422142 11.73556,2.1222575 3.79864,0.6750417 7.50585,1.3418172 11.23702,2.0751242 7.74416,1.522005 15.18578,4.06484 21.98973,6.394034 5.36543,1.836745 10.92951,4.103189 16.34961,6.736378 m -27.48121,-8.820391 c 7.69566,2.479315 14.91613,4.638981 22.17844,7.375236 6.17073,2.324975 11.95794,4.914534 17.29624,7.537716 1.21624,0.597647 2.41456,1.199714 3.59339,1.803533 6.94275,3.556172 13.88134,7.799796 19.8313,11.903074 M 331.05652,28.603179 c 2.18676,1.038513 4.62099,2.18509 6.80776,3.223603 4.96397,2.356645 9.49211,4.55168 13.96543,6.931815 0,0 0,2e-6 0,2e-6 6.997,3.722928 13.48731,9.157761 18.86593,13.985201 3.73956,3.35634 7.09546,6.832013 10.09906,10.450012 1.06948,1.288252 2.09391,2.594126 3.07403,3.917862 M 362.78757,44.756858 c 6.88359,5.080047 12.43891,10.348653 17.22186,15.920772 0.29414,0.342668 0.58339,0.686152 0.8678,1.03047 4.95444,5.997982 8.4726,12.290551 10.72504,18.870408 0.046,0.13434 0.0915,0.268806 0.13638,0.403396 0,0 0,10e-7 0,10e-7 2.1036,6.300657 3.26862,11.932765 3.03978,17.521189 m -6.69066,-25.717539 c 1.73379,3.024442 3.17054,5.903931 4.30989,8.722254 1.61636,3.998297 2.61892,7.840529 2.98359,11.63656 0.1738,1.809135 0.25776,3.770083 0.23225,5.825986 -0.069,5.557615 -0.94374,11.863585 -2.99548,17.618905 -0.29,0.81347 -0.59664,1.6205 -0.92041,2.42185 -1.28748,3.18656 -2.84435,6.28017 -4.70623,9.34139 m 9.34272,-20.99448 c -0.63739,4.27997 -1.74241,8.70337 -3.39781,13.07192 -1.10607,2.91889 -2.46411,5.82825 -4.09486,8.63242 -1.89382,3.2565 -4.24605,6.4975 -7.02394,9.67891 -2.46498,2.82304 -5.26168,5.59493 -8.3523,8.27209 -3.12207,2.7044 -6.35137,5.45553 -9.59587,8.01073 m 15.96007,-14.5431 c -4.63257,5.71514 -10.06514,10.64389 -16.01515,15.69643 -5.22475,4.43667 -12.57547,8.24508 -20.39845,11.60537 0,0 0,0 -1e-5,0 -1.49885,0.64382 -2.98555,1.32109 -4.4827,2.02592 -1.04243,0.49076 -2.08231,0.99128 -3.13202,1.50131 m 15.01391,-8.17037 c -4.04949,2.40689 -8.28819,4.67697 -12.82807,6.8249 -2.80353,1.32642 -5.72908,2.60974 -8.81496,3.85793 -7.29197,2.94947 -13.961,5.78669 -20.57351,7.96974 0,0 0,0 0,0 -5.94145,1.96151 -13.79379,4.21726 -21.59076,6.06031 m 31.34928,-9.18293 c -6.9777,2.60467 -14.69895,5.18221 -22.89005,7.45478 -7.55654,2.09651 -14.34584,3.47931 -21.63938,4.33025 -0.24597,0.0287 -0.49255,0.0568 -0.73979,0.0843 -3.18232,0.35408 -6.40226,0.96031 -9.64874,1.65722 m 20.67617,-5.07113 c -2.77209,0.61054 -5.54187,1.23976 -8.35954,1.88407 -4.72201,1.07979 -9.63584,2.21569 -14.49135,3.26933 -7.60923,1.65119 -15.62181,2.02696 -24.2248,2.37476 -3.81823,0.15437 -7.28926,0.43296 -10.63483,0.72527 m 19.20665,0.26381 c -8.00175,0.69509 -15.26535,1.8666 -23.12344,2.83151 -7.68468,0.94363 -15.21469,0.43654 -22.41306,-0.0988 -4e-5,0 -0.079,-0.006 -0.0791,-0.006 -2.61378,-0.19141 -5.39034,-0.24867 -8.23962,-0.24878 m 18.00255,0.50573 c -3.21439,0.12901 -6.35882,0.12829 -9.47009,0.0246 -4.59662,-0.15323 -9.11686,-0.53117 -13.67416,-1.04602 0,0 0,0 0,0 -7.69328,-0.86914 -15.3181,-0.54336 -22.48559,-0.80156 -4.96283,-0.17879 -10.55118,-1.05196 -16.17508,-2.12519 m 25.01189,2.11495 c -7.69294,-0.39642 -15.65693,-1.14112 -23.23759,-1.74577 -7.80029,-0.62218 -15.75803,-2.62098 -23.59038,-4.66227 -0.49911,-0.13008 -0.99517,-0.25692 -1.48834,-0.38093 -4.55702,-1.14582 -9.06086,-2.09361 -13.34077,-3.07042 m 24.72453,6.25995 c -3.74922,-0.5157 -7.31971,-1.31664 -10.74101,-2.3058 -3.80828,-1.10103 -7.45368,-2.44189 -10.95858,-3.89228 -6.97223,-2.88521 -15.251746,-3.9867 -22.460904,-6.21917 -6.423875,-1.9893 -13.058342,-4.43029 -19.396729,-6.80415 m 28.598233,11.29686 c -7.798975,-2.06682 -15.385134,-5.05077 -22.81175,-8.23652 -6.28039,-2.69406 -12.286905,-4.92726 -17.454872,-6.98186 -1.270196,-0.50498 -2.526606,-1.01267 -3.78505,-1.53488 -2.026273,-0.84084 -4.014441,-1.88839 -5.950267,-3.06602 m 15.103947,5.65459 c -1.600294,-0.71805 -3.151101,-1.43557 -4.654685,-2.14941 -5.571208,-2.64498 -10.688321,-5.3329 -15.306218,-7.86462 0,0 -2e-6,0 -2e-6,0 -6.511681,-3.56996 -13.340326,-9.47279 -18.617931,-14.54335 -1.143416,-1.09855 -2.231952,-2.196 -3.269523,-3.29857 m 10.04444,7.94187 c -6.177034,-4.63481 -11.237477,-9.53797 -15.448256,-14.29234 -0.39025,-0.44063 -0.774435,-0.88141 -1.152646,-1.32204 C 13.441464,130.53139 9.9848666,124.56637 7.5852485,118.90091 7.1177656,117.79718 6.6873334,116.69837 6.2943418,115.61 4.4787117,110.58168 3.8091494,105.15017 4.1155985,99.695791 4.143,99.20808 4.178206,98.719877 4.221111,98.231391 m 6.698757,26.474299 C 9.8496959,122.71957 8.9174334,120.72797 8.1162699,118.72864 5.948893,113.31988 4.7368375,107.8445 4.3645948,102.27231 4.3010994,101.32183 4.2698497,100.37718 4.2704046,99.438133 4.2742146,92.990957 5.7754612,86.811779 8.643787,80.804457 8.7739249,80.531901 8.9068653,80.259711 9.0425972,79.987865 9.6550677,78.7612 10.301817,77.501262 10.985738,76.219226 M 3.9624947,87.69389 C 4.6160563,84.892482 5.506538,82.156374 6.6457123,79.499089 8.444616,75.302892 10.87003,71.288484 13.978237,67.524702 c 1.391309,-1.68476 2.842438,-3.480249 4.372066,-5.346285 3.249704,-3.964402 7.129,-8.593138 11.405944,-12.645402 1.793902,-1.699664 3.67851,-3.237472 5.667658,-4.653778 M 24.221227,57.324812 C 29.304139,52.082634 35.436241,47.201311 42.664799,42.764789 49.047415,38.847463 54.9672,34.549785 61.236671,30.543861 c -2.73e-4,1.74e-4 0.149634,-0.0955 0.149361,-0.09532 0.915847,-0.583813 1.88662,-1.140633 2.905334,-1.674572 m -12.12982,6.282568 c 2.689764,-1.423116 5.646577,-2.999883 8.388855,-4.434512 3.885757,-2.032842 7.928684,-4.091463 12.027622,-5.977253 6.73954,-3.100647 14.472973,-5.8755 23.161231,-9.141917 10e-7,-1e-6 10e-7,-1e-6 2e-6,-1e-6 3.118111,-1.172278 6.041684,-2.018993 8.913334,-2.660225 m -16.387779,8.381347 c 7.201464,-2.519518 14.338449,-4.916307 21.452349,-7.195127 4.75257,-1.522409 9.99398,-2.680665 15.31681,-3.758741 2.03386,-0.4119348 4.90567,-0.9728859 6.93953,-1.3848204 2.26204,-0.4558814 4.64611,-0.8591212 7.12529,-1.2145601 m -16.72997,2.3299265 c 0.70642,-0.1482046 1.41399,-0.2947383 2.12286,-0.4395599 6.89391,-1.4084305 13.92671,-2.6585205 21.27231,-3.7166448 7.91189,-1.1396963 15.35389,-1.7877447 23.17979,-2.0644214 7.12035,-0.2517326 14.00631,-0.698313 20.446,-0.5118749 m -31.42302,1.1391138 c 7.74986,-0.7889294 15.51757,-1.4601261 23.46028,-1.8471824 6.34689,-0.3092899 12.55111,-0.5669204 18.77929,-0.7882913 1.50814,-0.053604 3.01881,-0.1051222 4.53423,-0.1547561 4.00856,-0.1312903 7.93903,-0.056468 11.77742,0.082628 M 195.1505,2.230396 c 1.58474,0.025363 3.19377,0.034827 4.82289,0.034268 6.19701,-0.00213 12.67964,-0.1491033 19.17493,-0.1166466 0,0 0,0 0,10e-8 8.24916,0.041221 15.40381,1.0499973 22.65312,2.0099973 1.4352,0.1900579 2.90381,0.3898501 4.39855,0.6025368 M 231.7841,4.3226093 c 7.89661,0.8119022 15.31602,1.5754222 22.56124,2.782475 6.64766,1.1075019 12.73911,1.9865211 19.38677,3.0940227 1.0808,0.181215 2.14953,0.364666 3.20375,0.551273 0,0 0,0 0,0 3.37928,0.598164 6.832,1.445073 10.25925,2.42724 m -17.9964,-4.8749822 c 1.97898,0.3688155 3.9178,0.7650374 5.81788,1.1876316 5.60932,1.2475636 10.88061,2.7249086 15.84639,4.4043706 6.83479,2.311568 15.59047,3.884735 22.96873,5.454127 5.77642,1.228674 10.84693,3.826018 15.48122,6.451592 M 305.2738,18.430272 c 7.71601,2.396391 14.89037,4.918279 21.57806,7.492266 4.03153,1.551673 7.97282,3.373324 11.61613,5.217617 2.89538,1.465676 5.65661,2.973196 8.18124,4.411922 5.01156,2.855962 10.86344,6.540741 16.18056,10.277367 M 338.50733,30.725399 c 0.001,7.34e-4 0.249,0.134254 0.25036,0.134988 7.26913,3.916734 13.72078,7.207135 20.08208,11.257744 0,0 0,1e-6 0,1e-6 6.90696,4.398065 12.7321,9.984032 17.46395,15.495133 0.4585,0.534013 1.61557,1.875356 2.07407,2.409369 m -8.85177,-10.925441 c 4.6408,3.75425 8.60364,7.902314 12.0079,12.15363 1.41148,1.762693 2.7395,3.559063 3.98811,5.37128 3.11435,4.520134 5.36881,8.821915 6.89365,13.1594 0.87929,2.501211 1.51384,5.010535 1.919,7.554603 0.15535,0.975427 0.30584,1.958813 0.4477,2.95491 m -1.91075,-10.160425 c 0.1987,0.476718 0.38987,0.955509 0.57337,1.43622 2.3808,6.236733 3.46317,12.773247 3.00729,19.308789 -0.0508,0.72861 -0.12078,1.45723 -0.2102,2.1854 -0.71058,5.78643 -1.61637,11.23 -3.39434,16.27887 -0.5711,1.62174 -1.23563,3.21161 -2.019,4.76248 -0.55923,1.1071 -1.19914,2.2711 -1.91209,3.48013 M 25.071787,144.32343 19.589249,138.43861 M 286.49403,12.036837 l 6.94769,1.794819"
     transform="matrix(0.6,0,0,0.6,5.07224,4.8934483)" />
  <g
     id="g7"
     transform="matrix(0.6,0,0,0.6,5.07224,14.893465)">
    <text
       xml:space="preserve"
       style="font-weight:bold;font-size:66.6667px;font-family:Sans;-inkscape-font-specification:'Sans, Bold';text-align:center;text-anchor:middle;fill:#808080;fill-opacity:0.12549;stroke:none;stroke-width:1;stroke-dasharray:none"
       x="200.57999"
       y="72.133308"
       id="text4"><tspan
         sodipodi:role="line"
         x="200.57999"
         y="72.133308"
         style="font-style:normal;font-variant:normal;font-weight:normal;font-stretch:normal;font-size:40px;font-family:Quicksand;-inkscape-font-specification:'Quicksand, Normal';font-variant-ligatures:normal;font-variant-caps:normal;font-variant-numeric:normal;font-variant-east-asian:normal;fill:#000000;fill-opacity:1"
         id="tspan6">Spielzug</tspan></text>
    <text
       xml:space="preserve"
       style="font-weight:bold;font-size:66.6667px;font-family:Sans;-inkscape-font-specification:'Sans, Bold';text-align:center;text-anchor:middle;fill:#808080;fill-opacity:0.12549;stroke:none;stroke-width:1;stroke-dasharray:none"
       x="200.57999"
       y="122.1333"
       id="text7"><tspan
         sodipodi:role="line"
         x="200.57999"
         y="122.1333"
         style="font-style:normal;font-variant:normal;font-weight:normal;font-stretch:normal;font-size:40px;font-family:Quicksand;-inkscape-font-specification:'Quicksand, Normal';font-variant-ligatures:normal;font-variant-caps:normal;font-variant-numeric:normal;font-variant-east-asian:normal;fill:#000000;fill-opacity:1"
         id="tspan7">ausführen</tspan></text>
  </g>
</svg>
