<?xml version="1.0" encoding="UTF-8" standalone="no"?>
<svg
   height="130"
   width="250"
   version="1.1"
   id="svg1"
   sodipodi:docname="usecase-1.svg"
   inkscape:version="1.3.2 (091e20ef0f, 2023-11-25, custom)"
   xmlns:inkscape="http://www.inkscape.org/namespaces/inkscape"
   xmlns:sodipodi="http://sodipodi.sourceforge.net/DTD/sodipodi-0.dtd"
   xmlns="http://www.w3.org/2000/svg"
   xmlns:svg="http://www.w3.org/2000/svg">
  <defs
     id="defs1">
    <inkscape:path-effect
       effect="sketch"
       id="path-effect4"
       is_visible="true"
       lpeversion="1"
       nbiter_approxstrokes="3"
       parallel_offset="1;3883339009"
       strokelength="70"
       strokelength_rdm="0.3;2322538959"
       strokeoverlap="0.5"
       strokeoverlap_rdm="0.5;3217345626"
       ends_tolerance="0.1;3926522537"
       tremble_size="0.8;3644333791"
       tremble_frequency="3"
       nbtangents="2"
       tgt_places_rdmness="0.5;1"
       tgtlength="5"
       tgtlength_rdm="0.3;1"
       tgtscale="10" />
    <inkscape:path-effect
       effect="sketch"
       id="path-effect3"
       is_visible="true"
       lpeversion="1"
       nbiter_approxstrokes="3"
       parallel_offset="2;1"
       strokelength="70"
       strokelength_rdm="0.3;1"
       strokeoverlap="0.5"
       strokeoverlap_rdm="0.5;1"
       ends_tolerance="0.1;1"
       tremble_size="0.8;1"
       tremble_frequency="3"
       nbtangents="2"
       tgt_places_rdmness="0.5;1"
       tgtlength="5"
       tgtlength_rdm="0.3;1"
       tgtscale="10" />
    <inkscape:path-effect
       effect="sketch"
       id="path-effect2"
       is_visible="true"
       lpeversion="1"
       nbiter_approxstrokes="3"
       parallel_offset="2;1"
       strokelength="70"
       strokelength_rdm="0.3;1"
       strokeoverlap="0.5"
       strokeoverlap_rdm="0.5;1"
       ends_tolerance="0.1;1"
       tremble_size="0.8;1"
       tremble_frequency="3"
       nbtangents="2"
       tgt_places_rdmness="0.5;1"
       tgtlength="5"
       tgtlength_rdm="0.3;1"
       tgtscale="10" />
    <inkscape:path-effect
       effect="sketch"
       id="path-effect6"
       is_visible="true"
       lpeversion="1"
       nbiter_approxstrokes="3"
       parallel_offset="0.2;1"
       strokelength="70"
       strokelength_rdm="0.3;1"
       strokeoverlap="0.5"
       strokeoverlap_rdm="0.5;1"
       ends_tolerance="0.1;1"
       tremble_size="0.8;1"
       tremble_frequency="3"
       nbtangents="2"
       tgt_places_rdmness="0.5;1"
       tgtlength="5"
       tgtlength_rdm="0.3;1"
       tgtscale="10" />
    <inkscape:path-effect
       effect="sketch"
       id="path-effect5"
       is_visible="true"
       lpeversion="1"
       nbiter_approxstrokes="3"
       parallel_offset="0.2;1"
       strokelength="70"
       strokelength_rdm="0.3;1"
       strokeoverlap="0.5"
       strokeoverlap_rdm="0.5;1"
       ends_tolerance="0.1;1"
       tremble_size="0.8;1"
       tremble_frequency="3"
       nbtangents="2"
       tgt_places_rdmness="0.5;1"
       tgtlength="5"
       tgtlength_rdm="0.3;1"
       tgtscale="10" />
    <inkscape:path-effect
       effect="sketch"
       id="path-effect1"
       is_visible="true"
       lpeversion="1"
       nbiter_approxstrokes="3"
       parallel_offset="0.2;1"
       strokelength="70"
       strokelength_rdm="0.3;1"
       strokeoverlap="0.5"
       strokeoverlap_rdm="0.5;1"
       ends_tolerance="0.1;1"
       tremble_size="0.8;1"
       tremble_frequency="3"
       nbtangents="2"
       tgt_places_rdmness="0.5;1"
       tgtlength="5"
       tgtlength_rdm="0.3;1"
       tgtscale="10" />
  </defs>
  <sodipodi:namedview
     id="namedview1"
     pagecolor="#ffffff"
     bordercolor="#000000"
     borderopacity="0.25"
     inkscape:showpageshadow="2"
     inkscape:pageopacity="0.0"
     inkscape:pagecheckerboard="0"
     inkscape:deskcolor="#d1d1d1"
     inkscape:zoom="1"
     inkscape:cx="60"
     inkscape:cy="156"
     inkscape:window-width="1440"
     inkscape:window-height="831"
     inkscape:window-x="0"
     inkscape:window-y="0"
     inkscape:window-maximized="1"
     inkscape:current-layer="svg1"
     showgrid="false" />
  <path
     id="ellipse1"
     style="fill:#cccccc;fill-opacity:1;stroke:none;stroke-width:0.6;stroke-dasharray:none"
     d="M 23.539818,35.260245 A 117.6,58.8 0 0 0 7.47224,64.893448 a 117.6,58.8 0 0 0 117.6,58.800002 117.6,58.8 0 0 0 107.53242,-35.1668 117.6,58.8 0 0 1 -101.53242,29.1668 117.6,58.8 0 0 1 -117.6,-58.800002 117.6,58.8 0 0 1 10.067578,-23.633203 z" />
  <path
     style="fill:none;fill-opacity:0.12549;stroke:#000000;stroke-width:1.66666667;stroke-dasharray:none"
     id="path1"
     inkscape:path-effect="#path-effect4"
     sodipodi:type="arc"
     sodipodi:cx="200"
     sodipodi:cy="100"
     sodipodi:rx="196"
     sodipodi:ry="98"
     d="m 395.39608,99.722004 c -0.21478,6.195546 -1.2457,12.446386 -3.25044,18.837286 -0.46177,1.47207 -0.97487,2.95035 -1.54095,4.43541 -2.01313,5.2812 -5.4262,9.67679 -9.86154,13.85907 -1.51344,1.42709 -3.12047,2.80758 -4.81759,4.19731 -3.52661,2.88784 -6.88561,6.04797 -10.48804,9.14174 m 20.49574,-20.72909 c -1.55547,2.53038 -3.4105,5.0489 -5.52507,7.52799 -2.86313,3.35667 -6.18556,6.62085 -9.81346,9.68849 -5.28018,4.46475 -11.87769,9.99054 -18.56752,14.83508 0,0 0,0 -1e-5,0 -2.26779,1.64226 -4.61326,3.10416 -7.05219,4.47253 m 13.14911,-6.2131 c -5.607,3.92804 -12.06896,7.27731 -18.97948,10.02468 -0.40172,0.15971 -0.80457,0.31723 -1.20843,0.47254 -6.69358,2.57426 -14.3259,6.6664 -22.8876,10.1519 0,0 -10e-6,0 -10e-6,0 -6.05287,2.46414 -10.87966,4.02616 -15.83176,5.5841 m 29.92873,-13.20493 c -7.00779,3.11185 -14.35934,5.78273 -22.51437,8.41694 -7.69665,2.48615 -14.23982,4.69317 -21.05361,7.11663 -2.65421,0.94402 -5.69169,1.67086 -8.96196,2.29012 -1.57088,0.29746 -3.18943,0.56901 -4.84009,0.82795 m 21.441,-4.83185 c -6.1124,1.8911 -12.56099,3.08938 -19.28541,4.00988 -1.252,0.17138 -2.50962,0.33266 -3.77312,0.48692 -7.90422,0.96504 -14.79047,2.91802 -22.19638,4.44303 -1.26928,0.26137 -2.58122,0.47367 -3.92743,0.64494 m 23.70727,-5.3476 c -7.63714,1.19977 -15.14185,2.821 -22.78104,4.22078 -7.50867,1.37588 -15.21171,1.26884 -22.70704,1.03118 -5.95767,-0.18891 -12.36337,0.40002 -18.76518,0.70683 m 22.84704,0.32004 c -7.4954,0.72497 -15.02705,0.79992 -21.91853,0.7429 -1.36926,-0.0113 -2.8124,-0.0272 -4.30701,-0.0509 -6.00561,-0.0955 -12.82416,-0.31884 -19.05037,-0.89197 -1.88002,-0.17306 -3.75906,-0.29576 -5.63676,-0.38304 m 24.71429,1.66481 c -3e-5,0 -0.10631,0.003 -0.10634,0.003 -7.90065,0.22353 -15.27688,-0.26719 -22.50938,-0.78635 -7.3285,-0.52605 -15.43797,-0.85965 -22.72229,-1.19509 -6.41404,-0.29537 -13.59334,-1.90009 -20.63706,-3.58685 m 20.85477,1.70105 c -7.62126,-1.00832 -15.16014,-2.17428 -22.0672,-3.82691 -2.40365,-0.57511 -4.98208,-1.06216 -7.63675,-1.4955 -5.1306,-0.83751 -10.77987,-1.50777 -15.91895,-2.19449 -1.63518,-0.2185 -3.21707,-0.52471 -4.75593,-0.8945 m 26.10765,5.40884 c -1.55347,-0.33038 -3.10009,-0.66192 -4.6464,-1.00013 -6.23925,-1.36462 -12.33045,-2.80752 -18.41594,-4.60098 -7.951356,-2.34334 -15.213384,-4.27961 -22.417724,-6.60069 -3.348027,-1.07865 -6.590047,-2.29633 -9.709228,-3.56086 m 18.916602,7.50805 c -7.56847,-2.39627 -15.144879,-5.39643 -22.367523,-8.77192 -3.975813,-1.85809 -7.865641,-3.56767 -11.343275,-5.13048 -3.320078,-1.49201 -6.433252,-2.92398 -9.54997,-4.48902 -5.80162,-2.91324 -11.2949,-6.90156 -16.040681,-10.71421 m 27.602356,15.97097 c -0.624298,-0.28328 -1.241968,-0.56802 -1.853095,-0.85382 -6.652401,-3.11105 -12.985884,-6.57031 -18.579597,-9.66505 0,0 -3e-6,0 -3e-6,0 -6.844747,-3.78689 -13.11934,-9.73682 -18.142044,-14.81723 -2.144499,-2.16913 -4.137256,-4.31343 -5.986601,-6.4655 -0.308987,-0.35957 -0.613777,-0.71913 -0.914393,-1.0788 m 14.202629,13.15951 c -5.453587,-4.33058 -9.983346,-8.87334 -13.854032,-13.52187 -0.871962,-1.04719 -1.713515,-2.10353 -2.526313,-3.16746 -3.778042,-4.94538 -6.5552613,-9.96957 -8.4379916,-15.00223 -0.6597464,-1.76355 -1.2107029,-3.53099 -1.6563526,-5.29946 -1.104356,-4.3824 -1.7789915,-8.88776 -1.8364803,-13.376283 -0.0017,-0.133011 -0.00286,-0.26598 -0.00348,-0.398901 M 5.9302558,117.10491 C 3.9265124,111.28858 2.895105,105.5942 3.0257345,99.999677 c 0.039973,-1.711919 0.1889684,-3.411265 0.4521,-5.095214 0.6720106,-4.300629 1.8939725,-9.008196 3.8294695,-13.725925 1.1815877,-2.880092 2.6412568,-5.791737 4.415663,-8.598241 2.261036,-3.576185 4.581342,-6.956914 7.058651,-10.123867 0.6525,-0.834146 1.319023,-1.657537 2.002437,-2.4706 M 9.2391393,80.729233 c 0.022562,-0.06342 0.045275,-0.126809 0.06814,-0.190154 2.3428982,-6.490845 6.1986462,-12.392873 11.2054772,-18.26073 0.328352,-0.384819 0.661072,-0.768891 0.9981,-1.152548 4.736881,-5.392233 10.165735,-10.665558 15.979455,-15.250598 0,0 1e-6,0 1e-6,0 0.564574,-0.445256 1.156018,-0.896339 1.772655,-1.352561 m -11.827249,7.887071 c 5.147865,-4.829006 11.643821,-9.562349 18.850168,-13.817393 4.784926,-2.825297 9.819188,-5.609212 15.010764,-7.988653 1.740201,-0.797582 3.515837,-1.558168 5.32928,-2.268621 3.192583,-1.250759 6.495883,-2.739755 9.983181,-4.372865 m -15.808038,6.802228 c 0.218266,-0.108605 0.436681,-0.216849 0.655235,-0.324724 6.435958,-3.176682 13.046299,-6.05989 19.603732,-8.408093 6.344264,-2.271867 14.903081,-5.52416 23.55251,-8.65399 7.03756,-2.546571 12.57317,-3.3780163 18.50729,-4.2207317 m -17.59686,5.0440937 c 6.28645,-1.861237 12.70957,-3.14092 19.37942,-4.140515 1.13848,-0.1706228 2.28176,-0.3327551 3.4307,-0.4881181 7.42265,-1.0037136 15.46159,-2.5289468 23.2998,-3.1105597 1.42841,-0.1059918 2.85256,-0.2406922 4.2768,-0.3973704 m -16.6952,0.5892166 c 7.38433,-1.0871022 15.52759,-1.9813258 23.77566,-2.1676182 8.11893,-0.1833758 15.30013,-1.4394787 22.78711,-2.0277023 0,0 0,-2e-7 0,-2e-7 4.59248,-0.360813 9.34954,-0.3670381 14.04359,-0.2219425 M 177.04664,2.1283363 c 7.49572,-0.3097052 15.67787,-0.941395 24.1077,-1.47793158 -4.8e-4,3.026e-5 0.20288,-0.0128907 0.2024,-0.0128604 8.44759,-0.53583513 15.16774,0.23196584 22.05663,0.68849187 4.31937,0.286244 9.41574,0.8730297 14.67581,1.7467177 M 209.40739,1.8147044 c 7.72611,0.2699241 15.58878,0.7791707 23.33153,1.8111223 7.85143,1.0464343 15.53131,1.5933871 23.05919,2.8108709 2.59581,0.4198195 5.20554,0.8059661 7.81065,1.1704032 M 238.60461,3.9513229 c 7.98216,0.9642506 14.98843,2.2588667 21.53555,4.4025885 3.85907,1.2635739 8.55176,1.9359216 13.32833,2.5412526 3.56314,0.451554 7.12496,0.860023 10.5902,1.44353 6.96677,1.173125 12.73348,3.055746 18.15575,4.804413 m -24.00881,-6.153265 c 7.84216,1.72987 15.49094,3.121481 23.07333,4.351532 0,0 0,2e-6 0,2e-6 7.86199,1.275408 15.18991,5.300169 22.0325,8.69519 5.4197,2.689036 11.07929,4.793965 15.98588,6.822356 1.2171,0.503151 2.4143,1.010866 3.59964,1.537125 M 320.43839,22.330098 c 6.64445,2.474353 13.16533,5.463243 19.24114,8.627054 0.74702,0.388987 1.4884,0.781185 2.22361,1.17605 0,0 0,1e-6 0,1e-6 7.4636,4.008514 13.53526,7.450796 19.02734,11.264115 1.39997,0.972044 2.82343,2.045348 4.23738,3.187904 M 342.87242,32.801421 c 7.20684,4.296335 13.77272,8.016092 20.22574,12.723295 0,0 0,1e-6 0,1e-6 6.9738,5.087087 12.44087,10.961812 17.23137,17.339965 -0.007,-0.0099 0.26564,0.353799 0.25821,0.343906 3.03239,4.040251 5.41489,7.282632 7.42483,10.561479 m -8.9584,-14.519673 c 0.79142,0.898845 1.56776,1.804806 2.32594,2.716977 4.36448,5.250942 8.00789,10.565384 10.51309,15.813546 0.26451,0.554124 0.51918,1.118489 0.76387,1.691574 2.55351,5.980359 4.01233,12.860253 4.3817,19.477234 0.034,0.609273 0.0589,1.216575 0.0746,1.821175 0.15579,5.98473 -1.35683,11.77403 -3.93363,17.62192 -0.29761,0.6754 -0.60898,1.35087 -0.93323,2.02747 m 2.97949,-16.15591 c -0.42785,4.68865 -1.50399,9.50953 -3.1396,14.46104 -0.94027,2.84646 -2.05866,5.7166 -3.33398,8.62165 -1.74363,3.97181 -4.27613,7.39177 -7.43723,10.64351 -2.44192,2.51194 -5.145,4.81485 -8.12094,7.27372 -3.7375,3.08812 -7.99534,6.7587 -11.881,9.75362 m 22.29511,-20.67394 c -0.86087,1.17727 -1.76943,2.36077 -2.7201,3.54559 -3.5578,4.4341 -7.71559,8.89585 -12.00305,12.94032 -4.81696,4.54396 -12.25208,8.99326 -20.29319,13.07472 0,0 0,0 0,0 -3.63931,1.84723 -6.87683,3.6159 -10.3338,5.47852 -2.94664,1.58766 -5.97905,3.20255 -9.15242,4.7407 m 20.65999,-10.89718 c -3.7142,2.16892 -7.6105,4.31994 -11.61126,6.36532 -2.84168,1.4528 -5.75924,2.8642 -8.72698,4.19997 -6.68794,3.01023 -13.80348,5.96327 -20.99474,8.9485 0,0 0,0 0,0 -5.8957,2.44741 -12.58016,3.98022 -19.43758,5.5124 m 27.25073,-9.60185 c -6.63236,2.3493 -14.58431,5.21825 -21.71851,7.60833 -5.90557,1.97847 -12.24215,3.23717 -18.71185,4.43352 -1.15782,0.2141 -2.63253,0.48338 -3.79035,0.69748 -2.73541,0.50523 -5.51969,0.98265 -8.32191,1.41488 m 18.51712,-2.57368 c -2.87524,0.59164 -5.68382,1.19412 -8.61123,1.80987 -4.56534,0.96028 -9.22496,1.91145 -13.79721,2.65681 -7.26949,1.18507 -15.05593,2.03157 -22.35922,2.36097 -7.0995,0.32021 -15.60084,1.4729 -23.95364,2.20549 m 20.88639,-2.46895 c -7.51251,0.49107 -15.187,0.97324 -22.36717,0.85229 -3.4541,-0.0582 -7.24109,-0.0228 -11.17121,-0.008 -4.22343,0.0158 -8.59535,0.007 -12.86491,-0.16696 -6.64579,-0.27151 -12.57029,-0.37232 -18.47305,-0.45899 m 31.50984,1.43077 c -0.0244,-5.2e-4 -0.55541,-0.0118 -0.57983,-0.0123 -7.50299,-0.15836 -14.98049,-0.30099 -22.16206,-0.91037 0,0 -1e-5,0 -1e-5,0 -7.47833,-0.63455 -15.68368,-1.29385 -23.64372,-2.52785 -8.0958,-1.25506 -15.4038,-1.87381 -22.70826,-2.80084 0,0 0,0 0,0 0,0 -0.01,-0.001 -0.01,-0.001 m 30.25162,3.62432 c -7.74248,-0.67326 -15.5426,-1.84942 -23.07,-3.24563 -4.83515,-0.89685 -9.69117,-1.71298 -14.52171,-2.57735 -2.9337,-0.52495 -5.84418,-1.06479 -8.74947,-1.65065 -6.2144,-1.25316 -11.81578,-2.93833 -17.032569,-4.69861 m 15.984359,5.72701 c -7.93346,-1.98426 -15.431488,-4.06725 -23.084446,-6.65328 0,0 -2e-6,0 -2e-6,0 -8.09429,-2.73516 -14.560099,-5.38594 -20.840403,-8.67182 -1.667788,-0.8726 -3.411338,-1.72715 -5.171464,-2.56865 m 22.219147,9.10209 c -7.438356,-2.77794 -14.591955,-5.56196 -21.181873,-8.752 -1.381143,-0.66859 -2.760294,-1.35216 -4.13208,-2.05066 -5.705754,-2.90533 -11.168138,-6.01008 -16.087715,-9.31357 -3.145465,-2.11217 -5.97655,-3.98748 -8.915204,-5.9923 m 16.8129,11.62319 c -7.265678,-4.05312 -13.958354,-8.10095 -20.207203,-12.31693 -6.442132,-4.34638 -11.370324,-9.91479 -15.403135,-15.09052 -0.321724,-0.41291 -0.639648,-0.82597 -0.953728,-1.23832 -2.319894,-3.04569 -4.36126,-6.12332 -6.073268,-9.26572 m 14.25791,18.93355 c -2.820429,-2.67791 -5.36901,-5.43557 -7.647338,-8.26632 -2.638552,-3.27832 -4.913858,-6.65379 -6.825039,-10.11116 -1.6035841,-2.90092 -2.9930582,-5.73316 -4.1507388,-8.5745 -1.7784606,-4.36494 -2.9829025,-8.68993 -3.5388211,-13.10995 -0.2369603,-1.88403 -0.3583676,-3.80354 -0.3661367,-5.7491 -0.018461,-4.622941 0.6043835,-9.381462 1.8357372,-14.182855 M 5.3032729,112.9564 c -1.0164221,-4.21689 -1.4145343,-8.31878 -1.1789662,-12.38517 0.2058834,-3.553971 0.896181,-7.083386 2.0871758,-10.633377 0.9269847,-2.763058 1.8809067,-5.57048 2.9496739,-8.336785 1.6712636,-4.325757 3.7040726,-8.771803 6.5565656,-12.98838 1.294099,-1.912946 2.681834,-3.777573 4.160932,-5.601697 2.931782,-3.615672 6.189097,-7.031937 9.768753,-10.359506 M 8.3301471,77.64109 c 2.6151749,-5.307578 5.8477369,-10.49865 9.8324659,-15.153165 0.905725,-1.057967 1.854841,-2.09353 2.849961,-3.100839 4.513814,-4.569102 11.094661,-10.85916 18.050169,-16.217636 0,0 2e-6,-10e-7 2e-6,-10e-7 6.042048,-4.654752 12.003704,-7.778082 19.124427,-11.040228 M 33.310076,47.159618 c 5.764603,-4.488925 12.364492,-8.838128 19.71096,-12.764546 2.542591,-1.358922 5.167815,-2.727307 7.860488,-4.073078 4.343491,-2.170833 8.967593,-4.335941 13.902897,-6.384088 0.849961,-0.352733 1.692409,-0.699364 2.529058,-1.040646 m -12.635642,7.292599 c 6.863588,-3.457398 13.692374,-6.058412 20.939177,-8.541836 7.008237,-2.401669 14.462116,-5.129759 22.928666,-8.159597 5.70764,-2.042536 11.08557,-2.896632 16.76071,-3.5272922 0.4873,-0.054152 0.97604,-0.1066101 1.46691,-0.158071 m -15.91102,2.0745102 c 4.91837,-1.222137 10.01575,-2.5336017 15.12988,-3.8216233 2.38391,-0.6003997 4.78047,-1.1976976 7.15275,-1.7742453 7.2668,-1.7660809 15.0982,-2.2506646 22.76604,-2.5836337 3.0472,-0.1323219 6.13157,-0.4425941 9.22858,-0.8199021 m -15.17109,3.2421241 c 7.77716,-0.9044199 15.55108,-2.0166392 23.71769,-3.0613555 8.09833,-1.0359808 15.342,-0.8592496 22.85668,-0.9942666 0,0 1e-5,-10e-8 1e-5,-10e-8 1.02625,-0.018439 2.06887,-0.027817 3.12539,-0.028708 5.01904,-0.00423 10.34918,0.1830938 15.7203,0.4998332 m -25.11424,0.6418445 c 4.78468,-0.1392458 3.8543,-0.1105212 8.63899,-0.249767 5.03448,-0.1493343 10.13677,-0.3153295 15.33017,-0.539964 0,0 0,1e-7 0,1e-7 8.21734,-0.3554317 15.84538,0.9868079 23.93832,2.0664142 1.51338,0.2018866 2.98858,0.3875251 4.43201,0.5629418 M 220.93868,1.9577984 c 7.82481,0.3301347 15.57402,1.3370136 23.19862,2.6567295 7.80006,1.3500869 15.89298,2.1484228 24.11264,3.6410309 0.51824,0.094107 6.17846,1.1280366 6.69669,1.2221433 5.51157,1.0096319 10.17855,1.8696929 15.30199,2.7893719 m -21.2748,-3.9597287 c 2.20921,0.3830212 4.3851,0.8066108 6.53067,1.2639289 5.49704,1.1716698 10.83125,2.5727418 16.01885,4.0886118 7.58267,2.21573 15.04935,4.121459 21.93482,6.289708 5.26621,1.65834 10.59095,4.052993 15.55637,6.649247 m -24.39518,-9.965688 c 7.55583,2.443266 15.15333,4.720908 22.38157,7.014985 4.62809,1.468846 8.75536,3.65151 12.49443,6.011022 2.53987,1.602766 4.96924,3.332358 7.26127,5.012874 4.66371,3.419446 9.99497,6.312678 14.81907,9.429238 m -14.53544,-8.985041 c 7.11256,4.030565 13.40953,8.284362 18.76917,12.63444 5.26082,4.269868 10.33859,8.977251 14.51923,13.657944 0.69442,0.777473 1.36339,1.553302 2.0048,2.326222 1.37583,1.657923 2.64789,3.397285 3.81381,5.177217 M 374.60007,55.064213 c 2.41455,2.262253 4.68879,4.62787 6.81088,7.035009 3.22635,3.659741 6.14451,7.464336 8.72941,11.259615 1.59975,2.348838 2.81019,4.741495 3.73234,7.140843 1.8799,4.891349 2.61465,9.950929 2.87433,14.936381 0.0728,1.397882 0.10163,2.793038 0.0817,4.186062 -0.003,0.201033 -0.007,0.401997 -0.0117,0.602907 m -2.14673,-14.225776 c 1.28561,4.588132 2.00164,9.341281 2.02112,14.080366 0.012,2.91364 -0.23953,5.81684 -0.78107,8.65665 -0.64026,3.35744 -1.64684,6.76619 -3.02455,10.14176 -1.51972,3.7235 -3.49927,7.42486 -5.93275,10.9343 -1.6303,2.35113 -3.41933,4.78105 -5.3517,7.2207 -1.54935,1.95609 -3.20708,3.93888 -4.96253,5.90217 m 18.54693,-40.83289 c -0.31812,5.12426 -1.57411,10.44646 -3.67924,15.78028 -0.90147,2.28408 -1.95741,4.56711 -3.15834,6.83185 -2.2347,4.21422 -4.96842,8.16758 -8.26719,12.06627 -1.92284,2.27254 -4.02439,4.51179 -6.33566,6.79166 -1.65855,1.63603 -3.31,3.21256 -4.96622,4.74536 m 13.19232,-13.84488 c -0.42418,0.55908 -0.85895,1.11565 -1.30408,1.66988 -4.15005,5.16728 -9.09018,9.99926 -14.61705,14.75582 -5.42238,4.66664 -12.19865,8.78226 -19.62902,12.7646 0,0 0,0 0,0 -2.58865,1.3874 -5.23891,2.78972 -7.89745,4.15535 -3.65743,1.87873 -7.44101,3.74528 -11.31464,5.5036 m 16.80992,-6.23159 c -1.48028,0.80271 -2.995,1.58529 -4.54127,2.34716 -5.20343,2.5638 -10.73948,4.88073 -16.46071,6.92404 -6.80407,2.43004 -14.6536,5.01724 -22.70803,6.56474 0,0 0,0 0,0 -5.14716,0.98892 -9.90933,2.47442 -14.94164,3.97421 m 16.6297,-4.3424 c -7.35841,2.43706 -15.18544,4.22637 -23.99958,6.18969 0,0 0,0 0,0 -0.15264,0.034 -3.38964,0.75275 -3.54228,0.78675 -6.74604,1.49451 -12.46667,2.74315 -18.69851,4.17585 -3.07116,0.70606 -6.31719,1.10746 -9.64099,1.32267 m 22.95618,-2.91731 c -7.31033,1.60086 -15.21193,2.20922 -23.06812,2.39139 -7.66174,0.17768 -15.70588,1.50661 -24.09747,1.7855 -6.07199,0.20181 -11.40686,0.72045 -16.67773,1.36976 m 25.46331,-0.76675 c -7.86464,0.37468 -15.09967,1.104 -22.11719,1.47451 -2.17528,0.11485 -4.5384,0.1584 -7.01845,0.15123 -5.49623,-0.0159 -11.56836,-0.28113 -17.4162,-0.57034 -4.87356,-0.24104 -9.19558,-0.3993 -13.37406,-0.53115 m 20.9387,-0.1835 c -7.89892,-0.12631 -15.41449,-0.30999 -22.78372,-0.44569 -7.4642,-0.13744 -15.31343,-2.0087 -22.35848,-4.06212 -4.88784,-1.42466 -10.35132,-1.92702 -15.6856,-2.42418 m 18.88199,3.70988 c -7.77453,-0.86576 -15.26009,-2.3709 -22.23937,-4.0141 -0.69057,-0.16259 -1.39116,-0.32502 -2.09963,-0.48757 -6.88588,-1.57992 -14.0808,-3.08391 -21.18064,-5.0377 -1.8549,-0.51045 -3.64517,-1.00873 -5.382619,-1.49744 m 23.008189,6.97833 c -7.54527,-1.93464 -15.4851,-3.45039 -23.057905,-5.25606 0,0 -3e-6,0 -3e-6,0 -7.878469,-1.87855 -14.915244,-4.94232 -21.332835,-7.6967 -5.016453,-2.15303 -10.176621,-4.45397 -15.165886,-6.97126 -1.730651,-0.87318 -3.424134,-1.76417 -5.067779,-2.6745 m 23.176797,10.91569 c -6.839694,-2.62116 -13.194797,-5.69506 -19.097839,-9.17307 -0.637765,-0.37576 -1.270176,-0.7562 -1.897252,-1.14123 0,0 -1e-6,0 -1e-6,0 -7.060778,-4.33545 -13.834874,-7.51273 -19.628364,-11.31923 -1.628616,-1.07005 -3.257177,-2.22466 -4.858833,-3.42443 m 13.803463,8.36667 c -6.996277,-4.41541 -13.047015,-8.88372 -18.142085,-13.71893 -3.587093,-3.40415 -7.03242,-6.70445 -10.27632,-10.19065 -2.054358,-2.2078 -3.947718,-4.40656 -5.637399,-6.61817 -2.412502,-3.1577 -4.247068,-6.67119 -5.6216293,-10.23811 M 21.906598,139.68945 C 21.095946,138.76806 20.31297,137.8524 19.556808,136.93937 15.058337,131.50769 11.555229,126.21879 8.9987101,120.71452 8.7456618,120.1697 8.504263,119.6208 8.2744367,119.06851 5.7341779,112.96403 4.5992353,106.43876 4.7431402,100.15636 4.757249,99.540414 4.7836198,98.926488 4.8221338,98.315113 5.1769447,92.682808 6.3843521,86.671411 8.6476745,80.60215 9.0052966,79.643161 9.3895079,78.682278 9.8010682,77.721386 M 4.8736799,105.19262 c -0.1016564,-1.44414 -0.1479562,-2.8775 -0.1363403,-4.30145 0.050626,-6.205987 1.2030847,-12.233413 3.6493273,-18.070424 0,0 3e-7,-10e-7 3e-7,-10e-7 0.071138,-0.169742 0.1429945,-0.340027 0.2155721,-0.510844 2.5418407,-5.982417 6.0694787,-12.83942 10.4546777,-19.532235 0.222819,-0.340073 0.448089,-0.680053 0.67577,-1.01973 1.852112,-2.763161 4.111236,-5.145154 6.729603,-7.323874 M 10.307231,75.297677 c 2.32362,-4.580713 5.353064,-9.001536 9.069243,-13.164245 1.517077,-1.699366 3.148961,-3.356057 4.893765,-4.962282 5.038132,-4.637986 11.303592,-10.297887 17.969789,-14.706966 0,0 2e-6,-1e-6 2e-6,-1e-6 0.84592,-0.559499 1.707599,-1.120464 2.584175,-1.681365 M 28.897017,52.454014 c 5.416242,-4.697231 11.867972,-9.513381 19.04394,-13.83317 4.339746,-2.61244 8.962912,-5.237464 13.931245,-7.855296 2.434039,-1.282504 4.966207,-2.571383 7.609741,-3.865938 2.370122,-1.160663 4.66724,-2.196448 6.952176,-3.158354 m -18.64806,8.283736 c 1.220311,-0.604932 2.459759,-1.202027 3.718675,-1.787975 5.712733,-2.658923 11.929483,-5.13806 18.829131,-7.13208 7.865719,-2.273218 14.106734,-5.27465 21.172025,-7.557019 0,0 0,-10e-7 0,-10e-7 4.74265,-1.532061 10.07945,-2.853987 15.48165,-4.011287 m -16.25285,3.484774 c 7.26337,-2.350064 14.34665,-3.992074 21.28566,-5.4527443 0,0 0,-2e-7 0,-2e-7 0.88802,-0.1869298 1.81122,-0.3778555 2.76353,-0.5711942 6.11854,-1.2421993 13.5373,-2.6036662 20.43026,-3.6123985 2.46328,-0.3604843 4.92949,-0.6873439 7.41218,-0.9824863 m -26.78826,5.039446 c 7.60585,-1.6825585 15.28328,-2.8289514 23.43429,-3.9686796 7.93471,-1.1094835 15.40468,-1.81758 23.29341,-2.4062839 1.68871,-0.1260211 3.38525,-0.2401574 5.0913,-0.3437164 m -23.0418,0.9551283 c 7.51805,-0.9054833 15.52429,-1.3332525 23.57439,-1.2437923 7.57968,0.084233 14.92618,-0.6181505 22.58564,-0.7341504 0.39024,-0.00591 0.7813,-0.01029 1.17325,-0.012958 4.81651,-0.032777 9.45766,0.1048426 14.1014,0.3626688 m -23.53537,0.5567424 c 2.84862,0.013841 5.75854,0.058901 8.70129,0.1677741 4.91956,0.18201 9.92422,0.5421157 14.89315,1.2313424 0,0 0,0 0,0 7.94102,1.101479 15.67694,0.5250846 23.38282,0.7116541 2.1081,0.05104 4.18346,0.2037717 6.22731,0.4231702 m -16.57929,-1.614388 c 7.89653,0.6899538 15.56557,1.8462675 23.20796,3.7065638 7.44255,1.8116529 14.66081,2.2228725 21.65628,3.3304666 0.36463,0.05773 0.72863,0.117268 1.09205,0.178887 0,0 0,0 0,0 4.52152,0.766632 9.05391,1.952713 13.43704,3.307212 M 273.56174,10.01034 c 0.001,3.08e-4 0.44001,0.103587 0.44131,0.103895 7.68362,1.800936 15.31468,3.19143 22.94729,4.887914 8.11393,1.803469 15.07794,5.211797 21.87795,8.816183 5.24217,2.778646 10.82326,4.595347 15.86489,6.414297 M 314.16501,20.182605 c 7.42798,2.807 15.35344,5.472554 22.44395,7.966928 0.72049,0.25346 1.4266,0.526377 2.11965,0.816374 6.83976,2.862014 12.92978,7.670449 18.67778,12.073821 6.99443,5.35822 12.54718,8.711777 17.60173,12.776729 m -14.5108,-9.860856 c 6.76707,4.547779 12.49071,9.967298 17.01988,15.150339 0.92997,1.064229 1.83606,2.130691 2.71354,3.201207 4.14047,5.051283 7.50086,10.023941 9.64401,14.941434 0.31186,0.715563 0.61995,1.45824 0.92196,2.224201 0.67456,1.710805 1.31663,3.532217 1.90462,5.429069 m -3.69931,-12.239954 c 1.52506,2.738653 2.81931,5.51992 3.8514,8.343199 1.65199,4.519016 2.622,9.119141 2.79641,13.761656 0.0705,1.87725 0.11058,3.734407 0.0957,5.592418 -0.0468,5.85273 -0.64175,11.66785 -2.49858,17.43073 -0.18376,0.57034 -0.38184,1.13724 -0.59393,1.70065 -0.35423,0.94099 -0.7475,1.87204 -1.17839,2.79299 M 25.071787,144.32343 19.589249,138.43861 M 286.49403,12.036837 l 6.94769,1.794819"
     transform="matrix(0.6,0,0,0.6,5.07224,4.8934483)" />
  <g
     id="g7"
     transform="matrix(0.6,0,0,0.6,5.07224,14.893465)">
    <text
       xml:space="preserve"
       style="font-weight:bold;font-size:66.6667px;font-family:Sans;-inkscape-font-specification:'Sans, Bold';text-align:center;text-anchor:middle;fill:#808080;fill-opacity:0.12549;stroke:none;stroke-width:1;stroke-dasharray:none"
       x="200.57999"
       y="72.133308"
       id="text4"><tspan
         sodipodi:role="line"
         x="200.57999"
         y="72.133308"
         style="font-style:normal;font-variant:normal;font-weight:normal;font-stretch:normal;font-size:40px;font-family:Quicksand;-inkscape-font-specification:'Quicksand, Normal';font-variant-ligatures:normal;font-variant-caps:normal;font-variant-numeric:normal;font-variant-east-asian:normal;fill:#000000;fill-opacity:1"
         id="tspan6">Partie</tspan></text>
    <text
       xml:space="preserve"
       style="font-weight:bold;font-size:66.6667px;font-family:Sans;-inkscape-font-specification:'Sans, Bold';text-align:center;text-anchor:middle;fill:#808080;fill-opacity:0.12549;stroke:none;stroke-width:1;stroke-dasharray:none"
       x="200.57999"
       y="122.1333"
       id="text7"><tspan
         sodipodi:role="line"
         x="200.57999"
         y="122.1333"
         style="font-style:normal;font-variant:normal;font-weight:normal;font-stretch:normal;font-size:40px;font-family:Quicksand;-inkscape-font-specification:'Quicksand, Normal';font-variant-ligatures:normal;font-variant-caps:normal;font-variant-numeric:normal;font-variant-east-asian:normal;fill:#000000;fill-opacity:1"
         id="tspan7">erstellen</tspan></text>
  </g>
</svg>
