<?xml version="1.0" encoding="UTF-8" standalone="no"?>
<svg
   height="130"
   width="250"
   version="1.1"
   id="svg1"
   sodipodi:docname="usecase-18.svg"
   inkscape:version="1.3.2 (091e20ef0f, 2023-11-25, custom)"
   xmlns:inkscape="http://www.inkscape.org/namespaces/inkscape"
   xmlns:sodipodi="http://sodipodi.sourceforge.net/DTD/sodipodi-0.dtd"
   xmlns="http://www.w3.org/2000/svg"
   xmlns:svg="http://www.w3.org/2000/svg">
  <defs
     id="defs1">
    <inkscape:path-effect
       effect="sketch"
       id="path-effect4"
       is_visible="true"
       lpeversion="1"
       nbiter_approxstrokes="3"
       parallel_offset="1;3921062692"
       strokelength="70"
       strokelength_rdm="0.3;1"
       strokeoverlap="0.5"
       strokeoverlap_rdm="0.5;3790687359"
       ends_tolerance="0.1;1"
       tremble_size="0.8;1"
       tremble_frequency="3"
       nbtangents="2"
       tgt_places_rdmness="0.5;1"
       tgtlength="5"
       tgtlength_rdm="0.3;1"
       tgtscale="10" />
    <inkscape:path-effect
       effect="sketch"
       id="path-effect3"
       is_visible="true"
       lpeversion="1"
       nbiter_approxstrokes="3"
       parallel_offset="2;1"
       strokelength="70"
       strokelength_rdm="0.3;1"
       strokeoverlap="0.5"
       strokeoverlap_rdm="0.5;1"
       ends_tolerance="0.1;1"
       tremble_size="0.8;1"
       tremble_frequency="3"
       nbtangents="2"
       tgt_places_rdmness="0.5;1"
       tgtlength="5"
       tgtlength_rdm="0.3;1"
       tgtscale="10" />
    <inkscape:path-effect
       effect="sketch"
       id="path-effect2"
       is_visible="true"
       lpeversion="1"
       nbiter_approxstrokes="3"
       parallel_offset="2;1"
       strokelength="70"
       strokelength_rdm="0.3;1"
       strokeoverlap="0.5"
       strokeoverlap_rdm="0.5;1"
       ends_tolerance="0.1;1"
       tremble_size="0.8;1"
       tremble_frequency="3"
       nbtangents="2"
       tgt_places_rdmness="0.5;1"
       tgtlength="5"
       tgtlength_rdm="0.3;1"
       tgtscale="10" />
    <inkscape:path-effect
       effect="sketch"
       id="path-effect6"
       is_visible="true"
       lpeversion="1"
       nbiter_approxstrokes="3"
       parallel_offset="0.2;1"
       strokelength="70"
       strokelength_rdm="0.3;1"
       strokeoverlap="0.5"
       strokeoverlap_rdm="0.5;1"
       ends_tolerance="0.1;1"
       tremble_size="0.8;1"
       tremble_frequency="3"
       nbtangents="2"
       tgt_places_rdmness="0.5;1"
       tgtlength="5"
       tgtlength_rdm="0.3;1"
       tgtscale="10" />
    <inkscape:path-effect
       effect="sketch"
       id="path-effect5"
       is_visible="true"
       lpeversion="1"
       nbiter_approxstrokes="3"
       parallel_offset="0.2;1"
       strokelength="70"
       strokelength_rdm="0.3;1"
       strokeoverlap="0.5"
       strokeoverlap_rdm="0.5;1"
       ends_tolerance="0.1;1"
       tremble_size="0.8;1"
       tremble_frequency="3"
       nbtangents="2"
       tgt_places_rdmness="0.5;1"
       tgtlength="5"
       tgtlength_rdm="0.3;1"
       tgtscale="10" />
    <inkscape:path-effect
       effect="sketch"
       id="path-effect1"
       is_visible="true"
       lpeversion="1"
       nbiter_approxstrokes="3"
       parallel_offset="0.2;1"
       strokelength="70"
       strokelength_rdm="0.3;1"
       strokeoverlap="0.5"
       strokeoverlap_rdm="0.5;1"
       ends_tolerance="0.1;1"
       tremble_size="0.8;1"
       tremble_frequency="3"
       nbtangents="2"
       tgt_places_rdmness="0.5;1"
       tgtlength="5"
       tgtlength_rdm="0.3;1"
       tgtscale="10" />
  </defs>
  <sodipodi:namedview
     id="namedview1"
     pagecolor="#ffffff"
     bordercolor="#000000"
     borderopacity="0.25"
     inkscape:showpageshadow="2"
     inkscape:pageopacity="0.0"
     inkscape:pagecheckerboard="0"
     inkscape:deskcolor="#d1d1d1"
     inkscape:zoom="0.75716513"
     inkscape:cx="117.54371"
     inkscape:cy="136.03373"
     inkscape:window-width="1440"
     inkscape:window-height="831"
     inkscape:window-x="0"
     inkscape:window-y="0"
     inkscape:window-maximized="1"
     inkscape:current-layer="svg1"
     showgrid="false" />
  <path
     id="ellipse1"
     style="fill:#cccccc;fill-opacity:1;stroke:none;stroke-width:0.6;stroke-dasharray:none"
     d="M 23.539818,35.260245 A 117.6,58.8 0 0 0 7.47224,64.893448 a 117.6,58.8 0 0 0 117.6,58.800002 117.6,58.8 0 0 0 107.53242,-35.1668 117.6,58.8 0 0 1 -101.53242,29.1668 117.6,58.8 0 0 1 -117.6,-58.800002 117.6,58.8 0 0 1 10.067578,-23.633203 z" />
  <path
     style="fill:none;fill-opacity:0.12549;stroke:#000000;stroke-width:1.66666667;stroke-dasharray:none"
     id="path1"
     inkscape:path-effect="#path-effect4"
     sodipodi:type="arc"
     sodipodi:cx="200"
     sodipodi:cy="100"
     sodipodi:rx="196"
     sodipodi:ry="98"
     d="m 396.43801,104.13938 c -0.30732,4.77894 -1.5625,9.67291 -3.59166,14.51492 -1.06084,2.53138 -2.32962,5.04022 -3.77613,7.50213 -2.17371,3.6996 -4.74332,7.31971 -7.74946,10.78646 -2.10807,2.43107 -4.4438,4.80176 -7.02948,7.08382 -2.30486,2.03421 -4.79175,4.22943 -7.24167,6.31612 m 12.18779,-9.37267 c -4.99165,5.26705 -10.69888,10.46641 -17.21867,14.83194 -5.52988,3.70271 -12.81943,8.72195 -19.59321,12.61305 0,0 0,0 0,0 -1.0163,0.5838 -2.04954,1.15193 -3.0996,1.70755 0,0 -0.0205,0.0109 -0.0205,0.0109 m 14.57433,-10.34164 c -4.75574,2.84141 -9.70101,5.72674 -14.54781,8.25365 -1.61487,0.84192 -3.24437,1.65777 -4.88666,2.4355 -6.12688,2.90149 -14.2564,6.36461 -22.5704,9.77448 0,0 0,0 0,0 -1.87867,0.77051 -3.69037,1.42385 -5.46071,1.98676 m 17.13755,-7.00394 c -7.06731,2.86978 -14.05056,5.45236 -21.12796,7.65516 -6.70715,2.08756 -14.71842,4.38254 -22.3928,6.43664 -1.83595,0.4914 -3.70788,0.95 -5.6172,1.38989 -4.6768,1.0775 -9.41321,2.00707 -14.42502,3.05007 m 19.95662,-3.11672 c -1.41135,0.3373 -2.84298,0.65116 -4.2927,0.94337 -6.0781,1.22512 -12.42741,2.06064 -18.86844,2.65457 -7.75188,0.7148 -15.43095,1.89252 -23.42575,2.22087 -4.29358,0.17634 -8.43498,0.5457 -12.53449,0.95147 m 27.47625,-2.2369 c -7.39438,1.05794 -15.36567,1.68992 -23.19952,2.11573 -7.72596,0.41994 -15.76749,0.55933 -24.07772,0.14461 0,0 0,0 0,0 -0.77041,-0.0384 -1.53213,-0.0724 -2.28641,-0.10284 -1.65904,-0.067 -3.28179,-0.11744 -4.88132,-0.16299 m 24.13931,0.007 c -6.36715,0.37197 -12.8984,0.87353 -19.22135,1.60391 -1.17105,0.13526 -2.33437,0.27832 -3.48765,0.42976 0,0 0,0 0,0 -7.38185,0.96938 -15.49299,-0.85895 -22.9869,-2.35218 -1.81991,-0.36263 -3.67554,-0.60091 -5.55524,-0.75631 m 23.40567,2.26876 c -7.80058,-0.34854 -15.76906,-0.6433 -23.90225,-1.31981 -8.23075,-0.68464 -15.48598,-1.73608 -22.93102,-3.17287 -0.81041,-0.1564 -1.62061,-0.30677 -2.42958,-0.4522 m 19.75171,3.13573 c -7.71196,-0.6942 -15.54157,-2.20648 -23.08384,-4.17082 -4.14029,-1.07831 -8.33174,-1.80929 -12.46094,-2.51311 -3.64029,-0.62048 -7.20962,-1.21609 -10.81274,-2.01344 -6.05114,-1.33908 -11.72927,-2.80656 -17.074281,-4.19807 m 28.549401,6.40205 c -0.32167,-0.0639 -0.64254,-0.12856 -0.9626,-0.19412 -7.38627,-1.51292 -14.34762,-3.47836 -20.75451,-5.72732 -7.050774,-2.47499 -15.423845,-4.53893 -23.049238,-7.05225 -5.867126,-1.9338 -10.763746,-4.30773 -15.253675,-6.79996 m 29.732966,13.53824 c -7.619459,-2.50249 -14.98389,-5.29635 -22.013023,-8.60401 -4.167473,-1.96106 -8.032134,-3.78264 -11.870061,-5.77813 -3.17142,-1.64894 -6.215681,-3.36168 -9.193993,-5.24955 -3.365774,-2.13347 -6.228802,-3.89883 -9.192366,-5.828 m 10.900516,9.37437 c -7.217128,-4.02817 -13.743054,-8.63934 -19.599264,-14.01563 0,0 -2e-6,0 -2e-6,0 -6.610023,-6.06833 -12.143916,-9.82033 -16.528228,-14.44891 -0.0909,-0.096 -0.18153,-0.1928 -0.271889,-0.29048 -3.351293,-3.62285 -6.344462,-8.41694 -8.5726614,-13.1156 m 21.3480114,22.09975 c -3.988429,-3.42479 -7.711548,-7.01945 -10.952425,-10.5413 -1.729678,-1.87963 -3.327367,-3.74395 -4.774489,-5.57199 -2.759897,-3.48637 -4.9007428,-7.76142 -6.4423978,-12.08786 -1.1232895,-3.15236 -1.9480371,-6.3827 -2.4907616,-9.50514 -0.5985993,-3.44391 -0.9583948,-6.77982 -1.0244118,-10.08098 -0.011288,-0.564461 -0.013965,-1.127357 -0.00778,-1.688925 m 4.1089959,22.099155 c -0.1197006,-0.3012 -0.2368287,-0.60218 -0.3513683,-0.90301 -2.4444597,-6.4201 -3.6965117,-12.743 -3.5983146,-19.19996 0.014069,-0.925116 0.055912,-1.852117 0.125943,-2.781427 0.4175879,-5.541384 1.63775,-10.95679 3.8130849,-16.228112 0.7983519,-1.934585 1.7263789,-3.851996 2.7925679,-5.750207 0.763867,-1.359968 1.574628,-2.729489 2.432429,-4.101724 M 7.2339475,84.392205 c 0.3061341,-0.888273 0.640436,-1.782748 1.0028996,-2.682847 2.4145179,-5.995925 6.0882329,-12.26083 11.0036449,-18.576013 0,0 1e-6,-10e-7 1e-6,-10e-7 0.257024,-0.330217 0.514584,-0.656803 0.772785,-0.979965 4.7627,-5.960943 9.442034,-10.412326 15.255163,-15.508286 2.061483,-1.807157 4.352675,-3.499069 6.836544,-5.110041 M 23.052691,58.037886 c 4.91585,-4.982932 11.185508,-10.252424 18.32354,-14.82413 6.127896,-3.924743 13.120173,-8.495293 20.276215,-12.431774 0.105886,-0.05825 0.21183,-0.116249 0.317834,-0.174009 5.085024,-2.770769 10.1847,-4.922268 15.637992,-6.988137 M 59.776544,30.97257 c 0.302853,-0.151273 0.605842,-0.301652 0.908967,-0.451127 6.450093,-3.180605 12.982306,-5.962272 19.694386,-8.26455 6.844483,-2.347694 14.224403,-5.357554 22.357633,-8.470216 6.94831,-2.659183 13.64796,-3.641844 20.89026,-4.9182389 m -17.97043,4.9932959 c 6.86246,-1.820526 13.58035,-3.285275 20.52718,-4.2364005 0.68154,-0.093313 1.36579,-0.181765 2.05321,-0.2652095 7.27598,-0.8832151 14.54049,-2.6475278 21.81648,-3.5307429 6.41472,-0.7734058 14.55367,-1.6658835 22.268,-2.2073335 m -25.84539,1.0102481 c 7.42981,-1.331077 15.3286,-1.8994113 23.2249,-2.4513402 7.74762,-0.5415369 15.85818,-0.7734451 24.37818,-0.5017261 0,0 1e-5,10e-8 1e-5,10e-8 2.5371,0.080913 4.90591,0.098211 7.16366,0.084822 1.26269,-0.00749 2.49023,-0.024571 3.69252,-0.045466 m -27.98877,1.7225322 c 7.91779,-0.3779805 15.62382,-0.6733285 23.60848,-0.6143328 4.2e-4,3e-6 0.42727,0.00287 0.42769,0.00287 7.82947,0.047382 14.933,-0.1968409 21.87376,-0.5380057 5.01286,-0.2464006 10.82589,0.5764968 16.64758,1.6046436 M 221.91691,2.4895536 c 7.60073,0.54798 15.92606,0.9588625 24.2608,1.5258988 8.44603,0.5746079 15.15718,2.0625093 21.80527,3.3483879 1.88577,0.3647477 3.9054,0.7828199 6.00434,1.2466626 4.33985,0.9590556 8.99067,2.1074301 13.52523,3.3868841 M 263.46741,7.2820514 c 4.3314,0.7233887 8.6547,1.531471 12.92408,2.4149142 3.35528,0.6942934 6.67598,1.4348614 9.94225,2.2175344 7.74969,1.857004 15.1457,3.76943 22.11866,5.717846 6.88645,1.924239 14.0221,4.907917 20.31157,7.686664 M 296.35463,14.26145 c 7.47571,2.104886 15.15397,4.627162 22.28342,7.349871 7.27235,2.777281 13.81752,6.053592 19.86352,9.892221 0.31226,0.198249 0.62311,0.397958 0.93258,0.599128 0,0 0,0 0,0 5.76306,3.746234 11.8452,6.444413 17.43141,9.532609 M 338.44343,31.077578 c 7.31969,3.666919 14.10067,7.699691 20.28618,12.033248 0,0 0,10e-7 0,10e-7 6.96058,4.876569 12.54486,9.65621 17.17443,14.749433 1.39413,1.533752 2.78657,3.10459 4.15906,4.719259 3.81332,4.486181 7.28854,9.09764 10.05405,13.827847 M 377.27842,57.914767 c 1.3809,1.44793 2.65893,2.915704 3.83492,4.398319 3.71643,4.685465 6.42577,9.533892 8.14839,14.412489 0.43874,1.242557 0.91476,2.53393 1.38845,3.819861 2.3276,6.318767 4.63663,12.71369 5.45393,19.579494 0.0196,0.16453 0.0376,0.32847 0.0542,0.49185 0.56073,5.52743 -0.58493,10.3958 -2.64023,15.07582 m 1.55952,-10.24916 c -0.62277,4.10546 -1.75242,8.32117 -3.43318,12.51309 -1.25917,3.14043 -2.83338,6.28064 -4.73803,9.33482 -1.95449,3.13411 -4.12093,6.27399 -6.51861,9.42222 -2.38077,3.12604 -5.00455,6.28006 -7.89923,9.46487 -0.74567,0.8204 -1.51778,1.60639 -2.31563,2.36272 m 12.29634,-14.08275 c -0.58824,0.6985 -1.18869,1.40722 -1.79909,2.12194 -4.08945,4.78835 -9.04323,10.34553 -14.50113,15.49829 -5.77979,5.45665 -12.17336,8.69977 -19.82114,12.4378 0,0 0,0 0,0 -2.8722,1.40386 -5.62724,2.85508 -8.46517,4.36188 -1.41691,0.7523 -2.87043,1.52682 -4.29871,2.27589 m 16.75291,-7.28752 c -3.50383,2.05212 -7.23316,4.03369 -11.16622,5.91139 -3.2107,1.53283 -6.56299,2.99919 -10.04236,4.37817 -6.88649,2.72932 -14.52638,5.9422 -22.04752,8.52579 0,0 0,0 0,0 -1.85935,0.63871 -3.71189,1.25284 -5.56877,1.8521 m 12.6885,-4.8497 c -7.21789,2.3455 -14.23975,5.08077 -21.32971,7.50847 -5.47466,1.87459 -11.71808,3.04598 -18.01265,4.05256 -1.50668,0.24094 -3.00019,0.47009 -4.4823,0.69771 0,0 0,0 0,0 -3.88828,0.59718 -7.99319,1.36858 -12.33912,2.19999 m 24.79715,-4.21369 c -2.49453,0.614 -5.01165,1.16951 -7.53278,1.67284 -4.81678,0.96165 -9.6174,1.72668 -14.25813,2.34348 -6.8095,0.90505 -15.54289,2.02587 -23.70494,2.40983 -7.91742,0.37245 -15.28175,1.5331 -23.37847,2.53719 m 21.02723,-1.60294 c -7.57232,0.689 -15.48962,0.95509 -23.34244,0.79662 -3.73771,-0.0754 -7.43876,-0.0561 -11.13227,-0.065 -4.03008,-0.01 -8.03325,-0.0532 -12.02885,-0.29046 -3.54467,-0.21048 -7.11011,-0.37151 -10.63013,-0.54591 m 24.13797,-0.20741 c -0.56302,7.2e-4 -1.12459,6.7e-4 -1.68482,-1.7e-4 -7.33127,-0.011 -14.42911,-0.15697 -21.60848,-0.48994 -7.8066,-0.36206 -15.51099,-0.7935 -23.01201,-1.09334 -3.70214,-0.14798 -7.43653,-0.617 -11.11211,-1.18703 m 20.12328,2.78189 c -7.83822,-0.67521 -15.18816,-1.40875 -21.95539,-2.1124 -5.21018,-0.54175 -11.34462,-1.72891 -17.18123,-2.91928 -1.66405,-0.33938 -4.17054,-0.85921 -5.8346,-1.19858 -5.79072,-1.18448 -11.52135,-2.68157 -17.11235,-4.2621 m 27.60833,4.40116 c -1.43582,-0.32705 -2.89061,-0.64332 -4.3565,-0.95313 -6.29955,-1.33138 -12.82886,-2.5556 -19.24576,-4.02799 -8.213566,-1.88465 -15.120961,-4.52008 -21.930131,-7.17695 -6.051061,-2.36107 -11.847689,-4.81588 -17.259754,-7.61758 m 17.015475,8.3102 c -7.476892,-2.69391 -14.787591,-5.75004 -21.522344,-8.97622 -0.732292,-0.35079 -1.454608,-0.70439 -2.166965,-1.06061 -6.444834,-3.2228 -12.096616,-6.67149 -16.971102,-10.23351 -4.024593,-2.94096 -8.177336,-5.89968 -12.403882,-9.27238 m 18.645296,12.91115 c -7.33358,-4.26878 -13.199267,-8.70814 -18.291898,-13.5451 -4.452265,-4.22875 -9.112107,-8.14803 -13.038813,-12.03942 -1.200749,-1.18995 -2.332358,-2.37133 -3.386135,-3.5587 -3.548569,-3.99845 -6.1207372,-9.23901 -7.8790286,-14.38769 -0.1803177,-0.52802 -0.352788,-1.05705 -0.5175763,-1.58608 M 26.6002,144.34849 c -2.277008,-2.10066 -4.405277,-4.34513 -6.373724,-6.64667 -3.270278,-3.82367 -6.163774,-7.87942 -8.644408,-11.87352 -1.389905,-2.23791 -2.4724392,-4.50891 -3.3055695,-6.79673 -1.8729115,-5.1431 -2.5241685,-10.47774 -2.4608229,-15.86649 0.013972,-1.18856 0.029044,-2.34861 0.052262,-3.501531 m 0.097272,16.671141 C 4.0632781,110.96502 3.2796984,105.48336 3.3959553,99.875261 c 0.050983,-2.459378 0.2748373,-4.945102 0.6537068,-7.468306 0.6580898,-4.382761 1.7404918,-8.386179 3.2984911,-12.243794 1.2676165,-3.138625 2.8410388,-6.161205 4.7663358,-9.262233 1.807673,-2.911574 3.895883,-5.835202 6.241966,-8.72148 2.319459,-2.853525 4.898381,-5.679281 7.699563,-8.40465 M 9.8064348,74.358924 c 2.1525022,-3.789979 4.8818642,-7.588067 8.2030572,-11.285382 2.139519,-2.381818 4.533892,-4.731876 7.185748,-7.010722 5.467489,-4.698432 11.548687,-10.368892 17.339124,-14.636923 0,0 3e-6,-10e-7 3e-6,-10e-7 5.012324,-3.694498 11.34281,-7.00403 18.339576,-10.276201 M 33.041121,47.782831 c 5.686147,-4.620043 11.893855,-9.128227 18.479751,-13.63724 2.595567,-1.777046 5.436109,-3.352441 8.453044,-4.831106 3.949697,-1.935831 7.928715,-3.579753 12.045076,-5.353028 1.333012,-0.574245 2.716391,-1.131957 4.145117,-1.671574 m -10.887047,6.447231 c 6.681768,-3.295655 14.045499,-5.868061 21.907477,-8.016098 7.329418,-2.002532 14.527141,-5.002928 22.103651,-7.514149 4.86511,-1.612534 9.80735,-2.571226 14.7868,-3.3113286 m -15.52937,4.9283836 c 5.59088,-1.399618 11.38876,-3.019932 17.36996,-4.708614 5.64172,-1.5928392 -0.53983,0.152503 5.10189,-1.4403363 7.42655,-2.0908242 15.14863,-2.4672361 23.0437,-3.0918406 6.36687,-0.5037034 12.70604,-1.3094004 18.97956,-1.8333793 m -29.60072,2.2335198 c 7.74139,-1.2267775 15.61462,-2.1391116 24.08458,-3.05231 8.35046,-0.9003136 15.14378,-1.134766 22.328,-1.4787911 0,0 0,-1e-7 0,-1e-7 1.89411,-0.090702 3.89579,-0.1277717 5.96879,-0.1201023 m -18.00616,1.7510586 c 7.07118,-0.5353005 14.4612,-0.6115826 22.11813,-0.5919803 0.0679,1.738e-4 2.0392,0.00733 2.1071,0.0075 0,0 0,0 0,0 8.40631,0.037157 15.43446,0.2820983 22.88441,0.7258394 2.2276,0.1326825 4.51336,0.2955474 6.83277,0.483765 m -16.85515,-2.435414 c 7.8697,0.4579389 15.24611,0.896951 22.34113,1.8044906 7.25306,0.9277545 15.60508,2.0864319 23.40093,3.9453096 1.31664,0.3139464 2.62279,0.5939354 3.91946,0.8487386 M 247.99592,5.0101889 c 7.7861,0.9437713 15.83669,2.1559451 23.89714,3.4530568 1.25947,0.2026776 2.48092,0.4151218 3.67001,0.6351898 6.63692,1.2283065 12.53744,2.7516705 18.25139,4.1393825 4.67572,1.135563 9.74333,2.863796 14.65488,4.819745 m -29.64503,-7.939084 c 7.56341,1.922566 15.54929,3.592845 23.25694,5.627397 0,0 0,0 0,0 8.15447,2.152499 15.17267,4.464178 22.39035,6.472227 5.32195,1.480634 10.20576,4.087008 14.66563,6.735425 1.72457,1.024108 3.4452,2.091521 5.09341,3.109173 M 317.84317,21.759263 c 7.81412,3.031856 14.64245,5.651308 21.54344,8.70766 0.0671,0.02972 0.13414,0.05953 0.20109,0.08942 7.21836,3.22281 13.85305,7.591754 19.49719,11.629609 4.74882,3.397335 9.42217,7.206813 13.71565,11.403276 M 348.91717,36.441968 c 7.0372,4.477304 13.35144,8.547457 19.1226,13.318806 4.61401,3.814663 8.57836,7.860471 11.89684,11.92764 1.29636,1.588838 2.50046,3.188565 3.61265,4.790025 2.95279,4.251791 5.48644,8.735545 7.39576,13.269244 1.02655,2.437558 1.86839,4.878974 2.50212,7.30156 M 382.34122,65.032045 c 4.49933,5.684875 7.78023,11.013757 10.13684,16.423491 0.45308,1.040064 0.87111,2.081497 1.25562,3.126129 1.78466,4.848559 2.62881,10.29594 2.64346,15.715605 0.007,2.49614 -0.16181,4.99196 -0.49391,7.43781 -0.54645,4.02452 -1.57698,8.02581 -3.04769,12.0402 -0.76503,2.08819 -1.64653,4.17303 -2.63765,6.2652 m 6.17584,-19.55854 c -0.38764,4.5023 -1.53346,8.90626 -3.28667,13.27266 -1.17411,2.92411 -2.60866,5.80377 -4.25657,8.69369 -1.90922,3.34819 -4.23718,6.63316 -6.96723,9.90119 -2.42537,2.90332 -5.14468,5.76595 -8.15276,8.64981 -4.52542,4.33855 -9.40387,7.86216 -15.10843,10.99303 m 21.45682,-18.18346 c -4.76964,5.74555 -10.54729,10.39039 -17.5696,14.36793 -6.7596,3.82873 -13.19285,9.10608 -19.95245,12.93481 0,0 0,0 0,0 -1.6544,0.9386 -3.32599,1.83742 -5.02547,2.70992 -2.15283,1.10523 -4.33778,2.16176 -6.58369,3.2026 m 20.06354,-9.00906 c -3.79506,2.07307 -7.92714,4.35472 -11.93885,6.41266 -2.78006,1.42612 -5.65368,2.82466 -8.60419,4.11059 -6.7244,2.93073 -14.36792,5.79908 -22.4676,8.2641 0,0 0,0 0,0 -4.10874,1.25043 -8.12171,2.47666 -12.01152,3.58845 m 22.65658,-7.52033 c -6.9152,2.84685 -13.97185,5.08924 -20.973,7.30007 -6.2743,1.98131 -14.2976,3.51144 -22.22684,4.5698 -0.36552,0.0488 -0.73051,0.0965 -1.09477,0.14321 -2.83448,0.36329 -5.59304,0.83641 -8.35376,1.35749 m 24.5256,-3.91418 c -4.88023,1.25833 -9.80228,2.36124 -14.93698,3.3543 -2.85798,0.55273 -5.77906,1.07092 -8.797,1.56364 -8.14996,1.33059 -14.90704,2.361 -21.89369,2.96761 -6.32541,0.54921 -14.56459,1.40543 -22.37311,1.85772 m 20.5697,-3.21175 c -7.61238,0.79645 -15.69028,1.55618 -23.9962,2.05211 -7.21677,0.4309 -13.61515,0.27174 -20.1899,-0.30537 -0.94453,-0.0829 -1.89243,-0.17441 -2.84666,-0.27399 -3.26988,-0.34122 -6.5607,-0.42043 -9.82181,-0.41518 m 16.52038,1.68774 c -0.69339,-0.006 -1.38635,-0.01 -2.07893,-0.0129 -7.10781,-0.0297 -14.17383,0.0787 -21.20891,0.0726 -7.77423,-0.007 -15.9811,-1.29873 -24.33294,-2.59287 -3.82539,-0.59276 -7.31117,-1.06363 -10.58139,-1.51866 m 26.68861,3.46767 c -8.06665,-0.8247 -15.53526,-1.1291 -23.09419,-1.69261 -7.70909,-0.57471 -15.239,-2.65543 -22.0932,-4.70697 -0.17711,-0.053 -0.3549,-0.10537 -0.53333,-0.15711 -2.43389,-0.70578 -4.9961,-1.29828 -7.5872,-1.84059 m 15.18154,2.89223 c -2.69735,-0.43423 -5.32327,-0.96412 -7.89601,-1.56996 -5.03786,-1.18632 -9.90918,-2.67316 -14.70578,-4.31245 -7.61086,-2.6011 -14.913897,-3.99458 -21.536527,-6.01324 -4.756145,-1.44973 -10.063444,-3.64324 -15.211098,-6.00185 m 22.619863,9.17551 c -7.502559,-2.23322 -15.090086,-4.92568 -21.927304,-7.4137 -4.160185,-1.51386 -8.264882,-3.50187 -12.218666,-5.65874 -3.151778,-1.71936 -6.279708,-3.5863 -9.289713,-5.44257 -4.786951,-2.95211 -8.830601,-5.4183 -12.873222,-8.14061 m 24.597972,15.75554 c -1.078196,-0.46795 -2.130967,-0.96472 -3.159042,-1.48637 -6.080199,-3.08514 -11.415366,-7.10362 -16.060684,-11.30794 0,0 -2e-6,0 -2e-6,0 -6.120844,-5.53977 -13.067784,-9.26363 -18.345324,-14.15941 -2.557069,-2.37209 -4.977724,-4.85996 -7.228094,-7.38 -2.24153,-2.51015 -4.331654,-5.07169 -6.248853,-7.626 m 19.985125,22.31862 c -5.399612,-4.1558 -10.175511,-9.05402 -14.314856,-14.04219 -0.914003,-1.10143 -1.803124,-2.21477 -2.666726,-3.33435 -4.098883,-5.31379 -6.8247115,-10.01045 -8.7885295,-14.6758 -0.6757245,-1.60528 -1.2614504,-3.2089 -1.7752708,-4.82568 -0.6257144,-1.96887 -1.1062917,-4.12914 -1.4404345,-6.40578 m 5.0659425,12.72102 c -0.6472709,-1.25958 -1.2252726,-2.51642 -1.7375004,-3.7679 -2.4536533,-5.9948 -3.4216203,-11.92141 -3.2189145,-17.54754 0.00495,-0.13727 0.010335,-0.27517 0.016177,-0.413708 0.2447918,-5.805397 1.293836,-12.774724 3.6583403,-19.377614 0.3780702,-1.055762 0.7904934,-2.103292 1.2391835,-3.133317 0.6121898,-1.405359 1.2968478,-2.794082 2.0527628,-4.17081 M 3.3525754,96.314979 c 0.083093,-5.592495 1.4070248,-11.082819 3.6657477,-16.35426 0.7602165,-1.774205 1.6235034,-3.517437 2.5762187,-5.227693 2.2573652,-4.052284 5.1314692,-8.42728 8.4970752,-12.58483 1.586365,-1.959644 3.298599,-3.890932 5.114579,-5.711824 3.743338,-3.753463 8.368678,-7.727668 13.641115,-11.59718 M 22.744983,57.62423 c 4.931873,-5.433542 10.827902,-10.345727 17.599857,-15.290872 6.004795,-4.384935 12.888102,-8.039383 20.691781,-11.406254 0.287363,-0.123982 0.574591,-0.249236 0.861802,-0.375741 1.037879,-0.457145 2.073617,-0.929787 3.113425,-1.417104 m -20.663473,9.377899 c 5.171268,-3.328737 10.746096,-6.248382 16.848861,-8.739613 1.326179,-0.541364 2.677626,-1.062668 4.056239,-1.564002 7.088075,-2.577583 14.008314,-6.403164 21.663433,-9.654534 0,0 10e-7,-1e-6 10e-7,-1e-6 2.253319,-0.957055 4.547472,-1.751411 6.895961,-2.427184 M 73.92023,23.88172 c 6.961968,-2.909636 14.436643,-5.42965 22.494057,-7.566186 7.887393,-2.091454 14.060943,-4.3642 21.126733,-6.5857435 1.01444,-0.3189474 2.07805,-0.6113648 3.18223,-0.881107 M 99.712201,15.85426 c 7.425219,-2.008137 14.646749,-4.172897 22.053409,-5.9871651 0,0 0,-3e-7 0,-3e-7 0.96756,-0.2370047 1.95837,-0.472131 2.97088,-0.7064928 6.44024,-1.4906824 13.75181,-2.9432088 21.22871,-4.6108249 3.23883,-0.7223747 6.25899,-1.118582 9.2014,-1.3129991 m -18.88486,4.2497436 c 7.66384,-1.3083609 15.01216,-2.4802905 22.25196,-3.5689352 7.14696,-1.0746861 15.24389,-1.41495 22.74722,-1.817 0,0 1e-5,-10e-8 1e-5,-10e-8 2.30856,-0.1236997 4.72842,-0.1952324 7.2283,-0.2197573 m -19.94461,0.099651 c 7.81391,-0.633819 15.63064,-1.0776565 23.72461,-1.30041916 3.08883,-0.0850111 6.09394,-0.0976654 9.06325,-0.0453527 4.78433,0.0842897 9.47178,0.33718994 14.25982,0.72671964 7.26419,0.5909766 14.02488,0.9783731 20.42955,2.0055383 m -17.59657,0.3731987 c 7.91633,0.4037528 15.64508,0.9281827 23.46611,1.7341224 7.93816,0.8180101 15.56162,1.7292227 23.09506,2.6898442 3.73507,0.4762748 7.37868,1.1417468 10.89123,1.8688779 0.22634,0.04686 0.45222,0.09398 0.67762,0.14135 M 253.05888,5.1072746 c 7.04151,1.2314861 14.44932,2.1504275 21.76712,3.2822533 0.62612,0.09684 1.25148,0.1951637 1.87609,0.2953125 8.14871,1.3065441 15.20104,3.6624906 22.01312,5.9047666 1.38915,0.457256 2.79827,0.922294 4.23256,1.403025 M 288.53738,13.77977 c 7.83271,2.123897 14.93801,4.174669 21.7585,6.719258 0,0 0,0 0,0 7.4861,2.792911 14.48567,5.178834 21.3235,8.06066 2.09626,0.883475 4.20044,1.881164 6.27924,2.953588 1.06683,0.550362 2.12864,1.121268 3.18119,1.707731 m -21.0946,-9.972975 c 6.63917,2.54286 12.60929,5.444567 17.97061,8.626827 0.75303,0.44697 1.4942,0.899565 2.22364,1.357567 0,0 0,1e-6 0,1e-6 6.51084,4.088038 14.18575,7.293744 20.59721,10.678068 5.11414,2.699536 9.28776,6.90636 12.76263,11.00694 M 360.64352,44.856958 c 6.8066,4.816184 12.50054,9.808191 17.17703,14.834996 0.89196,0.958776 1.75111,1.941987 2.57292,2.941734 4.16376,5.065275 7.34914,10.5203 9.22061,15.709477 0.24398,0.676486 0.48968,1.36067 0.73692,2.058786 1.80713,5.10271 3.51872,10.481107 4.39153,16.01888 m -6.59339,-22.375092 c 1.27465,2.466905 2.41625,4.881323 3.40685,7.297613 1.9794,4.828171 3.31279,9.566649 3.84204,14.398093 0.15309,1.397551 0.22813,2.819831 0.22774,4.260055 -0.002,6.21907 -1.40854,12.76461 -4.01435,19.20501 0,0 0,0 0,0 -0.0797,0.19691 -0.16007,0.39305 -0.24121,0.58843 -0.34231,0.82422 -0.69782,1.63491 -1.06733,2.43279 m -365.231093,22.0957 -5.482538,-5.88482 M 286.49403,12.036837 l 6.94769,1.794819"
     transform="matrix(0.6,0,0,0.6,5.07224,4.8934483)" />
  <g
     id="g7"
     transform="matrix(0.6,0,0,0.6,5.07224,14.893465)">
    <text
       xml:space="preserve"
       style="font-weight:bold;font-size:66.6667px;font-family:Sans;-inkscape-font-specification:'Sans, Bold';text-align:center;text-anchor:middle;fill:#808080;fill-opacity:0.12549;stroke:none;stroke-width:1;stroke-dasharray:none"
       x="200.57999"
       y="72.133308"
       id="text4"><tspan
         sodipodi:role="line"
         x="200.57999"
         y="72.133308"
         style="font-style:normal;font-variant:normal;font-weight:normal;font-stretch:normal;font-size:40px;font-family:Quicksand;-inkscape-font-specification:'Quicksand, Normal';font-variant-ligatures:normal;font-variant-caps:normal;font-variant-numeric:normal;font-variant-east-asian:normal;fill:#000000;fill-opacity:1"
         id="tspan6">Partie</tspan></text>
    <text
       xml:space="preserve"
       style="font-weight:bold;font-size:66.6667px;font-family:Sans;-inkscape-font-specification:'Sans, Bold';text-align:center;text-anchor:middle;fill:#808080;fill-opacity:0.12549;stroke:none;stroke-width:1;stroke-dasharray:none"
       x="200.57999"
       y="122.1333"
       id="text7"><tspan
         sodipodi:role="line"
         x="200.57999"
         y="122.1333"
         style="font-style:normal;font-variant:normal;font-weight:normal;font-stretch:normal;font-size:40px;font-family:Quicksand;-inkscape-font-specification:'Quicksand, Normal';font-variant-ligatures:normal;font-variant-caps:normal;font-variant-numeric:normal;font-variant-east-asian:normal;fill:#000000;fill-opacity:1"
         id="tspan7">verlassen</tspan></text>
  </g>
</svg>
