<?xml version="1.0" encoding="UTF-8" standalone="no"?>
<svg
   height="130"
   width="250"
   version="1.1"
   id="svg1"
   sodipodi:docname="usecase-4.svg"
   inkscape:version="1.3.2 (091e20ef0f, 2023-11-25, custom)"
   xmlns:inkscape="http://www.inkscape.org/namespaces/inkscape"
   xmlns:sodipodi="http://sodipodi.sourceforge.net/DTD/sodipodi-0.dtd"
   xmlns="http://www.w3.org/2000/svg"
   xmlns:svg="http://www.w3.org/2000/svg">
  <defs
     id="defs1">
    <inkscape:path-effect
       effect="sketch"
       id="path-effect4"
       is_visible="true"
       lpeversion="1"
       nbiter_approxstrokes="3"
       parallel_offset="1;2819611662"
       strokelength="70"
       strokelength_rdm="0.3;1"
       strokeoverlap="0.5"
       strokeoverlap_rdm="0.5;1"
       ends_tolerance="0.1;1"
       tremble_size="0.8;1"
       tremble_frequency="3"
       nbtangents="2"
       tgt_places_rdmness="0.5;1"
       tgtlength="5"
       tgtlength_rdm="0.3;1"
       tgtscale="10" />
    <inkscape:path-effect
       effect="sketch"
       id="path-effect3"
       is_visible="true"
       lpeversion="1"
       nbiter_approxstrokes="3"
       parallel_offset="2;1"
       strokelength="70"
       strokelength_rdm="0.3;1"
       strokeoverlap="0.5"
       strokeoverlap_rdm="0.5;1"
       ends_tolerance="0.1;1"
       tremble_size="0.8;1"
       tremble_frequency="3"
       nbtangents="2"
       tgt_places_rdmness="0.5;1"
       tgtlength="5"
       tgtlength_rdm="0.3;1"
       tgtscale="10" />
    <inkscape:path-effect
       effect="sketch"
       id="path-effect2"
       is_visible="true"
       lpeversion="1"
       nbiter_approxstrokes="3"
       parallel_offset="2;1"
       strokelength="70"
       strokelength_rdm="0.3;1"
       strokeoverlap="0.5"
       strokeoverlap_rdm="0.5;1"
       ends_tolerance="0.1;1"
       tremble_size="0.8;1"
       tremble_frequency="3"
       nbtangents="2"
       tgt_places_rdmness="0.5;1"
       tgtlength="5"
       tgtlength_rdm="0.3;1"
       tgtscale="10" />
    <inkscape:path-effect
       effect="sketch"
       id="path-effect6"
       is_visible="true"
       lpeversion="1"
       nbiter_approxstrokes="3"
       parallel_offset="0.2;1"
       strokelength="70"
       strokelength_rdm="0.3;1"
       strokeoverlap="0.5"
       strokeoverlap_rdm="0.5;1"
       ends_tolerance="0.1;1"
       tremble_size="0.8;1"
       tremble_frequency="3"
       nbtangents="2"
       tgt_places_rdmness="0.5;1"
       tgtlength="5"
       tgtlength_rdm="0.3;1"
       tgtscale="10" />
    <inkscape:path-effect
       effect="sketch"
       id="path-effect5"
       is_visible="true"
       lpeversion="1"
       nbiter_approxstrokes="3"
       parallel_offset="0.2;1"
       strokelength="70"
       strokelength_rdm="0.3;1"
       strokeoverlap="0.5"
       strokeoverlap_rdm="0.5;1"
       ends_tolerance="0.1;1"
       tremble_size="0.8;1"
       tremble_frequency="3"
       nbtangents="2"
       tgt_places_rdmness="0.5;1"
       tgtlength="5"
       tgtlength_rdm="0.3;1"
       tgtscale="10" />
    <inkscape:path-effect
       effect="sketch"
       id="path-effect1"
       is_visible="true"
       lpeversion="1"
       nbiter_approxstrokes="3"
       parallel_offset="0.2;1"
       strokelength="70"
       strokelength_rdm="0.3;1"
       strokeoverlap="0.5"
       strokeoverlap_rdm="0.5;1"
       ends_tolerance="0.1;1"
       tremble_size="0.8;1"
       tremble_frequency="3"
       nbtangents="2"
       tgt_places_rdmness="0.5;1"
       tgtlength="5"
       tgtlength_rdm="0.3;1"
       tgtscale="10" />
  </defs>
  <sodipodi:namedview
     id="namedview1"
     pagecolor="#ffffff"
     bordercolor="#000000"
     borderopacity="0.25"
     inkscape:showpageshadow="2"
     inkscape:pageopacity="0.0"
     inkscape:pagecheckerboard="0"
     inkscape:deskcolor="#d1d1d1"
     inkscape:zoom="1.72"
     inkscape:cx="125"
     inkscape:cy="65.116279"
     inkscape:window-width="1440"
     inkscape:window-height="831"
     inkscape:window-x="0"
     inkscape:window-y="0"
     inkscape:window-maximized="1"
     inkscape:current-layer="svg1"
     showgrid="false" />
  <path
     id="ellipse1"
     style="fill:#cccccc;fill-opacity:1;stroke:none;stroke-width:0.6;stroke-dasharray:none"
     d="M 23.539818,35.260245 A 117.6,58.8 0 0 0 7.47224,64.893448 a 117.6,58.8 0 0 0 117.6,58.800002 117.6,58.8 0 0 0 107.53242,-35.1668 117.6,58.8 0 0 1 -101.53242,29.1668 117.6,58.8 0 0 1 -117.6,-58.800002 117.6,58.8 0 0 1 10.067578,-23.633203 z" />
  <path
     style="fill:none;fill-opacity:0.12549;stroke:#000000;stroke-width:1.66666667;stroke-dasharray:none"
     id="path1"
     inkscape:path-effect="#path-effect4"
     sodipodi:type="arc"
     sodipodi:cx="200"
     sodipodi:cy="100"
     sodipodi:rx="196"
     sodipodi:ry="98"
     d="m 396.09426,105.03782 c -0.30732,4.77894 -1.5625,9.6729 -3.59166,14.51491 -1.06084,2.53139 -2.32962,5.04023 -3.77613,7.50213 -2.17371,3.6996 -4.74332,7.31972 -7.74946,10.78647 -2.10807,2.43106 -4.4438,4.80176 -7.02948,7.08382 -2.30486,2.03421 -4.79175,4.22943 -7.24167,6.31612 m 13.70452,-12.30642 c -4.83075,5.39717 -10.41028,10.73481 -16.84617,15.23359 -5.46424,3.81959 -12.63229,8.92531 -19.39065,12.93312 0,0 0,0 0,0 -1.01502,0.60193 -2.04767,1.18796 -3.0978,1.76133 m 10.91802,-6.81602 c -4.38163,2.56023 -8.91249,5.15302 -13.35086,7.46476 -2.03886,1.06195 -4.09949,2.08661 -6.17762,3.04999 -6.15087,2.85144 -14.30757,6.27119 -22.62752,9.63155 0,0 0,0 0,0 -1.88245,0.76031 -3.69752,1.40345 -5.47082,1.9562 m 13.47793,-7.45364 c -7.16706,2.68374 -14.20599,5.07541 -21.3215,7.09709 -6.53724,1.85737 -14.30113,3.91824 -21.74893,5.76132 7.3e-4,-1.8e-4 -0.76875,0.18974 -0.76802,0.18956 -6.39469,1.57412 -13.02116,2.71604 -20.11169,4.06383 m 30.99744,-4.75349 c -3.10939,0.80035 -6.31812,1.48489 -9.60239,2.07376 -4.40718,0.79021 -8.92387,1.40342 -13.48699,1.89409 -7.72267,0.83041 -15.38751,2.1227 -23.38265,2.56401 -4.28596,0.23657 -8.42096,0.6652 -12.52074,1.13097 m 22.82892,-0.73539 c -7.39707,1.04418 -15.37031,1.66258 -23.20345,2.07479 -7.7282,0.40669 -15.76988,0.53276 -24.07909,0.1049 0,0 -1e-5,0 -1e-5,0 -0.53481,-0.0275 -1.06543,-0.0529 -1.59227,-0.0764 -1.90152,-0.0849 -3.75357,-0.1462 -5.57541,-0.20114 m 15.15099,-1.47728 c -3.53499,0.12454 -7.11689,0.28913 -10.68387,0.51038 -4.06842,0.25236 -8.10823,0.57787 -12.02998,1.00028 0,0 0,0 0,0 -7.3847,0.7954 -15.50577,-1.21535 -22.96009,-2.88059 -1.81725,-0.40596 -3.66926,-0.68745 -5.54374,-0.88618 m 15.28561,3.60411 c -7.83747,-0.67939 -15.7379,-1.29644 -23.82581,-2.30697 -8.22129,-1.0272 -15.4366,-2.42955 -22.78397,-4.21302 -0.804,-0.19516 -1.60734,-0.38434 -2.4088,-0.56859 m 13.43943,3.66146 c -4.07356,-0.63874 -8.1619,-1.51124 -12.1999,-2.55791 -3.58865,-0.9302 -7.14285,-1.99933 -10.61895,-3.16745 -7.72932,-2.59737 -15.394729,-3.96308 -22.853002,-6.2416 -5.956363,-1.81969 -11.472078,-3.787 -16.599897,-5.67039 m 25.021359,7.10241 c -7.656001,-2.17922 -14.753431,-4.8763 -21.148971,-7.87709 -5.828392,-2.73468 -12.539799,-5.1723 -18.804079,-7.85686 -1.132731,-0.48543 -2.250161,-0.9775 -3.350011,-1.4804 -5.630436,-2.57451 -10.201491,-5.62733 -14.259706,-8.76765 M 67.984576,173.396 c -1.998282,-0.9458 -3.969711,-1.91576 -5.913286,-2.91607 -5.196012,-2.67427 -10.125148,-5.53094 -14.758385,-8.65481 0,0 -3e-6,0 -3e-6,0 -7.181714,-4.84214 -13.201364,-9.24549 -18.786831,-14.70045 -2.828777,-2.76268 -5.316542,-5.2953 -7.574973,-7.84969 m 12.620144,14.64384 c -6.396558,-5.06465 -11.869652,-10.69953 -16.388305,-17.01371 -0.129378,-0.18079 -0.257935,-0.36208 -0.385669,-0.54388 0,0 0,0 0,0 C 12.002472,129.53696 8.6821919,125.05314 6.3838304,119.63345 6.1190282,119.00903 5.8724542,118.3807 5.6440648,117.74559 3.9952591,113.16054 2.9965407,107.48824 2.9621266,101.87406 m 8.3700744,23.77576 C 10.143827,123.46777 9.0778305,121.25859 8.1531616,119.04487 6.1213237,114.1805 4.790569,109.33837 4.3050273,104.72516 4.1842659,103.57779 4.1231765,102.38279 4.1200795,101.15265 4.1046581,95.027086 5.5316078,87.998147 8.1917856,81.54198 c 0,0 4e-7,-10e-7 4e-7,-10e-7 -3.4e-6,8e-6 0.04449,-0.107741 0.044487,-0.107733 C 9.7376755,77.806184 11.498104,74.347822 13.564776,71.02121 M 4.6451246,90.51412 c 0.6583015,-3.115496 1.5902148,-6.171997 2.8078387,-9.18555 1.6669715,-4.125665 3.8680167,-8.167153 6.6431237,-12.192347 1.463366,-2.122561 3.045397,-4.198073 4.754318,-6.223075 3.178422,-3.766303 6.807923,-7.373038 10.982896,-10.823648 1.213842,-1.003239 2.455595,-2.016493 3.716191,-3.027185 M 23.307989,59.710376 c 4.970639,-5.146349 11.144366,-10.652789 18.32727,-16.136148 6.608481,-5.044849 12.378878,-8.189092 19.368839,-12.167366 0.221272,-0.125935 0.444312,-0.250933 0.669088,-0.375018 2.183478,-1.205365 4.522305,-2.319902 6.984911,-3.367038 M 51.57924,35.41106 c 2.83115,-1.534368 5.854354,-3.108275 8.998936,-4.639227 3.917237,-1.907122 8.102997,-3.786909 12.436398,-5.467616 7.249344,-2.811654 14.298437,-5.798382 22.08557,-8.632276 10e-7,-1e-6 2e-6,-1e-6 3e-6,-1e-6 5.584053,-2.032148 11.087253,-3.432156 16.841333,-4.735913 m -27.032878,8.214324 c 7.203289,-2.55238 14.315845,-4.659323 21.517698,-6.276034 5.21837,-1.171449 11.01988,-2.860552 17.05718,-4.6401523 1.95344,-0.5758105 3.93629,-1.1622565 5.88314,-1.72747 7.1118,-2.0647048 13.98006,-2.486717 21.23805,-3.1821324 m -30.43081,5.069423 c 1.7449,-0.3693258 3.47674,-0.7160927 5.20065,-1.0380023 5.86041,-1.0943252 11.64402,-1.9045219 17.61874,-2.3449502 7.37282,-0.5434887 14.59075,-1.9584997 21.96356,-2.5019884 6.47442,-0.4668814 14.64105,-1.0509379 22.34217,-1.2883014 m -32.15555,0.9769774 c 7.46061,-1.1568505 15.39162,-1.5555159 23.27574,-1.9355084 7.32121,-0.35286141 14.94369,-0.43051835 22.91109,-0.073473 0.49392,0.022134 0.98915,0.045938 1.48568,0.071448 3.95976,0.203438 7.50748,0.2518215 10.85462,0.2707976 m -22.4285,0.7395858 c 2.72592,-0.022216 5.42147,-0.034679 8.10627,-0.026553 5.16038,0.01562 10.27837,0.1072915 15.51234,0.3516107 0,0 0,0 0,0 8.01507,0.3741398 15.24528,0.4407314 22.2547,0.4132889 5.0042,-0.019592 10.80552,1.0378089 16.57743,2.2937246 M 228.27473,4.3031448 c 7.60384,0.6775163 15.91805,1.2183136 24.22287,1.9167154 8.43448,0.7093068 15.13583,2.3413131 21.73769,3.7641678 -2e-5,-4.6e-6 0.0909,0.019605 0.0908,0.0196 5.77293,1.246662 12.69332,2.974279 19.35221,4.991736 M 265.37488,7.6814138 c 3.49457,0.6099184 6.98249,1.2752383 10.4394,1.9909833 4.1912,0.8677779 8.33433,1.8091529 12.39074,2.8159769 7.74141,1.921467 15.11774,3.899105 22.06217,5.913902 6.87065,1.993393 13.97962,5.051336 20.22935,7.900684 M 300.20966,14.644527 c 7.46237,2.191369 15.10901,4.800092 22.19571,7.611284 6.19426,2.457178 11.84334,5.280342 17.09466,8.509876 1.20859,0.743272 2.39524,1.507571 3.56125,2.293015 5.71951,3.85276 11.73963,6.656316 17.24133,9.851643 M 332.13282,27.942438 c 1.9549,0.898694 3.87621,1.822457 5.76309,2.770314 5.26619,2.645406 10.26351,5.478114 14.97049,8.474645 0,0 0,2e-6 0,2e-6 7.14554,4.548956 12.97208,8.972229 17.97635,13.755666 3.14094,3.002336 6.27671,6.143612 9.23469,9.437772 2.35215,2.61949 4.53585,5.273988 6.47719,7.957234 m -21.8134,-24.960457 c 6.63815,4.937337 11.8519,10.233177 15.6818,15.629904 0.23906,0.336859 0.48259,0.676688 0.72938,1.018717 4.47718,6.205043 9.16297,12.141201 12.64078,19.274553 0.0641,0.131465 0.12759,0.26302 0.19047,0.394666 0,10e-7 0,10e-7 0,10e-7 2.65644,5.561169 3.46885,10.542638 3.37634,15.365761 m -8.48843,-24.766487 c 1.60175,2.719909 2.97577,5.548685 4.09418,8.430399 1.72472,4.443948 2.83815,9.003369 3.26882,13.527895 0.18356,1.928479 0.28376,3.870797 0.29258,5.830547 0.0265,5.90057 -0.77635,11.92471 -2.59182,18.10385 -0.20282,0.69031 -0.42152,1.368 -0.65566,2.03407 -0.13889,0.39512 -0.2832,0.78611 -0.43284,1.17319 m 1.50252,-14.47786 c -0.68754,4.07988 -1.77626,8.40207 -3.35621,12.82848 -1.18278,3.3137 -2.64931,6.70806 -4.43359,10.08199 -1.83908,3.47755 -4.04551,6.51045 -6.62523,9.33784 -2.58055,2.8283 -5.44022,5.35453 -8.68012,8.01799 -3.59506,2.95544 -7.23333,6.10771 -11.06894,9.20395 m 19.91447,-16.43333 c -4.76222,5.40886 -10.68988,10.62109 -17.6747,15.36887 -5.99679,4.07618 -12.82449,8.69368 -20.01566,12.60462 0,0 -1e-5,0 -1e-5,0 -1.30735,0.71101 -2.61959,1.40763 -3.94077,2.09416 -0.42007,0.21828 -0.84089,0.43546 -1.26261,0.65169 m 13.6033,-7.53206 c -4.06986,2.25311 -7.71196,4.38185 -11.866,6.75919 -2.59918,1.48751 -5.26955,2.99616 -7.93902,4.42675 -6.38304,3.42072 -13.91426,5.63994 -21.53459,7.87859 0,0 0,0 0,0 -3.77017,1.10758 -7.67913,2.34389 -11.98408,3.68068 m 18.72017,-7.21571 c -6.92675,2.70215 -14.09496,4.8688 -21.09574,6.6981 -5.79302,1.51372 -13.12712,3.19675 -20.35252,4.37952 -0.97319,0.1593 -1.94541,0.30969 -2.9123,0.44939 -7.82155,1.13013 -14.94153,2.9793 -23.1257,4.73949 m 33.91594,-6.57594 c -2.74022,0.65664 -5.54732,1.25383 -8.40299,1.79069 -4.75288,0.89353 -9.63015,1.61799 -14.5342,2.1696 -7.62244,0.85736 -15.25869,2.12251 -22.96771,2.66878 -3.5281,0.25 -7.05019,0.54615 -10.60409,0.8316 m 20.53816,-1.81605 c -7.78162,0.91532 -15.4086,1.68129 -23.2042,2.2255 -7.72888,0.53955 -15.4491,1.00846 -23.08786,1.62031 -0.064,0.005 -0.12801,0.0102 -0.19204,0.0151 -3.65088,0.28169 -7.34357,0.26222 -11.01894,0.14247 m 20.14922,0.16163 c -3.20571,0.0872 -6.3391,0.16691 -9.38988,0.2438 -4.40659,0.11107 -8.61424,0.21575 -12.73586,0.33146 0,0 0,0 0,0 -6.97797,0.19589 -15.65987,-0.716 -23.37369,-1.30485 -5.86561,-0.44776 -11.71219,-1.18696 -17.53235,-2.02026 m 27.3448,2.38456 c -8.14152,-0.81965 -15.94257,-1.25019 -24.08409,-2.06984 -8.35855,-0.85101 -15.44015,-2.36992 -22.70116,-3.97263 -0.59341,-0.13098 -1.18676,-0.26314 -1.77993,-0.39666 -5.61932,-1.26499 -11.1472,-2.63702 -16.42955,-4.26098 m 27.05474,5.39969 c -4.03138,-0.66578 -8.08327,-1.42469 -12.09062,-2.24991 -3.63797,-0.74916 -7.24548,-1.55426 -10.77647,-2.39641 -7.75557,-1.84973 -14.856862,-3.95403 -21.287759,-6.19494 -4.470472,-1.55778 -9.494966,-3.35728 -14.543486,-5.33629 m 24.092805,7.83751 c -7.946999,-2.36714 -14.758824,-4.82477 -21.251242,-7.73054 -5.587422,-2.50072 -12.194581,-4.83478 -17.893607,-6.9646 -1.267453,-0.47367 -2.509936,-0.94387 -3.728421,-1.41676 -5.661838,-2.19732 -10.782542,-5.85557 -15.308414,-9.40547 m 24.691142,13.40508 c -1.931806,-0.80922 -3.836283,-1.67918 -5.709241,-2.58872 -5.350381,-2.59822 -10.667972,-5.63264 -15.64573,-8.57449 0,0 -10e-7,0 -10e-7,0 -7.476818,-4.41878 -12.879093,-9.35901 -17.571618,-14.56575 -0.744808,-0.82643 -1.510611,-1.64039 -2.283946,-2.44096 m 9.015537,10.52897 c -6.605593,-5.0763 -11.851655,-10.54754 -16.227756,-16.52464 -0.121276,-0.16565 -0.241887,-0.3317 -0.361841,-0.49814 0,0 0,0 0,0 -4.666366,-6.475 -8.266238,-11.69217 -10.8118796,-17.78488 -0.2937965,-0.70317 -0.5702722,-1.41161 -0.8291027,-2.1271 -1.9869015,-5.49242 -3.0080379,-11.21534 -3.0858876,-16.92551 -0.022842,-1.675396 0.035425,-3.349142 0.1737244,-5.016084 m 6.5331055,30.949694 c -1.522928,-2.62078 -2.7740897,-5.30502 -3.7480361,-8.02003 -1.6385617,-4.56772 -2.4961168,-9.23172 -2.5466585,-13.86462 -0.01911,-1.75166 -0.036003,-3.48562 -0.023359,-5.24822 0.042361,-5.904846 0.4205233,-11.929359 2.0956545,-17.784814 0,0 3e-7,-10e-7 3e-7,-10e-7 C 6.6990894,81.08368 6.8505608,80.601083 7.0147583,80.119536 8.9414857,74.468968 12.556192,69.113883 17.203778,63.740897 M 4.224977,93.020059 c 0.5699526,-3.988847 1.5759557,-8.000604 2.9864062,-12.04113 1.1883549,-3.404289 2.6556002,-6.806047 4.3750848,-10.219963 1.558768,-3.094826 3.553181,-5.961478 5.881894,-8.736628 2.63078,-3.135125 5.532995,-5.979219 8.654713,-8.976655 1.046158,-1.004507 2.161434,-1.992053 3.342188,-2.961127 m -8.667026,9.0653 C 25.5389,53.595392 31.489542,48.779088 38.465868,44.40271 c 6.138413,-3.850741 12.525031,-8.658405 19.623068,-12.981596 0,0 2e-6,-1e-6 2e-6,-1e-6 1.046423,-0.637344 2.106485,-1.238646 3.180049,-1.809325 3.415752,-1.815724 6.911412,-3.292244 10.506619,-4.644059 M 48.979369,37.657055 c 3.594012,-2.118935 7.544402,-4.39811 11.626905,-6.700701 2.875573,-1.621865 5.856897,-3.277987 8.846441,-4.907387 6.835303,-3.725463 13.993117,-5.610768 21.780604,-7.821521 1e-6,0 2e-6,-1e-6 2e-6,-1e-6 6.000543,-1.703466 12.115849,-3.69423 18.293119,-5.396245 m -27.174632,8.295083 c 7.194765,-2.761451 14.721377,-5.177237 23.089412,-7.598483 7.26767,-2.102862 13.35888,-3.6243083 19.81923,-5.1926936 0.12779,-0.031024 1.77469,-0.4299355 1.90248,-0.4609595 1.847,-0.4468938 3.8106,-0.8398056 5.85963,-1.1873312 m -15.97299,5.1567303 c 2.35252,-0.594987 4.75835,-1.135274 7.22094,-1.635635 5.30922,-1.0787523 10.81522,-1.9588375 16.58418,-2.8075943 8.16686,-1.2015478 15.21308,-2.2068075 22.71609,-2.9961736 2.2134,-0.2328648 4.496,-0.4356783 6.82711,-0.6130214 m -14.88824,1.1271656 c 7.65719,-0.7481732 15.14157,-1.5184352 22.30524,-1.8146496 6.78827,-0.2806916 14.8216,-0.3428432 22.45948,0.2030023 0.37792,0.027008 0.75486,0.055504 1.13062,0.085534 1.33081,0.1063552 2.65481,0.1788414 3.97439,0.226027 m -14.2964,-0.6072812 c 2.85543,-0.080884 5.75254,-0.1283018 8.6899,-0.1499621 5.0539,-0.037268 10.229,0.00173 15.50426,0.077722 0,0 0,0 0,0 8.35701,0.1203917 15.35902,0.6483462 22.48216,1.0463904 4.78574,0.2674293 10.02327,1.1044939 15.20911,2.1840226 M 228.55264,2.9912319 c 7.62037,0.7758588 15.80479,1.2919481 23.88809,2.159213 8.28851,0.8892823 15.64077,1.9248606 23.39247,2.6237745 0.17709,0.015968 0.35374,0.032993 0.52994,0.051045 7.39102,0.7572202 14.27789,3.3789356 20.72511,5.5621236 M 263.89823,6.9833888 c 3.97153,0.7507538 7.90877,1.4422142 11.73556,2.1222575 3.79863,0.6750417 7.50585,1.3418167 11.23701,2.0751237 7.74416,1.522006 15.18578,4.064841 21.98974,6.394035 5.36542,1.836744 10.9295,4.103189 16.34961,6.736377 m -26.3484,-8.078203 c 7.69566,2.479315 14.91612,4.638981 22.17844,7.375236 6.17073,2.324975 11.95793,4.914534 17.29624,7.537716 1.21624,0.597647 2.41455,1.199714 3.59339,1.803533 6.94274,3.556172 13.88133,7.799796 19.8313,11.903074 M 332.10339,27.962554 c 2.18677,1.038513 4.62099,2.18509 6.80776,3.223603 4.96398,2.356645 9.49212,4.55168 13.96543,6.931815 0,0 0,2e-6 0,2e-6 6.99701,3.722928 13.48731,9.157761 18.86594,13.985201 3.73956,3.35634 7.09546,6.832013 10.09905,10.450012 1.06949,1.288252 2.09392,2.594126 3.07404,3.917862 M 363.67038,45.491233 c 6.88359,5.080047 12.43892,10.348653 17.22186,15.920772 0.29414,0.342668 0.58339,0.686152 0.8678,1.03047 4.95444,5.997982 8.47261,12.290551 10.72504,18.870408 0.046,0.13434 0.0915,0.268806 0.13638,0.403396 0,0 0,10e-7 0,10e-7 2.1036,6.300657 3.26862,11.932765 3.03978,17.521189 m -6.82347,-26.194101 c 1.73379,3.024441 3.17054,5.903931 4.30989,8.722254 1.61636,3.998297 2.61892,7.840528 2.98359,11.636559 0.1738,1.809135 0.25776,3.770084 0.23225,5.825986 -0.069,5.557613 -0.94374,11.863593 -2.99548,17.618903 -0.29,0.81347 -0.59664,1.6205 -0.92041,2.42185 -1.28748,3.18656 -2.84435,6.28017 -4.70623,9.3414 m 8.48335,-22.49448 c -0.6374,4.27997 -1.74241,8.70336 -3.39782,13.07191 -1.10607,2.91889 -2.4641,5.82826 -4.09486,8.63242 -1.89381,3.2565 -4.24605,6.4975 -7.02394,9.67891 -2.46497,2.82304 -5.26168,5.59493 -8.3523,8.27209 -3.12206,2.7044 -6.35137,5.45553 -9.59587,8.01073 m 14.99914,-14.66029 c -4.63257,5.71515 -10.06514,10.6439 -16.01515,15.69644 -5.22475,4.43667 -12.57547,8.24508 -20.39846,11.60536 0,0 0,0 0,0 -1.49885,0.64382 -2.98555,1.32109 -4.4827,2.02592 -1.04243,0.49077 -2.08231,0.99128 -3.13202,1.50132 m 15.98265,-6.69381 c -4.04948,2.40688 -8.28818,4.67697 -12.82806,6.8249 -2.80354,1.32641 -5.72908,2.60974 -8.81496,3.85793 -7.29197,2.94947 -13.961,5.78668 -20.57351,7.96974 0,0 0,0 0,0 -5.94145,1.9615 -13.79379,4.21726 -21.59076,6.06031 m 32.88053,-8.90168 c -6.97771,2.60467 -14.69895,5.18221 -22.89005,7.45478 -7.55654,2.09651 -14.34584,3.47931 -21.63938,4.33025 -0.24597,0.0287 -0.49255,0.0568 -0.73979,0.0843 -3.18232,0.35408 -6.40226,0.96031 -9.64874,1.65722 m 18.73867,-5.23519 c -2.77209,0.61053 -5.54187,1.23975 -8.35954,1.88407 -4.72202,1.07978 -9.63584,2.21568 -14.49135,3.26932 -7.60923,1.65119 -15.62181,2.02697 -24.2248,2.37477 -3.81823,0.15436 -7.28926,0.43295 -10.63483,0.72526 m 20.76134,0.256 c -8.00175,0.69509 -15.26535,1.8666 -23.12344,2.83151 -7.68468,0.94363 -15.2147,0.43654 -22.41307,-0.0988 -3e-5,0 -0.079,-0.006 -0.0791,-0.006 -2.61379,-0.19142 -5.39035,-0.24868 -8.23963,-0.24879 m 16.45568,0.49792 c -3.21439,0.12901 -6.35882,0.12829 -9.47009,0.0246 -4.59662,-0.15323 -9.11686,-0.53117 -13.67416,-1.04602 0,0 0,0 0,0 -7.69328,-0.86914 -15.3181,-0.54336 -22.48559,-0.80156 -4.96283,-0.17879 -10.55118,-1.05196 -16.17508,-2.12519 m 26.04314,2.81807 c -7.69294,-0.39642 -15.65693,-1.14111 -23.23759,-1.74577 -7.80029,-0.62218 -15.75803,-2.62098 -23.59038,-4.66226 -0.49911,-0.13008 -0.99517,-0.25693 -1.48834,-0.38093 -4.55702,-1.14583 -9.06086,-2.09361 -13.34077,-3.07043 m 23.04484,5.10371 c -3.74921,-0.51571 -7.31971,-1.31665 -10.74101,-2.3058 -3.80828,-1.10104 -7.45368,-2.4419 -10.95858,-3.89228 -6.97222,-2.88522 -15.251743,-3.9867 -22.460902,-6.21918 -6.423874,-1.98929 -13.058342,-4.43028 -19.396729,-6.80415 m 29.606051,11.58593 c -7.79898,-2.06682 -15.385139,-5.05078 -22.811755,-8.23652 -6.28039,-2.69406 -12.286905,-4.92726 -17.454872,-6.98186 -1.270196,-0.50499 -2.526606,-1.01268 -3.78505,-1.53489 -2.026273,-0.84083 -4.014441,-1.88839 -5.950267,-3.06602 m 15.189884,5.81085 c -1.600294,-0.71805 -3.151101,-1.43558 -4.654685,-2.14942 -5.571208,-2.64497 -10.688321,-5.33289 -15.306218,-7.86461 0,0 -2e-6,0 -2e-6,0 -6.51168,-3.56997 -13.340326,-9.47279 -18.617931,-14.54335 -1.143415,-1.09856 -2.231951,-2.196 -3.269522,-3.29857 m 9.630377,8.30124 c -6.177034,-4.63481 -11.237477,-9.53797 -15.448256,-14.29234 -0.39025,-0.44063 -0.774435,-0.88141 -1.152646,-1.32203 C 12.972714,131.10171 9.5161166,125.13668 7.1164985,119.47122 6.6490156,118.3675 6.2185834,117.26868 5.8255918,116.18031 4.0099617,111.15199 3.3403994,105.72048 3.6468485,100.2661 3.67425,99.778393 3.709456,99.290189 3.752361,98.801704 m 6.1284449,27.021176 c -1.0701725,-1.98612 -2.002435,-3.97772 -2.8035985,-5.97705 -2.1673769,-5.40876 -3.3794324,-10.88414 -3.7516751,-16.45634 -0.063495,-0.95047 -0.094745,-1.89512 -0.09419,-2.83417 0.00381,-6.447176 1.5050566,-12.626353 4.3733824,-18.633675 0.1301379,-0.272556 0.2630783,-0.544747 0.3988102,-0.816593 0.6124705,-1.226664 1.25922,-2.486602 1.9431411,-3.768638 M 4.5874947,87.732953 C 5.2410563,84.931545 6.131538,82.195436 7.2707123,79.538151 9.069616,75.341955 11.49503,71.327547 14.603237,67.563765 c 1.391309,-1.684761 2.842438,-3.48025 4.372066,-5.346285 3.249704,-3.964403 7.129,-8.593138 11.405944,-12.645402 1.793902,-1.699664 3.67851,-3.237472 5.667658,-4.653778 M 22.91654,56.254499 c 5.082911,-5.242177 11.215013,-10.123501 18.443571,-14.560023 6.382616,-3.917326 12.302401,-8.215004 18.571873,-12.220928 -2.74e-4,1.75e-4 0.149634,-0.0955 0.14936,-0.09532 0.915848,-0.583812 1.88662,-1.140633 2.905335,-1.674571 m -9.97357,8.032567 c 2.689764,-1.423116 5.646577,-2.999883 8.388855,-4.434512 3.885757,-2.032842 7.928684,-4.091462 12.027621,-5.977252 6.739541,-3.100648 14.472974,-5.8755 23.161231,-9.141918 0,0 3e-6,-10e-7 3e-6,-10e-7 3.11811,-1.172278 6.041681,-2.018993 8.913331,-2.660225 m -17.075276,7.342285 c 7.201464,-2.519518 14.338446,-4.916307 21.452346,-7.195127 4.75258,-1.522409 9.99398,-2.680665 15.31681,-3.7587414 2.03387,-0.4119344 4.90567,-0.9728855 6.93953,-1.38482 2.26205,-0.4558814 4.64611,-0.8591212 7.12529,-1.2145601 m -16.52684,2.189301 c 0.70642,-0.1482041 1.41399,-0.2947378 2.12286,-0.4395594 6.89391,-1.4084305 13.9267,-2.6585205 21.27231,-3.7166448 7.91189,-1.1396963 15.35388,-1.7877447 23.17979,-2.0644214 7.12035,-0.2517326 14.00631,-0.698313 20.44599,-0.5118749 m -32.11833,2.2250513 c 7.74987,-0.7889294 15.51757,-1.4601261 23.46029,-1.8471824 6.34688,-0.3092899 12.5511,-0.5669204 18.77928,-0.7882913 1.50814,-0.053604 3.01881,-0.1051222 4.53423,-0.1547561 4.00857,-0.1312903 7.93904,-0.056468 11.77743,0.082628 M 194.47081,1.9257085 c 1.58474,0.025363 3.19378,0.034827 4.82289,0.034267 6.19701,-0.00213 12.67964,-0.1491033 19.17493,-0.1166466 0,0 0,0 0,1e-7 8.24917,0.041221 15.40381,1.0499973 22.65313,2.0099973 1.43519,0.1900579 2.9038,0.3898501 4.39854,0.6025368 m -12.54088,0.1636207 c 7.8966,0.8119022 15.31601,1.5754222 22.56123,2.782475 6.64767,1.1075019 12.73911,1.9865211 19.38678,3.0940227 1.0808,0.181215 2.14952,0.364666 3.20374,0.551273 0,0 0,0 0,0 3.37929,0.598164 6.832,1.445073 10.25925,2.42724 m -18.8714,-5.9687322 c 1.97898,0.3688155 3.91781,0.7650374 5.81788,1.1876316 5.60932,1.2475632 10.88061,2.7249086 15.84639,4.4043706 6.83479,2.311568 15.59047,3.884735 22.96873,5.454127 5.77642,1.228674 10.84693,3.826018 15.48122,6.451592 m -24.75787,-7.706025 c 7.716,2.396392 14.89036,4.918279 21.57805,7.492266 4.03153,1.551673 7.97282,3.373325 11.61613,5.217617 2.89538,1.465677 5.65661,2.973197 8.18124,4.411923 5.01156,2.855961 10.86344,6.54074 16.18056,10.277366 M 337.40577,30.303524 c 0.001,7.34e-4 0.249,0.134254 0.25036,0.134988 7.26913,3.916734 13.72077,7.207135 20.08207,11.257744 0,0 10e-6,1e-6 10e-6,1e-6 6.90696,4.398065 12.7321,9.984032 17.46395,15.495133 0.4585,0.534013 1.61556,1.875356 2.07407,2.409369 m -8.00021,-9.706691 c 4.6408,3.75425 8.60364,7.902314 12.0079,12.15363 1.41148,1.762693 2.7395,3.559063 3.98811,5.37128 3.11435,4.520134 5.36881,8.821915 6.89365,13.1594 0.87929,2.501211 1.51384,5.010535 1.919,7.554603 0.15535,0.975427 0.30584,1.958813 0.4477,2.95491 m -3.44982,-11.8323 c 0.19871,0.476718 0.38987,0.955509 0.57338,1.43622 2.38079,6.236733 3.46317,12.773247 3.00728,19.308789 -0.0508,0.72861 -0.12077,1.45723 -0.21019,2.1854 -0.71058,5.78643 -1.61637,11.23 -3.39435,16.27887 -0.5711,1.62174 -1.23562,3.21161 -2.019,4.76248 -0.55922,1.1071 -1.19913,2.2711 -1.91209,3.48013 M 25.071787,144.32343 19.589249,138.43861 M 286.49403,12.036837 l 6.94769,1.794819"
     transform="matrix(0.6,0,0,0.6,5.07224,4.8934483)" />
  <g
     id="g7"
     transform="matrix(0.6,0,0,0.6,5.07224,14.893465)">
    <text
       xml:space="preserve"
       style="font-weight:bold;font-size:66.6667px;font-family:Sans;-inkscape-font-specification:'Sans, Bold';text-align:center;text-anchor:middle;fill:#808080;fill-opacity:0.12549;stroke:none;stroke-width:1;stroke-dasharray:none"
       x="200.57999"
       y="72.133308"
       id="text4"><tspan
         sodipodi:role="line"
         x="200.57999"
         y="72.133308"
         style="font-style:normal;font-variant:normal;font-weight:normal;font-stretch:normal;font-size:40px;font-family:Quicksand;-inkscape-font-specification:'Quicksand, Normal';font-variant-ligatures:normal;font-variant-caps:normal;font-variant-numeric:normal;font-variant-east-asian:normal;fill:#000000;fill-opacity:1"
         id="tspan6">Partie</tspan></text>
    <text
       xml:space="preserve"
       style="font-weight:bold;font-size:66.6667px;font-family:Sans;-inkscape-font-specification:'Sans, Bold';text-align:center;text-anchor:middle;fill:#808080;fill-opacity:0.12549;stroke:none;stroke-width:1;stroke-dasharray:none"
       x="200.57999"
       y="122.1333"
       id="text7"><tspan
         sodipodi:role="line"
         x="200.57999"
         y="122.1333"
         style="font-style:normal;font-variant:normal;font-weight:normal;font-stretch:normal;font-size:40px;font-family:Quicksand;-inkscape-font-specification:'Quicksand, Normal';font-variant-ligatures:normal;font-variant-caps:normal;font-variant-numeric:normal;font-variant-east-asian:normal;fill:#000000;fill-opacity:1"
         id="tspan7">beitreten</tspan></text>
  </g>
</svg>
