<?xml version="1.0" encoding="UTF-8" standalone="no"?>
<svg
   height="130"
   width="250"
   version="1.1"
   id="svg1"
   sodipodi:docname="usecase-6.svg"
   inkscape:version="1.3.2 (091e20ef0f, 2023-11-25, custom)"
   xmlns:inkscape="http://www.inkscape.org/namespaces/inkscape"
   xmlns:sodipodi="http://sodipodi.sourceforge.net/DTD/sodipodi-0.dtd"
   xmlns="http://www.w3.org/2000/svg"
   xmlns:svg="http://www.w3.org/2000/svg">
  <defs
     id="defs1">
    <inkscape:path-effect
       effect="sketch"
       id="path-effect4"
       is_visible="true"
       lpeversion="1"
       nbiter_approxstrokes="3"
       parallel_offset="1;1003660690"
       strokelength="70"
       strokelength_rdm="0.3;1"
       strokeoverlap="0.5"
       strokeoverlap_rdm="0.5;1"
       ends_tolerance="0.1;1"
       tremble_size="0.8;1"
       tremble_frequency="3"
       nbtangents="2"
       tgt_places_rdmness="0.5;1"
       tgtlength="5"
       tgtlength_rdm="0.3;1"
       tgtscale="10" />
    <inkscape:path-effect
       effect="sketch"
       id="path-effect3"
       is_visible="true"
       lpeversion="1"
       nbiter_approxstrokes="3"
       parallel_offset="2;1"
       strokelength="70"
       strokelength_rdm="0.3;1"
       strokeoverlap="0.5"
       strokeoverlap_rdm="0.5;1"
       ends_tolerance="0.1;1"
       tremble_size="0.8;1"
       tremble_frequency="3"
       nbtangents="2"
       tgt_places_rdmness="0.5;1"
       tgtlength="5"
       tgtlength_rdm="0.3;1"
       tgtscale="10" />
    <inkscape:path-effect
       effect="sketch"
       id="path-effect2"
       is_visible="true"
       lpeversion="1"
       nbiter_approxstrokes="3"
       parallel_offset="2;1"
       strokelength="70"
       strokelength_rdm="0.3;1"
       strokeoverlap="0.5"
       strokeoverlap_rdm="0.5;1"
       ends_tolerance="0.1;1"
       tremble_size="0.8;1"
       tremble_frequency="3"
       nbtangents="2"
       tgt_places_rdmness="0.5;1"
       tgtlength="5"
       tgtlength_rdm="0.3;1"
       tgtscale="10" />
    <inkscape:path-effect
       effect="sketch"
       id="path-effect6"
       is_visible="true"
       lpeversion="1"
       nbiter_approxstrokes="3"
       parallel_offset="0.2;1"
       strokelength="70"
       strokelength_rdm="0.3;1"
       strokeoverlap="0.5"
       strokeoverlap_rdm="0.5;1"
       ends_tolerance="0.1;1"
       tremble_size="0.8;1"
       tremble_frequency="3"
       nbtangents="2"
       tgt_places_rdmness="0.5;1"
       tgtlength="5"
       tgtlength_rdm="0.3;1"
       tgtscale="10" />
    <inkscape:path-effect
       effect="sketch"
       id="path-effect5"
       is_visible="true"
       lpeversion="1"
       nbiter_approxstrokes="3"
       parallel_offset="0.2;1"
       strokelength="70"
       strokelength_rdm="0.3;1"
       strokeoverlap="0.5"
       strokeoverlap_rdm="0.5;1"
       ends_tolerance="0.1;1"
       tremble_size="0.8;1"
       tremble_frequency="3"
       nbtangents="2"
       tgt_places_rdmness="0.5;1"
       tgtlength="5"
       tgtlength_rdm="0.3;1"
       tgtscale="10" />
    <inkscape:path-effect
       effect="sketch"
       id="path-effect1"
       is_visible="true"
       lpeversion="1"
       nbiter_approxstrokes="3"
       parallel_offset="0.2;1"
       strokelength="70"
       strokelength_rdm="0.3;1"
       strokeoverlap="0.5"
       strokeoverlap_rdm="0.5;1"
       ends_tolerance="0.1;1"
       tremble_size="0.8;1"
       tremble_frequency="3"
       nbtangents="2"
       tgt_places_rdmness="0.5;1"
       tgtlength="5"
       tgtlength_rdm="0.3;1"
       tgtscale="10" />
  </defs>
  <sodipodi:namedview
     id="namedview1"
     pagecolor="#ffffff"
     bordercolor="#000000"
     borderopacity="0.25"
     inkscape:showpageshadow="2"
     inkscape:pageopacity="0.0"
     inkscape:pagecheckerboard="0"
     inkscape:deskcolor="#d1d1d1"
     inkscape:zoom="1.0707932"
     inkscape:cx="153.15749"
     inkscape:cy="264.29006"
     inkscape:window-width="1440"
     inkscape:window-height="831"
     inkscape:window-x="0"
     inkscape:window-y="0"
     inkscape:window-maximized="1"
     inkscape:current-layer="svg1"
     showgrid="false" />
  <path
     id="ellipse1"
     style="fill:#cccccc;fill-opacity:1;stroke:none;stroke-width:0.6;stroke-dasharray:none"
     d="M 23.539818,35.260245 A 117.6,58.8 0 0 0 7.47224,64.893448 a 117.6,58.8 0 0 0 117.6,58.800002 117.6,58.8 0 0 0 107.53242,-35.1668 117.6,58.8 0 0 1 -101.53242,29.1668 117.6,58.8 0 0 1 -117.6,-58.800002 117.6,58.8 0 0 1 10.067578,-23.633203 z" />
  <path
     style="fill:none;fill-opacity:0.12549;stroke:#000000;stroke-width:1.66666667;stroke-dasharray:none"
     id="path1"
     inkscape:path-effect="#path-effect4"
     sodipodi:type="arc"
     sodipodi:cx="200"
     sodipodi:cy="100"
     sodipodi:rx="196"
     sodipodi:ry="98"
     d="m 396.88333,105.84251 c -0.30732,4.77894 -1.5625,9.6729 -3.59167,14.51491 -1.06084,2.53138 -2.32962,5.04022 -3.77612,7.50213 -2.17372,3.6996 -4.74332,7.31971 -7.74947,10.78646 -2.10806,2.43107 -4.44379,4.80177 -7.02948,7.08383 -2.30486,2.03421 -4.79175,4.22943 -7.24167,6.31612 m 13.23577,-13.79861 c -4.83075,5.39717 -10.41028,10.73481 -16.84617,15.23359 -5.46424,3.81959 -12.63229,8.92531 -19.39064,12.93312 0,0 -10e-6,0 -10e-6,0 -1.01502,0.60193 -2.04767,1.18796 -3.0978,1.76133 M 352.05628,161.25 c -4.38163,2.56022 -8.91249,5.15301 -13.35086,7.46476 -2.03886,1.06194 -4.09949,2.0866 -6.17762,3.04999 -6.15087,2.85144 -14.30757,6.27118 -22.62752,9.63154 0,0 0,0 0,0 -1.88245,0.76031 -3.69752,1.40345 -5.47082,1.9562 m 14.68106,-5.67239 c -7.16706,2.68374 -14.20599,5.07542 -21.32151,7.09709 -6.53724,1.85738 -14.30113,3.91824 -21.74893,5.76133 7.3e-4,-1.8e-4 -0.76875,0.18974 -0.76802,0.18956 -6.39468,1.57412 -13.02115,2.71603 -20.11168,4.06382 m 30.00525,-5.20661 c -3.10939,0.80035 -6.31812,1.48489 -9.60239,2.07376 -4.40719,0.79021 -8.92387,1.40342 -13.48699,1.89409 -7.72267,0.83041 -15.38751,2.1227 -23.38265,2.56401 -4.28596,0.23657 -8.42096,0.6652 -12.52075,1.13097 m 22.5633,-2.33696 c -7.39707,1.04419 -15.37031,1.66258 -23.20345,2.0748 -7.7282,0.40669 -15.76988,0.53275 -24.07909,0.1049 0,0 0,0 0,0 -0.53482,-0.0275 -1.06544,-0.0529 -1.59228,-0.0764 -1.90152,-0.085 -3.75357,-0.1462 -5.57541,-0.20115 m 16.22912,0.39772 c -3.53499,0.12455 -7.11689,0.28914 -10.68387,0.51039 -4.06842,0.25236 -8.10823,0.57787 -12.02998,1.00028 0,0 -1e-5,0 -1e-5,0 -7.38469,0.79539 -15.50576,-1.21536 -22.96008,-2.88059 -1.81725,-0.40596 -3.66927,-0.68745 -5.54375,-0.88618 m 13.60593,2.29161 c -7.83747,-0.67939 -15.7379,-1.29644 -23.82581,-2.30697 -8.22129,-1.0272 -15.4366,-2.42955 -22.78397,-4.21302 -0.804,-0.19517 -1.60734,-0.38434 -2.4088,-0.5686 m 14.02537,4.04428 c -4.07357,-0.63874 -8.1619,-1.51124 -12.19991,-2.55791 -3.58864,-0.9302 -7.14284,-1.99933 -10.61895,-3.16745 -7.72931,-2.59737 -15.394721,-3.96308 -22.852995,-6.2416 -5.956362,-1.81969 -11.472077,-3.787 -16.599897,-5.67039 m 25.747922,7.58679 c -7.656001,-2.17922 -14.753431,-4.87631 -21.148971,-7.8771 -5.828392,-2.73468 -12.539799,-5.1723 -18.804079,-7.85685 -1.132731,-0.48543 -2.250161,-0.9775 -3.350011,-1.48041 -5.630436,-2.57451 -10.201491,-5.62733 -14.259706,-8.76765 m 22.809541,14.01542 c -1.998283,-0.9458 -3.969711,-1.91576 -5.913286,-2.91607 -5.196012,-2.67426 -10.125149,-5.53094 -14.758386,-8.65481 0,0 -2e-6,0 -2e-6,0 -7.181715,-4.84213 -13.201365,-9.24549 -18.786831,-14.70044 -2.828777,-2.76268 -5.316542,-5.29531 -7.574973,-7.84969 m 15.534206,15.27665 c -6.396558,-5.06466 -11.869652,-10.69953 -16.388305,-17.01372 -0.129378,-0.18079 -0.257935,-0.36208 -0.385669,-0.54388 0,0 0,0 0,0 C 13.564972,128.95884 10.244692,124.47502 7.9463304,119.05533 7.6815282,118.43091 7.4349542,117.80258 7.2065648,117.16747 5.5577591,112.58241 4.5590407,106.91012 4.5246266,101.29593 m 6.6669494,23.24452 C 10.003202,122.3584 8.9372055,120.14922 8.0125366,117.93549 5.9806987,113.07113 4.649944,108.229 4.1644023,103.61579 4.0436409,102.46841 3.9825515,101.27341 3.9794545,100.04328 3.9640331,93.917711 5.3909828,86.888772 8.0511606,80.432605 c 0,0 4e-7,-10e-7 4e-7,-10e-7 -3.4e-6,8e-6 0.04449,-0.107741 0.044487,-0.107733 1.5014028,-3.628062 3.2618313,-7.086424 5.3285033,-10.413036 M 6.1763746,90.98287 c 0.6583015,-3.115496 1.5902148,-6.171997 2.8078387,-9.18555 1.6669717,-4.125665 3.8680167,-8.167153 6.6431237,-12.192347 1.463366,-2.122561 3.045397,-4.198073 4.754318,-6.223075 3.178422,-3.766303 6.807923,-7.373038 10.982896,-10.823648 1.213842,-1.003239 2.455595,-2.016493 3.716191,-3.027185 m -12.374315,9.148061 c 4.970638,-5.146349 11.144365,-10.652789 18.32727,-16.136148 6.608481,-5.044849 12.378877,-8.189092 19.368838,-12.167366 0.221273,-0.125935 0.444313,-0.250933 0.669088,-0.375018 2.183479,-1.205365 4.522305,-2.319902 6.984911,-3.367038 M 51.868303,35.94231 c 2.83115,-1.534368 5.854353,-3.108275 8.998936,-4.639227 3.917237,-1.907122 8.102996,-3.786909 12.436398,-5.467616 7.249343,-2.811654 14.298436,-5.798382 22.08557,-8.632276 10e-7,-1e-6 2e-6,-1e-6 3e-6,-1e-6 5.58405,-2.032148 11.08725,-3.432156 16.84134,-4.735913 m -27.345385,6.964324 c 7.203289,-2.55238 14.315845,-4.659323 21.517695,-6.276034 5.21837,-1.171449 11.01989,-2.860552 17.05718,-4.6401523 1.95344,-0.5758105 3.93629,-1.1622565 5.88315,-1.72747 7.11179,-2.0647048 13.98005,-2.486717 21.23805,-3.1821324 M 120.34573,10.37836 c 1.7449,-0.369326 3.47675,-0.7160924 5.20066,-1.038002 5.8604,-1.0943252 11.64401,-1.9045219 17.61874,-2.3449502 7.37281,-0.5434887 14.59074,-1.9584997 21.96356,-2.5019884 6.47441,-0.4668814 14.64104,-1.0509379 22.34217,-1.2883014 m -33.24931,0.07854 c 7.46062,-1.1568505 15.39162,-1.5555159 23.27575,-1.9355084 7.3212,-0.35286141 14.94368,-0.43051835 22.91108,-0.073473 0.49393,0.022134 0.98915,0.045938 1.48569,0.071448 3.95975,0.203438 7.50747,0.2518215 10.85462,0.2707976 m -21.27226,1.8645858 c 2.72593,-0.022216 5.42147,-0.034679 8.10627,-0.026553 5.16039,0.01562 10.27838,0.1072915 15.51234,0.3516107 0,0 10e-6,0 10e-6,0 8.01506,0.3741398 15.24528,0.4407314 22.25469,0.4132889 5.0042,-0.019592 10.80553,1.0378089 16.57743,2.2937246 M 228.08723,3.5922073 c 7.60384,0.6775163 15.91805,1.2183136 24.22287,1.9167154 8.43448,0.7093068 15.13583,2.3413131 21.73769,3.7641678 -2e-5,-4.6e-6 0.0909,0.019605 0.0908,0.0196 5.77293,1.2466615 12.69332,2.9742785 19.35221,4.9917355 M 264.41394,8.7986013 c 3.49457,0.6099184 6.98249,1.2752387 10.4394,1.9909837 4.1912,0.867777 8.33433,1.809152 12.39074,2.815977 7.74142,1.921466 15.11774,3.899104 22.06217,5.913901 6.87065,1.993394 13.97962,5.051336 20.22935,7.900685 M 298.47529,15.800777 c 7.46236,2.191369 15.10901,4.800092 22.1957,7.611284 6.19427,2.457178 11.84335,5.280342 17.09467,8.509876 1.20858,0.743272 2.39523,1.507571 3.56124,2.293015 5.71952,3.85276 11.73964,6.656316 17.24134,9.851643 M 332.19532,28.754938 c 1.9549,0.898694 3.87621,1.822457 5.76309,2.770314 5.26619,2.645406 10.26351,5.478114 14.97049,8.474645 0,0 0,2e-6 0,2e-6 7.14554,4.548956 12.97208,8.972229 17.97635,13.755666 3.14094,3.002336 6.27671,6.143612 9.23469,9.437772 2.35215,2.61949 4.53585,5.273988 6.47719,7.957234 M 362.96779,45.611989 c 6.63815,4.937337 11.85191,10.233177 15.6818,15.629904 0.23906,0.336859 0.4826,0.676688 0.72938,1.018717 4.47719,6.205043 9.16298,12.141201 12.64078,19.274553 0.0641,0.131465 0.12759,0.26302 0.19047,0.394666 0,10e-7 0,10e-7 0,10e-7 2.65645,5.561169 3.46885,10.542638 3.37635,15.365761 m -7.89468,-25.391487 c 1.60174,2.719909 2.97577,5.548685 4.09418,8.430399 1.72472,4.443948 2.83814,9.003369 3.26881,13.527895 0.18356,1.928479 0.28376,3.870797 0.29258,5.830542 0.0265,5.90057 -0.77635,11.92472 -2.59182,18.10386 -0.20282,0.69031 -0.42152,1.368 -0.65565,2.03406 -0.1389,0.39513 -0.28321,0.78612 -0.43285,1.1732 m 3.94784,-14.22005 c -0.68755,4.07987 -1.77627,8.40207 -3.35622,12.82848 -1.18278,3.3137 -2.64931,6.70805 -4.43359,10.08198 -1.83907,3.47756 -4.04551,6.51046 -6.62522,9.33785 -2.58056,2.8283 -5.44023,5.35453 -8.68012,8.01799 -3.59506,2.95544 -7.23333,6.10771 -11.06895,9.20395 m 18.23478,-17.6677 c -4.76221,5.40886 -10.68987,10.62108 -17.6747,15.36887 -5.99678,4.07618 -12.82449,8.69368 -20.01566,12.60461 0,0 0,1e-5 0,1e-5 -1.30735,0.711 -2.6196,1.40763 -3.94077,2.09415 -0.42007,0.21828 -0.84089,0.43546 -1.26261,0.6517 m 13.47048,-6.56332 c -4.06985,2.25312 -7.71196,4.38185 -11.86599,6.75919 -2.59919,1.48751 -5.26955,2.99616 -7.93902,4.42675 -6.38305,3.42072 -13.91426,5.63995 -21.5346,7.8786 0,0 0,0 0,0 -3.77016,1.10757 -7.67912,2.34388 -11.98408,3.68067 m 20.1108,-6.87196 c -6.92675,2.70215 -14.09496,4.8688 -21.09574,6.69811 -5.79302,1.51372 -13.12712,3.19674 -20.35252,4.37951 -0.97319,0.1593 -1.94541,0.30969 -2.9123,0.44939 -7.82155,1.13013 -14.94153,2.9793 -23.1257,4.73949 m 33.32219,-6.21656 c -2.74022,0.65664 -5.54732,1.25383 -8.40299,1.79069 -4.75288,0.89353 -9.63015,1.61799 -14.5342,2.16959 -7.62244,0.85737 -15.25869,2.12251 -22.96771,2.66878 -3.5281,0.25001 -7.05019,0.54616 -10.60409,0.83161 m 20.48347,-1.65199 c -7.78162,0.91532 -15.40859,1.68129 -23.2042,2.2255 -7.72887,0.53955 -15.4491,1.00846 -23.08786,1.62031 -0.064,0.005 -0.12801,0.0102 -0.19204,0.0151 -3.65087,0.28169 -7.34356,0.26222 -11.01894,0.14247 m 18.95391,-1.04149 c -3.20571,0.0872 -6.3391,0.1669 -9.38988,0.2438 -4.40659,0.11107 -8.61424,0.21574 -12.73586,0.33145 0,0 0,0 0,0 -6.97797,0.1959 -15.65987,-0.71599 -23.37369,-1.30484 -5.86561,-0.44777 -11.71219,-1.18696 -17.53235,-2.02027 m 27.66511,2.14238 c -8.14151,-0.81965 -15.94257,-1.25019 -24.08408,-2.06984 -8.35856,-0.85102 -15.44016,-2.36992 -22.70117,-3.97263 -0.59341,-0.13098 -1.18676,-0.26314 -1.77993,-0.39667 -5.61932,-1.26498 -11.14719,-2.63701 -16.42955,-4.26097 m 28.42974,7.04813 c -4.03138,-0.66578 -8.08326,-1.42469 -12.09061,-2.24992 -3.63798,-0.74916 -7.24548,-1.55425 -10.77648,-2.3964 -7.75557,-1.84973 -14.856859,-3.95404 -21.287756,-6.19495 -4.470473,-1.55778 -9.494967,-3.35728 -14.543487,-5.33628 m 23.803743,8.00938 c -7.946999,-2.36714 -14.758824,-4.82477 -21.251242,-7.73054 -5.587422,-2.50072 -12.194581,-4.83478 -17.893607,-6.9646 -1.267453,-0.47367 -2.509936,-0.94387 -3.728421,-1.41676 -5.661838,-2.19732 -10.782542,-5.85557 -15.308414,-9.40547 m 23.870829,12.53008 c -1.931806,-0.80922 -3.836283,-1.67918 -5.70924,-2.58872 -5.350381,-2.59822 -10.667972,-5.63264 -15.64573,-8.57449 0,0 -2e-6,0 -2e-6,0 -7.476818,-4.41878 -12.879092,-9.35901 -17.571618,-14.56575 -0.744807,-0.82643 -1.510611,-1.64039 -2.283946,-2.44096 m 9.0546,9.15397 c -6.605593,-5.0763 -11.851655,-10.54754 -16.227756,-16.52464 -0.121276,-0.16565 -0.241887,-0.3317 -0.361841,-0.49814 0,0 0,0 0,0 -4.666366,-6.475 -8.266238,-11.69217 -10.8118796,-17.78488 -0.2937965,-0.70317 -0.5702722,-1.41161 -0.8291027,-2.1271 -1.9869015,-5.49242 -3.0080379,-11.21534 -3.0858876,-16.925505 -0.022842,-1.675401 0.035426,-3.349147 0.1737244,-5.016089 m 7.0877925,32.051254 c -1.5229275,-2.62078 -2.7740892,-5.30502 -3.7480356,-8.02003 -1.6385617,-4.56772 -2.4961168,-9.23172 -2.5466585,-13.86462 -0.01911,-1.75166 -0.036003,-3.48562 -0.023359,-5.248218 0.042361,-5.904845 0.4205233,-11.929358 2.0956545,-17.784814 0,0 3e-7,-10e-7 3e-7,-10e-7 C 6.8787769,80.778992 7.0302483,80.296395 7.1944458,79.814849 9.1211732,74.164281 12.73588,68.809195 17.383466,63.43621 M 4.490602,93.707559 c 0.5699526,-3.988847 1.5759557,-8.000604 2.9864062,-12.04113 1.1883549,-3.404289 2.6555998,-6.806047 4.3750848,-10.219963 1.558768,-3.094826 3.553181,-5.961478 5.881894,-8.736628 2.63078,-3.135125 5.532995,-5.979219 8.654713,-8.976655 1.046158,-1.004507 2.161434,-1.992053 3.342188,-2.961127 m -9.549839,8.22155 C 24.921713,53.439142 30.872354,48.622838 37.84868,44.24646 c 6.138414,-3.850741 12.525032,-8.658405 19.623068,-12.981596 0,0 3e-6,-1e-6 3e-6,-1e-6 1.046422,-0.637344 2.106485,-1.238646 3.180049,-1.809325 3.415751,-1.815724 6.911411,-3.292244 10.506618,-4.644059 M 49.377807,37.125805 c 3.594011,-2.118935 7.544401,-4.39811 11.626905,-6.700701 2.875572,-1.621865 5.856896,-3.277987 8.846441,-4.907387 6.835302,-3.725463 13.993116,-5.610768 21.780603,-7.821521 10e-7,0 2e-6,-1e-6 3e-6,-1e-6 6.000543,-1.703466 12.115851,-3.69423 18.293121,-5.396245 m -28.174634,9.966958 c 7.194764,-2.761451 14.721376,-5.177237 23.089414,-7.598483 7.26766,-2.102862 13.35888,-3.624308 19.81922,-5.1926936 0.12779,-0.031024 1.7747,-0.4299355 1.90249,-0.4609595 1.847,-0.4468938 3.8106,-0.8398056 5.85963,-1.1873312 m -14.98081,3.5864183 c 2.35252,-0.594987 4.75835,-1.135274 7.22094,-1.6356351 5.30922,-1.0787527 10.81522,-1.9588379 16.58418,-2.8075947 8.16686,-1.2015478 15.21309,-2.2068075 22.71609,-2.9961736 2.21341,-0.2328648 4.496,-0.4356783 6.82712,-0.6130214 M 154.3534,5.1917248 c 7.65719,-0.7481732 15.14157,-1.5184352 22.30524,-1.8146496 6.78827,-0.2806916 14.8216,-0.3428432 22.45948,0.2030023 0.37792,0.027008 0.75486,0.055504 1.13062,0.085534 1.33081,0.1063552 2.65481,0.1788414 3.97439,0.226027 m -12.8589,-2.4822812 c 2.85543,-0.080884 5.75254,-0.1283018 8.6899,-0.1499621 5.0539,-0.037268 10.229,0.00173 15.50426,0.077722 0,0 0,0 0,0 8.35701,0.1203917 15.35902,0.6483462 22.48216,1.0463904 4.78574,0.2674293 10.02327,1.1044939 15.20911,2.1840226 m -24.65014,-0.00599 c 7.62036,0.7758588 15.80478,1.2919481 23.88808,2.159213 8.28852,0.8892823 15.64077,1.9248606 23.39247,2.6237745 0.1771,0.015968 0.35374,0.032993 0.52994,0.051045 7.39102,0.7572201 14.2779,3.3789361 20.72512,5.5621231 M 263.5701,7.8662013 c 3.97153,0.7507538 7.90878,1.4422142 11.73556,2.1222575 3.79864,0.6750412 7.50585,1.3418172 11.23701,2.0751242 7.74417,1.522005 15.18579,4.06484 21.98974,6.394034 5.36543,1.836745 10.92951,4.103189 16.34961,6.736378 m -25.3484,-9.773516 c 7.69566,2.479315 14.91613,4.638981 22.17844,7.375236 6.17073,2.324975 11.95794,4.914534 17.29624,7.537716 1.21624,0.597647 2.41456,1.199714 3.59339,1.803533 6.94275,3.556172 13.88134,7.799796 19.8313,11.903074 M 330.89245,28.931304 c 2.18677,1.038513 4.621,2.18509 6.80776,3.223603 4.96398,2.356645 9.49212,4.55168 13.96543,6.931815 0,0 1e-5,2e-6 1e-5,2e-6 6.997,3.722928 13.48731,9.157761 18.86593,13.985201 3.73956,3.35634 7.09546,6.832013 10.09905,10.450012 1.06949,1.288252 2.09392,2.594126 3.07404,3.917862 M 362.74069,45.506858 c 6.8836,5.080047 12.43892,10.348653 17.22187,15.920772 0.29413,0.342668 0.58338,0.686152 0.86779,1.03047 4.95444,5.997982 8.47261,12.290551 10.72504,18.870408 0.046,0.13434 0.0915,0.268806 0.13639,0.403396 0,0 0,10e-7 0,10e-7 2.10359,6.300657 3.26861,11.932765 3.03977,17.521189 m -5.86253,-27.030039 c 1.73379,3.024442 3.17054,5.903931 4.30989,8.722254 1.61636,3.998297 2.61892,7.840529 2.98359,11.63656 0.1738,1.809135 0.25776,3.770083 0.23225,5.825986 -0.069,5.557615 -0.94374,11.863585 -2.99548,17.618905 -0.29,0.81347 -0.59664,1.6205 -0.92041,2.42185 -1.28748,3.18656 -2.84435,6.28017 -4.70623,9.34139 m 8.53803,-21.96323 c -0.63739,4.27997 -1.74241,8.70337 -3.39781,13.07192 -1.10607,2.91889 -2.4641,5.82825 -4.09486,8.63242 -1.89381,3.2565 -4.24605,6.4975 -7.02394,9.67891 -2.46498,2.82304 -5.26168,5.59493 -8.3523,8.27209 -3.12207,2.7044 -6.35137,5.45553 -9.59587,8.01073 m 15.54601,-14.40248 c -4.63257,5.71515 -10.06514,10.6439 -16.01515,15.69644 -5.22475,4.43667 -12.57547,8.24508 -20.39845,11.60536 0,0 0,0 -1e-5,0 -1.49885,0.64382 -2.98555,1.32109 -4.4827,2.02592 -1.04243,0.49077 -2.08231,0.99128 -3.13202,1.50132 m 16.84984,-6.41256 c -4.04948,2.40688 -8.28818,4.67697 -12.82806,6.8249 -2.80354,1.32641 -5.72908,2.60974 -8.81496,3.85793 -7.29197,2.94947 -13.961,5.78668 -20.57351,7.96974 0,0 0,0 0,0 -5.94145,1.9615 -13.79379,4.21726 -21.59076,6.06031 m 29.99771,-9.4798 c -6.9777,2.60467 -14.69894,5.1822 -22.89005,7.45477 -7.55653,2.09652 -14.34584,3.47931 -21.63937,4.33025 -0.24597,0.0287 -0.49255,0.0568 -0.73979,0.0843 -3.18232,0.35408 -6.40227,0.9603 -9.64874,1.65721 m 19.25429,-5.15706 c -2.77209,0.61053 -5.54187,1.23975 -8.35954,1.88407 -4.72201,1.07978 -9.63584,2.21568 -14.49135,3.26932 -7.60923,1.65119 -15.62181,2.02697 -24.2248,2.37477 -3.81823,0.15436 -7.28926,0.43295 -10.63483,0.72526 m 21.76134,-1.04868 c -8.00175,0.69508 -15.26535,1.86659 -23.12344,2.83151 -7.68468,0.94362 -15.21469,0.43653 -22.41306,-0.0988 -4e-5,-1e-5 -0.079,-0.006 -0.0791,-0.006 -2.61378,-0.19142 -5.39035,-0.24867 -8.23963,-0.24879 m 16.17444,1.37292 c -3.2144,0.12901 -6.35883,0.1283 -9.47009,0.0246 -4.59663,-0.15322 -9.11687,-0.53117 -13.67417,-1.04602 0,0 0,0 0,0 -7.69328,-0.86914 -15.31809,-0.54335 -22.48559,-0.80156 -4.96283,-0.17879 -10.55117,-1.05196 -16.17508,-2.12519 m 25.76971,2.92745 c -7.69295,-0.39642 -15.65693,-1.14111 -23.2376,-1.74577 -7.80029,-0.62218 -15.75803,-2.62098 -23.59037,-4.66227 -0.49911,-0.13007 -0.99517,-0.25692 -1.48834,-0.38093 -4.55703,-1.14582 -9.06086,-2.0936 -13.34077,-3.07042 m 24.68546,6.83808 c -3.74921,-0.5157 -7.31971,-1.31664 -10.74101,-2.3058 -3.80828,-1.10104 -7.45368,-2.4419 -10.95858,-3.89228 -6.97222,-2.88522 -15.251743,-3.9867 -22.460902,-6.21918 -6.423874,-1.98929 -13.058342,-4.43028 -19.396729,-6.80414 m 28.988861,9.59374 c -7.798977,-2.06683 -15.385136,-5.05078 -22.811753,-8.23653 -6.280389,-2.69406 -12.286905,-4.92725 -17.454871,-6.98186 -1.270196,-0.50498 -2.526607,-1.01267 -3.78505,-1.53488 -2.026273,-0.84083 -4.014442,-1.88839 -5.950268,-3.06602 m 13.98676,6.21709 c -1.600294,-0.71804 -3.151101,-1.43557 -4.654685,-2.14941 -5.571208,-2.64498 -10.688321,-5.3329 -15.306218,-7.86462 0,0 -2e-6,0 -2e-6,0 -6.511681,-3.56996 -13.340326,-9.47279 -18.617931,-14.54335 -1.143416,-1.09855 -2.231952,-2.19599 -3.269523,-3.29857 m 10.817878,9.3325 c -6.177035,-4.63481 -11.237477,-9.53797 -15.448256,-14.29234 -0.390251,-0.44063 -0.774436,-0.88141 -1.152646,-1.32204 -4.329783,-5.04434 -7.786381,-11.00936 -10.185999,-16.67483 -0.4674829,-1.10372 -0.8979151,-2.20253 -1.2909067,-3.29091 -1.8156301,-5.02832 -2.4851924,-10.45982 -2.1787433,-15.9142 0.027401,-0.48771 0.062608,-0.975916 0.1055125,-1.464401 M 10.997993,124.50256 C 9.9278209,122.51644 8.9955584,120.52485 8.1943949,118.52552 6.027018,113.11676 4.8149625,107.64137 4.4427198,102.06918 4.3792244,101.1187 4.3479747,100.17406 4.3485296,99.235008 4.3523396,92.787832 5.8535862,86.608654 8.721912,80.601332 8.8520499,80.328776 8.9849903,80.056586 9.1207222,79.78474 9.7331927,78.558075 10.379942,77.298137 11.063863,76.016101 M 3.8999947,88.69389 C 4.5535563,85.892482 5.444038,83.156374 6.5832123,80.499089 8.382116,76.302892 10.80753,72.288484 13.915737,68.524702 c 1.391309,-1.68476 2.842438,-3.480249 4.372066,-5.346285 3.249704,-3.964402 7.129,-8.593138 11.405944,-12.645402 1.793902,-1.699664 3.67851,-3.237472 5.667658,-4.653778 M 24.57279,57.973249 C 29.655701,52.731072 35.787803,47.849748 43.016361,43.413226 49.398977,39.4959 55.318762,35.198222 61.588234,31.192298 c -2.74e-4,1.75e-4 0.149634,-0.0955 0.14936,-0.09532 0.915848,-0.583812 1.88662,-1.140633 2.905335,-1.674571 m -11.31732,6.35288 c 2.689764,-1.423116 5.646577,-2.999883 8.388855,-4.434512 3.885757,-2.032842 7.928684,-4.091463 12.027621,-5.977253 6.739541,-3.100647 14.472974,-5.8755 23.161231,-9.141917 0,0 3e-6,-1e-6 3e-6,-1e-6 3.118111,-1.172278 6.041681,-2.018993 8.913331,-2.660225 m -18.801839,5.764159 c 7.201464,-2.519517 14.338449,-4.916307 21.452349,-7.195127 4.75257,-1.522409 9.99398,-2.6806645 15.31681,-3.7587409 2.03386,-0.4119344 4.90567,-0.9728855 6.93953,-1.38482 2.26204,-0.4558814 4.64611,-0.8591212 7.12529,-1.2145601 m -15.72216,2.845551 c 0.70642,-0.1482041 1.414,-0.2947378 2.12286,-0.4395594 6.89391,-1.4084305 13.92671,-2.6585205 21.27232,-3.7166448 7.91188,-1.1396963 15.35388,-1.7877447 23.17978,-2.0644214 7.12035,-0.2517326 14.00631,-0.698313 20.446,-0.5118749 m -30.74333,2.7172388 c 7.74986,-0.7889294 15.51757,-1.4601261 23.46028,-1.8471824 6.34689,-0.3092899 12.55111,-0.5669204 18.77929,-0.7882913 1.50814,-0.053604 3.01881,-0.1051222 4.53423,-0.1547561 4.00856,-0.1312903 7.93903,-0.056468 11.77742,0.082628 m -22.43779,0.8744842 c 1.58473,0.025363 3.19377,0.034827 4.82289,0.034268 6.19701,-0.00213 12.67964,-0.1491033 19.17493,-0.1166466 0,0 0,0 0,10e-8 8.24916,0.041221 15.40381,1.0499973 22.65312,2.0099973 1.4352,0.1900579 2.90381,0.3898501 4.39854,0.6025368 M 232.1591,2.8616718 c 7.89661,0.8119022 15.31602,1.5754222 22.56124,2.782475 6.64766,1.1075019 12.73911,1.9865211 19.38677,3.0940229 1.0808,0.1812152 2.14953,0.3646663 3.20375,0.5512726 0,0 0,2e-7 0,2e-7 3.37928,0.5981637 6.832,1.4450735 10.25925,2.4272395 M 270.36277,8.2870128 c 1.97898,0.3688155 3.91781,0.7650374 5.81788,1.1876316 5.60932,1.2475636 10.88061,2.7249086 15.84639,4.4043706 6.83479,2.311568 15.59047,3.884735 22.96873,5.454127 5.77642,1.228674 10.84693,3.826018 15.48122,6.451592 m -25.78912,-8.081025 c 7.716,2.396392 14.89036,4.918279 21.57805,7.492266 4.03153,1.551673 7.97282,3.373325 11.61613,5.217617 2.89538,1.465677 5.65661,2.973197 8.18124,4.411923 5.01156,2.855961 10.86344,6.54074 16.18056,10.277366 M 337.80421,30.037899 c 0.001,7.34e-4 0.249,0.134254 0.25036,0.134988 7.26913,3.916734 13.72077,7.207135 20.08207,11.257744 0,0 0,1e-6 0,1e-6 6.90697,4.398065 12.73211,9.984032 17.46395,15.495133 0.45851,0.534013 1.61557,1.875356 2.07408,2.409369 m -9.13303,-9.027004 c 4.6408,3.754251 8.60364,7.902315 12.0079,12.15363 1.41148,1.762694 2.7395,3.559064 3.98811,5.37128 3.11436,4.520134 5.36882,8.821915 6.89365,13.1594 0.8793,2.501212 1.51385,5.010536 1.91901,7.554604 0.15534,0.975426 0.30583,1.958813 0.4477,2.954909 m -1.16076,-11.910425 c 0.1987,0.476719 0.38987,0.955509 0.57338,1.43622 2.38079,6.236734 3.46317,12.773247 3.00728,19.308792 -0.0508,0.7286 -0.12077,1.45723 -0.21019,2.1854 -0.71059,5.78643 -1.61637,11.23 -3.39435,16.27887 -0.5711,1.62174 -1.23562,3.21161 -2.019,4.76247 -0.55922,1.10711 -1.19914,2.27111 -1.91209,3.48014 M 25.071787,144.32343 19.589249,138.43861 M 286.49403,12.036837 l 6.94769,1.794819"
     transform="matrix(0.6,0,0,0.6,5.07224,4.8934483)" />
  <g
     id="g7"
     transform="matrix(0.6,0,0,0.6,5.07224,14.893465)">
    <text
       xml:space="preserve"
       style="font-weight:bold;font-size:66.6667px;font-family:Sans;-inkscape-font-specification:'Sans, Bold';text-align:center;text-anchor:middle;fill:#808080;fill-opacity:0.12549;stroke:none;stroke-width:1;stroke-dasharray:none"
       x="200.57999"
       y="72.133308"
       id="text4"><tspan
         sodipodi:role="line"
         x="200.57999"
         y="72.133308"
         style="font-style:normal;font-variant:normal;font-weight:normal;font-stretch:normal;font-size:40px;font-family:Quicksand;-inkscape-font-specification:'Quicksand, Normal';font-variant-ligatures:normal;font-variant-caps:normal;font-variant-numeric:normal;font-variant-east-asian:normal;fill:#000000;fill-opacity:1"
         id="tspan6">Anleitung</tspan></text>
    <text
       xml:space="preserve"
       style="font-weight:bold;font-size:66.6667px;font-family:Sans;-inkscape-font-specification:'Sans, Bold';text-align:center;text-anchor:middle;fill:#808080;fill-opacity:0.12549;stroke:none;stroke-width:1;stroke-dasharray:none"
       x="200.57999"
       y="122.1333"
       id="text7"><tspan
         sodipodi:role="line"
         x="200.57999"
         y="122.1333"
         style="font-style:normal;font-variant:normal;font-weight:normal;font-stretch:normal;font-size:40px;font-family:Quicksand;-inkscape-font-specification:'Quicksand, Normal';font-variant-ligatures:normal;font-variant-caps:normal;font-variant-numeric:normal;font-variant-east-asian:normal;fill:#000000;fill-opacity:1"
         id="tspan7">anzeigen</tspan></text>
  </g>
</svg>
