<?xml version="1.0" encoding="UTF-8" standalone="no"?>
<svg
   height="130"
   width="250"
   version="1.1"
   id="svg1"
   sodipodi:docname="usecase-14.svg"
   inkscape:version="1.3.2 (091e20ef0f, 2023-11-25, custom)"
   xmlns:inkscape="http://www.inkscape.org/namespaces/inkscape"
   xmlns:sodipodi="http://sodipodi.sourceforge.net/DTD/sodipodi-0.dtd"
   xmlns="http://www.w3.org/2000/svg"
   xmlns:svg="http://www.w3.org/2000/svg">
  <defs
     id="defs1">
    <inkscape:path-effect
       effect="sketch"
       id="path-effect4"
       is_visible="true"
       lpeversion="1"
       nbiter_approxstrokes="3"
       parallel_offset="1;2541190249"
       strokelength="70"
       strokelength_rdm="0.3;1"
       strokeoverlap="0.5"
       strokeoverlap_rdm="0.5;1"
       ends_tolerance="0.1;1"
       tremble_size="0.8;1"
       tremble_frequency="3"
       nbtangents="2"
       tgt_places_rdmness="0.5;1"
       tgtlength="5"
       tgtlength_rdm="0.3;1"
       tgtscale="10" />
    <inkscape:path-effect
       effect="sketch"
       id="path-effect3"
       is_visible="true"
       lpeversion="1"
       nbiter_approxstrokes="3"
       parallel_offset="2;1"
       strokelength="70"
       strokelength_rdm="0.3;1"
       strokeoverlap="0.5"
       strokeoverlap_rdm="0.5;1"
       ends_tolerance="0.1;1"
       tremble_size="0.8;1"
       tremble_frequency="3"
       nbtangents="2"
       tgt_places_rdmness="0.5;1"
       tgtlength="5"
       tgtlength_rdm="0.3;1"
       tgtscale="10" />
    <inkscape:path-effect
       effect="sketch"
       id="path-effect2"
       is_visible="true"
       lpeversion="1"
       nbiter_approxstrokes="3"
       parallel_offset="2;1"
       strokelength="70"
       strokelength_rdm="0.3;1"
       strokeoverlap="0.5"
       strokeoverlap_rdm="0.5;1"
       ends_tolerance="0.1;1"
       tremble_size="0.8;1"
       tremble_frequency="3"
       nbtangents="2"
       tgt_places_rdmness="0.5;1"
       tgtlength="5"
       tgtlength_rdm="0.3;1"
       tgtscale="10" />
    <inkscape:path-effect
       effect="sketch"
       id="path-effect6"
       is_visible="true"
       lpeversion="1"
       nbiter_approxstrokes="3"
       parallel_offset="0.2;1"
       strokelength="70"
       strokelength_rdm="0.3;1"
       strokeoverlap="0.5"
       strokeoverlap_rdm="0.5;1"
       ends_tolerance="0.1;1"
       tremble_size="0.8;1"
       tremble_frequency="3"
       nbtangents="2"
       tgt_places_rdmness="0.5;1"
       tgtlength="5"
       tgtlength_rdm="0.3;1"
       tgtscale="10" />
    <inkscape:path-effect
       effect="sketch"
       id="path-effect5"
       is_visible="true"
       lpeversion="1"
       nbiter_approxstrokes="3"
       parallel_offset="0.2;1"
       strokelength="70"
       strokelength_rdm="0.3;1"
       strokeoverlap="0.5"
       strokeoverlap_rdm="0.5;1"
       ends_tolerance="0.1;1"
       tremble_size="0.8;1"
       tremble_frequency="3"
       nbtangents="2"
       tgt_places_rdmness="0.5;1"
       tgtlength="5"
       tgtlength_rdm="0.3;1"
       tgtscale="10" />
    <inkscape:path-effect
       effect="sketch"
       id="path-effect1"
       is_visible="true"
       lpeversion="1"
       nbiter_approxstrokes="3"
       parallel_offset="0.2;1"
       strokelength="70"
       strokelength_rdm="0.3;1"
       strokeoverlap="0.5"
       strokeoverlap_rdm="0.5;1"
       ends_tolerance="0.1;1"
       tremble_size="0.8;1"
       tremble_frequency="3"
       nbtangents="2"
       tgt_places_rdmness="0.5;1"
       tgtlength="5"
       tgtlength_rdm="0.3;1"
       tgtscale="10" />
  </defs>
  <sodipodi:namedview
     id="namedview1"
     pagecolor="#ffffff"
     bordercolor="#000000"
     borderopacity="0.25"
     inkscape:showpageshadow="2"
     inkscape:pageopacity="0.0"
     inkscape:pagecheckerboard="0"
     inkscape:deskcolor="#d1d1d1"
     inkscape:zoom="4.2831728"
     inkscape:cx="83.816371"
     inkscape:cy="70.275007"
     inkscape:window-width="1440"
     inkscape:window-height="831"
     inkscape:window-x="0"
     inkscape:window-y="0"
     inkscape:window-maximized="1"
     inkscape:current-layer="svg1"
     showgrid="false" />
  <path
     id="ellipse1"
     style="fill:#cccccc;fill-opacity:1;stroke:none;stroke-width:0.6;stroke-dasharray:none"
     d="M 23.539818,35.260245 A 117.6,58.8 0 0 0 7.47224,64.893448 a 117.6,58.8 0 0 0 117.6,58.800002 117.6,58.8 0 0 0 107.53242,-35.1668 117.6,58.8 0 0 1 -101.53242,29.1668 117.6,58.8 0 0 1 -117.6,-58.800002 117.6,58.8 0 0 1 10.067578,-23.633203 z" />
  <path
     style="fill:none;fill-opacity:0.12549;stroke:#000000;stroke-width:1.66666667;stroke-dasharray:none"
     id="path1"
     inkscape:path-effect="#path-effect4"
     sodipodi:type="arc"
     sodipodi:cx="200"
     sodipodi:cy="100"
     sodipodi:rx="196"
     sodipodi:ry="98"
     d="m 396.89895,104.75657 c -0.30732,4.77894 -1.5625,9.6729 -3.59166,14.51491 -1.06084,2.53139 -2.32962,5.04023 -3.77613,7.50213 -2.17371,3.6996 -4.74332,7.31972 -7.74946,10.78647 -2.10807,2.43106 -4.4438,4.80176 -7.02948,7.08382 -2.30487,2.03421 -4.79175,4.22943 -7.24168,6.31612 m 13.32952,-12.18924 c -4.83074,5.39717 -10.41027,10.73482 -16.84616,15.2336 -5.46425,3.81958 -12.63229,8.92531 -19.39065,12.93312 0,0 0,0 0,0 -1.01503,0.60193 -2.04767,1.18796 -3.09781,1.76133 m 10.76178,-7.22227 c -4.38163,2.56023 -8.91249,5.15302 -13.35086,7.46476 -2.03886,1.06195 -4.09949,2.08661 -6.17762,3.04999 -6.15087,2.85144 -14.30758,6.27118 -22.62752,9.63154 0,0 0,1e-5 0,1e-5 -1.88245,0.7603 -3.69752,1.40345 -5.47082,1.95619 m 13.48574,-6.15676 c -7.16706,2.68374 -14.20599,5.07542 -21.3215,7.09709 -6.53724,1.85737 -14.30113,3.91824 -21.74893,5.76132 7.3e-4,-1.8e-4 -0.76875,0.18975 -0.76802,0.18957 -6.39469,1.57411 -13.02116,2.71603 -20.11169,4.06382 m 31.94276,-5.1988 c -3.1094,0.80035 -6.31813,1.48489 -9.6024,2.07376 -4.40718,0.79021 -8.92386,1.40342 -13.48698,1.89409 -7.72268,0.83041 -15.38752,2.1227 -23.38266,2.56401 -4.28596,0.23657 -8.42096,0.6652 -12.52074,1.13097 m 20.93829,-1.14164 c -7.39706,1.04418 -15.3703,1.66258 -23.20344,2.07479 -7.7282,0.40669 -15.76988,0.53276 -24.0791,0.1049 0,0 0,0 0,0 -0.53481,-0.0275 -1.06543,-0.0529 -1.59228,-0.0764 -1.90152,-0.0849 -3.75356,-0.1462 -5.5754,-0.20114 m 17.17443,-1.38353 c -3.53499,0.12454 -7.11689,0.28913 -10.68387,0.51038 -4.06843,0.25236 -8.10823,0.57787 -12.02999,1.00028 0,0 0,0 0,0 -7.38469,0.7954 -15.50577,-1.21535 -22.96008,-2.88059 -1.81725,-0.40596 -3.66927,-0.68745 -5.54375,-0.88618 m 13.43406,4.21349 c -7.83748,-0.67939 -15.7379,-1.29644 -23.82582,-2.30698 -8.22128,-1.02719 -15.4366,-2.42955 -22.78396,-4.21302 -0.80401,-0.19516 -1.60735,-0.38433 -2.4088,-0.56859 m 14.10348,2.66147 c -4.07356,-0.63875 -8.16189,-1.51124 -12.1999,-2.55792 -3.58864,-0.93019 -7.14284,-1.99933 -10.61895,-3.16744 -7.72932,-2.59738 -15.394724,-3.96308 -22.852997,-6.24161 -5.956363,-1.81968 -11.472078,-3.78699 -16.599897,-5.67038 m 25.076044,8.13366 c -7.655999,-2.17922 -14.753428,-4.87631 -21.148969,-7.8771 -5.828391,-2.73468 -12.539798,-5.1723 -18.804078,-7.85685 -1.132731,-0.48543 -2.250161,-0.9775 -3.350011,-1.48041 -5.630437,-2.57451 -10.201491,-5.62733 -14.259706,-8.76765 m 23.30954,13.77323 c -1.998282,-0.9458 -3.969711,-1.91576 -5.913286,-2.91607 -5.196012,-2.67426 -10.125148,-5.53094 -14.758385,-8.65481 0,0 -3e-6,0 -3e-6,0 -7.181714,-4.84213 -13.201364,-9.24548 -18.786831,-14.70044 -2.828777,-2.76268 -5.316542,-5.29531 -7.574973,-7.84969 m 14.510769,15.20634 c -6.396558,-5.06466 -11.869652,-10.69953 -16.388305,-17.01372 -0.129378,-0.18079 -0.257935,-0.36208 -0.385669,-0.54388 0,0 0,0 0,0 C 12.549347,128.89634 9.2290669,124.41252 6.9307054,118.99283 6.6659032,118.36841 6.4193292,117.74008 6.1909398,117.10497 4.5421341,112.51991 3.5434157,106.84762 3.5090016,101.23343 m 6.9560114,23.6742 C 9.276639,122.72559 8.210643,120.51641 7.2859741,118.30268 5.2541362,113.43831 3.9233815,108.59618 3.4378398,103.98297 3.3170784,102.8356 3.255989,101.6406 3.252892,100.41046 3.2374706,94.284898 4.6644203,87.25596 7.3245981,80.799793 c 0,0 4e-7,-10e-7 4e-7,-10e-7 -3.4e-6,8e-6 0.04449,-0.107742 0.044487,-0.107734 C 8.870488,77.063996 10.630917,73.605635 12.697588,70.279023 M 4.7623121,90.881307 c 0.6583015,-3.115495 1.5902148,-6.171996 2.8078387,-9.18555 1.6669715,-4.125664 3.8680162,-8.167153 6.6431232,-12.192347 1.463366,-2.122561 3.045397,-4.198072 4.754318,-6.223075 3.178422,-3.766302 6.807923,-7.373038 10.982897,-10.823648 1.213841,-1.003239 2.455594,-2.016492 3.71619,-3.027184 m -11.116502,9.726185 c 4.970638,-5.146348 11.144365,-10.652789 18.32727,-16.136147 6.608481,-5.04485 12.378877,-8.189093 19.368838,-12.167366 0.221273,-0.125935 0.444313,-0.250934 0.669088,-0.375019 2.183479,-1.205364 4.522305,-2.319902 6.984911,-3.367037 m -15.930419,8.472816 c 2.83115,-1.534368 5.854354,-3.108275 8.998936,-4.639227 3.917237,-1.907122 8.102997,-3.786909 12.436398,-5.467616 7.249344,-2.811654 14.298437,-5.798382 22.08557,-8.632276 10e-7,-1e-6 2e-6,-1e-6 3e-6,-1e-6 5.584048,-2.032148 11.087258,-3.432156 16.841338,-4.735913 m -25.720383,8.198699 c 7.203289,-2.55238 14.315843,-4.659323 21.517693,-6.276034 5.21837,-1.171449 11.01989,-2.860552 17.05718,-4.6401523 1.95344,-0.5758105 3.93629,-1.1622565 5.88315,-1.72747 7.1118,-2.0647048 13.98005,-2.486717 21.23805,-3.1821324 m -32.74332,6.0147357 c 1.7449,-0.369326 3.47675,-0.7160929 5.20066,-1.0380025 5.8604,-1.0943252 11.64401,-1.9045219 17.61874,-2.3449502 7.37281,-0.5434887 14.59074,-1.9584997 21.96356,-2.5019884 6.47441,-0.4668814 14.64104,-1.0509379 22.34217,-1.2883014 M 154.9403,3.2055329 c 7.46062,-1.1568505 15.39162,-1.5555159 23.27575,-1.9355084 7.3212,-0.35286141 14.94368,-0.43051835 22.91108,-0.073473 0.49393,0.022134 0.98915,0.045938 1.48569,0.071448 3.95975,0.203438 7.50747,0.2518215 10.85462,0.2707976 m -20.65507,0.7630233 c 2.72592,-0.022216 5.42147,-0.034679 8.10627,-0.026553 5.16038,0.01562 10.27838,0.1072915 15.51234,0.3516107 0,0 0,0 0,0 8.01507,0.3741398 15.24528,0.4407314 22.2547,0.4132889 5.0042,-0.019592 10.80553,1.0378089 16.57743,2.2937246 M 228.39973,3.6547073 c 7.60384,0.6775163 15.91805,1.2183136 24.22287,1.9167154 8.43448,0.7093068 15.13583,2.3413131 21.73769,3.7641678 -2e-5,-4.6e-6 0.0909,0.019605 0.0908,0.0196 5.77293,1.2466615 12.69332,2.9742785 19.35221,4.9917355 M 265.12488,7.9236013 c 3.49457,0.6099184 6.98249,1.2752383 10.4394,1.9909833 4.1912,0.8677774 8.33433,1.8091524 12.39074,2.8159774 7.74141,1.921466 15.11774,3.899104 22.06217,5.913901 6.87065,1.993394 13.97962,5.051336 20.22935,7.900685 M 299.58466,14.496089 c 7.46237,2.191369 15.10901,4.800092 22.19571,7.611285 6.19426,2.457178 11.84334,5.280342 17.09466,8.509876 1.20859,0.743272 2.39524,1.507571 3.56125,2.293014 5.71951,3.852761 11.73963,6.656317 17.24133,9.851644 m -25.73229,-15.10072 c 1.9549,0.898694 3.87621,1.822457 5.76309,2.770314 5.26619,2.645406 10.26351,5.478114 14.97049,8.474645 0,0 0,2e-6 0,2e-6 7.14554,4.548956 12.97208,8.972229 17.97635,13.755666 3.14094,3.002336 6.27671,6.143612 9.23469,9.437772 2.35215,2.61949 4.53585,5.273988 6.47719,7.957234 M 364.28029,45.541677 c 6.63815,4.937337 11.85191,10.233176 15.6818,15.629904 0.23906,0.336858 0.4826,0.676687 0.72938,1.018716 4.47719,6.205043 9.16298,12.141201 12.64078,19.274553 0.0641,0.131465 0.12759,0.263021 0.19047,0.394667 0,0 0,0 0,10e-7 2.65645,5.561169 3.46885,10.542638 3.37635,15.36576 m -8.33218,-25.852424 c 1.60174,2.719909 2.97577,5.548685 4.09418,8.430399 1.72472,4.443948 2.83814,9.003369 3.26881,13.527895 0.18356,1.928479 0.28376,3.870797 0.29258,5.830542 0.0265,5.90057 -0.77635,11.92472 -2.59182,18.10386 -0.20282,0.69031 -0.42152,1.368 -0.65565,2.03406 -0.1389,0.39513 -0.28321,0.78612 -0.43285,1.1732 m 2.30721,-13.65755 c -0.68754,4.07987 -1.77626,8.40207 -3.35621,12.82848 -1.18278,3.3137 -2.64931,6.70805 -4.43359,10.08198 -1.83908,3.47756 -4.04551,6.51046 -6.62523,9.33785 -2.58055,2.8283 -5.44022,5.35453 -8.68012,8.01799 -3.59506,2.95544 -7.23333,6.10771 -11.06894,9.20395 m 19.16447,-17.02708 c -4.76222,5.40886 -10.68988,10.62109 -17.6747,15.36887 -5.99679,4.07618 -12.82449,8.69368 -20.01566,12.60462 0,0 -1e-5,0 -1e-5,0 -1.30735,0.71101 -2.61959,1.40763 -3.94077,2.09416 -0.42007,0.21828 -0.84089,0.43546 -1.26261,0.65169 m 13.30642,-7.25081 c -4.06985,2.25311 -7.71196,4.38185 -11.86599,6.75919 -2.59919,1.4875 -5.26955,2.99615 -7.93902,4.42674 -6.38305,3.42073 -13.91426,5.63995 -21.5346,7.8786 0,0 0,0 0,0 -3.77016,1.10757 -7.67912,2.34389 -11.98408,3.68067 m 18.70455,-5.23914 c -6.92675,2.70215 -14.09496,4.8688 -21.09574,6.6981 -5.79302,1.51372 -13.12712,3.19675 -20.35252,4.37952 -0.97319,0.1593 -1.94541,0.30969 -2.9123,0.44939 -7.82155,1.13013 -14.94153,2.9793 -23.1257,4.73949 m 35.82219,-8.25563 c -2.74022,0.65664 -5.54732,1.25383 -8.40299,1.79069 -4.75288,0.89353 -9.63015,1.61799 -14.5342,2.1696 -7.62244,0.85737 -15.25869,2.12251 -22.96771,2.66878 -3.5281,0.25 -7.05019,0.54615 -10.60409,0.8316 m 18.47566,-1.98011 c -7.78162,0.91532 -15.4086,1.68129 -23.2042,2.2255 -7.72888,0.53955 -15.4491,1.00846 -23.08786,1.62031 -0.064,0.005 -0.12801,0.0102 -0.19204,0.0151 -3.65088,0.28169 -7.34357,0.26222 -11.01894,0.14247 m 20.70391,-1.08055 c -3.20571,0.0872 -6.3391,0.1669 -9.38988,0.24379 -4.40659,0.11108 -8.61425,0.21575 -12.73586,0.33146 0,0 0,0 0,0 -6.97797,0.19589 -15.65987,-0.71599 -23.37369,-1.30485 -5.86561,-0.44776 -11.7122,-1.18695 -17.53236,-2.02026 m 27.61825,3.83769 c -8.14152,-0.81965 -15.94257,-1.25019 -24.08409,-2.06984 -8.35855,-0.85102 -15.44016,-2.36992 -22.70117,-3.97263 -0.59341,-0.13098 -1.18676,-0.26314 -1.77992,-0.39667 -5.61933,-1.26498 -11.1472,-2.63701 -16.42955,-4.26097 m 27.70317,6.17313 c -4.03138,-0.66578 -8.08326,-1.42469 -12.09061,-2.24992 -3.63798,-0.74916 -7.24548,-1.55425 -10.77648,-2.3964 -7.75557,-1.84973 -14.856859,-3.95404 -21.287756,-6.19495 -4.470473,-1.55778 -9.494967,-3.35728 -14.543487,-5.33628 m 23.506873,7.36875 c -7.947004,-2.36713 -14.758829,-4.82476 -21.251247,-7.73053 -5.587422,-2.50073 -12.194581,-4.83479 -17.893607,-6.96461 -1.267453,-0.47367 -2.509936,-0.94387 -3.728421,-1.41675 -5.661838,-2.19732 -10.782542,-5.85557 -15.308414,-9.40547 m 24.925517,13.38945 c -1.931806,-0.80922 -3.836283,-1.67918 -5.709241,-2.58872 -5.350381,-2.59822 -10.667972,-5.63264 -15.64573,-8.57449 0,0 -10e-7,0 -10e-7,0 -7.476818,-4.41878 -12.879093,-9.35901 -17.571618,-14.56575 -0.744808,-0.82643 -1.510611,-1.64039 -2.283946,-2.44096 m 9.328037,9.63835 C 29.505906,148.66354 24.259844,143.1923 19.883743,137.2152 c -0.121276,-0.16564 -0.241887,-0.33169 -0.361841,-0.49814 0,0 0,0 0,0 -4.666366,-6.475 -8.266238,-11.69217 -10.8118796,-17.78488 -0.2937965,-0.70317 -0.5702722,-1.4116 -0.8291027,-2.12709 -1.9869015,-5.49242 -3.0080379,-11.21535 -3.0858876,-16.92551 -0.022842,-1.675401 0.035425,-3.349147 0.1737244,-5.016089 m 5.2362305,31.941879 c -1.522928,-2.62078 -2.7740897,-5.30502 -3.7480361,-8.02003 -1.6385617,-4.56772 -2.4961168,-9.23172 -2.5466585,-13.86462 -0.019109,-1.75166 -0.036003,-3.48562 -0.023359,-5.248218 0.042361,-5.904845 0.4205233,-11.929358 2.0956545,-17.784814 0,0 3e-7,-10e-7 3e-7,-10e-7 C 6.1209644,81.403992 6.2724358,80.921395 6.4366333,80.439849 8.3633607,74.789281 11.978067,69.434195 16.625653,64.06121 M 4.443727,93.738809 c 0.5699526,-3.988847 1.5759557,-8.000604 2.9864062,-12.04113 1.1883549,-3.404289 2.6555998,-6.806047 4.3750848,-10.219963 1.558768,-3.094826 3.553181,-5.961478 5.881894,-8.736628 2.63078,-3.135125 5.532995,-5.979219 8.654713,-8.976655 1.046158,-1.004507 2.161434,-1.992053 3.342188,-2.961127 m -8.760776,9.651237 C 25.6639,54.900079 31.614542,50.083776 38.590868,45.707397 c 6.138413,-3.85074 12.525031,-8.658404 19.623068,-12.981595 0,-1e-6 2e-6,-2e-6 2e-6,-2e-6 1.046423,-0.637343 2.106485,-1.238646 3.180049,-1.809324 3.415752,-1.815725 6.911412,-3.292245 10.506619,-4.64406 M 49.010619,38.532055 c 3.594012,-2.118935 7.544402,-4.39811 11.626905,-6.700701 2.875573,-1.621865 5.856897,-3.277987 8.846441,-4.907387 6.835303,-3.725463 13.993117,-5.610768 21.780604,-7.821521 1e-6,0 2e-6,-1e-6 2e-6,-1e-6 6.000543,-1.703466 12.115849,-3.69423 18.293119,-5.396245 m -26.690257,8.654458 c 7.194765,-2.761451 14.721377,-5.177237 23.089407,-7.598483 7.26767,-2.102862 13.35889,-3.624308 19.81923,-5.1926936 0.12779,-0.031024 1.7747,-0.4299355 1.90249,-0.4609595 1.847,-0.4468938 3.8106,-0.8398056 5.85963,-1.1873312 m -16.15268,3.8051683 c 2.35252,-0.594987 4.75835,-1.135274 7.22094,-1.635635 5.30921,-1.0787528 10.81522,-1.958838 16.58417,-2.8075948 8.16687,-1.2015478 15.21309,-2.2068075 22.7161,-2.9961736 2.2134,-0.2328648 4.496,-0.4356783 6.82711,-0.6130214 M 155.34558,3.2620373 c 7.65719,-0.7481732 15.14157,-1.5184352 22.30525,-1.8146496 6.78827,-0.2806916 14.8216,-0.3428432 22.45948,0.2030023 0.37792,0.027008 0.75485,0.055503 1.13062,0.085534 1.3308,0.1063552 2.65481,0.1788414 3.97439,0.226027 m -14.25734,0.7677188 c 2.85543,-0.080884 5.75254,-0.1283018 8.6899,-0.1499621 5.0539,-0.037268 10.229,0.00173 15.50426,0.077722 0,0 0,0 0,0 8.35701,0.1203917 15.35902,0.6483462 22.48216,1.0463904 4.78574,0.2674293 10.02327,1.1044939 15.20911,2.1840226 M 227.55264,3.0771694 c 7.62037,0.7758588 15.80479,1.2919481 23.88809,2.159213 8.28851,0.8892823 15.64077,1.9248606 23.39247,2.6237745 0.17709,0.015968 0.35374,0.032993 0.52994,0.051045 7.39102,0.7572202 14.27789,3.3789361 20.72511,5.5621231 M 264.54666,6.9052638 c 3.97153,0.7507538 7.90878,1.4422142 11.73556,2.1222575 3.79864,0.6750417 7.50585,1.3418167 11.23702,2.0751237 7.74416,1.522006 15.18578,4.064841 21.98973,6.394035 5.36543,1.836744 10.92951,4.103189 16.34961,6.736377 m -26.30933,-9.015703 c 7.69566,2.479315 14.91612,4.638981 22.17844,7.375236 6.17073,2.324975 11.95793,4.914534 17.29624,7.537716 1.21624,0.597647 2.41455,1.199714 3.59339,1.803533 6.94274,3.556172 13.88133,7.799796 19.8313,11.903074 m -30.3921,-15.132172 c 2.18676,1.038514 4.62099,2.18509 6.80776,3.223604 4.96397,2.356644 9.49211,4.551679 13.96543,6.931814 0,0 0,2e-6 0,2e-6 6.997,3.722928 13.48731,9.157762 18.86593,13.985202 3.73956,3.35634 7.09546,6.832012 10.09906,10.450012 1.06948,1.288252 2.09391,2.594126 3.07403,3.917862 M 363.60788,45.944358 c 6.88359,5.080047 12.43892,10.348653 17.22186,15.920772 0.29414,0.342668 0.58339,0.686152 0.8678,1.03047 4.95444,5.997982 8.47261,12.290551 10.72504,18.870408 0.046,0.13434 0.0915,0.268806 0.13638,0.403396 0,0 0,10e-7 0,10e-7 2.1036,6.300657 3.26862,11.932765 3.03978,17.521189 m -8.26097,-26.998789 c 1.73379,3.024442 3.17054,5.903931 4.30989,8.722254 1.61636,3.998297 2.61892,7.840529 2.98359,11.63656 0.1738,1.809135 0.25776,3.770083 0.23225,5.825986 -0.069,5.557615 -0.94374,11.863585 -2.99548,17.618905 -0.29,0.81347 -0.59664,1.6205 -0.92041,2.42185 -1.28748,3.18656 -2.84435,6.28017 -4.70623,9.34139 m 9.27241,-20.99448 c -0.6374,4.27997 -1.74241,8.70337 -3.39781,13.07192 -1.10607,2.91889 -2.46411,5.82825 -4.09486,8.63242 -1.89382,3.2565 -4.24605,6.4975 -7.02395,9.67891 -2.46497,2.82304 -5.26167,5.59493 -8.35229,8.27209 -3.12207,2.7044 -6.35138,5.45553 -9.59588,8.01073 m 15.21789,-15.65248 c -4.63257,5.71515 -10.06514,10.6439 -16.01515,15.69644 -5.22475,4.43667 -12.57547,8.24508 -20.39845,11.60536 0,0 0,0 -1e-5,0 -1.49885,0.64382 -2.98555,1.32109 -4.4827,2.02592 -1.04243,0.49077 -2.08231,0.99128 -3.13202,1.50132 m 16.65453,-7.67038 c -4.04948,2.40689 -8.28818,4.67698 -12.82807,6.8249 -2.80353,1.32642 -5.72907,2.60974 -8.81496,3.85793 -7.29196,2.94948 -13.96099,5.78669 -20.5735,7.96974 0,0 0,0 0,0 -5.94145,1.96151 -13.79379,4.21727 -21.59077,6.06032 m 31.83366,-8.30012 c -6.9777,2.60467 -14.69895,5.18221 -22.89005,7.45478 -7.55654,2.09651 -14.34584,3.47931 -21.63938,4.33025 -0.24597,0.0287 -0.49255,0.0568 -0.73979,0.0843 -3.18232,0.35408 -6.40226,0.96031 -9.64874,1.65722 m 20.40274,-4.1805 c -2.77209,0.61053 -5.54187,1.23975 -8.35955,1.88407 -4.72201,1.07978 -9.63583,2.21568 -14.49134,3.26932 -7.60923,1.65119 -15.62182,2.02696 -24.22481,2.37477 -3.81823,0.15436 -7.28926,0.43295 -10.63482,0.72526 m 19.02696,-0.94712 c -8.00175,0.69508 -15.26535,1.86659 -23.12344,2.83151 -7.68468,0.94362 -15.2147,0.43653 -22.41307,-0.0988 -3e-5,-1e-5 -0.079,-0.006 -0.0791,-0.006 -2.61379,-0.19142 -5.39035,-0.24867 -8.23963,-0.24879 m 16.25256,0.70105 c -3.2144,0.129 -6.35883,0.12829 -9.47009,0.0246 -4.59662,-0.15323 -9.11687,-0.53117 -13.67417,-1.04603 0,0 0,0 0,0 -7.69328,-0.86913 -15.31809,-0.54335 -22.48558,-0.80156 -4.96284,-0.17878 -10.55118,-1.05196 -16.17509,-2.12519 m 27.66815,1.20089 c -7.69295,-0.39642 -15.65693,-1.14111 -23.2376,-1.74577 -7.80029,-0.62218 -15.75803,-2.62098 -23.59037,-4.66226 -0.49911,-0.13008 -0.99517,-0.25693 -1.48834,-0.38093 -4.55703,-1.14583 -9.06086,-2.09361 -13.34077,-3.07043 m 22.29484,7.37715 c -3.74922,-0.51571 -7.31971,-1.31665 -10.74101,-2.30581 -3.80828,-1.10103 -7.45369,-2.44189 -10.95858,-3.89227 -6.97223,-2.88522 -15.251748,-3.98671 -22.460907,-6.21918 -6.423874,-1.98929 -13.058342,-4.43029 -19.396729,-6.80415 m 30.957616,10.1328 c -7.798982,-2.06682 -15.385141,-5.05077 -22.811758,-8.23652 -6.280389,-2.69406 -12.286905,-4.92726 -17.454871,-6.98186 -1.270196,-0.50498 -2.526607,-1.01267 -3.78505,-1.53488 -2.026273,-0.84084 -4.014442,-1.88839 -5.950268,-3.06602 m 14.127385,5.51396 c -1.600294,-0.71804 -3.151101,-1.43557 -4.654685,-2.14941 -5.571208,-2.64497 -10.688321,-5.3329 -15.306218,-7.86461 0,0 -2e-6,-1e-5 -2e-6,-1e-5 -6.511681,-3.56996 -13.340326,-9.47279 -18.617931,-14.54334 -1.143416,-1.09856 -2.231952,-2.196 -3.269523,-3.29857 m 9.247565,10.49655 c -6.177034,-4.63481 -11.237477,-9.53797 -15.448256,-14.29234 -0.39025,-0.44063 -0.774435,-0.88141 -1.152646,-1.32203 C 12.613339,132.03921 9.1567416,126.07418 6.7571235,120.40872 6.2896406,119.305 5.8592084,118.20618 5.4662168,117.11781 3.6505867,112.08949 2.9810244,106.65798 3.2874735,101.2036 3.314875,100.71589 3.350081,100.22769 3.392986,99.739204 m 7.464382,26.005546 C 9.7871959,123.75863 8.8549334,121.76703 8.0537699,119.7677 5.886393,114.35894 4.6743375,108.88356 4.3020948,103.31137 4.2385994,102.36089 4.2073497,101.41624 4.2079046,100.4772 4.2117146,94.030019 5.7129612,87.850842 8.581287,81.84352 8.7114249,81.570964 8.8443653,81.298773 8.9800972,81.026927 9.5925677,79.800263 10.239317,78.540325 10.923238,77.258289 M 5.1812447,87.66264 C 5.8348063,84.861232 6.725288,82.125124 7.8644623,79.467839 9.663366,75.271642 12.08878,71.257234 15.196987,67.493452 c 1.391309,-1.68476 2.842438,-3.480249 4.372066,-5.346285 3.249704,-3.964402 7.129,-8.593138 11.405944,-12.645402 1.793902,-1.699664 3.67851,-3.237472 5.667658,-4.653778 M 23.97904,56.324812 c 5.082911,-5.242178 11.215013,-10.123501 18.443571,-14.560023 6.382616,-3.917326 12.302401,-8.215004 18.571873,-12.220928 -2.74e-4,1.74e-4 0.149634,-0.0955 0.14936,-0.09532 0.915848,-0.583813 1.88662,-1.140633 2.905335,-1.674572 m -10.950133,7.454443 c 2.689764,-1.423116 5.646577,-2.999883 8.388855,-4.434512 3.885757,-2.032842 7.928684,-4.091463 12.027622,-5.977253 6.73954,-3.100647 14.472973,-5.8755 23.161231,-9.141917 10e-7,-1e-6 10e-7,-1e-6 2e-6,-1e-6 3.118111,-1.172278 6.041684,-2.018993 8.913334,-2.660225 M 87.616374,19.96616 c 7.201464,-2.519517 14.338446,-4.916307 21.452346,-7.195127 4.75258,-1.522409 9.99398,-2.680664 15.31681,-3.7587409 2.03387,-0.4119344 4.90567,-0.9728855 6.93953,-1.38482 2.26205,-0.4558814 4.64611,-0.8591212 7.12529,-1.2145601 m -14.34716,3.1971135 c 0.70643,-0.1482041 1.414,-0.2947378 2.12286,-0.4395594 6.89392,-1.4084305 13.92671,-2.6585205 21.27232,-3.7166448 7.91189,-1.1396963 15.35388,-1.7877447 23.17978,-2.0644214 7.12035,-0.2517326 14.00632,-0.698313 20.446,-0.5118749 m -32.32146,1.7328638 c 7.74987,-0.7889294 15.51757,-1.4601261 23.46029,-1.8471824 6.34689,-0.3092899 12.55111,-0.5669204 18.77929,-0.7882913 1.50813,-0.053604 3.0188,-0.1051222 4.53422,-0.1547561 4.00857,-0.1312903 7.93904,-0.056468 11.77743,0.082628 M 193.60363,1.589771 c 1.58473,0.025363 3.19377,0.034827 4.82289,0.034267 6.19701,-0.00213 12.67964,-0.1491033 19.17493,-0.1166466 0,0 0,0 0,1e-7 8.24916,0.041221 15.40381,1.0499973 22.65312,2.0099973 1.4352,0.1900579 2.9038,0.3898501 4.39854,0.6025368 M 232.89348,3.8304218 c 7.8966,0.8119022 15.31602,1.5754222 22.56123,2.782475 6.64767,1.1075019 12.73911,1.9865211 19.38678,3.0940229 1.0808,0.1812152 2.14952,0.3646663 3.20374,0.5512723 0,0 0,0 0,0 3.37929,0.598164 6.83201,1.445074 10.25925,2.42724 M 270.42527,7.5135753 c 1.97898,0.3688155 3.91781,0.7650374 5.81788,1.1876316 5.60932,1.2475632 10.88061,2.7249091 15.84639,4.4043701 6.83479,2.311568 15.59047,3.884735 22.96873,5.454127 5.77642,1.228674 10.84693,3.826019 15.48122,6.451592 m -26.21881,-6.932587 c 7.71601,2.396392 14.89037,4.918279 21.57805,7.492266 4.03153,1.551673 7.97283,3.373325 11.61614,5.217617 2.89537,1.465677 5.6566,2.973197 8.18124,4.411923 5.01156,2.855961 10.86344,6.54074 16.18056,10.277366 M 337.60108,30.006649 c 0.001,7.34e-4 0.249,0.134254 0.25036,0.134988 7.26913,3.916734 13.72078,7.207135 20.08208,11.257744 0,0 0,1e-6 0,1e-6 6.90696,4.398065 12.7321,9.984032 17.46395,15.495133 0.4585,0.534013 1.61557,1.875356 2.07407,2.409369 m -8.52365,-8.331691 c 4.6408,3.75425 8.60364,7.902314 12.0079,12.15363 1.41148,1.762693 2.7395,3.559063 3.98811,5.37128 3.11436,4.520134 5.36882,8.821915 6.89365,13.1594 0.8793,2.501211 1.51385,5.010535 1.91901,7.554603 0.15534,0.975427 0.30583,1.958813 0.4477,2.95491 m -2.04357,-12.097925 c 0.1987,0.476718 0.38987,0.955509 0.57337,1.43622 2.3808,6.236733 3.46318,12.773247 3.00729,19.308789 -0.0508,0.72861 -0.12078,1.45723 -0.2102,2.1854 -0.71058,5.78643 -1.61636,11.23 -3.39434,16.27887 -0.5711,1.62174 -1.23562,3.21161 -2.019,4.76248 -0.55922,1.1071 -1.19914,2.2711 -1.91209,3.48013 M 25.071787,144.32343 19.589249,138.43861 M 286.49403,12.036837 l 6.94769,1.794819"
     transform="matrix(0.6,0,0,0.6,5.07224,4.8934483)" />
  <g
     id="g7"
     transform="matrix(0.6,0,0,0.6,5.07224,14.893465)">
    <text
       xml:space="preserve"
       style="font-weight:bold;font-size:66.6667px;font-family:Sans;-inkscape-font-specification:'Sans, Bold';text-align:center;text-anchor:middle;fill:#808080;fill-opacity:0.12549;stroke:none;stroke-width:1;stroke-dasharray:none"
       x="200.57999"
       y="72.133308"
       id="text4"><tspan
         sodipodi:role="line"
         x="200.57999"
         y="72.133308"
         style="font-style:normal;font-variant:normal;font-weight:normal;font-stretch:normal;font-size:40px;font-family:Quicksand;-inkscape-font-specification:'Quicksand, Normal';font-variant-ligatures:normal;font-variant-caps:normal;font-variant-numeric:normal;font-variant-east-asian:normal;fill:#000000;fill-opacity:1"
         id="tspan6">Gegenspieler</tspan></text>
    <text
       xml:space="preserve"
       style="font-weight:bold;font-size:66.6667px;font-family:Sans;-inkscape-font-specification:'Sans, Bold';text-align:center;text-anchor:middle;fill:#808080;fill-opacity:0.12549;stroke:none;stroke-width:1;stroke-dasharray:none"
       x="200.57999"
       y="122.1333"
       id="text7"><tspan
         sodipodi:role="line"
         x="200.57999"
         y="122.1333"
         style="font-style:normal;font-variant:normal;font-weight:normal;font-stretch:normal;font-size:40px;font-family:Quicksand;-inkscape-font-specification:'Quicksand, Normal';font-variant-ligatures:normal;font-variant-caps:normal;font-variant-numeric:normal;font-variant-east-asian:normal;fill:#000000;fill-opacity:1"
         id="tspan7">angreifen</tspan></text>
  </g>
</svg>
