<?xml version="1.0" encoding="UTF-8" standalone="no"?>
<svg
   height="130"
   width="250"
   version="1.1"
   id="svg1"
   sodipodi:docname="usecase-2.svg"
   inkscape:version="1.3.2 (091e20ef0f, 2023-11-25, custom)"
   xmlns:inkscape="http://www.inkscape.org/namespaces/inkscape"
   xmlns:sodipodi="http://sodipodi.sourceforge.net/DTD/sodipodi-0.dtd"
   xmlns="http://www.w3.org/2000/svg"
   xmlns:svg="http://www.w3.org/2000/svg">
  <defs
     id="defs1">
    <inkscape:path-effect
       effect="sketch"
       id="path-effect4"
       is_visible="true"
       lpeversion="1"
       nbiter_approxstrokes="3"
       parallel_offset="1;3648716239"
       strokelength="70"
       strokelength_rdm="0.3;1380397382"
       strokeoverlap="0.5"
       strokeoverlap_rdm="0.5;227113933"
       ends_tolerance="0.1;2747067470"
       tremble_size="0.8;3461045349"
       tremble_frequency="3"
       nbtangents="2"
       tgt_places_rdmness="0.5;1"
       tgtlength="5"
       tgtlength_rdm="0.3;1"
       tgtscale="10" />
    <inkscape:path-effect
       effect="sketch"
       id="path-effect3"
       is_visible="true"
       lpeversion="1"
       nbiter_approxstrokes="3"
       parallel_offset="2;1"
       strokelength="70"
       strokelength_rdm="0.3;1"
       strokeoverlap="0.5"
       strokeoverlap_rdm="0.5;1"
       ends_tolerance="0.1;1"
       tremble_size="0.8;1"
       tremble_frequency="3"
       nbtangents="2"
       tgt_places_rdmness="0.5;1"
       tgtlength="5"
       tgtlength_rdm="0.3;1"
       tgtscale="10" />
    <inkscape:path-effect
       effect="sketch"
       id="path-effect2"
       is_visible="true"
       lpeversion="1"
       nbiter_approxstrokes="3"
       parallel_offset="2;1"
       strokelength="70"
       strokelength_rdm="0.3;1"
       strokeoverlap="0.5"
       strokeoverlap_rdm="0.5;1"
       ends_tolerance="0.1;1"
       tremble_size="0.8;1"
       tremble_frequency="3"
       nbtangents="2"
       tgt_places_rdmness="0.5;1"
       tgtlength="5"
       tgtlength_rdm="0.3;1"
       tgtscale="10" />
    <inkscape:path-effect
       effect="sketch"
       id="path-effect6"
       is_visible="true"
       lpeversion="1"
       nbiter_approxstrokes="3"
       parallel_offset="0.2;1"
       strokelength="70"
       strokelength_rdm="0.3;1"
       strokeoverlap="0.5"
       strokeoverlap_rdm="0.5;1"
       ends_tolerance="0.1;1"
       tremble_size="0.8;1"
       tremble_frequency="3"
       nbtangents="2"
       tgt_places_rdmness="0.5;1"
       tgtlength="5"
       tgtlength_rdm="0.3;1"
       tgtscale="10" />
    <inkscape:path-effect
       effect="sketch"
       id="path-effect5"
       is_visible="true"
       lpeversion="1"
       nbiter_approxstrokes="3"
       parallel_offset="0.2;1"
       strokelength="70"
       strokelength_rdm="0.3;1"
       strokeoverlap="0.5"
       strokeoverlap_rdm="0.5;1"
       ends_tolerance="0.1;1"
       tremble_size="0.8;1"
       tremble_frequency="3"
       nbtangents="2"
       tgt_places_rdmness="0.5;1"
       tgtlength="5"
       tgtlength_rdm="0.3;1"
       tgtscale="10" />
    <inkscape:path-effect
       effect="sketch"
       id="path-effect1"
       is_visible="true"
       lpeversion="1"
       nbiter_approxstrokes="3"
       parallel_offset="0.2;1"
       strokelength="70"
       strokelength_rdm="0.3;1"
       strokeoverlap="0.5"
       strokeoverlap_rdm="0.5;1"
       ends_tolerance="0.1;1"
       tremble_size="0.8;1"
       tremble_frequency="3"
       nbtangents="2"
       tgt_places_rdmness="0.5;1"
       tgtlength="5"
       tgtlength_rdm="0.3;1"
       tgtscale="10" />
  </defs>
  <sodipodi:namedview
     id="namedview1"
     pagecolor="#ffffff"
     bordercolor="#000000"
     borderopacity="0.25"
     inkscape:showpageshadow="2"
     inkscape:pageopacity="0.0"
     inkscape:pagecheckerboard="0"
     inkscape:deskcolor="#d1d1d1"
     inkscape:zoom="1"
     inkscape:cx="127"
     inkscape:cy="236"
     inkscape:window-width="1440"
     inkscape:window-height="831"
     inkscape:window-x="0"
     inkscape:window-y="0"
     inkscape:window-maximized="1"
     inkscape:current-layer="svg1"
     showgrid="false" />
  <path
     id="ellipse1"
     style="fill:#cccccc;fill-opacity:1;stroke:none;stroke-width:0.6;stroke-dasharray:none"
     d="M 23.539818,35.260245 A 117.6,58.8 0 0 0 7.47224,64.893448 a 117.6,58.8 0 0 0 117.6,58.800002 117.6,58.8 0 0 0 107.53242,-35.1668 117.6,58.8 0 0 1 -101.53242,29.1668 117.6,58.8 0 0 1 -117.6,-58.800002 117.6,58.8 0 0 1 10.067578,-23.633203 z" />
  <path
     style="fill:none;fill-opacity:0.12549;stroke:#000000;stroke-width:1.66666667;stroke-dasharray:none"
     id="path1"
     inkscape:path-effect="#path-effect4"
     sodipodi:type="arc"
     sodipodi:cx="200"
     sodipodi:cy="100"
     sodipodi:rx="196"
     sodipodi:ry="98"
     d="m 395.99141,101.52975 c -0.1997,6.13923 -1.53951,12.32746 -4.20415,18.44127 -0.61525,1.41164 -1.30179,2.82072 -2.06226,4.22524 -2.66716,4.92601 -5.73461,9.7033 -9.51123,14.24009 -1.30195,1.56401 -2.70093,3.11524 -4.2179,4.65379 -1.2161,1.2334 -2.46307,2.44725 -3.74058,3.63624 m 13.09572,-12.68595 c -1.09457,1.5371 -2.27287,3.03302 -3.53507,4.48525 -3.61342,4.15742 -7.90645,7.94823 -12.89935,11.33814 -5.90915,4.012 -11.96387,9.60114 -19.03963,14.74682 -10e-6,0 -10e-6,0 -10e-6,0 -0.85347,0.62067 -1.72115,1.20283 -2.60399,1.7516 M 360.5383,153.8879 c -6.13307,4.62251 -12.29527,8.64295 -19.23595,13.06047 -1.15575,0.7356 -2.34026,1.43275 -3.55095,2.10098 -5.51106,3.04176 -10.92079,5.17087 -16.73191,7.81016 -5.4285,2.46552 -12.03228,4.31797 -18.98572,5.8611 m 24.66837,-6.87568 c -6.65854,2.79717 -14.01401,5.62488 -21.15701,8.0685 -6.78603,2.32149 -14.54429,4.15276 -22.02157,5.59275 -2.29197,0.44139 -4.65709,0.92151 -7.12341,1.41961 -3.14896,0.63596 -6.44927,1.29851 -9.76442,1.90007 m 24.414,-5.2516 c -4.74825,1.13576 -9.95798,2.33746 -15.31352,3.40979 -2.69792,0.5402 -5.45304,1.05173 -8.23129,1.50965 -8.00202,1.31892 -15.06343,2.50678 -22.30093,3.35933 -0.0704,0.008 -3.47687,0.40714 -3.54729,0.41543 m 13.20217,-3.06228 c -7.81176,1.02661 -15.45559,1.98339 -23.39455,2.65715 -7.86565,0.66753 -15.52338,1.12627 -23.40742,1.5368 0,0 -1e-5,0 -1e-5,0 -2.57634,0.13415 -5.14534,0.18376 -7.71429,0.17603 -2.20542,-0.007 -4.41012,-0.0555 -6.61795,-0.12935 m 18.41035,-0.0154 c -3.78199,0.11537 -7.66626,0.13596 -11.62941,0.0654 -4.11593,-0.0732 -8.31362,-0.24471 -12.56555,-0.50982 0,0 0,0 0,0 -8.39413,-0.52339 -15.47556,-0.69249 -22.94961,-1.35395 -0.9415,-0.0833 -1.89088,-0.16518 -2.84693,-0.24536 m 21.40929,2.42868 c -7.72529,-0.10389 -15.80524,-0.94995 -23.86526,-1.8582 -8.20696,-0.9248 -15.44177,-1.46954 -22.7552,-1.99743 -3.9947,-0.28834 -8.07221,-1.21606 -12.0769,-2.40868 -1.1701,-0.34846 -2.33643,-0.72031 -3.4944,-1.10641 m 21.8975,3.12079 c -6.26429,-0.93571 -12.34951,-1.86875 -18.33456,-2.80282 -0.0414,-0.006 -4.88477,-0.766 -4.92614,-0.77246 -7.91015,-1.24601 -14.95881,-3.89476 -21.359108,-6.35024 -0.903849,-0.34677 -1.838788,-0.68302 -2.796859,-1.01064 m 13.627377,4.31552 c -7.94815,-2.20225 -15.187602,-4.53096 -22.432883,-7.45783 0,0 -2e-6,-1e-5 -2e-6,-1e-5 -7.861592,-3.17584 -14.399523,-5.65674 -20.863337,-9.07771 -1.038638,-0.54969 -2.104818,-1.1096 -3.164684,-1.66688 0.270668,0.14232 -1.970077,-1.03715 -1.699409,-0.89484 m 17.531365,10.74874 c -6.44945,-2.37658 -12.329486,-5.37463 -17.923712,-8.72692 -1.145257,-0.68628 -2.281609,-1.38936 -3.409982,-2.10663 0,0 -1e-6,0 -1e-6,0 -7.326011,-4.65691 -14.001239,-7.46457 -20.122535,-11.03377 -2.16956,-1.26502 -4.175849,-2.79464 -6.024164,-4.46147 m 12.176938,7.87526 c -6.724607,-4.45942 -12.825931,-9.32951 -17.74018,-14.41902 -2.452695,-2.54016 -4.856015,-5.09133 -7.180844,-7.77133 -3.037549,-3.50161 -5.797838,-7.06152 -8.146121,-10.76949 -1.7039604,-2.69057 -3.0091034,-5.30424 -4.007503,-7.85922 -0.7328133,-1.87533 -1.3041946,-3.72907 -1.7439137,-5.56523 M 16.044842,133.09247 C 12.382503,128.22812 9.5170777,123.42305 7.4607514,118.73636 6.7151218,117.03696 6.0765307,115.35467 5.5449669,113.69241 4.2795972,109.73546 3.5814181,105.06869 3.4397987,100.3012 3.3391927,96.914385 3.5184012,93.471012 3.9669039,90.160168 4.3262995,87.507112 4.9761861,84.900818 5.8713834,82.307652 M 4.0918363,103.22573 C 4.0022842,102.18126 3.9534556,101.13002 3.9441471,100.07313 3.8872163,93.60915 5.304633,86.973466 7.9168456,80.258148 7.989244,80.07203 8.0625469,79.885878 8.1367478,79.699691 10.749799,73.142944 14.464873,67.686547 19.584208,62.40589 c 0.521748,-0.53819 1.057783,-1.074483 1.608903,-1.610669 1.867958,-1.81734 3.571734,-3.524577 5.573896,-5.500734 M 10.791749,75.43324 c 2.229659,-4.622175 5.131415,-8.883689 8.629749,-12.976852 1.54177,-1.80392 3.185634,-3.559704 4.929262,-5.299425 4.901301,-4.890314 11.395862,-10.133642 18.838533,-14.641261 0,0 2e-6,-10e-7 2e-6,-10e-7 3.395246,-2.056315 6.684309,-4.119652 10.044853,-6.139424 M 34.101896,47.007556 c 5.812828,-4.260421 12.341542,-8.466075 19.391414,-11.428333 2.444078,-1.026968 4.923399,-2.27161 7.492312,-3.643126 4.060961,-2.168105 8.808121,-4.925377 13.140458,-7.006111 2.184027,-1.048944 4.494676,-2.007592 6.925582,-2.912211 m -15.94722,6.062226 c 7.018726,-3.383164 14.071671,-5.949727 21.961255,-8.238893 7.372067,-2.139008 14.501813,-5.051878 22.038203,-7.644264 2.42328,-0.833565 4.88483,-1.484288 7.37434,-2.011154 m -16.11159,4.306444 c 7.39746,-2.229715 14.81314,-3.793143 22.57702,-5.014023 0,10e-8 0,-2e-7 0,-2e-7 0.17369,-0.027314 0.34753,-0.055038 0.52153,-0.08316 7.29165,-1.1785492 14.84416,-3.074348 22.49632,-4.5922689 3.31382,-0.6573478 6.67596,-1.125856 10.1092,-1.5169274 m -24.7959,5.1257409 c 7.34369,-1.6588377 15.28323,-2.9689086 23.187,-4.7149745 7.78732,-1.720341 15.55554,-1.3505039 23.80383,-1.3154869 0,1e-7 0,0 0,0 2.87637,0.012211 5.67411,-0.083384 8.44761,-0.2255792 m -24.48379,0.9165333 c 7.69472,-0.8214519 15.62825,-1.2247597 23.82691,-1.3614378 5.27249,-0.087897 10.18427,-0.087307 15.02492,0.1396637 2.62964,0.1232993 5.23775,0.3133592 7.87281,0.592154 6.41973,0.6792235 13.53437,0.2954956 20.69284,0.039808 M 200.38996,2.961139 c 0.16937,-0.00223 0.3387,-0.00424 0.50798,-0.00603 7.70217,-0.081615 15.31093,0.2841205 23.02727,0.82787 8.62592,0.6078451 14.81108,0.9190094 23.43701,1.5268545 6.23755,0.4495145 12.19695,1.47372 17.90731,2.5035739 M 232.05149,3.2954908 c 7.7857,0.7723374 15.73429,1.7852468 23.74076,3.320703 6.56429,1.2588794 12.80421,1.9984144 18.99182,2.817893 1.50076,0.1987586 3.00342,0.4026 4.52249,0.6207002 1.81764,0.260969 3.58379,0.592322 5.30845,0.973009 M 264.08966,8.1557923 c 3.22371,0.599616 6.43189,1.2661279 9.63173,2.0146707 4.56112,1.066987 9.08558,2.296069 13.59077,3.725663 8.02662,2.547016 15.1515,4.259564 22.17819,6.893065 2.24412,0.841067 4.48341,1.634971 6.68325,2.39441 m -13.2798,-7.571677 c 7.74794,2.575966 14.59199,4.73469 21.18017,7.382459 4.72572,1.899256 9.91109,4.301442 14.93526,6.894287 2.36571,1.220882 4.69844,2.485256 6.95043,3.768938 1.5056,0.858217 2.94273,1.693531 4.33036,2.520632 m -18.09377,-7.082505 c 1.93287,0.865567 3.83745,1.768382 5.70895,2.699519 5.29075,2.632331 10.3793,5.522098 15.14522,8.484924 0,0 0,10e-7 0,10e-7 7.18874,4.469021 13.2412,8.661643 18.5998,12.828398 0.90658,0.704942 1.7897,1.464516 2.64684,2.264679 M 355.74583,41.620929 c 6.90149,4.66532 12.7481,9.43175 17.59528,14.64185 2.3027,2.475115 4.51263,4.844418 6.69099,7.348136 3.11057,3.57516 5.89182,7.128688 8.18965,10.849218 1.49905,2.427182 2.72507,4.906741 3.71834,7.404458 0.91686,2.30559 1.6403,4.638918 2.19753,6.97879 M 383.25513,64.842268 c 3.84363,5.041099 6.96652,10.65266 9.00194,16.38299 0.5375,1.513253 0.99919,3.034101 1.38003,4.556468 1.2733,5.089754 2.02282,9.86269 1.97641,14.618044 -0.026,2.66624 -0.30337,5.31083 -0.87811,7.95886 -0.75188,3.46412 -1.7735,7.13013 -3.13799,10.87023 -0.79729,2.18537 -1.71532,4.4057 -2.76715,6.62144 m 6.15315,-19.32936 c -0.61692,4.82254 -1.79825,9.43541 -3.67323,13.88524 -1.07888,2.56048 -2.38973,5.07241 -3.96245,7.54714 -2.12346,3.34135 -4.48815,6.87793 -7.00952,10.26409 -1.94031,2.6058 -4.03656,5.20807 -6.26115,7.62189 -2.62615,2.84955 -6.10467,5.68503 -10.13781,8.45636 m 15.27497,-14.3477 c -4.90477,5.41764 -10.67442,10.73469 -17.41277,15.76283 -6.02294,4.49431 -12.49688,8.15124 -19.65923,11.28008 0,0 0,0 0,0 -1.14905,0.50196 -2.31207,1.0394 -3.49205,1.60645 -2.79182,1.34166 -5.58826,2.80461 -8.51186,4.33916 m 19.53187,-10.79255 c -3.57428,2.07928 -7.54074,4.29192 -11.69407,6.47646 -2.96978,1.56201 -6.07061,3.12833 -9.21531,4.62869 -7.04773,3.36252 -14.2968,5.59159 -22.47728,7.6889 0,0 0,0 0,0 -1.4983,0.38413 -2.96173,0.78104 -4.40689,1.18467 m 20.15393,-4.76915 c -7.4567,2.80657 -13.87694,5.46857 -21.27384,8.44946 -6.89281,2.77776 -14.91109,3.97911 -23.26408,5.56973 -0.60504,0.11521 -1.20574,0.23104 -1.80282,0.34742 -6.31273,1.23047 -12.19846,2.52261 -18.29583,3.74258 m 29.32704,-7.22252 c -3.71382,0.924 -7.32563,1.80461 -10.9458,2.68611 -3.76904,0.91776 -7.54225,1.83527 -11.32294,2.77435 -7.2618,1.80374 -15.22302,2.33736 -23.14532,3.149 -1.70219,0.1744 -3.4247,0.32278 -5.16778,0.44441 m 19.00532,-3.03262 c -7.80661,1.26967 -15.7222,1.99943 -24.38671,2.64555 -8.51457,0.63494 -15.28125,1.24066 -22.66022,1.81034 0,0 -1e-5,0 -1e-5,0 -2.36558,0.18263 -4.80158,0.2634 -7.26535,0.28186 m 22.18116,-2.35988 c -7.20448,0.17488 -14.90354,0.70728 -22.5562,0.9176 -0.36232,0.01 -0.72454,0.0192 -1.08659,0.0276 0,0 0,0 0,0 -7.99418,0.18622 -15.62478,-0.10209 -23.36749,-0.24052 -7.70876,-0.13783 -15.31311,-1.16909 -22.64491,-2.07299 m 22.60545,1.28378 c -7.5806,-0.33243 -15.16849,-1.31345 -21.99145,-2.48987 -6.98868,-1.20501 -16.02064,-2.02607 -24.48649,-3.19791 -1.91894,-0.26561 -3.70813,-0.58301 -5.39884,-0.94208 -0.41098,-0.0873 -0.81622,-0.17704 -1.21613,-0.26914 m 18.82005,4.02409 c -5.44441,-0.99276 -10.75842,-1.94824 -16.09412,-3.09281 -2.31511,-0.49661 -4.61061,-1.02398 -6.89018,-1.59765 -7.89458,-1.98673 -15.04974,-3.83541 -22.05469,-6.21917 -1.320467,-0.44935 -2.654997,-0.89678 -3.988538,-1.34139 m 16.386898,6.19964 c -7.6127,-2.14239 -15.357862,-4.32418 -23.087201,-6.97538 0,0 -3e-6,0 -3e-6,0 -8.049565,-2.76104 -14.806192,-5.42004 -21.35422,-8.11437 -1.215907,-0.50031 -2.424575,-1.05387 -3.621069,-1.6497 -1.038345,-0.51707 -2.068865,-1.06664 -3.088362,-1.64184 m 16.277602,6.31331 c -4.947535,-2.06439 -9.438458,-4.2763 -13.673173,-6.71617 -2.38771,-1.37569 -4.693466,-2.82359 -6.943833,-4.35277 0,0 -10e-7,0 -10e-7,0 -6.899125,-4.68812 -13.856597,-8.05914 -19.90051,-12.19825 -0.738766,-0.50594 -1.457794,-1.03193 -2.157874,-1.57481 m 18.251074,10.62642 c -6.981731,-4.61266 -13.132897,-8.63738 -18.670429,-13.44385 -3.99733,-3.46961 -7.850513,-7.25983 -11.35437,-11.17028 -1.888751,-2.10793 -3.676316,-4.25081 -5.343037,-6.40973 -1.290095,-1.67107 -2.38138,-3.35045 -3.311626,-5.0354 m 12.31483,17.45747 c -1.332925,-1.46402 -2.609876,-2.93383 -3.828327,-4.41915 -3.942931,-4.80653 -7.199391,-9.68878 -9.6578358,-14.81307 -0.6108948,-1.27332 -1.1668298,-2.5481 -1.6689271,-3.82609 -2.465427,-6.27526 -3.6350015,-12.63543 -3.611148,-19.21319 4.678e-4,-0.12898 0.00135,-0.25778 0.00265,-0.38641 0.044037,-4.358501 0.5664441,-8.509709 1.6053964,-12.592311 M 5.5947505,108.66679 C 5.0799514,106.08454 4.8408551,103.426 4.845821,100.72187 4.8553994,95.506144 5.7706278,90.139714 7.3644634,84.712715 7.7859941,83.277406 8.2600983,81.892506 8.787107,80.550244 c 2.263543,-5.76512 5.429765,-10.590778 9.618499,-15.502129 0.503548,-0.590417 1.021883,-1.194365 1.553004,-1.808285 2.380754,-2.7519 5.125231,-5.828249 8.067281,-8.891374 M 7.8612248,78.09964 C 10.139092,72.644892 13.592463,67.424966 18.048882,61.897751 c 1.131054,-1.402825 2.316691,-2.813914 3.558806,-4.253167 5.41503,-6.274463 10.925104,-10.104322 18.137563,-14.252957 0,0 2e-6,-10e-7 2e-6,-10e-7 3.982336,-2.290656 7.610864,-4.779633 11.659795,-7.469895 M 31.700251,50.188738 c 5.828956,-4.531618 12.632355,-9.269999 20.699152,-13.716573 3.480212,-1.91836 6.744923,-3.691996 9.937096,-5.360507 3.548549,-1.854783 7.100533,-3.629093 11.045923,-5.466943 6.204756,-2.890311 12.317754,-5.046648 18.801425,-7.220129 M 68.82332,27.21826 c 6.845723,-2.794448 14.246382,-5.812918 21.789638,-7.989279 6.959453,-2.007925 15.112032,-4.656344 23.019642,-6.503468 1.52,-0.355054 3.01079,-0.701882 4.47036,-1.037786 m -24.229267,6.094527 c 7.271877,-2.054839 14.975017,-4.332178 22.815927,-5.993241 2.67698,-0.567106 5.30684,-1.117755 7.87743,-1.629903 4.76074,-0.9485009 9.40203,-1.7822039 14.02717,-2.3867811 4.16153,-0.5439754 8.83028,-1.2647199 13.80839,-1.9995197 m -20.46663,2.0994692 c 7.69841,-1.1583125 15.41898,-2.4547639 23.3911,-3.0792328 7.88152,-0.6173719 15.402,-1.7273829 23.18081,-2.4012592 0,0 0,-2e-7 0,-2e-7 2.94386,-0.2550257 5.89574,-0.4306013 8.8515,-0.5627342 m -16.46662,0.7389682 c 7.51064,-0.4107434 15.37837,-0.7444855 22.89868,-0.5305469 1.63114,0.046403 3.3058,0.073196 5.01592,0.090164 6.17941,0.061311 12.77625,-0.00543 19.44813,0.2593805 3.52912,0.1400734 6.72984,0.2857311 9.75041,0.4316406 M 199.2031,2.2208539 c 7.83606,-0.040329 15.94307,0.3480638 24.40815,0.9931968 8.56192,0.6525132 15.51881,1.0478466 23.04905,1.7066316 6.43125,0.5626395 12.97589,1.9574787 19.30739,3.6188117 M 236.87211,4.7886658 c 7.75258,0.8666013 15.58273,1.2626828 23.18047,1.5624988 5.04638,0.1991363 10.04396,1.5020697 14.92984,3.089098 2.68239,0.8712894 5.38952,1.8485874 8.02962,2.7783804 7.58295,2.670567 14.8423,3.830839 21.85861,6.04456 M 272.24323,9.7941148 c 1.18728,0.2082312 2.36783,0.4276612 3.54149,0.6564452 6.5386,1.27458 13.00323,2.868782 19.20811,4.451342 7.62701,1.945276 15.26186,4.285779 22.21327,6.424395 6.42574,1.976895 12.49986,4.846581 17.78773,7.513381 m -17.70058,-7.350486 c 7.7231,2.852438 15.05848,5.693018 22.21182,8.579023 2e-5,8e-6 0.066,0.0267 0.0661,0.0267 7.69547,3.117748 13.63898,7.844512 18.77757,12.210806 4.2225,3.587881 9.11844,6.94944 13.52718,10.456474 M 348.13727,33.553098 c 7.24089,4.056855 13.30829,8.803355 18.46538,14.06613 5.17046,5.276413 10.51845,9.356862 14.64151,13.913776 0.55977,0.618678 1.09782,1.243761 1.61294,1.879216 2.03789,2.513944 3.91945,5.26619 5.58232,8.105167 M 376.11454,58.394209 c 1.61286,1.707638 3.12076,3.395678 4.52749,5.080864 3.66582,4.391456 6.60813,8.722296 8.83734,13.1537 0.72998,1.451108 1.40731,2.957493 2.02449,4.502402 2.3275,5.826157 3.77723,12.135368 4.0914,18.317582 0.0238,0.468759 0.0395,0.936033 0.0472,1.401933 0.007,0.42271 0.007,0.8443 0.001,1.26485 m -2.11138,-19.477606 c 1.75742,5.483105 2.70255,10.797712 2.80993,16.177071 0.046,2.305815 -0.0622,4.616095 -0.32507,6.946605 -0.46678,4.13887 -1.56267,8.26728 -3.19156,12.42726 -1.30341,3.32871 -2.93437,6.64506 -4.84278,10.01699 -1.36409,2.41021 -2.89965,4.6858 -4.61065,6.88345 m 12.51065,-31.80234 c -0.28583,5.27616 -1.48061,10.31768 -3.44108,15.11177 -0.8393,2.0524 -1.81568,4.05173 -2.91531,6.00007 -2.03234,3.60092 -4.80597,7.75221 -8.12355,11.98241 -1.93127,2.46255 -4.0654,4.97418 -6.32931,7.38178 -0.96647,1.02782 -1.95047,2.01688 -2.95574,2.9759 m 9.70694,-9.21716 c -0.2144,0.2497 -0.42993,0.49898 -0.64657,0.74776 -4.58833,5.26896 -9.83093,10.49925 -15.90652,15.14432 -5.58914,4.27316 -12.12745,9.03332 -18.618,13.44355 -10e-6,0 -10e-6,0 -10e-6,0 -2.03709,1.38417 -4.29831,2.64666 -6.7514,3.84273 -0.68615,0.33455 -1.38602,0.66328 -2.099,0.98763 m 13.83051,-9.17034 c -3.86125,2.27005 -7.88104,4.47206 -12.11708,6.6049 -2.92364,1.47205 -5.96319,2.91772 -9.14926,4.34046 -7.23652,3.23147 -14.20671,5.43631 -22.01413,7.11936 0,0 0,0 0,0 -3.24901,0.70039 -6.44468,1.62784 -9.70776,2.61813 m 19.63602,-6.34244 c -7.30566,2.93602 -14.00966,5.04821 -21.00612,7.21089 -6.20871,1.91917 -13.48907,3.79772 -20.97001,5.87956 -0.6076,0.16909 -1.21313,0.33865 -1.81518,0.50859 -7.36165,2.07795 -14.48428,2.70588 -21.96129,3.62889 m 28.41767,-5.23323 c -1.66384,0.37322 -3.35209,0.72293 -5.06716,1.04958 -6.04443,1.15121 -12.40733,2.01323 -19.20424,2.61125 -8.48848,0.74685 -14.89852,2.23214 -21.80837,3.22436 -1.47887,0.21235 -3.05708,0.39123 -4.70884,0.54576 m 16.16855,-0.88637 c -7.81086,0.81732 -15.0859,1.98564 -22.37092,3.16049 -7.18468,1.15867 -15.92067,0.54719 -24.58094,0.19828 0,0 0,0 0,0 -0.005,-2.2e-4 -0.61082,-0.0242 -0.61622,-0.0245 -2.54069,-0.0993 -4.9065,-0.17339 -7.16277,-0.25066 m 14.36169,0.17207 c -2.33727,-0.0336 -4.68871,-0.062 -7.03318,-0.10713 -5.28928,-0.10189 -10.54585,-0.28946 -15.61038,-0.81631 0,0 -10e-6,0 -10e-6,0 -7.3645,-0.76611 -15.89813,-0.84133 -24.18868,-1.56284 -5.92622,-0.51575 -11.16981,-1.25653 -16.33982,-2.14318 m 31.40437,3.29028 c -7.60143,-0.27793 -15.40344,-1.34515 -22.63364,-2.44986 -7.47848,-1.14263 -15.22,-2.4234 -22.29264,-4.242 -0.85943,-0.22099 -1.73703,-0.43703 -2.62915,-0.6497 -5.83698,-1.39146 -12.30166,-2.64979 -18.65226,-4.22085 m 28.84451,7.74381 c -4.05475,-0.8113 -8.04429,-1.62901 -12.00961,-2.56762 -3.61112,-0.85477 -7.15393,-1.79877 -10.63202,-2.90541 -7.61477,-2.42283 -15.416628,-4.09845 -22.924592,-6.6035 -5.001232,-1.66867 -9.557243,-3.30928 -13.941774,-5.03338 m 16.920636,7.29973 c -7.539727,-2.34486 -14.983957,-5.12657 -21.815424,-7.89841 -3.53984,-1.43627 -6.983402,-3.05054 -10.283971,-4.74607 -3.632491,-1.86606 -7.144532,-3.85788 -10.461305,-5.85603 -1.529073,-0.92117 -3.049898,-1.8731 -4.560744,-2.85819 m 20.665696,9.76304 c -2.073471,-1.0276 -4.135927,-2.06114 -6.200112,-3.13132 -5.078951,-2.6332 -9.936393,-5.37051 -14.477873,-8.44964 0,0 -10e-7,-1e-5 -10e-7,-1e-5 -7.200466,-4.88194 -12.732451,-8.69807 -17.599476,-13.34243 -1.05689,-1.00854 -2.140848,-2.05986 -3.236837,-3.14965 m 11.024867,10.32768 c -6.867194,-5.04243 -12.25055,-10.24841 -16.682266,-15.72453 -0.364523,-0.45043 -0.726901,-0.90147 -1.087059,-1.35376 -4.77048,-5.99081 -8.872343,-11.87302 -11.719678,-18.07988 -1e-6,0 -0.013776,-0.0301 -0.013777,-0.0301 -1.1544739,-2.52261 -1.9820805,-5.08582 -2.5303386,-7.63937 m 4.5012901,13.6649 C 8.9297845,123.47256 8.1595492,121.72449 7.4619356,119.93964 5.2054479,114.16641 3.7434324,108.09563 3.3488392,101.83317 3.3030366,101.10625 3.2758466,100.39247 3.2668488,99.690708 3.1803377,92.94348 4.7689932,87.333149 7.6818259,81.808991 7.9276953,81.342702 8.1828369,80.877145 8.4471206,80.411297 10.902522,76.083206 14.084126,70.190556 17.671273,65.124532 M 7.5398965,80.155364 c 0.059093,-0.141642 0.1186981,-0.283178 0.1788178,-0.424601 2.6317037,-6.190736 6.2999377,-12.280938 11.2010707,-17.701351 0.270282,-0.298919 0.544568,-0.596076 0.822903,-0.891353 4.579214,-4.857955 10.844479,-11.100312 17.909162,-16.342258 0,0 10e-7,-10e-7 10e-7,-10e-7 0.816256,-0.605656 1.624354,-1.199303 2.425972,-1.782194 m -12.01537,10.132956 c 5.352934,-4.650666 12.081689,-9.790727 19.864023,-14.491799 5.04396,-3.046903 9.537241,-5.702831 13.938537,-8.139522 1.723431,-0.954144 3.461326,-1.890813 5.263606,-2.831482 3.642994,-1.901398 8.155387,-3.602355 13.07166,-5.092154 M 53.143995,34.028496 c 2.440878,-1.396721 4.876042,-2.703579 7.337683,-3.951334 4.321381,-2.190417 8.646068,-4.159815 13.238094,-6.137733 6.722685,-2.895653 14.40758,-5.645273 22.570585,-8.411295 1.987527,-0.67347 3.949053,-1.285956 5.907893,-1.855643 m -20.779541,7.399148 c 6.949679,-2.916227 14.46459,-5.023943 22.460791,-7.123334 6.93922,-1.821881 13.67652,-3.337372 20.46967,-4.2841915 0.54133,-0.075449 1.0835,-0.1473681 1.62672,-0.2156241 6.27287,-0.7882014 13.06111,-2.4721091 20.14254,-3.952522 M 125.13095,9.022227 c 7.54889,-1.5405664 15.33988,-2.5548704 23.50708,-3.012358 8.04928,-0.4508826 15.58941,-2.320669 24.07875,-3.9006041 7.01469,-1.30549207 12.90178,-0.9658317 18.77208,-0.734445 m -26.86175,2.7462737 c 7.58334,-0.9538512 15.40233,-1.2399119 23.15142,-1.5989345 3.99299,-0.1849993 8.10266,-0.2676861 12.29049,-0.296624 3.86583,-0.026713 7.79926,-0.00761 11.75812,0.019032 4.05648,0.027299 7.884,0.2192102 11.64684,0.5165255 M 193.69532,2.2995426 c 1.83091,-0.0032 3.66077,-0.019859 5.49014,-0.04635 5.94681,-0.086116 11.87464,-0.2758927 17.78309,-0.4424038 0,0 0,10e-8 0,10e-8 7.74428,-0.218248 15.70239,0.8746418 23.46861,1.5525975 2.96042,0.2584315 5.86369,0.6139352 8.72668,1.0418573 M 226.9658,2.2696973 c 7.67313,0.697401 15.90024,1.6181811 24.23428,3.1542566 8.51737,1.5698664 15.24292,2.407053 22.24054,4.0296186 0.27678,0.06418 0.55522,0.1283088 0.83519,0.1923989 4.05358,0.9279386 8.61336,1.8884226 13.02388,2.8528516 M 264.64547,6.9500875 c 3.89952,0.7287789 7.72209,1.455202 11.50628,2.235684 3.75932,0.7753517 7.43406,1.5946075 11.03435,2.5035925 7.58694,1.915517 15.24883,3.995545 22.53208,6.311404 4.27761,1.360153 8.35127,2.882791 12.22367,4.497125 m -23.3249,-7.164416 c 7.57034,2.505865 15.0229,4.8967 22.34213,7.981545 5.9517,2.508473 11.59396,4.753421 17.157,7.121158 1.66509,0.708693 3.31789,1.425498 4.97178,2.162332 5.91862,2.636821 10.87703,5.981927 15.38405,9.291068 M 332.01486,27.46423 c 2.03382,1.025991 4.01171,2.021379 5.99422,3.044247 5.02323,2.591701 9.67589,5.158107 13.92438,8.03533 0,0 10e-6,10e-7 10e-6,10e-7 6.5554,4.439548 13.45305,8.651152 19.19539,12.889392 3.69547,2.727512 6.78935,6.24253 9.38824,9.871884 1.33292,1.861442 2.56031,3.788201 3.68721,5.703552 M 366.70955,50.741422 c 5.0341,4.088387 9.77048,8.6339 13.8582,13.227851 1.02528,1.152246 2.01188,2.309744 2.95647,3.468533 3.9052,4.790745 6.6751,9.802108 8.71807,14.732441 0.78336,1.890522 1.46735,3.787703 2.07046,5.680238 0.40688,1.276786 0.74314,2.569728 1.01302,3.872338 m -5.03571,-16.127432 c 0.68606,1.440558 1.32103,2.908297 1.89903,4.39943 2.318,5.979981 3.69182,12.264194 3.83244,18.636326 0.009,0.393892 0.013,0.785437 0.0128,1.174758 -0.003,6.684545 -1.30757,12.693235 -3.89907,18.616635 -0.33027,0.75491 -0.68129,1.50828 -1.05314,2.26198 0,0 0,0 0,0 -0.86245,1.74811 -1.79346,3.53808 -2.79003,5.3425 M 25.071787,144.32343 19.589249,138.43861 M 286.49403,12.036837 l 6.94769,1.794819"
     transform="matrix(0.6,0,0,0.6,5.07224,4.8934483)" />
  <g
     id="g7"
     transform="matrix(0.6,0,0,0.6,5.07224,14.893465)">
    <text
       xml:space="preserve"
       style="font-weight:bold;font-size:66.6667px;font-family:Sans;-inkscape-font-specification:'Sans, Bold';text-align:center;text-anchor:middle;fill:#808080;fill-opacity:0.12549;stroke:none;stroke-width:1;stroke-dasharray:none"
       x="200.57999"
       y="72.133308"
       id="text4"><tspan
         sodipodi:role="line"
         x="200.57999"
         y="72.133308"
         style="font-style:normal;font-variant:normal;font-weight:normal;font-stretch:normal;font-size:40px;font-family:Quicksand;-inkscape-font-specification:'Quicksand, Normal';font-variant-ligatures:normal;font-variant-caps:normal;font-variant-numeric:normal;font-variant-east-asian:normal;fill:#000000;fill-opacity:1"
         id="tspan6">Partie</tspan></text>
    <text
       xml:space="preserve"
       style="font-weight:bold;font-size:66.6667px;font-family:Sans;-inkscape-font-specification:'Sans, Bold';text-align:center;text-anchor:middle;fill:#808080;fill-opacity:0.12549;stroke:none;stroke-width:1;stroke-dasharray:none"
       x="200.57999"
       y="122.1333"
       id="text7"><tspan
         sodipodi:role="line"
         x="200.57999"
         y="122.1333"
         style="font-style:normal;font-variant:normal;font-weight:normal;font-stretch:normal;font-size:40px;font-family:Quicksand;-inkscape-font-specification:'Quicksand, Normal';font-variant-ligatures:normal;font-variant-caps:normal;font-variant-numeric:normal;font-variant-east-asian:normal;fill:#000000;fill-opacity:1"
         id="tspan7">abbrechen</tspan></text>
  </g>
</svg>
