<?xml version="1.0" encoding="UTF-8" standalone="no"?>
<svg
   height="130"
   width="250"
   version="1.1"
   id="svg1"
   sodipodi:docname="usecase-11.svg"
   inkscape:version="1.3.2 (091e20ef0f, 2023-11-25, custom)"
   xmlns:inkscape="http://www.inkscape.org/namespaces/inkscape"
   xmlns:sodipodi="http://sodipodi.sourceforge.net/DTD/sodipodi-0.dtd"
   xmlns="http://www.w3.org/2000/svg"
   xmlns:svg="http://www.w3.org/2000/svg">
  <defs
     id="defs1">
    <inkscape:path-effect
       effect="sketch"
       id="path-effect4"
       is_visible="true"
       lpeversion="1"
       nbiter_approxstrokes="3"
       parallel_offset="1;1907575139"
       strokelength="70"
       strokelength_rdm="0.3;1"
       strokeoverlap="0.5"
       strokeoverlap_rdm="0.5;1"
       ends_tolerance="0.1;1"
       tremble_size="0.8;1"
       tremble_frequency="3"
       nbtangents="2"
       tgt_places_rdmness="0.5;1"
       tgtlength="5"
       tgtlength_rdm="0.3;1"
       tgtscale="10" />
    <inkscape:path-effect
       effect="sketch"
       id="path-effect3"
       is_visible="true"
       lpeversion="1"
       nbiter_approxstrokes="3"
       parallel_offset="2;1"
       strokelength="70"
       strokelength_rdm="0.3;1"
       strokeoverlap="0.5"
       strokeoverlap_rdm="0.5;1"
       ends_tolerance="0.1;1"
       tremble_size="0.8;1"
       tremble_frequency="3"
       nbtangents="2"
       tgt_places_rdmness="0.5;1"
       tgtlength="5"
       tgtlength_rdm="0.3;1"
       tgtscale="10" />
    <inkscape:path-effect
       effect="sketch"
       id="path-effect2"
       is_visible="true"
       lpeversion="1"
       nbiter_approxstrokes="3"
       parallel_offset="2;1"
       strokelength="70"
       strokelength_rdm="0.3;1"
       strokeoverlap="0.5"
       strokeoverlap_rdm="0.5;1"
       ends_tolerance="0.1;1"
       tremble_size="0.8;1"
       tremble_frequency="3"
       nbtangents="2"
       tgt_places_rdmness="0.5;1"
       tgtlength="5"
       tgtlength_rdm="0.3;1"
       tgtscale="10" />
    <inkscape:path-effect
       effect="sketch"
       id="path-effect6"
       is_visible="true"
       lpeversion="1"
       nbiter_approxstrokes="3"
       parallel_offset="0.2;1"
       strokelength="70"
       strokelength_rdm="0.3;1"
       strokeoverlap="0.5"
       strokeoverlap_rdm="0.5;1"
       ends_tolerance="0.1;1"
       tremble_size="0.8;1"
       tremble_frequency="3"
       nbtangents="2"
       tgt_places_rdmness="0.5;1"
       tgtlength="5"
       tgtlength_rdm="0.3;1"
       tgtscale="10" />
    <inkscape:path-effect
       effect="sketch"
       id="path-effect5"
       is_visible="true"
       lpeversion="1"
       nbiter_approxstrokes="3"
       parallel_offset="0.2;1"
       strokelength="70"
       strokelength_rdm="0.3;1"
       strokeoverlap="0.5"
       strokeoverlap_rdm="0.5;1"
       ends_tolerance="0.1;1"
       tremble_size="0.8;1"
       tremble_frequency="3"
       nbtangents="2"
       tgt_places_rdmness="0.5;1"
       tgtlength="5"
       tgtlength_rdm="0.3;1"
       tgtscale="10" />
    <inkscape:path-effect
       effect="sketch"
       id="path-effect1"
       is_visible="true"
       lpeversion="1"
       nbiter_approxstrokes="3"
       parallel_offset="0.2;1"
       strokelength="70"
       strokelength_rdm="0.3;1"
       strokeoverlap="0.5"
       strokeoverlap_rdm="0.5;1"
       ends_tolerance="0.1;1"
       tremble_size="0.8;1"
       tremble_frequency="3"
       nbtangents="2"
       tgt_places_rdmness="0.5;1"
       tgtlength="5"
       tgtlength_rdm="0.3;1"
       tgtscale="10" />
  </defs>
  <sodipodi:namedview
     id="namedview1"
     pagecolor="#ffffff"
     bordercolor="#000000"
     borderopacity="0.25"
     inkscape:showpageshadow="2"
     inkscape:pageopacity="0.0"
     inkscape:pagecheckerboard="0"
     inkscape:deskcolor="#d1d1d1"
     inkscape:zoom="1"
     inkscape:cx="136"
     inkscape:cy="72"
     inkscape:window-width="1440"
     inkscape:window-height="831"
     inkscape:window-x="0"
     inkscape:window-y="0"
     inkscape:window-maximized="1"
     inkscape:current-layer="svg1"
     showgrid="false" />
  <path
     id="ellipse1"
     style="fill:#cccccc;fill-opacity:1;stroke:none;stroke-width:1;stroke-dasharray:none"
     d="M 23.539827,35.260042 A 117.6,58.8 0 0 0 7.4722492,64.893246 117.6,58.8 0 0 0 125.07225,123.69325 117.6,58.8 0 0 0 232.60467,88.526448 117.6,58.8 0 0 1 131.07225,117.69325 117.6,58.8 0 0 1 13.472249,58.893246 117.6,58.8 0 0 1 23.539827,35.260042 Z" />
  <path
     style="fill:none;fill-opacity:0.12549;stroke:#000000;stroke-width:1.66667;stroke-dasharray:none"
     id="path1"
     inkscape:path-effect="#path-effect4"
     sodipodi:type="arc"
     sodipodi:cx="200"
     sodipodi:cy="100"
     sodipodi:rx="196"
     sodipodi:ry="98"
     d="m 396.82864,105.06126 c -0.30732,4.77894 -1.5625,9.6729 -3.59167,14.51491 -1.06083,2.53138 -2.32962,5.04022 -3.77612,7.50213 -2.17372,3.6996 -4.74332,7.31971 -7.74947,10.78646 -2.10806,2.43107 -4.44379,4.80177 -7.02948,7.08383 -2.30486,2.03421 -4.79174,4.22943 -7.24167,6.31612 M 380.6135,138.8411 c -4.83075,5.39717 -10.41027,10.73481 -16.84617,15.23359 -5.46424,3.81959 -12.63229,8.92531 -19.39064,12.93312 0,0 0,0 0,0 -1.01503,0.60193 -2.04767,1.18796 -3.09781,1.76133 m 11.56647,-8.05039 c -4.38164,2.56022 -8.9125,5.15301 -13.35087,7.46476 -2.03885,1.06194 -4.09949,2.0866 -6.17762,3.04999 -6.15086,2.85144 -14.30757,6.27118 -22.62751,9.63154 0,0 0,0 0,0 -1.88246,0.76031 -3.69753,1.40345 -5.47083,1.9562 m 13.74356,-6.07864 c -7.16706,2.68374 -14.20599,5.07542 -21.3215,7.09709 -6.53725,1.85738 -14.30114,3.91824 -21.74893,5.76133 7.3e-4,-1.8e-4 -0.76876,0.18974 -0.76803,0.18956 -6.39468,1.57412 -13.02115,2.71603 -20.11168,4.06382 m 30.39588,-4.68317 c -3.10939,0.80035 -6.31812,1.48489 -9.60239,2.07376 -4.40719,0.7902 -8.92387,1.40342 -13.48699,1.89409 -7.72268,0.83041 -15.38751,2.12269 -23.38265,2.56401 -4.28597,0.23657 -8.42096,0.6652 -12.52075,1.13097 m 21.61017,-0.16508 c -7.39706,1.04418 -15.37031,1.66258 -23.20344,2.07479 -7.7282,0.40669 -15.76988,0.53276 -24.0791,0.1049 0,0 0,0 0,0 -0.53481,-0.0275 -1.06543,-0.0529 -1.59228,-0.0764 -1.90152,-0.0849 -3.75357,-0.1462 -5.5754,-0.20114 m 16.90099,-1.9226 c -3.53499,0.12455 -7.11689,0.28914 -10.68387,0.51039 -4.06843,0.25236 -8.10823,0.57787 -12.02999,1.00028 0,0 0,0 0,0 -7.38469,0.79539 -15.50577,-1.21536 -22.96008,-2.88059 -1.81725,-0.40596 -3.66927,-0.68745 -5.54375,-0.88618 m 14.98093,2.36192 c -7.83747,-0.67939 -15.7379,-1.29644 -23.82581,-2.30697 -8.22129,-1.0272 -15.4366,-2.42955 -22.78397,-4.21302 -0.80401,-0.19516 -1.60734,-0.38434 -2.4088,-0.56859 m 12.19724,3.59115 c -4.07356,-0.63875 -8.1619,-1.51124 -12.1999,-2.55791 -3.58865,-0.9302 -7.14285,-1.99933 -10.61895,-3.16745 -7.72932,-2.59738 -15.394729,-3.96308 -22.853002,-6.24161 -5.956363,-1.81968 -11.472078,-3.78699 -16.599897,-5.67038 m 25.201049,8.31335 c -7.656004,-2.17922 -14.753433,-4.87631 -21.148974,-7.8771 -5.828391,-2.73468 -12.539798,-5.1723 -18.804078,-7.85685 -1.132731,-0.48543 -2.250161,-0.9775 -3.350011,-1.48041 -5.630437,-2.57451 -10.201491,-5.62733 -14.259706,-8.76765 m 24.24704,15.25761 c -1.998282,-0.9458 -3.969711,-1.91576 -5.913286,-2.91607 -5.196012,-2.67427 -10.125148,-5.53094 -14.758385,-8.65481 0,0 -3e-6,0 -3e-6,0 -7.181714,-4.84214 -13.201364,-9.24549 -18.786831,-14.70045 -2.828777,-2.76268 -5.316542,-5.2953 -7.574973,-7.84969 m 14.502957,14.28447 c -6.396558,-5.06466 -11.869652,-10.69953 -16.388306,-17.01372 -0.129377,-0.18079 -0.257934,-0.36208 -0.385668,-0.54388 0,0 -1e-6,0 -1e-6,0 C 12.93216,128.99009 9.6118794,124.50627 7.3135179,119.08658 7.0487157,118.46216 6.8021417,117.83383 6.5737523,117.19872 4.9249466,112.61366 3.9262282,106.94137 3.8918141,101.32718 m 7.0966369,23.56483 C 9.8000765,122.70996 8.7340805,120.50078 7.8094116,118.28706 5.7775737,113.42269 4.446819,108.58056 3.9612773,103.96735 3.8405159,102.81998 3.7794265,101.62497 3.7763295,100.39484 3.7609081,94.269273 5.1878578,87.240335 7.8480356,80.784168 c 0,0 4e-7,-10e-7 4e-7,-10e-7 -3.4e-6,8e-6 0.04449,-0.107742 0.044487,-0.107734 C 9.3939255,77.048371 11.154354,73.59001 13.221026,70.263398 M 5.4654371,90.021932 c 0.6583015,-3.115495 1.5902148,-6.171996 2.8078387,-9.18555 1.6669715,-4.125664 3.8680162,-8.167153 6.6431232,-12.192347 1.463366,-2.122561 3.045397,-4.198072 4.754318,-6.223075 3.178422,-3.766302 6.807923,-7.373038 10.982897,-10.823648 1.213841,-1.003239 2.455594,-2.016492 3.71619,-3.027184 m -12.186815,9.46056 c 4.970639,-5.146348 11.144366,-10.652789 18.32727,-16.136147 6.608481,-5.04485 12.378878,-8.189093 19.368839,-12.167366 0.221272,-0.125935 0.444312,-0.250934 0.669088,-0.375019 2.183478,-1.205364 4.522305,-2.319902 6.984911,-3.367037 M 52.126115,36.559497 c 2.83115,-1.534368 5.854354,-3.108274 8.998936,-4.639226 3.917237,-1.907123 8.102997,-3.786909 12.436398,-5.467617 7.249344,-2.811653 14.298437,-5.798382 22.08557,-8.632276 10e-7,0 2e-6,-1e-6 3e-6,-1e-6 5.584048,-2.032147 11.087258,-3.432155 16.841338,-4.735913 m -27.189133,8.026825 c 7.203289,-2.552381 14.315845,-4.659324 21.517693,-6.276035 5.21837,-1.171448 11.01989,-2.860551 17.05718,-4.640152 1.95344,-0.5758103 3.93629,-1.1622563 5.88315,-1.7274698 7.1118,-2.0647048 13.98005,-2.486717 21.23805,-3.1821324 m -30.298,4.069423 c 1.7449,-0.3693258 3.47674,-0.7160927 5.20065,-1.0380023 5.86041,-1.0943252 11.64402,-1.9045219 17.61874,-2.3449502 7.37282,-0.5434887 14.59074,-1.9584997 21.96356,-2.5019884 6.47441,-0.4668814 14.64105,-1.0509379 22.34217,-1.2883014 m -33.77274,1.8207274 c 7.46061,-1.1568505 15.39162,-1.5555159 23.27574,-1.9355084 7.32121,-0.3528614 14.94369,-0.4305183 22.91109,-0.073473 0.49392,0.022134 0.98915,0.045938 1.48568,0.071448 3.95976,0.203438 7.50748,0.2518215 10.85462,0.2707976 M 191.78112,1.5752578 c 2.72592,-0.022216 5.42147,-0.034679 8.10627,-0.026553 5.16038,0.01562 10.27838,0.1072915 15.51234,0.3516107 0,0 0,0 0,0 8.01507,0.3741398 15.24528,0.4407314 22.2547,0.4132889 5.0042,-0.019592 10.80553,1.0378089 16.57743,2.2937246 M 228.22004,2.6547073 c 7.60384,0.6775163 15.91805,1.2183136 24.22287,1.9167154 8.43448,0.7093068 15.13583,2.3413131 21.73769,3.7641678 -2e-5,-4.6e-6 0.0909,0.019605 0.0908,0.0196 5.77293,1.2466616 12.69332,2.9742785 19.35222,4.9917355 M 265.74988,7.4236013 c 3.49457,0.6099184 6.98249,1.2752383 10.4394,1.9909833 4.1912,0.8677774 8.33433,1.8091524 12.39074,2.8159774 7.74141,1.921466 15.11774,3.899104 22.06217,5.913901 6.87065,1.993394 13.97962,5.051336 20.22935,7.900685 M 299.92841,15.652339 c 7.46237,2.191369 15.10901,4.800092 22.19571,7.611285 6.19426,2.457178 11.84334,5.280342 17.09466,8.509876 1.20859,0.743272 2.39524,1.507571 3.56125,2.293014 5.71951,3.852761 11.73963,6.656317 17.24133,9.851644 M 333.82813,27.997126 c 1.9549,0.898693 3.87621,1.822457 5.7631,2.770313 5.26618,2.645406 10.2635,5.478114 14.97048,8.474646 0,0 0,10e-7 0,10e-7 7.14555,4.548957 12.97208,8.972229 17.97635,13.755666 3.14094,3.002336 6.27671,6.143613 9.23469,9.437773 2.35216,2.619489 4.53586,5.273987 6.47719,7.957233 M 364.1006,46.018239 c 6.63815,4.937337 11.85191,10.233177 15.68181,15.629904 0.23905,0.336859 0.48259,0.676688 0.72938,1.018717 4.47718,6.205043 9.16297,12.141201 12.64077,19.274553 0.0641,0.131465 0.12759,0.26302 0.19048,0.394666 0,10e-7 0,10e-7 0,10e-7 2.65644,5.561169 3.46884,10.542638 3.37634,15.365761 m -8.88687,-25.868049 c 1.60175,2.719909 2.97577,5.548685 4.09418,8.430398 1.72472,4.443949 2.83815,9.00337 3.26881,13.527896 0.18357,1.928478 0.28377,3.870797 0.29258,5.830542 0.0265,5.900572 -0.77635,11.924712 -2.59182,18.103852 -0.20281,0.69031 -0.42151,1.368 -0.65565,2.03407 -0.13889,0.39513 -0.2832,0.78612 -0.43284,1.1732 m 2.35408,-13.89193 c -0.68754,4.07988 -1.77626,8.40207 -3.35621,12.82848 -1.18278,3.3137 -2.64931,6.70806 -4.43359,10.08199 -1.83908,3.47755 -4.04551,6.51045 -6.62523,9.33784 -2.58055,2.8283 -5.44022,5.35453 -8.68012,8.01799 -3.59506,2.95544 -7.23333,6.10771 -11.06894,9.20395 m 19.13322,-17.59739 c -4.76222,5.40886 -10.68988,10.62109 -17.6747,15.36887 -5.99679,4.07618 -12.82449,8.69368 -20.01566,12.60462 0,0 -1e-5,0 -1e-5,0 -1.30735,0.71101 -2.61959,1.40763 -3.94077,2.09416 -0.42007,0.21828 -0.84089,0.43546 -1.26261,0.65169 m 14.58767,-7.42269 c -4.06985,2.25312 -7.71196,4.38185 -11.86599,6.75919 -2.59919,1.48751 -5.26955,2.99616 -7.93902,4.42675 -6.38305,3.42072 -13.91426,5.63995 -21.5346,7.8786 0,0 0,0 0,0 -3.77016,1.10757 -7.67912,2.34388 -11.98408,3.68067 m 19.03268,-5.07508 c -6.92676,2.70215 -14.09497,4.8688 -21.09574,6.6981 -5.79302,1.51372 -13.12712,3.19675 -20.35253,4.37951 -0.97318,0.15931 -1.9454,0.30969 -2.9123,0.4494 -7.82155,1.13013 -14.94152,2.9793 -23.12569,4.73948 m 34.24406,-7.91187 c -2.74022,0.65664 -5.54732,1.25383 -8.40299,1.79069 -4.75288,0.89353 -9.63015,1.61799 -14.5342,2.1696 -7.62244,0.85736 -15.25869,2.12251 -22.96771,2.66878 -3.5281,0.25 -7.05019,0.54615 -10.60409,0.8316 m 18.91316,-0.73792 c -7.78162,0.91532 -15.4086,1.68128 -23.2042,2.2255 -7.72888,0.53955 -15.4491,1.00845 -23.08786,1.62031 -0.064,0.005 -0.12801,0.0102 -0.19204,0.0151 -3.65088,0.28169 -7.34357,0.26221 -11.01894,0.14246 m 21.03984,-1.68211 c -3.2057,0.0872 -6.33909,0.1669 -9.38987,0.2438 -4.4066,0.11107 -8.61425,0.21574 -12.73586,0.33145 0,0 0,0 0,0 -6.97797,0.1959 -15.65987,-0.71599 -23.3737,-1.30484 -5.86561,-0.44777 -11.71219,-1.18696 -17.53235,-2.02027 m 27.95418,2.10331 c -8.14152,-0.81965 -15.94257,-1.25019 -24.08409,-2.06984 -8.35855,-0.85101 -15.44015,-2.36991 -22.70116,-3.97262 -0.59341,-0.13099 -1.18676,-0.26314 -1.77993,-0.39667 -5.61932,-1.26498 -11.1472,-2.63701 -16.42955,-4.26098 m 26.80474,7.0872 c -4.03138,-0.66578 -8.08327,-1.42469 -12.09062,-2.24992 -3.63797,-0.74916 -7.24548,-1.55425 -10.77647,-2.3964 -7.75557,-1.84973 -14.856862,-3.95404 -21.287759,-6.19495 -4.470472,-1.55778 -9.494966,-3.35728 -14.543486,-5.33628 m 24.741245,7.25157 c -7.947002,-2.36714 -14.758826,-4.82477 -21.251244,-7.73054 -5.587422,-2.50072 -12.194582,-4.83478 -17.893607,-6.9646 -1.267453,-0.47367 -2.509937,-0.94388 -3.728421,-1.41676 -5.661838,-2.19732 -10.782542,-5.85557 -15.308415,-9.40547 m 23.456767,14.08477 c -1.931806,-0.80923 -3.836283,-1.67919 -5.70924,-2.58872 -5.350381,-2.59823 -10.667972,-5.63265 -15.64573,-8.57449 0,0 -2e-6,-1e-5 -2e-6,-1e-5 -7.476818,-4.41878 -12.879092,-9.359 -17.571618,-14.56575 -0.744807,-0.82642 -1.510611,-1.64039 -2.283946,-2.44095 m 8.921788,8.40397 c -6.605593,-5.07631 -11.851655,-10.54755 -16.227757,-16.52465 -0.121275,-0.16564 -0.241887,-0.33169 -0.36184,-0.49814 0,0 -1e-6,0 -1e-6,0 -4.666365,-6.475 -8.266238,-11.69217 -10.8118791,-17.78488 -0.2937965,-0.70317 -0.5702722,-1.4116 -0.8291027,-2.12709 C 4.7768307,110.46892 3.7556943,104.74599 3.6778446,99.03583 3.6550029,97.360429 3.7132701,95.686683 3.851569,94.019741 m 6.42373,33.637189 c -1.5229275,-2.62078 -2.7740892,-5.30501 -3.7480356,-8.02003 -1.6385617,-4.56772 -2.4961168,-9.23172 -2.5466585,-13.86461 -0.019109,-1.75167 -0.036003,-3.48563 -0.023359,-5.24823 0.042361,-5.904841 0.4205233,-11.929354 2.0956545,-17.784809 0,0 3e-7,-10e-7 3e-7,-10e-7 C 6.1912769,82.255555 6.3427483,81.772958 6.5069458,81.291411 8.4336732,75.640843 12.04838,70.285758 16.695966,64.912772 M 4.881227,92.707559 c 0.5699526,-3.988847 1.5759557,-8.000604 2.9864062,-12.04113 1.1883549,-3.404289 2.6555998,-6.806047 4.3750848,-10.219963 1.558768,-3.094826 3.553181,-5.961478 5.881894,-8.736628 2.63078,-3.135125 5.532995,-5.979219 8.654713,-8.976655 1.046158,-1.004507 2.161434,-1.992053 3.342188,-2.961127 m -9.018589,11.1278 c 4.740664,-5.554464 10.691305,-10.370768 17.667631,-14.747146 6.138414,-3.850741 12.525032,-8.658405 19.623068,-12.981596 0,0 3e-6,-1e-6 3e-6,-1e-6 1.046422,-0.637344 2.106485,-1.238646 3.180049,-1.809325 3.415751,-1.815724 6.911411,-3.292244 10.506618,-4.644059 M 49.385619,37.961742 c 3.594012,-2.118935 7.544402,-4.39811 11.626905,-6.700701 2.875573,-1.621864 5.856897,-3.277987 8.846441,-4.907386 6.835303,-3.725464 13.993117,-5.610768 21.780604,-7.821522 1e-6,0 2e-6,0 2e-6,0 6.000543,-1.703466 12.115849,-3.694231 18.293119,-5.396246 m -27.330882,9.521646 c 7.194765,-2.761451 14.721377,-5.177237 23.089412,-7.598483 7.26767,-2.102862 13.35888,-3.624308 19.81923,-5.1926936 0.12779,-0.031024 1.77469,-0.4299355 1.90248,-0.4609595 1.847,-0.4468938 3.8106,-0.8398056 5.85963,-1.1873312 m -15.94955,2.8754803 c 2.35252,-0.594987 4.75835,-1.1352735 7.22094,-1.6356346 5.30921,-1.0787527 10.81522,-1.9588379 16.58417,-2.8075947 8.16687,-1.2015478 15.21309,-2.2068075 22.7161,-2.9961736 2.2134,-0.2328648 4.496,-0.4356783 6.82711,-0.6130214 m -14.46637,1.7131031 c 7.65719,-0.7481732 15.14157,-1.5184352 22.30524,-1.8146496 6.78827,-0.2806916 14.8216,-0.3428432 22.45948,0.2030023 0.37792,0.027008 0.75486,0.055504 1.13062,0.085534 1.33081,0.1063552 2.65481,0.1788414 3.9744,0.226027 M 190.67673,3.0031069 c 2.85543,-0.080884 5.75254,-0.1283018 8.6899,-0.1499621 5.0539,-0.037268 10.229,0.00173 15.50426,0.077722 0,0 0,0 0,0 8.35701,0.1203917 15.35902,0.6483462 22.48216,1.0463904 4.78574,0.2674293 10.02327,1.1044939 15.20911,2.1840226 M 227.43545,4.0381069 c 7.62037,0.7758588 15.80479,1.2919481 23.88809,2.159213 8.28852,0.8892823 15.64077,1.9248606 23.39247,2.6237745 0.1771,0.015968 0.35374,0.032993 0.52994,0.051045 7.39102,0.7572202 14.27789,3.3789356 20.72512,5.5621236 M 264.41385,7.3193263 c 3.97153,0.7507538 7.90878,1.4422142 11.73556,2.1222575 3.79864,0.6750412 7.50585,1.3418172 11.23701,2.0751242 7.74417,1.522005 15.18579,4.06484 21.98974,6.394034 5.36543,1.836745 10.92951,4.103189 16.34961,6.736378 m -27.57496,-9.390704 c 7.69566,2.479315 14.91613,4.638982 22.17844,7.375236 6.17073,2.324976 11.95793,4.914535 17.29624,7.537717 1.21624,0.597646 2.41455,1.199713 3.59339,1.803532 6.94274,3.556173 13.88134,7.799797 19.8313,11.903074 M 331.9237,27.954741 c 2.18677,1.038514 4.621,2.18509 6.80776,3.223604 4.96398,2.356644 9.49212,4.551679 13.96543,6.931814 0,0 1e-5,2e-6 1e-5,2e-6 6.997,3.722928 13.48731,9.157762 18.86593,13.985202 3.73956,3.35634 7.09546,6.832012 10.09905,10.450012 1.06949,1.288252 2.09392,2.594126 3.07404,3.917862 M 362.92819,45.569358 c 6.8836,5.080047 12.43892,10.348653 17.22187,15.920772 0.29413,0.342668 0.58338,0.686152 0.86779,1.03047 4.95444,5.997982 8.47261,12.290551 10.72504,18.870408 0.046,0.13434 0.0915,0.268806 0.13639,0.403396 0,0 0,10e-7 0,10e-7 2.10359,6.300657 3.26861,11.932765 3.03977,17.521189 m -6.26878,-25.967539 c 1.73379,3.024442 3.17054,5.903931 4.30989,8.722254 1.61636,3.998297 2.61892,7.840529 2.98359,11.63656 0.1738,1.809135 0.25776,3.770083 0.23225,5.825986 -0.069,5.557615 -0.94374,11.863585 -2.99548,17.618905 -0.29,0.81347 -0.59664,1.6205 -0.92041,2.42185 -1.28748,3.18656 -2.84435,6.28017 -4.70623,9.34139 m 8.23335,-22.0726 c -0.6374,4.27997 -1.74241,8.70337 -3.39782,13.07192 -1.10607,2.91888 -2.4641,5.82825 -4.09486,8.63241 -1.89381,3.2565 -4.24605,6.4975 -7.02394,9.67891 -2.46497,2.82304 -5.26168,5.59493 -8.3523,8.27209 -3.12206,2.7044 -6.35137,5.45553 -9.59587,8.01073 m 15.0382,-14.26185 c -4.63257,5.71515 -10.06514,10.6439 -16.01515,15.69644 -5.22475,4.43667 -12.57547,8.24508 -20.39845,11.60536 0,0 0,0 -1e-5,0 -1.49885,0.64382 -2.98555,1.32109 -4.4827,2.02592 -1.04243,0.49077 -2.08231,0.99128 -3.13202,1.50132 m 16.84984,-8.27194 c -4.04948,2.40689 -8.28818,4.67698 -12.82806,6.8249 -2.80354,1.32642 -5.72908,2.60974 -8.81496,3.85793 -7.29197,2.94948 -13.961,5.78669 -20.57351,7.96974 0,0 0,0 0,0 -5.94145,1.96151 -13.79379,4.21726 -21.59076,6.06031 m 32.31021,-9.26105 c -6.9777,2.60467 -14.69894,5.18221 -22.89005,7.45478 -7.55653,2.09651 -14.34584,3.47931 -21.63937,4.33025 -0.24597,0.0287 -0.49255,0.0568 -0.73979,0.0843 -3.18232,0.35408 -6.40227,0.96031 -9.64874,1.65722 m 18.37148,-3.06332 c -2.77209,0.61054 -5.54187,1.23976 -8.35954,1.88407 -4.72202,1.07979 -9.63584,2.21569 -14.49135,3.26933 -7.60923,1.65119 -15.62181,2.02696 -24.2248,2.37476 -3.81823,0.15437 -7.28926,0.43296 -10.63483,0.72527 m 20.25352,-1.98619 c -8.00174,0.69509 -15.26535,1.8666 -23.12343,2.83151 -7.68469,0.94363 -15.2147,0.43654 -22.41307,-0.0988 -4e-5,0 -0.079,-0.006 -0.0791,-0.006 -2.61379,-0.19141 -5.39035,-0.24867 -8.23963,-0.24878 m 17.61974,0.56823 c -3.21439,0.12901 -6.35882,0.12829 -9.47009,0.0246 -4.59662,-0.15323 -9.11686,-0.53117 -13.67416,-1.04602 0,0 0,0 0,0 -7.69328,-0.86914 -15.3181,-0.54336 -22.48559,-0.80156 -4.96283,-0.17879 -10.55118,-1.05196 -16.17508,-2.12519 m 26.38689,2.2712 c -7.69294,-0.39642 -15.65693,-1.14112 -23.23759,-1.74577 -7.80029,-0.62218 -15.75803,-2.62098 -23.59038,-4.66227 -0.49911,-0.13008 -0.99517,-0.25692 -1.48834,-0.38093 -4.55702,-1.14582 -9.06086,-2.09361 -13.34077,-3.07042 m 23.20109,7.68964 c -3.74921,-0.5157 -7.31971,-1.31664 -10.74101,-2.3058 -3.80828,-1.10104 -7.45368,-2.4419 -10.95858,-3.89228 -6.97222,-2.88522 -15.251743,-3.9867 -22.460902,-6.21918 -6.423874,-1.98929 -13.058342,-4.43028 -19.396729,-6.80414 m 29.402921,9.36717 c -7.798975,-2.06682 -15.385134,-5.05077 -22.81175,-8.23652 -6.28039,-2.69406 -12.286905,-4.92726 -17.454872,-6.98186 -1.270196,-0.50498 -2.526606,-1.01267 -3.78505,-1.53488 -2.026273,-0.84084 -4.014441,-1.88839 -5.950267,-3.06602 m 15.158634,5.45928 c -1.600294,-0.71805 -3.151101,-1.43558 -4.654685,-2.14942 -5.571208,-2.64497 -10.688321,-5.33289 -15.306218,-7.86461 0,0 -2e-6,0 -2e-6,0 -6.51168,-3.56997 -13.340326,-9.47279 -18.617931,-14.54335 -1.143415,-1.09856 -2.231951,-2.196 -3.269522,-3.29857 m 10.778815,10.60593 C 29.327927,148.08655 24.267485,143.18339 20.056706,138.42902 19.666455,137.98839 19.28227,137.54761 18.90406,137.10698 14.574277,132.06264 11.117679,126.09762 8.718061,120.43216 8.2505781,119.32843 7.8201459,118.22962 7.4271543,117.14125 5.6115242,112.11293 4.9419619,106.68142 5.248411,101.22704 c 0.027401,-0.48771 0.062608,-0.97591 0.1055125,-1.464399 m 4.5815699,26.122739 c -1.0701725,-1.98612 -2.002435,-3.97772 -2.8035985,-5.97705 -2.1673769,-5.40876 -3.3794324,-10.88414 -3.7516751,-16.45634 -0.063495,-0.95047 -0.094745,-1.89512 -0.09419,-2.83417 0.00381,-6.447176 1.5050566,-12.626353 4.3733824,-18.633675 0.1301379,-0.272556 0.2630783,-0.544747 0.3988102,-0.816593 0.6124705,-1.226664 1.25922,-2.486602 1.9431408,-3.768638 M 4.2906197,88.889203 C 4.9441813,86.087795 5.834663,83.351686 6.9738373,80.694401 8.772741,76.498205 11.198155,72.483797 14.306362,68.720015 c 1.391309,-1.684761 2.842438,-3.48025 4.372066,-5.346285 3.249704,-3.964403 7.129,-8.593138 11.405944,-12.645402 1.793902,-1.699664 3.67851,-3.237472 5.667658,-4.653778 M 24.471227,56.309187 C 29.554139,51.067009 35.686241,46.185686 42.914799,41.749164 49.297415,37.831838 55.2172,33.53416 61.486671,29.528236 c -2.73e-4,1.74e-4 0.149634,-0.0955 0.149361,-0.09532 0.915847,-0.583813 1.88662,-1.140633 2.905334,-1.674572 m -11.739195,7.91538 c 2.689764,-1.423116 5.646577,-2.999883 8.388855,-4.434512 3.885757,-2.032842 7.928684,-4.091462 12.027622,-5.977252 6.73954,-3.100648 14.472973,-5.8755 23.161231,-9.141918 0,0 2e-6,-10e-7 2e-6,-10e-7 3.118111,-1.172278 6.041679,-2.018993 8.913339,-2.660225 M 87.663249,20.62241 c 7.201464,-2.519517 14.338451,-4.916307 21.452351,-7.195127 4.75257,-1.522409 9.99397,-2.680664 15.31681,-3.7587409 2.03386,-0.4119344 4.90567,-0.9728855 6.93953,-1.38482 2.26204,-0.4558814 4.64611,-0.8591212 7.12528,-1.2145601 m -15.12059,3.095551 c 0.70642,-0.148204 1.414,-0.2947378 2.12286,-0.4395594 6.89391,-1.4084305 13.92671,-2.6585205 21.27232,-3.7166448 7.91188,-1.1396963 15.35388,-1.7877447 23.17978,-2.0644214 7.12035,-0.2517326 14.00631,-0.698313 20.446,-0.5118749 m -31.98552,2.0609888 c 7.74986,-0.7889294 15.51757,-1.4601261 23.46028,-1.8471824 6.34689,-0.3092899 12.55111,-0.5669204 18.77929,-0.7882913 1.50814,-0.053604 3.01881,-0.1051222 4.53423,-0.1547561 4.00856,-0.1312903 7.93903,-0.056468 11.77743,0.082628 M 194.04894,2.5350835 c 1.58473,0.025363 3.19377,0.034827 4.82289,0.034268 6.19701,-0.00213 12.67964,-0.1491033 19.17493,-0.1166466 0,0 0,0 0,10e-8 8.24916,0.041221 15.40381,1.0499973 22.65312,2.0099973 1.4352,0.1900579 2.90381,0.3898501 4.39854,0.6025368 M 233.19817,4.2913593 c 7.8966,0.8119022 15.31601,1.5754222 22.56123,2.782475 6.64767,1.1075019 12.73911,1.9865211 19.38678,3.0940227 1.0808,0.181215 2.14952,0.364666 3.20374,0.551273 0,0 0,0 0,0 3.37929,0.598164 6.832,1.445073 10.25925,2.42724 M 269.65184,8.2167003 c 1.97897,0.3688155 3.9178,0.7650374 5.81788,1.1876316 5.60932,1.2475631 10.8806,2.7249091 15.84639,4.4043701 6.83478,2.311568 15.59047,3.884735 22.96872,5.454127 5.77643,1.228674 10.84694,3.826019 15.48122,6.451592 m -24.29693,-7.651337 c 7.716,2.396392 14.89036,4.918279 21.57805,7.492266 4.03153,1.551673 7.97282,3.373325 11.61613,5.217617 2.89538,1.465677 5.65661,2.973197 8.18124,4.411923 5.01156,2.855961 10.86344,6.54074 16.18056,10.277366 M 338.17921,30.116024 c 0.001,7.34e-4 0.249,0.134254 0.25036,0.134988 7.26913,3.916734 13.72077,7.207135 20.08207,11.257744 0,0 0,1e-6 0,1e-6 6.90697,4.398065 12.73211,9.984032 17.46395,15.495133 0.45851,0.534013 1.61557,1.875356 2.07408,2.409369 m -7.7424,-10.339504 c 4.6408,3.754251 8.60364,7.902315 12.0079,12.15363 1.41148,1.762694 2.7395,3.559064 3.98811,5.37128 3.11435,4.520134 5.36881,8.821915 6.89365,13.1594 0.87929,2.501212 1.51384,5.010536 1.919,7.554604 0.15535,0.975426 0.30584,1.958813 0.4477,2.954909 m -3.98888,-9.910425 c 0.1987,0.476719 0.38987,0.955509 0.57338,1.43622 2.38079,6.236734 3.46317,12.773247 3.00728,19.308787 -0.0508,0.72861 -0.12077,1.45723 -0.21019,2.18541 -0.71059,5.78643 -1.61637,11.22999 -3.39435,16.27886 -0.5711,1.62174 -1.23562,3.21161 -2.019,4.76248 -0.55922,1.10711 -1.19914,2.2711 -1.91209,3.48013 M 25.071787,144.32343 19.589249,138.43861 M 286.49403,12.036837 l 6.94769,1.794819"
     transform="matrix(0.6,0,0,0.6,5.0722492,4.8932456)" />
  <g
     id="g7"
     transform="matrix(0.6,0,0,0.6,5.0722492,14.893263)"
     style="stroke-width:1.66667;stroke-dasharray:none">
    <text
       xml:space="preserve"
       style="font-weight:bold;font-size:66.6667px;font-family:Sans;-inkscape-font-specification:'Sans, Bold';text-align:center;text-anchor:middle;fill:#808080;fill-opacity:0.12549;stroke:none;stroke-width:1.66667;stroke-dasharray:none"
       x="200.57999"
       y="72.133308"
       id="text4"><tspan
         sodipodi:role="line"
         x="200.57999"
         y="72.133308"
         style="font-style:normal;font-variant:normal;font-weight:normal;font-stretch:normal;font-size:40px;font-family:Quicksand;-inkscape-font-specification:'Quicksand, Normal';font-variant-ligatures:normal;font-variant-caps:normal;font-variant-numeric:normal;font-variant-east-asian:normal;fill:#000000;fill-opacity:1;stroke-width:1.66667;stroke-dasharray:none"
         id="tspan6">Dorf ausbauen</tspan></text>
    <text
       xml:space="preserve"
       style="font-weight:bold;font-size:66.6667px;font-family:Sans;-inkscape-font-specification:'Sans, Bold';text-align:center;text-anchor:middle;fill:#808080;fill-opacity:0.12549;stroke:none;stroke-width:1.66667;stroke-dasharray:none"
       x="200.57999"
       y="122.1333"
       id="text7"><tspan
         sodipodi:role="line"
         x="200.57999"
         y="122.1333"
         style="font-style:normal;font-variant:normal;font-weight:normal;font-stretch:normal;font-size:40px;font-family:Quicksand;-inkscape-font-specification:'Quicksand, Normal';font-variant-ligatures:normal;font-variant-caps:normal;font-variant-numeric:normal;font-variant-east-asian:normal;fill:#000000;fill-opacity:1;stroke-width:1.66667;stroke-dasharray:none"
         id="tspan7">zu Stadt</tspan></text>
  </g>
</svg>
