<?xml version="1.0" encoding="UTF-8" standalone="no"?>
<svg
   height="130"
   width="250"
   version="1.1"
   id="svg1"
   sodipodi:docname="usecase-5.svg"
   inkscape:version="1.3.2 (091e20ef0f, 2023-11-25, custom)"
   xmlns:inkscape="http://www.inkscape.org/namespaces/inkscape"
   xmlns:sodipodi="http://sodipodi.sourceforge.net/DTD/sodipodi-0.dtd"
   xmlns="http://www.w3.org/2000/svg"
   xmlns:svg="http://www.w3.org/2000/svg">
  <defs
     id="defs1">
    <inkscape:path-effect
       effect="sketch"
       id="path-effect4"
       is_visible="true"
       lpeversion="1"
       nbiter_approxstrokes="3"
       parallel_offset="1;1261790451"
       strokelength="70"
       strokelength_rdm="0.3;1"
       strokeoverlap="0.5"
       strokeoverlap_rdm="0.5;1"
       ends_tolerance="0.1;1"
       tremble_size="0.8;1"
       tremble_frequency="3"
       nbtangents="2"
       tgt_places_rdmness="0.5;1"
       tgtlength="5"
       tgtlength_rdm="0.3;1"
       tgtscale="10" />
    <inkscape:path-effect
       effect="sketch"
       id="path-effect3"
       is_visible="true"
       lpeversion="1"
       nbiter_approxstrokes="3"
       parallel_offset="2;1"
       strokelength="70"
       strokelength_rdm="0.3;1"
       strokeoverlap="0.5"
       strokeoverlap_rdm="0.5;1"
       ends_tolerance="0.1;1"
       tremble_size="0.8;1"
       tremble_frequency="3"
       nbtangents="2"
       tgt_places_rdmness="0.5;1"
       tgtlength="5"
       tgtlength_rdm="0.3;1"
       tgtscale="10" />
    <inkscape:path-effect
       effect="sketch"
       id="path-effect2"
       is_visible="true"
       lpeversion="1"
       nbiter_approxstrokes="3"
       parallel_offset="2;1"
       strokelength="70"
       strokelength_rdm="0.3;1"
       strokeoverlap="0.5"
       strokeoverlap_rdm="0.5;1"
       ends_tolerance="0.1;1"
       tremble_size="0.8;1"
       tremble_frequency="3"
       nbtangents="2"
       tgt_places_rdmness="0.5;1"
       tgtlength="5"
       tgtlength_rdm="0.3;1"
       tgtscale="10" />
    <inkscape:path-effect
       effect="sketch"
       id="path-effect6"
       is_visible="true"
       lpeversion="1"
       nbiter_approxstrokes="3"
       parallel_offset="0.2;1"
       strokelength="70"
       strokelength_rdm="0.3;1"
       strokeoverlap="0.5"
       strokeoverlap_rdm="0.5;1"
       ends_tolerance="0.1;1"
       tremble_size="0.8;1"
       tremble_frequency="3"
       nbtangents="2"
       tgt_places_rdmness="0.5;1"
       tgtlength="5"
       tgtlength_rdm="0.3;1"
       tgtscale="10" />
    <inkscape:path-effect
       effect="sketch"
       id="path-effect5"
       is_visible="true"
       lpeversion="1"
       nbiter_approxstrokes="3"
       parallel_offset="0.2;1"
       strokelength="70"
       strokelength_rdm="0.3;1"
       strokeoverlap="0.5"
       strokeoverlap_rdm="0.5;1"
       ends_tolerance="0.1;1"
       tremble_size="0.8;1"
       tremble_frequency="3"
       nbtangents="2"
       tgt_places_rdmness="0.5;1"
       tgtlength="5"
       tgtlength_rdm="0.3;1"
       tgtscale="10" />
    <inkscape:path-effect
       effect="sketch"
       id="path-effect1"
       is_visible="true"
       lpeversion="1"
       nbiter_approxstrokes="3"
       parallel_offset="0.2;1"
       strokelength="70"
       strokelength_rdm="0.3;1"
       strokeoverlap="0.5"
       strokeoverlap_rdm="0.5;1"
       ends_tolerance="0.1;1"
       tremble_size="0.8;1"
       tremble_frequency="3"
       nbtangents="2"
       tgt_places_rdmness="0.5;1"
       tgtlength="5"
       tgtlength_rdm="0.3;1"
       tgtscale="10" />
  </defs>
  <sodipodi:namedview
     id="namedview1"
     pagecolor="#ffffff"
     bordercolor="#000000"
     borderopacity="0.25"
     inkscape:showpageshadow="2"
     inkscape:pageopacity="0.0"
     inkscape:pagecheckerboard="0"
     inkscape:deskcolor="#d1d1d1"
     inkscape:zoom="1.0707932"
     inkscape:cx="136.34752"
     inkscape:cy="207.32295"
     inkscape:window-width="1440"
     inkscape:window-height="831"
     inkscape:window-x="0"
     inkscape:window-y="0"
     inkscape:window-maximized="1"
     inkscape:current-layer="svg1"
     showgrid="false" />
  <path
     id="ellipse1"
     style="fill:#cccccc;fill-opacity:1;stroke:none;stroke-width:0.6;stroke-dasharray:none"
     d="M 23.539818,35.260245 A 117.6,58.8 0 0 0 7.47224,64.893448 a 117.6,58.8 0 0 0 117.6,58.800002 117.6,58.8 0 0 0 107.53242,-35.1668 117.6,58.8 0 0 1 -101.53242,29.1668 117.6,58.8 0 0 1 -117.6,-58.800002 117.6,58.8 0 0 1 10.067578,-23.633203 z" />
  <path
     style="fill:none;fill-opacity:0.12549;stroke:#000000;stroke-width:1.66666667;stroke-dasharray:none"
     id="path1"
     inkscape:path-effect="#path-effect4"
     sodipodi:type="arc"
     sodipodi:cx="200"
     sodipodi:cy="100"
     sodipodi:rx="196"
     sodipodi:ry="98"
     d="m 395.21926,104.67844 c -0.30732,4.77894 -1.5625,9.67291 -3.59166,14.51492 -1.06084,2.53138 -2.32962,5.04022 -3.77613,7.50213 -2.17371,3.6996 -4.74332,7.31971 -7.74946,10.78646 -2.10807,2.43107 -4.4438,4.80176 -7.02948,7.08382 -2.30486,2.03422 -4.79175,4.22943 -7.24167,6.31612 m 14.3217,-13.17361 c -4.83074,5.39717 -10.41027,10.73482 -16.84616,15.2336 -5.46425,3.81958 -12.63229,8.92531 -19.39065,12.93312 0,0 0,0 0,0 -1.01503,0.60193 -2.04767,1.18796 -3.09781,1.76133 m 10.80866,-5.24571 c -4.38164,2.56023 -8.9125,5.15302 -13.35087,7.46476 -2.03885,1.06195 -4.09949,2.08661 -6.17762,3.04999 -6.15086,2.85144 -14.30757,6.27119 -22.62751,9.63155 0,0 0,0 0,0 -1.88246,0.76031 -3.69753,1.40345 -5.47083,1.9562 m 14.79825,-7.4302 c -7.16706,2.68373 -14.20599,5.07541 -21.32151,7.09709 -6.53724,1.85737 -14.30113,3.91823 -21.74893,5.76132 7.3e-4,-1.8e-4 -0.76875,0.18974 -0.76802,0.18956 -6.39468,1.57412 -13.02115,2.71603 -20.11168,4.06382 m 30.55213,-4.31598 c -3.1094,0.80035 -6.31813,1.48489 -9.6024,2.07376 -4.40718,0.7902 -8.92386,1.40342 -13.48698,1.89409 -7.72268,0.83041 -15.38752,2.12269 -23.38266,2.56401 -4.28596,0.23657 -8.42096,0.6652 -12.52074,1.13097 m 22.67267,-1.00883 c -7.39707,1.04418 -15.37031,1.66258 -23.20345,2.07479 -7.7282,0.40669 -15.76988,0.53276 -24.07909,0.1049 0,0 0,0 0,0 -0.53482,-0.0275 -1.06544,-0.0529 -1.59228,-0.0764 -1.90152,-0.0849 -3.75357,-0.1462 -5.57541,-0.20114 m 14.90099,-0.4851 c -3.53499,0.12455 -7.11689,0.28914 -10.68387,0.51039 -4.06842,0.25236 -8.10823,0.57787 -12.02998,1.00028 0,0 0,0 0,0 -7.38469,0.79539 -15.50577,-1.21536 -22.96009,-2.88059 -1.81725,-0.40596 -3.66926,-0.68745 -5.54374,-0.88618 m 15.04343,1.31505 c -7.83748,-0.67939 -15.7379,-1.29644 -23.82582,-2.30698 -8.22128,-1.02719 -15.4366,-2.42955 -22.78396,-4.21302 -0.80401,-0.19516 -1.60734,-0.38433 -2.4088,-0.56859 m 12.86911,3.64584 c -4.07356,-0.63874 -8.1619,-1.51124 -12.1999,-2.55791 -3.58864,-0.9302 -7.14284,-1.99933 -10.61895,-3.16745 -7.72932,-2.59737 -15.394726,-3.96308 -22.853,-6.2416 -5.956362,-1.81969 -11.472077,-3.787 -16.599897,-5.67039 m 26.497917,8.54772 c -7.655996,-2.17922 -14.753426,-4.8763 -21.148966,-7.87709 -5.828392,-2.73468 -12.539799,-5.1723 -18.804079,-7.85685 -1.132731,-0.48543 -2.250161,-0.97751 -3.350011,-1.48041 -5.630436,-2.57451 -10.201491,-5.62733 -14.259706,-8.76765 m 22.770478,15.06229 c -1.998282,-0.9458 -3.969711,-1.91576 -5.913286,-2.91607 -5.196012,-2.67426 -10.125148,-5.53094 -14.758385,-8.65481 0,0 -3e-6,0 -3e-6,0 -7.181714,-4.84213 -13.201364,-9.24548 -18.786831,-14.70044 -2.828777,-2.76268 -5.316542,-5.29531 -7.574973,-7.84969 m 14.752957,14.01103 c -6.396558,-5.06466 -11.869652,-10.69954 -16.388306,-17.01372 -0.129377,-0.18079 -0.257934,-0.36208 -0.385668,-0.54388 0,0 -1e-6,0 -1e-6,0 C 12.791535,129.04478 9.4712544,124.56096 7.1728929,119.14127 6.9080907,118.51685 6.6615167,117.88852 6.4331273,117.2534 4.7843216,112.66835 3.7856032,106.99606 3.7511891,101.38187 M 10.824388,125.1967 C 9.636014,123.01465 8.570018,120.80547 7.6453491,118.59174 5.6135112,113.72738 4.2827565,108.88525 3.7972148,104.27204 3.6764534,103.12466 3.615364,101.92966 3.612267,100.69953 3.5968456,94.573961 5.0237953,87.545022 7.6839731,81.088855 c 0,0 4e-7,-10e-7 4e-7,-10e-7 -3.4e-6,8e-6 0.04449,-0.107741 0.044487,-0.107733 C 9.229863,77.353059 10.990292,73.894697 13.056963,70.568085 M 5.2232496,89.48287 c 0.6583015,-3.115496 1.5902148,-6.171997 2.8078387,-9.18555 1.6669715,-4.125665 3.8680167,-8.167153 6.6431237,-12.192347 1.463366,-2.122561 3.045397,-4.198073 4.754318,-6.223075 3.178422,-3.766303 6.807923,-7.373038 10.982896,-10.823648 1.213842,-1.003239 2.455595,-2.016493 3.716191,-3.027185 M 22.198614,58.116626 c 4.970639,-5.146349 11.144366,-10.652789 18.32727,-16.136148 6.608481,-5.044849 12.378878,-8.189092 19.368839,-12.167366 0.221272,-0.125935 0.444312,-0.250933 0.669088,-0.375018 2.183478,-1.205365 4.522305,-2.319902 6.984911,-3.367038 M 52.087053,36.69231 c 2.83115,-1.534368 5.854353,-3.108275 8.998936,-4.639227 3.917237,-1.907122 8.102996,-3.786909 12.436398,-5.467616 7.249343,-2.811654 14.298436,-5.798382 22.08557,-8.632276 10e-7,-1e-6 2e-6,-1e-6 3e-6,-1e-6 5.58405,-2.032148 11.08725,-3.432156 16.84134,-4.735913 m -26.118823,7.644012 c 7.203289,-2.552381 14.315843,-4.659324 21.517693,-6.276035 5.21837,-1.171448 11.01989,-2.860551 17.05718,-4.6401518 1.95344,-0.5758105 3.93629,-1.1622565 5.88315,-1.72747 7.1118,-2.0647048 13.98005,-2.486717 21.23805,-3.1821324 m -32.15738,4.4678605 c 1.7449,-0.3693258 3.47674,-0.7160927 5.20066,-1.0380023 5.8604,-1.0943252 11.64401,-1.9045219 17.61874,-2.3449502 7.37281,-0.5434887 14.59074,-1.9584997 21.96355,-2.5019884 6.47442,-0.4668814 14.64105,-1.0509379 22.34217,-1.2883014 m -33.17118,1.5082274 c 7.46062,-1.1568505 15.39163,-1.5555159 23.27575,-1.9355084 7.3212,-0.3528614 14.94369,-0.4305183 22.91109,-0.073473 0.49392,0.022134 0.98914,0.045938 1.48568,0.071448 3.95976,0.203438 7.50747,0.2518215 10.85462,0.2707976 m -19.95194,0.9739608 c 2.72592,-0.022216 5.42147,-0.034679 8.10627,-0.026553 5.16038,0.01562 10.27837,0.1072915 15.51234,0.3516107 0,0 0,0 0,0 8.01507,0.3741398 15.24528,0.4407314 22.2547,0.4132889 5.0042,-0.019592 10.80552,1.0378089 16.57743,2.2937246 M 228.26692,2.9515823 c 7.60383,0.6775163 15.91805,1.2183136 24.22286,1.9167154 8.43449,0.7093068 15.13584,2.3413131 21.7377,3.7641678 -3e-5,-4.6e-6 0.0909,0.019605 0.0908,0.0196 5.77293,1.2466616 12.69332,2.9742785 19.35221,4.9917355 M 265.77331,6.9314138 c 3.49458,0.6099184 6.9825,1.2752383 10.43941,1.9909833 4.19119,0.8677775 8.33433,1.8091529 12.39073,2.8159769 7.74142,1.921467 15.11775,3.899105 22.06217,5.913902 6.87066,1.993393 13.97963,5.051336 20.22936,7.900684 M 299.68623,14.480464 c 7.46236,2.191369 15.109,4.800092 22.1957,7.611285 6.19427,2.457178 11.84334,5.280342 17.09467,8.509876 1.20858,0.743272 2.39523,1.507571 3.56124,2.293014 5.71952,3.852761 11.73963,6.656317 17.24134,9.851644 m -27.43542,-14.47572 c 1.9549,0.898694 3.8762,1.822457 5.76309,2.770314 5.26619,2.645406 10.26351,5.478114 14.97049,8.474645 0,0 0,2e-6 0,2e-6 7.14554,4.548956 12.97207,8.972229 17.97634,13.755666 3.14095,3.002336 6.27672,6.143612 9.23469,9.437772 2.35216,2.61949 4.53586,5.273988 6.4772,7.957234 M 363.96779,45.932302 c 6.63815,4.937337 11.85191,10.233176 15.6818,15.629904 0.23906,0.336858 0.4826,0.676687 0.72938,1.018716 4.47719,6.205043 9.16298,12.141201 12.64078,19.274553 0.0641,0.131465 0.12759,0.263021 0.19047,0.394667 0,0 0,0 0,10e-7 2.65645,5.561169 3.46885,10.542638 3.37635,15.36576 m -8.62125,-25.555549 c 1.60175,2.719909 2.97577,5.548685 4.09418,8.430399 1.72472,4.443948 2.83815,9.003369 3.26882,13.527895 0.18356,1.928479 0.28376,3.870797 0.29258,5.830542 0.0265,5.90057 -0.77635,11.92472 -2.59182,18.10386 -0.20282,0.69031 -0.42152,1.368 -0.65566,2.03406 -0.13889,0.39513 -0.2832,0.78612 -0.43284,1.1732 m 2.83846,-15.14974 c -0.68754,4.07988 -1.77626,8.40207 -3.35621,12.82848 -1.18278,3.3137 -2.64932,6.70806 -4.43359,10.08199 -1.83908,3.47755 -4.04551,6.51045 -6.62523,9.33784 -2.58055,2.8283 -5.44023,5.35453 -8.68012,8.01799 -3.59506,2.95544 -7.23333,6.10771 -11.06894,9.20395 m 19.90665,-15.25364 c -4.76221,5.40886 -10.68987,10.62109 -17.6747,15.36887 -5.99678,4.07618 -12.82449,8.69368 -20.01566,12.60462 0,0 0,0 0,0 -1.30735,0.71101 -2.6196,1.40763 -3.94077,2.09416 -0.42007,0.21828 -0.84089,0.43546 -1.26261,0.65169 m 12.66579,-9.33675 c -4.06985,2.25311 -7.71196,4.38185 -11.86599,6.75919 -2.59919,1.48751 -5.26955,2.99616 -7.93902,4.42675 -6.38305,3.42072 -13.91426,5.63994 -21.5346,7.87859 0,0 0,0 0,0 -3.77016,1.10758 -7.67912,2.34389 -11.98408,3.68068 m 18.57955,-5.30946 c -6.92675,2.70215 -14.09496,4.8688 -21.09574,6.6981 -5.79302,1.51372 -13.12712,3.19675 -20.35252,4.37952 -0.97319,0.1593 -1.94541,0.30969 -2.9123,0.44939 -7.82155,1.13013 -14.94153,2.9793 -23.1257,4.73949 m 35.1425,-5.14625 c -2.74021,0.65664 -5.54732,1.25383 -8.40299,1.79069 -4.75288,0.89353 -9.63015,1.61799 -14.5342,2.16959 -7.62244,0.85737 -15.25869,2.12251 -22.96771,2.66878 -3.52809,0.25001 -7.05018,0.54616 -10.60409,0.83161 m 20.08504,-2.39418 c -7.78162,0.91532 -15.4086,1.68129 -23.2042,2.2255 -7.72888,0.53956 -15.4491,1.00846 -23.08787,1.62032 -0.064,0.005 -0.12801,0.0102 -0.19203,0.0151 -3.65088,0.28169 -7.34357,0.26222 -11.01895,0.14247 m 20.32891,-1.97899 c -3.2057,0.0872 -6.33909,0.1669 -9.38987,0.2438 -4.4066,0.11107 -8.61425,0.21574 -12.73586,0.33145 0,0 0,0 0,0 -6.97797,0.1959 -15.65987,-0.71599 -23.3737,-1.30484 -5.86561,-0.44777 -11.71219,-1.18696 -17.53235,-2.02026 m 26.32918,3.17362 c -8.14152,-0.81965 -15.94257,-1.25019 -24.08409,-2.06984 -8.35855,-0.85101 -15.44015,-2.36992 -22.70116,-3.97263 -0.59341,-0.13098 -1.18676,-0.26314 -1.77993,-0.39666 -5.61932,-1.26499 -11.1472,-2.63702 -16.42955,-4.26098 m 29.11724,5.35282 c -4.03138,-0.66578 -8.08327,-1.42469 -12.09062,-2.24992 -3.63797,-0.74916 -7.24548,-1.55425 -10.77647,-2.3964 -7.75557,-1.84973 -14.856862,-3.95404 -21.287759,-6.19495 -4.470472,-1.55778 -9.494966,-3.35728 -14.543486,-5.33628 m 23.061555,8.3375 c -7.946999,-2.36713 -14.758824,-4.82476 -21.251242,-7.73053 -5.587422,-2.50073 -12.194581,-4.83479 -17.893607,-6.96461 -1.267453,-0.47367 -2.509936,-0.94387 -3.728421,-1.41675 -5.661838,-2.19732 -10.782542,-5.85557 -15.308414,-9.40547 m 23.323954,13.06914 c -1.931806,-0.80922 -3.836283,-1.67918 -5.70924,-2.58872 -5.350381,-2.59823 -10.667972,-5.63265 -15.64573,-8.57449 0,0 -2e-6,0 -2e-6,0 -7.476818,-4.41879 -12.879092,-9.35901 -17.571618,-14.56575 -0.744807,-0.82643 -1.510611,-1.64039 -2.283946,-2.44096 m 10.015538,8.99772 c -6.605593,-5.07631 -11.851655,-10.54754 -16.227757,-16.52465 -0.121275,-0.16564 -0.241887,-0.33169 -0.36184,-0.49813 0,0 -1e-6,0 -1e-6,0 C 14.082099,129.37487 10.482226,124.15771 7.9365849,118.065 7.6427884,117.36183 7.3663127,116.65339 7.1074822,115.9379 5.1205807,110.44548 4.0994443,104.72255 4.0215946,99.012392 c -0.022842,-1.6754 0.035425,-3.349147 0.1737244,-5.016089 m 6.595605,33.301257 c -1.5229275,-2.62078 -2.7740892,-5.30502 -3.7480356,-8.02003 -1.6385617,-4.56772 -2.4961168,-9.23172 -2.5466585,-13.86462 -0.01911,-1.75166 -0.036003,-3.48562 -0.023359,-5.24822 0.042361,-5.904846 0.4205233,-11.929359 2.0956545,-17.784814 0,0 3e-7,-10e-7 3e-7,-10e-7 C 6.7069019,81.89618 6.8583733,81.413583 7.0225708,80.932036 8.9492982,75.281468 12.564005,69.926383 17.211591,64.553397 M 5.678102,91.840371 c 0.5699526,-3.988846 1.5759557,-8.000603 2.9864062,-12.04113 1.1883549,-3.404288 2.6555998,-6.806047 4.3750848,-10.219963 1.558768,-3.094826 3.553181,-5.961478 5.881894,-8.736627 2.63078,-3.135126 5.532995,-5.97922 8.654713,-8.976655 1.046158,-1.004508 2.161434,-1.992054 3.342188,-2.961128 M 20.532612,60.149856 c 4.740663,-5.554464 10.691305,-10.370768 17.667631,-14.747146 6.138413,-3.850741 12.525031,-8.658405 19.623068,-12.981596 0,0 2e-6,-1e-6 2e-6,-1e-6 1.046423,-0.637344 2.106485,-1.238646 3.180049,-1.809325 3.415752,-1.815724 6.911412,-3.292244 10.506619,-4.644059 M 50.393432,37.805492 c 3.594011,-2.118935 7.544401,-4.39811 11.626905,-6.700701 2.875572,-1.621864 5.856896,-3.277987 8.846441,-4.907386 6.835302,-3.725464 13.993116,-5.610768 21.780603,-7.821522 10e-7,0 2e-6,0 3e-6,0 6.000543,-1.703466 12.115846,-3.694231 18.293116,-5.396246 m -28.963692,9.091959 c 7.194765,-2.761451 14.721377,-5.177237 23.089412,-7.598484 7.26767,-2.102861 13.35888,-3.624308 19.81923,-5.1926931 0.12779,-0.031024 1.77469,-0.4299355 1.90248,-0.4609595 1.847,-0.4468938 3.8106,-0.8398056 5.85963,-1.1873312 m -15.87924,2.5161058 c 2.35252,-0.5949871 4.75835,-1.135274 7.22094,-1.6356351 5.30922,-1.0787527 10.81522,-1.9588379 16.58418,-2.8075947 8.16686,-1.2015478 15.21308,-2.2068075 22.71609,-2.9961736 2.2134,-0.2328648 4.496,-0.4356783 6.82711,-0.6130214 m -15.31012,1.7131031 c 7.65719,-0.7481732 15.14157,-1.5184352 22.30525,-1.8146496 6.78827,-0.2806916 14.8216,-0.3428432 22.45948,0.2030023 0.37791,0.027008 0.75485,0.055504 1.13061,0.085534 1.33081,0.1063552 2.65482,0.1788414 3.9744,0.226027 M 191.0361,1.6593569 c 2.85543,-0.080884 5.75255,-0.1283018 8.68991,-0.1499621 5.05389,-0.037268 10.229,0.00173 15.50425,0.077722 0,0 1e-5,0 1e-5,0 8.357,0.1203917 15.35901,0.6483462 22.48215,1.0463904 4.78574,0.2674293 10.02328,1.1044939 15.20912,2.1840226 M 226.93545,3.4677944 c 7.62037,0.7758588 15.80479,1.2919481 23.88809,2.159213 8.28852,0.8892823 15.64077,1.9248606 23.39247,2.6237745 0.1771,0.015968 0.35374,0.032993 0.52994,0.051045 7.39102,0.7572202 14.27789,3.3789361 20.72512,5.5621231 M 264.37479,6.9287013 c 3.97153,0.7507538 7.90878,1.4422142 11.73556,2.1222575 3.79863,0.6750417 7.50585,1.3418172 11.23701,2.0751242 7.74416,1.522005 15.18579,4.06484 21.98974,6.394034 5.36543,1.836745 10.9295,4.103189 16.34961,6.736378 m -27.00465,-9.359454 c 7.69566,2.479315 14.91613,4.638982 22.17844,7.375236 6.17073,2.324976 11.95793,4.914535 17.29624,7.537717 1.21624,0.597646 2.41455,1.199713 3.59339,1.803532 6.94274,3.556173 13.88134,7.799797 19.8313,11.903074 M 331.08777,29.001616 c 2.18676,1.038514 4.62099,2.18509 6.80776,3.223604 4.96397,2.356644 9.49211,4.551679 13.96543,6.931814 0,0 0,2e-6 0,2e-6 6.997,3.722928 13.48731,9.157762 18.86593,13.985202 3.73956,3.35634 7.09546,6.832012 10.09906,10.450012 1.06948,1.288252 2.09391,2.594126 3.07403,3.917862 M 363.36569,45.319358 c 6.8836,5.080047 12.43892,10.348653 17.22187,15.920772 0.29413,0.342668 0.58338,0.686152 0.86779,1.03047 4.95444,5.997982 8.47261,12.290551 10.72504,18.870408 0.046,0.13434 0.0915,0.268806 0.13639,0.403396 0,0 0,10e-7 0,10e-7 2.10359,6.300657 3.26861,11.932765 3.03977,17.521189 m -7.64378,-26.881601 c 1.73379,3.024441 3.17054,5.903931 4.30989,8.722254 1.61636,3.998297 2.61892,7.840528 2.98359,11.636559 0.1738,1.809135 0.25776,3.770084 0.23225,5.825986 -0.069,5.557618 -0.94374,11.863588 -2.99548,17.618908 -0.29,0.81346 -0.59664,1.6205 -0.92041,2.42184 -1.28748,3.18656 -2.84435,6.28018 -4.70623,9.3414 m 9.36616,-21.93979 c -0.6374,4.27997 -1.74241,8.70337 -3.39781,13.07192 -1.10607,2.91888 -2.46411,5.82825 -4.09486,8.63241 -1.89382,3.2565 -4.24605,6.4975 -7.02395,9.67891 -2.46497,2.82304 -5.26167,5.59493 -8.35229,8.27209 -3.12207,2.7044 -6.35138,5.45553 -9.59588,8.01073 m 15.31164,-13.17591 c -4.63257,5.71515 -10.06514,10.6439 -16.01515,15.69644 -5.22475,4.43667 -12.57547,8.24507 -20.39845,11.60536 0,0 0,0 -1e-5,0 -1.49885,0.64382 -2.98555,1.32109 -4.4827,2.02592 -1.04243,0.49076 -2.08231,0.99128 -3.13202,1.50132 m 16.59984,-8.67038 c -4.04948,2.40689 -8.28818,4.67698 -12.82806,6.8249 -2.80354,1.32642 -5.72908,2.60974 -8.81496,3.85793 -7.29197,2.94948 -13.961,5.78669 -20.57351,7.96974 0,0 0,0 0,0 -5.94145,1.96151 -13.79379,4.21726 -21.59076,6.06031 m 30.91959,-9.7923 c -6.9777,2.60467 -14.69895,5.18221 -22.89005,7.45478 -7.55654,2.09651 -14.34584,3.47931 -21.63938,4.33025 -0.24597,0.0287 -0.49255,0.0568 -0.73979,0.0843 -3.18232,0.35408 -6.40226,0.96031 -9.64874,1.65722 m 20.18399,-3.70394 c -2.77209,0.61053 -5.54187,1.23975 -8.35955,1.88407 -4.72201,1.07978 -9.63583,2.21568 -14.49134,3.26932 -7.60923,1.65119 -15.62182,2.02697 -24.22481,2.37477 -3.81823,0.15436 -7.28926,0.43295 -10.63482,0.72526 m 19.80039,0.52944 c -8.00174,0.69509 -15.26535,1.8666 -23.12343,2.83151 -7.68469,0.94363 -15.2147,0.43654 -22.41307,-0.0988 -4e-5,0 -0.079,-0.006 -0.0791,-0.006 -2.61379,-0.19141 -5.39035,-0.24867 -8.23963,-0.24878 m 17.21349,0.0135 c -3.21439,0.12901 -6.35882,0.1283 -9.47009,0.0246 -4.59662,-0.15322 -9.11686,-0.53117 -13.67416,-1.04602 0,0 0,0 0,0 -7.69328,-0.86914 -15.3181,-0.54335 -22.48559,-0.80156 -4.96283,-0.17879 -10.55118,-1.05196 -16.17508,-2.12519 m 24.97283,2.63058 c -7.69294,-0.39642 -15.65693,-1.14112 -23.23759,-1.74578 -7.80029,-0.62217 -15.75803,-2.62098 -23.59038,-4.66226 -0.49911,-0.13008 -0.99517,-0.25693 -1.48834,-0.38093 -4.55703,-1.14582 -9.06086,-2.09361 -13.34077,-3.07043 m 25.52921,6.33809 c -3.74921,-0.51571 -7.3197,-1.31665 -10.74101,-2.30581 -3.80827,-1.10103 -7.45368,-2.44189 -10.95858,-3.89227 -6.97222,-2.88522 -15.251741,-3.98671 -22.460899,-6.21918 -6.423875,-1.98929 -13.058342,-4.43029 -19.396729,-6.80415 m 28.387298,9.49218 c -7.798977,-2.06683 -15.385136,-5.05078 -22.811753,-8.23653 -6.280389,-2.69405 -12.286905,-4.92725 -17.454871,-6.98185 -1.270196,-0.50499 -2.526607,-1.01268 -3.78505,-1.53489 -2.026273,-0.84083 -4.014442,-1.88839 -5.950268,-3.06602 m 13.783635,7.13116 c -1.600294,-0.71805 -3.151101,-1.43558 -4.654685,-2.14942 -5.571208,-2.64497 -10.688321,-5.33289 -15.306218,-7.86461 0,0 -2e-6,0 -2e-6,0 -6.511681,-3.56997 -13.340326,-9.47279 -18.617931,-14.54335 -1.143416,-1.09856 -2.231952,-2.196 -3.269523,-3.29857 m 11.82569,9.32468 C 28.67949,148.0553 23.619047,143.15214 19.408268,138.39777 19.018018,137.95714 18.633833,137.51636 18.255622,137.07573 13.925839,132.03139 10.469242,126.06637 8.0696235,120.40091 7.6021406,119.29718 7.1717084,118.19837 6.7787168,117.11 4.9630867,112.08168 4.2935244,106.65017 4.5999735,101.19579 4.627375,100.70808 4.662581,100.21988 4.705486,99.731391 m 6.230007,26.200859 C 9.8653209,123.94613 8.9330584,121.95453 8.1318949,119.9552 5.964518,114.54644 4.7524625,109.07106 4.3802198,103.49887 4.3167244,102.54839 4.2854747,101.60374 4.2860296,100.6647 4.2898396,94.217519 5.7910862,88.038342 8.659412,82.03102 8.7895499,81.758464 8.9224903,81.486273 9.0582222,81.214427 9.6706927,79.987763 10.317442,78.727825 11.001363,77.445789 M 4.0718697,88.678265 C 4.7254313,85.876857 5.615913,83.140749 6.7550873,80.483464 8.553991,76.287267 10.979405,72.272859 14.087612,68.509077 c 1.391309,-1.68476 2.842438,-3.480249 4.372066,-5.346285 3.249704,-3.964402 7.129,-8.593138 11.405944,-12.645402 1.793902,-1.699664 3.67851,-3.237472 5.667658,-4.653778 M 23.346227,56.746687 C 28.429139,51.504509 34.561241,46.623186 41.789799,42.186664 48.172415,38.269338 54.0922,33.97166 60.361671,29.965736 c -2.73e-4,1.74e-4 0.149634,-0.0955 0.149361,-0.09532 0.915847,-0.583813 1.88662,-1.140633 2.905334,-1.674572 m -11.332945,6.993505 c 2.689764,-1.423116 5.646577,-2.999883 8.388855,-4.434512 3.885757,-2.032842 7.928684,-4.091462 12.027622,-5.977252 6.73954,-3.100648 14.472973,-5.8755 23.161231,-9.141918 10e-7,0 10e-7,0 2e-6,-1e-6 3.118111,-1.172278 6.041679,-2.018993 8.913339,-2.660225 m -15.934659,8.186035 c 7.201464,-2.519518 14.338449,-4.916307 21.452349,-7.195127 4.75257,-1.522409 9.99398,-2.680665 15.31681,-3.758741 2.03386,-0.4119348 4.90567,-0.9728859 6.93953,-1.3848204 2.26204,-0.4558814 4.64611,-0.8591212 7.12529,-1.2145601 M 123.48601,8.492838 c 0.70642,-0.1482041 1.41399,-0.2947378 2.12286,-0.4395594 6.89391,-1.4084305 13.9267,-2.6585205 21.27231,-3.7166448 7.91189,-1.1396963 15.35388,-1.7877447 23.17979,-2.0644214 7.12035,-0.2517326 14.00631,-0.698313 20.44599,-0.5118749 m -32.09489,2.8109888 c 7.74986,-0.7889294 15.51757,-1.4601261 23.46028,-1.8471824 6.34689,-0.3092899 12.55111,-0.5669204 18.77929,-0.7882913 1.50814,-0.053604 3.01881,-0.1051222 4.53423,-0.1547561 4.00856,-0.1312903 7.93903,-0.056468 11.77743,0.082628 m -23.19561,0.5932342 c 1.58473,0.025363 3.19377,0.034827 4.82289,0.034268 6.19701,-0.00213 12.67964,-0.1491033 19.17493,-0.1166466 0,0 0,0 0,10e-8 8.24916,0.041221 15.40381,1.0499973 22.65312,2.0099973 1.4352,0.1900579 2.90381,0.3898501 4.39854,0.6025368 m -11.494,-1.7582543 c 7.8966,0.8119022 15.31601,1.5754222 22.56123,2.782475 6.64767,1.1075019 12.73911,1.9865211 19.38678,3.0940229 1.0808,0.1812152 2.14952,0.3646663 3.20374,0.5512726 0,0 0,2e-7 0,2e-7 3.37929,0.598164 6.832,1.445073 10.25925,2.42724 m -18.1839,-2.7890447 c 1.97898,0.3688155 3.91781,0.7650377 5.81788,1.1876317 5.60932,1.247563 10.88061,2.724909 15.84639,4.40437 6.83479,2.311568 15.59047,3.884735 22.96873,5.454127 5.77642,1.228674 10.84693,3.826019 15.48122,6.451592 m -25.66412,-9.104462 c 7.716,2.396392 14.89036,4.918279 21.57805,7.492266 4.03153,1.551673 7.97282,3.373325 11.61613,5.217617 2.89538,1.465677 5.65661,2.973197 8.18124,4.411923 5.01156,2.855961 10.86344,6.54074 16.18056,10.277366 M 337.16358,30.014462 c 0.001,7.34e-4 0.249,0.134254 0.25036,0.134988 7.26913,3.916733 13.72078,7.207134 20.08208,11.257743 0,0 0,2e-6 0,2e-6 6.90696,4.398064 12.7321,9.984031 17.46395,15.495133 0.4585,0.534013 1.61557,1.875356 2.07407,2.409369 m -6.57834,-9.964504 c 4.64081,3.75425 8.60365,7.902314 12.0079,12.15363 1.41149,1.762693 2.7395,3.559063 3.98811,5.37128 3.11436,4.520134 5.36882,8.821915 6.89366,13.1594 0.87929,2.501211 1.51384,5.010535 1.919,7.554603 0.15534,0.975427 0.30583,1.958813 0.4477,2.95491 m -4.56701,-10.574488 c 0.19871,0.476719 0.38987,0.955509 0.57338,1.43622 2.38079,6.236734 3.46317,12.773247 3.00728,19.308792 -0.0508,0.7286 -0.12077,1.45723 -0.21019,2.1854 -0.71058,5.78643 -1.61637,11.23 -3.39435,16.27887 -0.5711,1.62174 -1.23562,3.21161 -2.019,4.76247 -0.55922,1.10711 -1.19913,2.27111 -1.91209,3.48014 M 25.071787,144.32343 19.589249,138.43861 M 286.49403,12.036837 l 6.94769,1.794819"
     transform="matrix(0.6,0,0,0.6,5.07224,4.8934483)" />
  <g
     id="g7"
     transform="matrix(0.6,0,0,0.6,5.07224,14.893465)">
    <text
       xml:space="preserve"
       style="font-weight:bold;font-size:66.6667px;font-family:Sans;-inkscape-font-specification:'Sans, Bold';text-align:center;text-anchor:middle;fill:#808080;fill-opacity:0.12549;stroke:none;stroke-width:1;stroke-dasharray:none"
       x="200.57999"
       y="72.133308"
       id="text4"><tspan
         sodipodi:role="line"
         x="200.57999"
         y="72.133308"
         style="font-style:normal;font-variant:normal;font-weight:normal;font-stretch:normal;font-size:40px;font-family:Quicksand;-inkscape-font-specification:'Quicksand, Normal';font-variant-ligatures:normal;font-variant-caps:normal;font-variant-numeric:normal;font-variant-east-asian:normal;fill:#000000;fill-opacity:1"
         id="tspan6">Partie</tspan></text>
    <text
       xml:space="preserve"
       style="font-weight:bold;font-size:66.6667px;font-family:Sans;-inkscape-font-specification:'Sans, Bold';text-align:center;text-anchor:middle;fill:#808080;fill-opacity:0.12549;stroke:none;stroke-width:1;stroke-dasharray:none"
       x="200.57999"
       y="122.1333"
       id="text7"><tspan
         sodipodi:role="line"
         x="200.57999"
         y="122.1333"
         style="font-style:normal;font-variant:normal;font-weight:normal;font-stretch:normal;font-size:40px;font-family:Quicksand;-inkscape-font-specification:'Quicksand, Normal';font-variant-ligatures:normal;font-variant-caps:normal;font-variant-numeric:normal;font-variant-east-asian:normal;fill:#000000;fill-opacity:1"
         id="tspan7">verlassen</tspan></text>
  </g>
</svg>
